600 0 1 0           
37 SolidWorks(2001239)-Sat-Convertor-2.0 13 ACIS 6.0.3 NT 24 Mon Oct 08 15:26:06 2001 
1000 9.9999999999999995e-007 1e-010 
-0 body $1 $2 $-1 $-1 #
-1 string_attrib-name_attrib-gen-attrib $-1 $3 $-1 $0 keep keep_kept ignore copy 17 SW_COMPONENT_NAME 8 Staubli0 #
-2 lump $-1 $-1 $4 $0 #
-3 rgb_color-st-attrib $-1 $-1 $1 $0 1 0.50196078431372548 0 #
-4 shell $-1 $-1 $-1 $5 $-1 $2 #
-5 face $-1 $6 $7 $4 $-1 $8 reversed single #
-6 face $-1 $9 $10 $4 $-1 $11 forward single #
-7 loop $-1 $-1 $12 $5 #
-8 plane-surface $-1 -0.068970925503459193 -0.090581573174586136 0.03000000000001073 9.9920072216264404e-016 2.1094237467877958e-015 -1 -4.6074255521943933e-015 -1.0000000000000018 -2.1094237467878037e-015 forward_v I I I I #
-9 face $-1 $13 $14 $4 $-1 $15 forward single #
-10 loop $-1 $-1 $16 $6 #
-11 cone-surface $-1 -7.7593487191052333e-015 -1.1417256029488933e-015 0.2100000000000124 1.2767564783189249e-015 6.5225602696727868e-016 -1 -3.9639073685838381e-016 -0.086033020472700575 -1.8714020307182524e-016 1 I I 0 1 1 forward I I I I #
-12 coedge $-1 $17 $18 $19 $20 reversed $7 $-1 #
-13 face $-1 $21 $22 $4 $-1 $23 forward single #
-14 loop $-1 $-1 $24 $9 #
-15 cone-surface $-1 -0.06897092550345256 0.090581573174588162 0.030000000000001179 9.9920072216263418e-016 0 -1 -5.0237591864288286e-017 -0.010000000000000023 -2.2482016248659495e-017 1 I I 0 1 1 forward I I I I #
-16 coedge $-1 $25 $19 $26 $27 reversed $10 $-1 #
-17 coedge $-1 $28 $12 $29 $30 reversed $7 $-1 #
-18 coedge $-1 $12 $31 $32 $33 reversed $7 $-1 #
-19 coedge $-1 $16 $34 $12 $20 forward $10 $-1 #
-20 edge $-1 $35 -0.36473481426443732 $36 3.5961803229644979e-014 $19 $37 forward 7 unknown #
-21 face $-1 $38 $39 $4 $-1 $40 forward single #
-22 loop $-1 $-1 $41 $13 #
-23 plane-surface $-1 -0.060000000000001261 0.069999999999998605 0.030000000000002938 -0.6427876096865387 -0.76604444311897857 -1.3451264331385289e-015 0.76604444311897946 -0.64278760968653936 -1.3429163633638471e-015 forward_v I I I I #
-24 coedge $-1 $42 $43 $44 $45 reversed $14 $-1 #
-25 coedge $-1 $46 $16 $47 $48 forward $10 $-1 #
-26 coedge $-1 $32 $49 $16 $27 forward $50 $-1 #
-27 edge $-1 $51 0.0020000000000026386 $36 0.17999999999999902 $26 $52 forward 7 unknown #
-28 coedge $-1 $53 $17 $54 $55 reversed $7 $-1 #
-29 coedge $-1 $56 $57 $17 $30 forward $58 $-1 #
-30 edge $-1 $59 0 $35 0.097073783218456194 $29 $60 forward 7 unknown #
-31 coedge $-1 $18 $61 $62 $63 forward $7 $-1 #
-32 coedge $-1 $64 $26 $18 $33 forward $50 $-1 #
-33 edge $-1 $36 3.5961803229644979e-014 $65 0.77177250276042419 $32 $66 forward 7 unknown #
-34 coedge $-1 $19 $67 $56 $68 forward $10 $-1 #
-35 vertex $-1 $20 $69 #
-36 vertex $-1 $20 $70 #
-37 ellipse-curve $-1 -4.4708681201655128e-015 2.6283142329219735e-015 0.030000000000013571 -9.9920072216263418e-016 0 1 3.9639073685838302e-016 0.086033020472700575 1.8020130916791801e-016 1 I I #
-38 face $-1 $71 $72 $4 $-1 $73 reversed single #
-39 loop $-1 $-1 $74 $21 #
-40 cone-surface $-1 -0.060000000000006534 0.095000000000001625 0.030000000000010962 9.9920072216263418e-016 0 -1 -9.3536289824669343e-017 -0.020000000000000046 -4.149458554536537e-017 1 I I 0 1 1 forward I I I I #
-41 coedge $-1 $75 $76 $77 $78 reversed $22 $-1 #
-42 coedge $-1 $79 $24 $53 $80 reversed $14 $-1 #
-43 coedge $-1 $24 $79 $81 $82 forward $14 $-1 #
-44 coedge $-1 $76 $75 $24 $45 forward $22 $-1 #
-45 edge $-1 $83 0 $84 0.029999999999994031 $44 $85 forward 7 unknown #
-46 coedge $-1 $86 $25 $87 $88 forward $10 $-1 #
-47 coedge $-1 $89 $90 $25 $48 reversed $91 $-1 #
-48 edge $-1 $51 -4.9907267236656468e-015 $92 3.141592653589798 $25 $93 forward 7 unknown #
-49 coedge $-1 $26 $87 $94 $95 forward $50 $-1 #
-50 loop $-1 $-1 $49 $96 #
-51 vertex $-1 $95 $97 #
-52 straight-curve $-1 -7.3734936405977893e-015 0.086033020472699437 0.21000000000001259 1.2767564783189249e-015 6.5225602696727868e-016 -1 I I #
-53 coedge $-1 $61 $28 $42 $80 forward $7 $-1 #
-54 coedge $-1 $98 $74 $28 $55 forward $39 $-1 #
-55 edge $-1 $99 1.1131446292472484 $59 3.1415926535899685 $54 $100 forward 7 unknown #
-56 coedge $-1 $101 $29 $34 $68 reversed $58 $-1 #
-57 coedge $-1 $29 $102 $98 $103 reversed $58 $-1 #
-58 loop $-1 $-1 $57 $71 #
-59 vertex $-1 $55 $104 #
-60 straight-curve $-1 -0.060000000000002933 0.11499999999999853 0.030000000000004769 0.93421838617937281 -0.35670156563212368 -6.6293238128289863e-016 I I #
-61 coedge $-1 $31 $53 $75 $105 reversed $7 $-1 #
-62 coedge $-1 $77 $106 $31 $63 reversed $72 $-1 #
-63 edge $-1 $107 0 $65 0.0083422299166082681 $31 $108 forward 7 unknown #
-64 coedge $-1 $109 $32 $106 $110 forward $50 $-1 #
-65 vertex $-1 $33 $111 #
-66 ellipse-curve $-1 -4.4708681201655128e-015 2.6283142329219735e-015 0.030000000000013571 -9.9920072216263418e-016 0 1 3.9639073685838302e-016 0.086033020472700575 1.8020130916791801e-016 1 I I #
-67 coedge $-1 $34 $112 $113 $114 forward $10 $-1 #
-68 edge $-1 $115 0.1743643879240695 $35 0.24953137182589555 $34 $116 forward 7 unknown #
-69 point $-1 0.030688113098670183 0.080373629544143621 0.030000000000004818 #
-70 point $-1 -7.1683799367984009e-015 0.086033020472703045 0.030000000000013571 #
-71 face $-1 $96 $58 $4 $-1 $117 forward single #
-72 loop $-1 $118 $119 $38 #
-73 plane-surface $-1 -0.060000000000001261 0.069999999999998605 0.030000000000002938 1 -4.6074255521943854e-015 -9.7509833084325751e-030 4.6074255521943933e-015 1.0000000000000018 2.1094237467878037e-015 forward_v I I I I #
-74 coedge $-1 $54 $120 $79 $121 reversed $39 $-1 #
-75 coedge $-1 $44 $41 $61 $105 forward $22 $-1 #
-76 coedge $-1 $41 $44 $122 $123 reversed $22 $-1 #
-77 coedge $-1 $119 $62 $41 $78 forward $72 $-1 #
-78 edge $-1 $107 0 $124 0.029999999999999361 $77 $125 forward 7 unknown #
-79 coedge $-1 $43 $42 $74 $121 forward $14 $-1 #
-80 edge $-1 $99 2.02844802434229 $83 2.4434609527921745 $53 $126 forward 7 unknown #
-81 coedge $-1 $127 $122 $43 $82 reversed $128 $-1 #
-82 edge $-1 $129 2.0284480243423268 $84 2.4434609527920941 $43 $130 forward 7 unknown #
-83 vertex $-1 $45 $131 #
-84 vertex $-1 $45 $132 #
-85 straight-curve $-1 -0.075398801600318269 0.082921128743396327 0.03000000000000649 9.9920072216263418e-016 0 -1 I I #
-86 coedge $-1 $112 $46 $133 $134 forward $10 $-1 #
-87 coedge $-1 $49 $135 $46 $88 reversed $50 $-1 #
-88 edge $-1 $92 0.00200000000000225 $136 0.17999999999999863 $46 $137 forward 7 unknown #
-89 coedge $-1 $138 $47 $139 $140 reversed $91 $-1 #
-90 coedge $-1 $47 $138 $141 $142 forward $91 $-1 #
-91 loop $-1 $-1 $89 $143 #
-92 vertex $-1 $95 $144 #
-93 ellipse-curve $-1 -7.3132611078108422e-015 -1.1393108678703316e-015 0.20800000000000995 9.9920072216263418e-016 0 -1 3.9639073685838302e-016 0.086033020472700575 1.8714020307182524e-016 1 I I #
-94 coedge $-1 $141 $139 $49 $95 reversed $145 $-1 #
-95 edge $-1 $92 -3.1415926535897882 $51 -4.9907267236656468e-015 $49 $146 forward 7 unknown #
-96 face $-1 $147 $50 $4 $-1 $148 forward single #
-97 point $-1 -7.3462376653432394e-015 0.086033020472699284 0.20800000000000995 #
-98 coedge $-1 $120 $54 $57 $103 forward $39 $-1 #
-99 vertex $-1 $55 $149 #
-100 ellipse-curve $-1 -0.060000000000006534 0.095000000000001625 0.030000000000010962 9.9920072216263418e-016 0 -1 -9.3536289824669343e-017 -0.020000000000000046 -4.149458554536537e-017 1 I I #
-101 coedge $-1 $150 $56 $151 $152 reversed $58 $-1 #
-102 coedge $-1 $57 $150 $153 $154 reversed $58 $-1 #
-103 edge $-1 $59 0 $155 0.030000000000002913 $98 $156 forward 7 unknown #
-104 point $-1 -0.060000000000002933 0.11499999999999853 0.030000000000004769 #
-105 edge $-1 $107 0 $83 0.020101707856035132 $75 $157 forward 7 unknown #
-106 coedge $-1 $62 $158 $64 $110 reversed $72 $-1 #
-107 vertex $-1 $78 $159 #
-108 straight-curve $-1 -0.060000000000001261 0.069999999999998605 0.030000000000002938 -4.6074255521943854e-015 -1 -2.1094237467878002e-015 I I #
-109 coedge $-1 $160 $64 $161 $162 reversed $50 $-1 #
-110 edge $-1 $65 -0.18000000000000771 $163 -0.046033020472703079 $64 $164 forward 7 unknown #
-111 point $-1 -0.060000000000002163 0.061657770083390337 0.030000000000004703 #
-112 coedge $-1 $67 $86 $165 $166 reversed $10 $-1 #
-113 coedge $-1 $167 $151 $67 $114 reversed $168 $-1 #
-114 edge $-1 $169 5.077123794649137 $115 7.4892468197100923 $67 $170 forward 7 unknown #
-115 vertex $-1 $68 $171 #
-116 straight-curve $-1 0.03068811309866594 0.080373629544141553 0.27953137182590038 1.2767564783189249e-015 6.5225602696727868e-016 -1 I I #
-117 plane-surface $-1 -0.060000000000002933 0.11499999999999853 0.030000000000004769 0.35670156563212368 0.93421838617937281 1.7064060209725864e-015 -0.93421838617937525 0.35670156563212463 6.629323812829003e-016 forward_v I I I I #
-118 loop $-1 $-1 $172 $38 #
-119 coedge $-1 $173 $77 $174 $175 forward $72 $-1 #
-120 coedge $-1 $74 $98 $127 $176 reversed $39 $-1 #
-121 edge $-1 $99 0 $129 0.029999999999999361 $79 $177 forward 7 unknown #
-122 coedge $-1 $81 $174 $76 $123 forward $128 $-1 #
-123 edge $-1 $124 0 $84 0.020101707856038077 $122 $178 forward 7 unknown #
-124 vertex $-1 $175 $179 #
-125 straight-curve $-1 -0.060000000000001261 0.069999999999998605 0.030000000000002938 9.9920072216263418e-016 0 -1 I I #
-126 ellipse-curve $-1 -0.06897092550345256 0.090581573174588162 0.030000000000001179 -9.9920072216263418e-016 0 1 5.0237591864288286e-017 0.010000000000000023 2.2482016248659495e-017 1 I I #
-127 coedge $-1 $153 $81 $120 $176 forward $128 $-1 #
-128 loop $-1 $-1 $180 $181 #
-129 vertex $-1 $121 $182 #
-130 ellipse-curve $-1 -0.068970925503456973 0.09058157317458819 1.2474947328338375e-014 -9.9920072216263418e-016 0 1 5.0237591864288286e-017 0.010000000000000023 2.1094237467877734e-017 1 I I #
-131 point $-1 -0.075398801600318269 0.082921128743396327 0.03000000000000649 #
-132 point $-1 -0.075398801600322238 0.082921128743398131 1.2459275617957739e-014 #
-133 coedge $-1 $183 $184 $86 $134 reversed $185 $-1 #
-134 edge $-1 $136 -3.1415926535898286 $186 -2.7768578393253875 $86 $187 forward 7 unknown #
-135 coedge $-1 $87 $160 $183 $188 forward $50 $-1 #
-136 vertex $-1 $88 $189 #
-137 straight-curve $-1 -8.1557394559636168e-015 -0.086033020472701713 0.2100000000000122 1.2767564783189249e-015 6.5225602696727868e-016 -1 I I #
-138 coedge $-1 $90 $89 $190 $191 reversed $91 $-1 #
-139 coedge $-1 $94 $192 $89 $140 forward $145 $-1 #
-140 edge $-1 $193 2.9439233600318635e-017 $51 0.002828427124747969 $139 $194 forward 7 unknown #
-141 coedge $-1 $192 $94 $90 $142 reversed $145 $-1 #
-142 edge $-1 $195 -2.4532694666933966e-016 $92 0.0028284271247476941 $90 $196 forward 7 unknown #
-143 face $-1 $197 $91 $4 $-1 $198 forward single #
-144 point $-1 -8.1284834807090622e-015 -0.08603302047270156 0.20800000000000995 #
-145 loop $-1 $-1 $192 $199 #
-146 ellipse-curve $-1 -7.3132611078108422e-015 -1.1393108678703316e-015 0.20800000000000995 9.9920072216263418e-016 0 -1 3.9639073685838302e-016 0.086033020472700575 1.8714020307182524e-016 1 I I #
-147 face $-1 $200 $185 $4 $-1 $201 reversed single #
-148 cone-surface $-1 -7.7593487191052333e-015 -1.1417256029488933e-015 0.2100000000000124 1.2767564783189249e-015 6.5225602696727868e-016 -1 -3.9639073685838381e-016 -0.086033020472700575 -1.8714020307182524e-016 1 I I 0 1 1 forward I I I I #
-149 point $-1 -0.077941851006908369 0.086163146349175573 0.030000000000012711 #
-150 coedge $-1 $102 $101 $202 $203 forward $58 $-1 #
-151 coedge $-1 $113 $204 $101 $152 forward $168 $-1 #
-152 edge $-1 $205 -0.14428145838353823 $115 -0.04783423460555028 $151 $206 forward 7 unknown #
-153 coedge $-1 $207 $127 $102 $154 forward $128 $-1 #
-154 edge $-1 $155 0 $208 0.17297877313965018 $153 $209 forward 7 unknown #
-155 vertex $-1 $103 $210 #
-156 straight-curve $-1 -0.060000000000002933 0.11499999999999853 0.030000000000004769 9.9920072216263418e-016 0 -1 I I #
-157 straight-curve $-1 -0.060000000000001261 0.069999999999998605 0.030000000000002938 -0.76604444311897868 0.64278760968653859 1.0653606072075573e-015 I I #
-158 coedge $-1 $106 $211 $212 $213 forward $72 $-1 #
-159 point $-1 -0.060000000000001261 0.069999999999998605 0.030000000000002938 #
-160 coedge $-1 $135 $109 $211 $214 forward $50 $-1 #
-161 coedge $-1 $212 $212 $109 $162 forward $215 $-1 #
-162 edge $-1 $216 2.342568829555336 $163 3.9406164776242774 $161 $217 forward 7 unknown #
-163 vertex $-1 $213 $218 #
-164 straight-curve $-1 -0.060000000000007672 0.061657770083387457 0.21000000000001243 -1.2767564783189249e-015 -6.5225602696727868e-016 1 I I #
-165 coedge $-1 $219 $220 $112 $166 forward $221 $-1 #
-166 edge $-1 $169 0.17436438792407838 $186 0.24953137182588936 $165 $222 forward 7 unknown #
-167 coedge $-1 $223 $113 $220 $224 forward $168 $-1 #
-168 loop $-1 $-1 $113 $200 #
-169 vertex $-1 $114 $225 #
-170 intcurve-curve $-1 forward { exactcur full nurbs 3 open 2 
	5.077123794649137 3 7.4892468197100923 3 
	0.030688113098671969 -0.080373629544143926 0.10516698390182271 1 
	0.11833417970613117 -0.046908767748563368 0.031623201737368205 0.57113437708808623 
	0.11833417970612853 0.046908767748571521 0.031623201737370439 0.57113437708808623 
	0.030688113098668778 0.080373629544143538 0.10516698390183089 1 
	0 
	null_surface 
	null_surface 
	nullbs 
	nullbs 
	I I 
	0 
	0 
	0 
	F 1 F 0 } I I #
-171 point $-1 0.030688113098668778 0.080373629544143538 0.10516698390183089 #
-172 coedge $-1 $226 $227 $228 $229 reversed $118 $-1 #
-173 coedge $-1 $230 $119 $231 $232 reversed $72 $-1 #
-174 coedge $-1 $122 $233 $119 $175 reversed $128 $-1 #
-175 edge $-1 $124 0 $234 0.1399999999999979 $119 $235 forward 7 unknown #
-176 edge $-1 $129 1.1131446292473766 $155 3.1415926535899681 $127 $236 forward 7 unknown #
-177 straight-curve $-1 -0.077941851006908369 0.086163146349175573 0.030000000000012711 9.9920072216263418e-016 0 -1 I I #
-178 straight-curve $-1 -0.060000000000002114 0.069999999999999535 3.5772773632203299e-015 -0.76604444311897868 0.64278760968653859 1.0653606072075573e-015 I I #
-179 point $-1 -0.060000000000002114 0.069999999999999535 3.5772773632203299e-015 #
-180 coedge $-1 $233 $237 $238 $239 forward $128 $-1 #
-181 face $-1 $240 $128 $4 $-1 $241 forward single #
-182 point $-1 -0.077941851006910118 0.086163146349176503 1.3348827327673297e-014 #
-183 coedge $-1 $242 $133 $135 $188 reversed $185 $-1 #
-184 coedge $-1 $133 $243 $219 $244 forward $185 $-1 #
-185 loop $-1 $-1 $183 $147 #
-186 vertex $-1 $166 $245 #
-187 ellipse-curve $-1 -4.4708681201655128e-015 2.6283142329219735e-015 0.030000000000013571 -9.9920072216263418e-016 0 1 3.9639073685838302e-016 0.086033020472700575 1.8020130916791801e-016 1 I I #
-188 edge $-1 $246 2.3698201508293839 $136 3.1415926535897576 $135 $247 forward 7 unknown #
-189 point $-1 -7.9506257521640359e-015 -0.086033020472697799 0.030000000000013571 #
-190 coedge $-1 $248 $248 $138 $191 forward $249 $-1 #
-191 edge $-1 $195 -3.1415926535897931 $193 9.5842964383790651e-017 $190 $250 forward 7 unknown #
-192 coedge $-1 $139 $141 $248 $251 reversed $145 $-1 #
-193 vertex $-1 $251 $252 #
-194 straight-curve $-1 -7.3824635704314144e-015 0.084033020472699407 0.21000000000001259 3.8778907124693471e-015 0.70710678118655379 -0.70710678118654136 I I #
-195 vertex $-1 $251 $253 #
-196 straight-curve $-1 -8.1465246048592266e-015 -0.084033020472701683 0.2100000000000122 -2.551400245361157e-015 -0.70710678118655224 -0.70710678118654291 I I #
-197 face $-1 $181 $221 $4 $-1 $254 reversed single #
-198 cone-surface $-1 -7.7593487191052333e-015 -1.1417256029488933e-015 0.2100000000000124 9.9920072216263418e-016 0 -1 -3.871758857539945e-016 -0.084033020472700545 -1.8472546799326548e-016 1 I I 0.70710678118655246 0.70710678118654258 1 forward I I I I #
-199 face $-1 $255 $145 $4 $-1 $256 forward single #
-200 face $-1 $143 $168 $4 $-1 $257 forward single #
-201 plane-surface $-1 -0.068970925503459193 -0.090581573174586136 0.03000000000001073 9.9920072216264404e-016 2.1094237467877958e-015 -1 -4.6074255521943933e-015 -1.0000000000000018 -2.1094237467878037e-015 forward_v I I I I #
-202 coedge $-1 $258 $259 $150 $203 reversed $260 $-1 #
-203 edge $-1 $205 -0.015664887471986688 $208 0.030000000000008242 $150 $261 forward 7 unknown #
-204 coedge $-1 $151 $262 $258 $263 forward $168 $-1 #
-205 vertex $-1 $203 $264 #
-206 straight-curve $-1 -0.0044815198202460618 0.093802034840454976 0.13467780991273071 -0.73523979653753768 0.28072792231433191 0.61693944210150686 I I #
-207 coedge $-1 $265 $153 $259 $266 reversed $128 $-1 #
-208 vertex $-1 $203 $267 #
-209 straight-curve $-1 -0.060000000000000685 0.11500000000000124 1.8552520630876769e-015 0.93421838617937281 -0.35670156563212368 -6.6293238128289863e-016 I I #
-210 point $-1 -0.060000000000000685 0.11500000000000124 1.8552520630876769e-015 #
-211 coedge $-1 $158 $230 $160 $214 reversed $72 $-1 #
-212 coedge $-1 $161 $161 $158 $213 reversed $215 $-1 #
-213 edge $-1 $216 0.0033422299166101579 $163 0.12665777008338974 $158 $268 forward 7 unknown #
-214 edge $-1 $216 0.046033020472691533 $246 0.17999999999998995 $160 $269 forward 7 unknown #
-215 loop $-1 $-1 $212 $270 #
-216 vertex $-1 $213 $271 #
-217 intcurve-curve $-1 forward { exactcur full nurbs 3 open 2 
	2.342568829555336 3 3.9406164776242774 3 
	-0.060000000000007464 -0.061657770083390302 0.16396697952731096 1 
	-0.096903605091402209 -0.02574637882663235 0.20087058461870971 0.79827109537195184 
	-0.096903605091401487 0.025746378826631108 0.20087058461870902 0.79827109537195184 
	-0.060000000000008075 0.061657770083389289 0.16396697952730935 1 
	0 
	null_surface 
	null_surface 
	nullbs 
	nullbs 
	I I 
	0 
	0 
	0 
	F 1 F 0 } I I #
-218 point $-1 -0.060000000000008075 0.061657770083389289 0.16396697952730935 #
-219 coedge $-1 $272 $165 $184 $244 reversed $221 $-1 #
-220 coedge $-1 $165 $273 $167 $224 reversed $221 $-1 #
-221 loop $-1 $-1 $273 $197 #
-222 straight-curve $-1 0.030688113098667796 -0.080373629544143246 0.2795313718259011 1.2767564783189249e-015 6.5225602696727868e-016 -1 I I #
-223 coedge $-1 $262 $167 $274 $275 forward $168 $-1 #
-224 edge $-1 $169 0.10757226820825531 $276 0.20401949198623603 $167 $277 forward 7 unknown #
-225 point $-1 0.030688113098671969 -0.080373629544143926 0.10516698390182271 #
-226 coedge $-1 $278 $172 $279 $280 forward $118 $-1 #
-227 coedge $-1 $172 $281 $282 $283 reversed $118 $-1 #
-228 coedge $-1 $284 $285 $172 $229 forward $286 $-1 #
-229 edge $-1 $287 1.5707963267947187 $288 3.1415926535897918 $228 $289 forward 7 unknown #
-230 coedge $-1 $211 $173 $242 $290 reversed $72 $-1 #
-231 coedge $-1 $291 $292 $173 $232 forward $293 $-1 #
-232 edge $-1 $294 0 $234 0.029999999999999361 $231 $295 forward 7 unknown #
-233 coedge $-1 $174 $180 $291 $296 reversed $128 $-1 #
-234 vertex $-1 $175 $297 #
-235 straight-curve $-1 -0.060000000000002114 0.069999999999999535 3.5772773632203299e-015 -4.6074255521943854e-015 -1 -2.1094237467878002e-015 I I #
-236 ellipse-curve $-1 -0.060000000000004279 0.095000000000001666 9.8247104896032031e-015 9.9920072216263418e-016 0 -1 -9.3536289824669343e-017 -0.020000000000000046 -4.2188474935755462e-017 1 I I #
-237 coedge $-1 $180 $298 $299 $300 reversed $128 $-1 #
-238 coedge $-1 $301 $302 $180 $239 reversed $303 $-1 #
-239 edge $-1 $304 2.028448024342183 $305 2.4434609527918179 $180 $306 forward 7 unknown #
-240 face $307 $308 $309 $4 $-1 $310 forward single #
-241 plane-surface $-1 -0.068970925503456945 -0.090581573174586108 1.2256216826122576e-014 9.9920072216264404e-016 2.1094237467877958e-015 -1 -4.6074255521943933e-015 -1.0000000000000018 -2.1094237467878037e-015 forward_v I I I I #
-242 coedge $-1 $311 $183 $230 $290 forward $185 $-1 #
-243 coedge $-1 $184 $312 $313 $314 forward $185 $-1 #
-244 edge $-1 $315 0 $186 0.097073783218457277 $184 $316 forward 7 unknown #
-245 point $-1 0.030688113098667157 -0.08037362954414029 0.030000000000011729 #
-246 vertex $-1 $188 $317 #
-247 ellipse-curve $-1 -4.4708681201655128e-015 2.6283142329219735e-015 0.030000000000013571 -9.9920072216263418e-016 0 1 3.9639073685838302e-016 0.086033020472700575 1.8020130916791801e-016 1 I I #
-248 coedge $-1 $190 $190 $192 $251 forward $249 $-1 #
-249 loop $-1 $-1 $190 $318 #
-250 ellipse-curve $-1 -7.7593487191052333e-015 -1.1417256029488933e-015 0.2100000000000124 -9.9920072216263418e-016 0 1 3.871758857539945e-016 0.084033020472700545 1.8472546799326548e-016 1 I I #
-251 edge $-1 $193 9.5842964383790651e-017 $195 3.1415926535897931 $248 $319 forward 7 unknown #
-252 point $-1 -7.3802268071394667e-015 0.084033020472699255 0.2100000000000124 #
-253 point $-1 -8.1488838287865545e-015 -0.084033020472701531 0.2100000000000124 #
-254 plane-surface $-1 -0.06000000000000523 -0.11500000000000012 0.030000000000014262 -0.35670156563212302 0.93421838617937314 1.1601065507140344e-015 -0.93421838617937814 -0.35670156563212491 -8.6454121660125868e-016 forward_v I I I I #
-255 face $-1 $320 $303 $4 $-1 $321 forward single #
-256 cone-surface $-1 -7.7593487191052333e-015 -1.1417256029488933e-015 0.2100000000000124 9.9920072216263418e-016 0 -1 -3.871758857539945e-016 -0.084033020472700545 -1.8472546799326548e-016 1 I I 0.70710678118655246 0.70710678118654258 1 forward I I I I #
-257 plane-surface $-1 0.064464219645235327 -2.3768513641303463e-016 0.076825465355998615 0.64278760968653892 -8.3214120602116967e-017 0.76604444311897846 0.76604444311898101 -3.0207471837035466e-017 -0.64278760968654114 forward_v I I I I #
-258 coedge $-1 $322 $202 $204 $263 reversed $260 $-1 #
-259 coedge $-1 $202 $322 $207 $266 forward $260 $-1 #
-260 loop $-1 $-1 $202 $323 #
-261 straight-curve $-1 0.10159995028580679 0.053298200799962905 0.030000000000011962 9.9920072216263418e-016 0 -1 I I #
-262 coedge $-1 $204 $223 $324 $325 forward $168 $-1 #
-263 edge $-1 $326 0.4890177158103769 $205 1.2060615125303535 $204 $327 forward 7 unknown #
-264 point $-1 0.10159995028580544 0.053298200799961996 0.04566488747199865 #
-265 coedge $-1 $328 $207 $329 $330 forward $128 $-1 #
-266 edge $-1 $331 -1.0817786109840717 $208 -0.36473481426491577 $259 $332 forward 7 unknown #
-267 point $-1 0.10159995028581038 0.053298200799962052 3.7185829400456648e-015 #
-268 straight-curve $-1 -0.060000000000008359 -0.06500000000000046 0.16396697952731185 4.6074255521943854e-015 1 2.1094237467878002e-015 I I #
-269 straight-curve $-1 -0.060000000000002177 -0.061657770083388581 0.21000000000000249 1.2767564783189249e-015 6.5225602696727868e-016 -1 I I #
-270 face $-1 $333 $215 $4 $-1 $334 forward single #
-271 point $-1 -0.060000000000007464 -0.061657770083390302 0.16396697952731096 #
-272 coedge $-1 $335 $219 $336 $337 forward $221 $-1 #
-273 coedge $-1 $220 $335 $338 $339 reversed $221 $-1 #
-274 coedge $-1 $338 $340 $223 $275 reversed $341 $-1 #
-275 edge $-1 $276 5.0771237946491343 $342 5.79416759136884 $223 $343 forward 7 unknown #
-276 vertex $-1 $275 $344 #
-277 straight-curve $-1 -0.048403299491846387 -0.11057216889688536 0.17153255903581924 0.73523979653753935 0.28072792231433169 -0.61693944210150498 I I #
-278 coedge $-1 $345 $226 $346 $347 reversed $118 $-1 #
-279 coedge $-1 $348 $349 $226 $280 reversed $350 $-1 #
-280 edge $-1 $287 0 $351 0.070000000000000284 $226 $352 forward 7 unknown #
-281 coedge $-1 $227 $353 $354 $355 forward $118 $-1 #
-282 coedge $-1 $356 $357 $227 $283 forward $358 $-1 #
-283 edge $-1 $288 0 $359 0.099999999999997868 $282 $360 forward 7 unknown #
-284 coedge $-1 $361 $228 $357 $362 reversed $286 $-1 #
-285 coedge $-1 $228 $361 $348 $363 forward $286 $-1 #
-286 loop $-1 $-1 $284 $333 #
-287 vertex $-1 $229 $364 #
-288 vertex $-1 $283 $365 #
-289 ellipse-curve $-1 -0.060000000000007207 0.035000000000002793 0.12500000000001063 -1 -2.3111159332641871e-032 4.6607504654171108e-032 -4.3298697960381045e-017 -0.010000000000000012 -1.2073675392798633e-017 1 I I #
-290 edge $-1 $246 0.13165777008338786 $294 0.13999999999999879 $242 $366 forward 7 unknown #
-291 coedge $-1 $367 $231 $233 $296 forward $293 $-1 #
-292 coedge $-1 $231 $367 $311 $368 reversed $293 $-1 #
-293 loop $-1 $-1 $292 $369 #
-294 vertex $-1 $368 $370 #
-295 straight-curve $-1 -0.060000000000006458 -0.070000000000000187 0.030000000000010761 9.9920072216263418e-016 0 -1 I I #
-296 edge $-1 $234 0 $305 0.020101707856037501 $291 $371 forward 7 unknown #
-297 point $-1 -0.060000000000005542 -0.069999999999998369 1.1401851685022277e-014 #
-298 coedge $-1 $237 $328 $335 $372 reversed $128 $-1 #
-299 coedge $-1 $336 $373 $237 $300 forward $374 $-1 #
-300 edge $-1 $304 1.1131446292474023 $375 3.1415926535897736 $299 $376 forward 7 unknown #
-301 coedge $-1 $377 $238 $373 $378 reversed $303 $-1 #
-302 coedge $-1 $238 $377 $367 $379 forward $303 $-1 #
-303 loop $-1 $-1 $301 $255 #
-304 vertex $-1 $378 $380 #
-305 vertex $-1 $239 $381 #
-306 ellipse-curve $-1 -0.068970925503456945 -0.090581573174586108 1.2256216826122576e-014 9.9920072216263418e-016 0 -1 -5.0237591864288286e-017 -0.010000000000000023 -2.1094237467877734e-017 1 I I #
-307 rgb_color-st-attrib $-1 $-1 $-1 $240 0.75294117647058822 0.75294117647058822 0.75294117647058822 #
-308 face $382 $383 $358 $4 $-1 $384 reversed single #
-309 loop $-1 $-1 $385 $240 #
-310 cone-surface $-1 -0.10000000000000685 -0.034999999999998171 0.025000000000012648 1 2.3111159332641871e-032 -4.6607504654171108e-032 5.0237591864288267e-017 0.010000000000000016 2.2482016248659486e-017 1 I I 0 1 1 forward I I I I #
-311 coedge $-1 $312 $242 $292 $368 forward $185 $-1 #
-312 coedge $-1 $243 $311 $377 $386 reversed $185 $-1 #
-313 coedge $-1 $373 $336 $243 $314 reversed $374 $-1 #
-314 edge $-1 $387 1.1131446292473728 $315 3.1415926535898842 $243 $388 forward 7 unknown #
-315 vertex $-1 $314 $389 #
-316 straight-curve $-1 -0.06000000000000523 -0.11500000000000012 0.030000000000014262 0.93421838617937314 0.3567015656321228 8.0903006536999632e-016 I I #
-317 point $-1 -0.060000000000005549 -0.061657770083389254 0.030000000000012548 #
-318 face $-1 $390 $249 $4 $-1 $391 forward single #
-319 ellipse-curve $-1 -7.7593487191052333e-015 -1.1417256029488933e-015 0.2100000000000124 -9.9920072216263418e-016 0 1 3.871758857539945e-016 0.084033020472700545 1.8472546799326548e-016 1 I I #
-320 face $-1 $392 $374 $4 $-1 $393 forward single #
-321 cone-surface $-1 -0.068970925503459193 -0.090581573174586136 0.03000000000001073 9.9920072216263418e-016 0 -1 -5.0237591864288286e-017 -0.010000000000000023 -2.2482016248659495e-017 1 I I 0 1 1 forward I I I I #
-322 coedge $-1 $259 $258 $394 $395 forward $260 $-1 #
-323 face $-1 $199 $260 $4 $-1 $396 forward single #
-324 coedge $-1 $397 $394 $262 $325 reversed $398 $-1 #
-325 edge $-1 $342 5.7941675913689048 $326 6.7722030229902623 $262 $399 forward 7 unknown #
-326 vertex $-1 $263 $400 #
-327 intcurve-curve $-1 forward { exactcur full nurbs 3 open 2 
	0.4890177158103769 3 1.2060615125303535 3 
	0.10686088184179672 0.048653606534613189 0.041250441743716226 1 
	0.1057133459032667 0.05081011392666987 0.042213338726500606 0.95761099882935963 
	0.10388207636465367 0.052426843569857738 0.043749956320936985 0.95761099882935963 
	0.10159995028580544 0.053298200799961996 0.04566488747199865 1 
	0 
	null_surface 
	null_surface 
	nullbs 
	nullbs 
	I I 
	0 
	0 
	0 
	F 1 F 0 } I I #
-328 coedge $-1 $298 $265 $401 $402 forward $128 $-1 #
-329 coedge $-1 $394 $397 $265 $330 reversed $398 $-1 #
-330 edge $-1 $331 -2.0598140426056335 $403 -1.0817786109842249 $265 $404 forward 7 unknown #
-331 vertex $-1 $266 $405 #
-332 ellipse-curve $-1 0.098032934629484467 0.043956016938170306 1.0809166683486188e-014 -9.9920072216263418e-016 0 1 5.0237591864288267e-017 0.010000000000000016 2.1094237467877725e-017 1 I I #
-333 face $406 $407 $286 $4 $-1 $408 forward single #
-334 plane-surface $-1 -0.060000000000008359 -0.06500000000000046 0.16396697952731185 -0.70710678118654979 9.8110249305986699e-017 -0.70710678118654535 -0.70710678118654791 -1.5219757969211837e-016 0.70710678118655235 forward_v I I I I #
-335 coedge $-1 $273 $272 $298 $372 forward $221 $-1 #
-336 coedge $-1 $313 $299 $272 $337 reversed $374 $-1 #
-337 edge $-1 $315 0 $375 0.030000000000001137 $272 $409 forward 7 unknown #
-338 coedge $-1 $401 $274 $273 $339 forward $341 $-1 #
-339 edge $-1 $276 -0.015664887471987573 $410 0.030000000000012683 $338 $411 forward 7 unknown #
-340 coedge $-1 $274 $401 $397 $412 reversed $341 $-1 #
-341 loop $-1 $-1 $340 $392 #
-342 vertex $-1 $412 $413 #
-343 intcurve-curve $-1 forward { exactcur full nurbs 3 open 2 
	5.0771237946491343 3 5.79416759136884 3 
	0.1015999502858061 -0.053298200799959901 0.045664887472000294 1 
	0.10388207636465308 -0.052426843569855656 0.043749956320939219 0.95761099882939138 
	0.10571334590326577 -0.050810113926668864 0.042213338726503132 0.95761099882939138 
	0.10686088184179739 -0.048653606534613772 0.041250441743718773 1 
	0 
	null_surface 
	null_surface 
	nullbs 
	nullbs 
	I I 
	0 
	0 
	0 
	F 1 F 0 } I I #
-344 point $-1 0.1015999502858061 -0.053298200799959901 0.045664887472000294 #
-345 coedge $-1 $414 $278 $415 $416 forward $118 $-1 #
-346 coedge $-1 $417 $418 $278 $347 forward $419 $-1 #
-347 edge $-1 $420 9.0025209509357396e-014 $351 1.5707963267951628 $346 $421 forward 7 unknown #
-348 coedge $-1 $422 $279 $285 $363 reversed $350 $-1 #
-349 coedge $-1 $279 $422 $417 $423 forward $350 $-1 #
-350 loop $-1 $-1 $422 $424 #
-351 vertex $-1 $280 $425 #
-352 straight-curve $-1 -0.060000000000004106 0.035000000000001003 0.13500000000001219 -4.6074255521943854e-015 -1 -2.1094237467878002e-015 I I #
-353 coedge $-1 $281 $414 $426 $427 forward $118 $-1 #
-354 coedge $-1 $428 $429 $281 $355 reversed $430 $-1 #
-355 edge $-1 $431 -1.5707963267950751 $359 3.5406400034084117e-013 $281 $432 forward 7 unknown #
-356 coedge $-1 $433 $282 $429 $434 reversed $358 $-1 #
-357 coedge $-1 $282 $433 $284 $362 forward $358 $-1 #
-358 loop $-1 $-1 $356 $308 #
-359 vertex $-1 $283 $435 #
-360 straight-curve $-1 -0.060000000000007624 0.04500000000000258 0.12500000000001066 1.1102230246251492e-015 -2.2204460492503116e-016 -1 I I #
-361 coedge $-1 $285 $284 $436 $437 reversed $286 $-1 #
-362 edge $-1 $438 0 $288 0.03999999999999649 $357 $439 forward 7 unknown #
-363 edge $-1 $440 0 $287 0.040000000000001368 $285 $441 forward 7 unknown #
-364 point $-1 -0.060000000000004106 0.035000000000001003 0.13500000000001219 #
-365 point $-1 -0.060000000000007624 0.04500000000000258 0.12500000000001066 #
-366 straight-curve $-1 -0.060000000000001261 0.069999999999998605 0.030000000000002938 -4.6074255521943854e-015 -1 -2.1094237467878002e-015 I I #
-367 coedge $-1 $292 $291 $302 $379 reversed $293 $-1 #
-368 edge $-1 $294 0 $442 0.020101707856035461 $311 $443 forward 7 unknown #
-369 face $-1 $444 $293 $4 $-1 $445 reversed single #
-370 point $-1 -0.060000000000006458 -0.070000000000000187 0.030000000000010761 #
-371 straight-curve $-1 -0.060000000000005542 -0.069999999999998369 1.1401851685022277e-014 -0.7660444431189809 -0.64278760968653581 -1.3194684504349448e-015 I I #
-372 edge $-1 $375 0 $410 0.1729787731396569 $335 $446 forward 7 unknown #
-373 coedge $-1 $299 $313 $301 $378 forward $374 $-1 #
-374 loop $-1 $-1 $336 $320 #
-375 vertex $-1 $300 $447 #
-376 ellipse-curve $-1 -0.060000000000006486 -0.094999999999999613 1.0483489076840153e-014 -9.9920072216263418e-016 0 1 9.3536289824669343e-017 0.020000000000000046 4.2188474935755462e-017 1 I I #
-377 coedge $-1 $302 $301 $312 $386 forward $303 $-1 #
-378 edge $-1 $387 0 $304 0.029999999999997584 $373 $448 forward 7 unknown #
-379 edge $-1 $442 0 $305 0.029999999999997584 $302 $449 forward 7 unknown #
-380 point $-1 -0.077941851006909618 -0.086163146349176142 1.4028944575404991e-014 #
-381 point $-1 -0.075398801600325707 -0.082921128743396022 1.4035399899027539e-014 #
-382 rgb_color-st-attrib $-1 $-1 $-1 $308 0.75294117647058822 0.75294117647058822 0.75294117647058822 #
-383 face $450 $451 $452 $4 $-1 $453 forward single #
-384 plane-surface $-1 -0.10000000000000411 0.045000000000007999 0.1250000000000106 -4.4964032497318737e-015 -1 2.220446049250263e-016 -1.1102230246251498e-015 2.2204460492503121e-016 1.0000000000000004 forward_v I I I I #
-385 coedge $-1 $454 $455 $456 $457 reversed $309 $-1 #
-386 edge $-1 $387 2.0284480243421599 $442 2.4434609527920088 $377 $458 forward 7 unknown #
-387 vertex $-1 $378 $459 #
-388 ellipse-curve $-1 -0.060000000000006957 -0.095000000000001431 0.030000000000010733 -9.9920072216263418e-016 0 1 9.3536289824669343e-017 0.020000000000000046 4.149458554536537e-017 1 I I #
-389 point $-1 -0.06000000000000523 -0.11500000000000012 0.030000000000014262 #
-390 face $460 $-1 $461 $4 $-1 $462 forward single #
-391 plane-surface $-1 -7.7593487191052333e-015 -1.1417256029488933e-015 0.2100000000000124 -9.9920072216264404e-016 -2.1094237467877958e-015 1 4.6074255521943933e-015 1.0000000000000018 2.1094237467878037e-015 forward_v I I I I #
-392 face $-1 $463 $341 $4 $-1 $464 forward single #
-393 cone-surface $-1 -0.060000000000006957 -0.095000000000001431 0.030000000000010733 9.9920072216263418e-016 0 -1 -9.3536289824669343e-017 -0.020000000000000046 -4.149458554536537e-017 1 I I 0 1 1 forward I I I I #
-394 coedge $-1 $324 $329 $322 $395 reversed $398 $-1 #
-395 edge $-1 $326 -0.011250441743704265 $331 0.030000000000000249 $322 $465 forward 7 unknown #
-396 cone-surface $-1 0.098032934629485771 0.043956016938168495 0.030000000000011059 9.9920072216263418e-016 0 -1 -5.0237591864288267e-017 -0.010000000000000016 -2.2482016248659486e-017 1 I I 0 1 1 forward I I I I #
-397 coedge $-1 $329 $324 $340 $412 forward $398 $-1 #
-398 loop $-1 $-1 $394 $463 #
-399 intcurve-curve $-1 forward { exactcur full nurbs 3 open 2 
	5.7941675913689048 3 6.7722030229902623 3 
	0.10686088184179739 -0.048653606534613772 0.041250441743718773 1 
	0.12338934209532357 -0.017592490695688849 0.027381416841055994 0.92186314748746778 
	0.12338934209532365 0.017592490695687885 0.027381416841055925 0.92186314748746778 
	0.10686088184179672 0.048653606534613189 0.041250441743716226 1 
	0 
	null_surface 
	null_surface 
	nullbs 
	nullbs 
	I I 
	0 
	0 
	0 
	F 1 F 0 } I I #
-400 point $-1 0.10686088184179672 0.048653606534613189 0.041250441743716226 #
-401 coedge $-1 $340 $338 $328 $402 reversed $341 $-1 #
-402 edge $-1 $403 -1.0817786109841392 $410 -0.3647348142651472 $328 $466 forward 7 unknown #
-403 vertex $-1 $412 $467 #
-404 ellipse-curve $-1 0.015428571428564464 -2.6992217984554484e-015 1.1561735695814984e-014 9.9920072216263418e-016 0 -1 -4.7744546411670182e-016 -0.10357142857142877 -2.1847603091730874e-016 1 I I #
-405 point $-1 0.10686088184179543 0.04865360653461679 1.1711837711607677e-014 #
-406 rgb_color-st-attrib $-1 $-1 $-1 $333 0.75294117647058822 0.75294117647058822 0.75294117647058822 #
-407 face $468 $369 $419 $4 $-1 $469 forward single #
-408 cone-surface $-1 -0.10000000000000724 0.035000000000001107 0.12500000000001238 1 2.3111159332641871e-032 -4.6607504654171108e-032 5.0237591864288261e-017 0.010000000000000009 1.2073675392798636e-017 1 I I 0 1 1 forward I I I I #
-409 straight-curve $-1 -0.06000000000000523 -0.11500000000000012 0.030000000000014262 9.9920072216263418e-016 0 -1 I I #
-410 vertex $-1 $402 $470 #
-411 straight-curve $-1 0.10159995028580655 -0.053298200799960768 0.030000000000012721 9.9920072216263418e-016 0 -1 I I #
-412 edge $-1 $342 -0.011250441743708706 $403 0.029999999999999361 $397 $471 forward 7 unknown #
-413 point $-1 0.10686088184179739 -0.048653606534613772 0.041250441743718773 #
-414 coedge $-1 $353 $345 $455 $472 reversed $118 $-1 #
-415 coedge $-1 $473 $456 $345 $416 reversed $474 $-1 #
-416 edge $-1 $420 0 $475 0.1000000000000032 $345 $476 forward 7 unknown #
-417 coedge $-1 $477 $346 $349 $423 reversed $419 $-1 #
-418 coedge $-1 $346 $477 $473 $478 forward $419 $-1 #
-419 loop $-1 $-1 $417 $407 #
-420 vertex $-1 $478 $479 #
-421 ellipse-curve $-1 -0.060000000000006028 -0.035000000000001932 0.12500000000001232 -1 -2.3111159332641871e-032 4.6607504654171108e-032 -4.3298697960381033e-017 -0.010000000000000009 -1.2073675392798628e-017 1 I I #
-422 coedge $-1 $349 $348 $480 $481 forward $350 $-1 #
-423 edge $-1 $482 0 $351 0.040000000000002249 $349 $483 forward 7 unknown #
-424 face $484 $323 $350 $4 $-1 $485 forward single #
-425 point $-1 -0.060000000000007374 -0.034999999999999282 0.13500000000001211 #
-426 coedge $-1 $486 $487 $353 $427 reversed $452 $-1 #
-427 edge $-1 $488 0 $431 0.069999999999996732 $353 $489 forward 7 unknown #
-428 coedge $-1 $490 $354 $487 $491 reversed $430 $-1 #
-429 coedge $-1 $354 $490 $356 $434 forward $430 $-1 #
-430 loop $-1 $-1 $428 $444 #
-431 vertex $-1 $491 $492 #
-432 ellipse-curve $-1 -0.06000000000000133 0.035000000000001134 0.02500000000000922 1 2.3111159332641871e-032 -4.6607504654171108e-032 4.3298697960381026e-017 0.010000000000000009 2.2482016248659471e-017 1 I I #
-433 coedge $-1 $357 $356 $493 $494 reversed $358 $-1 #
-434 edge $-1 $495 0 $359 0.040000000000002263 $429 $496 forward 7 unknown #
-435 point $-1 -0.060000000000007082 0.044999999999999145 0.025000000000012783 #
-436 coedge $-1 $493 $480 $361 $437 forward $461 $-1 #
-437 edge $-1 $440 1.5707963267952516 $438 3.1415926535899716 $436 $497 forward 7 unknown #
-438 vertex $-1 $362 $498 #
-439 straight-curve $-1 -0.10000000000000411 0.045000000000007999 0.1250000000000106 1 2.3111159332641871e-032 -4.6607504654171108e-032 I I #
-440 vertex $-1 $481 $499 #
-441 straight-curve $-1 -0.10000000000000547 0.035000000000004645 0.13500000000001394 1 2.3111159332641871e-032 -4.6607504654171108e-032 I I #
-442 vertex $-1 $386 $500 #
-443 straight-curve $-1 -0.060000000000006458 -0.070000000000000187 0.030000000000010761 -0.7660444431189809 -0.64278760968653581 -1.3194684504349448e-015 I I #
-444 face $501 $424 $430 $4 $-1 $502 forward single #
-445 plane-surface $-1 -0.060000000000006458 -0.070000000000000187 0.030000000000010761 0.6427876096865357 -0.76604444311898101 -1.1985573457873441e-015 0.7660444431189849 0.64278760968653903 8.1986808935363114e-016 forward_v I I I I #
-446 straight-curve $-1 -0.060000000000006971 -0.11500000000000007 1.3123876985154929e-014 0.93421838617937314 0.3567015656321228 8.0903006536999632e-016 I I #
-447 point $-1 -0.060000000000006971 -0.11500000000000007 1.3123876985154929e-014 #
-448 straight-curve $-1 -0.077941851006908758 -0.08616314634917796 0.030000000000011615 9.9920072216263418e-016 0 -1 I I #
-449 straight-curve $-1 -0.075398801600323972 -0.082921128743397826 0.030000000000011618 9.9920072216263418e-016 0 -1 I I #
-450 rgb_color-st-attrib $-1 $-1 $-1 $383 0.75294117647058822 0.75294117647058822 0.75294117647058822 #
-451 face $503 $270 $474 $4 $-1 $504 forward single #
-452 loop $-1 $-1 $486 $383 #
-453 plane-surface $-1 -0.10000000000000685 -0.034999999999999046 0.015000000000010196 9.9920072216264207e-016 1.901256929670579e-015 -1 -4.2743586448068479e-015 -1.0000000000000022 -1.9012569296705873e-015 forward_v I I I I #
-454 coedge $-1 $505 $385 $506 $507 reversed $309 $-1 #
-455 coedge $-1 $385 $505 $414 $472 forward $309 $-1 #
-456 coedge $-1 $415 $508 $385 $457 forward $474 $-1 #
-457 edge $-1 $509 0 $475 0.039999999999995595 $456 $510 forward 7 unknown #
-458 ellipse-curve $-1 -0.068970925503459193 -0.090581573174586136 0.03000000000001073 9.9920072216263418e-016 0 -1 -5.0237591864288286e-017 -0.010000000000000023 -2.2482016248659495e-017 1 I I #
-459 point $-1 -0.077941851006908758 -0.08616314634917796 0.030000000000011615 #
-460 rgb_color-st-attrib $-1 $-1 $-1 $390 0.75294117647058822 0.75294117647058822 0.75294117647058822 #
-461 loop $-1 $-1 $436 $390 #
-462 plane-surface $-1 -0.10000000000000724 0.035000000000001107 0.12500000000001238 -1 4.6074255521943854e-015 9.7509833084325751e-030 -4.6074255521943933e-015 -1.0000000000000018 -2.1094237467878037e-015 forward_v I I I I #
-463 face $-1 $318 $398 $4 $-1 $511 forward single #
-464 cone-surface $-1 0.098032934629487353 -0.043956016938169008 0.030000000000004735 9.9920072216263418e-016 0 -1 -5.0237591864288267e-017 -0.010000000000000016 -2.2482016248659486e-017 1 I I 0 1 1 forward I I I I #
-465 straight-curve $-1 0.10686088184179629 0.048653606534618532 0.030000000000011962 9.9920072216263418e-016 0 -1 I I #
-466 ellipse-curve $-1 0.09803293462948294 -0.043956016938168974 1.1591202967171948e-014 9.9920072216263418e-016 0 -1 -5.0237591864288267e-017 -0.010000000000000016 -2.1094237467877725e-017 1 I I #
-467 point $-1 0.10686088184179521 -0.0486536065346155 1.0706173721509972e-014 #
-468 rgb_color-st-attrib $-1 $-1 $-1 $407 0.75294117647058822 0.75294117647058822 0.75294117647058822 #
-469 cone-surface $-1 -0.10000000000000696 -0.034999999999999178 0.12500000000001141 1 2.3111159332641871e-032 -4.6607504654171108e-032 5.0237591864288273e-017 0.010000000000000012 1.207367539279864e-017 1 I I 0 1 1 forward I I I I #
-470 point $-1 0.10159995028581191 -0.05329820079996251 3.7168226149376805e-017 #
-471 straight-curve $-1 0.10686088184179829 -0.048653606534615534 0.030000000000010067 9.9920072216263418e-016 0 -1 I I #
-472 edge $-1 $488 -1.5707963267951621 $475 4.4494963269407789e-013 $455 $512 forward 7 unknown #
-473 coedge $-1 $508 $415 $418 $478 reversed $474 $-1 #
-474 loop $-1 $-1 $473 $451 #
-475 vertex $-1 $472 $513 #
-476 straight-curve $-1 -0.060000000000004723 -0.044999999999994614 0.12500000000001321 9.9920072216263734e-016 1.4155343563970744e-015 -1 I I #
-477 coedge $-1 $418 $417 $514 $515 reversed $419 $-1 #
-478 edge $-1 $516 0 $420 0.039999999999999584 $418 $517 forward 7 unknown #
-479 point $-1 -0.060000000000004723 -0.044999999999994614 0.12500000000001321 #
-480 coedge $-1 $436 $514 $422 $481 reversed $461 $-1 #
-481 edge $-1 $440 0 $482 0.070000000000004725 $422 $518 forward 7 unknown #
-482 vertex $-1 $481 $519 #
-483 straight-curve $-1 -0.10000000000000962 -0.03500000000000008 0.13500000000000942 1 2.3111159332641871e-032 -4.6607504654171108e-032 I I #
-484 rgb_color-st-attrib $-1 $-1 $-1 $424 0.75294117647058822 0.75294117647058822 0.75294117647058822 #
-485 plane-surface $-1 -0.10000000000000547 0.035000000000004645 0.13500000000001394 -9.9920072216264404e-016 -2.1094237467877958e-015 1 4.6074255521943933e-015 1.0000000000000018 2.1094237467878037e-015 forward_v I I I I #
-486 coedge $-1 $520 $426 $505 $521 reversed $452 $-1 #
-487 coedge $-1 $426 $520 $428 $491 forward $452 $-1 #
-488 vertex $-1 $427 $522 #
-489 straight-curve $-1 -0.0600000000000077 -0.03499999999999736 0.015000000000013789 4.2743586448068385e-015 1 1.9012569296705829e-015 I I #
-490 coedge $-1 $429 $428 $523 $524 forward $430 $-1 #
-491 edge $-1 $525 0 $431 0.039999999999991147 $487 $526 forward 7 unknown #
-492 point $-1 -0.060000000000011093 0.034999999999999372 0.015000000000010321 #
-493 coedge $-1 $523 $436 $433 $494 forward $461 $-1 #
-494 edge $-1 $438 0 $495 0.099999999999997854 $493 $527 forward 7 unknown #
-495 vertex $-1 $524 $528 #
-496 straight-curve $-1 -0.10000000000000935 0.045000000000003676 0.025000000000012745 1 2.3111159332641871e-032 -4.6607504654171108e-032 I I #
-497 ellipse-curve $-1 -0.10000000000000724 0.035000000000001107 0.12500000000001238 -1 -2.3111159332641871e-032 4.6607504654171108e-032 -5.0237591864288273e-017 -0.010000000000000012 -1.207367539279864e-017 1 I I #
-498 point $-1 -0.10000000000000411 0.045000000000007999 0.1250000000000106 #
-499 point $-1 -0.10000000000000547 0.035000000000004645 0.13500000000001394 #
-500 point $-1 -0.075398801600323972 -0.082921128743397826 0.030000000000011618 #
-501 rgb_color-st-attrib $-1 $-1 $-1 $444 0.75294117647058822 0.75294117647058822 0.75294117647058822 #
-502 cone-surface $-1 -0.10000000000000492 0.035000000000001225 0.025000000000011843 1 2.3111159332641871e-032 -4.6607504654171108e-032 5.0237591864288255e-017 0.010000000000000009 2.2482016248659477e-017 1 I I 0 1 1 forward I I I I #
-503 rgb_color-st-attrib $-1 $-1 $-1 $451 0.75294117647058822 0.75294117647058822 0.75294117647058822 #
-504 plane-surface $-1 -0.10000000000000431 -0.044999999999998964 0.1250000000000096 -4.2743586448068393e-015 -1 -1.4155343563970785e-015 -9.9920072216263734e-016 -1.4155343563970744e-015 1 forward_v I I I I #
-505 coedge $-1 $455 $454 $486 $521 forward $309 $-1 #
-506 coedge $-1 $529 $530 $454 $507 forward $461 $-1 #
-507 edge $-1 $531 -1.5707963267948069 $509 -7.98153210190921e-013 $506 $532 forward 7 unknown #
-508 coedge $-1 $456 $473 $529 $533 forward $474 $-1 #
-509 vertex $-1 $533 $534 #
-510 straight-curve $-1 -0.10000000000000243 -0.04499999999999707 0.025000000000004644 1 2.3111159332641871e-032 -4.6607504654171108e-032 I I #
-511 cone-surface $-1 0.015428571428564434 8.1727085416665652e-016 0.030000000000011809 9.9920072216263418e-016 0 -1 -4.7744546411670182e-016 -0.10357142857142877 -2.1872384855673354e-016 1 I I 0 1 1 forward I I I I #
-512 ellipse-curve $-1 -0.060000000000003266 -0.035000000000000038 0.025000000000005584 -1 -2.3111159332641871e-032 4.6607504654171108e-032 -4.3298697960381039e-017 -0.010000000000000016 -2.248201624865948e-017 1 I I #
-513 point $-1 -0.06000000000000684 -0.045000000000001601 0.025000000000010011 #
-514 coedge $-1 $480 $529 $477 $515 forward $461 $-1 #
-515 edge $-1 $516 -1.7920387396231192e-013 $482 1.5707963267948075 $514 $535 forward 7 unknown #
-516 vertex $-1 $533 $536 #
-517 straight-curve $-1 -0.10000000000000431 -0.044999999999998964 0.1250000000000096 1 2.3111159332641871e-032 -4.6607504654171108e-032 I I #
-518 straight-curve $-1 -0.10000000000000547 0.035000000000004645 0.13500000000001394 -4.6074255521943854e-015 -1 -2.1094237467878002e-015 I I #
-519 point $-1 -0.10000000000000962 -0.03500000000000008 0.13500000000000942 #
-520 coedge $-1 $487 $486 $530 $537 forward $452 $-1 #
-521 edge $-1 $531 0 $488 0.039999999999999147 $505 $538 forward 7 unknown #
-522 point $-1 -0.0600000000000077 -0.03499999999999736 0.015000000000013789 #
-523 coedge $-1 $530 $493 $490 $524 reversed $461 $-1 #
-524 edge $-1 $525 -1.5707963267947198 $495 8.7957419125905914e-014 $490 $539 forward 7 unknown #
-525 vertex $-1 $491 $540 #
-526 straight-curve $-1 -0.10000000000000224 0.035000000000003015 0.015000000000012058 1 2.3111159332641871e-032 -4.6607504654171108e-032 I I #
-527 straight-curve $-1 -0.10000000000000411 0.045000000000007999 0.1250000000000106 1.1102230246251492e-015 -2.2204460492503116e-016 -1 I I #
-528 point $-1 -0.10000000000000935 0.045000000000003676 0.025000000000012745 #
-529 coedge $-1 $514 $506 $508 $533 reversed $461 $-1 #
-530 coedge $-1 $506 $523 $520 $537 reversed $461 $-1 #
-531 vertex $-1 $507 $541 #
-532 ellipse-curve $-1 -0.10000000000000685 -0.034999999999998171 0.025000000000012648 -1 -2.3111159332641871e-032 4.6607504654171108e-032 -5.0237591864288267e-017 -0.010000000000000016 -2.2482016248659486e-017 1 I I #
-533 edge $-1 $516 0 $509 0.10000000000000496 $508 $542 forward 7 unknown #
-534 point $-1 -0.10000000000000243 -0.04499999999999707 0.025000000000004644 #
-535 ellipse-curve $-1 -0.10000000000000696 -0.034999999999999178 0.12500000000001141 -1 -2.3111159332641871e-032 4.6607504654171108e-032 -5.0237591864288261e-017 -0.010000000000000009 -1.2073675392798636e-017 1 I I #
-536 point $-1 -0.10000000000000431 -0.044999999999998964 0.1250000000000096 #
-537 edge $-1 $531 0 $525 0.070000000000002061 $520 $543 forward 7 unknown #
-538 straight-curve $-1 -0.10000000000000685 -0.034999999999999046 0.015000000000010196 1 2.3111159332641871e-032 -4.6607504654171108e-032 I I #
-539 ellipse-curve $-1 -0.10000000000000492 0.035000000000001225 0.025000000000011843 1 2.3111159332641871e-032 -4.6607504654171108e-032 5.0237591864288255e-017 0.010000000000000009 2.2482016248659477e-017 1 I I #
-540 point $-1 -0.10000000000000224 0.035000000000003015 0.015000000000012058 #
-541 point $-1 -0.10000000000000685 -0.034999999999999046 0.015000000000010196 #
-542 straight-curve $-1 -0.10000000000000431 -0.044999999999998964 0.1250000000000096 9.9920072216263734e-016 1.4155343563970744e-015 -1 I I #
-543 straight-curve $-1 -0.10000000000000685 -0.034999999999999046 0.015000000000010196 4.2743586448068385e-015 1 1.9012569296705829e-015 I I #
End-of-ACIS-data 