600 0 1 0           
37 SolidWorks(2001239)-Sat-Convertor-2.0 13 ACIS 6.0.3 NT 24 Mon Oct 08 15:26:55 2001 
1000 9.9999999999999995e-007 1e-010 
-0 body $1 $2 $-1 $-1 #
-1 string_attrib-name_attrib-gen-attrib $-1 $3 $-1 $0 keep keep_kept ignore copy 17 SW_COMPONENT_NAME 8 Staubli3 #
-2 lump $-1 $-1 $4 $0 #
-3 rgb_color-st-attrib $-1 $-1 $1 $0 1 0.50196078431372548 0 #
-4 shell $-1 $-1 $-1 $5 $-1 $2 #
-5 face $-1 $6 $7 $4 $-1 $8 forward single #
-6 face $-1 $9 $10 $4 $-1 $11 forward single #
-7 loop $-1 $-1 $12 $5 #
-8 torus-surface $-1 -2.1649348980190553e-015 1.420590728384852e-014 -0.01550000000000705 5.8286708792820659e-016 2.7755575615629308e-017 1 0.079999999999999974 0.050000000000000017 1 -6.6613381477508387e-016 -5.8286708792820659e-016 forward_v I I I I #
-9 face $-1 $13 $14 $4 $-1 $15 reversed single #
-10 loop $-1 $-1 $16 $6 #
-11 cone-surface $-1 -3.8857805861880479e-016 1.7532156282307202e-015 -0.07250000000000123 8.1878948066105246e-016 2.465190328815643e-032 1 -1.5321077739827159e-016 -0.055 1.75554015768854e-017 1 I I 0 1 1 forward I I I I #
-12 coedge $-1 $17 $18 $19 $20 reversed $7 $-1 #
-13 face $-1 $21 $22 $4 $-1 $23 forward single #
-14 loop $-1 $24 $25 $9 #
-15 plane-surface $-1 -2.1649348980190553e-015 1.2413590988469284e-014 -0.065500000000001543 8.1878948066105374e-016 4.1633363423443331e-016 1 -3.2196467714129536e-015 -1 4.1633363423443592e-016 forward_v I I I I #
-16 coedge $-1 $26 $27 $28 $29 reversed $10 $-1 #
-17 coedge $-1 $30 $12 $31 $32 reversed $7 $-1 #
-18 coedge $-1 $12 $30 $25 $33 forward $7 $-1 #
-19 coedge $-1 $34 $35 $12 $20 forward $36 $-1 #
-20 edge $-1 $37 -6.9388939039074287e-018 $38 1.5707963267948952 $19 $39 forward 7 unknown #
-21 face $-1 $40 $41 $4 $-1 $42 forward single #
-22 loop $-1 $-1 $43 $13 #
-23 plane-surface $-1 -3.8857805861880479e-016 1.7532156282307202e-015 -0.07250000000000123 -8.1878948066105374e-016 -4.1633363423443331e-016 -1 3.2196467714129536e-015 1 -4.1633363423443592e-016 forward_v I I I I #
-24 loop $-1 $-1 $44 $9 #
-25 coedge $-1 $45 $46 $18 $33 reversed $14 $-1 #
-26 coedge $-1 $47 $16 $48 $49 forward $10 $-1 #
-27 coedge $-1 $16 $47 $50 $51 reversed $10 $-1 #
-28 coedge $-1 $43 $43 $16 $29 forward $22 $-1 #
-29 edge $-1 $52 1.2515241368501763e-015 $53 3.1415926535897931 $28 $54 forward 7 unknown #
-30 coedge $-1 $18 $17 $55 $56 forward $7 $-1 #
-31 coedge $-1 $57 $58 $17 $32 forward $59 $-1 #
-32 edge $-1 $60 2.4787188299396705 $37 3.1415926535897931 $31 $61 forward 7 unknown #
-33 edge $-1 $62 1.5707963267948897 $38 3.1415926535897709 $18 $63 forward 7 unknown #
-34 coedge $-1 $64 $19 $46 $65 forward $36 $-1 #
-35 coedge $-1 $19 $64 $57 $66 reversed $36 $-1 #
-36 loop $-1 $-1 $19 $40 #
-37 vertex $-1 $66 $67 #
-38 vertex $-1 $65 $68 #
-39 ellipse-curve $-1 -0.080000000000002139 1.4268994839861107e-014 -0.015500000000007003 -7.8859445015732583e-016 -1 2.775557561562977e-017 -0.050000000000000017 3.9429722507866306e-017 2.9143354396410342e-017 1 I I #
-40 face $-1 $69 $36 $4 $-1 $8 forward single #
-41 loop $-1 $-1 $48 $21 #
-42 cone-surface $-1 -3.8857805861880479e-016 1.7532156282307202e-015 -0.07250000000000123 8.1878948066105246e-016 2.465190328815643e-032 1 -1.5321077739827159e-016 -0.055 1.75554015768854e-017 1 I I 0 1 1 forward I I I I #
-43 coedge $-1 $28 $28 $70 $71 forward $22 $-1 #
-44 coedge $-1 $72 $72 $47 $73 forward $24 $-1 #
-45 coedge $-1 $46 $25 $74 $75 reversed $14 $-1 #
-46 coedge $-1 $25 $45 $34 $65 reversed $14 $-1 #
-47 coedge $-1 $27 $26 $44 $73 reversed $10 $-1 #
-48 coedge $-1 $70 $76 $26 $49 reversed $41 $-1 #
-49 edge $-1 $52 2.7755575615628914e-017 $77 0.0069999999999996732 $26 $78 forward 7 unknown #
-50 coedge $-1 $76 $70 $27 $51 forward $41 $-1 #
-51 edge $-1 $53 -2.7755575615628914e-017 $79 0.0069999999999996732 $50 $80 forward 7 unknown #
-52 vertex $-1 $71 $81 #
-53 vertex $-1 $71 $82 #
-54 ellipse-curve $-1 -3.8857805861880479e-016 1.7532156282307202e-015 -0.07250000000000123 -8.1878948066105246e-016 -2.465190328815643e-032 -1 1.5321077739827159e-016 0.055 -1.75554015768854e-017 1 I I #
-55 coedge $-1 $83 $84 $30 $56 reversed $85 $-1 #
-56 edge $-1 $60 0.44122468666425241 $62 0.56826493806118183 $30 $86 forward 7 unknown #
-57 coedge $-1 $87 $31 $35 $66 forward $59 $-1 #
-58 coedge $-1 $31 $88 $83 $89 forward $59 $-1 #
-59 loop $-1 $-1 $58 $90 #
-60 vertex $-1 $56 $91 #
-61 ellipse-curve $-1 -2.1649348980190553e-015 1.420590728384852e-014 -0.01550000000000705 5.8286708792820659e-016 2.7755575615629308e-017 1 0.13 -8.6597395920760907e-017 -2.2204460492502715e-018 1 I I #
-62 vertex $-1 $75 $92 #
-63 ellipse-curve $-1 -2.1649348980190553e-015 1.2413590988469284e-014 -0.065500000000001543 5.8286708792820659e-016 2.7755575615629308e-017 1 0.080000000000000071 -5.3290705182007931e-017 -7.7715611723761011e-018 1 I I #
-64 coedge $-1 $35 $34 $93 $94 reversed $36 $-1 #
-65 edge $-1 $38 -3.1415926535898153 $95 -1.570796326794887 $34 $63 forward 7 unknown #
-66 edge $-1 $37 -3.1415926535897931 $96 -2.4787188299396434 $57 $97 forward 7 unknown #
-67 point $-1 -0.13000000000000217 1.4308424562368972e-014 -0.015500000000006973 #
-68 point $-1 -0.080000000000002236 1.4267607061080323e-014 -0.065500000000001501 #
-69 face $-1 $90 $98 $4 $-1 $99 forward single #
-70 coedge $-1 $50 $48 $43 $71 reversed $41 $-1 #
-71 edge $-1 $53 -3.1415926535897931 $52 1.2515241368501763e-015 $43 $100 forward 7 unknown #
-72 coedge $-1 $44 $44 $76 $101 forward $24 $-1 #
-73 edge $-1 $79 -2.4223047810003394e-016 $77 3.1415926535897598 $44 $102 forward 7 unknown #
-74 coedge $-1 $103 $104 $45 $75 forward $98 $-1 #
-75 edge $-1 $95 1.2184697695260475e-014 $62 3.1415926535897887 $74 $105 forward 7 unknown #
-76 coedge $-1 $48 $50 $72 $101 reversed $41 $-1 #
-77 vertex $-1 $101 $106 #
-78 straight-curve $-1 -1.6653345369377348e-016 0.055000000000001749 -0.07250000000000123 8.1878948066105246e-016 2.465190328815643e-032 1 I I #
-79 vertex $-1 $101 $107 #
-80 straight-curve $-1 -5.5511151231257827e-016 -0.054999999999998252 -0.072500000000001202 8.1878948066105246e-016 2.465190328815643e-032 1 I I #
-81 point $-1 -1.6653345369377348e-016 0.055000000000001749 -0.072500000000001202 #
-82 point $-1 -5.5511151231257827e-016 -0.054999999999998252 -0.07250000000000123 #
-83 coedge $-1 $108 $55 $58 $89 reversed $85 $-1 #
-84 coedge $-1 $55 $108 $103 $109 forward $85 $-1 #
-85 loop $-1 $-1 $55 $110 #
-86 intcurve-curve $-1 forward { exactcur full nubs 3 open 24 
	0.44122468666425241 3 0.44916470237655981 2 0.45114970630463663 2 0.45313471023271346 2 0.45710471808886716 2 
	0.46107472594502086 2 0.46305972987309779 2 0.46504473380117467 2 0.47298474951348224 2 0.47695475736963605 2 
	0.47893976129771304 2 0.48092476522579003 2 0.48886478093809782 2 0.49680479665040561 2 0.5047448123627134 2 
	0.50871482021886738 2 0.50970732218290593 2 0.51069982414694448 2 0.51268482807502158 2 0.5206248437873302 2 
	0.53650487521194734 2 0.55238490663656448 2 0.56032492234887321 2 0.56826493806118183 3 
	-0.1024695076595965 0.08000000000001091 -0.015500000000003483 
	-0.10246950765960655 0.080000000000003776 -0.018156014027876838 
	-0.10220310947067174 0.080000000000003776 -0.020796982633940614 
	-0.10153286350125901 0.080000000000003763 -0.024079146558117215 
	-0.10138132992263438 0.080000000000003763 -0.024736365842156396 
	-0.10104712133849142 0.080000000000003776 -0.026036242827461198 
	-0.10086438595488378 0.080000000000003763 -0.026679697299855365 
	-0.1002705427695067 0.080000000000003776 -0.028591129764206677 
	-0.099813883437841366 0.080000000000003776 -0.029840212271996583 
	-0.098783439148714014 0.080000000000003776 -0.032289791753504007 
	-0.098209639473286647 0.080000000000003763 -0.0334902826219802 
	-0.097262440538927852 0.080000000000003735 -0.035255137617352508 
	-0.096932272271069986 0.080000000000003721 -0.035837434632764856 
	-0.096243078236830426 0.080000000000003721 -0.036990058123682029 
	-0.095884435635086751 0.080000000000003735 -0.037559585395561035 
	-0.094037125786437192 0.080000000000003735 -0.04035163091006605 
	-0.092375071782398011 0.080000000000003735 -0.042429292347589215 
	-0.089633304093379162 0.080000000000003693 -0.045335211164340666 
	-0.088677703406176533 0.080000000000003707 -0.046268560171758746 
	-0.087183584346427756 0.080000000000003707 -0.047617171206863415 
	-0.086675900980279774 0.080000000000003707 -0.048057613076093297 
	-0.085649032932095581 0.080000000000003693 -0.048914823126099849 
	-0.085128866768114209 0.080000000000003707 -0.049332490782796015 
	-0.082495788156010885 0.080000000000003707 -0.051368437703925893 
	-0.08028661822997496 0.080000000000003679 -0.05283033229638863 
	-0.075689850339553832 0.080000000000003652 -0.055464238442070005 
	-0.073302032315125332 0.080000000000003665 -0.056635892474829683 
	-0.068366258670719993 0.080000000000003652 -0.058719033061491829 
	-0.065848758923052197 0.080000000000003638 -0.059617643228118647 
	-0.062015942778409383 0.080000000000003638 -0.060783540144481119 
	-0.060728525187662419 0.08000000000000361 -0.061141894865986771 
	-0.059108018845676125 0.08000000000000361 -0.061555172365839808 
	-0.058783355605309895 0.08000000000000361 -0.061636093786040597 
	-0.058132930050307507 0.08000000000000361 -0.061794545207365006 
	-0.057802973714003614 0.08000000000000361 -0.061873072912006083 
	-0.056818059572614321 0.080000000000003596 -0.062102020242837758 
	-0.056161192978033569 0.080000000000003624 -0.062247496598931862 
	-0.052875653258773414 0.080000000000003596 -0.062941302884566605 
	-0.050243372926359275 0.080000000000003554 -0.063389268902543025 
	-0.042337660874555982 0.080000000000003541 -0.064486346201746272 
	-0.037055422865791665 0.080000000000003527 -0.064890438700270558 
	-0.026479076219290076 0.080000000000003513 -0.065368345309095022 
	-0.021185009117758113 0.080000000000003485 -0.065443315087811593 
	-0.013241605833446302 0.080000000000003457 -0.065491703261027101 
	-0.010593393508593008 0.080000000000003457 -0.065496390932440973 
	-0.0052967799861254328 0.080000000000003429 -0.065500511238543613 
	-0.0026483808057791713 0.080000000000003429 -0.065500000000007066 
	-1.5543122344752192e-015 0.080000000000013366 -0.065500000000002459 
	0 
	null_surface 
	null_surface 
	nullbs 
	nullbs 
	I I 
	0 
	22 0.44916470237655981 0.45114970630463663 0.45313471023271346 0.45710471808886716 0.46107472594502086 0.46305972987309779 0.46504473380117467 0.47298474951348224 0.47695475736963605 0.47893976129771304 0.48092476522579003 0.48886478093809782 0.49680479665040561 0.5047448123627134 0.50871482021886738 0.50970732218290593 0.51069982414694448 0.51268482807502158 0.5206248437873302 0.53650487521194734 0.55238490663656448 0.56032492234887321 
	0 
	F 1 F 0 } I I #
-87 coedge $-1 $88 $57 $111 $112 reversed $59 $-1 #
-88 coedge $-1 $58 $87 $113 $114 forward $59 $-1 #
-89 edge $-1 $115 0.20615528128088464 $60 0.27315528128088573 $58 $116 forward 7 unknown #
-90 face $-1 $117 $59 $4 $-1 $118 forward single #
-91 point $-1 -0.1024695076595965 0.08000000000001091 -0.015500000000003483 #
-92 point $-1 -1.5543122344752192e-015 0.080000000000013366 -0.065500000000002459 #
-93 coedge $-1 $119 $111 $64 $94 forward $120 $-1 #
-94 edge $-1 $96 0.44122468666423387 $95 0.5682649380611583 $93 $121 forward 7 unknown #
-95 vertex $-1 $75 $122 #
-96 vertex $-1 $112 $123 #
-97 ellipse-curve $-1 -2.1649348980190553e-015 1.420590728384852e-014 -0.01550000000000705 5.8286708792820659e-016 2.7755575615629308e-017 1 0.13 -8.6597395920760907e-017 -2.2204460492502715e-018 1 I I #
-98 loop $-1 $-1 $103 $69 #
-99 cone-surface $-1 -2.1649348980190553e-015 1.2413590988469284e-014 -0.065500000000001543 8.1878948066105246e-016 2.465190328815643e-032 1 -2.5313084961453567e-016 -0.080000000000000002 3.9412917374193234e-017 1 I I 0 1 1 forward I I I I #
-100 ellipse-curve $-1 -3.8857805861880479e-016 1.7532156282307202e-015 -0.07250000000000123 -8.1878948066105246e-016 -2.465190328815643e-032 -1 1.5321077739827159e-016 0.055 -1.75554015768854e-017 1 I I #
-101 edge $-1 $77 -3.1415926535898264 $79 -2.4223047810003394e-016 $72 $124 forward 7 unknown #
-102 ellipse-curve $-1 -2.1649348980190553e-015 1.2413590988469284e-014 -0.065500000000001543 8.1878948066105246e-016 2.465190328815643e-032 1 -1.5321077739827159e-016 -0.055 1.75554015768854e-017 1 I I #
-103 coedge $-1 $125 $74 $84 $109 reversed $98 $-1 #
-104 coedge $-1 $74 $126 $119 $127 forward $98 $-1 #
-105 ellipse-curve $-1 -2.1649348980190553e-015 1.2413590988469284e-014 -0.065500000000001543 8.1878948066105246e-016 2.465190328815643e-032 1 -2.5313084961453567e-016 -0.080000000000000002 3.9412917374193234e-017 1 I I #
-106 point $-1 -1.6653345369377348e-016 0.055000000000012414 -0.065500000000001557 #
-107 point $-1 -2.3314683517128287e-015 -0.054999999999987587 -0.065500000000001529 #
-108 coedge $-1 $84 $83 $128 $129 forward $85 $-1 #
-109 edge $-1 $130 0.20615528128088026 $62 0.323155281280882 $84 $131 forward 7 unknown #
-110 face $-1 $132 $85 $4 $-1 $133 forward single #
-111 coedge $-1 $93 $134 $87 $112 forward $120 $-1 #
-112 edge $-1 $135 0.20615528128088115 $96 0.2731552812808804 $111 $136 forward 7 unknown #
-113 coedge $-1 $137 $128 $88 $114 reversed $138 $-1 #
-114 edge $-1 $135 0.90792250314475653 $115 2.233670150445012 $88 $139 forward 7 unknown #
-115 vertex $-1 $89 $140 #
-116 straight-curve $-1 -0.10246950765959639 0.080000000000003887 0.25765528128088222 -8.1878948066105246e-016 -2.465190328815643e-032 -1 I I #
-117 face $-1 $110 $120 $4 $-1 $141 reversed single #
-118 cone-surface $-1 -1.9984014443252818e-015 1.1628560218488745e-014 0.25765528128087956 -8.1878948066105246e-016 -2.465190328815643e-032 -1 3.97459842815806e-016 0.13 -4.1494585545365506e-017 1 I I 0 1 1 forward I I I I #
-119 coedge $-1 $134 $93 $104 $127 reversed $120 $-1 #
-120 loop $-1 $-1 $111 $117 #
-121 intcurve-curve $-1 forward { exactcur full nubs 3 open 24 
	0.44122468666423387 3 0.44916470237654144 2 0.45114970630461837 2 0.4531347102326953 2 0.45710471808884912 2 
	0.46107472594500293 2 0.46305972987307981 2 0.46504473380115668 2 0.47298474951346464 2 0.47695475736961856 2 
	0.4789397612976955 2 0.48092476522577249 2 0.48886478093808 2 0.49680479665038757 2 0.50474481236269508 2 
	0.50871482021884906 2 0.5097073221828875 2 0.51069982414692605 2 0.51268482807500304 2 0.520624843787311 2 
	0.5365048752119268 2 0.55238490663654261 2 0.56032492234885045 2 0.5682649380611583 3 
	-0.10246950765959856 -0.079999999999988344 -0.01550000000000254 
	-0.10246950765959711 -0.079999999999987484 -0.01815601402787545 
	-0.10220310947066241 -0.079999999999987498 -0.02079698263393942 
	-0.10153286350124968 -0.079999999999987484 -0.024079146558116257 
	-0.10138132992262583 -0.079999999999987498 -0.024736365842152067 
	-0.10104712133848298 -0.079999999999987498 -0.026036242827457048 
	-0.1008643859548754 -0.079999999999987484 -0.026679697299851271 
	-0.10027054276949837 -0.079999999999987498 -0.02859112976420275 
	-0.099813883437833095 -0.079999999999987498 -0.02984021227199285 
	-0.098783439148705798 -0.079999999999987484 -0.032289791753500455 
	-0.098209639473278432 -0.079999999999987512 -0.033490282621976772 
	-0.097262440538919526 -0.079999999999987526 -0.035255137617349303 
	-0.096932272271061659 -0.079999999999987539 -0.035837434632761678 
	-0.096243078236822155 -0.079999999999987498 -0.036990058123678934 
	-0.095884435635079979 -0.079999999999987526 -0.037559585395555747 
	-0.094037125786430753 -0.079999999999987539 -0.040351630910060998 
	-0.092375071782391571 -0.079999999999987498 -0.04242929234758433 
	-0.089633304093372834 -0.079999999999987539 -0.045335211164336101 
	-0.08867770340617015 -0.079999999999987567 -0.04626856017175425 
	-0.087183584346421317 -0.079999999999987553 -0.047617171206859071 
	-0.0866759009802755 -0.079999999999987553 -0.048057613076087274 
	-0.085649032932091251 -0.079999999999987553 -0.048914823126093993 
	-0.085128866768109879 -0.079999999999987553 -0.049332490782790311 
	-0.0824957881560065 -0.079999999999987553 -0.051368437703920605 
	-0.080286618229970574 -0.079999999999987595 -0.052830332296383592 
	-0.075689850339549336 -0.079999999999987595 -0.055464238442065508 
	-0.07330203231512078 -0.079999999999987609 -0.056635892474825492 
	-0.06836625867071533 -0.079999999999987609 -0.058719033061488152 
	-0.065848758923049255 -0.079999999999987637 -0.059617643228114525 
	-0.062015942778406496 -0.079999999999987609 -0.060783540144477358 
	-0.060728525187659477 -0.079999999999987637 -0.061141894865983121 
	-0.059108018845673294 -0.07999999999998765 -0.061555172365836353 
	-0.058783355605306953 -0.07999999999998765 -0.061636093786037141 
	-0.058132930050304565 -0.07999999999998765 -0.061794545207361606 
	-0.057802973714001005 -0.07999999999998765 -0.061873072912002613 
	-0.056818059572611712 -0.07999999999998765 -0.062102020242834385 
	-0.056161192978031294 -0.079999999999987637 -0.062247496598928462 
	-0.052875653258771083 -0.07999999999998765 -0.06294130288456351 
	-0.050243372926357055 -0.079999999999987664 -0.06338926890254018 
	-0.042337660874554095 -0.079999999999987706 -0.064486346201744038 
	-0.037055422865790166 -0.079999999999987734 -0.064890438700268796 
	-0.026479076219288966 -0.079999999999987734 -0.065368345309094036 
	-0.021185009117757003 -0.079999999999987761 -0.065443315087810969 
	-0.013241605833445691 -0.079999999999987789 -0.065491703261026823 
	-0.010593393508592841 -0.079999999999987803 -0.065496390932440807 
	-0.0052967799861252107 -0.079999999999987803 -0.065500511238543613 
	-0.0026483808057791158 -0.079999999999987789 -0.065500000000007066 
	-1.4432899320127035e-015 -0.079999999999992993 -0.065500000000000641 
	0 
	null_surface 
	null_surface 
	nullbs 
	nullbs 
	I I 
	0 
	22 0.44916470237654144 0.45114970630461837 0.4531347102326953 0.45710471808884912 0.46107472594500293 0.46305972987307981 0.46504473380115668 0.47298474951346464 0.47695475736961856 0.4789397612976955 0.48092476522577249 0.48886478093808 0.49680479665038757 0.50474481236269508 0.50871482021884906 0.5097073221828875 0.51069982414692605 0.51268482807500304 0.520624843787311 0.5365048752119268 0.55238490663654261 0.56032492234885045 
	0 
	F 1 F 0 } I I #
-122 point $-1 -1.4432899320127035e-015 -0.079999999999992993 -0.065500000000000641 #
-123 point $-1 -0.10246950765959856 -0.079999999999988344 -0.01550000000000254 #
-124 ellipse-curve $-1 -2.1649348980190553e-015 1.2413590988469284e-014 -0.065500000000001543 8.1878948066105246e-016 2.465190328815643e-032 1 -1.5321077739827159e-016 -0.055 1.75554015768854e-017 1 I I #
-125 coedge $-1 $142 $103 $143 $144 forward $98 $-1 #
-126 coedge $-1 $104 $145 $146 $147 forward $98 $-1 #
-127 edge $-1 $148 0.20615528128088464 $95 0.32315528128088378 $104 $149 forward 7 unknown #
-128 coedge $-1 $113 $150 $108 $129 reversed $138 $-1 #
-129 edge $-1 $115 0 $130 0.10246950765959539 $108 $151 forward 7 unknown #
-130 vertex $-1 $152 $153 #
-131 straight-curve $-1 7.7715611723760958e-016 0.080000000000012589 0.25765528128087956 -8.1878948066105246e-016 -2.465190328815643e-032 -1 I I #
-132 face $-1 $154 $155 $4 $-1 $156 forward single #
-133 plane-surface $-1 -0.10246950765959639 0.080000000000003887 0.25765528128088222 3.219646771412954e-015 1 -2.6624055551209138e-030 8.1878948066105216e-016 1.6948183510607749e-032 0.99999999999999967 forward_v I I I I #
-134 coedge $-1 $111 $119 $137 $157 reversed $120 $-1 #
-135 vertex $-1 $112 $158 #
-136 straight-curve $-1 -0.10246950765959489 -0.079999999999987373 0.25765528128087789 -8.1878948066105246e-016 -2.465190328815643e-032 -1 I I #
-137 coedge $-1 $150 $113 $134 $157 forward $138 $-1 #
-138 loop $-1 $-1 $137 $159 #
-139 ellipse-curve $-1 1.1102230246251565e-016 1.3339114535160234e-014 0.05149999999999489 -8.1878948066105246e-016 -2.465190328815643e-032 -1 -5.084821452783216e-016 -0.13 5.4071330746197407e-017 1 I I #
-140 point $-1 -0.10246950765959734 0.080000000000011812 0.051499999999997575 #
-141 plane-surface $-1 -0.10246950765959489 -0.079999999999987373 0.25765528128087789 3.219646771412954e-015 1 -2.6624055551209138e-030 8.1878948066105216e-016 1.6948183510607749e-032 0.99999999999999967 forward_v I I I I #
-142 coedge $-1 $145 $125 $160 $161 forward $98 $-1 #
-143 coedge $-1 $162 $163 $125 $144 reversed $155 $-1 #
-144 edge $-1 $130 -3.1415926535898211 $164 -1.9389036910173643 $125 $165 forward 7 unknown #
-145 coedge $-1 $126 $142 $166 $167 forward $98 $-1 #
-146 coedge $-1 $168 $169 $126 $147 reversed $155 $-1 #
-147 edge $-1 $170 -1.2026889625722466 $148 1.0019762797241916e-014 $126 $171 forward 7 unknown #
-148 vertex $-1 $127 $172 #
-149 straight-curve $-1 4.9960036108132044e-016 -0.079999999999998211 0.25765528128088311 -8.1878948066105246e-016 -2.465190328815643e-032 -1 I I #
-150 coedge $-1 $128 $137 $173 $174 reversed $138 $-1 #
-151 straight-curve $-1 -0.10246950765959734 0.080000000000011812 0.051499999999997575 1 -5.5466782398352393e-032 2.4651903288156619e-032 I I #
-152 edge $-1 $175 -2.4532694666933894e-017 $130 0.0028284271247448435 $176 $177 forward 7 unknown #
-153 point $-1 -1.9428902930940239e-015 0.080000000000013408 0.051499999999999303 #
-154 face $-1 $178 $179 $4 $-1 $180 forward single #
-155 loop $-1 $-1 $181 $132 #
-156 cone-surface $-1 -1.2212453270876722e-015 1.1563396073999145e-014 0.053499999999995558 -8.1878948066105246e-016 -2.465190328815643e-032 -1 2.4957813593573512e-016 0.077999999999999972 -3.2474023470285882e-017 1 I I 0.70710678118655024 0.7071067811865448 1 forward I I I I #
-157 edge $-1 $135 0 $148 0.10246950765959584 $137 $182 forward 7 unknown #
-158 point $-1 -0.10246950765959678 -0.079999999999987442 0.051499999999996736 #
-159 face $-1 $183 $138 $4 $-1 $184 forward single #
-160 coedge $-1 $185 $186 $142 $161 reversed $187 $-1 #
-161 edge $-1 $164 0 $188 0.16223550732927647 $142 $189 forward 7 unknown #
-162 coedge $-1 $181 $143 $176 $152 reversed $155 $-1 #
-163 coedge $-1 $143 $168 $190 $191 forward $155 $-1 #
-164 vertex $-1 $192 $193 #
-165 ellipse-curve $-1 1.1102230246251565e-016 1.3339114535160234e-014 0.05149999999999489 -8.1878948066105246e-016 -2.465190328815643e-032 -1 -1.9761969838327784e-016 -0.080000000000000002 3.3341385208274384e-017 1 I I #
-166 coedge $-1 $194 $195 $145 $167 reversed $179 $-1 #
-167 edge $-1 $188 0.16223550732927647 $170 0.32400875775014526 $145 $196 forward 7 unknown #
-168 coedge $-1 $163 $146 $197 $198 forward $155 $-1 #
-169 coedge $-1 $146 $181 $199 $200 forward $155 $-1 #
-170 vertex $-1 $198 $201 #
-171 ellipse-curve $-1 1.1102230246251565e-016 1.3339114535160234e-014 0.05149999999999489 -8.1878948066105246e-016 -2.465190328815643e-032 -1 -2.5313084961453567e-016 -0.080000000000000002 3.3341385208274409e-017 1 I I #
-172 point $-1 -9.4368957093138306e-016 -0.079999999999987623 0.051499999999998471 #
-173 coedge $-1 $199 $176 $150 $174 forward $202 $-1 #
-174 edge $-1 $130 -3.1415926535897643 $148 -1.0019762797241916e-014 $173 $203 forward 7 unknown #
-175 vertex $-1 $152 $204 #
-176 coedge $-1 $173 $205 $162 $152 forward $202 $-1 #
-177 straight-curve $-1 -9.9920072216264089e-016 0.078000000000011532 0.053499999999995523 1.6976624709518429e-015 0.70710678118655024 -0.70710678118654491 I I #
-178 face $-1 $159 $187 $4 $-1 $206 forward single #
-179 loop $-1 $-1 $194 $154 #
-180 cone-surface $-1 0.1099999999999991 1.3127277043167852e-014 -3.2612801348363973e-015 -1 5.5466782398352393e-032 -2.4651903288156619e-032 2.6201263381153644e-017 4.4280289150277563e-031 0.058999999999999976 1 I I 0 1 1 forward I I I I #
-181 coedge $-1 $169 $162 $207 $208 reversed $155 $-1 #
-182 straight-curve $-1 -0.10246950765959678 -0.079999999999987442 0.051499999999996736 1 -5.5466782398352393e-032 2.4651903288156619e-032 I I #
-183 face $-1 $209 $202 $4 $-1 $210 forward single #
-184 plane-surface $-1 1.1102230246251565e-016 1.3339114535160234e-014 0.05149999999999489 8.1878948066105374e-016 4.1633363423443331e-016 1 -3.2196467714129536e-015 -1 4.1633363423443592e-016 forward_v I I I I #
-185 coedge $-1 $211 $160 $212 $192 reversed $187 $-1 #
-186 coedge $-1 $160 $213 $194 $214 forward $187 $-1 #
-187 loop $-1 $-1 $213 $178 #
-188 vertex $-1 $161 $215 #
-189 intcurve-curve $-1 forward { exactcur full nubs 3 open 32 
	0 3 0.010139719208079608 2 0.020279438416159215 2 0.025349298020199019 2 0.030419157624238826 2 
	0.040558876832318486 2 0.043093806634338386 2 0.045628736436358307 2 0.050698596040398093 2 0.055768455644437886 2 
	0.058303385446457787 2 0.060838315248477673 2 0.070978034456557385 2 0.073512964258577312 2 0.07604789406059724 2 
	0.081117753664637138 2 0.086187613268677021 2 0.088722543070696991 2 0.091257472872716933 2 0.1013971920807968 2 
	0.10646705168483675 2 0.10900198148685675 2 0.11153691128887674 2 0.12167663049695668 2 0.13181634970503664 2 
	0.13435127950705661 2 0.13688620930907658 2 0.14195606891311655 2 0.14702592851715651 2 0.14956085831917648 2 
	0.15209578812119648 2 0.16223550732927647 3 
	0.074640806533691595 0.028788018340973547 0.051499999999997513 
	0.073545237274915909 0.031628581109831432 0.049912151978861029 
	0.072345556937311484 0.034259948780890136 0.048136022589613421 
	0.069811336602355278 0.039166324576500502 0.044235955741741981 
	0.068476042518501201 0.041440872469964161 0.042111938607519245 
	0.066424218735837481 0.044602710039313972 0.038652795218954372 
	0.065730606451922691 0.04561659991639086 0.037450747493461709 
	0.064359430374514803 0.047531574078055104 0.034988314355131833 
	0.063679392371363386 0.048436683682388772 0.033723966669587088 
	0.061673755163627497 0.051000561563080589 0.02982642681522878 
	0.060380996007859566 0.052509501800553207 0.027090455693934617 
	0.058897541318353785 0.054141242646378644 0.023459744889333348 
	0.058607602519229973 0.054454738914046917 0.022722929411727981 
	0.05804375972455017 0.055055350514621126 0.021226363111932822 
	0.057769236138574542 0.055343102769610332 0.020464777868050982 
	0.056978725126227703 0.056160480373609399 0.018156681239334303 
	0.05649751593868052 0.056642625761641252 0.01659279724237743 
	0.055645938078877355 0.057479439243407565 0.013409773963921075 
	0.055275577232762219 0.057834125498349959 0.01179063702513173 
	0.05481902188637694 0.058265931015176776 0.0093157168988808603 
	0.054683348498141382 0.058393127432867051 0.00848302978085725 
	0.054447813377225485 0.058612810483707908 0.0068012919989453371 
	0.0543477068735988 0.058705524393391689 0.0059490248296664994 
	0.053948019601889385 0.059074534010549254 0.0016944860717898608 
	0.053949993887601133 0.059072678580072181 -0.0016924189084357652 
	0.054343112790237069 0.058709773819716468 -0.0059057438408173166 
	0.054441108721390352 0.058619034765899011 -0.0067473946360767992 
	0.054674946180940709 0.058400991565307724 -0.0084286864605047293 
	0.054811317150958661 0.058273182342249825 -0.0092708640844963441 
	0.055269951780901327 0.057839515061915162 -0.011766108195275654 
	0.055641874848592399 0.057483381858547809 -0.013393325469521933 
	0.056494775577898171 0.056645368380520991 -0.016583805295023138 
	0.056975756034751135 0.056163457641502261 -0.018147058790857942 
	0.057763633534822834 0.055348941528728497 -0.020448889967489739 
	0.058037659145706577 0.05506179615546232 -0.021209798124817672 
	0.058604225964799528 0.054458387545405912 -0.022714333763409769 
	0.058895483311332819 0.054143496402496952 -0.023454657882671592 
	0.060385159301215241 0.052504962153621638 -0.027100845272961846 
	0.061681602423918014 0.050991197263978792 -0.029842743974731051 
	0.063689501636583934 0.048423423570451256 -0.03374307249357425 
	0.064369769975113289 0.047517565829508931 -0.035007301166506577 
	0.065397671199904861 0.046081354026139949 -0.036852630305714798 
	0.065741568306059817 0.045589689939591345 -0.037459217267887618 
	0.066430524734331586 0.044579805020319906 -0.038655578788334394 
	0.066776068480050355 0.044060796198880113 -0.039246142806456052 
	0.06849054122830972 0.041417376734253199 -0.042135693826677881 
	0.069827894943864766 0.03913704635077149 -0.044262073722589806 
	0.072363090301439448 0.034223186166390501 -0.048162361818196595 
	0.073561681272121038 0.03159007489195919 -0.049936312994290868 
	0.074928268750228955 0.028041628047379627 -0.051916544647634968 
	0.075194606916284712 0.027319719902346915 -0.052300078438438091 
	0.075707833823747961 0.025863485893301452 -0.053035322169818405 
	0.075955376493722915 0.02512749440526138 -0.053387981271293475 
	0.076669644686118865 0.022895553220262193 -0.054400953300257224 
	0.077108044219660832 0.021375681323077506 -0.055016357972993327 
	0.077902526920791526 0.018269278441202613 -0.056124440860253033 
	0.078258630496534809 0.016682758610736922 -0.056617134889022411 
	0.0787250147531251 0.0142497007910536 -0.05725949377039985 
	0.078869168814980239 0.013429788687881703 -0.057457472596536135 
	0.079133671855269316 0.011771448189137406 -0.057820008551653382 
	0.079253560093151321 0.010935377850057156 -0.057983933580742164 
	0.079785185972959138 0.0067581445573025025 -0.058709727964312078 
	0.079999999999997629 0.0033915581036793635 -0.05900000000000323 
	0.079999999999997851 1.3134502222064055e-014 -0.059000000000003258 
	0 
	null_surface 
	null_surface 
	nullbs 
	nullbs 
	I I 
	0 
	30 0.010139719208079608 0.020279438416159215 0.025349298020199019 0.030419157624238826 0.040558876832318486 0.043093806634338386 0.045628736436358307 0.050698596040398093 0.055768455644437886 0.058303385446457787 0.060838315248477673 0.070978034456557385 0.073512964258577312 0.07604789406059724 0.081117753664637138 0.086187613268677021 0.088722543070696991 0.091257472872716933 0.1013971920807968 0.10646705168483675 0.10900198148685675 0.11153691128887674 0.12167663049695668 0.13181634970503664 0.13435127950705661 0.13688620930907658 0.14195606891311655 0.14702592851715651 0.14956085831917648 0.15209578812119648 
	0 
	F 1 F 0 } I I #
-190 coedge $-1 $216 $212 $163 $191 reversed $217 $-1 #
-191 edge $-1 $218 1.5707963267947982 $164 1.9389036910173649 $163 $219 forward 7 unknown #
-192 edge $-1 $220 0.029999999999998472 $164 0.035359193466306615 $212 $221 forward 7 unknown #
-193 point $-1 0.074640806533691595 0.028788018340973547 0.051499999999997513 #
-194 coedge $-1 $222 $166 $186 $214 reversed $179 $-1 #
-195 coedge $-1 $166 $223 $224 $225 reversed $179 $-1 #
-196 intcurve-curve $-1 forward { exactcur full nubs 3 open 33 
	0.16223550732927647 3 0.16729092140492857 2 0.16981862844275464 2 0.1723463354805807 2 0.18245716363188499 2 
	0.18498487066971106 2 0.18751257770753713 2 0.19256799178318934 2 0.19762340585884153 2 0.20267881993449374 2 
	0.21278964808579814 2 0.21784506216145028 2 0.22290047623710244 2 0.23301130438840673 2 0.23806671846405883 2 
	0.24312213253971096 2 0.24817754661536306 2 0.2532329606910152 2 0.25576066772884126 2 0.25828837476666733 2 
	0.26334378884231946 2 0.26839920291797159 2 0.27092690995579766 2 0.27345461699362372 2 0.28356544514492799 2 
	0.28862085922058012 2 0.29114856625840618 2 0.29367627329623225 2 0.30378710144753646 2 0.30884251552318864 2 
	0.31137022256101476 2 0.31389792959884083 2 0.32400875775014526 3 
	0.079999999999997851 1.3134502222064055e-014 -0.059000000000003258 
	0.079999999999997851 -0.001690947276120921 -0.059000000000003272 
	0.07994644895383618 -0.0033881300800620681 -0.058927452631487645 
	0.079783473390632187 -0.0059435599742770542 -0.058706090992342835 
	0.079715450456589343 -0.0067943157397789911 -0.058613638376180929 
	0.079553932986187625 -0.0084786504998061972 -0.058393782338255887 
	0.079460303571869395 -0.0093144941350487218 -0.058266195725882611 
	0.078929985807511316 -0.013462973521566121 -0.057542142727699461 
	0.078307575780150296 -0.016684001146911195 -0.056689339576265915 
	0.077307651913653908 -0.020595605733351178 -0.055294763262153809 
	0.077096037797274086 -0.021373717652868787 -0.054998604498966638 
	0.076655035325131071 -0.022905030225828828 -0.05437868970002982 
	0.076425381056762665 -0.023659479415325989 -0.054054567554838992 
	0.075710746220856051 -0.025890582268197151 -0.053040990835334201 
	0.075200126551446145 -0.027335056535635244 -0.052310422580575042 
	0.074118968723845435 -0.0301437028991705 -0.05074389423261845 
	0.07354840884206898 -0.031507861748920805 -0.049907924898461298 
	0.072354995919979681 -0.034159454922596595 -0.048131880900818449 
	0.071729815833144472 -0.035451028118449607 -0.047188186266890544 
	0.069812552262938921 -0.039165993450767787 -0.044238289165287756 
	0.068474766146626176 -0.041442164974153831 -0.042109384333945565 
	0.066434428027302483 -0.044587312453534818 -0.03867020674695669 
	0.065748719055070126 -0.045590526329951163 -0.037482522543421104 
	0.064376621751830954 -0.04750832264189235 -0.035019921002392776 
	0.063688688198378585 -0.048424583223769052 -0.033741683326925578 
	0.061673233423812091 -0.051001660152983345 -0.029826103972253881 
	0.060383208847944903 -0.052506496560955504 -0.027093007785987722 
	0.058617373142576312 -0.054449697784586637 -0.022775452227464257 
	0.058057250633739843 -0.055044705171398922 -0.021299648087433121 
	0.057013722665441691 -0.056124854978727545 -0.01826458950186069 
	0.056530265078216568 -0.056610048969949645 -0.016705380866293001 
	0.055664671362613771 -0.057461403361610819 -0.013489051782176048 
	0.055290297029045254 -0.057820070044500661 -0.011859078448092725 
	0.054678340821103011 -0.058399113782336733 -0.0085639798590742833 
	0.054440299548704885 -0.058619983013116654 -0.0068970270592139254 
	0.05419731611280848 -0.058844397201600653 -0.0043651764749565378 
	0.054135325989929706 -0.058901355987348046 -0.0035159863665559024 
	0.054051230826650698 -0.058978535954263812 -0.0018067080477227257 
	0.054029195024741516 -0.058998695649662959 -0.00094348243835438994 
	0.054025124509468669 -0.059002423130528517 0.001630660793313983 
	0.054104333545268668 -0.058930178709581185 0.0033303798590125777 
	0.054415649319688342 -0.058642834005848944 0.0066989112929583192 
	0.054647720688356716 -0.058427724202410269 0.0083677265042523749 
	0.055100283079239309 -0.058000016272091177 0.01084908120610608 
	0.055268529457835613 -0.057839911177805257 0.011672553689427677 
	0.055637954921374133 -0.057484638344997764 0.013312407334279665 
	0.055838452968514252 -0.057290107714939198 0.014125448684230477 
	0.056904379368161062 -0.056243399250491051 0.018128318209266824 
	0.057964394802359043 -0.055165353934299124 0.021164178579308607 
	0.059739035100212723 -0.053216722185507014 0.025524795047908565 
	0.06036186910412622 -0.052511354688034938 0.026945737125003075 
	0.061331016546200712 -0.051368821405961676 0.029032274582899278 
	0.061659626909058018 -0.050974152947726559 0.029719612032119716 
	0.062321211046492575 -0.050163138986719799 0.031068941003468058 
	0.062654836783650913 -0.049746032567807644 0.031732349440410194 
	0.064332740798677124 -0.047602938137535376 0.03499594828873185 
	0.065705225130312739 -0.045705839278475796 0.037437752183379497 
	0.067741703836449396 -0.042574777154173425 0.040875305606746813 
	0.068417049026405996 -0.041483216515516133 0.041983250105065852 
	0.069417618394139347 -0.039769733705085422 0.04358877053198483 
	0.069749070823095838 -0.039185861360551966 0.044114524772801644 
	0.070406646720447386 -0.03799169262925485 0.045147029998248794 
	0.070733126561979165 -0.037380654243429456 0.04565431590784258 
	0.072338915815374549 -0.034276775476573616 0.048126714263767988 
	0.073545970908683478 -0.031626678963745013 0.04991321526072847 
	0.074640806533691928 -0.028788018340963124 0.05149999999999931 
	0 
	null_surface 
	null_surface 
	nullbs 
	nullbs 
	I I 
	0 
	31 0.16729092140492857 0.16981862844275464 0.1723463354805807 0.18245716363188499 0.18498487066971106 0.18751257770753713 0.19256799178318934 0.19762340585884153 0.20267881993449374 0.21278964808579814 0.21784506216145028 0.22290047623710244 0.23301130438840673 0.23806671846405883 0.24312213253971096 0.24817754661536306 0.2532329606910152 0.25576066772884126 0.25828837476666733 0.26334378884231946 0.26839920291797159 0.27092690995579766 0.27345461699362372 0.28356544514492799 0.28862085922058012 0.29114856625840618 0.29367627329623225 0.30378710144753646 0.30884251552318864 0.31137022256101476 0.31389792959884083 
	0 
	F 1 F 0 } I I #
-197 coedge $-1 $224 $226 $168 $198 reversed $227 $-1 #
-198 edge $-1 $170 1.2026889625722466 $218 1.5707963267947982 $168 $228 forward 7 unknown #
-199 coedge $-1 $205 $173 $169 $200 reversed $202 $-1 #
-200 edge $-1 $229 2.4532694666933881e-017 $148 0.0028284271247435971 $169 $230 forward 7 unknown #
-201 point $-1 0.074640806533691928 -0.028788018340963124 0.05149999999999931 #
-202 loop $-1 $-1 $199 $183 #
-203 ellipse-curve $-1 1.1102230246251565e-016 1.3339114535160234e-014 0.05149999999999489 8.1878948066105246e-016 2.465190328815643e-032 1 -2.5313084961453567e-016 -0.080000000000000002 3.3341385208274409e-017 1 I I #
-204 point $-1 -9.9920072216264089e-016 0.078000000000011532 0.053499999999995558 #
-205 coedge $-1 $176 $199 $231 $232 reversed $202 $-1 #
-206 cone-surface $-1 0.1099999999999991 1.3127277043167852e-014 -3.2612801348363973e-015 -1 5.5466782398352393e-032 -2.4651903288156619e-032 2.6201263381153644e-017 4.4280289150277563e-031 0.058999999999999976 1 I I 0 1 1 forward I I I I #
-207 coedge $-1 $231 $231 $181 $208 forward $233 $-1 #
-208 edge $-1 $229 3.5299398731671627e-016 $175 3.1415926535897936 $207 $234 forward 7 unknown #
-209 face $-1 $235 $217 $4 $-1 $236 forward single #
-210 cone-surface $-1 -1.2212453270876722e-015 1.1563396073999145e-014 0.053499999999995558 -8.1878948066105246e-016 -2.465190328815643e-032 -1 2.4957813593573512e-016 0.077999999999999972 -3.2474023470285882e-017 1 I I 0.70710678118655024 0.7071067811865448 1 forward I I I I #
-211 coedge $-1 $237 $185 $238 $239 reversed $187 $-1 #
-212 coedge $-1 $190 $216 $185 $192 forward $217 $-1 #
-213 coedge $-1 $186 $237 $240 $241 forward $187 $-1 #
-214 edge $-1 $242 0.0019999999999988916 $188 0.030000000000001248 $186 $243 forward 7 unknown #
-215 point $-1 0.079999999999997851 1.3134502222064055e-014 -0.059000000000003258 #
-216 coedge $-1 $212 $190 $244 $245 forward $217 $-1 #
-217 loop $-1 $-1 $212 $209 #
-218 vertex $-1 $191 $246 #
-219 ellipse-curve $-1 1.1102230246251565e-016 1.3339114535160234e-014 0.05149999999999489 8.1878948066105246e-016 2.465190328815643e-032 1 -2.5313084961453567e-016 -0.080000000000000002 3.3341385208274409e-017 1 I I #
-220 vertex $-1 $192 $247 #
-221 straight-curve $-1 0.10999999999999821 0.028788018340977925 0.051499999999995723 -1 5.5466782398352393e-032 -2.4651903288156619e-032 I I #
-222 coedge $-1 $248 $194 $249 $250 forward $179 $-1 #
-223 coedge $-1 $195 $248 $251 $252 reversed $179 $-1 #
-224 coedge $-1 $226 $197 $195 $225 forward $227 $-1 #
-225 edge $-1 $170 -0.035359193466305838 $253 -0.029999999999998028 $224 $254 forward 7 unknown #
-226 coedge $-1 $197 $224 $255 $256 forward $227 $-1 #
-227 loop $-1 $-1 $226 $235 #
-228 ellipse-curve $-1 1.1102230246251565e-016 1.3339114535160234e-014 0.05149999999999489 8.1878948066105246e-016 2.465190328815643e-032 1 -2.5313084961453567e-016 -0.080000000000000002 3.3341385208274409e-017 1 I I #
-229 vertex $-1 $232 $257 #
-230 straight-curve $-1 -1.4432899320127035e-015 -0.077999999999988412 0.053499999999995593 -2.7690129135239287e-015 -0.70710678118655057 -0.70710678118654458 I I #
-231 coedge $-1 $207 $207 $205 $232 forward $233 $-1 #
-232 edge $-1 $175 -3.1415926535897927 $229 3.5299398731671627e-016 $231 $258 forward 7 unknown #
-233 loop $-1 $-1 $231 $259 #
-234 ellipse-curve $-1 -1.2212453270876722e-015 1.1563396073999145e-014 0.053499999999995558 8.1878948066105246e-016 2.465190328815643e-032 1 -2.4957813593573512e-016 -0.077999999999999972 3.2474023470285882e-017 1 I I #
-235 face $-1 $259 $227 $4 $-1 $260 forward single #
-236 plane-surface $-1 1.1102230246251565e-016 1.3339114535160234e-014 0.05149999999999489 8.1878948066105374e-016 4.1633363423443331e-016 1 -3.2196467714129536e-015 -1 4.1633363423443592e-016 forward_v I I I I #
-237 coedge $-1 $213 $211 $248 $261 reversed $187 $-1 #
-238 coedge $-1 $244 $251 $211 $239 forward $262 $-1 #
-239 edge $-1 $263 1.1729192848050093e-014 $220 0.036783938060698386 $238 $264 forward 7 unknown #
-240 coedge $-1 $265 $266 $213 $241 reversed $267 $-1 #
-241 edge $-1 $268 -3.1415926535897638 $242 -2.9349352427161673e-014 $213 $269 forward 7 unknown #
-242 vertex $-1 $241 $270 #
-243 straight-curve $-1 0.1099999999999991 1.3134502220655405e-014 -0.059000000000003244 -1 5.5466782398352393e-032 -2.4651903288156619e-032 I I #
-244 coedge $-1 $255 $238 $216 $245 reversed $262 $-1 #
-245 edge $-1 $218 0.080000000000003624 $220 0.10878801834097729 $216 $271 forward 7 unknown #
-246 point $-1 0.079999999999999738 5.2034002107070877e-015 0.051499999999999296 #
-247 point $-1 0.079999999999999738 0.028788018340978865 0.051499999999994849 #
-248 coedge $-1 $223 $222 $237 $261 forward $179 $-1 #
-249 coedge $-1 $272 $273 $222 $250 reversed $274 $-1 #
-250 edge $-1 $242 -2.9349352427161673e-014 $268 3.1415926535898224 $222 $275 forward 7 unknown #
-251 coedge $-1 $238 $255 $223 $252 forward $262 $-1 #
-252 edge $-1 $253 0.11039731247190013 $263 0.14716448819719105 $251 $276 forward 7 unknown #
-253 vertex $-1 $252 $277 #
-254 straight-curve $-1 0.10999999999999777 -0.028788018340956081 0.051499999999997513 1 -5.5466782398352393e-032 2.4651903288156619e-032 I I #
-255 coedge $-1 $251 $244 $226 $256 reversed $262 $-1 #
-256 edge $-1 $253 0.051211981659037065 $218 0.080000000000003624 $226 $278 forward 7 unknown #
-257 point $-1 -1.4432899320127035e-015 -0.077999999999988412 0.053499999999995558 #
-258 ellipse-curve $-1 -1.2212453270876722e-015 1.1563396073999145e-014 0.053499999999995558 8.1878948066105246e-016 2.465190328815643e-032 1 -2.4957813593573512e-016 -0.077999999999999972 3.2474023470285882e-017 1 I I #
-259 face $-1 $279 $233 $4 $-1 $280 forward single #
-260 plane-surface $-1 1.1102230246251565e-016 1.3339114535160234e-014 0.05149999999999489 8.1878948066105374e-016 4.1633363423443331e-016 1 -3.2196467714129536e-015 -1 4.1633363423443592e-016 forward_v I I I I #
-261 edge $-1 $268 0.0019999999999988916 $263 0.014387505004003542 $248 $281 forward 7 unknown #
-262 loop $-1 $-1 $251 $282 #
-263 vertex $-1 $252 $283 #
-264 intcurve-curve $-1 forward { exactcur full nubs 3 open 16 
	1.1729192848050093e-014 3 0.0045979922575977638 2 0.0091959845151837975 2 0.013793976772769837 2 0.016092972901562894 2 
	0.018391969030355958 2 0.020690965159149019 2 0.021840463223545485 2 0.022989961287941955 2 0.027587953545527667 2 
	0.028737451609924042 2 0.029886949674320425 2 0.032185945803113188 2 0.034484941931905939 2 0.03563443999630217 2 
	0.036783938060698386 3 
	0.095612494995995556 1.3127277043167854e-014 0.058999999999996736 
	0.095612494995996111 0.0015549357360315828 0.058999999999999879 
	0.09556393629083082 0.0030965133806915026 0.05893862903703833 
	0.09536684801270523 0.0061532734275130006 0.058698276073567646 
	0.095218390519500651 0.0076684598374215573 0.058519260178167616 
	0.094802496005749082 0.010670668233908005 0.058046928665694018 
	0.094535403421191266 0.012157724508589353 0.057753570670949134 
	0.094015051849596465 0.014363927697032973 0.057229790133567632 
	0.093820774239325333 0.01509704749079311 0.057040653634146517 
	0.09338963315392268 0.01653507768067064 0.056640517441529106 
	0.093152437604015592 0.017241931862686109 0.056429123062307379 
	0.092627251570983726 0.018629234904222535 0.055986442562658653 
	0.092339303177124799 0.019309696762812398 0.055755145319214529 
	0.091861494699023716 0.020308333980285431 0.055395818665355465 
	0.091694551411353076 0.020637528738693338 0.055273985594732081 
	0.091343600301795447 0.02128804067413291 0.055026724418445305 
	0.091159322321104796 0.021609710886865047 0.054901139083735617 
	0.090199850874681409 0.023181670968466628 0.054271953788267858 
	0.089308223238909856 0.02433659759968889 0.053758795493758525 
	0.08796351365539079 0.025612574274663874 0.053151443242441143 
	0.087681975212590024 0.025859726191216851 0.053031524096173642 
	0.087102156771790562 0.026327438181812327 0.052800890006046451 
	0.086802956774393869 0.026548977523612544 0.05268971974402286 
	0.085875387577780349 0.0271747372577382 0.052371297024073039 
	0.085216594456793082 0.027540879054747027 0.052178728864573282 
	0.083805639955047084 0.028151082846178309 0.051852061671822457 
	0.08307610556435352 0.028385364197236512 0.051723344579563763 
	0.081942899326158503 0.028624830222729141 0.051590962517642142 
	0.081557867403616369 0.028685972414398898 0.051556931491141052 
	0.080777069643299559 0.028767875549910286 0.051511275799447476 
	0.08038792606302303 0.028788018340982113 0.051499999999997055 
	0.079999999999999738 0.028788018340978865 0.051499999999994849 
	0 
	null_surface 
	null_surface 
	nullbs 
	nullbs 
	I I 
	0 
	14 0.0045979922575977638 0.0091959845151837975 0.013793976772769837 0.016092972901562894 0.018391969030355958 0.020690965159149019 0.021840463223545485 0.022989961287941955 0.027587953545527667 0.028737451609924042 0.029886949674320425 0.032185945803113188 0.034484941931905939 0.03563443999630217 
	0 
	F 1 F 0 } I I #
-265 coedge $-1 $284 $240 $273 $285 reversed $267 $-1 #
-266 coedge $-1 $240 $284 $272 $286 forward $267 $-1 #
-267 loop $-1 $-1 $284 $287 #
-268 vertex $-1 $241 $288 #
-269 ellipse-curve $-1 0.10800000000000021 1.1354472917446402e-014 -5.9674487573602164e-016 -1 5.5466782398352393e-032 -2.4651903288156619e-032 -2.6201263381153641e-017 -4.405880720667303e-031 -0.058999999999999969 1 I I #
-270 point $-1 0.10800000000000021 1.308608471064894e-014 -0.059000000000000594 #
-271 straight-curve $-1 0.080000000000000515 -0.07999999999999842 0.051499999999999324 3.2196467714129536e-015 1 -4.1633363423443592e-016 I I #
-272 coedge $-1 $289 $249 $266 $286 reversed $274 $-1 #
-273 coedge $-1 $249 $289 $265 $285 forward $274 $-1 #
-274 loop $-1 $-1 $272 $279 #
-275 ellipse-curve $-1 0.10800000000000021 1.1354472917446402e-014 -5.9674487573602164e-016 -1 5.5466782398352393e-032 -2.4651903288156619e-032 -2.6201263381153641e-017 -4.405880720667303e-031 -0.058999999999999969 1 I I #
-276 intcurve-curve $-1 forward { exactcur full nubs 3 open 16 
	0.11039731247190013 3 0.11154628671331547 2 0.11269526095473081 2 0.11384423519614617 2 0.11499320943756151 2 
	0.11729115792039191 2 0.11958910640322232 2 0.12188705488605271 2 0.12303602912746801 2 0.1241850033688833 2 
	0.12878090033454478 2 0.13107884881737561 2 0.13337679730020641 2 0.13797269426586795 2 0.14256859123152951 2 
	0.14716448819719105 3 
	0.079999999999999738 -0.028788018340961358 0.051499999999996639 
	0.080391219463166741 -0.028788018340955769 0.051499999999997104 
	0.080784371954971901 -0.028767208976575462 0.05151164767889873 
	0.081556268527351761 -0.028686039978648492 0.05155689351813527 
	0.081937680467677021 -0.028625720945974115 0.051590467577409239 
	0.082691754382119065 -0.02846679304030985 0.051678331421715483 
	0.083064415217156906 -0.028368179170915751 0.05173262388215355 
	0.083801112628215213 -0.028132851586006157 0.05186097400594495 
	0.08416173582287112 -0.027997080719982095 0.051934505377022232 
	0.085209938549650643 -0.027543756077868648 0.052177188612598589 
	0.085869565598642117 -0.027178762734746287 0.052369256381169793 
	0.087120245297257926 -0.026334829300289339 0.052798682970628799 
	0.087695058073027021 -0.02586689641031794 0.053030341649173515 
	0.088761412563068909 -0.024855867306060882 0.053511674668185287 
	0.089253285251146064 -0.02431225791267215 0.053761623687550483 
	0.08993880782440633 -0.023445825206116124 0.054142338303651498 
	0.090158850765266974 -0.023147932361293491 0.054270440546401552 
	0.09057766511172316 -0.022543372247707069 0.054524341879612352 
	0.090777156668994885 -0.02223586070569384 0.054650523276028304 
	0.09173033838750233 -0.020674081723383982 0.055275613751243707 
	0.092353634792756378 -0.019348112361259953 0.055756370293900362 
	0.093143810550396333 -0.017266615704372837 0.05642157878144248 
	0.093383277695696987 -0.016554594324741496 0.056634795153397532 
	0.093814440051770975 -0.015119807152118251 0.057034603943631031 
	0.094006763525938286 -0.014395936162505575 0.057221672259176237 
	0.094525289995989081 -0.01220663285371792 0.057742957413895103 
	0.094793741453271241 -0.010723630647417498 0.058037244071826116 
	0.095213165666151234 -0.0077160738213844842 0.058513076816195268 
	0.095363879618681757 -0.0061914847779228812 0.058694684254271295 
	0.095564051802574879 -0.0031024380608088509 0.058938742110285811 
	0.095612494995995778 -0.0015542271562595461 0.058999999999999268 
	0.095612494995995556 1.3127277043167854e-014 0.058999999999996736 
	0 
	null_surface 
	null_surface 
	nullbs 
	nullbs 
	I I 
	0 
	14 0.11154628671331547 0.11269526095473081 0.11384423519614617 0.11499320943756151 0.11729115792039191 0.11958910640322232 0.12188705488605271 0.12303602912746801 0.1241850033688833 0.12878090033454478 0.13107884881737561 0.13337679730020641 0.13797269426586795 0.14256859123152951 
	0 
	F 1 F 0 } I I #
-277 point $-1 0.079999999999999738 -0.028788018340961358 0.051499999999996639 #
-278 straight-curve $-1 0.080000000000000515 -0.07999999999999842 0.051499999999999324 3.2196467714129536e-015 1 -4.1633363423443592e-016 I I #
-279 face $-1 $282 $274 $4 $-1 $290 forward single #
-280 plane-surface $-1 -1.2212453270876722e-015 1.1563396073999145e-014 0.053499999999995558 8.1878948066105374e-016 4.1633363423443331e-016 1 -3.2196467714129536e-015 -1 4.1633363423443592e-016 forward_v I I I I #
-281 straight-curve $-1 0.1099999999999991 1.3127277043167852e-014 0.058999999999996715 -1 5.5466782398352393e-032 -2.4651903288156619e-032 I I #
-282 face $-1 $287 $262 $4 $-1 $291 reversed single #
-283 point $-1 0.095612494995995556 1.3127277043167854e-014 0.058999999999996736 #
-284 coedge $-1 $266 $265 $292 $293 reversed $267 $-1 #
-285 edge $-1 $294 1.9626155733547362e-017 $268 0.0028284271247473311 $273 $295 forward 7 unknown #
-286 edge $-1 $296 1.9626155733547347e-017 $242 0.0028284271247435628 $266 $297 forward 7 unknown #
-287 face $-1 $298 $267 $4 $-1 $299 forward single #
-288 point $-1 0.10800000000000021 1.3078859533161505e-014 0.0589999999999994 #
-289 coedge $-1 $273 $272 $300 $301 reversed $274 $-1 #
-290 cone-surface $-1 0.1099999999999991 1.3127277043167852e-014 -3.2612801348363973e-015 -1 5.5466782398352393e-032 -2.4651903288156619e-032 2.5313084961453505e-017 -4.665625475588841e-031 0.05699999999999994 1 I I 0.70710678118655368 0.70710678118654147 1 forward I I I I #
-291 cone-surface $-1 0.079999999999999627 -0.079999999999996643 0.071499999999997121 3.2196467714129536e-015 1 -4.1633363423443592e-016 8.8817841970012525e-018 6.3837823915946673e-018 0.020000000000000004 1 I I 0 1 1 forward I I I I #
-292 coedge $-1 $300 $300 $284 $293 forward $302 $-1 #
-293 edge $-1 $296 9.9044721620175103e-017 $294 3.1415926535897931 $292 $303 forward 7 unknown #
-294 vertex $-1 $293 $304 #
-295 straight-curve $-1 0.1099999999999991 1.3127277043167852e-014 0.056999999999996678 -0.70710678118654136 9.4755753263852004e-032 0.70710678118655379 I I #
-296 vertex $-1 $293 $305 #
-297 straight-curve $-1 0.1099999999999991 1.3134257299384638e-014 -0.057000000000003201 -0.70710678118654191 8.6592745707194257e-017 -0.70710678118655323 I I #
-298 face $-1 $-1 $302 $4 $-1 $306 forward single #
-299 cone-surface $-1 0.1099999999999991 1.3127277043167852e-014 -3.2612801348363973e-015 -1 5.5466782398352393e-032 -2.4651903288156619e-032 2.5313084961453505e-017 -4.665625475588841e-031 0.05699999999999994 1 I I 0.70710678118655368 0.70710678118654147 1 forward I I I I #
-300 coedge $-1 $292 $292 $289 $301 forward $302 $-1 #
-301 edge $-1 $294 -3.1415926535897931 $296 9.9044721620175103e-017 $300 $307 forward 7 unknown #
-302 loop $-1 $-1 $300 $298 #
-303 ellipse-curve $-1 0.1099999999999991 1.3127277043167852e-014 -3.2612801348363973e-015 1 -5.5466782398352393e-032 2.4651903288156619e-032 -2.5313084961453505e-017 4.665625475588841e-031 -0.05699999999999994 1 I I #
-304 point $-1 0.1099999999999991 1.3125181497208876e-014 0.056999999999996706 #
-305 point $-1 0.1099999999999991 1.3132922592300202e-014 -0.057000000000003229 #
-306 plane-surface $-1 0.1099999999999991 1.3127277043167852e-014 -3.2612801348363973e-015 1 7.7614976758805605e-032 -8.1878948066105246e-016 -8.1878948066105216e-016 -1.6948183510607749e-032 -0.99999999999999967 forward_v I I I I #
-307 ellipse-curve $-1 0.1099999999999991 1.3127277043167852e-014 -3.2612801348363973e-015 1 -5.5466782398352393e-032 2.4651903288156619e-032 -2.5313084961453505e-017 4.665625475588841e-031 -0.05699999999999994 1 I I #
End-of-ACIS-data 