solid ascii
 facet normal 0 1 0
  outer loop 
   vertex 0.091664 0.01 0.0183328
   vertex 0.1 0.01 0.0099968
   vertex 0.1 0.01 0
  endloop 
 endfacet
 facet normal 0 1 0
  outer loop 
   vertex 0.091664 0.01 0.0183328
   vertex 0.1 0.01 0
   vertex 0 0.01 0
  endloop 
 endfacet
 facet normal 0 1 0
  outer loop 
   vertex 0.091664 0.01 0.0183328
   vertex 0 0.01 0
   vertex 0 0.01 0.02
  endloop 
 endfacet
 facet normal 0 1 0
  outer loop 
   vertex 0.091664 0.01 0.0183328
   vertex 0 0.01 0.02
   vertex 0.0899968 0.01 0.02
  endloop 
 endfacet
 facet normal 1 0 0
  outer loop 
   vertex 0.1 -3.20485e-06 0.0099968
   vertex 0.1 -0.01 0.0099968
   vertex 0.1 -0.01 0
  endloop 
 endfacet
 facet normal 1 0 0
  outer loop 
   vertex 0.1 -3.20485e-06 0.0099968
   vertex 0.1 -0.01 0
   vertex 0.1 0.01 0
  endloop 
 endfacet
 facet normal 1 -0 0
  outer loop 
   vertex 0.1 -3.20485e-06 0.0099968
   vertex 0.1 0.01 0
   vertex 0.1 0.01 0.0099968
  endloop 
 endfacet
 facet normal 0 0 -1
  outer loop 
   vertex 0 0.01 0
   vertex 0.1 0.01 0
   vertex 0.1 -0.01 0
  endloop 
 endfacet
 facet normal 0 0 -1
  outer loop 
   vertex 0.1 -0.01 0
   vertex 0 -0.01 0
   vertex 0 0.01 0
  endloop 
 endfacet
 facet normal 0 -1 0
  outer loop 
   vertex 0.091664 -0.01 0.0183328
   vertex 0.0899968 -0.01 0.02
   vertex 0 -0.01 0.02
  endloop 
 endfacet
 facet normal -0 -1 0
  outer loop 
   vertex 0.091664 -0.01 0.0183328
   vertex 0 -0.01 0.02
   vertex 0 -0.01 0
  endloop 
 endfacet
 facet normal 0 -1 -0
  outer loop 
   vertex 0.091664 -0.01 0.0183328
   vertex 0 -0.01 0
   vertex 0.1 -0.01 0
  endloop 
 endfacet
 facet normal 0 -1 0
  outer loop 
   vertex 0.091664 -0.01 0.0183328
   vertex 0.1 -0.01 0
   vertex 0.1 -0.01 0.0099968
  endloop 
 endfacet
 facet normal 0 -0 1
  outer loop 
   vertex 0.0899968 0.00799936 0.02
   vertex 0.0899968 0.01 0.02
   vertex 0 0.01 0.02
  endloop 
 endfacet
 facet normal 0 0 1
  outer loop 
   vertex 0.0899968 0.00799936 0.02
   vertex 0 0.01 0.02
   vertex 0 -0.01 0.02
  endloop 
 endfacet
 facet normal 0 0 1
  outer loop 
   vertex 0.0899968 0.00799936 0.02
   vertex 0 -0.01 0.02
   vertex 0.0899968 -0.01 0.02
  endloop 
 endfacet
 facet normal -1 0 -0
  outer loop 
   vertex 0 0.01 0.02
   vertex 0 0.01 0
   vertex 0 -0.01 0
  endloop 
 endfacet
 facet normal -1 0 0
  outer loop 
   vertex 0 -0.01 0
   vertex 0 -0.01 0.02
   vertex 0 0.01 0.02
  endloop 
 endfacet
 facet normal 0.707107 0 0.707107
  outer loop 
   vertex 0.1 0.01 0.00999679
   vertex 0.0929274 0.01 0.0170694
   vertex 0.1 -2.16387e-06 0.00999679
  endloop 
 endfacet
 facet normal 0.707107 0 0.707107
  outer loop 
   vertex 0.0899968 -0.01 0.02
   vertex 0.1 -0.01 0.00999679
   vertex 0.1 -2.16387e-06 0.00999679
  endloop 
 endfacet
 facet normal 0.707107 -5.45503e-08 0.707107
  outer loop 
   vertex 0.0899968 -0.01 0.02
   vertex 0.1 -2.16387e-06 0.00999679
   vertex 0.0929274 0.01 0.0170694
  endloop 
 endfacet
 facet normal 0.707107 -0 0.707107
  outer loop 
   vertex 0.0899968 -0.01 0.02
   vertex 0.0929274 0.01 0.0170694
   vertex 0.0899968 0.01 0.02
  endloop 
 endfacet
endsolid
