solid ascii
  facet normal 0.000000 -0.000000 1.000000
    outer loop
      vertex 0.480000 -0.071000 0.102000
      vertex 0.026917 -0.100456 0.102000
      vertex -0.000000 -0.104000 0.102000
    endloop
  endfacet
  facet normal 0.000000 -0.000000 1.000000
    outer loop
      vertex 0.026917 -0.100456 0.102000
      vertex 0.480000 -0.071000 0.102000
      vertex 0.052000 -0.090067 0.102000
    endloop
  endfacet
  facet normal 0.000000 -0.000000 1.000000
    outer loop
      vertex 0.052000 -0.090067 0.102000
      vertex 0.480000 -0.071000 0.102000
      vertex 0.073539 -0.073539 0.102000
    endloop
  endfacet
  facet normal 0.000000 -0.000000 1.000000
    outer loop
      vertex 0.073539 -0.073539 0.102000
      vertex 0.480000 -0.071000 0.102000
      vertex 0.090067 -0.052000 0.102000
    endloop
  endfacet
  facet normal 0.000000 -0.000000 1.000000
    outer loop
      vertex 0.090067 -0.052000 0.102000
      vertex 0.480000 -0.071000 0.102000
      vertex 0.100456 -0.026917 0.102000
    endloop
  endfacet
  facet normal 0.000000 -0.000000 1.000000
    outer loop
      vertex 0.100456 -0.026917 0.102000
      vertex 0.480000 -0.071000 0.102000
      vertex 0.461624 -0.068581 0.102000
    endloop
  endfacet
  facet normal 0.000000 -0.000000 1.000000
    outer loop
      vertex 0.100456 -0.026917 0.102000
      vertex 0.461624 -0.068581 0.102000
      vertex 0.104000 -0.000000 0.102000
    endloop
  endfacet
  facet normal 0.000000 -0.000000 1.000000
    outer loop
      vertex 0.104000 -0.000000 0.102000
      vertex 0.461624 -0.068581 0.102000
      vertex 0.444500 -0.061488 0.102000
    endloop
  endfacet
  facet normal 0.000000 -0.000000 1.000000
    outer loop
      vertex 0.104000 -0.000000 0.102000
      vertex 0.444500 -0.061488 0.102000
      vertex 0.429795 -0.050205 0.102000
    endloop
  endfacet
  facet normal 0.000000 -0.000000 1.000000
    outer loop
      vertex 0.104000 -0.000000 0.102000
      vertex 0.429795 -0.050205 0.102000
      vertex 0.418512 -0.035500 0.102000
    endloop
  endfacet
  facet normal 0.000000 -0.000000 1.000000
    outer loop
      vertex 0.104000 -0.000000 0.102000
      vertex 0.418512 -0.035500 0.102000
      vertex 0.411419 -0.018376 0.102000
    endloop
  endfacet
  facet normal 0.000000 -0.000000 1.000000
    outer loop
      vertex 0.104000 -0.000000 0.102000
      vertex 0.411419 -0.018376 0.102000
      vertex 0.409000 0.000000 0.102000
    endloop
  endfacet
  facet normal 0.000000 -0.000000 1.000000
    outer loop
      vertex 0.026917 0.100456 0.102000
      vertex 0.480000 0.071000 0.102000
      vertex 0.000000 0.104000 0.102000
    endloop
  endfacet
  facet normal 0.000000 -0.000000 1.000000
    outer loop
      vertex 0.480000 0.071000 0.102000
      vertex 0.026917 0.100456 0.102000
      vertex 0.052000 0.090067 0.102000
    endloop
  endfacet
  facet normal 0.000000 -0.000000 1.000000
    outer loop
      vertex 0.480000 0.071000 0.102000
      vertex 0.052000 0.090067 0.102000
      vertex 0.073539 0.073539 0.102000
    endloop
  endfacet
  facet normal 0.000000 -0.000000 1.000000
    outer loop
      vertex 0.480000 0.071000 0.102000
      vertex 0.073539 0.073539 0.102000
      vertex 0.090067 0.052000 0.102000
    endloop
  endfacet
  facet normal 0.000000 -0.000000 1.000000
    outer loop
      vertex 0.480000 0.071000 0.102000
      vertex 0.090067 0.052000 0.102000
      vertex 0.100456 0.026917 0.102000
    endloop
  endfacet
  facet normal 0.000000 -0.000000 1.000000
    outer loop
      vertex 0.480000 0.071000 0.102000
      vertex 0.100456 0.026917 0.102000
      vertex 0.461624 0.068581 0.102000
    endloop
  endfacet
  facet normal 0.000000 -0.000000 1.000000
    outer loop
      vertex 0.461624 0.068581 0.102000
      vertex 0.100456 0.026917 0.102000
      vertex 0.104000 -0.000000 0.102000
    endloop
  endfacet
  facet normal 0.000000 -0.000000 1.000000
    outer loop
      vertex 0.461624 0.068581 0.102000
      vertex 0.104000 -0.000000 0.102000
      vertex 0.444500 0.061488 0.102000
    endloop
  endfacet
  facet normal 0.000000 -0.000000 1.000000
    outer loop
      vertex 0.444500 0.061488 0.102000
      vertex 0.104000 -0.000000 0.102000
      vertex 0.429795 0.050205 0.102000
    endloop
  endfacet
  facet normal 0.000000 -0.000000 1.000000
    outer loop
      vertex 0.429795 0.050205 0.102000
      vertex 0.104000 -0.000000 0.102000
      vertex 0.418512 0.035500 0.102000
    endloop
  endfacet
  facet normal 0.000000 -0.000000 1.000000
    outer loop
      vertex 0.418512 0.035500 0.102000
      vertex 0.104000 -0.000000 0.102000
      vertex 0.411419 0.018376 0.102000
    endloop
  endfacet
  facet normal 0.000000 -0.000000 1.000000
    outer loop
      vertex 0.411419 0.018376 0.102000
      vertex 0.104000 -0.000000 0.102000
      vertex 0.409000 0.000000 0.102000
    endloop
  endfacet
  facet normal 0.000000 -0.000000 -1.000000
    outer loop
      vertex 0.480000 0.071000 0.002000
      vertex 0.026917 0.100456 0.002000
      vertex 0.000000 0.104000 0.002000
    endloop
  endfacet
  facet normal 0.000000 -0.000000 -1.000000
    outer loop
      vertex 0.026917 0.100456 0.002000
      vertex 0.480000 0.071000 0.002000
      vertex 0.052000 0.090067 0.002000
    endloop
  endfacet
  facet normal 0.000000 -0.000000 -1.000000
    outer loop
      vertex 0.052000 0.090067 0.002000
      vertex 0.480000 0.071000 0.002000
      vertex 0.073539 0.073539 0.002000
    endloop
  endfacet
  facet normal 0.000000 -0.000000 -1.000000
    outer loop
      vertex 0.073539 0.073539 0.002000
      vertex 0.480000 0.071000 0.002000
      vertex 0.090067 0.052000 0.002000
    endloop
  endfacet
  facet normal 0.000000 -0.000000 -1.000000
    outer loop
      vertex 0.090067 0.052000 0.002000
      vertex 0.480000 0.071000 0.002000
      vertex 0.100456 0.026917 0.002000
    endloop
  endfacet
  facet normal 0.000000 -0.000000 -1.000000
    outer loop
      vertex 0.100456 0.026917 0.002000
      vertex 0.480000 0.071000 0.002000
      vertex 0.461624 0.068581 0.002000
    endloop
  endfacet
  facet normal 0.000000 -0.000000 -1.000000
    outer loop
      vertex 0.100456 0.026917 0.002000
      vertex 0.461624 0.068581 0.002000
      vertex 0.104000 -0.000000 0.002000
    endloop
  endfacet
  facet normal 0.000000 -0.000000 -1.000000
    outer loop
      vertex 0.104000 -0.000000 0.002000
      vertex 0.461624 0.068581 0.002000
      vertex 0.444500 0.061488 0.002000
    endloop
  endfacet
  facet normal 0.000000 -0.000000 -1.000000
    outer loop
      vertex 0.104000 -0.000000 0.002000
      vertex 0.444500 0.061488 0.002000
      vertex 0.429795 0.050205 0.002000
    endloop
  endfacet
  facet normal 0.000000 -0.000000 -1.000000
    outer loop
      vertex 0.104000 -0.000000 0.002000
      vertex 0.429795 0.050205 0.002000
      vertex 0.418512 0.035500 0.002000
    endloop
  endfacet
  facet normal 0.000000 -0.000000 -1.000000
    outer loop
      vertex 0.104000 -0.000000 0.002000
      vertex 0.418512 0.035500 0.002000
      vertex 0.411419 0.018376 0.002000
    endloop
  endfacet
  facet normal 0.000000 -0.000000 -1.000000
    outer loop
      vertex 0.104000 -0.000000 0.002000
      vertex 0.411419 0.018376 0.002000
      vertex 0.409000 0.000000 0.002000
    endloop
  endfacet
  facet normal 0.000000 -0.000000 -1.000000
    outer loop
      vertex 0.026917 -0.100456 0.002000
      vertex 0.480000 -0.071000 0.002000
      vertex -0.000000 -0.104000 0.002000
    endloop
  endfacet
  facet normal 0.000000 -0.000000 -1.000000
    outer loop
      vertex 0.480000 -0.071000 0.002000
      vertex 0.026917 -0.100456 0.002000
      vertex 0.052000 -0.090067 0.002000
    endloop
  endfacet
  facet normal 0.000000 -0.000000 -1.000000
    outer loop
      vertex 0.480000 -0.071000 0.002000
      vertex 0.052000 -0.090067 0.002000
      vertex 0.073539 -0.073539 0.002000
    endloop
  endfacet
  facet normal 0.000000 -0.000000 -1.000000
    outer loop
      vertex 0.480000 -0.071000 0.002000
      vertex 0.073539 -0.073539 0.002000
      vertex 0.090067 -0.052000 0.002000
    endloop
  endfacet
  facet normal 0.000000 -0.000000 -1.000000
    outer loop
      vertex 0.480000 -0.071000 0.002000
      vertex 0.090067 -0.052000 0.002000
      vertex 0.100456 -0.026917 0.002000
    endloop
  endfacet
  facet normal 0.000000 -0.000000 -1.000000
    outer loop
      vertex 0.480000 -0.071000 0.002000
      vertex 0.100456 -0.026917 0.002000
      vertex 0.461624 -0.068581 0.002000
    endloop
  endfacet
  facet normal 0.000000 -0.000000 -1.000000
    outer loop
      vertex 0.461624 -0.068581 0.002000
      vertex 0.100456 -0.026917 0.002000
      vertex 0.104000 -0.000000 0.002000
    endloop
  endfacet
  facet normal 0.000000 -0.000000 -1.000000
    outer loop
      vertex 0.461624 -0.068581 0.002000
      vertex 0.104000 -0.000000 0.002000
      vertex 0.444500 -0.061488 0.002000
    endloop
  endfacet
  facet normal 0.000000 -0.000000 -1.000000
    outer loop
      vertex 0.444500 -0.061488 0.002000
      vertex 0.104000 -0.000000 0.002000
      vertex 0.429795 -0.050205 0.002000
    endloop
  endfacet
  facet normal 0.000000 -0.000000 -1.000000
    outer loop
      vertex 0.429795 -0.050205 0.002000
      vertex 0.104000 -0.000000 0.002000
      vertex 0.418512 -0.035500 0.002000
    endloop
  endfacet
  facet normal 0.000000 -0.000000 -1.000000
    outer loop
      vertex 0.418512 -0.035500 0.002000
      vertex 0.104000 -0.000000 0.002000
      vertex 0.411419 -0.018376 0.002000
    endloop
  endfacet
  facet normal 0.000000 -0.000000 -1.000000
    outer loop
      vertex 0.411419 -0.018376 0.002000
      vertex 0.104000 -0.000000 0.002000
      vertex 0.409000 0.000000 0.002000
    endloop
  endfacet
  facet normal 0.642958 -0.765901 0.000000
    outer loop
      vertex 0.530205 -0.050205 0.102000
      vertex 0.515500 -0.061488 0.002000
      vertex 0.530205 -0.050205 0.002000
    endloop
  endfacet
  facet normal 0.573394 -0.819280 0.000000
    outer loop
      vertex 0.515500 -0.061488 0.002000
      vertex 0.530205 -0.050205 0.102000
      vertex 0.515500 -0.061488 0.102000
    endloop
  endfacet
  facet normal 0.422820 -0.906214 0.000000
    outer loop
      vertex 0.515500 -0.061488 0.102000
      vertex 0.498376 -0.068581 0.002000
      vertex 0.515500 -0.061488 0.002000
    endloop
  endfacet
  facet normal 0.341811 -0.939769 0.000000
    outer loop
      vertex 0.498376 -0.068581 0.002000
      vertex 0.515500 -0.061488 0.102000
      vertex 0.498376 -0.068581 0.102000
    endloop
  endfacet
  facet normal 0.216467 -0.976290 0.000000
    outer loop
      vertex 0.498376 -0.068581 0.102000
      vertex 0.480000 -0.071000 0.002000
      vertex 0.498376 -0.068581 0.002000
    endloop
  endfacet
  facet normal 0.173621 -0.984813 0.000000
    outer loop
      vertex 0.480000 -0.071000 0.002000
      vertex 0.498376 -0.068581 0.102000
      vertex 0.480000 -0.071000 0.102000
    endloop
  endfacet
  facet normal -0.173621 -0.984813 0.000000
    outer loop
      vertex 0.480000 -0.071000 0.102000
      vertex 0.461624 -0.068581 0.002000
      vertex 0.480000 -0.071000 0.002000
    endloop
  endfacet
  facet normal -0.216467 -0.976290 0.000000
    outer loop
      vertex 0.461624 -0.068581 0.002000
      vertex 0.480000 -0.071000 0.102000
      vertex 0.461624 -0.068581 0.102000
    endloop
  endfacet
  facet normal -0.341811 -0.939769 0.000000
    outer loop
      vertex 0.461624 -0.068581 0.102000
      vertex 0.444500 -0.061488 0.002000
      vertex 0.461624 -0.068581 0.002000
    endloop
  endfacet
  facet normal -0.422820 -0.906214 0.000000
    outer loop
      vertex 0.444500 -0.061488 0.002000
      vertex 0.461624 -0.068581 0.102000
      vertex 0.444500 -0.061488 0.102000
    endloop
  endfacet
  facet normal -0.573394 -0.819280 0.000000
    outer loop
      vertex 0.444500 -0.061488 0.102000
      vertex 0.429795 -0.050205 0.002000
      vertex 0.444500 -0.061488 0.002000
    endloop
  endfacet
  facet normal -0.642958 -0.765901 0.000000
    outer loop
      vertex 0.429795 -0.050205 0.002000
      vertex 0.444500 -0.061488 0.102000
      vertex 0.429795 -0.050205 0.102000
    endloop
  endfacet
  facet normal 0.642958 -0.765901 0.000000
    outer loop
      vertex 0.073539 -0.073539 0.102000
      vertex 0.052000 -0.090067 0.002000
      vertex 0.073539 -0.073539 0.002000
    endloop
  endfacet
  facet normal 0.573394 -0.819280 0.000000
    outer loop
      vertex 0.052000 -0.090067 0.002000
      vertex 0.073539 -0.073539 0.102000
      vertex 0.052000 -0.090067 0.102000
    endloop
  endfacet
  facet normal -0.216467 0.976290 0.000000
    outer loop
      vertex -0.026917 0.100456 0.102000
      vertex 0.000000 0.104000 0.002000
      vertex -0.026917 0.100456 0.002000
    endloop
  endfacet
  facet normal -0.173621 0.984813 0.000000
    outer loop
      vertex 0.000000 0.104000 0.002000
      vertex -0.026917 0.100456 0.102000
      vertex 0.000000 0.104000 0.102000
    endloop
  endfacet
  facet normal 0.173621 0.984813 0.000000
    outer loop
      vertex 0.000000 0.104000 0.102000
      vertex 0.026917 0.100456 0.002000
      vertex 0.000000 0.104000 0.002000
    endloop
  endfacet
  facet normal 0.216467 0.976290 0.000000
    outer loop
      vertex 0.026917 0.100456 0.002000
      vertex 0.000000 0.104000 0.102000
      vertex 0.026917 0.100456 0.102000
    endloop
  endfacet
  facet normal 0.341811 0.939769 0.000000
    outer loop
      vertex 0.026917 0.100456 0.102000
      vertex 0.052000 0.090067 0.002000
      vertex 0.026917 0.100456 0.002000
    endloop
  endfacet
  facet normal 0.422820 0.906214 0.000000
    outer loop
      vertex 0.052000 0.090067 0.002000
      vertex 0.026917 0.100456 0.102000
      vertex 0.052000 0.090067 0.102000
    endloop
  endfacet
  facet normal 0.422820 -0.906214 0.000000
    outer loop
      vertex 0.052000 -0.090067 0.102000
      vertex 0.026917 -0.100456 0.002000
      vertex 0.052000 -0.090067 0.002000
    endloop
  endfacet
  facet normal 0.341811 -0.939769 0.000000
    outer loop
      vertex 0.026917 -0.100456 0.002000
      vertex 0.052000 -0.090067 0.102000
      vertex 0.026917 -0.100456 0.102000
    endloop
  endfacet
  facet normal 0.216467 -0.976290 0.000000
    outer loop
      vertex 0.026917 -0.100456 0.102000
      vertex -0.000000 -0.104000 0.002000
      vertex 0.026917 -0.100456 0.002000
    endloop
  endfacet
  facet normal 0.173621 -0.984813 0.000000
    outer loop
      vertex -0.000000 -0.104000 0.002000
      vertex 0.026917 -0.100456 0.102000
      vertex -0.000000 -0.104000 0.102000
    endloop
  endfacet
  facet normal 0.000000 0.000000 1.000000
    outer loop
      vertex 0.411419 -0.018376 0.102000
      vertex 0.411419 0.018376 0.102000
      vertex 0.409000 0.000000 0.102000
    endloop
  endfacet
  facet normal 0.000000 0.000000 1.000000
    outer loop
      vertex 0.411419 0.018376 0.102000
      vertex 0.411419 -0.018376 0.102000
      vertex 0.418512 -0.035500 0.102000
    endloop
  endfacet
  facet normal 0.000000 0.000000 1.000000
    outer loop
      vertex 0.411419 0.018376 0.102000
      vertex 0.418512 -0.035500 0.102000
      vertex 0.418512 0.035500 0.102000
    endloop
  endfacet
  facet normal 0.000000 0.000000 1.000000
    outer loop
      vertex 0.418512 0.035500 0.102000
      vertex 0.418512 -0.035500 0.102000
      vertex 0.429795 -0.050205 0.102000
    endloop
  endfacet
  facet normal 0.000000 0.000000 1.000000
    outer loop
      vertex 0.418512 0.035500 0.102000
      vertex 0.429795 -0.050205 0.102000
      vertex 0.429795 0.050205 0.102000
    endloop
  endfacet
  facet normal 0.000000 0.000000 1.000000
    outer loop
      vertex 0.429795 0.050205 0.102000
      vertex 0.429795 -0.050205 0.102000
      vertex 0.444500 -0.061488 0.102000
    endloop
  endfacet
  facet normal 0.000000 0.000000 1.000000
    outer loop
      vertex 0.429795 0.050205 0.102000
      vertex 0.444500 -0.061488 0.102000
      vertex 0.444500 0.061488 0.102000
    endloop
  endfacet
  facet normal 0.000000 0.000000 1.000000
    outer loop
      vertex 0.444500 0.061488 0.102000
      vertex 0.444500 -0.061488 0.102000
      vertex 0.461624 -0.068581 0.102000
    endloop
  endfacet
  facet normal 0.000000 0.000000 1.000000
    outer loop
      vertex 0.444500 0.061488 0.102000
      vertex 0.461624 -0.068581 0.102000
      vertex 0.461624 0.068581 0.102000
    endloop
  endfacet
  facet normal 0.000000 0.000000 1.000000
    outer loop
      vertex 0.461624 0.068581 0.102000
      vertex 0.461624 -0.068581 0.102000
      vertex 0.480000 -0.071000 0.102000
    endloop
  endfacet
  facet normal 0.000000 0.000000 1.000000
    outer loop
      vertex 0.461624 0.068581 0.102000
      vertex 0.480000 -0.071000 0.102000
      vertex 0.480000 0.071000 0.102000
    endloop
  endfacet
  facet normal 0.000000 0.000000 1.000000
    outer loop
      vertex 0.480000 0.071000 0.102000
      vertex 0.480000 -0.071000 0.102000
      vertex 0.498376 -0.068581 0.102000
    endloop
  endfacet
  facet normal 0.000000 0.000000 1.000000
    outer loop
      vertex 0.480000 0.071000 0.102000
      vertex 0.498376 -0.068581 0.102000
      vertex 0.498376 0.068581 0.102000
    endloop
  endfacet
  facet normal 0.000000 0.000000 1.000000
    outer loop
      vertex 0.498376 0.068581 0.102000
      vertex 0.498376 -0.068581 0.102000
      vertex 0.515500 -0.061488 0.102000
    endloop
  endfacet
  facet normal 0.000000 0.000000 1.000000
    outer loop
      vertex 0.498376 0.068581 0.102000
      vertex 0.515500 -0.061488 0.102000
      vertex 0.515500 0.061488 0.102000
    endloop
  endfacet
  facet normal 0.000000 0.000000 1.000000
    outer loop
      vertex 0.515500 0.061488 0.102000
      vertex 0.515500 -0.061488 0.102000
      vertex 0.530205 -0.050205 0.102000
    endloop
  endfacet
  facet normal 0.000000 0.000000 1.000000
    outer loop
      vertex 0.515500 0.061488 0.102000
      vertex 0.530205 -0.050205 0.102000
      vertex 0.530205 0.050205 0.102000
    endloop
  endfacet
  facet normal 0.000000 0.000000 1.000000
    outer loop
      vertex 0.530205 0.050205 0.102000
      vertex 0.530205 -0.050205 0.102000
      vertex 0.541488 -0.035500 0.102000
    endloop
  endfacet
  facet normal 0.000000 0.000000 1.000000
    outer loop
      vertex 0.530205 0.050205 0.102000
      vertex 0.541488 -0.035500 0.102000
      vertex 0.541488 0.035500 0.102000
    endloop
  endfacet
  facet normal 0.000000 0.000000 1.000000
    outer loop
      vertex 0.541488 0.035500 0.102000
      vertex 0.541488 -0.035500 0.102000
      vertex 0.548581 -0.018376 0.102000
    endloop
  endfacet
  facet normal 0.000000 0.000000 1.000000
    outer loop
      vertex 0.541488 0.035500 0.102000
      vertex 0.548581 -0.018376 0.102000
      vertex 0.548581 0.018376 0.102000
    endloop
  endfacet
  facet normal 0.000000 0.000000 1.000000
    outer loop
      vertex 0.548581 0.018376 0.102000
      vertex 0.548581 -0.018376 0.102000
      vertex 0.551000 -0.000000 0.102000
    endloop
  endfacet
  facet normal -0.642958 0.765901 0.000000
    outer loop
      vertex -0.073539 0.073539 0.102000
      vertex -0.052000 0.090067 0.002000
      vertex -0.073539 0.073539 0.002000
    endloop
  endfacet
  facet normal -0.573394 0.819280 0.000000
    outer loop
      vertex -0.052000 0.090067 0.002000
      vertex -0.073539 0.073539 0.102000
      vertex -0.052000 0.090067 0.102000
    endloop
  endfacet
  facet normal 0.000000 0.000000 1.000000
    outer loop
      vertex -0.100456 -0.026917 0.102000
      vertex -0.100456 0.026917 0.102000
      vertex -0.104000 0.000000 0.102000
    endloop
  endfacet
  facet normal 0.000000 0.000000 1.000000
    outer loop
      vertex -0.100456 0.026917 0.102000
      vertex -0.100456 -0.026917 0.102000
      vertex -0.090067 -0.052000 0.102000
    endloop
  endfacet
  facet normal 0.000000 0.000000 1.000000
    outer loop
      vertex -0.100456 0.026917 0.102000
      vertex -0.090067 -0.052000 0.102000
      vertex -0.090067 0.052000 0.102000
    endloop
  endfacet
  facet normal 0.000000 0.000000 1.000000
    outer loop
      vertex -0.090067 0.052000 0.102000
      vertex -0.090067 -0.052000 0.102000
      vertex -0.073539 -0.073539 0.102000
    endloop
  endfacet
  facet normal 0.000000 0.000000 1.000000
    outer loop
      vertex -0.090067 0.052000 0.102000
      vertex -0.073539 -0.073539 0.102000
      vertex -0.073539 0.073539 0.102000
    endloop
  endfacet
  facet normal 0.000000 0.000000 1.000000
    outer loop
      vertex -0.073539 0.073539 0.102000
      vertex -0.073539 -0.073539 0.102000
      vertex -0.052000 -0.090067 0.102000
    endloop
  endfacet
  facet normal 0.000000 0.000000 1.000000
    outer loop
      vertex -0.073539 0.073539 0.102000
      vertex -0.052000 -0.090067 0.102000
      vertex -0.052000 0.090067 0.102000
    endloop
  endfacet
  facet normal 0.000000 0.000000 1.000000
    outer loop
      vertex -0.052000 0.090067 0.102000
      vertex -0.052000 -0.090067 0.102000
      vertex -0.026917 -0.100456 0.102000
    endloop
  endfacet
  facet normal 0.000000 0.000000 1.000000
    outer loop
      vertex -0.052000 0.090067 0.102000
      vertex -0.026917 -0.100456 0.102000
      vertex -0.026917 0.100456 0.102000
    endloop
  endfacet
  facet normal 0.000000 0.000000 1.000000
    outer loop
      vertex -0.026917 0.100456 0.102000
      vertex -0.026917 -0.100456 0.102000
      vertex -0.000000 -0.104000 0.102000
    endloop
  endfacet
  facet normal 0.000000 0.000000 1.000000
    outer loop
      vertex -0.026917 0.100456 0.102000
      vertex -0.000000 -0.104000 0.102000
      vertex 0.000000 0.104000 0.102000
    endloop
  endfacet
  facet normal 0.000000 0.000000 1.000000
    outer loop
      vertex 0.000000 0.104000 0.102000
      vertex -0.000000 -0.104000 0.102000
      vertex 0.026917 -0.100456 0.102000
    endloop
  endfacet
  facet normal 0.000000 0.000000 1.000000
    outer loop
      vertex 0.000000 0.104000 0.102000
      vertex 0.026917 -0.100456 0.102000
      vertex 0.026917 0.100456 0.102000
    endloop
  endfacet
  facet normal 0.000000 0.000000 1.000000
    outer loop
      vertex 0.026917 0.100456 0.102000
      vertex 0.026917 -0.100456 0.102000
      vertex 0.052000 -0.090067 0.102000
    endloop
  endfacet
  facet normal 0.000000 0.000000 1.000000
    outer loop
      vertex 0.026917 0.100456 0.102000
      vertex 0.052000 -0.090067 0.102000
      vertex 0.052000 0.090067 0.102000
    endloop
  endfacet
  facet normal 0.000000 0.000000 1.000000
    outer loop
      vertex 0.052000 0.090067 0.102000
      vertex 0.052000 -0.090067 0.102000
      vertex 0.073539 -0.073539 0.102000
    endloop
  endfacet
  facet normal 0.000000 0.000000 1.000000
    outer loop
      vertex 0.052000 0.090067 0.102000
      vertex 0.073539 -0.073539 0.102000
      vertex 0.073539 0.073539 0.102000
    endloop
  endfacet
  facet normal 0.000000 0.000000 1.000000
    outer loop
      vertex 0.073539 0.073539 0.102000
      vertex 0.073539 -0.073539 0.102000
      vertex 0.090067 -0.052000 0.102000
    endloop
  endfacet
  facet normal 0.000000 0.000000 1.000000
    outer loop
      vertex 0.073539 0.073539 0.102000
      vertex 0.090067 -0.052000 0.102000
      vertex 0.090067 0.052000 0.102000
    endloop
  endfacet
  facet normal 0.000000 0.000000 1.000000
    outer loop
      vertex 0.090067 0.052000 0.102000
      vertex 0.090067 -0.052000 0.102000
      vertex 0.100456 -0.026917 0.102000
    endloop
  endfacet
  facet normal 0.000000 0.000000 1.000000
    outer loop
      vertex 0.090067 0.052000 0.102000
      vertex 0.100456 -0.026917 0.102000
      vertex 0.100456 0.026917 0.102000
    endloop
  endfacet
  facet normal 0.000000 0.000000 1.000000
    outer loop
      vertex 0.100456 0.026917 0.102000
      vertex 0.100456 -0.026917 0.102000
      vertex 0.104000 -0.000000 0.102000
    endloop
  endfacet
  facet normal 0.000000 0.000000 -1.000000
    outer loop
      vertex 0.411419 0.018376 0.002000
      vertex 0.411419 -0.018376 0.002000
      vertex 0.409000 0.000000 0.002000
    endloop
  endfacet
  facet normal 0.000000 0.000000 -1.000000
    outer loop
      vertex 0.411419 -0.018376 0.002000
      vertex 0.411419 0.018376 0.002000
      vertex 0.418512 0.035500 0.002000
    endloop
  endfacet
  facet normal 0.000000 0.000000 -1.000000
    outer loop
      vertex 0.411419 -0.018376 0.002000
      vertex 0.418512 0.035500 0.002000
      vertex 0.418512 -0.035500 0.002000
    endloop
  endfacet
  facet normal 0.000000 0.000000 -1.000000
    outer loop
      vertex 0.418512 -0.035500 0.002000
      vertex 0.418512 0.035500 0.002000
      vertex 0.429795 -0.050205 0.002000
    endloop
  endfacet
  facet normal 0.000000 0.000000 -1.000000
    outer loop
      vertex 0.429795 -0.050205 0.002000
      vertex 0.418512 0.035500 0.002000
      vertex 0.429795 0.050205 0.002000
    endloop
  endfacet
  facet normal 0.000000 0.000000 -1.000000
    outer loop
      vertex 0.429795 -0.050205 0.002000
      vertex 0.429795 0.050205 0.002000
      vertex 0.444500 0.061488 0.002000
    endloop
  endfacet
  facet normal 0.000000 0.000000 -1.000000
    outer loop
      vertex 0.429795 -0.050205 0.002000
      vertex 0.444500 0.061488 0.002000
      vertex 0.444500 -0.061488 0.002000
    endloop
  endfacet
  facet normal 0.000000 0.000000 -1.000000
    outer loop
      vertex 0.444500 -0.061488 0.002000
      vertex 0.444500 0.061488 0.002000
      vertex 0.461624 -0.068581 0.002000
    endloop
  endfacet
  facet normal 0.000000 0.000000 -1.000000
    outer loop
      vertex 0.461624 -0.068581 0.002000
      vertex 0.444500 0.061488 0.002000
      vertex 0.461624 0.068581 0.002000
    endloop
  endfacet
  facet normal 0.000000 0.000000 -1.000000
    outer loop
      vertex 0.461624 -0.068581 0.002000
      vertex 0.461624 0.068581 0.002000
      vertex 0.480000 -0.071000 0.002000
    endloop
  endfacet
  facet normal 0.000000 0.000000 -1.000000
    outer loop
      vertex 0.480000 -0.071000 0.002000
      vertex 0.461624 0.068581 0.002000
      vertex 0.480000 0.071000 0.002000
    endloop
  endfacet
  facet normal 0.000000 0.000000 -1.000000
    outer loop
      vertex 0.480000 -0.071000 0.002000
      vertex 0.480000 0.071000 0.002000
      vertex 0.498376 0.068581 0.002000
    endloop
  endfacet
  facet normal 0.000000 0.000000 -1.000000
    outer loop
      vertex 0.480000 -0.071000 0.002000
      vertex 0.498376 0.068581 0.002000
      vertex 0.498376 -0.068581 0.002000
    endloop
  endfacet
  facet normal 0.000000 0.000000 -1.000000
    outer loop
      vertex 0.498376 -0.068581 0.002000
      vertex 0.498376 0.068581 0.002000
      vertex 0.515500 -0.061488 0.002000
    endloop
  endfacet
  facet normal 0.000000 0.000000 -1.000000
    outer loop
      vertex 0.515500 -0.061488 0.002000
      vertex 0.498376 0.068581 0.002000
      vertex 0.515500 0.061488 0.002000
    endloop
  endfacet
  facet normal 0.000000 0.000000 -1.000000
    outer loop
      vertex 0.515500 -0.061488 0.002000
      vertex 0.515500 0.061488 0.002000
      vertex 0.530205 -0.050205 0.002000
    endloop
  endfacet
  facet normal 0.000000 0.000000 -1.000000
    outer loop
      vertex 0.530205 -0.050205 0.002000
      vertex 0.515500 0.061488 0.002000
      vertex 0.530205 0.050205 0.002000
    endloop
  endfacet
  facet normal 0.000000 0.000000 -1.000000
    outer loop
      vertex 0.530205 -0.050205 0.002000
      vertex 0.530205 0.050205 0.002000
      vertex 0.541488 0.035500 0.002000
    endloop
  endfacet
  facet normal 0.000000 0.000000 -1.000000
    outer loop
      vertex 0.530205 -0.050205 0.002000
      vertex 0.541488 0.035500 0.002000
      vertex 0.541488 -0.035500 0.002000
    endloop
  endfacet
  facet normal 0.000000 0.000000 -1.000000
    outer loop
      vertex 0.541488 -0.035500 0.002000
      vertex 0.541488 0.035500 0.002000
      vertex 0.548581 -0.018376 0.002000
    endloop
  endfacet
  facet normal 0.000000 0.000000 -1.000000
    outer loop
      vertex 0.548581 -0.018376 0.002000
      vertex 0.541488 0.035500 0.002000
      vertex 0.548581 0.018376 0.002000
    endloop
  endfacet
  facet normal 0.000000 0.000000 -1.000000
    outer loop
      vertex 0.548581 -0.018376 0.002000
      vertex 0.548581 0.018376 0.002000
      vertex 0.551000 -0.000000 0.002000
    endloop
  endfacet
  facet normal -0.765901 -0.642958 0.000000
    outer loop
      vertex 0.418512 -0.035500 0.102000
      vertex 0.429795 -0.050205 0.002000
      vertex 0.429795 -0.050205 0.102000
    endloop
  endfacet
  facet normal -0.819280 -0.573394 0.000000
    outer loop
      vertex 0.429795 -0.050205 0.002000
      vertex 0.418512 -0.035500 0.102000
      vertex 0.418512 -0.035500 0.002000
    endloop
  endfacet
  facet normal -0.906214 -0.422820 0.000000
    outer loop
      vertex 0.411419 -0.018376 0.102000
      vertex 0.418512 -0.035500 0.002000
      vertex 0.418512 -0.035500 0.102000
    endloop
  endfacet
  facet normal -0.939769 -0.341811 0.000000
    outer loop
      vertex 0.418512 -0.035500 0.002000
      vertex 0.411419 -0.018376 0.102000
      vertex 0.411419 -0.018376 0.002000
    endloop
  endfacet
  facet normal -0.984769 -0.173868 0.000000
    outer loop
      vertex 0.409000 0.000000 0.102000
      vertex 0.411419 -0.018376 0.002000
      vertex 0.411419 -0.018376 0.102000
    endloop
  endfacet
  facet normal -0.996214 -0.086934 0.000000
    outer loop
      vertex 0.411419 -0.018376 0.002000
      vertex 0.409000 0.000000 0.102000
      vertex 0.409000 0.000000 0.002000
    endloop
  endfacet
  facet normal -0.996214 0.086934 0.000000
    outer loop
      vertex 0.411419 0.018376 0.102000
      vertex 0.409000 0.000000 0.002000
      vertex 0.409000 0.000000 0.102000
    endloop
  endfacet
  facet normal -0.984769 0.173868 0.000000
    outer loop
      vertex 0.409000 0.000000 0.002000
      vertex 0.411419 0.018376 0.102000
      vertex 0.411419 0.018376 0.002000
    endloop
  endfacet
  facet normal 0.068588 -0.997645 0.000000
    outer loop
      vertex 0.480000 -0.071000 0.102000
      vertex -0.000000 -0.104000 0.002000
      vertex 0.480000 -0.071000 0.002000
    endloop
  endfacet
  facet normal 0.068588 -0.997645 0.000000
    outer loop
      vertex -0.000000 -0.104000 0.002000
      vertex 0.480000 -0.071000 0.102000
      vertex -0.000000 -0.104000 0.102000
    endloop
  endfacet
  facet normal -0.422820 0.906214 0.000000
    outer loop
      vertex -0.052000 0.090067 0.102000
      vertex -0.026917 0.100456 0.002000
      vertex -0.052000 0.090067 0.002000
    endloop
  endfacet
  facet normal -0.341811 0.939769 0.000000
    outer loop
      vertex -0.026917 0.100456 0.002000
      vertex -0.052000 0.090067 0.102000
      vertex -0.026917 0.100456 0.102000
    endloop
  endfacet
  facet normal -0.341811 -0.939769 0.000000
    outer loop
      vertex -0.026917 -0.100456 0.102000
      vertex -0.052000 -0.090067 0.002000
      vertex -0.026917 -0.100456 0.002000
    endloop
  endfacet
  facet normal -0.422820 -0.906214 0.000000
    outer loop
      vertex -0.052000 -0.090067 0.002000
      vertex -0.026917 -0.100456 0.102000
      vertex -0.052000 -0.090067 0.102000
    endloop
  endfacet
  facet normal -0.573394 -0.819280 0.000000
    outer loop
      vertex -0.052000 -0.090067 0.102000
      vertex -0.073539 -0.073539 0.002000
      vertex -0.052000 -0.090067 0.002000
    endloop
  endfacet
  facet normal -0.642958 -0.765901 0.000000
    outer loop
      vertex -0.073539 -0.073539 0.002000
      vertex -0.052000 -0.090067 0.102000
      vertex -0.073539 -0.073539 0.102000
    endloop
  endfacet
  facet normal -0.765901 -0.642958 0.000000
    outer loop
      vertex -0.090067 -0.052000 0.102000
      vertex -0.073539 -0.073539 0.002000
      vertex -0.073539 -0.073539 0.102000
    endloop
  endfacet
  facet normal -0.819280 -0.573394 0.000000
    outer loop
      vertex -0.073539 -0.073539 0.002000
      vertex -0.090067 -0.052000 0.102000
      vertex -0.090067 -0.052000 0.002000
    endloop
  endfacet
  facet normal -0.996214 0.086934 0.000000
    outer loop
      vertex -0.100456 0.026917 0.102000
      vertex -0.104000 0.000000 0.002000
      vertex -0.104000 0.000000 0.102000
    endloop
  endfacet
  facet normal -0.984769 0.173868 0.000000
    outer loop
      vertex -0.104000 0.000000 0.002000
      vertex -0.100456 0.026917 0.102000
      vertex -0.100456 0.026917 0.002000
    endloop
  endfacet
  facet normal 0.819280 0.573394 0.000000
    outer loop
      vertex 0.073539 0.073539 0.002000
      vertex 0.090067 0.052000 0.102000
      vertex 0.090067 0.052000 0.002000
    endloop
  endfacet
  facet normal 0.765901 0.642958 0.000000
    outer loop
      vertex 0.090067 0.052000 0.102000
      vertex 0.073539 0.073539 0.002000
      vertex 0.073539 0.073539 0.102000
    endloop
  endfacet
  facet normal -0.216467 0.976290 0.000000
    outer loop
      vertex 0.461624 0.068581 0.102000
      vertex 0.480000 0.071000 0.002000
      vertex 0.461624 0.068581 0.002000
    endloop
  endfacet
  facet normal -0.173621 0.984813 0.000000
    outer loop
      vertex 0.480000 0.071000 0.002000
      vertex 0.461624 0.068581 0.102000
      vertex 0.480000 0.071000 0.102000
    endloop
  endfacet
  facet normal 0.173621 0.984813 0.000000
    outer loop
      vertex 0.480000 0.071000 0.102000
      vertex 0.498376 0.068581 0.002000
      vertex 0.480000 0.071000 0.002000
    endloop
  endfacet
  facet normal 0.216467 0.976290 0.000000
    outer loop
      vertex 0.498376 0.068581 0.002000
      vertex 0.480000 0.071000 0.102000
      vertex 0.498376 0.068581 0.102000
    endloop
  endfacet
  facet normal 0.341811 0.939769 0.000000
    outer loop
      vertex 0.498376 0.068581 0.102000
      vertex 0.515500 0.061488 0.002000
      vertex 0.498376 0.068581 0.002000
    endloop
  endfacet
  facet normal 0.422820 0.906214 0.000000
    outer loop
      vertex 0.515500 0.061488 0.002000
      vertex 0.498376 0.068581 0.102000
      vertex 0.515500 0.061488 0.102000
    endloop
  endfacet
  facet normal 0.573394 0.819280 0.000000
    outer loop
      vertex 0.515500 0.061488 0.102000
      vertex 0.530205 0.050205 0.002000
      vertex 0.515500 0.061488 0.002000
    endloop
  endfacet
  facet normal 0.642958 0.765901 0.000000
    outer loop
      vertex 0.530205 0.050205 0.002000
      vertex 0.515500 0.061488 0.102000
      vertex 0.530205 0.050205 0.102000
    endloop
  endfacet
  facet normal 0.819280 0.573394 0.000000
    outer loop
      vertex 0.530205 0.050205 0.002000
      vertex 0.541488 0.035500 0.102000
      vertex 0.541488 0.035500 0.002000
    endloop
  endfacet
  facet normal 0.765901 0.642958 0.000000
    outer loop
      vertex 0.541488 0.035500 0.102000
      vertex 0.530205 0.050205 0.002000
      vertex 0.530205 0.050205 0.102000
    endloop
  endfacet
  facet normal 0.939769 0.341811 0.000000
    outer loop
      vertex 0.541488 0.035500 0.002000
      vertex 0.548581 0.018376 0.102000
      vertex 0.548581 0.018376 0.002000
    endloop
  endfacet
  facet normal 0.906214 0.422820 0.000000
    outer loop
      vertex 0.548581 0.018376 0.102000
      vertex 0.541488 0.035500 0.002000
      vertex 0.541488 0.035500 0.102000
    endloop
  endfacet
  facet normal 0.996214 0.086934 0.000000
    outer loop
      vertex 0.548581 0.018376 0.002000
      vertex 0.551000 -0.000000 0.102000
      vertex 0.551000 -0.000000 0.002000
    endloop
  endfacet
  facet normal 0.984769 0.173868 0.000000
    outer loop
      vertex 0.551000 -0.000000 0.102000
      vertex 0.548581 0.018376 0.002000
      vertex 0.548581 0.018376 0.102000
    endloop
  endfacet
  facet normal 0.984769 -0.173868 0.000000
    outer loop
      vertex 0.551000 -0.000000 0.002000
      vertex 0.548581 -0.018376 0.102000
      vertex 0.548581 -0.018376 0.002000
    endloop
  endfacet
  facet normal 0.996214 -0.086934 0.000000
    outer loop
      vertex 0.548581 -0.018376 0.102000
      vertex 0.551000 -0.000000 0.002000
      vertex 0.551000 -0.000000 0.102000
    endloop
  endfacet
  facet normal 0.906214 -0.422820 0.000000
    outer loop
      vertex 0.548581 -0.018376 0.002000
      vertex 0.541488 -0.035500 0.102000
      vertex 0.541488 -0.035500 0.002000
    endloop
  endfacet
  facet normal 0.939769 -0.341811 0.000000
    outer loop
      vertex 0.541488 -0.035500 0.102000
      vertex 0.548581 -0.018376 0.002000
      vertex 0.548581 -0.018376 0.102000
    endloop
  endfacet
  facet normal 0.765901 -0.642958 0.000000
    outer loop
      vertex 0.541488 -0.035500 0.002000
      vertex 0.530205 -0.050205 0.102000
      vertex 0.530205 -0.050205 0.002000
    endloop
  endfacet
  facet normal 0.819280 -0.573394 0.000000
    outer loop
      vertex 0.530205 -0.050205 0.102000
      vertex 0.541488 -0.035500 0.002000
      vertex 0.541488 -0.035500 0.102000
    endloop
  endfacet
  facet normal -0.939769 0.341811 0.000000
    outer loop
      vertex 0.418512 0.035500 0.102000
      vertex 0.411419 0.018376 0.002000
      vertex 0.411419 0.018376 0.102000
    endloop
  endfacet
  facet normal -0.906214 0.422820 0.000000
    outer loop
      vertex 0.411419 0.018376 0.002000
      vertex 0.418512 0.035500 0.102000
      vertex 0.418512 0.035500 0.002000
    endloop
  endfacet
  facet normal -0.819280 0.573394 0.000000
    outer loop
      vertex 0.429795 0.050205 0.102000
      vertex 0.418512 0.035500 0.002000
      vertex 0.418512 0.035500 0.102000
    endloop
  endfacet
  facet normal -0.765901 0.642958 0.000000
    outer loop
      vertex 0.418512 0.035500 0.002000
      vertex 0.429795 0.050205 0.102000
      vertex 0.429795 0.050205 0.002000
    endloop
  endfacet
  facet normal -0.642958 0.765901 0.000000
    outer loop
      vertex 0.429795 0.050205 0.102000
      vertex 0.444500 0.061488 0.002000
      vertex 0.429795 0.050205 0.002000
    endloop
  endfacet
  facet normal -0.573394 0.819280 0.000000
    outer loop
      vertex 0.444500 0.061488 0.002000
      vertex 0.429795 0.050205 0.102000
      vertex 0.444500 0.061488 0.102000
    endloop
  endfacet
  facet normal -0.422820 0.906214 0.000000
    outer loop
      vertex 0.444500 0.061488 0.102000
      vertex 0.461624 0.068581 0.002000
      vertex 0.444500 0.061488 0.002000
    endloop
  endfacet
  facet normal -0.341811 0.939769 0.000000
    outer loop
      vertex 0.461624 0.068581 0.002000
      vertex 0.444500 0.061488 0.102000
      vertex 0.461624 0.068581 0.102000
    endloop
  endfacet
  facet normal 0.068588 0.997645 0.000000
    outer loop
      vertex 0.000000 0.104000 0.102000
      vertex 0.480000 0.071000 0.002000
      vertex 0.000000 0.104000 0.002000
    endloop
  endfacet
  facet normal 0.068588 0.997645 0.000000
    outer loop
      vertex 0.480000 0.071000 0.002000
      vertex 0.000000 0.104000 0.102000
      vertex 0.480000 0.071000 0.102000
    endloop
  endfacet
  facet normal -0.173621 -0.984813 0.000000
    outer loop
      vertex -0.000000 -0.104000 0.102000
      vertex -0.026917 -0.100456 0.002000
      vertex -0.000000 -0.104000 0.002000
    endloop
  endfacet
  facet normal -0.216467 -0.976290 0.000000
    outer loop
      vertex -0.026917 -0.100456 0.002000
      vertex -0.000000 -0.104000 0.102000
      vertex -0.026917 -0.100456 0.102000
    endloop
  endfacet
  facet normal 0.000000 0.000000 -1.000000
    outer loop
      vertex -0.100456 0.026917 0.002000
      vertex -0.100456 -0.026917 0.002000
      vertex -0.104000 0.000000 0.002000
    endloop
  endfacet
  facet normal 0.000000 0.000000 -1.000000
    outer loop
      vertex -0.100456 -0.026917 0.002000
      vertex -0.100456 0.026917 0.002000
      vertex -0.090067 0.052000 0.002000
    endloop
  endfacet
  facet normal 0.000000 0.000000 -1.000000
    outer loop
      vertex -0.100456 -0.026917 0.002000
      vertex -0.090067 0.052000 0.002000
      vertex -0.090067 -0.052000 0.002000
    endloop
  endfacet
  facet normal 0.000000 0.000000 -1.000000
    outer loop
      vertex -0.090067 -0.052000 0.002000
      vertex -0.090067 0.052000 0.002000
      vertex -0.073539 -0.073539 0.002000
    endloop
  endfacet
  facet normal 0.000000 0.000000 -1.000000
    outer loop
      vertex -0.073539 -0.073539 0.002000
      vertex -0.090067 0.052000 0.002000
      vertex -0.073539 0.073539 0.002000
    endloop
  endfacet
  facet normal 0.000000 0.000000 -1.000000
    outer loop
      vertex -0.073539 -0.073539 0.002000
      vertex -0.073539 0.073539 0.002000
      vertex -0.052000 0.090067 0.002000
    endloop
  endfacet
  facet normal 0.000000 0.000000 -1.000000
    outer loop
      vertex -0.073539 -0.073539 0.002000
      vertex -0.052000 0.090067 0.002000
      vertex -0.052000 -0.090067 0.002000
    endloop
  endfacet
  facet normal 0.000000 0.000000 -1.000000
    outer loop
      vertex -0.052000 -0.090067 0.002000
      vertex -0.052000 0.090067 0.002000
      vertex -0.026917 -0.100456 0.002000
    endloop
  endfacet
  facet normal 0.000000 0.000000 -1.000000
    outer loop
      vertex -0.026917 -0.100456 0.002000
      vertex -0.052000 0.090067 0.002000
      vertex -0.026917 0.100456 0.002000
    endloop
  endfacet
  facet normal 0.000000 0.000000 -1.000000
    outer loop
      vertex -0.026917 -0.100456 0.002000
      vertex -0.026917 0.100456 0.002000
      vertex -0.000000 -0.104000 0.002000
    endloop
  endfacet
  facet normal 0.000000 0.000000 -1.000000
    outer loop
      vertex -0.000000 -0.104000 0.002000
      vertex -0.026917 0.100456 0.002000
      vertex 0.000000 0.104000 0.002000
    endloop
  endfacet
  facet normal 0.000000 0.000000 -1.000000
    outer loop
      vertex -0.000000 -0.104000 0.002000
      vertex 0.000000 0.104000 0.002000
      vertex 0.026917 -0.100456 0.002000
    endloop
  endfacet
  facet normal 0.000000 0.000000 -1.000000
    outer loop
      vertex 0.026917 -0.100456 0.002000
      vertex 0.000000 0.104000 0.002000
      vertex 0.026917 0.100456 0.002000
    endloop
  endfacet
  facet normal 0.000000 0.000000 -1.000000
    outer loop
      vertex 0.026917 -0.100456 0.002000
      vertex 0.026917 0.100456 0.002000
      vertex 0.052000 -0.090067 0.002000
    endloop
  endfacet
  facet normal 0.000000 0.000000 -1.000000
    outer loop
      vertex 0.052000 -0.090067 0.002000
      vertex 0.026917 0.100456 0.002000
      vertex 0.052000 0.090067 0.002000
    endloop
  endfacet
  facet normal 0.000000 0.000000 -1.000000
    outer loop
      vertex 0.052000 -0.090067 0.002000
      vertex 0.052000 0.090067 0.002000
      vertex 0.073539 -0.073539 0.002000
    endloop
  endfacet
  facet normal 0.000000 0.000000 -1.000000
    outer loop
      vertex 0.073539 -0.073539 0.002000
      vertex 0.052000 0.090067 0.002000
      vertex 0.073539 0.073539 0.002000
    endloop
  endfacet
  facet normal 0.000000 0.000000 -1.000000
    outer loop
      vertex 0.073539 -0.073539 0.002000
      vertex 0.073539 0.073539 0.002000
      vertex 0.090067 -0.052000 0.002000
    endloop
  endfacet
  facet normal 0.000000 0.000000 -1.000000
    outer loop
      vertex 0.090067 -0.052000 0.002000
      vertex 0.073539 0.073539 0.002000
      vertex 0.090067 0.052000 0.002000
    endloop
  endfacet
  facet normal 0.000000 0.000000 -1.000000
    outer loop
      vertex 0.090067 -0.052000 0.002000
      vertex 0.090067 0.052000 0.002000
      vertex 0.100456 -0.026917 0.002000
    endloop
  endfacet
  facet normal 0.000000 0.000000 -1.000000
    outer loop
      vertex 0.100456 -0.026917 0.002000
      vertex 0.090067 0.052000 0.002000
      vertex 0.100456 0.026917 0.002000
    endloop
  endfacet
  facet normal 0.000000 0.000000 -1.000000
    outer loop
      vertex 0.100456 -0.026917 0.002000
      vertex 0.100456 0.026917 0.002000
      vertex 0.104000 -0.000000 0.002000
    endloop
  endfacet
  facet normal -0.906214 -0.422820 0.000000
    outer loop
      vertex -0.100456 -0.026917 0.102000
      vertex -0.090067 -0.052000 0.002000
      vertex -0.090067 -0.052000 0.102000
    endloop
  endfacet
  facet normal -0.939769 -0.341811 0.000000
    outer loop
      vertex -0.090067 -0.052000 0.002000
      vertex -0.100456 -0.026917 0.102000
      vertex -0.100456 -0.026917 0.002000
    endloop
  endfacet
  facet normal -0.984769 -0.173868 0.000000
    outer loop
      vertex -0.104000 0.000000 0.102000
      vertex -0.100456 -0.026917 0.002000
      vertex -0.100456 -0.026917 0.102000
    endloop
  endfacet
  facet normal -0.996214 -0.086934 0.000000
    outer loop
      vertex -0.100456 -0.026917 0.002000
      vertex -0.104000 0.000000 0.102000
      vertex -0.104000 0.000000 0.002000
    endloop
  endfacet
  facet normal 0.939769 0.341811 0.000000
    outer loop
      vertex 0.090067 0.052000 0.002000
      vertex 0.100456 0.026917 0.102000
      vertex 0.100456 0.026917 0.002000
    endloop
  endfacet
  facet normal 0.906214 0.422820 0.000000
    outer loop
      vertex 0.100456 0.026917 0.102000
      vertex 0.090067 0.052000 0.002000
      vertex 0.090067 0.052000 0.102000
    endloop
  endfacet
  facet normal 0.996214 0.086934 0.000000
    outer loop
      vertex 0.100456 0.026917 0.002000
      vertex 0.104000 -0.000000 0.102000
      vertex 0.104000 -0.000000 0.002000
    endloop
  endfacet
  facet normal 0.984769 0.173868 0.000000
    outer loop
      vertex 0.104000 -0.000000 0.102000
      vertex 0.100456 0.026917 0.002000
      vertex 0.100456 0.026917 0.102000
    endloop
  endfacet
  facet normal 0.984769 -0.173868 0.000000
    outer loop
      vertex 0.104000 -0.000000 0.002000
      vertex 0.100456 -0.026917 0.102000
      vertex 0.100456 -0.026917 0.002000
    endloop
  endfacet
  facet normal 0.996214 -0.086934 0.000000
    outer loop
      vertex 0.100456 -0.026917 0.102000
      vertex 0.104000 -0.000000 0.002000
      vertex 0.104000 -0.000000 0.102000
    endloop
  endfacet
  facet normal 0.906214 -0.422820 0.000000
    outer loop
      vertex 0.100456 -0.026917 0.002000
      vertex 0.090067 -0.052000 0.102000
      vertex 0.090067 -0.052000 0.002000
    endloop
  endfacet
  facet normal 0.939769 -0.341811 0.000000
    outer loop
      vertex 0.090067 -0.052000 0.102000
      vertex 0.100456 -0.026917 0.002000
      vertex 0.100456 -0.026917 0.102000
    endloop
  endfacet
  facet normal 0.765901 -0.642958 0.000000
    outer loop
      vertex 0.090067 -0.052000 0.002000
      vertex 0.073539 -0.073539 0.102000
      vertex 0.073539 -0.073539 0.002000
    endloop
  endfacet
  facet normal 0.819280 -0.573394 0.000000
    outer loop
      vertex 0.073539 -0.073539 0.102000
      vertex 0.090067 -0.052000 0.002000
      vertex 0.090067 -0.052000 0.102000
    endloop
  endfacet
  facet normal -0.939769 0.341811 0.000000
    outer loop
      vertex -0.090067 0.052000 0.102000
      vertex -0.100456 0.026917 0.002000
      vertex -0.100456 0.026917 0.102000
    endloop
  endfacet
  facet normal -0.906214 0.422820 0.000000
    outer loop
      vertex -0.100456 0.026917 0.002000
      vertex -0.090067 0.052000 0.102000
      vertex -0.090067 0.052000 0.002000
    endloop
  endfacet
  facet normal -0.819280 0.573394 0.000000
    outer loop
      vertex -0.073539 0.073539 0.102000
      vertex -0.090067 0.052000 0.002000
      vertex -0.090067 0.052000 0.102000
    endloop
  endfacet
  facet normal -0.765901 0.642958 0.000000
    outer loop
      vertex -0.090067 0.052000 0.002000
      vertex -0.073539 0.073539 0.102000
      vertex -0.073539 0.073539 0.002000
    endloop
  endfacet
  facet normal 0.573394 0.819280 0.000000
    outer loop
      vertex 0.052000 0.090067 0.102000
      vertex 0.073539 0.073539 0.002000
      vertex 0.052000 0.090067 0.002000
    endloop
  endfacet
  facet normal 0.642958 0.765901 0.000000
    outer loop
      vertex 0.073539 0.073539 0.002000
      vertex 0.052000 0.090067 0.102000
      vertex 0.073539 0.073539 0.102000
    endloop
  endfacet
endsolid