solid ascii
  facet normal 0.000000e+000 1.000000e+000 0.000000e+000
    outer loop
      vertex   -1.520000e-001 3.450000e-002 2.500000e-002
      vertex   -1.520000e-001 3.450000e-002 9.500000e-002
      vertex   -1.200000e-001 3.450000e-002 2.500000e-002
    endloop
  endfacet
  facet normal 0.000000e+000 1.000000e+000 0.000000e+000
    outer loop
      vertex   -1.200000e-001 3.450000e-002 2.500000e-002
      vertex   -1.520000e-001 3.450000e-002 9.500000e-002
      vertex   -1.200000e-001 3.450000e-002 9.500000e-002
    endloop
  endfacet
  facet normal 0.000000e+000 0.000000e+000 1.000000e+000
    outer loop
      vertex   -1.520000e-001 3.450000e-002 9.500000e-002
      vertex   -1.520000e-001 -3.350000e-002 9.500000e-002
      vertex   -1.200000e-001 3.450000e-002 9.500000e-002
    endloop
  endfacet
  facet normal 0.000000e+000 0.000000e+000 1.000000e+000
    outer loop
      vertex   -1.200000e-001 3.450000e-002 9.500000e-002
      vertex   -1.520000e-001 -3.350000e-002 9.500000e-002
      vertex   -1.200000e-001 -3.350000e-002 9.500000e-002
    endloop
  endfacet
  facet normal 0.000000e+000 -1.000000e+000 1.268826e-016
    outer loop
      vertex   -1.520000e-001 -3.350000e-002 9.500000e-002
      vertex   -1.520000e-001 -3.350000e-002 2.500000e-002
      vertex   -1.200000e-001 -3.350000e-002 9.500000e-002
    endloop
  endfacet
  facet normal 0.000000e+000 -1.000000e+000 1.268826e-016
    outer loop
      vertex   -1.200000e-001 -3.350000e-002 9.500000e-002
      vertex   -1.520000e-001 -3.350000e-002 2.500000e-002
      vertex   -1.200000e-001 -3.350000e-002 2.500000e-002
    endloop
  endfacet
  facet normal 0.000000e+000 0.000000e+000 -1.000000e+000
    outer loop
      vertex   -1.520000e-001 -3.350000e-002 2.500000e-002
      vertex   -1.520000e-001 3.450000e-002 2.500000e-002
      vertex   -1.200000e-001 -3.350000e-002 2.500000e-002
    endloop
  endfacet
  facet normal 0.000000e+000 0.000000e+000 -1.000000e+000
    outer loop
      vertex   -1.200000e-001 -3.350000e-002 2.500000e-002
      vertex   -1.520000e-001 3.450000e-002 2.500000e-002
      vertex   -1.200000e-001 3.450000e-002 2.500000e-002
    endloop
  endfacet
  facet normal -1.000000e+000 0.000000e+000 0.000000e+000
    outer loop
      vertex   -1.520000e-001 3.450000e-002 9.500000e-002
      vertex   -1.520000e-001 3.450000e-002 2.500000e-002
      vertex   -1.520000e-001 -3.350000e-002 9.500000e-002
    endloop
  endfacet
  facet normal -1.000000e+000 0.000000e+000 0.000000e+000
    outer loop
      vertex   -1.520000e-001 -3.350000e-002 9.500000e-002
      vertex   -1.520000e-001 3.450000e-002 2.500000e-002
      vertex   -1.520000e-001 -3.350000e-002 2.500000e-002
    endloop
  endfacet
  facet normal 0.000000e+000 0.000000e+000 -1.000000e+000
    outer loop
      vertex   -1.200000e-001 5.750000e-002 1.500000e-002
      vertex   -9.000000e-002 4.000000e-002 1.500000e-002
      vertex   -1.200000e-001 -5.750000e-002 1.500000e-002
    endloop
  endfacet
  facet normal 0.000000e+000 0.000000e+000 -1.000000e+000
    outer loop
      vertex   -1.200000e-001 5.750000e-002 1.500000e-002
      vertex   1.200000e-001 5.750000e-002 1.500000e-002
      vertex   -9.000000e-002 4.000000e-002 1.500000e-002
    endloop
  endfacet
  facet normal 0.000000e+000 0.000000e+000 -1.000000e+000
    outer loop
      vertex   -9.000000e-002 4.000000e-002 1.500000e-002
      vertex   1.200000e-001 5.750000e-002 1.500000e-002
      vertex   9.000000e-002 4.000000e-002 1.500000e-002
    endloop
  endfacet
  facet normal 0.000000e+000 0.000000e+000 -1.000000e+000
    outer loop
      vertex   9.000000e-002 4.000000e-002 1.500000e-002
      vertex   1.200000e-001 5.750000e-002 1.500000e-002
      vertex   1.200000e-001 -5.750000e-002 1.500000e-002
    endloop
  endfacet
  facet normal 0.000000e+000 0.000000e+000 -1.000000e+000
    outer loop
      vertex   9.000000e-002 -4.000000e-002 1.500000e-002
      vertex   1.200000e-001 -5.750000e-002 1.500000e-002
      vertex   -1.200000e-001 -5.750000e-002 1.500000e-002
    endloop
  endfacet
  facet normal 0.000000e+000 0.000000e+000 -1.000000e+000
    outer loop
      vertex   -9.000000e-002 -4.000000e-002 1.500000e-002
      vertex   -1.200000e-001 -5.750000e-002 1.500000e-002
      vertex   -9.000000e-002 4.000000e-002 1.500000e-002
    endloop
  endfacet
  facet normal 0.000000e+000 0.000000e+000 -1.000000e+000
    outer loop
      vertex   -9.000000e-002 -4.000000e-002 1.500000e-002
      vertex   9.000000e-002 -4.000000e-002 1.500000e-002
      vertex   -1.200000e-001 -5.750000e-002 1.500000e-002
    endloop
  endfacet
  facet normal 0.000000e+000 0.000000e+000 -1.000000e+000
    outer loop
      vertex   9.000000e-002 -4.000000e-002 1.500000e-002
      vertex   9.000000e-002 4.000000e-002 1.500000e-002
      vertex   1.200000e-001 -5.750000e-002 1.500000e-002
    endloop
  endfacet
  facet normal 0.000000e+000 1.000000e+000 0.000000e+000
    outer loop
      vertex   -1.200000e-001 5.750000e-002 1.080000e-001
      vertex   1.200000e-001 5.750000e-002 1.080000e-001
      vertex   -1.200000e-001 5.750000e-002 1.500000e-002
    endloop
  endfacet
  facet normal 0.000000e+000 1.000000e+000 0.000000e+000
    outer loop
      vertex   -1.200000e-001 5.750000e-002 1.500000e-002
      vertex   1.200000e-001 5.750000e-002 1.080000e-001
      vertex   1.200000e-001 5.750000e-002 1.500000e-002
    endloop
  endfacet
  facet normal 1.000000e+000 0.000000e+000 0.000000e+000
    outer loop
      vertex   1.200000e-001 5.750000e-002 1.080000e-001
      vertex   1.200000e-001 -5.750000e-002 1.080000e-001
      vertex   1.200000e-001 5.750000e-002 1.500000e-002
    endloop
  endfacet
  facet normal 1.000000e+000 0.000000e+000 0.000000e+000
    outer loop
      vertex   1.200000e-001 5.750000e-002 1.500000e-002
      vertex   1.200000e-001 -5.750000e-002 1.080000e-001
      vertex   1.200000e-001 -5.750000e-002 1.500000e-002
    endloop
  endfacet
  facet normal 0.000000e+000 -1.000000e+000 0.000000e+000
    outer loop
      vertex   1.200000e-001 -5.750000e-002 1.080000e-001
      vertex   -1.200000e-001 -5.750000e-002 1.080000e-001
      vertex   1.200000e-001 -5.750000e-002 1.500000e-002
    endloop
  endfacet
  facet normal 0.000000e+000 -1.000000e+000 0.000000e+000
    outer loop
      vertex   1.200000e-001 -5.750000e-002 1.500000e-002
      vertex   -1.200000e-001 -5.750000e-002 1.080000e-001
      vertex   -1.200000e-001 -5.750000e-002 1.500000e-002
    endloop
  endfacet
  facet normal -1.000000e+000 0.000000e+000 0.000000e+000
    outer loop
      vertex   -1.200000e-001 -5.750000e-002 1.500000e-002
      vertex   -1.200000e-001 -5.750000e-002 1.080000e-001
      vertex   -1.200000e-001 -3.350000e-002 9.500000e-002
    endloop
  endfacet
  facet normal -1.000000e+000 0.000000e+000 0.000000e+000
    outer loop
      vertex   -1.200000e-001 -3.350000e-002 2.500000e-002
      vertex   -1.200000e-001 -5.750000e-002 1.500000e-002
      vertex   -1.200000e-001 -3.350000e-002 9.500000e-002
    endloop
  endfacet
  facet normal -1.000000e+000 0.000000e+000 0.000000e+000
    outer loop
      vertex   -1.200000e-001 -3.350000e-002 2.500000e-002
      vertex   -1.200000e-001 3.450000e-002 2.500000e-002
      vertex   -1.200000e-001 -5.750000e-002 1.500000e-002
    endloop
  endfacet
  facet normal -1.000000e+000 0.000000e+000 0.000000e+000
    outer loop
      vertex   -1.200000e-001 -5.750000e-002 1.500000e-002
      vertex   -1.200000e-001 3.450000e-002 2.500000e-002
      vertex   -1.200000e-001 5.750000e-002 1.500000e-002
    endloop
  endfacet
  facet normal -1.000000e+000 0.000000e+000 0.000000e+000
    outer loop
      vertex   -1.200000e-001 5.750000e-002 1.500000e-002
      vertex   -1.200000e-001 3.450000e-002 2.500000e-002
      vertex   -1.200000e-001 3.450000e-002 9.500000e-002
    endloop
  endfacet
  facet normal -1.000000e+000 0.000000e+000 0.000000e+000
    outer loop
      vertex   -1.200000e-001 5.750000e-002 1.080000e-001
      vertex   -1.200000e-001 3.450000e-002 9.500000e-002
      vertex   -1.200000e-001 -3.350000e-002 9.500000e-002
    endloop
  endfacet
  facet normal -1.000000e+000 0.000000e+000 0.000000e+000
    outer loop
      vertex   -1.200000e-001 -5.750000e-002 1.080000e-001
      vertex   -1.200000e-001 5.750000e-002 1.080000e-001
      vertex   -1.200000e-001 -3.350000e-002 9.500000e-002
    endloop
  endfacet
  facet normal -1.000000e+000 0.000000e+000 0.000000e+000
    outer loop
      vertex   -1.200000e-001 5.750000e-002 1.080000e-001
      vertex   -1.200000e-001 5.750000e-002 1.500000e-002
      vertex   -1.200000e-001 3.450000e-002 9.500000e-002
    endloop
  endfacet
  facet normal 0.000000e+000 0.000000e+000 1.000000e+000
    outer loop
      vertex   1.200000e-001 5.750000e-002 1.080000e-001
      vertex   -1.200000e-001 5.750000e-002 1.080000e-001
      vertex   1.200000e-001 -5.750000e-002 1.080000e-001
    endloop
  endfacet
  facet normal 0.000000e+000 0.000000e+000 1.000000e+000
    outer loop
      vertex   1.200000e-001 -5.750000e-002 1.080000e-001
      vertex   -1.200000e-001 5.750000e-002 1.080000e-001
      vertex   -1.200000e-001 -5.750000e-002 1.080000e-001
    endloop
  endfacet
  facet normal 0.000000e+000 1.000000e+000 0.000000e+000
    outer loop
      vertex   -9.000000e-002 4.000000e-002 1.500000e-002
      vertex   9.000000e-002 4.000000e-002 1.500000e-002
      vertex   -9.000000e-002 4.000000e-002 0.000000e+000
    endloop
  endfacet
  facet normal 0.000000e+000 1.000000e+000 0.000000e+000
    outer loop
      vertex   -9.000000e-002 4.000000e-002 0.000000e+000
      vertex   9.000000e-002 4.000000e-002 1.500000e-002
      vertex   9.000000e-002 4.000000e-002 0.000000e+000
    endloop
  endfacet
  facet normal 1.000000e+000 0.000000e+000 0.000000e+000
    outer loop
      vertex   9.000000e-002 4.000000e-002 1.500000e-002
      vertex   9.000000e-002 -4.000000e-002 1.500000e-002
      vertex   9.000000e-002 4.000000e-002 0.000000e+000
    endloop
  endfacet
  facet normal 1.000000e+000 0.000000e+000 0.000000e+000
    outer loop
      vertex   9.000000e-002 4.000000e-002 0.000000e+000
      vertex   9.000000e-002 -4.000000e-002 1.500000e-002
      vertex   9.000000e-002 -4.000000e-002 0.000000e+000
    endloop
  endfacet
  facet normal 0.000000e+000 -1.000000e+000 0.000000e+000
    outer loop
      vertex   9.000000e-002 -4.000000e-002 1.500000e-002
      vertex   -9.000000e-002 -4.000000e-002 1.500000e-002
      vertex   9.000000e-002 -4.000000e-002 0.000000e+000
    endloop
  endfacet
  facet normal 0.000000e+000 -1.000000e+000 0.000000e+000
    outer loop
      vertex   9.000000e-002 -4.000000e-002 0.000000e+000
      vertex   -9.000000e-002 -4.000000e-002 1.500000e-002
      vertex   -9.000000e-002 -4.000000e-002 0.000000e+000
    endloop
  endfacet
  facet normal -1.000000e+000 0.000000e+000 0.000000e+000
    outer loop
      vertex   -9.000000e-002 -4.000000e-002 1.500000e-002
      vertex   -9.000000e-002 4.000000e-002 1.500000e-002
      vertex   -9.000000e-002 -4.000000e-002 0.000000e+000
    endloop
  endfacet
  facet normal -1.000000e+000 0.000000e+000 0.000000e+000
    outer loop
      vertex   -9.000000e-002 -4.000000e-002 0.000000e+000
      vertex   -9.000000e-002 4.000000e-002 1.500000e-002
      vertex   -9.000000e-002 4.000000e-002 0.000000e+000
    endloop
  endfacet
  facet normal 0.000000e+000 0.000000e+000 -1.000000e+000
    outer loop
      vertex   -9.000000e-002 4.000000e-002 0.000000e+000
      vertex   9.000000e-002 4.000000e-002 0.000000e+000
      vertex   -9.000000e-002 -4.000000e-002 0.000000e+000
    endloop
  endfacet
  facet normal 0.000000e+000 0.000000e+000 -1.000000e+000
    outer loop
      vertex   -9.000000e-002 -4.000000e-002 0.000000e+000
      vertex   9.000000e-002 4.000000e-002 0.000000e+000
      vertex   9.000000e-002 -4.000000e-002 0.000000e+000
    endloop
  endfacet
endsolid
