solid ascii
  facet normal -2.484630e-017 -7.982438e-016 -1.000000e+000
    outer loop
      vertex   -4.800000e-002 1.060000e-001 -1.500000e-003
      vertex   4.800000e-002 1.060000e-001 -1.500000e-003
      vertex   -6.000000e-002 8.600000e-002 -1.500000e-003
    endloop
  endfacet
  facet normal -2.529805e-017 -7.958044e-016 -1.000000e+000
    outer loop
      vertex   -6.000000e-002 8.600000e-002 -1.500000e-003
      vertex   4.800000e-002 1.060000e-001 -1.500000e-003
      vertex   6.000000e-002 8.600000e-002 -1.500000e-003
    endloop
  endfacet
  facet normal -2.529805e-017 -8.018053e-016 -1.000000e+000
    outer loop
      vertex   6.000000e-002 -8.600000e-002 -1.500000e-003
      vertex   -6.000000e-002 8.600000e-002 -1.500000e-003
      vertex   6.000000e-002 8.600000e-002 -1.500000e-003
    endloop
  endfacet
  facet normal -2.529805e-017 -8.018053e-016 -1.000000e+000
    outer loop
      vertex   6.000000e-002 -8.600000e-002 -1.500000e-003
      vertex   -6.000000e-002 -8.600000e-002 -1.500000e-003
      vertex   -6.000000e-002 8.600000e-002 -1.500000e-003
    endloop
  endfacet
  facet normal -2.529805e-017 -7.958044e-016 -1.000000e+000
    outer loop
      vertex   6.000000e-002 -8.600000e-002 -1.500000e-003
      vertex   -4.800000e-002 -1.060000e-001 -1.500000e-003
      vertex   -6.000000e-002 -8.600000e-002 -1.500000e-003
    endloop
  endfacet
  facet normal -2.484630e-017 -7.982438e-016 -1.000000e+000
    outer loop
      vertex   6.000000e-002 -8.600000e-002 -1.500000e-003
      vertex   4.800000e-002 -1.060000e-001 -1.500000e-003
      vertex   -4.800000e-002 -1.060000e-001 -1.500000e-003
    endloop
  endfacet
  facet normal -8.574929e-001 5.144958e-001 -3.408726e-016
    outer loop
      vertex   -6.000000e-002 8.600000e-002 -1.500000e-003
      vertex   -6.000000e-002 8.600000e-002 1.940000e-001
      vertex   -4.800000e-002 1.060000e-001 -1.500000e-003
    endloop
  endfacet
  facet normal -8.574929e-001 5.144958e-001 -3.804381e-016
    outer loop
      vertex   -4.800000e-002 1.060000e-001 -1.500000e-003
      vertex   -6.000000e-002 8.600000e-002 1.940000e-001
      vertex   -4.800000e-002 1.060000e-001 1.940000e-001
    endloop
  endfacet
  facet normal -2.116491e-032 1.000000e+000 -8.518335e-016
    outer loop
      vertex   4.800000e-002 1.060000e-001 -1.500000e-003
      vertex   -4.800000e-002 1.060000e-001 -1.500000e-003
      vertex   4.800000e-002 1.060000e-001 1.940000e-001
    endloop
  endfacet
  facet normal 0.000000e+000 1.000000e+000 -8.518335e-016
    outer loop
      vertex   4.800000e-002 1.060000e-001 1.940000e-001
      vertex   -4.800000e-002 1.060000e-001 -1.500000e-003
      vertex   -4.800000e-002 1.060000e-001 1.940000e-001
    endloop
  endfacet
  facet normal 2.116491e-032 -1.000000e+000 8.518335e-016
    outer loop
      vertex   -4.800000e-002 -1.060000e-001 -1.500000e-003
      vertex   4.800000e-002 -1.060000e-001 -1.500000e-003
      vertex   -4.800000e-002 -1.060000e-001 1.940000e-001
    endloop
  endfacet
  facet normal 0.000000e+000 -1.000000e+000 8.518335e-016
    outer loop
      vertex   -4.800000e-002 -1.060000e-001 1.940000e-001
      vertex   4.800000e-002 -1.060000e-001 -1.500000e-003
      vertex   4.800000e-002 -1.060000e-001 1.940000e-001
    endloop
  endfacet
  facet normal -1.000000e+000 2.823968e-016 7.098613e-017
    outer loop
      vertex   -6.000000e-002 8.600000e-002 -1.500000e-003
      vertex   -6.000000e-002 -8.600000e-002 -1.500000e-003
      vertex   -6.000000e-002 8.600000e-002 1.940000e-001
    endloop
  endfacet
  facet normal -1.000000e+000 2.420544e-016 1.064792e-016
    outer loop
      vertex   -6.000000e-002 8.600000e-002 1.940000e-001
      vertex   -6.000000e-002 -8.600000e-002 -1.500000e-003
      vertex   -6.000000e-002 -8.600000e-002 1.940000e-001
    endloop
  endfacet
  facet normal 8.574929e-001 5.144958e-001 -4.993251e-016
    outer loop
      vertex   6.000000e-002 8.600000e-002 -1.500000e-003
      vertex   4.800000e-002 1.060000e-001 -1.500000e-003
      vertex   6.000000e-002 8.600000e-002 1.940000e-001
    endloop
  endfacet
  facet normal 8.574929e-001 5.144958e-001 -5.295699e-016
    outer loop
      vertex   6.000000e-002 8.600000e-002 1.940000e-001
      vertex   4.800000e-002 1.060000e-001 -1.500000e-003
      vertex   4.800000e-002 1.060000e-001 1.940000e-001
    endloop
  endfacet
  facet normal 1.000000e+000 -4.034241e-017 -1.064792e-016
    outer loop
      vertex   6.000000e-002 -8.600000e-002 -1.500000e-003
      vertex   6.000000e-002 8.600000e-002 -1.500000e-003
      vertex   6.000000e-002 -8.600000e-002 1.940000e-001
    endloop
  endfacet
  facet normal 1.000000e+000 -5.727502e-032 -7.098613e-017
    outer loop
      vertex   6.000000e-002 -8.600000e-002 1.940000e-001
      vertex   6.000000e-002 8.600000e-002 -1.500000e-003
      vertex   6.000000e-002 8.600000e-002 1.940000e-001
    endloop
  endfacet
  facet normal -8.574929e-001 -5.144958e-001 4.991348e-016
    outer loop
      vertex   -4.800000e-002 -1.060000e-001 -1.500000e-003
      vertex   -4.800000e-002 -1.060000e-001 1.940000e-001
      vertex   -6.000000e-002 -8.600000e-002 -1.500000e-003
    endloop
  endfacet
  facet normal -8.574929e-001 -5.144958e-001 4.933807e-016
    outer loop
      vertex   -6.000000e-002 -8.600000e-002 -1.500000e-003
      vertex   -4.800000e-002 -1.060000e-001 1.940000e-001
      vertex   -6.000000e-002 -8.600000e-002 1.940000e-001
    endloop
  endfacet
  facet normal 8.574929e-001 -5.144958e-001 3.447721e-016
    outer loop
      vertex   4.800000e-002 -1.060000e-001 -1.500000e-003
      vertex   6.000000e-002 -8.600000e-002 -1.500000e-003
      vertex   4.800000e-002 -1.060000e-001 1.940000e-001
    endloop
  endfacet
  facet normal 8.574929e-001 -5.144958e-001 3.469596e-016
    outer loop
      vertex   4.800000e-002 -1.060000e-001 1.940000e-001
      vertex   6.000000e-002 -8.600000e-002 -1.500000e-003
      vertex   6.000000e-002 -8.600000e-002 1.940000e-001
    endloop
  endfacet
  facet normal 0.000000e+000 1.387779e-015 1.000000e+000
    outer loop
      vertex   -4.800000e-002 1.060000e-001 1.940000e-001
      vertex   -6.000000e-002 8.600000e-002 1.940000e-001
      vertex   4.800000e-002 1.060000e-001 1.940000e-001
    endloop
  endfacet
  facet normal -1.604942e-031 1.387779e-015 1.000000e+000
    outer loop
      vertex   4.800000e-002 1.060000e-001 1.940000e-001
      vertex   -6.000000e-002 8.600000e-002 1.940000e-001
      vertex   6.000000e-002 8.600000e-002 1.940000e-001
    endloop
  endfacet
  facet normal -9.331056e-032 8.068481e-016 1.000000e+000
    outer loop
      vertex   6.000000e-002 8.600000e-002 1.940000e-001
      vertex   -6.000000e-002 8.600000e-002 1.940000e-001
      vertex   6.000000e-002 -8.600000e-002 1.940000e-001
    endloop
  endfacet
  facet normal 0.000000e+000 8.068481e-016 1.000000e+000
    outer loop
      vertex   6.000000e-002 -8.600000e-002 1.940000e-001
      vertex   -6.000000e-002 8.600000e-002 1.940000e-001
      vertex   -6.000000e-002 -8.600000e-002 1.940000e-001
    endloop
  endfacet
  facet normal 0.000000e+000 0.000000e+000 1.000000e+000
    outer loop
      vertex   4.800000e-002 -1.060000e-001 1.940000e-001
      vertex   -6.000000e-002 -8.600000e-002 1.940000e-001
      vertex   -4.800000e-002 -1.060000e-001 1.940000e-001
    endloop
  endfacet
  facet normal 0.000000e+000 0.000000e+000 1.000000e+000
    outer loop
      vertex   4.800000e-002 -1.060000e-001 1.940000e-001
      vertex   6.000000e-002 -8.600000e-002 1.940000e-001
      vertex   -6.000000e-002 -8.600000e-002 1.940000e-001
    endloop
  endfacet
endsolid
