600 0 1 0           
37 SolidWorks(2001239)-Sat-Convertor-2.0 13 ACIS 6.0.3 NT 24 Mon Oct 08 15:27:13 2001 
1000 9.9999999999999995e-007 1e-010 
-0 body $1 $2 $-1 $-1 #
-1 string_attrib-name_attrib-gen-attrib $-1 $3 $-1 $0 keep keep_kept ignore copy 17 SW_COMPONENT_NAME 8 Staubli4 #
-2 lump $-1 $-1 $4 $0 #
-3 rgb_color-st-attrib $-1 $-1 $1 $0 1 0.50196078431372548 0 #
-4 shell $-1 $-1 $-1 $5 $-1 $2 #
-5 face $-1 $6 $7 $4 $-1 $8 reversed single #
-6 face $-1 $9 $10 $4 $-1 $11 reversed single #
-7 loop $-1 $-1 $12 $5 #
-8 plane-surface $-1 0.059000000000001961 -0.058999999999999095 0.024999999999995238 -0.96592582628906798 3.3728147755434711e-015 -0.25881904510252168 0.25881904510252191 -5.0958040156415894e-016 -0.96592582628906887 forward_v I I I I #
-9 face $-1 $13 $14 $4 $-1 $15 forward single #
-10 loop $-1 $-1 $16 $6 #
-11 plane-surface $-1 1.086880585532412e-015 -0.040999999999999731 0.19999999999999915 6.7168492989822002e-015 1 4.6906922790412643e-015 -1 6.7168492989821884e-015 2.6090241078691348e-015 forward_v I I I I #
-12 coedge $-1 $17 $18 $19 $20 reversed $7 $-1 #
-13 face $-1 $21 $22 $4 $-1 $23 forward single #
-14 loop $-1 $-1 $24 $9 #
-15 plane-surface $-1 0.059000000000002613 -0.017999999999999239 0.23249999999999801 -3.3029134982598332e-015 1 1.7256332301709633e-031 -7.0103849975689747e-032 -2.7733391199176196e-032 -1 forward_v I I I I #
-16 coedge $-1 $25 $26 $27 $28 reversed $10 $-1 #
-17 coedge $-1 $29 $12 $30 $31 forward $7 $-1 #
-18 coedge $-1 $12 $32 $33 $34 forward $7 $-1 #
-19 coedge $-1 $35 $36 $12 $20 forward $22 $-1 #
-20 edge $-1 $37 -0.023000000000000576 $38 0 $19 $39 forward 7 unknown #
-21 face $-1 $40 $41 $4 $-1 $42 forward single #
-22 loop $-1 $-1 $35 $13 #
-23 cone-surface $-1 2.0097812303276908e-016 0.041000000000000113 0.20000000000000026 0 -1 -4.6906922790412817e-015 0.032500000000000001 -2.1774249070460852e-016 -8.7985174701544209e-017 1 I I 0 1 1 forward I I I I #
-24 coedge $-1 $43 $44 $45 $46 forward $14 $-1 #
-25 coedge $-1 $47 $16 $48 $49 forward $10 $-1 #
-26 coedge $-1 $16 $50 $51 $52 reversed $10 $-1 #
-27 coedge $-1 $53 $54 $16 $28 forward $55 $-1 #
-28 edge $-1 $56 0.66287382365014813 $57 3.14159265358977 $27 $58 forward 7 unknown #
-29 coedge $-1 $59 $17 $60 $61 reversed $7 $-1 #
-30 coedge $-1 $62 $63 $17 $31 reversed $64 $-1 #
-31 edge $-1 $37 -0.15398496241575896 $65 -0.12956548527945605 $17 $66 forward 7 unknown #
-32 coedge $-1 $18 $67 $68 $69 forward $7 $-1 #
-33 coedge $-1 $70 $71 $18 $34 reversed $41 $-1 #
-34 edge $-1 $72 0.13770784273484665 $38 0.15398496241575585 $18 $73 forward 7 unknown #
-35 coedge $-1 $74 $19 $71 $75 reversed $22 $-1 #
-36 coedge $-1 $19 $74 $62 $76 forward $22 $-1 #
-37 vertex $-1 $31 $77 #
-38 vertex $-1 $34 $78 #
-39 straight-curve $-1 0.019145759067406849 0.041000000000000182 0.17373805205752962 0 1 4.6906922790412817e-015 I I #
-40 face $-1 $79 $80 $4 $-1 $81 forward single #
-41 loop $-1 $-1 $82 $21 #
-42 plane-surface $-1 2.0097812303276908e-016 0.041000000000000113 0.20000000000000026 6.7168492989822002e-015 1 4.6906922790412643e-015 -1 6.7168492989821884e-015 2.6090241078691348e-015 forward_v I I I I #
-43 coedge $-1 $83 $24 $84 $85 forward $14 $-1 #
-44 coedge $-1 $24 $86 $87 $88 forward $14 $-1 #
-45 coedge $-1 $89 $59 $24 $46 reversed $7 $-1 #
-46 edge $-1 $90 -0.15398496241576465 $91 -0.12956548527946235 $24 $92 forward 7 unknown #
-47 coedge $-1 $93 $25 $94 $95 forward $10 $-1 #
-48 coedge $-1 $96 $97 $25 $49 reversed $98 $-1 #
-49 edge $-1 $56 0 $99 0.027314673678978527 $25 $100 forward 7 unknown #
-50 coedge $-1 $26 $93 $101 $102 forward $10 $-1 #
-51 coedge $-1 $103 $104 $26 $52 forward $105 $-1 #
-52 edge $-1 $57 -3.1415926535898162 $106 -2.200741281574043 $51 $107 forward 7 unknown #
-53 coedge $-1 $108 $27 $104 $109 reversed $55 $-1 #
-54 coedge $-1 $27 $108 $96 $110 reversed $55 $-1 #
-55 loop $-1 $-1 $53 $111 #
-56 vertex $-1 $49 $112 #
-57 vertex $-1 $28 $113 #
-58 ellipse-curve $-1 1.086880585532412e-015 -0.040999999999999731 0.19999999999999915 0 1 4.6906922790412817e-015 -0.032500000000000001 2.2294666113253897e-016 8.7985174701544221e-017 1 I I #
-59 coedge $-1 $45 $29 $114 $115 reversed $7 $-1 #
-60 coedge $-1 $116 $117 $29 $61 forward $118 $-1 #
-61 edge $-1 $119 3.141592653589798 $65 3.9453949725228461 $60 $120 forward 7 unknown #
-62 coedge $-1 $121 $30 $36 $76 reversed $64 $-1 #
-63 coedge $-1 $30 $122 $116 $123 reversed $64 $-1 #
-64 loop $-1 $-1 $121 $124 #
-65 vertex $-1 $61 $125 #
-66 straight-curve $-1 0.059000000000000184 0.018000000000000869 0.024999999999999429 0.25881904510252168 -5.0958040156415845e-016 -0.96592582628906798 I I #
-67 coedge $-1 $32 $126 $127 $128 reversed $7 $-1 #
-68 coedge $-1 $129 $130 $32 $69 reversed $131 $-1 #
-69 edge $-1 $132 -0.0010004913052095365 $72 0.014816826494337356 $32 $133 forward 7 unknown #
-70 coedge $-1 $134 $33 $130 $135 reversed $41 $-1 #
-71 coedge $-1 $33 $136 $35 $75 forward $41 $-1 #
-72 vertex $-1 $34 $137 #
-73 straight-curve $-1 0.059000000000000191 0.041000000000000557 0.024999999999999488 -0.25881904510252129 -1.322287589067349e-015 0.96592582628906809 I I #
-74 coedge $-1 $36 $35 $138 $139 forward $22 $-1 #
-75 edge $-1 $140 -3.1415926535897927 $38 -2.2007412815740111 $71 $141 forward 7 unknown #
-76 edge $-1 $142 -1.5707963267949889 $37 -0.62994495477920243 $36 $143 forward 7 unknown #
-77 point $-1 0.019145759067406405 0.017999999999999607 0.17373805205753268 #
-78 point $-1 0.019145759067406849 0.041000000000000182 0.17373805205752962 #
-79 face $-1 $144 $145 $4 $-1 $146 reversed single #
-80 loop $-1 $-1 $147 $40 #
-81 cone-surface $-1 1.4488410471358164e-016 -1.1796119636642288e-016 0.14499999999999866 -7.0103849975689747e-032 -2.7733391199176196e-032 -1 0.058999999999999997 -2.0980439607853847e-016 -1.4221956945448309e-016 1 I I 0 1 1 forward I I I I #
-82 coedge $-1 $136 $134 $148 $149 reversed $41 $-1 #
-83 coedge $-1 $150 $43 $151 $152 reversed $14 $-1 #
-84 coedge $-1 $114 $153 $43 $85 reversed $145 $-1 #
-85 edge $-1 $91 0.033534015178273702 $154 0.11485186998674424 $43 $155 forward 7 unknown #
-86 coedge $-1 $44 $150 $108 $156 forward $14 $-1 #
-87 coedge $-1 $104 $103 $44 $88 reversed $105 $-1 #
-88 edge $-1 $157 -1.5707963267949718 $90 -0.62994495477915158 $44 $158 forward 7 unknown #
-89 coedge $-1 $101 $45 $103 $159 reversed $7 $-1 #
-90 vertex $-1 $46 $160 #
-91 vertex $-1 $46 $161 #
-92 straight-curve $-1 0.059000000000005513 -0.018000000000000502 0.024999999999993121 0.25881904510252168 -5.0958040156415845e-016 -0.96592582628906798 I I #
-93 coedge $-1 $50 $47 $162 $163 forward $10 $-1 #
-94 coedge $-1 $164 $165 $47 $95 reversed $166 $-1 #
-95 edge $-1 $99 -0.053469837201791215 $167 -0.013015561780136409 $47 $168 forward 7 unknown #
-96 coedge $-1 $169 $48 $54 $110 forward $98 $-1 #
-97 coedge $-1 $48 $170 $164 $171 reversed $98 $-1 #
-98 loop $-1 $-1 $169 $172 #
-99 vertex $-1 $49 $173 #
-100 straight-curve $-1 -0.025617376914897742 -0.040999999999998898 0.21999999999999964 -0.61538461538461597 4.7626913517756989e-015 -0.78822698199689167 I I #
-101 coedge $-1 $174 $89 $50 $102 reversed $7 $-1 #
-102 edge $-1 $175 0.13770784273485362 $106 0.15398496241576681 $50 $176 forward 7 unknown #
-103 coedge $-1 $87 $51 $89 $159 forward $105 $-1 #
-104 coedge $-1 $51 $87 $53 $109 forward $105 $-1 #
-105 loop $-1 $-1 $87 $177 #
-106 vertex $-1 $159 $178 #
-107 ellipse-curve $-1 1.086880585532412e-015 -0.040999999999999731 0.19999999999999915 0 1 4.6906922790412817e-015 -0.032500000000000001 2.2294666113253897e-016 8.7985174701544221e-017 1 I I #
-108 coedge $-1 $54 $53 $86 $156 reversed $55 $-1 #
-109 edge $-1 $157 0.059000000000000719 $57 0.081999999999999629 $104 $179 forward 7 unknown #
-110 edge $-1 $56 0.35773648209960385 $180 0.38073648209960176 $96 $181 forward 7 unknown #
-111 face $-1 $182 $55 $4 $-1 $183 forward single #
-112 point $-1 -0.025617376914897742 -0.040999999999998898 0.21999999999999964 #
-113 point $-1 0.032500000000001084 -0.040999999999999731 0.19999999999999982 #
-114 coedge $-1 $184 $84 $59 $115 forward $145 $-1 #
-115 edge $-1 $91 2.3377903346568014 $119 3.141592653589798 $114 $185 forward 7 unknown #
-116 coedge $-1 $186 $60 $63 $123 forward $118 $-1 #
-117 coedge $-1 $60 $186 $184 $187 reversed $118 $-1 #
-118 loop $-1 $-1 $117 $144 #
-119 vertex $-1 $61 $188 #
-120 intcurve-curve $-1 forward { exactcur full nurbs 3 open 2 
	3.141592653589798 3 3.9453949725228461 3 
	0.027515969889343541 -6.2450045135165055e-017 0.14249999999999774 1 
	0.027515969889343392 0.0068852265909612673 0.14249999999999863 0.94687932235777039 
	0.026794306273149208 0.013221831328574338 0.14519328528160924 0.94687932235777039 
	0.025465984821727055 0.017999999999999662 0.15015064842710224 1 
	0 
	null_surface 
	null_surface 
	nullbs 
	nullbs 
	I I 
	0 
	0 
	0 
	F 1 F 0 } I I #
-121 coedge $-1 $189 $62 $190 $191 reversed $64 $-1 #
-122 coedge $-1 $63 $189 $192 $193 forward $64 $-1 #
-123 edge $-1 $65 0.033534015178273258 $194 0.11485186998674646 $116 $195 forward 7 unknown #
-124 face $-1 $196 $64 $4 $-1 $197 reversed single #
-125 point $-1 0.025465984821727055 0.017999999999999662 0.15015064842710224 #
-126 coedge $-1 $67 $174 $198 $199 reversed $7 $-1 #
-127 coedge $-1 $200 $201 $67 $128 forward $80 $-1 #
-128 edge $-1 $132 5.1695613274391015 $202 6.2831853071795836 $127 $203 forward 7 unknown #
-129 coedge $-1 $204 $68 $201 $205 reversed $131 $-1 #
-130 coedge $-1 $68 $206 $70 $135 forward $131 $-1 #
-131 loop $-1 $-1 $206 $207 #
-132 vertex $-1 $69 $208 #
-133 straight-curve $-1 0.025873525352936227 0.05218565063422341 0.14862968645848626 -0.16973524753480321 -0.75492890724599193 0.63346056763516978 I I #
-134 coedge $-1 $82 $70 $209 $210 reversed $41 $-1 #
-135 edge $-1 $211 0.31531007522841126 $72 0.38109506973984253 $130 $212 forward 7 unknown #
-136 coedge $-1 $71 $82 $213 $214 forward $41 $-1 #
-137 point $-1 0.023358587640239282 0.041000000000000217 0.15801556178014137 #
-138 coedge $-1 $213 $190 $74 $139 reversed $215 $-1 #
-139 edge $-1 $140 -2.1510571102112396e-016 $142 0.022999999999999361 $74 $216 forward 7 unknown #
-140 vertex $-1 $214 $217 #
-141 ellipse-curve $-1 2.0097812303276908e-016 0.041000000000000113 0.20000000000000026 0 1 4.6906922790412817e-015 -0.032500000000000001 2.1774249070460852e-016 8.7985174701544209e-017 1 I I #
-142 vertex $-1 $191 $218 #
-143 ellipse-curve $-1 6.4442895464366915e-016 0.018000000000000425 0.1999999999999971 -3.3029134982598332e-015 1 4.8572257327350583e-015 4.3911202732029164e-032 -1.179611963664227e-018 -0.032500000000000001 1 I I #
-144 face $-1 $207 $118 $4 $-1 $219 reversed single #
-145 loop $-1 $-1 $114 $79 #
-146 cone-surface $-1 0.05900000000000033 -1.7347234759768071e-016 0.16749999999999768 -1 3.552713678800493e-015 2.27595720048158e-015 2.7755575615628676e-018 6.9388939039077815e-019 -0.025000000000000022 1 I I 0 1 1 forward I I I I #
-147 coedge $-1 $220 $221 $222 $223 reversed $80 $-1 #
-148 coedge $-1 $224 $225 $82 $149 forward $226 $-1 #
-149 edge $-1 $227 0 $228 0.027314673678978461 $148 $229 forward 7 unknown #
-150 coedge $-1 $86 $83 $169 $230 forward $14 $-1 #
-151 coedge $-1 $231 $232 $83 $152 forward $233 $-1 #
-152 edge $-1 $234 -0.12280566740355645 $154 -0.090205599240884268 $151 $235 forward 7 unknown #
-153 coedge $-1 $84 $184 $231 $236 reversed $145 $-1 #
-154 vertex $-1 $152 $237 #
-155 straight-curve $-1 0.059000000000001641 -0.018000000000000807 0.15015064842710166 -1 3.552713678800493e-015 2.27595720048158e-015 I I #
-156 edge $-1 $180 2.2336701504450547 $157 4.7123889803846142 $86 $238 forward 7 unknown #
-157 vertex $-1 $156 $239 #
-158 ellipse-curve $-1 1.0875189637715698e-015 -0.018000000000000932 0.19999999999999743 -3.3029134982598332e-015 1 4.8572257327350583e-015 4.3911202732029164e-032 -1.179611963664227e-018 -0.032500000000000001 1 I I #
-159 edge $-1 $106 -0.082000000000000739 $90 -0.059000000000001059 $103 $240 forward 7 unknown #
-160 point $-1 0.019145759067406402 -0.018000000000000876 0.17373805205753082 #
-161 point $-1 0.025465984821727943 -0.017999999999999031 0.15015064842710127 #
-162 coedge $-1 $241 $242 $93 $163 reversed $243 $-1 #
-163 edge $-1 $167 0.31531007522841614 $175 0.38109506973984208 $93 $244 forward 7 unknown #
-164 coedge $-1 $245 $94 $97 $171 forward $166 $-1 #
-165 coedge $-1 $94 $246 $241 $247 reversed $166 $-1 #
-166 loop $-1 $-1 $245 $248 #
-167 vertex $-1 $163 $249 #
-168 straight-curve $-1 -0.042426406871191556 -0.041000000000000481 0.14499999999999771 -7.0103849975689747e-032 -2.7733391199176196e-032 -1 I I #
-169 coedge $-1 $170 $96 $150 $230 reversed $98 $-1 #
-170 coedge $-1 $97 $169 $232 $250 reversed $98 $-1 #
-171 edge $-1 $99 5.5148832642214076 $251 5.8996790122666534 $164 $252 forward 7 unknown #
-172 face $-1 $111 $98 $4 $-1 $253 reversed single #
-173 point $-1 -0.04242640687119284 -0.041000000000000619 0.19846983720178893 #
-174 coedge $-1 $126 $101 $242 $254 reversed $7 $-1 #
-175 vertex $-1 $163 $255 #
-176 straight-curve $-1 0.059000000000005513 -0.040999999999998413 0.024999999999992174 -0.25881904510252096 4.561894441445973e-015 0.9659258262890682 I I #
-177 face $-1 $172 $105 $4 $-1 $256 forward single #
-178 point $-1 0.019145759067406402 -0.041000000000000564 0.17373805205753209 #
-179 straight-curve $-1 0.032500000000000202 0.040999999999999898 0.20000000000000018 0 -1 -4.6906922790412817e-015 I I #
-180 vertex $-1 $156 $257 #
-181 straight-curve $-1 -0.025617376914897752 -0.39873648209960277 0.2199999999999952 0 1 4.6906922790412817e-015 I I #
-182 face $-1 $258 $233 $4 $-1 $259 forward single #
-183 cone-surface $-1 2.0097812303276908e-016 0.041000000000000113 0.20000000000000026 0 -1 -4.6906922790412817e-015 0.032500000000000001 -2.1774249070460852e-016 -8.7985174701544209e-017 1 I I 0 1 1 forward I I I I #
-184 coedge $-1 $153 $114 $117 $187 forward $145 $-1 #
-185 intcurve-curve $-1 forward { exactcur full nurbs 3 open 2 
	2.3377903346568014 3 3.141592653589798 3 
	0.025465984821727943 -0.017999999999999031 0.15015064842710127 1 
	0.026794306273149247 -0.013221831328573644 0.1451932852816088 0.94687932235777705 
	0.027515969889343368 -0.0068852265909609273 0.14249999999999857 0.94687932235777705 
	0.027515969889343541 -6.2450045135165055e-017 0.14249999999999774 1 
	0 
	null_surface 
	null_surface 
	nullbs 
	nullbs 
	I I 
	0 
	0 
	0 
	F 1 F 0 } I I #
-186 coedge $-1 $117 $116 $260 $261 reversed $118 $-1 #
-187 edge $-1 $119 0.031484030110656785 $262 0.11511903651693051 $184 $263 forward 7 unknown #
-188 point $-1 0.027515969889343541 -6.2450045135165055e-017 0.14249999999999774 #
-189 coedge $-1 $122 $121 $264 $265 reversed $64 $-1 #
-190 coedge $-1 $138 $266 $121 $191 forward $215 $-1 #
-191 edge $-1 $267 2.2336701504450773 $142 4.7123889803845973 $190 $268 forward 7 unknown #
-192 coedge $-1 $269 $260 $122 $193 reversed $233 $-1 #
-193 edge $-1 $270 -0.12280566740355302 $194 -0.090205599240886447 $122 $271 forward 7 unknown #
-194 vertex $-1 $123 $272 #
-195 straight-curve $-1 0.059000000000000309 0.017999999999998774 0.15015064842710044 -1 3.552713678800493e-015 2.27595720048158e-015 I I #
-196 face $-1 $177 $243 $4 $-1 $273 forward single #
-197 plane-surface $-1 0.059000000000005277 0.018000000000000342 0.23249999999999457 -3.3029134982598332e-015 1 1.7256332301709633e-031 -7.0103849975689747e-032 -2.7733391199176196e-032 -1 forward_v I I I I #
-198 coedge $-1 $274 $275 $126 $199 forward $166 $-1 #
-199 edge $-1 $202 0 $276 1.113623979740439 $198 $277 forward 7 unknown #
-200 coedge $-1 $221 $127 $275 $278 forward $80 $-1 #
-201 coedge $-1 $127 $279 $129 $205 forward $80 $-1 #
-202 vertex $-1 $278 $280 #
-203 intcurve-curve $-1 forward { exactcur full nurbs 3 open 2 
	5.1695613274391015 3 6.2831853071795836 3 
	0.026043343992281514 0.052940950441974319 0.14799591466837389 1 
	0.046784277776704013 0.042737822829808578 0.070589695988490797 0.89929615308559341 
	0.059000000000000365 0.023114717115290149 0.025000000000000432 0.89929615308559341 
	0.059000000000000136 -3.2612801348363973e-016 0.024999999999998801 1 
	0 
	null_surface 
	null_surface 
	nullbs 
	nullbs 
	I I 
	0 
	0 
	0 
	F 1 F 0 } I I #
-204 coedge $-1 $206 $129 $281 $282 reversed $131 $-1 #
-205 edge $-1 $283 0.43392786222028562 $132 0.4571723470543998 $201 $284 forward 7 unknown #
-206 coedge $-1 $130 $204 $285 $286 reversed $131 $-1 #
-207 face $-1 $248 $131 $4 $-1 $287 reversed single #
-208 point $-1 0.026043343992281514 0.052940950441974319 0.14799591466837389 #
-209 coedge $-1 $285 $288 $134 $210 forward $80 $-1 #
-210 edge $-1 $228 -0.053469837201784998 $211 -0.013015561780141738 $209 $289 forward 7 unknown #
-211 vertex $-1 $135 $290 #
-212 straight-curve $-1 -0.35773648209960324 0.041000000000000231 0.15801556178014042 1 -3.552713678800493e-015 -2.27595720048158e-015 I I #
-213 coedge $-1 $266 $138 $136 $214 reversed $215 $-1 #
-214 edge $-1 $227 0.66287382365010861 $140 3.1415926535897936 $136 $291 forward 7 unknown #
-215 loop $-1 $-1 $138 $258 #
-216 straight-curve $-1 0.032500000000000202 0.040999999999999898 0.20000000000000018 0 -1 -4.6906922790412817e-015 I I #
-217 point $-1 0.032500000000000202 0.041000000000000113 0.20000000000000015 #
-218 point $-1 0.032500000000000646 0.018000000000000536 0.20000000000000009 #
-219 cone-surface $-1 0.05900000000000033 -1.7347234759768071e-016 0.16749999999999768 -1 3.552713678800493e-015 2.27595720048158e-015 2.7755575615628676e-018 6.9388939039077815e-019 -0.025000000000000022 1 I I 0 1 1 forward I I I I #
-220 coedge $-1 $288 $147 $292 $293 reversed $80 $-1 #
-221 coedge $-1 $147 $200 $294 $295 forward $80 $-1 #
-222 coedge $-1 $296 $245 $147 $223 forward $166 $-1 #
-223 edge $-1 $297 0.084999999999966297 $298 0.14299999999999993 $222 $299 forward 7 unknown #
-224 coedge $-1 $300 $148 $288 $301 reversed $226 $-1 #
-225 coedge $-1 $148 $264 $266 $302 forward $226 $-1 #
-226 loop $-1 $-1 $300 $303 #
-227 vertex $-1 $214 $304 #
-228 vertex $-1 $149 $305 #
-229 straight-curve $-1 -0.025617376914897298 0.041000000000000064 0.21999999999999809 -0.61538461538461597 4.7626913517756989e-015 -0.78822698199689167 I I #
-230 edge $-1 $234 -0.047282246538316766 $180 6.233287652175379e-016 $150 $306 forward 7 unknown #
-231 coedge $-1 $260 $151 $153 $236 forward $233 $-1 #
-232 coedge $-1 $151 $307 $170 $250 forward $233 $-1 #
-233 loop $-1 $-1 $192 $182 #
-234 vertex $-1 $152 $308 #
-235 straight-curve $-1 -0.058999999999997443 -0.017999999999998809 0.059999999999996043 -0.034899496702493801 5.8229712039504324e-016 -0.99939082701909598 I I #
-236 edge $-1 $154 5.479382988246722 $262 6.2831853071796022 $231 $309 forward 7 unknown #
-237 point $-1 -0.055851869986742596 -0.017999999999999031 0.15015064842709647 #
-238 ellipse-curve $-1 1.0875189637715698e-015 -0.018000000000000932 0.19999999999999743 -3.3029134982598332e-015 1 4.8572257327350583e-015 4.3911202732029164e-032 -1.179611963664227e-018 -0.032500000000000001 1 I I #
-239 point $-1 0.032500000000001091 -0.018000000000000821 0.19999999999999987 #
-240 straight-curve $-1 0.019145759067406849 0.041000000000000182 0.17373805205752962 0 1 4.6906922790412817e-015 I I #
-241 coedge $-1 $310 $162 $165 $247 forward $243 $-1 #
-242 coedge $-1 $162 $311 $174 $254 forward $243 $-1 #
-243 loop $-1 $-1 $162 $196 #
-244 straight-curve $-1 -0.35773648209960279 -0.040999999999996956 0.15801556178013976 1 -1.0269562977782692e-014 -2.1649348980190813e-015 I I #
-245 coedge $-1 $222 $164 $307 $312 reversed $166 $-1 #
-246 coedge $-1 $165 $274 $313 $314 reversed $166 $-1 #
-247 edge $-1 $167 5.4806910233429447 $315 5.8492574449593819 $241 $316 forward 7 unknown #
-248 face $-1 $124 $166 $4 $-1 $317 forward single #
-249 point $-1 -0.042426406871186664 -0.040999999999996969 0.15801556178013412 #
-250 edge $-1 $251 0.3766601951685562 $234 0.38073648209960176 $232 $318 forward 7 unknown #
-251 vertex $-1 $250 $319 #
-252 intcurve-curve $-1 forward { exactcur full nurbs 3 open 2 
	5.5148832642214076 3 5.8996790122666534 3 
	-0.04242640687119284 -0.041000000000000619 0.19846983720178893 1 
	-0.047717989079100291 -0.035524321469633136 0.19169201440698286 0.98769903503366785 
	-0.051864912621719057 -0.029137857443065573 0.18638034923555613 0.98769903503366785 
	-0.054714144015400909 -0.022076286931046449 0.18273085750906756 1 
	0 
	null_surface 
	null_surface 
	nullbs 
	nullbs 
	I I 
	0 
	0 
	0 
	F 1 F 0 } I I #
-253 plane-surface $-1 -0.025617376914897752 -0.39873648209960277 0.2199999999999952 0.78822698199689167 -5.2954370605705733e-015 -0.61538461538461608 0.61538461538461608 -1.7650891852877747e-015 0.78822698199689167 forward_v I I I I #
-254 edge $-1 $276 0.088081119749809769 $175 0.10389843754936071 $242 $320 forward 7 unknown #
-255 point $-1 0.023358587640239282 -0.041000000000000522 0.15801556178013984 #
-256 cone-surface $-1 2.0097812303276908e-016 0.041000000000000113 0.20000000000000026 0 -1 -4.6906922790412817e-015 0.032500000000000001 -2.1774249070460852e-016 -8.7985174701544209e-017 1 I I 0 1 1 forward I I I I #
-257 point $-1 -0.025617376914899074 -0.018000000000000987 0.21999999999999925 #
-258 face $-1 $303 $215 $4 $-1 $321 forward single #
-259 plane-surface $-1 -0.058999999999994786 -0.29166300497011466 0.059999999999992691 -0.9993908270190961 3.8808827436979089e-015 0.034899496702493808 -0.034899496702493815 5.8229712039504364e-016 -0.99939082701909632 forward_v I I I I #
-260 coedge $-1 $192 $231 $186 $261 forward $233 $-1 #
-261 edge $-1 $262 1.6099418134766147e-014 $194 0.80380231893305509 $260 $322 forward 7 unknown #
-262 vertex $-1 $261 $323 #
-263 straight-curve $-1 0.05900000000000033 -1.7347234759768071e-016 0.14249999999999766 -1 3.552713678800493e-015 2.27595720048158e-015 I I #
-264 coedge $-1 $225 $300 $189 $265 forward $226 $-1 #
-265 edge $-1 $270 -0.047282246538315795 $267 1.4431857680176577e-015 $264 $324 forward 7 unknown #
-266 coedge $-1 $190 $213 $225 $302 reversed $215 $-1 #
-267 vertex $-1 $191 $325 #
-268 ellipse-curve $-1 6.4442895464366915e-016 0.018000000000000425 0.1999999999999971 -3.3029134982598332e-015 1 4.8572257327350583e-015 4.3911202732029164e-032 -1.179611963664227e-018 -0.032500000000000001 1 I I #
-269 coedge $-1 $292 $192 $300 $326 forward $233 $-1 #
-270 vertex $-1 $326 $327 #
-271 straight-curve $-1 -0.059000000000000108 0.017999999999999003 0.059999999999999692 -0.034899496702493801 5.8229712039504324e-016 -0.99939082701909598 I I #
-272 point $-1 -0.055851869986746148 0.017999999999999669 0.15015064842710232 #
-273 plane-surface $-1 -0.35773648209960279 -0.040999999999996956 0.15801556178013976 -2.0279663408951729e-015 -0.64278760968653803 0.76604444311897912 -2.8475444671151512e-015 0.76604444311898146 0.64278760968654003 forward_v I I I I #
-274 coedge $-1 $246 $198 $311 $328 reversed $166 $-1 #
-275 coedge $-1 $198 $296 $200 $278 reversed $166 $-1 #
-276 vertex $-1 $199 $329 #
-277 intcurve-curve $-1 forward { exactcur full nurbs 3 open 2 
	0 3 1.113623979740439 3 
	0.059000000000000136 -3.2612801348363973e-016 0.024999999999998801 1 
	0.059000000000000281 -0.023114717115289965 0.025000000000000185 0.89929615308560096 
	0.046784277776704797 -0.042737822829807801 0.070589695988486773 0.89929615308560096 
	0.026043343992285951 -0.05294095044197368 0.14799591466836606 1 
	0 
	null_surface 
	null_surface 
	nullbs 
	nullbs 
	I I 
	0 
	0 
	0 
	F 1 F 0 } I I #
-278 edge $-1 $202 0.11999999999999972 $330 0.14299999999999966 $200 $331 forward 7 unknown #
-279 coedge $-1 $201 $285 $332 $333 forward $80 $-1 #
-280 point $-1 0.059000000000000136 -3.2612801348363973e-016 0.024999999999998801 #
-281 coedge $-1 $332 $332 $204 $282 forward $334 $-1 #
-282 edge $-1 $335 0.33293064778624171 $283 0.38254231641296599 $281 $336 forward 7 unknown #
-283 vertex $-1 $282 $337 #
-284 intcurve-curve $-1 forward { exactcur full nurbs 3 open 2 
	0.43392786222028562 3 0.4571723470543998 3 
	0.024805834313363175 0.053531958529630205 0.14750000000000005 1 
	0.025220617917407449 0.053339754589394078 0.14766127825536132 0.99995497500055475 
	0.025633139717507546 0.053142743023063634 0.14782659058800687 0.99995497500055475 
	0.026043343992281514 0.052940950441974319 0.14799591466837389 1 
	0 
	null_surface 
	null_surface 
	nullbs 
	nullbs 
	I I 
	0 
	0 
	0 
	F 1 F 0 } I I #
-285 coedge $-1 $279 $209 $206 $286 forward $80 $-1 #
-286 edge $-1 $211 5.4806910233428816 $335 5.8492574449593375 $285 $338 forward 7 unknown #
-287 plane-surface $-1 -0.35773648209960324 0.041000000000000231 0.15801556178014042 2.3808625193030747e-015 -0.64278760968653359 -0.7660444431189829 2.6749244348866037e-015 -0.76604444311898268 0.64278760968653337 forward_v I I I I #
-288 coedge $-1 $209 $220 $224 $301 forward $80 $-1 #
-289 straight-curve $-1 -0.042426406871192444 0.041000000000000258 0.14499999999999968 -7.0103849975689747e-032 -2.7733391199176196e-032 -1 I I #
-290 point $-1 -0.042426406871191986 0.040999999999999336 0.15801556178014142 #
-291 ellipse-curve $-1 2.0097812303276908e-016 0.041000000000000113 0.20000000000000026 0 1 4.6906922790412817e-015 -0.032500000000000001 2.1774249070460852e-016 8.7985174701544209e-017 1 I I #
-292 coedge $-1 $307 $269 $220 $293 forward $233 $-1 #
-293 edge $-1 $339 5.8996790122666507 $297 6.2831853071795605 $292 $340 forward 7 unknown #
-294 coedge $-1 $341 $342 $221 $295 reversed $343 $-1 #
-295 edge $-1 $330 -3.1415926535897802 $298 -1.3144382004682847e-014 $221 $344 forward 7 unknown #
-296 coedge $-1 $275 $222 $345 $346 forward $166 $-1 #
-297 vertex $-1 $223 $347 #
-298 vertex $-1 $223 $348 #
-299 straight-curve $-1 -0.058999999999999851 8.3266726846886741e-017 0.1449999999999988 -7.0103849975689747e-032 -2.7733391199176196e-032 -1 I I #
-300 coedge $-1 $264 $224 $269 $326 reversed $226 $-1 #
-301 edge $-1 $339 0.38350629491291094 $228 0.76830204295818616 $288 $349 forward 7 unknown #
-302 edge $-1 $267 0.41673648209960135 $227 0.43973648209960281 $225 $350 forward 7 unknown #
-303 face $-1 $351 $226 $4 $-1 $352 reversed single #
-304 point $-1 -0.025617376914897298 0.041000000000000064 0.21999999999999809 #
-305 point $-1 -0.042426406871188836 0.041000000000001896 0.19846983720178468 #
-306 straight-curve $-1 -0.025617376914899518 -0.018000000000000987 0.21999999999999881 0.61538461538461608 -1.7650891852877743e-015 0.78822698199689156 I I #
-307 coedge $-1 $232 $292 $245 $312 forward $233 $-1 #
-308 point $-1 -0.054714144015402241 -0.01800000000000089 0.18273085750906845 #
-309 intcurve-curve $-1 forward { exactcur full nurbs 3 open 2 
	5.479382988246722 3 6.2831853071796022 3 
	-0.055851869986742596 -0.017999999999999031 0.15015064842709647 1 
	-0.056024984922435551 -0.013221831328571507 0.14519328528160794 0.94687932235779226 
	-0.056119036516930114 -0.0068852265909595603 0.14249999999999854 0.94687932235779226 
	-0.056119036516930176 2.2898349882893854e-016 0.14249999999999791 1 
	0 
	null_surface 
	null_surface 
	nullbs 
	nullbs 
	I I 
	0 
	0 
	0 
	F 1 F 0 } I I #
-310 coedge $-1 $311 $241 $353 $354 forward $243 $-1 #
-311 coedge $-1 $242 $310 $274 $328 forward $243 $-1 #
-312 edge $-1 $297 0 $251 0.38350629491290955 $307 $355 forward 7 unknown #
-313 coedge $-1 $353 $353 $246 $314 forward $356 $-1 #
-314 edge $-1 $315 5.8492574449593286 $357 6.7171131693998518 $313 $358 forward 7 unknown #
-315 vertex $-1 $314 $359 #
-316 intcurve-curve $-1 forward { exactcur full nurbs 3 open 2 
	5.4806910233429447 3 5.8492574449593819 3 
	-0.042426406871186664 -0.040999999999996969 0.15801556178013412 1 
	-0.037360610951292103 -0.046242037044492396 0.15361697042949146 0.9887118993308277 
	-0.031420028876858651 -0.050467048913676343 0.15007176452833965 0.9887118993308277 
	-0.024805834313357554 -0.053531958529628679 0.14749999999999538 1 
	0 
	null_surface 
	null_surface 
	nullbs 
	nullbs 
	I I 
	0 
	0 
	0 
	F 1 F 0 } I I #
-317 cone-surface $-1 1.4488410471358164e-016 -1.1796119636642288e-016 0.14499999999999866 -7.0103849975689747e-032 -2.7733391199176196e-032 -1 0.058999999999999997 -2.0980439607853847e-016 -1.4221956945448309e-016 1 I I 0 1 1 forward I I I I #
-318 straight-curve $-1 -0.05471414401539914 -0.39873648209960266 0.18273085750906129 0 1 4.6906922790412817e-015 I I #
-319 point $-1 -0.054714144015400909 -0.022076286931046449 0.18273085750906756 #
-320 straight-curve $-1 0.040993814656158901 -0.11943593392370563 0.092199998553714829 -0.16973524753480718 0.75492890724598849 0.633460567635173 I I #
-321 cone-surface $-1 2.0097812303276908e-016 0.041000000000000113 0.20000000000000026 0 -1 -4.6906922790412817e-015 0.032500000000000001 -2.1774249070460852e-016 -8.7985174701544209e-017 1 I I 0 1 1 forward I I I I #
-322 intcurve-curve $-1 forward { exactcur full nurbs 3 open 2 
	1.6099418134766147e-014 3 0.80380231893305509 3 
	-0.056119036516930176 2.2898349882893854e-016 0.14249999999999791 1 
	-0.056119036516930058 0.0068852265909614824 0.14249999999999877 0.9468793223577715 
	-0.056024984922435413 0.013221831328574456 0.14519328528160944 0.9468793223577715 
	-0.055851869986746148 0.017999999999999669 0.15015064842710232 1 
	0 
	null_surface 
	null_surface 
	nullbs 
	nullbs 
	I I 
	0 
	0 
	0 
	F 1 F 0 } I I #
-323 point $-1 -0.056119036516930176 2.2898349882893854e-016 0.14249999999999791 #
-324 straight-curve $-1 -0.025617376914899518 0.018000000000000377 0.21999999999999803 0.61538461538461608 -1.7650891852877743e-015 0.78822698199689156 I I #
-325 point $-1 -0.025617376914897742 0.0179999999999986 0.21999999999999847 #
-326 edge $-1 $270 0.41673648209960223 $339 0.42081276903064779 $269 $360 forward 7 unknown #
-327 point $-1 -0.054714144015401797 0.017999999999999586 0.18273085750906856 #
-328 edge $-1 $357 0.43392786222030078 $276 0.45717234705445742 $311 $361 forward 7 unknown #
-329 point $-1 0.026043343992285951 -0.05294095044197368 0.14799591466836606 #
-330 vertex $-1 $278 $362 #
-331 straight-curve $-1 0.059000000000000143 -3.2612801348363973e-016 0.14499999999999852 -7.0103849975689747e-032 -2.7733391199176196e-032 -1 I I #
-332 coedge $-1 $281 $281 $279 $333 reversed $334 $-1 #
-333 edge $-1 $335 5.8492574449593171 $283 6.7171131693998696 $279 $363 forward 7 unknown #
-334 loop $-1 $-1 $332 $351 #
-335 vertex $-1 $282 $364 #
-336 straight-curve $-1 -0.35773648209960279 0.053531958529630219 0.1474999999999991 1 -3.552713678800493e-015 -2.27595720048158e-015 I I #
-337 point $-1 0.024805834313363175 0.053531958529630205 0.14750000000000005 #
-338 intcurve-curve $-1 forward { exactcur full nurbs 3 open 2 
	5.4806910233428816 3 5.8492574449593375 3 
	-0.042426406871191986 0.040999999999999336 0.15801556178014142 1 
	-0.037360610951294747 0.04624203704448631 0.15361697042949365 0.98871189933082659 
	-0.031420028876861211 0.050467048913670799 0.15007176452834139 0.98871189933082659 
	-0.024805834313361107 0.053531958529630205 0.14749999999999877 1 
	0 
	null_surface 
	null_surface 
	nullbs 
	nullbs 
	I I 
	0 
	0 
	0 
	F 1 F 0 } I I #
-339 vertex $-1 $326 $365 #
-340 intcurve-curve $-1 forward { exactcur full nurbs 3 open 2 
	5.8996790122666507 3 6.2831853071795605 3 
	-0.054714144015401797 0.022076286931045144 0.18273085750906856 1 
	-0.057553709235695298 0.015038673183329729 0.10141634864729279 0.98778108579208634 
	-0.058999999999996819 0.0075888825199992987 0.060000000000005452 0.98778108579208634 
	-0.058999999999999858 8.3266726846886741e-017 0.060000000000032506 1 
	0 
	null_surface 
	null_surface 
	nullbs 
	nullbs 
	I I 
	0 
	0 
	0 
	F 1 F 0 } I I #
-341 coedge $-1 $366 $294 $367 $368 reversed $343 $-1 #
-342 coedge $-1 $294 $366 $369 $370 forward $343 $-1 #
-343 loop $-1 $-1 $341 $371 #
-344 ellipse-curve $-1 1.9984014443241704e-018 -6.4531713306337224e-016 0.0019999999999988673 7.0103849975689747e-032 2.7733391199176196e-032 1 -0.058999999999999997 2.0980439607853849e-016 1.3441331381258745e-016 1 I I #
-345 coedge $-1 $369 $367 $296 $346 reversed $372 $-1 #
-346 edge $-1 $298 -1.3144382004682847e-014 $330 3.141592653589806 $296 $373 forward 7 unknown #
-347 point $-1 -0.058999999999999858 8.3266726846886741e-017 0.060000000000032506 #
-348 point $-1 -0.058999999999999997 3.4000580129145419e-016 0.0019999999999988673 #
-349 intcurve-curve $-1 forward { exactcur full nurbs 3 open 2 
	0.38350629491291094 3 0.76830204295818616 3 
	-0.054714144015401797 0.022076286931045144 0.18273085750906856 1 
	-0.051864912621719057 0.029137857443065008 0.18638034923555566 0.98769903503366596 
	-0.047717989079099923 0.035524321469633025 0.19169201440698269 0.98769903503366596 
	-0.042426406871188836 0.041000000000001896 0.19846983720178468 1 
	0 
	null_surface 
	null_surface 
	nullbs 
	nullbs 
	I I 
	0 
	0 
	0 
	F 1 F 0 } I I #
-350 straight-curve $-1 -0.025617376914897752 -0.39873648209960277 0.2199999999999952 0 1 4.6906922790412817e-015 I I #
-351 face $-1 $371 $334 $4 $-1 $374 reversed single #
-352 plane-surface $-1 -0.025617376914897752 -0.39873648209960277 0.2199999999999952 0.78822698199689167 -5.2954370605705733e-015 -0.61538461538461608 0.61538461538461608 -1.7650891852877747e-015 0.78822698199689167 forward_v I I I I #
-353 coedge $-1 $313 $313 $310 $354 reversed $356 $-1 #
-354 edge $-1 $315 0.33293064778624482 $357 0.38254231641296688 $310 $375 forward 7 unknown #
-355 intcurve-curve $-1 forward { exactcur full nurbs 3 open 2 
	0 3 0.38350629491290955 3 
	-0.058999999999999858 8.3266726846886741e-017 0.060000000000032506 1 
	-0.058999999999997062 -0.0075888825200005963 0.059999999999999838 0.98778108579208634 
	-0.057553709235695805 -0.015038673183331103 0.10141634864728161 0.98778108579208634 
	-0.054714144015400909 -0.022076286931046449 0.18273085750906756 1 
	0 
	null_surface 
	null_surface 
	nullbs 
	nullbs 
	I I 
	0 
	0 
	0 
	F 1 F 0 } I I #
-356 loop $-1 $-1 $313 $376 #
-357 vertex $-1 $314 $377 #
-358 intcurve-curve $-1 forward { exactcur full nurbs 3 open 2 
	5.8492574449593286 3 6.7171131693998518 3 
	-0.024805834313357554 -0.053531958529628679 0.14749999999999538 1 
	-0.0088131380398878065 -0.060942712495677134 0.062794694565198511 0.93821422067378946 
	0.0088131380398947801 -0.060942712495676996 0.062794694565199274 0.93821422067378946 
	0.024805834313364507 -0.053531958529630455 0.14749999999999444 1 
	0 
	null_surface 
	null_surface 
	nullbs 
	nullbs 
	I I 
	0 
	0 
	0 
	F 1 F 0 } I I #
-359 point $-1 -0.024805834313357554 -0.053531958529628679 0.14749999999999538 #
-360 straight-curve $-1 -0.05471414401539914 -0.39873648209960266 0.18273085750906129 0 1 4.6906922790412817e-015 I I #
-361 intcurve-curve $-1 forward { exactcur full nurbs 3 open 2 
	0.43392786222030078 3 0.45717234705445742 3 
	0.024805834313364507 -0.053531958529630455 0.14749999999999444 1 
	0.025220617917409035 -0.053339754589397312 0.14766127825536143 0.99995497500055464 
	0.02563313971750987 -0.053142743023066499 0.14782659058800729 0.99995497500055464 
	0.026043343992285951 -0.05294095044197368 0.14799591466836606 1 
	0 
	null_surface 
	null_surface 
	nullbs 
	nullbs 
	I I 
	0 
	0 
	0 
	F 1 F 0 } I I #
-362 point $-1 0.058999999999999997 -7.6327832942979512e-017 0.0019999999999988673 #
-363 intcurve-curve $-1 forward { exactcur full nurbs 3 open 2 
	5.8492574449593171 3 6.7171131693998696 3 
	-0.024805834313361107 0.053531958529630205 0.14749999999999877 1 
	-0.0088131380398905768 0.060942712495674033 0.062794694565198761 0.93821422067378535 
	0.0088131380398926481 0.060942712495673977 0.062794694565200176 0.93821422067378535 
	0.024805834313363175 0.053531958529630205 0.14750000000000005 1 
	0 
	null_surface 
	null_surface 
	nullbs 
	nullbs 
	I I 
	0 
	0 
	0 
	F 1 F 0 } I I #
-364 point $-1 -0.024805834313361107 0.053531958529630205 0.14749999999999877 #
-365 point $-1 -0.054714144015401797 0.022076286931045144 0.18273085750906856 #
-366 coedge $-1 $342 $341 $378 $379 reversed $343 $-1 #
-367 coedge $-1 $345 $380 $341 $368 forward $372 $-1 #
-368 edge $-1 $381 -0.0028284271247459502 $330 9.506419183436752e-017 $367 $382 forward 7 unknown #
-369 coedge $-1 $380 $345 $342 $370 reversed $372 $-1 #
-370 edge $-1 $383 -0.0028284271247498165 $298 -9.5064191834367828e-017 $342 $384 forward 7 unknown #
-371 face $-1 $385 $343 $4 $-1 $386 forward single #
-372 loop $-1 $-1 $380 $385 #
-373 ellipse-curve $-1 1.9984014443241704e-018 -6.4531713306337224e-016 0.0019999999999988673 7.0103849975689747e-032 2.7733391199176196e-032 1 -0.058999999999999997 2.0980439607853849e-016 1.3441331381258745e-016 1 I I #
-374 plane-surface $-1 0.059000000000001135 0.05899999999999931 0.084999999999996481 3.5489999428981601e-015 -0.9961946980917461 -0.087155742747651907 2.1582328670208921e-016 -0.087155742747651935 0.99619469809174643 forward_v I I I I #
-375 straight-curve $-1 -0.35773648209960235 -0.053531958529626888 0.14749999999999883 1 -1.0269562977782692e-014 -2.1649348980190813e-015 I I #
-376 face $-1 $387 $356 $4 $-1 $388 forward single #
-377 point $-1 0.024805834313364507 -0.053531958529630455 0.14749999999999444 #
-378 coedge $-1 $389 $389 $366 $379 forward $390 $-1 #
-379 edge $-1 $383 -2.7755575615620892e-017 $381 3.1415926535898087 $378 $391 forward 7 unknown #
-380 coedge $-1 $367 $369 $389 $392 reversed $372 $-1 #
-381 vertex $-1 $379 $393 #
-382 straight-curve $-1 0.058999999999999997 -8.6042284408449632e-016 0.0019999999999987328 0.7071067811865448 -2.5987406796012178e-015 0.70710678118655024 I I #
-383 vertex $-1 $379 $394 #
-384 straight-curve $-1 -0.058999999999999997 -4.3021142204224816e-016 0.0019999999999990017 -0.70710678118654324 2.5121479338940194e-015 0.70710678118655179 I I #
-385 face $-1 $376 $372 $4 $-1 $395 forward single #
-386 cone-surface $-1 1.9984014443241704e-018 -6.4531713306337224e-016 0.0019999999999988673 7.0103849975689747e-032 2.7733391199176196e-032 1 -0.058999999999999997 2.0980439607853849e-016 1.3441331381258745e-016 1 I I 0.70710678118654402 0.70710678118655101 1 forward I I I I #
-387 face $-1 $-1 $390 $4 $-1 $396 reversed single #
-388 plane-surface $-1 0.059000000000001135 -0.058999999999998359 0.084999999999997064 3.3345940464675117e-015 -0.99619469809174555 0.087155742747658513 -3.8996126122541002e-016 0.087155742747658596 0.99619469809174643 forward_v I I I I #
-389 coedge $-1 $378 $378 $380 $392 forward $390 $-1 #
-390 loop $-1 $-1 $378 $387 #
-391 ellipse-curve $-1 2.6645352591003721e-015 2.4980018054066022e-016 -3.5768193962226765e-015 -7.0103849975689747e-032 -2.7733391199176196e-032 -1 -0.056999999999999981 2.0280999102340001e-016 1.2972956042745002e-016 1 I I #
-392 edge $-1 $381 -3.1415926535897776 $383 -2.7755575615620892e-017 $389 $397 forward 7 unknown #
-393 point $-1 0.057000000000002646 -8.5348395018058909e-016 -3.5768193962226765e-015 #
-394 point $-1 -0.056999999999997317 4.5102810375396984e-016 -3.447089835795226e-015 #
-395 cone-surface $-1 1.9984014443241704e-018 -6.4531713306337224e-016 0.0019999999999988673 7.0103849975689747e-032 2.7733391199176196e-032 1 -0.058999999999999997 2.0980439607853849e-016 1.3441331381258745e-016 1 I I 0.70710678118654402 0.70710678118655101 1 forward I I I I #
-396 plane-surface $-1 2.6645352591003721e-015 2.4980018054066022e-016 -3.5768193962226765e-015 2.27595720048158e-015 -7.9240461631868432e-030 1 -1 3.552713678800493e-015 2.27595720048158e-015 forward_v I I I I #
-397 ellipse-curve $-1 2.6645352591003721e-015 2.4980018054066022e-016 -3.5768193962226765e-015 -7.0103849975689747e-032 -2.7733391199176196e-032 -1 -0.056999999999999981 2.0280999102340001e-016 1.2972956042745002e-016 1 I I #
End-of-ACIS-data 