600 0 1 0           
37 SolidWorks(2001239)-Sat-Convertor-2.0 13 ACIS 6.0.3 NT 24 Mon Oct 08 15:26:37 2001 
1000 9.9999999999999995e-007 1e-010 
-0 body $1 $2 $-1 $-1 #
-1 string_attrib-name_attrib-gen-attrib $-1 $3 $-1 $0 keep keep_kept ignore copy 17 SW_COMPONENT_NAME 8 Staubli2 #
-2 lump $-1 $-1 $4 $0 #
-3 rgb_color-st-attrib $-1 $-1 $1 $0 1 0.50196078431372548 0 #
-4 shell $-1 $-1 $-1 $5 $-1 $2 #
-5 face $-1 $6 $7 $4 $-1 $8 forward single #
-6 face $-1 $9 $10 $4 $-1 $11 forward single #
-7 loop $-1 $-1 $12 $5 #
-8 cone-surface $-1 -2.8310687127941492e-015 -8.1459144984918422e-016 0.050500000000003334 0 1.8248635153743227e-046 1 -5.551115123125779e-017 -0.094000000000000264 2.3758772726978391e-016 1 I I 0.70710678118654413 0.7071067811865509 1 forward I I I I #
-9 face $-1 $13 $14 $4 $-1 $15 reversed single #
-10 loop $-1 $-1 $16 $6 #
-11 cone-surface $-1 -3.2751579226442118e-015 -8.0293410809062653e-016 0.0584999999999989 0 -1.8248635153743227e-046 -1 5.551115123125779e-017 0.094000000000000264 -2.3758772726978391e-016 1 I I 0 1 1 forward I I I I #
-12 coedge $-1 $17 $18 $19 $20 reversed $7 $-1 #
-13 face $-1 $21 $22 $4 $-1 $23 forward single #
-14 loop $-1 $-1 $24 $9 #
-15 plane-surface $-1 -6.106226635438361e-016 -8.175057852888301e-016 0.048500000000000001 1.2818989709841442e-030 2.525757381022228e-015 1 -4.9960036108132005e-016 -1.0000000000000029 2.5257573810222355e-015 forward_v I I I I #
-16 coedge $-1 $25 $26 $27 $28 reversed $10 $-1 #
-17 coedge $-1 $29 $12 $30 $31 forward $7 $-1 #
-18 coedge $-1 $12 $29 $32 $33 reversed $7 $-1 #
-19 coedge $-1 $24 $24 $12 $20 forward $14 $-1 #
-20 edge $-1 $34 -3.1415926535898162 $35 9.0507311790094089e-016 $19 $36 forward 7 unknown #
-21 face $-1 $37 $38 $4 $-1 $39 forward single #
-22 loop $-1 $-1 $30 $13 #
-23 cone-surface $-1 -2.8310687127941492e-015 -8.1459144984918422e-016 0.050500000000003334 0 1.8248635153743227e-046 1 -5.551115123125779e-017 -0.094000000000000264 2.3758772726978391e-016 1 I I 0.70710678118654413 0.7071067811865509 1 forward I I I I #
-24 coedge $-1 $19 $19 $40 $41 forward $14 $-1 #
-25 coedge $-1 $42 $16 $43 $44 forward $10 $-1 #
-26 coedge $-1 $16 $45 $46 $47 reversed $10 $-1 #
-27 coedge $-1 $48 $49 $16 $28 forward $50 $-1 #
-28 edge $-1 $51 -4.7243532962772657e-015 $52 0.041391128055000469 $27 $53 forward 7 unknown #
-29 coedge $-1 $18 $17 $42 $54 reversed $7 $-1 #
-30 coedge $-1 $40 $55 $17 $31 reversed $22 $-1 #
-31 edge $-1 $34 -0.002828427124748587 $56 -2.9439233600320207e-017 $17 $57 forward 7 unknown #
-32 coedge $-1 $55 $40 $18 $33 forward $22 $-1 #
-33 edge $-1 $35 -0.0028284271247485723 $58 -3.6799042000400955e-016 $32 $59 forward 7 unknown #
-34 vertex $-1 $20 $60 #
-35 vertex $-1 $20 $61 #
-36 ellipse-curve $-1 -6.106226635438361e-016 -8.175057852888301e-016 0.048500000000000001 0 -1.8248635153743227e-046 -1 2.775557561562895e-017 -0.092000000000000234 2.3236967905404561e-016 1 I I #
-37 face $-1 $62 $63 $4 $-1 $64 reversed single #
-38 loop $-1 $-1 $65 $21 #
-39 plane-surface $-1 0.0038896551724133255 0.093919489897676026 0.12350000000000005 0.04137931034482701 0.99914350954974762 -2.5530305774528796e-015 -0.99914350954974607 0.041379310344826947 8.5117078764569631e-017 forward_v I I I I #
-40 coedge $-1 $32 $30 $24 $41 reversed $22 $-1 #
-41 edge $-1 $35 4.0193462793333512e-031 $34 3.1415926535897691 $24 $66 forward 7 unknown #
-42 coedge $-1 $67 $25 $29 $54 forward $10 $-1 #
-43 coedge $-1 $68 $69 $25 $44 reversed $70 $-1 #
-44 edge $-1 $51 -0.064999999999996616 $58 0.0079999999999958021 $25 $71 forward 7 unknown #
-45 coedge $-1 $26 $72 $73 $74 reversed $10 $-1 #
-46 coedge $-1 $75 $76 $26 $47 forward $77 $-1 #
-47 edge $-1 $52 0 $78 0.064999999999997712 $46 $79 forward 7 unknown #
-48 coedge $-1 $80 $27 $76 $81 forward $50 $-1 #
-49 coedge $-1 $27 $82 $68 $83 forward $50 $-1 #
-50 loop $-1 $-1 $82 $62 #
-51 vertex $-1 $44 $84 #
-52 vertex $-1 $47 $85 #
-53 ellipse-curve $-1 -2.8033131371785203e-015 -2.484575045702548e-015 0.12349999999999575 0 1.8248635153743227e-046 1 -5.551115123125779e-017 -0.09400000000000025 2.3411828031783029e-016 1 I I #
-54 edge $-1 $58 -4.7243532962772642e-015 $56 3.1415926535897976 $42 $86 forward 7 unknown #
-55 coedge $-1 $30 $32 $69 $87 reversed $22 $-1 #
-56 vertex $-1 $88 $89 #
-57 straight-curve $-1 -2.7755575615628914e-015 0.093999999999999445 0.050500000000003098 4.3986354891104074e-016 0.70710678118654602 0.70710678118654902 I I #
-58 vertex $-1 $44 $90 #
-59 straight-curve $-1 -2.886579864025407e-015 -0.094000000000001083 0.050500000000003577 -3.5327080320384647e-016 -0.70710678118654435 0.70710678118655079 I I #
-60 point $-1 -2.7755575615628914e-015 0.091999999999999152 0.048500000000000001 #
-61 point $-1 -6.6613381477509392e-016 -0.092000000000001053 0.048500000000000237 #
-62 face $-1 $91 $92 $4 $-1 $93 forward single #
-63 loop $-1 $-1 $94 $37 #
-64 plane-surface $-1 -3.2751579226442118e-015 -8.0293410809062653e-016 0.0584999999999989 1.2818989709841442e-030 2.525757381022228e-015 1 -4.9960036108132005e-016 -1.0000000000000029 2.5257573810222355e-015 forward_v I I I I #
-65 coedge $-1 $95 $96 $97 $98 forward $38 $-1 #
-66 ellipse-curve $-1 -6.106226635438361e-016 -8.175057852888301e-016 0.048500000000000001 0 -1.8248635153743227e-046 -1 -5.551115123125779e-017 -0.092000000000000234 2.3236967905404561e-016 1 I I #
-67 coedge $-1 $99 $42 $100 $88 reversed $10 $-1 #
-68 coedge $-1 $100 $43 $49 $83 reversed $70 $-1 #
-69 coedge $-1 $43 $100 $55 $87 forward $70 $-1 #
-70 loop $-1 $-1 $43 $101 #
-71 straight-curve $-1 -3.3029134982598407e-015 -0.094000000000001069 0.058499999999999136 0 -1.8248635153743227e-046 -1 I I #
-72 coedge $-1 $45 $99 $96 $102 forward $10 $-1 #
-73 coedge $-1 $103 $104 $45 $74 forward $63 $-1 #
-74 edge $-1 $78 0.041391128055036266 $105 3.1002015255347635 $73 $106 forward 7 unknown #
-75 coedge $-1 $107 $46 $104 $108 forward $77 $-1 #
-76 coedge $-1 $46 $107 $48 $81 reversed $77 $-1 #
-77 loop $-1 $-1 $107 $91 #
-78 vertex $-1 $108 $109 #
-79 straight-curve $-1 0.0038896551724097728 -0.093919489897676553 0.12349999999999586 0 -1.8248635153743227e-046 -1 I I #
-80 coedge $-1 $97 $48 $110 $111 forward $50 $-1 #
-81 edge $-1 $52 0 $112 0.28975161776942987 $48 $113 forward 7 unknown #
-82 coedge $-1 $49 $97 $99 $114 forward $50 $-1 #
-83 edge $-1 $115 -3.1415926535897887 $51 -4.7243532962772657e-015 $49 $116 forward 7 unknown #
-84 point $-1 -3.3029134982598407e-015 -0.094000000000002457 0.12349999999999575 #
-85 point $-1 0.0038896551724097728 -0.093919489897676553 0.12349999999999586 #
-86 ellipse-curve $-1 -2.8310687127941492e-015 -8.1459144984918422e-016 0.050500000000003334 0 1.8248635153743227e-046 1 -5.551115123125779e-017 -0.094000000000000264 2.3758772726978391e-016 1 I I #
-87 edge $-1 $56 -3.1415926535897887 $58 -4.7243532962772642e-015 $69 $117 forward 7 unknown #
-88 edge $-1 $115 -0.064999999999997088 $56 0.0079999999999953303 $100 $118 forward 7 unknown #
-89 point $-1 -3.219646771412954e-015 0.093999999999999168 0.050500000000003334 #
-90 point $-1 -3.3306690738754696e-015 -0.094000000000000805 0.050500000000003334 #
-91 face $-1 $101 $77 $4 $-1 $119 reversed single #
-92 loop $-1 $50 $120 $62 #
-93 plane-surface $-1 -2.8033131371785203e-015 -2.484575045702548e-015 0.12349999999999575 1.2818989709841442e-030 2.525757381022228e-015 1 -4.9960036108132005e-016 -1.0000000000000029 2.5257573810222355e-015 forward_v I I I I #
-94 coedge $-1 $104 $121 $122 $123 reversed $63 $-1 #
-95 coedge $-1 $124 $65 $125 $126 forward $38 $-1 #
-96 coedge $-1 $65 $124 $72 $102 reversed $38 $-1 #
-97 coedge $-1 $82 $80 $65 $98 reversed $50 $-1 #
-98 edge $-1 $127 0 $128 0.28975161776942421 $65 $129 forward 7 unknown #
-99 coedge $-1 $72 $67 $82 $114 reversed $10 $-1 #
-100 coedge $-1 $69 $68 $67 $88 forward $70 $-1 #
-101 face $-1 $130 $70 $4 $-1 $131 forward single #
-102 edge $-1 $127 0 $105 0.065000000000000405 $72 $132 forward 7 unknown #
-103 coedge $-1 $133 $73 $124 $134 forward $63 $-1 #
-104 coedge $-1 $73 $94 $75 $108 reversed $63 $-1 #
-105 vertex $-1 $102 $135 #
-106 ellipse-curve $-1 -3.2751579226442118e-015 -8.0293410809062653e-016 0.0584999999999989 0 1.8248635153743227e-046 1 -5.551115123125779e-017 -0.094000000000000264 2.3758772726978391e-016 1 I I #
-107 coedge $-1 $76 $75 $136 $137 reversed $77 $-1 #
-108 edge $-1 $78 0 $138 0.28975161776942643 $75 $139 forward 7 unknown #
-109 point $-1 0.0038896551724128536 -0.093919489897679315 0.058499999999998151 #
-110 coedge $-1 $136 $125 $80 $111 reversed $140 $-1 #
-111 edge $-1 $112 0.041391128055007789 $128 3.1002015255348119 $80 $141 forward 7 unknown #
-112 vertex $-1 $137 $142 #
-113 straight-curve $-1 0.0038896551724097728 -0.093919489897676553 0.12349999999999586 0.99914350954974751 0.041379310344827801 -6.775550548360972e-016 I I #
-114 edge $-1 $127 3.1002015255347581 $115 3.1415926535897976 $82 $143 forward 7 unknown #
-115 vertex $-1 $114 $144 #
-116 ellipse-curve $-1 -2.8033131371785203e-015 -2.484575045702548e-015 0.12349999999999575 0 1.8248635153743227e-046 1 -5.551115123125779e-017 -0.09400000000000025 2.3411828031783029e-016 1 I I #
-117 ellipse-curve $-1 -2.8310687127941492e-015 -8.1459144984918422e-016 0.050500000000003334 0 1.8248635153743227e-046 1 -5.551115123125779e-017 -0.094000000000000264 2.3758772726978391e-016 1 I I #
-118 straight-curve $-1 -3.219646771412954e-015 0.093999999999999459 0.058499999999998664 0 -1.8248635153743227e-046 -1 I I #
-119 plane-surface $-1 0.0038896551724097728 -0.093919489897676553 0.12349999999999586 -0.041379310344828273 0.99914350954974751 -2.4682325085030625e-015 -0.99914350954974629 -0.041379310344828224 2.1958805717822013e-016 forward_v I I I I #
-120 coedge $-1 $145 $146 $147 $148 reversed $92 $-1 #
-121 coedge $-1 $94 $133 $149 $150 reversed $63 $-1 #
-122 coedge $-1 $151 $136 $94 $123 forward $140 $-1 #
-123 edge $-1 $138 3.100201525534791 $152 3.1415926535897931 $122 $153 forward 7 unknown #
-124 coedge $-1 $96 $95 $103 $134 reversed $38 $-1 #
-125 coedge $-1 $110 $154 $95 $126 reversed $140 $-1 #
-126 edge $-1 $128 0 $155 0.064999999999998628 $95 $156 forward 7 unknown #
-127 vertex $-1 $114 $157 #
-128 vertex $-1 $126 $158 #
-129 straight-curve $-1 0.0038896551724133255 0.093919489897676026 0.12350000000000005 0.99914350954974751 -0.041379310344827315 -8.5117078764569434e-017 I I #
-130 face $-1 $159 $140 $4 $-1 $160 forward single #
-131 cone-surface $-1 -3.2751579226442118e-015 -8.0293410809062653e-016 0.0584999999999989 0 -1.8248635153743227e-046 -1 5.551115123125779e-017 0.094000000000000264 -2.3758772726978391e-016 1 I I 0 1 1 forward I I I I #
-132 straight-curve $-1 0.0038896551724133255 0.093919489897676026 0.12350000000000005 0 -1.8248635153743227e-046 -1 I I #
-133 coedge $-1 $121 $103 $154 $161 reversed $63 $-1 #
-134 edge $-1 $105 0 $155 0.28975161776942754 $103 $162 forward 7 unknown #
-135 point $-1 0.0038896551724121875 0.093919489897674152 0.05849999999999965 #
-136 coedge $-1 $122 $110 $107 $137 forward $140 $-1 #
-137 edge $-1 $112 0 $138 0.065000000000001279 $136 $163 forward 7 unknown #
-138 vertex $-1 $137 $164 #
-139 straight-curve $-1 0.0038896551724128536 -0.093919489897679315 0.058499999999998151 0.99914350954974751 0.041379310344827801 -6.775550548360972e-016 I I #
-140 loop $-1 $-1 $122 $130 #
-141 ellipse-curve $-1 0.28999999999999942 1.7996021339783147e-016 0.12349999999999831 0 1.8248635153743227e-046 1 -5.5511151231257796e-017 -0.082000000000000253 2.027544798721696e-016 1 I I #
-142 point $-1 0.29339310344827491 -0.081929767783079296 0.12350000000000019 #
-143 ellipse-curve $-1 -2.8033131371785203e-015 -2.484575045702548e-015 0.12349999999999575 0 1.8248635153743227e-046 1 -5.551115123125779e-017 -0.09400000000000025 2.3411828031783029e-016 1 I I #
-144 point $-1 -3.1918911957973251e-015 0.093999999999997488 0.12349999999999575 #
-145 coedge $-1 $165 $120 $166 $167 reversed $92 $-1 #
-146 coedge $-1 $120 $168 $169 $170 reversed $92 $-1 #
-147 coedge $-1 $171 $172 $120 $148 forward $173 $-1 #
-148 edge $-1 $174 3.1002015255347422 $175 3.1415926535897931 $147 $176 forward 7 unknown #
-149 coedge $-1 $177 $178 $121 $150 forward $179 $-1 #
-150 edge $-1 $152 -3.1415926535897931 $180 2.3234649314789717e-030 $149 $181 forward 7 unknown #
-151 coedge $-1 $182 $122 $178 $183 forward $140 $-1 #
-152 vertex $-1 $183 $184 #
-153 ellipse-curve $-1 0.28999999999999942 8.5244311609499833e-017 0.058499999999999691 0 -1.8248635153743227e-046 -1 5.5511151231257796e-017 0.082000000000000267 -2.0795865030010005e-016 1 I I #
-154 coedge $-1 $125 $185 $133 $161 forward $140 $-1 #
-155 vertex $-1 $126 $186 #
-156 straight-curve $-1 0.29339310344827269 0.081929767783076105 0.12349999999999819 0 -1.8248635153743227e-046 -1 I I #
-157 point $-1 0.0038896551724133255 0.093919489897676026 0.12350000000000005 #
-158 point $-1 0.29339310344827269 0.081929767783076105 0.12349999999999819 #
-159 face $-1 $187 $179 $4 $-1 $188 forward single #
-160 cone-surface $-1 0.28999999999999942 1.7996021339783147e-016 0.12349999999999831 0 -1.8248635153743227e-046 -1 5.5511151231257796e-017 0.082000000000000253 -2.027544798721696e-016 1 I I 0 1 1 forward I I I I #
-161 edge $-1 $180 2.3234649314789717e-030 $155 0.041391128055009135 $154 $189 forward 7 unknown #
-162 straight-curve $-1 0.0038896551724121875 0.093919489897674152 0.05849999999999965 0.99914350954974751 -0.041379310344827315 -8.5117078764569434e-017 I I #
-163 straight-curve $-1 0.29339310344827491 -0.081929767783079296 0.12350000000000019 0 -1.8248635153743227e-046 -1 I I #
-164 point $-1 0.29339310344827446 -0.081929767783079394 0.058499999999998914 #
-165 coedge $-1 $190 $145 $191 $192 reversed $92 $-1 #
-166 coedge $-1 $193 $194 $145 $167 forward $195 $-1 #
-167 edge $-1 $196 0 $174 0.28975161776942182 $166 $197 forward 7 unknown #
-168 coedge $-1 $146 $190 $198 $199 reversed $92 $-1 #
-169 coedge $-1 $200 $201 $146 $170 forward $202 $-1 #
-170 edge $-1 $175 -3.1415926535897931 $203 5.9114411418820977e-031 $169 $204 forward 7 unknown #
-171 coedge $-1 $205 $147 $201 $206 reversed $173 $-1 #
-172 coedge $-1 $147 $205 $193 $207 forward $173 $-1 #
-173 loop $-1 $-1 $171 $208 #
-174 vertex $-1 $207 $209 #
-175 vertex $-1 $206 $210 #
-176 ellipse-curve $-1 -2.8033131371785203e-015 -2.484575045702548e-015 0.12349999999999575 0 1.8248635153743227e-046 1 -2.7755575615628889e-017 -0.070000000000000159 1.7139067942650878e-016 1 I I #
-177 coedge $-1 $211 $149 $185 $212 forward $179 $-1 #
-178 coedge $-1 $149 $211 $151 $183 reversed $179 $-1 #
-179 loop $-1 $-1 $178 $159 #
-180 vertex $-1 $150 $213 #
-181 ellipse-curve $-1 0.28999999999999942 8.5244311609499833e-017 0.058499999999999691 0 -1.8248635153743227e-046 -1 5.5511151231257796e-017 0.082000000000000267 -2.0795865030010005e-016 1 I I #
-182 coedge $-1 $185 $151 $214 $215 forward $140 $-1 #
-183 edge $-1 $152 0.064999999999998809 $216 0.067999999999999811 $151 $217 forward 7 unknown #
-184 point $-1 0.28999999999999937 -0.081999999999999948 0.058499999999999691 #
-185 coedge $-1 $154 $182 $177 $212 reversed $140 $-1 #
-186 point $-1 0.29339310344827513 0.08192976778307956 0.058499999999999566 #
-187 face $-1 $208 $202 $4 $-1 $218 forward single #
-188 cone-surface $-1 0.28999999999999942 1.7996021339783147e-016 0.12349999999999831 0 -1.8248635153743227e-046 -1 5.5511151231257796e-017 0.082000000000000253 -2.027544798721696e-016 1 I I 0 1 1 forward I I I I #
-189 ellipse-curve $-1 0.28999999999999942 8.5244311609499833e-017 0.058499999999999691 0 -1.8248635153743227e-046 -1 5.5511151231257796e-017 0.082000000000000267 -2.0795865030010005e-016 1 I I #
-190 coedge $-1 $168 $165 $219 $220 reversed $92 $-1 #
-191 coedge $-1 $221 $222 $165 $192 forward $223 $-1 #
-192 edge $-1 $224 0.041391128054992593 $196 3.1002015255348567 $191 $225 forward 7 unknown #
-193 coedge $-1 $226 $166 $172 $207 reversed $195 $-1 #
-194 coedge $-1 $166 $226 $221 $227 forward $195 $-1 #
-195 loop $-1 $-1 $226 $228 #
-196 vertex $-1 $227 $229 #
-197 straight-curve $-1 0.29239999999999494 0.057950323553881591 0.1235 -0.99914350954974751 0.041379310344827315 8.5117078764569434e-017 I I #
-198 coedge $-1 $230 $231 $168 $199 forward $232 $-1 #
-199 edge $-1 $203 5.9114411418820977e-031 $233 0.041391128055055224 $198 $234 forward 7 unknown #
-200 coedge $-1 $235 $169 $231 $236 reversed $202 $-1 #
-201 coedge $-1 $169 $235 $171 $206 forward $202 $-1 #
-202 loop $-1 $-1 $235 $187 #
-203 vertex $-1 $236 $237 #
-204 ellipse-curve $-1 -2.8033131371785203e-015 -2.484575045702548e-015 0.12349999999999575 0 1.8248635153743227e-046 1 -2.7755575615628889e-017 -0.070000000000000159 1.7139067942650878e-016 1 I I #
-205 coedge $-1 $172 $171 $238 $239 reversed $173 $-1 #
-206 edge $-1 $240 -0.03535533905932859 $175 -2.3551386880256629e-016 $201 $241 forward 7 unknown #
-207 edge $-1 $242 -0.035355339059329124 $174 0 $172 $243 forward 7 unknown #
-208 face $-1 $244 $173 $4 $-1 $245 forward single #
-209 point $-1 0.0028965517241380245 0.069940045668482401 0.12350000000000008 #
-210 point $-1 -2.7755575615628914e-015 0.069999999999997509 0.12349999999999572 #
-211 coedge $-1 $178 $177 $246 $247 forward $179 $-1 #
-212 edge $-1 $180 0.06499999999999842 $248 0.06799999999999963 $177 $249 forward 7 unknown #
-213 point $-1 0.28999999999999948 0.082000000000000114 0.058499999999999691 #
-214 coedge $-1 $250 $251 $182 $215 reversed $252 $-1 #
-215 edge $-1 $216 -3.1415926535897976 $248 6.7696525891777582e-016 $182 $253 forward 7 unknown #
-216 vertex $-1 $247 $254 #
-217 straight-curve $-1 0.28999999999999937 -0.082000000000000073 0.1234999999999985 0 -1.8248635153743227e-046 -1 I I #
-218 cone-surface $-1 -2.8033131371785203e-015 -2.484575045702548e-015 0.12349999999999575 0 -1.8248635153743227e-046 -1 -2.7755575615628889e-017 -0.070000000000000159 1.7139067942650878e-016 1 I I 0.70710678118654879 0.70710678118654624 1 forward I I I I #
-219 coedge $-1 $255 $256 $190 $220 forward $257 $-1 #
-220 edge $-1 $233 0 $224 0.28975161776942499 $219 $258 forward 7 unknown #
-221 coedge $-1 $259 $191 $194 $227 reversed $223 $-1 #
-222 coedge $-1 $191 $259 $255 $260 forward $223 $-1 #
-223 loop $-1 $-1 $221 $261 #
-224 vertex $-1 $220 $262 #
-225 ellipse-curve $-1 0.28999999999999942 1.7996021339783147e-016 0.12349999999999831 0 1.8248635153743227e-046 1 -5.5511151231257809e-017 -0.058000000000000163 1.4002687898084811e-016 1 I I #
-226 coedge $-1 $194 $193 $263 $264 reversed $195 $-1 #
-227 edge $-1 $265 -0.035355339059325128 $196 0 $194 $266 forward 7 unknown #
-228 face $-1 $267 $195 $4 $-1 $268 forward single #
-229 point $-1 0.29239999999999494 0.057950323553881591 0.1235 #
-230 coedge $-1 $269 $198 $256 $270 reversed $232 $-1 #
-231 coedge $-1 $198 $269 $200 $236 forward $232 $-1 #
-232 loop $-1 $-1 $269 $244 #
-233 vertex $-1 $220 $271 #
-234 ellipse-curve $-1 -2.8033131371785203e-015 -2.484575045702548e-015 0.12349999999999575 0 1.8248635153743227e-046 1 -2.7755575615628889e-017 -0.070000000000000159 1.7139067942650878e-016 1 I I #
-235 coedge $-1 $201 $200 $272 $273 reversed $202 $-1 #
-236 edge $-1 $274 -0.035355339059332129 $203 2.3551386880256624e-016 $231 $275 forward 7 unknown #
-237 point $-1 -2.8310687127941492e-015 -0.07000000000000281 0.12349999999999575 #
-238 coedge $-1 $272 $263 $205 $239 forward $276 $-1 #
-239 edge $-1 $242 3.1002015255348652 $240 3.1415926535898375 $238 $277 forward 7 unknown #
-240 vertex $-1 $206 $278 #
-241 straight-curve $-1 -2.7755575615628914e-015 0.069999999999997675 0.12349999999999556 2.6667805749665511e-016 0.70710678118654902 -0.70710678118654613 I I #
-242 vertex $-1 $264 $279 #
-243 straight-curve $-1 0.0028965517241380245 0.069940045668482401 0.12350000000000008 0.02925959094565022 0.70650115098115407 -0.70710678118654602 I I #
-244 face $-1 $261 $232 $4 $-1 $280 forward single #
-245 cone-surface $-1 -2.8033131371785203e-015 -2.484575045702548e-015 0.12349999999999575 0 -1.8248635153743227e-046 -1 -2.7755575615628889e-017 -0.070000000000000159 1.7139067942650878e-016 1 I I 0.70710678118654879 0.70710678118654624 1 forward I I I I #
-246 coedge $-1 $281 $282 $211 $247 reversed $283 $-1 #
-247 edge $-1 $248 -3.7576659390711511e-031 $216 3.1415926535897878 $211 $284 forward 7 unknown #
-248 vertex $-1 $247 $285 #
-249 straight-curve $-1 0.28999999999999948 0.082000000000000434 0.12349999999999811 0 -1.8248635153743227e-046 -1 I I #
-250 coedge $-1 $286 $214 $282 $287 reversed $252 $-1 #
-251 coedge $-1 $214 $286 $281 $288 forward $252 $-1 #
-252 loop $-1 $-1 $286 $267 #
-253 ellipse-curve $-1 0.28999999999999987 9.6905122815016201e-016 0.055499999999998689 0 1.8248635153743227e-046 1 1.1102230246251562e-016 0.082000000000000253 -2.0709128856211164e-016 1 I I #
-254 point $-1 0.28999999999999937 -0.081999999999999046 0.055499999999998689 #
-255 coedge $-1 $289 $219 $222 $260 reversed $257 $-1 #
-256 coedge $-1 $219 $289 $230 $270 forward $257 $-1 #
-257 loop $-1 $-1 $255 $290 #
-258 straight-curve $-1 0.0028965517241380245 -0.06994004566848204 0.12350000000000028 0.99914350954974751 0.041379310344827523 -7.6776067558689077e-016 I I #
-259 coedge $-1 $222 $221 $291 $292 reversed $223 $-1 #
-260 edge $-1 $293 -0.035355339059328326 $224 0 $222 $294 forward 7 unknown #
-261 face $-1 $290 $223 $4 $-1 $295 forward single #
-262 point $-1 0.29239999999999827 -0.057950323553885671 0.12349999999999928 #
-263 coedge $-1 $238 $291 $226 $264 forward $276 $-1 #
-264 edge $-1 $265 0 $242 0.28975161776942948 $263 $296 forward 7 unknown #
-265 vertex $-1 $227 $297 #
-266 straight-curve $-1 0.29239999999999494 0.057950323553881591 0.1235 0.029259590945650317 0.70650115098115385 -0.70710678118654613 I I #
-267 face $-1 $298 $252 $4 $-1 $299 forward single #
-268 plane-surface $-1 0.29239999999999494 0.057950323553881591 0.1235 0.029259590945650352 0.70650115098115085 0.70710678118654913 -5.2702986179671328e-016 -0.70740966110100334 0.70680377148185081 forward_v I I I I #
-269 coedge $-1 $231 $230 $300 $301 reversed $232 $-1 #
-270 edge $-1 $302 -0.035355339059327161 $233 0 $256 $303 forward 7 unknown #
-271 point $-1 0.0028965517241380245 -0.06994004566848204 0.12350000000000028 #
-272 coedge $-1 $300 $238 $235 $273 forward $276 $-1 #
-273 edge $-1 $240 -3.1415926535897487 $274 -4.4408920985006413e-014 $272 $304 forward 7 unknown #
-274 vertex $-1 $301 $305 #
-275 straight-curve $-1 -2.8310687127941492e-015 -0.070000000000002643 0.12349999999999592 -3.5327080320384968e-016 -0.70710678118655068 -0.70710678118654435 I I #
-276 loop $-1 $-1 $238 $306 #
-277 ellipse-curve $-1 -8.0491169285323849e-016 2.1638940639334639e-016 0.14849999999999966 0 1.8248635153743227e-046 1 -2.7755575615628898e-017 -0.044999999999999978 1.0720591081536666e-016 1 I I #
-278 point $-1 -2.7755575615628914e-015 0.045000000000000061 0.14849999999999966 #
-279 point $-1 0.0018620689655125255 0.044961457929735042 0.14849999999999869 #
-280 cone-surface $-1 -2.8033131371785203e-015 -2.484575045702548e-015 0.12349999999999575 0 -1.8248635153743227e-046 -1 -2.7755575615628889e-017 -0.070000000000000159 1.7139067942650878e-016 1 I I 0.70710678118654879 0.70710678118654624 1 forward I I I I #
-281 coedge $-1 $307 $246 $251 $288 reversed $283 $-1 #
-282 coedge $-1 $246 $307 $250 $287 forward $283 $-1 #
-283 loop $-1 $-1 $281 $298 #
-284 ellipse-curve $-1 0.28999999999999987 9.6905122815016201e-016 0.055499999999998689 0 1.8248635153743227e-046 1 5.5511151231257796e-017 0.082000000000000253 -2.0709128856211162e-016 1 I I #
-285 point $-1 0.28999999999999992 0.082000000000001225 0.055499999999998481 #
-286 coedge $-1 $251 $250 $308 $309 reversed $252 $-1 #
-287 edge $-1 $310 -3.091119528033683e-016 $216 0.002828427124745118 $282 $311 forward 7 unknown #
-288 edge $-1 $312 -1.9626155733549112e-017 $248 0.0028284271247466836 $251 $313 forward 7 unknown #
-289 coedge $-1 $256 $255 $314 $315 reversed $257 $-1 #
-290 face $-1 $228 $257 $4 $-1 $316 forward single #
-291 coedge $-1 $263 $314 $259 $292 forward $276 $-1 #
-292 edge $-1 $293 0.041391128055186063 $265 3.1002015255346631 $291 $317 forward 7 unknown #
-293 vertex $-1 $315 $318 #
-294 straight-curve $-1 0.29239999999999827 -0.057950323553885671 0.12349999999999928 0.029259590945650026 -0.70650115098115485 -0.70710678118654513 I I #
-295 cone-surface $-1 0.28999999999999942 1.7996021339783147e-016 0.12349999999999831 0 -1.8248635153743227e-046 -1 -5.5511151231257809e-017 -0.058000000000000163 1.4002687898084811e-016 1 I I 0.70710678118654879 0.70710678118654624 1 forward I I I I #
-296 straight-curve $-1 0.29136551724137749 0.032971735815141338 0.14850000000000038 -0.99914350954974751 0.041379310344827315 8.5117078764569434e-017 I I #
-297 point $-1 0.29136551724137749 0.032971735815141338 0.14850000000000038 #
-298 face $-1 $306 $283 $4 $-1 $319 forward single #
-299 cone-surface $-1 0.2899999999999992 7.7958473010396105e-017 0.05349999999999891 0 1.8248635153743227e-046 1 -5.5511151231257796e-017 -0.080000000000000224 2.0244222964649374e-016 1 I I 0.7071067811865499 0.70710678118654513 1 forward I I I I #
-300 coedge $-1 $314 $272 $269 $301 forward $276 $-1 #
-301 edge $-1 $274 -4.4408920985006413e-014 $302 0.041391128054994071 $300 $320 forward 7 unknown #
-302 vertex $-1 $301 $321 #
-303 straight-curve $-1 0.0028965517241380245 -0.06994004566848204 0.12350000000000028 0.029259590945649724 -0.70650115098115551 -0.70710678118654446 I I #
-304 ellipse-curve $-1 -8.0491169285323849e-016 2.1638940639334639e-016 0.14849999999999966 0 1.8248635153743227e-046 1 -2.7755575615628898e-017 -0.044999999999999978 1.0720591081536666e-016 1 I I #
-305 point $-1 -2.8310687127941492e-015 -0.044999999999999631 0.14849999999999963 #
-306 face $-1 $322 $276 $4 $-1 $323 forward single #
-307 coedge $-1 $282 $281 $324 $325 reversed $283 $-1 #
-308 coedge $-1 $324 $324 $286 $309 forward $326 $-1 #
-309 edge $-1 $312 2.4315100646758954e-030 $310 3.1415926535897931 $308 $327 forward 7 unknown #
-310 vertex $-1 $287 $328 #
-311 straight-curve $-1 0.28999999999999915 -0.08000000000000014 0.053499999999999111 -3.5327080320384943e-016 -0.70710678118655013 0.70710678118654491 I I #
-312 vertex $-1 $325 $329 #
-313 straight-curve $-1 0.28999999999999926 0.080000000000000307 0.053499999999998701 4.3986354891104439e-016 0.7071067811865519 0.70710678118654324 I I #
-314 coedge $-1 $291 $300 $289 $315 forward $276 $-1 #
-315 edge $-1 $302 0 $293 0.28975161776942815 $314 $330 forward 7 unknown #
-316 plane-surface $-1 0.0028965517241380245 -0.06994004566848204 0.12350000000000028 0.029259590945649543 -0.70650115098115041 0.70710678118654979 -8.3592801747122794e-017 -0.70740966110100245 -0.7068037714818487 forward_v I I I I #
-317 ellipse-curve $-1 0.28999999999999415 -3.3363242724071611e-015 0.14849999999999511 0 1.8248635153743227e-046 1 1.4733364074562354e-032 -0.032999999999999995 8.9719898177520461e-017 1 I I #
-318 point $-1 0.29136551724137905 -0.032971735815140908 0.1484999999999996 #
-319 cone-surface $-1 0.2899999999999992 7.7958473010396105e-017 0.05349999999999891 0 1.8248635153743227e-046 1 -5.5511151231257796e-017 -0.080000000000000224 2.0244222964649374e-016 1 I I 0.7071067811865499 0.70710678118654513 1 forward I I I I #
-320 ellipse-curve $-1 -8.0491169285323849e-016 2.1638940639334639e-016 0.14849999999999966 0 1.8248635153743227e-046 1 -2.7755575615628898e-017 -0.044999999999999978 1.0720591081536666e-016 1 I I #
-321 point $-1 0.0018620689655156342 -0.044961457929739053 0.1485000000000006 #
-322 face $-1 $-1 $326 $4 $-1 $331 forward single #
-323 plane-surface $-1 -8.0491169285323849e-016 2.1638940639334639e-016 0.14849999999999966 1.2818989709841442e-030 2.525757381022228e-015 1 -4.9960036108132005e-016 -1.0000000000000029 2.5257573810222355e-015 forward_v I I I I #
-324 coedge $-1 $308 $308 $307 $325 forward $326 $-1 #
-325 edge $-1 $310 -3.1415926535897931 $312 2.4315100646758954e-030 $324 $332 forward 7 unknown #
-326 loop $-1 $-1 $324 $322 #
-327 ellipse-curve $-1 0.2899999999999992 7.7958473010396105e-017 0.05349999999999891 0 -1.8248635153743227e-046 -1 5.5511151231257796e-017 0.080000000000000224 -2.0244222964649374e-016 1 I I #
-328 point $-1 0.28999999999999915 -0.079999999999999905 0.05349999999999891 #
-329 point $-1 0.28999999999999926 0.080000000000000071 0.05349999999999891 #
-330 straight-curve $-1 0.0018620689655156342 -0.044961457929739053 0.1485000000000006 0.99914350954974751 0.041379310344827523 -7.6776067558689077e-016 I I #
-331 plane-surface $-1 0.2899999999999992 7.7958473010396105e-017 0.05349999999999891 -1.2818989709841442e-030 -2.525757381022228e-015 -1 4.9960036108132005e-016 1.0000000000000029 -2.5257573810222355e-015 forward_v I I I I #
-332 ellipse-curve $-1 0.2899999999999992 7.7958473010396105e-017 0.05349999999999891 0 -1.8248635153743227e-046 -1 5.5511151231257796e-017 0.080000000000000224 -2.0244222964649374e-016 1 I I #
End-of-ACIS-data 