solid ascii
  facet normal 3.225254e-016 7.071068e-001 7.071068e-001
    outer loop
      vertex   4.562478e-016 4.900000e-002 2.029646e-002
      vertex   4.631839e-016 2.029646e-002 4.900000e-002
      vertex   2.650000e-001 4.900000e-002 2.029646e-002
    endloop
  endfacet
  facet normal 3.147591e-016 7.071068e-001 7.071068e-001
    outer loop
      vertex   2.650000e-001 4.900000e-002 2.029646e-002
      vertex   4.631839e-016 2.029646e-002 4.900000e-002
      vertex   2.650000e-001 2.029646e-002 4.900000e-002
    endloop
  endfacet
  facet normal 1.000000e+000 0.000000e+000 0.000000e+000
    outer loop
      vertex   2.650000e-001 -2.029646e-002 4.900000e-002
      vertex   2.650000e-001 -4.900000e-002 -2.029646e-002
      vertex   2.650000e-001 2.029646e-002 4.900000e-002
    endloop
  endfacet
  facet normal 1.000000e+000 0.000000e+000 0.000000e+000
    outer loop
      vertex   2.650000e-001 -2.029646e-002 4.900000e-002
      vertex   2.650000e-001 -4.900000e-002 2.029646e-002
      vertex   2.650000e-001 -4.900000e-002 -2.029646e-002
    endloop
  endfacet
  facet normal 1.000000e+000 0.000000e+000 0.000000e+000
    outer loop
      vertex   2.650000e-001 -4.900000e-002 -2.029646e-002
      vertex   2.650000e-001 -2.029646e-002 -4.900000e-002
      vertex   2.650000e-001 2.029646e-002 4.900000e-002
    endloop
  endfacet
  facet normal 1.000000e+000 0.000000e+000 0.000000e+000
    outer loop
      vertex   2.650000e-001 2.029646e-002 4.900000e-002
      vertex   2.650000e-001 -2.029646e-002 -4.900000e-002
      vertex   2.650000e-001 4.900000e-002 2.029646e-002
    endloop
  endfacet
  facet normal 1.000000e+000 0.000000e+000 0.000000e+000
    outer loop
      vertex   2.650000e-001 4.900000e-002 2.029646e-002
      vertex   2.650000e-001 -2.029646e-002 -4.900000e-002
      vertex   2.650000e-001 2.029646e-002 -4.900000e-002
    endloop
  endfacet
  facet normal 1.000000e+000 0.000000e+000 0.000000e+000
    outer loop
      vertex   2.650000e-001 4.900000e-002 -2.029646e-002
      vertex   2.650000e-001 4.900000e-002 2.029646e-002
      vertex   2.650000e-001 2.029646e-002 -4.900000e-002
    endloop
  endfacet
  facet normal 3.665831e-016 8.546924e-016 1.000000e+000
    outer loop
      vertex   4.631839e-016 2.029646e-002 4.900000e-002
      vertex   4.589346e-016 -2.029646e-002 4.900000e-002
      vertex   2.650000e-001 2.029646e-002 4.900000e-002
    endloop
  endfacet
  facet normal 3.665831e-016 8.546924e-016 1.000000e+000
    outer loop
      vertex   2.650000e-001 2.029646e-002 4.900000e-002
      vertex   4.589346e-016 -2.029646e-002 4.900000e-002
      vertex   2.650000e-001 -2.029646e-002 4.900000e-002
    endloop
  endfacet
  facet normal -1.000000e+000 1.046808e-016 3.463279e-016
    outer loop
      vertex   4.459891e-016 -4.900000e-002 2.029646e-002
      vertex   4.589346e-016 -2.029646e-002 4.900000e-002
      vertex   4.319306e-016 -4.900000e-002 -2.029646e-002
    endloop
  endfacet
  facet normal -1.000000e+000 1.046808e-016 3.463279e-016
    outer loop
      vertex   4.319306e-016 -4.900000e-002 -2.029646e-002
      vertex   4.589346e-016 -2.029646e-002 4.900000e-002
      vertex   4.631839e-016 2.029646e-002 4.900000e-002
    endloop
  endfacet
  facet normal -1.000000e+000 1.046808e-016 3.463279e-016
    outer loop
      vertex   4.562478e-016 4.900000e-002 2.029646e-002
      vertex   4.319306e-016 -4.900000e-002 -2.029646e-002
      vertex   4.631839e-016 2.029646e-002 4.900000e-002
    endloop
  endfacet
  facet normal -1.000000e+000 1.046808e-016 3.463279e-016
    outer loop
      vertex   4.562478e-016 4.900000e-002 2.029646e-002
      vertex   4.249945e-016 -2.029646e-002 -4.900000e-002
      vertex   4.319306e-016 -4.900000e-002 -2.029646e-002
    endloop
  endfacet
  facet normal -1.000000e+000 1.046808e-016 3.463279e-016
    outer loop
      vertex   4.562478e-016 4.900000e-002 2.029646e-002
      vertex   4.292438e-016 2.029646e-002 -4.900000e-002
      vertex   4.249945e-016 -2.029646e-002 -4.900000e-002
    endloop
  endfacet
  facet normal -1.000000e+000 1.046808e-016 3.463279e-016
    outer loop
      vertex   4.562478e-016 4.900000e-002 2.029646e-002
      vertex   4.421893e-016 4.900000e-002 -2.029646e-002
      vertex   4.292438e-016 2.029646e-002 -4.900000e-002
    endloop
  endfacet
  facet normal 7.855352e-017 1.000000e+000 -8.546924e-016
    outer loop
      vertex   4.421893e-016 4.900000e-002 -2.029646e-002
      vertex   4.562478e-016 4.900000e-002 2.029646e-002
      vertex   2.650000e-001 4.900000e-002 -2.029646e-002
    endloop
  endfacet
  facet normal 7.855352e-017 1.000000e+000 -8.546924e-016
    outer loop
      vertex   2.650000e-001 4.900000e-002 -2.029646e-002
      vertex   4.562478e-016 4.900000e-002 2.029646e-002
      vertex   2.650000e-001 4.900000e-002 2.029646e-002
    endloop
  endfacet
  facet normal -3.665831e-016 -8.546924e-016 -1.000000e+000
    outer loop
      vertex   4.249945e-016 -2.029646e-002 -4.900000e-002
      vertex   4.292438e-016 2.029646e-002 -4.900000e-002
      vertex   2.650000e-001 -2.029646e-002 -4.900000e-002
    endloop
  endfacet
  facet normal -3.665831e-016 -8.546924e-016 -1.000000e+000
    outer loop
      vertex   2.650000e-001 -2.029646e-002 -4.900000e-002
      vertex   4.292438e-016 2.029646e-002 -4.900000e-002
      vertex   2.650000e-001 2.029646e-002 -4.900000e-002
    endloop
  endfacet
  facet normal 2.015784e-016 -7.071068e-001 7.071068e-001
    outer loop
      vertex   4.589346e-016 -2.029646e-002 4.900000e-002
      vertex   4.459891e-016 -4.900000e-002 2.029646e-002
      vertex   2.650000e-001 -2.029646e-002 4.900000e-002
    endloop
  endfacet
  facet normal 2.036677e-016 -7.071068e-001 7.071068e-001
    outer loop
      vertex   2.650000e-001 -2.029646e-002 4.900000e-002
      vertex   4.459891e-016 -4.900000e-002 2.029646e-002
      vertex   2.650000e-001 -4.900000e-002 2.029646e-002
    endloop
  endfacet
  facet normal -2.015784e-016 7.071068e-001 -7.071068e-001
    outer loop
      vertex   4.292438e-016 2.029646e-002 -4.900000e-002
      vertex   4.421893e-016 4.900000e-002 -2.029646e-002
      vertex   2.650000e-001 2.029646e-002 -4.900000e-002
    endloop
  endfacet
  facet normal -2.036677e-016 7.071068e-001 -7.071068e-001
    outer loop
      vertex   2.650000e-001 2.029646e-002 -4.900000e-002
      vertex   4.421893e-016 4.900000e-002 -2.029646e-002
      vertex   2.650000e-001 4.900000e-002 -2.029646e-002
    endloop
  endfacet
  facet normal -7.855352e-017 -1.000000e+000 5.128155e-016
    outer loop
      vertex   4.459891e-016 -4.900000e-002 2.029646e-002
      vertex   4.319306e-016 -4.900000e-002 -2.029646e-002
      vertex   2.650000e-001 -4.900000e-002 2.029646e-002
    endloop
  endfacet
  facet normal -7.855352e-017 -1.000000e+000 5.128155e-016
    outer loop
      vertex   2.650000e-001 -4.900000e-002 2.029646e-002
      vertex   4.319306e-016 -4.900000e-002 -2.029646e-002
      vertex   2.650000e-001 -4.900000e-002 -2.029646e-002
    endloop
  endfacet
  facet normal -3.124465e-016 -7.071068e-001 -7.071068e-001
    outer loop
      vertex   4.319306e-016 -4.900000e-002 -2.029646e-002
      vertex   4.249945e-016 -2.029646e-002 -4.900000e-002
      vertex   2.650000e-001 -4.900000e-002 -2.029646e-002
    endloop
  endfacet
  facet normal -3.055015e-016 -7.071068e-001 -7.071068e-001
    outer loop
      vertex   2.650000e-001 -4.900000e-002 -2.029646e-002
      vertex   4.249945e-016 -2.029646e-002 -4.900000e-002
      vertex   2.650000e-001 -2.029646e-002 -4.900000e-002
    endloop
  endfacet
endsolid
