solid stl file generated from AC3D
 facet normal 0.109902 0.993916 -0.007287
  outer loop
   vertex 0.000000 -0.025000 0.050000
   vertex 0.009755 -0.026079 0.050000
   vertex 0.009012 -0.026079 0.038801
  endloop
 endfacet
 facet normal 0.093311 0.995420 -0.020783
  outer loop
   vertex 0.000000 -0.025000 0.050000
   vertex 0.009012 -0.026079 0.038801
   vertex 0.006897 -0.026079 0.029308
  endloop
 endfacet
 facet normal 0.062483 0.997559 -0.031171
  outer loop
   vertex 0.000000 -0.025000 0.050000
   vertex 0.006897 -0.026079 0.029308
   vertex 0.003733 -0.026079 0.022964
  endloop
 endfacet
 facet normal 0.021975 0.999080 -0.036824
  outer loop
   vertex 0.000000 -0.025000 0.050000
   vertex 0.003733 -0.026079 0.022964
   vertex 0.000000 -0.026079 0.020736
  endloop
 endfacet
 facet normal -0.021975 0.999080 -0.036824
  outer loop
   vertex 0.000000 -0.025000 0.050000
   vertex 0.000000 -0.026079 0.020736
   vertex -0.003733 -0.026079 0.022964
  endloop
 endfacet
 facet normal -0.062483 0.997559 -0.031171
  outer loop
   vertex 0.000000 -0.025000 0.050000
   vertex -0.003733 -0.026079 0.022964
   vertex -0.006897 -0.026079 0.029308
  endloop
 endfacet
 facet normal -0.093311 0.995420 -0.020783
  outer loop
   vertex 0.000000 -0.025000 0.050000
   vertex -0.006897 -0.026079 0.029308
   vertex -0.009012 -0.026079 0.038801
  endloop
 endfacet
 facet normal -0.109902 0.993916 -0.007287
  outer loop
   vertex 0.000000 -0.025000 0.050000
   vertex -0.009012 -0.026079 0.038801
   vertex -0.009755 -0.026079 0.050000
  endloop
 endfacet
 facet normal -0.109902 0.993916 0.007287
  outer loop
   vertex 0.000000 -0.025000 0.050000
   vertex -0.009755 -0.026079 0.050000
   vertex -0.009012 -0.026079 0.061199
  endloop
 endfacet
 facet normal -0.093311 0.995420 0.020783
  outer loop
   vertex 0.000000 -0.025000 0.050000
   vertex -0.009012 -0.026079 0.061199
   vertex -0.006897 -0.026079 0.070692
  endloop
 endfacet
 facet normal -0.062483 0.997559 0.031171
  outer loop
   vertex 0.000000 -0.025000 0.050000
   vertex -0.006897 -0.026079 0.070692
   vertex -0.003733 -0.026079 0.077036
  endloop
 endfacet
 facet normal -0.021974 0.999080 0.036824
  outer loop
   vertex 0.000000 -0.025000 0.050000
   vertex -0.003733 -0.026079 0.077036
   vertex 0.000000 -0.026079 0.079264
  endloop
 endfacet
 facet normal 0.021974 0.999080 0.036824
  outer loop
   vertex 0.000000 -0.025000 0.050000
   vertex 0.000000 -0.026079 0.079264
   vertex 0.003733 -0.026079 0.077036
  endloop
 endfacet
 facet normal 0.062483 0.997559 0.031171
  outer loop
   vertex 0.000000 -0.025000 0.050000
   vertex 0.003733 -0.026079 0.077036
   vertex 0.006897 -0.026079 0.070692
  endloop
 endfacet
 facet normal 0.093311 0.995420 0.020783
  outer loop
   vertex 0.000000 -0.025000 0.050000
   vertex 0.006897 -0.026079 0.070692
   vertex 0.009012 -0.026079 0.061199
  endloop
 endfacet
 facet normal 0.109902 0.993916 0.007287
  outer loop
   vertex 0.000000 -0.025000 0.050000
   vertex 0.009012 -0.026079 0.061199
   vertex 0.009755 -0.026079 0.050000
  endloop
 endfacet
 facet normal 0.000000 -1.000000 0.000000
  outer loop
   vertex 0.000000 -0.075000 0.050000
   vertex 0.009012 -0.075000 0.038801
   vertex 0.009755 -0.075000 0.050000
  endloop
 endfacet
 facet normal 0.000000 -1.000000 0.000000
  outer loop
   vertex 0.000000 -0.075000 0.050000
   vertex 0.006897 -0.075000 0.029308
   vertex 0.009012 -0.075000 0.038801
  endloop
 endfacet
 facet normal 0.000000 -1.000000 0.000000
  outer loop
   vertex 0.000000 -0.075000 0.050000
   vertex 0.003733 -0.075000 0.022964
   vertex 0.006897 -0.075000 0.029308
  endloop
 endfacet
 facet normal 0.000000 -1.000000 0.000000
  outer loop
   vertex 0.000000 -0.075000 0.050000
   vertex 0.000000 -0.075000 0.020736
   vertex 0.003733 -0.075000 0.022964
  endloop
 endfacet
 facet normal 0.000000 -1.000000 0.000000
  outer loop
   vertex 0.000000 -0.075000 0.050000
   vertex -0.003733 -0.075000 0.022964
   vertex 0.000000 -0.075000 0.020736
  endloop
 endfacet
 facet normal 0.000000 -1.000000 0.000000
  outer loop
   vertex 0.000000 -0.075000 0.050000
   vertex -0.006897 -0.075000 0.029308
   vertex -0.003733 -0.075000 0.022964
  endloop
 endfacet
 facet normal 0.000000 -1.000000 0.000000
  outer loop
   vertex 0.000000 -0.075000 0.050000
   vertex -0.009012 -0.075000 0.038801
   vertex -0.006897 -0.075000 0.029308
  endloop
 endfacet
 facet normal 0.000000 -1.000000 0.000000
  outer loop
   vertex 0.000000 -0.075000 0.050000
   vertex -0.009755 -0.075000 0.050000
   vertex -0.009012 -0.075000 0.038801
  endloop
 endfacet
 facet normal 0.000000 -1.000000 0.000000
  outer loop
   vertex 0.000000 -0.075000 0.050000
   vertex -0.009012 -0.075000 0.061199
   vertex -0.009755 -0.075000 0.050000
  endloop
 endfacet
 facet normal 0.000000 -1.000000 0.000000
  outer loop
   vertex 0.000000 -0.075000 0.050000
   vertex -0.006897 -0.075000 0.070692
   vertex -0.009012 -0.075000 0.061199
  endloop
 endfacet
 facet normal 0.000000 -1.000000 0.000000
  outer loop
   vertex 0.000000 -0.075000 0.050000
   vertex -0.003733 -0.075000 0.077036
   vertex -0.006897 -0.075000 0.070692
  endloop
 endfacet
 facet normal 0.000000 -1.000000 0.000000
  outer loop
   vertex 0.000000 -0.075000 0.050000
   vertex 0.000000 -0.075000 0.079264
   vertex -0.003733 -0.075000 0.077036
  endloop
 endfacet
 facet normal 0.000000 -1.000000 0.000000
  outer loop
   vertex 0.000000 -0.075000 0.050000
   vertex 0.003733 -0.075000 0.077036
   vertex 0.000000 -0.075000 0.079264
  endloop
 endfacet
 facet normal 0.000000 -1.000000 0.000000
  outer loop
   vertex 0.000000 -0.075000 0.050000
   vertex 0.006897 -0.075000 0.070692
   vertex 0.003733 -0.075000 0.077036
  endloop
 endfacet
 facet normal 0.000000 -1.000000 0.000000
  outer loop
   vertex 0.000000 -0.075000 0.050000
   vertex 0.009012 -0.075000 0.061199
   vertex 0.006897 -0.075000 0.070692
  endloop
 endfacet
 facet normal 0.000000 -1.000000 0.000000
  outer loop
   vertex 0.000000 -0.075000 0.050000
   vertex 0.009755 -0.075000 0.050000
   vertex 0.009012 -0.075000 0.061199
  endloop
 endfacet
 facet normal 0.322273 0.946406 -0.021367
  outer loop
   vertex 0.019134 -0.029273 0.050000
   vertex 0.009012 -0.026079 0.038801
   vertex 0.009755 -0.026079 0.050000
  endloop
 endfacet
 facet normal 0.322273 0.946405 -0.021368
  outer loop
   vertex 0.009012 -0.026079 0.038801
   vertex 0.019134 -0.029273 0.050000
   vertex 0.017678 -0.029273 0.028033
  endloop
 endfacet
 facet normal 0.276828 0.958939 -0.061658
  outer loop
   vertex 0.017678 -0.029273 0.028033
   vertex 0.006897 -0.026079 0.029308
   vertex 0.009012 -0.026079 0.038801
  endloop
 endfacet
 facet normal 0.276828 0.958939 -0.061657
  outer loop
   vertex 0.006897 -0.026079 0.029308
   vertex 0.017678 -0.029273 0.028033
   vertex 0.013530 -0.029273 0.009410
  endloop
 endfacet
 facet normal 0.188561 0.977546 -0.094066
  outer loop
   vertex 0.013530 -0.029273 0.009410
   vertex 0.003733 -0.026079 0.022964
   vertex 0.006897 -0.026079 0.029308
  endloop
 endfacet
 facet normal 0.188561 0.977546 -0.094067
  outer loop
   vertex 0.003733 -0.026079 0.022964
   vertex 0.013530 -0.029273 0.009410
   vertex 0.007322 -0.029273 -0.003033
  endloop
 endfacet
 facet normal 0.067152 0.991377 -0.112529
  outer loop
   vertex 0.007322 -0.029273 -0.003033
   vertex 0.000000 -0.026079 0.020736
   vertex 0.003733 -0.026079 0.022964
  endloop
 endfacet
 facet normal 0.067150 0.991377 -0.112530
  outer loop
   vertex 0.000000 -0.026079 0.020736
   vertex 0.007322 -0.029273 -0.003033
   vertex 0.000000 -0.029273 -0.007402
  endloop
 endfacet
 facet normal -0.067152 0.991377 -0.112529
  outer loop
   vertex 0.000000 -0.026079 0.020736
   vertex -0.007322 -0.029273 -0.003033
   vertex -0.003733 -0.026079 0.022964
  endloop
 endfacet
 facet normal -0.067150 0.991377 -0.112530
  outer loop
   vertex -0.007322 -0.029273 -0.003033
   vertex 0.000000 -0.026079 0.020736
   vertex 0.000000 -0.029273 -0.007402
  endloop
 endfacet
 facet normal -0.188561 0.977546 -0.094066
  outer loop
   vertex -0.003733 -0.026079 0.022964
   vertex -0.013530 -0.029273 0.009410
   vertex -0.006897 -0.026079 0.029308
  endloop
 endfacet
 facet normal -0.188561 0.977546 -0.094067
  outer loop
   vertex -0.013530 -0.029273 0.009410
   vertex -0.003733 -0.026079 0.022964
   vertex -0.007322 -0.029273 -0.003033
  endloop
 endfacet
 facet normal -0.276828 0.958939 -0.061658
  outer loop
   vertex -0.006897 -0.026079 0.029308
   vertex -0.017678 -0.029273 0.028033
   vertex -0.009012 -0.026079 0.038801
  endloop
 endfacet
 facet normal -0.276828 0.958939 -0.061657
  outer loop
   vertex -0.017678 -0.029273 0.028033
   vertex -0.006897 -0.026079 0.029308
   vertex -0.013530 -0.029273 0.009410
  endloop
 endfacet
 facet normal -0.322273 0.946406 -0.021367
  outer loop
   vertex -0.009012 -0.026079 0.038801
   vertex -0.019134 -0.029273 0.050000
   vertex -0.009755 -0.026079 0.050000
  endloop
 endfacet
 facet normal -0.322273 0.946405 -0.021368
  outer loop
   vertex -0.019134 -0.029273 0.050000
   vertex -0.009012 -0.026079 0.038801
   vertex -0.017678 -0.029273 0.028033
  endloop
 endfacet
 facet normal -0.322274 0.946405 0.021368
  outer loop
   vertex -0.009755 -0.026079 0.050000
   vertex -0.017678 -0.029273 0.071967
   vertex -0.009012 -0.026079 0.061199
  endloop
 endfacet
 facet normal -0.322273 0.946406 0.021368
  outer loop
   vertex -0.017678 -0.029273 0.071967
   vertex -0.009755 -0.026079 0.050000
   vertex -0.019134 -0.029273 0.050000
  endloop
 endfacet
 facet normal -0.276828 0.958939 0.061657
  outer loop
   vertex -0.006897 -0.026079 0.070692
   vertex -0.017678 -0.029273 0.071967
   vertex -0.013530 -0.029273 0.090590
  endloop
 endfacet
 facet normal -0.276828 0.958939 0.061658
  outer loop
   vertex -0.017678 -0.029273 0.071967
   vertex -0.006897 -0.026079 0.070692
   vertex -0.009012 -0.026079 0.061199
  endloop
 endfacet
 facet normal -0.188561 0.977546 0.094067
  outer loop
   vertex -0.003733 -0.026079 0.077036
   vertex -0.013530 -0.029273 0.090590
   vertex -0.007322 -0.029273 0.103033
  endloop
 endfacet
 facet normal -0.188561 0.977546 0.094066
  outer loop
   vertex -0.013530 -0.029273 0.090590
   vertex -0.003733 -0.026079 0.077036
   vertex -0.006897 -0.026079 0.070692
  endloop
 endfacet
 facet normal -0.067150 0.991377 0.112529
  outer loop
   vertex 0.000000 -0.026079 0.079264
   vertex -0.007322 -0.029273 0.103033
   vertex 0.000000 -0.029273 0.107403
  endloop
 endfacet
 facet normal -0.067149 0.991377 0.112530
  outer loop
   vertex -0.007322 -0.029273 0.103033
   vertex 0.000000 -0.026079 0.079264
   vertex -0.003733 -0.026079 0.077036
  endloop
 endfacet
 facet normal 0.067150 0.991377 0.112529
  outer loop
   vertex 0.007322 -0.029273 0.103033
   vertex 0.000000 -0.026079 0.079264
   vertex 0.000000 -0.029273 0.107403
  endloop
 endfacet
 facet normal 0.067149 0.991377 0.112530
  outer loop
   vertex 0.000000 -0.026079 0.079264
   vertex 0.007322 -0.029273 0.103033
   vertex 0.003733 -0.026079 0.077036
  endloop
 endfacet
 facet normal 0.188561 0.977546 0.094067
  outer loop
   vertex 0.013530 -0.029273 0.090590
   vertex 0.003733 -0.026079 0.077036
   vertex 0.007322 -0.029273 0.103033
  endloop
 endfacet
 facet normal 0.188561 0.977546 0.094066
  outer loop
   vertex 0.003733 -0.026079 0.077036
   vertex 0.013530 -0.029273 0.090590
   vertex 0.006897 -0.026079 0.070692
  endloop
 endfacet
 facet normal 0.276828 0.958939 0.061657
  outer loop
   vertex 0.017678 -0.029273 0.071967
   vertex 0.006897 -0.026079 0.070692
   vertex 0.013530 -0.029273 0.090590
  endloop
 endfacet
 facet normal 0.276828 0.958939 0.061658
  outer loop
   vertex 0.006897 -0.026079 0.070692
   vertex 0.017678 -0.029273 0.071967
   vertex 0.009012 -0.026079 0.061199
  endloop
 endfacet
 facet normal 0.322274 0.946405 0.021368
  outer loop
   vertex 0.019134 -0.029273 0.050000
   vertex 0.009012 -0.026079 0.061199
   vertex 0.017678 -0.029273 0.071967
  endloop
 endfacet
 facet normal 0.322273 0.946406 0.021367
  outer loop
   vertex 0.009012 -0.026079 0.061199
   vertex 0.019134 -0.029273 0.050000
   vertex 0.009755 -0.026079 0.050000
  endloop
 endfacet
 facet normal 0.514220 0.856980 -0.034095
  outer loop
   vertex 0.027779 -0.034459 0.050000
   vertex 0.017678 -0.029273 0.028033
   vertex 0.019134 -0.029273 0.050000
  endloop
 endfacet
 facet normal 0.514220 0.856981 -0.034095
  outer loop
   vertex 0.017678 -0.029273 0.028033
   vertex 0.027779 -0.034459 0.050000
   vertex 0.025664 -0.034459 0.018109
  endloop
 endfacet
 facet normal 0.451102 0.886799 -0.100473
  outer loop
   vertex 0.025664 -0.034459 0.018109
   vertex 0.013530 -0.029273 0.009410
   vertex 0.017678 -0.029273 0.028033
  endloop
 endfacet
 facet normal 0.451101 0.886800 -0.100472
  outer loop
   vertex 0.013530 -0.029273 0.009410
   vertex 0.025664 -0.034459 0.018109
   vertex 0.019642 -0.034459 -0.008927
  endloop
 endfacet
 facet normal 0.317743 0.934834 -0.158511
  outer loop
   vertex 0.019642 -0.034459 -0.008927
   vertex 0.007322 -0.029273 -0.003033
   vertex 0.013530 -0.029273 0.009410
  endloop
 endfacet
 facet normal 0.317742 0.934834 -0.158512
  outer loop
   vertex 0.007322 -0.029273 -0.003033
   vertex 0.019642 -0.034459 -0.008927
   vertex 0.010630 -0.034459 -0.026992
  endloop
 endfacet
 facet normal 0.116242 0.973931 -0.194797
  outer loop
   vertex 0.010630 -0.034459 -0.026992
   vertex 0.000000 -0.029273 -0.007402
   vertex 0.007322 -0.029273 -0.003033
  endloop
 endfacet
 facet normal 0.116242 0.973931 -0.194798
  outer loop
   vertex 0.000000 -0.029273 -0.007402
   vertex 0.010630 -0.034459 -0.026992
   vertex 0.000000 -0.034459 -0.033335
  endloop
 endfacet
 facet normal -0.116242 0.973931 -0.194797
  outer loop
   vertex 0.000000 -0.029273 -0.007402
   vertex -0.010630 -0.034459 -0.026992
   vertex -0.007322 -0.029273 -0.003033
  endloop
 endfacet
 facet normal -0.116242 0.973931 -0.194798
  outer loop
   vertex -0.010630 -0.034459 -0.026992
   vertex 0.000000 -0.029273 -0.007402
   vertex 0.000000 -0.034459 -0.033335
  endloop
 endfacet
 facet normal -0.317742 0.934834 -0.158511
  outer loop
   vertex -0.007322 -0.029273 -0.003033
   vertex -0.019642 -0.034459 -0.008927
   vertex -0.013530 -0.029273 0.009410
  endloop
 endfacet
 facet normal -0.317742 0.934834 -0.158512
  outer loop
   vertex -0.019642 -0.034459 -0.008927
   vertex -0.007322 -0.029273 -0.003033
   vertex -0.010630 -0.034459 -0.026992
  endloop
 endfacet
 facet normal -0.451102 0.886799 -0.100473
  outer loop
   vertex -0.013530 -0.029273 0.009410
   vertex -0.025664 -0.034459 0.018109
   vertex -0.017678 -0.029273 0.028033
  endloop
 endfacet
 facet normal -0.451101 0.886800 -0.100472
  outer loop
   vertex -0.025664 -0.034459 0.018109
   vertex -0.013530 -0.029273 0.009410
   vertex -0.019642 -0.034459 -0.008927
  endloop
 endfacet
 facet normal -0.514220 0.856980 -0.034095
  outer loop
   vertex -0.017678 -0.029273 0.028033
   vertex -0.027779 -0.034459 0.050000
   vertex -0.019134 -0.029273 0.050000
  endloop
 endfacet
 facet normal -0.514220 0.856981 -0.034095
  outer loop
   vertex -0.027779 -0.034459 0.050000
   vertex -0.017678 -0.029273 0.028033
   vertex -0.025664 -0.034459 0.018109
  endloop
 endfacet
 facet normal -0.514220 0.856981 0.034095
  outer loop
   vertex -0.019134 -0.029273 0.050000
   vertex -0.025664 -0.034459 0.081891
   vertex -0.017678 -0.029273 0.071967
  endloop
 endfacet
 facet normal -0.514220 0.856980 0.034095
  outer loop
   vertex -0.025664 -0.034459 0.081891
   vertex -0.019134 -0.029273 0.050000
   vertex -0.027779 -0.034459 0.050000
  endloop
 endfacet
 facet normal -0.451101 0.886800 0.100472
  outer loop
   vertex -0.013530 -0.029273 0.090590
   vertex -0.025664 -0.034459 0.081891
   vertex -0.019642 -0.034459 0.108927
  endloop
 endfacet
 facet normal -0.451102 0.886799 0.100473
  outer loop
   vertex -0.025664 -0.034459 0.081891
   vertex -0.013530 -0.029273 0.090590
   vertex -0.017678 -0.029273 0.071967
  endloop
 endfacet
 facet normal -0.317742 0.934834 0.158512
  outer loop
   vertex -0.007322 -0.029273 0.103033
   vertex -0.019642 -0.034459 0.108927
   vertex -0.010630 -0.034459 0.126992
  endloop
 endfacet
 facet normal -0.317743 0.934834 0.158511
  outer loop
   vertex -0.019642 -0.034459 0.108927
   vertex -0.007322 -0.029273 0.103033
   vertex -0.013530 -0.029273 0.090590
  endloop
 endfacet
 facet normal -0.116242 0.973931 0.194798
  outer loop
   vertex 0.000000 -0.029273 0.107403
   vertex -0.010630 -0.034459 0.126992
   vertex 0.000000 -0.034459 0.133336
  endloop
 endfacet
 facet normal -0.116242 0.973931 0.194797
  outer loop
   vertex -0.010630 -0.034459 0.126992
   vertex 0.000000 -0.029273 0.107403
   vertex -0.007322 -0.029273 0.103033
  endloop
 endfacet
 facet normal 0.116242 0.973931 0.194798
  outer loop
   vertex 0.010630 -0.034459 0.126992
   vertex 0.000000 -0.029273 0.107403
   vertex 0.000000 -0.034459 0.133336
  endloop
 endfacet
 facet normal 0.116242 0.973931 0.194797
  outer loop
   vertex 0.000000 -0.029273 0.107403
   vertex 0.010630 -0.034459 0.126992
   vertex 0.007322 -0.029273 0.103033
  endloop
 endfacet
 facet normal 0.317742 0.934834 0.158512
  outer loop
   vertex 0.019642 -0.034459 0.108927
   vertex 0.007322 -0.029273 0.103033
   vertex 0.010630 -0.034459 0.126992
  endloop
 endfacet
 facet normal 0.317743 0.934834 0.158511
  outer loop
   vertex 0.007322 -0.029273 0.103033
   vertex 0.019642 -0.034459 0.108927
   vertex 0.013530 -0.029273 0.090590
  endloop
 endfacet
 facet normal 0.451101 0.886800 0.100472
  outer loop
   vertex 0.025664 -0.034459 0.081891
   vertex 0.013530 -0.029273 0.090590
   vertex 0.019642 -0.034459 0.108927
  endloop
 endfacet
 facet normal 0.451102 0.886799 0.100473
  outer loop
   vertex 0.013530 -0.029273 0.090590
   vertex 0.025664 -0.034459 0.081891
   vertex 0.017678 -0.029273 0.071967
  endloop
 endfacet
 facet normal 0.514220 0.856981 0.034095
  outer loop
   vertex 0.027779 -0.034459 0.050000
   vertex 0.017678 -0.029273 0.071967
   vertex 0.025664 -0.034459 0.081891
  endloop
 endfacet
 facet normal 0.514220 0.856980 0.034095
  outer loop
   vertex 0.017678 -0.029273 0.071967
   vertex 0.027779 -0.034459 0.050000
   vertex 0.019134 -0.029273 0.050000
  endloop
 endfacet
 facet normal 0.676881 0.734723 -0.044880
  outer loop
   vertex 0.035355 -0.041440 0.050000
   vertex 0.025664 -0.034459 0.018109
   vertex 0.027779 -0.034459 0.050000
  endloop
 endfacet
 facet normal 0.676883 0.734721 -0.044881
  outer loop
   vertex 0.025664 -0.034459 0.018109
   vertex 0.035355 -0.041440 0.050000
   vertex 0.032664 -0.041440 0.009410
  endloop
 endfacet
 facet normal 0.609829 0.780807 -0.135824
  outer loop
   vertex 0.032664 -0.041440 0.009410
   vertex 0.019642 -0.034459 -0.008927
   vertex 0.025664 -0.034459 0.018109
  endloop
 endfacet
 facet normal 0.609830 0.780806 -0.135826
  outer loop
   vertex 0.019642 -0.034459 -0.008927
   vertex 0.032664 -0.041440 0.009410
   vertex 0.025000 -0.041440 -0.025000
  endloop
 endfacet
 facet normal 0.450803 0.863829 -0.224891
  outer loop
   vertex 0.025000 -0.041440 -0.025000
   vertex 0.010630 -0.034459 -0.026992
   vertex 0.019642 -0.034459 -0.008927
  endloop
 endfacet
 facet normal 0.450803 0.863829 -0.224892
  outer loop
   vertex 0.010630 -0.034459 -0.026992
   vertex 0.025000 -0.041440 -0.025000
   vertex 0.013530 -0.041440 -0.047992
  endloop
 endfacet
 facet normal 0.172551 0.941601 -0.289161
  outer loop
   vertex 0.013530 -0.041440 -0.047992
   vertex 0.000000 -0.034459 -0.033335
   vertex 0.010630 -0.034459 -0.026992
  endloop
 endfacet
 facet normal 0.172553 0.941601 -0.289160
  outer loop
   vertex 0.000000 -0.034459 -0.033335
   vertex 0.013530 -0.041440 -0.047992
   vertex 0.000000 -0.041440 -0.056066
  endloop
 endfacet
 facet normal -0.172551 0.941601 -0.289161
  outer loop
   vertex 0.000000 -0.034459 -0.033335
   vertex -0.013530 -0.041440 -0.047992
   vertex -0.010630 -0.034459 -0.026992
  endloop
 endfacet
 facet normal -0.172553 0.941601 -0.289160
  outer loop
   vertex -0.013530 -0.041440 -0.047992
   vertex 0.000000 -0.034459 -0.033335
   vertex 0.000000 -0.041440 -0.056066
  endloop
 endfacet
 facet normal -0.450803 0.863829 -0.224891
  outer loop
   vertex -0.010630 -0.034459 -0.026992
   vertex -0.025000 -0.041440 -0.025000
   vertex -0.019642 -0.034459 -0.008927
  endloop
 endfacet
 facet normal -0.450803 0.863829 -0.224892
  outer loop
   vertex -0.025000 -0.041440 -0.025000
   vertex -0.010630 -0.034459 -0.026992
   vertex -0.013530 -0.041440 -0.047992
  endloop
 endfacet
 facet normal -0.609829 0.780808 -0.135824
  outer loop
   vertex -0.019642 -0.034459 -0.008927
   vertex -0.032664 -0.041440 0.009410
   vertex -0.025664 -0.034459 0.018109
  endloop
 endfacet
 facet normal -0.609830 0.780806 -0.135826
  outer loop
   vertex -0.032664 -0.041440 0.009410
   vertex -0.019642 -0.034459 -0.008927
   vertex -0.025000 -0.041440 -0.025000
  endloop
 endfacet
 facet normal -0.676886 0.734719 -0.044880
  outer loop
   vertex -0.025664 -0.034459 0.018109
   vertex -0.035355 -0.041440 0.050000
   vertex -0.027779 -0.034459 0.050000
  endloop
 endfacet
 facet normal -0.676884 0.734720 -0.044879
  outer loop
   vertex -0.035355 -0.041440 0.050000
   vertex -0.025664 -0.034459 0.018109
   vertex -0.032664 -0.041440 0.009410
  endloop
 endfacet
 facet normal -0.676883 0.734721 0.044880
  outer loop
   vertex -0.027779 -0.034459 0.050000
   vertex -0.032664 -0.041440 0.090590
   vertex -0.025664 -0.034459 0.081891
  endloop
 endfacet
 facet normal -0.676886 0.734719 0.044879
  outer loop
   vertex -0.032664 -0.041440 0.090590
   vertex -0.027779 -0.034459 0.050000
   vertex -0.035355 -0.041440 0.050000
  endloop
 endfacet
 facet normal -0.609830 0.780806 0.135826
  outer loop
   vertex -0.019642 -0.034459 0.108927
   vertex -0.032664 -0.041440 0.090590
   vertex -0.025000 -0.041440 0.125000
  endloop
 endfacet
 facet normal -0.609829 0.780807 0.135824
  outer loop
   vertex -0.032664 -0.041440 0.090590
   vertex -0.019642 -0.034459 0.108927
   vertex -0.025664 -0.034459 0.081891
  endloop
 endfacet
 facet normal -0.450803 0.863829 0.224892
  outer loop
   vertex -0.010630 -0.034459 0.126992
   vertex -0.025000 -0.041440 0.125000
   vertex -0.013530 -0.041440 0.147992
  endloop
 endfacet
 facet normal -0.450803 0.863829 0.224891
  outer loop
   vertex -0.025000 -0.041440 0.125000
   vertex -0.010630 -0.034459 0.126992
   vertex -0.019642 -0.034459 0.108927
  endloop
 endfacet
 facet normal -0.172553 0.941601 0.289160
  outer loop
   vertex 0.000000 -0.034459 0.133336
   vertex -0.013530 -0.041440 0.147992
   vertex 0.000000 -0.041440 0.156066
  endloop
 endfacet
 facet normal -0.172551 0.941601 0.289161
  outer loop
   vertex -0.013530 -0.041440 0.147992
   vertex 0.000000 -0.034459 0.133336
   vertex -0.010630 -0.034459 0.126992
  endloop
 endfacet
 facet normal 0.172553 0.941601 0.289160
  outer loop
   vertex 0.013530 -0.041440 0.147992
   vertex 0.000000 -0.034459 0.133336
   vertex 0.000000 -0.041440 0.156066
  endloop
 endfacet
 facet normal 0.172552 0.941601 0.289161
  outer loop
   vertex 0.000000 -0.034459 0.133336
   vertex 0.013530 -0.041440 0.147992
   vertex 0.010630 -0.034459 0.126992
  endloop
 endfacet
 facet normal 0.450803 0.863829 0.224892
  outer loop
   vertex 0.025000 -0.041440 0.125000
   vertex 0.010630 -0.034459 0.126992
   vertex 0.013530 -0.041440 0.147992
  endloop
 endfacet
 facet normal 0.450803 0.863829 0.224891
  outer loop
   vertex 0.010630 -0.034459 0.126992
   vertex 0.025000 -0.041440 0.125000
   vertex 0.019642 -0.034459 0.108927
  endloop
 endfacet
 facet normal 0.609830 0.780806 0.135826
  outer loop
   vertex 0.032664 -0.041440 0.090590
   vertex 0.019642 -0.034459 0.108927
   vertex 0.025000 -0.041440 0.125000
  endloop
 endfacet
 facet normal 0.609829 0.780807 0.135824
  outer loop
   vertex 0.019642 -0.034459 0.108927
   vertex 0.032664 -0.041440 0.090590
   vertex 0.025664 -0.034459 0.081891
  endloop
 endfacet
 facet normal 0.676883 0.734721 0.044881
  outer loop
   vertex 0.035355 -0.041440 0.050000
   vertex 0.025664 -0.034459 0.081891
   vertex 0.032664 -0.041440 0.090590
  endloop
 endfacet
 facet normal 0.676881 0.734723 0.044880
  outer loop
   vertex 0.025664 -0.034459 0.081891
   vertex 0.035355 -0.041440 0.050000
   vertex 0.027779 -0.034459 0.050000
  endloop
 endfacet
 facet normal 0.806126 0.589326 -0.053450
  outer loop
   vertex 0.041573 -0.049945 0.050000
   vertex 0.032664 -0.041440 0.009410
   vertex 0.035355 -0.041440 0.050000
  endloop
 endfacet
 facet normal 0.806124 0.589327 -0.053449
  outer loop
   vertex 0.032664 -0.041440 0.009410
   vertex 0.041573 -0.049945 0.050000
   vertex 0.038409 -0.049945 0.002272
  endloop
 endfacet
 facet normal 0.746758 0.643964 -0.166323
  outer loop
   vertex 0.038409 -0.049945 0.002272
   vertex 0.025000 -0.041440 -0.025000
   vertex 0.032664 -0.041440 0.009410
  endloop
 endfacet
 facet normal 0.746757 0.643965 -0.166322
  outer loop
   vertex 0.025000 -0.041440 -0.025000
   vertex 0.038409 -0.049945 0.002272
   vertex 0.029397 -0.049945 -0.038191
  endloop
 endfacet
 facet normal 0.585757 0.755975 -0.292216
  outer loop
   vertex 0.029397 -0.049945 -0.038191
   vertex 0.013530 -0.041440 -0.047992
   vertex 0.025000 -0.041440 -0.025000
  endloop
 endfacet
 facet normal 0.585755 0.755979 -0.292210
  outer loop
   vertex 0.013530 -0.041440 -0.047992
   vertex 0.029397 -0.049945 -0.038191
   vertex 0.015910 -0.049945 -0.065227
  endloop
 endfacet
 facet normal 0.240308 0.883223 -0.402703
  outer loop
   vertex 0.015910 -0.049945 -0.065227
   vertex 0.000000 -0.041440 -0.056066
   vertex 0.013530 -0.041440 -0.047992
  endloop
 endfacet
 facet normal 0.240297 0.883219 -0.402718
  outer loop
   vertex 0.000000 -0.041440 -0.056066
   vertex 0.015910 -0.049945 -0.065227
   vertex 0.000000 -0.049945 -0.074720
  endloop
 endfacet
 facet normal -0.240308 0.883223 -0.402703
  outer loop
   vertex 0.000000 -0.041440 -0.056066
   vertex -0.015910 -0.049945 -0.065227
   vertex -0.013530 -0.041440 -0.047992
  endloop
 endfacet
 facet normal -0.240297 0.883219 -0.402718
  outer loop
   vertex -0.015910 -0.049945 -0.065227
   vertex 0.000000 -0.041440 -0.056066
   vertex 0.000000 -0.049945 -0.074720
  endloop
 endfacet
 facet normal -0.585756 0.755976 -0.292216
  outer loop
   vertex -0.013530 -0.041440 -0.047992
   vertex -0.029397 -0.049945 -0.038191
   vertex -0.025000 -0.041440 -0.025000
  endloop
 endfacet
 facet normal -0.585754 0.755979 -0.292211
  outer loop
   vertex -0.029397 -0.049945 -0.038191
   vertex -0.013530 -0.041440 -0.047992
   vertex -0.015910 -0.049945 -0.065227
  endloop
 endfacet
 facet normal -0.746756 0.643966 -0.166323
  outer loop
   vertex -0.029397 -0.049945 -0.038191
   vertex -0.032664 -0.041440 0.009410
   vertex -0.025000 -0.041440 -0.025000
  endloop
 endfacet
 facet normal -0.746758 0.643964 -0.166322
  outer loop
   vertex -0.032664 -0.041440 0.009410
   vertex -0.029397 -0.049945 -0.038191
   vertex -0.038409 -0.049945 0.002272
  endloop
 endfacet
 facet normal -0.806125 0.589327 -0.053448
  outer loop
   vertex -0.038409 -0.049945 0.002272
   vertex -0.035355 -0.041440 0.050000
   vertex -0.032664 -0.041440 0.009410
  endloop
 endfacet
 facet normal -0.806121 0.589332 -0.053449
  outer loop
   vertex -0.035355 -0.041440 0.050000
   vertex -0.038409 -0.049945 0.002272
   vertex -0.041573 -0.049945 0.050000
  endloop
 endfacet
 facet normal -0.806121 0.589332 0.053448
  outer loop
   vertex -0.041573 -0.049945 0.050000
   vertex -0.032664 -0.041440 0.090590
   vertex -0.035355 -0.041440 0.050000
  endloop
 endfacet
 facet normal -0.806124 0.589327 0.053449
  outer loop
   vertex -0.032664 -0.041440 0.090590
   vertex -0.041573 -0.049945 0.050000
   vertex -0.038409 -0.049945 0.097728
  endloop
 endfacet
 facet normal -0.746758 0.643964 0.166323
  outer loop
   vertex -0.038409 -0.049945 0.097728
   vertex -0.025000 -0.041440 0.125000
   vertex -0.032664 -0.041440 0.090590
  endloop
 endfacet
 facet normal -0.746756 0.643966 0.166322
  outer loop
   vertex -0.025000 -0.041440 0.125000
   vertex -0.038409 -0.049945 0.097728
   vertex -0.029397 -0.049945 0.138191
  endloop
 endfacet
 facet normal -0.585754 0.755979 0.292211
  outer loop
   vertex -0.013530 -0.041440 0.147992
   vertex -0.029397 -0.049945 0.138191
   vertex -0.015910 -0.049945 0.165227
  endloop
 endfacet
 facet normal -0.585756 0.755977 0.292215
  outer loop
   vertex -0.029397 -0.049945 0.138191
   vertex -0.013530 -0.041440 0.147992
   vertex -0.025000 -0.041440 0.125000
  endloop
 endfacet
 facet normal -0.240297 0.883219 0.402718
  outer loop
   vertex 0.000000 -0.041440 0.156066
   vertex -0.015910 -0.049945 0.165227
   vertex 0.000000 -0.049945 0.174720
  endloop
 endfacet
 facet normal -0.240308 0.883223 0.402703
  outer loop
   vertex -0.015910 -0.049945 0.165227
   vertex 0.000000 -0.041440 0.156066
   vertex -0.013530 -0.041440 0.147992
  endloop
 endfacet
 facet normal 0.240297 0.883219 0.402718
  outer loop
   vertex 0.015910 -0.049945 0.165227
   vertex 0.000000 -0.041440 0.156066
   vertex 0.000000 -0.049945 0.174720
  endloop
 endfacet
 facet normal 0.240308 0.883223 0.402703
  outer loop
   vertex 0.000000 -0.041440 0.156066
   vertex 0.015910 -0.049945 0.165227
   vertex 0.013530 -0.041440 0.147992
  endloop
 endfacet
 facet normal 0.585754 0.755979 0.292211
  outer loop
   vertex 0.029397 -0.049945 0.138191
   vertex 0.013530 -0.041440 0.147992
   vertex 0.015910 -0.049945 0.165227
  endloop
 endfacet
 facet normal 0.585755 0.755977 0.292215
  outer loop
   vertex 0.013530 -0.041440 0.147992
   vertex 0.029397 -0.049945 0.138191
   vertex 0.025000 -0.041440 0.125000
  endloop
 endfacet
 facet normal 0.746756 0.643966 0.166323
  outer loop
   vertex 0.029397 -0.049945 0.138191
   vertex 0.032664 -0.041440 0.090590
   vertex 0.025000 -0.041440 0.125000
  endloop
 endfacet
 facet normal 0.746758 0.643964 0.166322
  outer loop
   vertex 0.032664 -0.041440 0.090590
   vertex 0.029397 -0.049945 0.138191
   vertex 0.038409 -0.049945 0.097728
  endloop
 endfacet
 facet normal 0.806124 0.589328 0.053450
  outer loop
   vertex 0.038409 -0.049945 0.097728
   vertex 0.035355 -0.041440 0.050000
   vertex 0.032664 -0.041440 0.090590
  endloop
 endfacet
 facet normal 0.806126 0.589326 0.053450
  outer loop
   vertex 0.035355 -0.041440 0.050000
   vertex 0.038409 -0.049945 0.097728
   vertex 0.041573 -0.049945 0.050000
  endloop
 endfacet
 facet normal 0.901263 0.429131 -0.059758
  outer loop
   vertex 0.046194 -0.059649 0.050000
   vertex 0.038409 -0.049945 0.002272
   vertex 0.041573 -0.049945 0.050000
  endloop
 endfacet
 facet normal 0.901263 0.429132 -0.059757
  outer loop
   vertex 0.038409 -0.049945 0.002272
   vertex 0.046194 -0.059649 0.050000
   vertex 0.042678 -0.059649 -0.003033
  endloop
 endfacet
 facet normal 0.855902 0.480719 -0.190632
  outer loop
   vertex 0.042678 -0.059649 -0.003033
   vertex 0.029397 -0.049945 -0.038191
   vertex 0.038409 -0.049945 0.002272
  endloop
 endfacet
 facet normal 0.855902 0.480719 -0.190632
  outer loop
   vertex 0.029397 -0.049945 -0.038191
   vertex 0.042678 -0.059649 -0.003033
   vertex 0.032664 -0.059649 -0.047992
  endloop
 endfacet
 facet normal 0.715124 0.601107 -0.356747
  outer loop
   vertex 0.032664 -0.059649 -0.047992
   vertex 0.015910 -0.049945 -0.065227
   vertex 0.029397 -0.049945 -0.038191
  endloop
 endfacet
 facet normal 0.715126 0.601100 -0.356754
  outer loop
   vertex 0.015910 -0.049945 -0.065227
   vertex 0.032664 -0.059649 -0.047992
   vertex 0.017678 -0.059649 -0.078033
  endloop
 endfacet
 facet normal 0.323774 0.775070 -0.542620
  outer loop
   vertex 0.017678 -0.059649 -0.078033
   vertex 0.000000 -0.049945 -0.074720
   vertex 0.015910 -0.049945 -0.065227
  endloop
 endfacet
 facet normal 0.323787 0.775084 -0.542592
  outer loop
   vertex 0.000000 -0.049945 -0.074720
   vertex 0.017678 -0.059649 -0.078033
   vertex 0.000000 -0.059649 -0.088582
  endloop
 endfacet
 facet normal -0.323775 0.775069 -0.542621
  outer loop
   vertex 0.000000 -0.049945 -0.074720
   vertex -0.017678 -0.059649 -0.078033
   vertex -0.015910 -0.049945 -0.065227
  endloop
 endfacet
 facet normal -0.323789 0.775084 -0.542592
  outer loop
   vertex -0.017678 -0.059649 -0.078033
   vertex 0.000000 -0.049945 -0.074720
   vertex 0.000000 -0.059649 -0.088582
  endloop
 endfacet
 facet normal -0.715133 0.601093 -0.356753
  outer loop
   vertex -0.017678 -0.059649 -0.078033
   vertex -0.029397 -0.049945 -0.038191
   vertex -0.015910 -0.049945 -0.065227
  endloop
 endfacet
 facet normal -0.715120 0.601108 -0.356753
  outer loop
   vertex -0.029397 -0.049945 -0.038191
   vertex -0.017678 -0.059649 -0.078033
   vertex -0.032664 -0.059649 -0.047992
  endloop
 endfacet
 facet normal -0.855903 0.480718 -0.190632
  outer loop
   vertex -0.032664 -0.059649 -0.047992
   vertex -0.038409 -0.049945 0.002272
   vertex -0.029397 -0.049945 -0.038191
  endloop
 endfacet
 facet normal -0.855902 0.480719 -0.190632
  outer loop
   vertex -0.038409 -0.049945 0.002272
   vertex -0.032664 -0.059649 -0.047992
   vertex -0.042678 -0.059649 -0.003033
  endloop
 endfacet
 facet normal -0.901263 0.429132 -0.059758
  outer loop
   vertex -0.042678 -0.059649 -0.003033
   vertex -0.041573 -0.049945 0.050000
   vertex -0.038409 -0.049945 0.002272
  endloop
 endfacet
 facet normal -0.901263 0.429131 -0.059757
  outer loop
   vertex -0.041573 -0.049945 0.050000
   vertex -0.042678 -0.059649 -0.003033
   vertex -0.046194 -0.059649 0.050000
  endloop
 endfacet
 facet normal -0.901263 0.429131 0.059758
  outer loop
   vertex -0.046194 -0.059649 0.050000
   vertex -0.038409 -0.049945 0.097728
   vertex -0.041573 -0.049945 0.050000
  endloop
 endfacet
 facet normal -0.901263 0.429132 0.059757
  outer loop
   vertex -0.038409 -0.049945 0.097728
   vertex -0.046194 -0.059649 0.050000
   vertex -0.042678 -0.059649 0.103033
  endloop
 endfacet
 facet normal -0.855902 0.480719 0.190632
  outer loop
   vertex -0.042678 -0.059649 0.103033
   vertex -0.029397 -0.049945 0.138191
   vertex -0.038409 -0.049945 0.097728
  endloop
 endfacet
 facet normal -0.855903 0.480718 0.190632
  outer loop
   vertex -0.029397 -0.049945 0.138191
   vertex -0.042678 -0.059649 0.103033
   vertex -0.032664 -0.059649 0.147992
  endloop
 endfacet
 facet normal -0.715124 0.601105 0.356749
  outer loop
   vertex -0.032664 -0.059649 0.147992
   vertex -0.015910 -0.049945 0.165227
   vertex -0.029397 -0.049945 0.138191
  endloop
 endfacet
 facet normal -0.715126 0.601100 0.356754
  outer loop
   vertex -0.015910 -0.049945 0.165227
   vertex -0.032664 -0.059649 0.147992
   vertex -0.017678 -0.059649 0.178033
  endloop
 endfacet
 facet normal -0.323787 0.775084 0.542592
  outer loop
   vertex 0.000000 -0.049945 0.174720
   vertex -0.017678 -0.059649 0.178033
   vertex 0.000000 -0.059649 0.188582
  endloop
 endfacet
 facet normal -0.323775 0.775070 0.542620
  outer loop
   vertex -0.017678 -0.059649 0.178033
   vertex 0.000000 -0.049945 0.174720
   vertex -0.015910 -0.049945 0.165227
  endloop
 endfacet
 facet normal 0.323787 0.775084 0.542592
  outer loop
   vertex 0.017678 -0.059649 0.178033
   vertex 0.000000 -0.049945 0.174720
   vertex 0.000000 -0.059649 0.188582
  endloop
 endfacet
 facet normal 0.323775 0.775070 0.542620
  outer loop
   vertex 0.000000 -0.049945 0.174720
   vertex 0.017678 -0.059649 0.178033
   vertex 0.015910 -0.049945 0.165227
  endloop
 endfacet
 facet normal 0.715129 0.601097 0.356751
  outer loop
   vertex 0.017678 -0.059649 0.178033
   vertex 0.029397 -0.049945 0.138191
   vertex 0.015910 -0.049945 0.165227
  endloop
 endfacet
 facet normal 0.715122 0.601107 0.356751
  outer loop
   vertex 0.029397 -0.049945 0.138191
   vertex 0.017678 -0.059649 0.178033
   vertex 0.032664 -0.059649 0.147992
  endloop
 endfacet
 facet normal 0.855903 0.480717 0.190632
  outer loop
   vertex 0.032664 -0.059649 0.147992
   vertex 0.038409 -0.049945 0.097728
   vertex 0.029397 -0.049945 0.138191
  endloop
 endfacet
 facet normal 0.855902 0.480719 0.190632
  outer loop
   vertex 0.038409 -0.049945 0.097728
   vertex 0.032664 -0.059649 0.147992
   vertex 0.042678 -0.059649 0.103033
  endloop
 endfacet
 facet normal 0.901263 0.429132 0.059758
  outer loop
   vertex 0.042678 -0.059649 0.103033
   vertex 0.041573 -0.049945 0.050000
   vertex 0.038409 -0.049945 0.097728
  endloop
 endfacet
 facet normal 0.901263 0.429131 0.059757
  outer loop
   vertex 0.041573 -0.049945 0.050000
   vertex 0.042678 -0.059649 0.103033
   vertex 0.046194 -0.059649 0.050000
  endloop
 endfacet
 facet normal 0.963403 0.260335 -0.063877
  outer loop
   vertex 0.049039 -0.070179 0.050000
   vertex 0.042678 -0.059649 -0.003033
   vertex 0.046194 -0.059649 0.050000
  endloop
 endfacet
 facet normal 0.963403 0.260333 -0.063878
  outer loop
   vertex 0.042678 -0.059649 -0.003033
   vertex 0.049039 -0.070179 0.050000
   vertex 0.045306 -0.070179 -0.006299
  endloop
 endfacet
 facet normal 0.932015 0.297079 -0.207584
  outer loop
   vertex 0.045306 -0.070179 -0.006299
   vertex 0.032664 -0.059649 -0.047992
   vertex 0.042678 -0.059649 -0.003033
  endloop
 endfacet
 facet normal 0.932015 0.297079 -0.207584
  outer loop
   vertex 0.032664 -0.059649 -0.047992
   vertex 0.045306 -0.070179 -0.006299
   vertex 0.034676 -0.070179 -0.054028
  endloop
 endfacet
 facet normal 0.822986 0.392599 -0.410561
  outer loop
   vertex 0.034676 -0.070179 -0.054028
   vertex 0.017678 -0.059649 -0.078033
   vertex 0.032664 -0.059649 -0.047992
  endloop
 endfacet
 facet normal 0.822987 0.392594 -0.410564
  outer loop
   vertex 0.017678 -0.059649 -0.078033
   vertex 0.034676 -0.070179 -0.054028
   vertex 0.018767 -0.070179 -0.085919
  endloop
 endfacet
 facet normal 0.420575 0.571328 -0.704770
  outer loop
   vertex 0.000000 -0.070179 -0.097118
   vertex 0.017678 -0.059649 -0.078033
   vertex 0.018767 -0.070179 -0.085919
  endloop
 endfacet
 facet normal 0.420563 0.571342 -0.704766
  outer loop
   vertex 0.017678 -0.059649 -0.078033
   vertex 0.000000 -0.070179 -0.097118
   vertex 0.000000 -0.059649 -0.088582
  endloop
 endfacet
 facet normal -0.420565 0.571341 -0.704766
  outer loop
   vertex 0.000000 -0.070179 -0.097118
   vertex -0.017678 -0.059649 -0.078033
   vertex 0.000000 -0.059649 -0.088582
  endloop
 endfacet
 facet normal -0.420574 0.571331 -0.704768
  outer loop
   vertex -0.017678 -0.059649 -0.078033
   vertex 0.000000 -0.070179 -0.097118
   vertex -0.018767 -0.070179 -0.085919
  endloop
 endfacet
 facet normal -0.822984 0.392601 -0.410563
  outer loop
   vertex -0.018767 -0.070179 -0.085919
   vertex -0.032664 -0.059649 -0.047992
   vertex -0.017678 -0.059649 -0.078033
  endloop
 endfacet
 facet normal -0.822984 0.392600 -0.410563
  outer loop
   vertex -0.032664 -0.059649 -0.047992
   vertex -0.018767 -0.070179 -0.085919
   vertex -0.034676 -0.070179 -0.054028
  endloop
 endfacet
 facet normal -0.932015 0.297079 -0.207584
  outer loop
   vertex -0.034676 -0.070179 -0.054028
   vertex -0.042678 -0.059649 -0.003033
   vertex -0.032664 -0.059649 -0.047992
  endloop
 endfacet
 facet normal -0.932015 0.297079 -0.207585
  outer loop
   vertex -0.042678 -0.059649 -0.003033
   vertex -0.034676 -0.070179 -0.054028
   vertex -0.045306 -0.070179 -0.006299
  endloop
 endfacet
 facet normal -0.963403 0.260333 -0.063877
  outer loop
   vertex -0.045306 -0.070179 -0.006299
   vertex -0.046194 -0.059649 0.050000
   vertex -0.042678 -0.059649 -0.003033
  endloop
 endfacet
 facet normal -0.963403 0.260335 -0.063878
  outer loop
   vertex -0.046194 -0.059649 0.050000
   vertex -0.045306 -0.070179 -0.006299
   vertex -0.049039 -0.070179 0.050000
  endloop
 endfacet
 facet normal -0.963403 0.260335 0.063877
  outer loop
   vertex -0.049039 -0.070179 0.050000
   vertex -0.042678 -0.059649 0.103033
   vertex -0.046194 -0.059649 0.050000
  endloop
 endfacet
 facet normal -0.963403 0.260333 0.063878
  outer loop
   vertex -0.042678 -0.059649 0.103033
   vertex -0.049039 -0.070179 0.050000
   vertex -0.045306 -0.070179 0.106300
  endloop
 endfacet
 facet normal -0.932015 0.297079 0.207584
  outer loop
   vertex -0.045306 -0.070179 0.106300
   vertex -0.032664 -0.059649 0.147992
   vertex -0.042678 -0.059649 0.103033
  endloop
 endfacet
 facet normal -0.932015 0.297079 0.207585
  outer loop
   vertex -0.032664 -0.059649 0.147992
   vertex -0.045306 -0.070179 0.106300
   vertex -0.034676 -0.070179 0.154028
  endloop
 endfacet
 facet normal -0.822986 0.392599 0.410561
  outer loop
   vertex -0.034676 -0.070179 0.154028
   vertex -0.017678 -0.059649 0.178033
   vertex -0.032664 -0.059649 0.147992
  endloop
 endfacet
 facet normal -0.822987 0.392594 0.410564
  outer loop
   vertex -0.017678 -0.059649 0.178033
   vertex -0.034676 -0.070179 0.154028
   vertex -0.018767 -0.070179 0.185919
  endloop
 endfacet
 facet normal -0.420563 0.571342 0.704766
  outer loop
   vertex -0.017678 -0.059649 0.178033
   vertex 0.000000 -0.070179 0.197118
   vertex 0.000000 -0.059649 0.188582
  endloop
 endfacet
 facet normal -0.420575 0.571328 0.704770
  outer loop
   vertex 0.000000 -0.070179 0.197118
   vertex -0.017678 -0.059649 0.178033
   vertex -0.018767 -0.070179 0.185919
  endloop
 endfacet
 facet normal 0.420567 0.571330 0.704773
  outer loop
   vertex 0.000000 -0.059649 0.188582
   vertex 0.018767 -0.070179 0.185919
   vertex 0.017678 -0.059649 0.178033
  endloop
 endfacet
 facet normal 0.420571 0.571339 0.704764
  outer loop
   vertex 0.018767 -0.070179 0.185919
   vertex 0.000000 -0.059649 0.188582
   vertex 0.000000 -0.070179 0.197118
  endloop
 endfacet
 facet normal 0.822988 0.392593 0.410563
  outer loop
   vertex 0.018767 -0.070179 0.185919
   vertex 0.032664 -0.059649 0.147992
   vertex 0.017678 -0.059649 0.178033
  endloop
 endfacet
 facet normal 0.822984 0.392600 0.410563
  outer loop
   vertex 0.032664 -0.059649 0.147992
   vertex 0.018767 -0.070179 0.185919
   vertex 0.034676 -0.070179 0.154028
  endloop
 endfacet
 facet normal 0.932015 0.297079 0.207584
  outer loop
   vertex 0.034676 -0.070179 0.154028
   vertex 0.042678 -0.059649 0.103033
   vertex 0.032664 -0.059649 0.147992
  endloop
 endfacet
 facet normal 0.932015 0.297081 0.207585
  outer loop
   vertex 0.042678 -0.059649 0.103033
   vertex 0.034676 -0.070179 0.154028
   vertex 0.045306 -0.070179 0.106300
  endloop
 endfacet
 facet normal 0.963403 0.260334 0.063877
  outer loop
   vertex 0.045306 -0.070179 0.106300
   vertex 0.046194 -0.059649 0.050000
   vertex 0.042678 -0.059649 0.103033
  endloop
 endfacet
 facet normal 0.963403 0.260335 0.063878
  outer loop
   vertex 0.046194 -0.059649 0.050000
   vertex 0.045306 -0.070179 0.106300
   vertex 0.049039 -0.070179 0.050000
  endloop
 endfacet
 facet normal 0.978652 0.195013 -0.064889
  outer loop
   vertex 0.050000 -0.075000 0.050000
   vertex 0.045306 -0.070179 -0.006299
   vertex 0.049039 -0.070179 0.050000
  endloop
 endfacet
 facet normal 0.978651 0.195019 -0.064888
  outer loop
   vertex 0.045306 -0.070179 -0.006299
   vertex 0.050000 -0.075000 0.050000
   vertex 0.046194 -0.075000 -0.007402
  endloop
 endfacet
 facet normal 0.951363 0.223628 -0.211894
  outer loop
   vertex 0.046194 -0.075000 -0.007402
   vertex 0.034676 -0.070179 -0.054028
   vertex 0.045306 -0.070179 -0.006299
  endloop
 endfacet
 facet normal 0.951361 0.223637 -0.211892
  outer loop
   vertex 0.034676 -0.070179 -0.054028
   vertex 0.046194 -0.075000 -0.007402
   vertex 0.035355 -0.075000 -0.056066
  endloop
 endfacet
 facet normal 0.853536 0.300277 -0.425805
  outer loop
   vertex 0.035355 -0.075000 -0.056066
   vertex 0.018767 -0.070179 -0.085919
   vertex 0.034676 -0.070179 -0.054028
  endloop
 endfacet
 facet normal 0.853533 0.300291 -0.425801
  outer loop
   vertex 0.018767 -0.070179 -0.085919
   vertex 0.035355 -0.075000 -0.056066
   vertex 0.019134 -0.075000 -0.088582
  endloop
 endfacet
 facet normal 0.455862 0.456729 -0.763930
  outer loop
   vertex 0.000000 -0.075000 -0.100000
   vertex 0.018767 -0.070179 -0.085919
   vertex 0.019134 -0.075000 -0.088582
  endloop
 endfacet
 facet normal 0.455889 0.456673 -0.763947
  outer loop
   vertex 0.018767 -0.070179 -0.085919
   vertex 0.000000 -0.075000 -0.100000
   vertex 0.000000 -0.070179 -0.097118
  endloop
 endfacet
 facet normal -0.455889 0.456673 -0.763947
  outer loop
   vertex 0.000000 -0.075000 -0.100000
   vertex -0.018767 -0.070179 -0.085919
   vertex 0.000000 -0.070179 -0.097118
  endloop
 endfacet
 facet normal -0.455866 0.456721 -0.763932
  outer loop
   vertex -0.018767 -0.070179 -0.085919
   vertex 0.000000 -0.075000 -0.100000
   vertex -0.019134 -0.075000 -0.088582
  endloop
 endfacet
 facet normal -0.853537 0.300276 -0.425805
  outer loop
   vertex -0.019134 -0.075000 -0.088582
   vertex -0.034676 -0.070179 -0.054028
   vertex -0.018767 -0.070179 -0.085919
  endloop
 endfacet
 facet normal -0.853542 0.300260 -0.425805
  outer loop
   vertex -0.034676 -0.070179 -0.054028
   vertex -0.019134 -0.075000 -0.088582
   vertex -0.035355 -0.075000 -0.056066
  endloop
 endfacet
 facet normal -0.951365 0.223619 -0.211894
  outer loop
   vertex -0.035355 -0.075000 -0.056066
   vertex -0.045306 -0.070179 -0.006299
   vertex -0.034676 -0.070179 -0.054028
  endloop
 endfacet
 facet normal -0.951363 0.223628 -0.211895
  outer loop
   vertex -0.045306 -0.070179 -0.006299
   vertex -0.035355 -0.075000 -0.056066
   vertex -0.046194 -0.075000 -0.007402
  endloop
 endfacet
 facet normal -0.978651 0.195019 -0.064889
  outer loop
   vertex -0.046194 -0.075000 -0.007402
   vertex -0.049039 -0.070179 0.050000
   vertex -0.045306 -0.070179 -0.006299
  endloop
 endfacet
 facet normal -0.978652 0.195013 -0.064888
  outer loop
   vertex -0.049039 -0.070179 0.050000
   vertex -0.046194 -0.075000 -0.007402
   vertex -0.050000 -0.075000 0.050000
  endloop
 endfacet
 facet normal -0.978652 0.195013 0.064889
  outer loop
   vertex -0.050000 -0.075000 0.050000
   vertex -0.045306 -0.070179 0.106300
   vertex -0.049039 -0.070179 0.050000
  endloop
 endfacet
 facet normal -0.978651 0.195019 0.064888
  outer loop
   vertex -0.045306 -0.070179 0.106300
   vertex -0.050000 -0.075000 0.050000
   vertex -0.046194 -0.075000 0.107403
  endloop
 endfacet
 facet normal -0.951363 0.223628 0.211894
  outer loop
   vertex -0.046194 -0.075000 0.107403
   vertex -0.034676 -0.070179 0.154028
   vertex -0.045306 -0.070179 0.106300
  endloop
 endfacet
 facet normal -0.951365 0.223619 0.211895
  outer loop
   vertex -0.034676 -0.070179 0.154028
   vertex -0.046194 -0.075000 0.107403
   vertex -0.035355 -0.075000 0.156066
  endloop
 endfacet
 facet normal -0.853541 0.300260 0.425807
  outer loop
   vertex -0.035355 -0.075000 0.156066
   vertex -0.018767 -0.070179 0.185919
   vertex -0.034676 -0.070179 0.154028
  endloop
 endfacet
 facet normal -0.853535 0.300290 0.425799
  outer loop
   vertex -0.018767 -0.070179 0.185919
   vertex -0.035355 -0.075000 0.156066
   vertex -0.019134 -0.075000 0.188582
  endloop
 endfacet
 facet normal -0.455889 0.456673 0.763947
  outer loop
   vertex -0.018767 -0.070179 0.185919
   vertex 0.000000 -0.075000 0.200000
   vertex 0.000000 -0.070179 0.197118
  endloop
 endfacet
 facet normal -0.455862 0.456729 0.763930
  outer loop
   vertex 0.000000 -0.075000 0.200000
   vertex -0.018767 -0.070179 0.185919
   vertex -0.019134 -0.075000 0.188582
  endloop
 endfacet
 facet normal 0.455875 0.456726 0.763923
  outer loop
   vertex 0.000000 -0.070179 0.197118
   vertex 0.019134 -0.075000 0.188582
   vertex 0.018767 -0.070179 0.185919
  endloop
 endfacet
 facet normal 0.455875 0.456677 0.763953
  outer loop
   vertex 0.019134 -0.075000 0.188582
   vertex 0.000000 -0.070179 0.197118
   vertex 0.000000 -0.075000 0.200000
  endloop
 endfacet
 facet normal 0.853532 0.300292 0.425802
  outer loop
   vertex 0.019134 -0.075000 0.188582
   vertex 0.034676 -0.070179 0.154028
   vertex 0.018767 -0.070179 0.185919
  endloop
 endfacet
 facet normal 0.853538 0.300276 0.425803
  outer loop
   vertex 0.034676 -0.070179 0.154028
   vertex 0.019134 -0.075000 0.188582
   vertex 0.035355 -0.075000 0.156066
  endloop
 endfacet
 facet normal 0.951361 0.223638 0.211894
  outer loop
   vertex 0.035355 -0.075000 0.156066
   vertex 0.045306 -0.070179 0.106300
   vertex 0.034676 -0.070179 0.154028
  endloop
 endfacet
 facet normal 0.951364 0.223624 0.211893
  outer loop
   vertex 0.045306 -0.070179 0.106300
   vertex 0.035355 -0.075000 0.156066
   vertex 0.046194 -0.075000 0.107403
  endloop
 endfacet
 facet normal 0.978651 0.195018 0.064889
  outer loop
   vertex 0.046194 -0.075000 0.107403
   vertex 0.049039 -0.070179 0.050000
   vertex 0.045306 -0.070179 0.106300
  endloop
 endfacet
 facet normal 0.978652 0.195013 0.064888
  outer loop
   vertex 0.049039 -0.070179 0.050000
   vertex 0.046194 -0.075000 0.107403
   vertex 0.050000 -0.075000 0.050000
  endloop
 endfacet
 facet normal 0.000000 -1.000000 0.000000
  outer loop
   vertex 0.045306 -0.075000 -0.006299
   vertex 0.050000 -0.075000 0.050000
   vertex 0.049039 -0.075000 0.050000
  endloop
 endfacet
 facet normal 0.000000 -1.000000 0.000000
  outer loop
   vertex 0.050000 -0.075000 0.050000
   vertex 0.045306 -0.075000 -0.006299
   vertex 0.046194 -0.075000 -0.007402
  endloop
 endfacet
 facet normal 0.000000 -1.000000 0.000000
  outer loop
   vertex 0.034676 -0.075000 -0.054028
   vertex 0.046194 -0.075000 -0.007402
   vertex 0.045306 -0.075000 -0.006299
  endloop
 endfacet
 facet normal 0.000000 -1.000000 0.000000
  outer loop
   vertex 0.046194 -0.075000 -0.007402
   vertex 0.034676 -0.075000 -0.054028
   vertex 0.035355 -0.075000 -0.056066
  endloop
 endfacet
 facet normal 0.000000 -1.000000 0.000000
  outer loop
   vertex 0.018767 -0.075000 -0.085919
   vertex 0.035355 -0.075000 -0.056066
   vertex 0.034676 -0.075000 -0.054028
  endloop
 endfacet
 facet normal 0.000000 -1.000000 0.000000
  outer loop
   vertex 0.035355 -0.075000 -0.056066
   vertex 0.018767 -0.075000 -0.085919
   vertex 0.019134 -0.075000 -0.088582
  endloop
 endfacet
 facet normal 0.000000 -1.000000 0.000000
  outer loop
   vertex 0.000000 -0.075000 -0.097118
   vertex 0.019134 -0.075000 -0.088582
   vertex 0.018767 -0.075000 -0.085919
  endloop
 endfacet
 facet normal 0.000000 -1.000000 0.000000
  outer loop
   vertex 0.019134 -0.075000 -0.088582
   vertex 0.000000 -0.075000 -0.097118
   vertex 0.000000 -0.075000 -0.100000
  endloop
 endfacet
 facet normal 0.000000 -1.000000 0.000000
  outer loop
   vertex -0.019134 -0.075000 -0.088582
   vertex 0.000000 -0.075000 -0.097118
   vertex -0.018767 -0.075000 -0.085919
  endloop
 endfacet
 facet normal 0.000000 -1.000000 0.000000
  outer loop
   vertex 0.000000 -0.075000 -0.097118
   vertex -0.019134 -0.075000 -0.088582
   vertex 0.000000 -0.075000 -0.100000
  endloop
 endfacet
 facet normal 0.000000 -1.000000 0.000000
  outer loop
   vertex -0.035355 -0.075000 -0.056066
   vertex -0.018767 -0.075000 -0.085919
   vertex -0.034676 -0.075000 -0.054028
  endloop
 endfacet
 facet normal 0.000000 -1.000000 0.000000
  outer loop
   vertex -0.018767 -0.075000 -0.085919
   vertex -0.035355 -0.075000 -0.056066
   vertex -0.019134 -0.075000 -0.088582
  endloop
 endfacet
 facet normal 0.000000 -1.000000 0.000000
  outer loop
   vertex -0.046194 -0.075000 -0.007402
   vertex -0.034676 -0.075000 -0.054028
   vertex -0.045306 -0.075000 -0.006299
  endloop
 endfacet
 facet normal 0.000000 -1.000000 0.000000
  outer loop
   vertex -0.034676 -0.075000 -0.054028
   vertex -0.046194 -0.075000 -0.007402
   vertex -0.035355 -0.075000 -0.056066
  endloop
 endfacet
 facet normal 0.000000 -1.000000 0.000000
  outer loop
   vertex -0.050000 -0.075000 0.050000
   vertex -0.045306 -0.075000 -0.006299
   vertex -0.049039 -0.075000 0.050000
  endloop
 endfacet
 facet normal 0.000000 -1.000000 0.000000
  outer loop
   vertex -0.045306 -0.075000 -0.006299
   vertex -0.050000 -0.075000 0.050000
   vertex -0.046194 -0.075000 -0.007402
  endloop
 endfacet
 facet normal 0.000000 -1.000000 0.000000
  outer loop
   vertex -0.050000 -0.075000 0.050000
   vertex -0.045306 -0.075000 0.106300
   vertex -0.046194 -0.075000 0.107403
  endloop
 endfacet
 facet normal 0.000000 -1.000000 0.000000
  outer loop
   vertex -0.045306 -0.075000 0.106300
   vertex -0.050000 -0.075000 0.050000
   vertex -0.049039 -0.075000 0.050000
  endloop
 endfacet
 facet normal 0.000000 -1.000000 0.000000
  outer loop
   vertex -0.046194 -0.075000 0.107403
   vertex -0.034676 -0.075000 0.154028
   vertex -0.035355 -0.075000 0.156066
  endloop
 endfacet
 facet normal 0.000000 -1.000000 0.000000
  outer loop
   vertex -0.034676 -0.075000 0.154028
   vertex -0.046194 -0.075000 0.107403
   vertex -0.045306 -0.075000 0.106300
  endloop
 endfacet
 facet normal 0.000000 -1.000000 0.000000
  outer loop
   vertex -0.035355 -0.075000 0.156066
   vertex -0.018767 -0.075000 0.185919
   vertex -0.019134 -0.075000 0.188582
  endloop
 endfacet
 facet normal 0.000000 -1.000000 0.000000
  outer loop
   vertex -0.018767 -0.075000 0.185919
   vertex -0.035355 -0.075000 0.156066
   vertex -0.034676 -0.075000 0.154028
  endloop
 endfacet
 facet normal 0.000000 -1.000000 0.000000
  outer loop
   vertex -0.019134 -0.075000 0.188582
   vertex 0.000000 -0.075000 0.197118
   vertex 0.000000 -0.075000 0.200000
  endloop
 endfacet
 facet normal 0.000000 -1.000000 0.000000
  outer loop
   vertex 0.000000 -0.075000 0.197118
   vertex -0.019134 -0.075000 0.188582
   vertex -0.018767 -0.075000 0.185919
  endloop
 endfacet
 facet normal 0.000000 -1.000000 0.000000
  outer loop
   vertex 0.000000 -0.075000 0.197118
   vertex 0.019134 -0.075000 0.188582
   vertex 0.000000 -0.075000 0.200000
  endloop
 endfacet
 facet normal 0.000000 -1.000000 0.000000
  outer loop
   vertex 0.019134 -0.075000 0.188582
   vertex 0.000000 -0.075000 0.197118
   vertex 0.018767 -0.075000 0.185919
  endloop
 endfacet
 facet normal 0.000000 -1.000000 0.000000
  outer loop
   vertex 0.018767 -0.075000 0.185919
   vertex 0.035355 -0.075000 0.156066
   vertex 0.019134 -0.075000 0.188582
  endloop
 endfacet
 facet normal 0.000000 -1.000000 0.000000
  outer loop
   vertex 0.035355 -0.075000 0.156066
   vertex 0.018767 -0.075000 0.185919
   vertex 0.034676 -0.075000 0.154028
  endloop
 endfacet
 facet normal 0.000000 -1.000000 0.000000
  outer loop
   vertex 0.034676 -0.075000 0.154028
   vertex 0.046194 -0.075000 0.107403
   vertex 0.035355 -0.075000 0.156066
  endloop
 endfacet
 facet normal 0.000000 -1.000000 0.000000
  outer loop
   vertex 0.046194 -0.075000 0.107403
   vertex 0.034676 -0.075000 0.154028
   vertex 0.045306 -0.075000 0.106300
  endloop
 endfacet
 facet normal 0.000000 -1.000000 0.000000
  outer loop
   vertex 0.049039 -0.075000 0.050000
   vertex 0.046194 -0.075000 0.107403
   vertex 0.045306 -0.075000 0.106300
  endloop
 endfacet
 facet normal 0.000000 -1.000000 0.000000
  outer loop
   vertex 0.046194 -0.075000 0.107403
   vertex 0.049039 -0.075000 0.050000
   vertex 0.050000 -0.075000 0.050000
  endloop
 endfacet
 facet normal 0.000000 -1.000000 0.000000
  outer loop
   vertex 0.042678 -0.075000 -0.003033
   vertex 0.049039 -0.075000 0.050000
   vertex 0.046194 -0.075000 0.050000
  endloop
 endfacet
 facet normal 0.000000 -1.000000 0.000000
  outer loop
   vertex 0.049039 -0.075000 0.050000
   vertex 0.042678 -0.075000 -0.003033
   vertex 0.045306 -0.075000 -0.006299
  endloop
 endfacet
 facet normal 0.000000 -1.000000 0.000000
  outer loop
   vertex 0.032664 -0.075000 -0.047992
   vertex 0.045306 -0.075000 -0.006299
   vertex 0.042678 -0.075000 -0.003033
  endloop
 endfacet
 facet normal 0.000000 -1.000000 0.000000
  outer loop
   vertex 0.045306 -0.075000 -0.006299
   vertex 0.032664 -0.075000 -0.047992
   vertex 0.034676 -0.075000 -0.054028
  endloop
 endfacet
 facet normal 0.000000 -1.000000 0.000000
  outer loop
   vertex 0.017678 -0.075000 -0.078033
   vertex 0.034676 -0.075000 -0.054028
   vertex 0.032664 -0.075000 -0.047992
  endloop
 endfacet
 facet normal 0.000000 -1.000000 0.000000
  outer loop
   vertex 0.034676 -0.075000 -0.054028
   vertex 0.017678 -0.075000 -0.078033
   vertex 0.018767 -0.075000 -0.085919
  endloop
 endfacet
 facet normal 0.000000 -1.000000 0.000000
  outer loop
   vertex 0.000000 -0.075000 -0.088582
   vertex 0.018767 -0.075000 -0.085919
   vertex 0.017678 -0.075000 -0.078033
  endloop
 endfacet
 facet normal 0.000000 -1.000000 0.000000
  outer loop
   vertex 0.018767 -0.075000 -0.085919
   vertex 0.000000 -0.075000 -0.088582
   vertex 0.000000 -0.075000 -0.097118
  endloop
 endfacet
 facet normal 0.000000 -1.000000 0.000000
  outer loop
   vertex -0.018767 -0.075000 -0.085919
   vertex 0.000000 -0.075000 -0.088582
   vertex -0.017678 -0.075000 -0.078033
  endloop
 endfacet
 facet normal 0.000000 -1.000000 0.000000
  outer loop
   vertex 0.000000 -0.075000 -0.088582
   vertex -0.018767 -0.075000 -0.085919
   vertex 0.000000 -0.075000 -0.097118
  endloop
 endfacet
 facet normal 0.000000 -1.000000 0.000000
  outer loop
   vertex -0.034676 -0.075000 -0.054028
   vertex -0.017678 -0.075000 -0.078033
   vertex -0.032664 -0.075000 -0.047992
  endloop
 endfacet
 facet normal 0.000000 -1.000000 0.000000
  outer loop
   vertex -0.017678 -0.075000 -0.078033
   vertex -0.034676 -0.075000 -0.054028
   vertex -0.018767 -0.075000 -0.085919
  endloop
 endfacet
 facet normal 0.000000 -1.000000 0.000000
  outer loop
   vertex -0.045306 -0.075000 -0.006299
   vertex -0.032664 -0.075000 -0.047992
   vertex -0.042678 -0.075000 -0.003033
  endloop
 endfacet
 facet normal 0.000000 -1.000000 0.000000
  outer loop
   vertex -0.032664 -0.075000 -0.047992
   vertex -0.045306 -0.075000 -0.006299
   vertex -0.034676 -0.075000 -0.054028
  endloop
 endfacet
 facet normal 0.000000 -1.000000 0.000000
  outer loop
   vertex -0.049039 -0.075000 0.050000
   vertex -0.042678 -0.075000 -0.003033
   vertex -0.046194 -0.075000 0.050000
  endloop
 endfacet
 facet normal 0.000000 -1.000000 0.000000
  outer loop
   vertex -0.042678 -0.075000 -0.003033
   vertex -0.049039 -0.075000 0.050000
   vertex -0.045306 -0.075000 -0.006299
  endloop
 endfacet
 facet normal 0.000000 -1.000000 0.000000
  outer loop
   vertex -0.049039 -0.075000 0.050000
   vertex -0.042678 -0.075000 0.103033
   vertex -0.045306 -0.075000 0.106300
  endloop
 endfacet
 facet normal 0.000000 -1.000000 0.000000
  outer loop
   vertex -0.042678 -0.075000 0.103033
   vertex -0.049039 -0.075000 0.050000
   vertex -0.046194 -0.075000 0.050000
  endloop
 endfacet
 facet normal 0.000000 -1.000000 0.000000
  outer loop
   vertex -0.045306 -0.075000 0.106300
   vertex -0.032664 -0.075000 0.147992
   vertex -0.034676 -0.075000 0.154028
  endloop
 endfacet
 facet normal 0.000000 -1.000000 0.000000
  outer loop
   vertex -0.032664 -0.075000 0.147992
   vertex -0.045306 -0.075000 0.106300
   vertex -0.042678 -0.075000 0.103033
  endloop
 endfacet
 facet normal 0.000000 -1.000000 0.000000
  outer loop
   vertex -0.034676 -0.075000 0.154028
   vertex -0.017678 -0.075000 0.178033
   vertex -0.018767 -0.075000 0.185919
  endloop
 endfacet
 facet normal 0.000000 -1.000000 0.000000
  outer loop
   vertex -0.017678 -0.075000 0.178033
   vertex -0.034676 -0.075000 0.154028
   vertex -0.032664 -0.075000 0.147992
  endloop
 endfacet
 facet normal 0.000000 -1.000000 0.000000
  outer loop
   vertex -0.018767 -0.075000 0.185919
   vertex 0.000000 -0.075000 0.188582
   vertex 0.000000 -0.075000 0.197118
  endloop
 endfacet
 facet normal 0.000000 -1.000000 0.000000
  outer loop
   vertex 0.000000 -0.075000 0.188582
   vertex -0.018767 -0.075000 0.185919
   vertex -0.017678 -0.075000 0.178033
  endloop
 endfacet
 facet normal 0.000000 -1.000000 0.000000
  outer loop
   vertex 0.000000 -0.075000 0.188582
   vertex 0.018767 -0.075000 0.185919
   vertex 0.000000 -0.075000 0.197118
  endloop
 endfacet
 facet normal 0.000000 -1.000000 0.000000
  outer loop
   vertex 0.018767 -0.075000 0.185919
   vertex 0.000000 -0.075000 0.188582
   vertex 0.017678 -0.075000 0.178033
  endloop
 endfacet
 facet normal 0.000000 -1.000000 0.000000
  outer loop
   vertex 0.017678 -0.075000 0.178033
   vertex 0.034676 -0.075000 0.154028
   vertex 0.018767 -0.075000 0.185919
  endloop
 endfacet
 facet normal 0.000000 -1.000000 0.000000
  outer loop
   vertex 0.034676 -0.075000 0.154028
   vertex 0.017678 -0.075000 0.178033
   vertex 0.032664 -0.075000 0.147992
  endloop
 endfacet
 facet normal 0.000000 -1.000000 0.000000
  outer loop
   vertex 0.032664 -0.075000 0.147992
   vertex 0.045306 -0.075000 0.106300
   vertex 0.034676 -0.075000 0.154028
  endloop
 endfacet
 facet normal 0.000000 -1.000000 0.000000
  outer loop
   vertex 0.045306 -0.075000 0.106300
   vertex 0.032664 -0.075000 0.147992
   vertex 0.042678 -0.075000 0.103033
  endloop
 endfacet
 facet normal 0.000000 -1.000000 0.000000
  outer loop
   vertex 0.046194 -0.075000 0.050000
   vertex 0.045306 -0.075000 0.106300
   vertex 0.042678 -0.075000 0.103033
  endloop
 endfacet
 facet normal 0.000000 -1.000000 0.000000
  outer loop
   vertex 0.045306 -0.075000 0.106300
   vertex 0.046194 -0.075000 0.050000
   vertex 0.049039 -0.075000 0.050000
  endloop
 endfacet
 facet normal 0.000000 -1.000000 0.000000
  outer loop
   vertex 0.038409 -0.075000 0.002272
   vertex 0.046194 -0.075000 0.050000
   vertex 0.041573 -0.075000 0.050000
  endloop
 endfacet
 facet normal 0.000000 -1.000000 0.000000
  outer loop
   vertex 0.046194 -0.075000 0.050000
   vertex 0.038409 -0.075000 0.002272
   vertex 0.042678 -0.075000 -0.003033
  endloop
 endfacet
 facet normal 0.000000 -1.000000 0.000000
  outer loop
   vertex 0.029397 -0.075000 -0.038191
   vertex 0.042678 -0.075000 -0.003033
   vertex 0.038409 -0.075000 0.002272
  endloop
 endfacet
 facet normal 0.000000 -1.000000 0.000000
  outer loop
   vertex 0.042678 -0.075000 -0.003033
   vertex 0.029397 -0.075000 -0.038191
   vertex 0.032664 -0.075000 -0.047992
  endloop
 endfacet
 facet normal 0.000000 -1.000000 0.000000
  outer loop
   vertex 0.015910 -0.075000 -0.065227
   vertex 0.032664 -0.075000 -0.047992
   vertex 0.029397 -0.075000 -0.038191
  endloop
 endfacet
 facet normal 0.000000 -1.000000 0.000000
  outer loop
   vertex 0.032664 -0.075000 -0.047992
   vertex 0.015910 -0.075000 -0.065227
   vertex 0.017678 -0.075000 -0.078033
  endloop
 endfacet
 facet normal 0.000000 -1.000000 0.000000
  outer loop
   vertex 0.000000 -0.075000 -0.074720
   vertex 0.017678 -0.075000 -0.078033
   vertex 0.015910 -0.075000 -0.065227
  endloop
 endfacet
 facet normal 0.000000 -1.000000 0.000000
  outer loop
   vertex 0.017678 -0.075000 -0.078033
   vertex 0.000000 -0.075000 -0.074720
   vertex 0.000000 -0.075000 -0.088582
  endloop
 endfacet
 facet normal 0.000000 -1.000000 0.000000
  outer loop
   vertex -0.017678 -0.075000 -0.078033
   vertex 0.000000 -0.075000 -0.074720
   vertex -0.015910 -0.075000 -0.065227
  endloop
 endfacet
 facet normal 0.000000 -1.000000 0.000000
  outer loop
   vertex 0.000000 -0.075000 -0.074720
   vertex -0.017678 -0.075000 -0.078033
   vertex 0.000000 -0.075000 -0.088582
  endloop
 endfacet
 facet normal 0.000000 -1.000000 0.000000
  outer loop
   vertex -0.032664 -0.075000 -0.047992
   vertex -0.015910 -0.075000 -0.065227
   vertex -0.029397 -0.075000 -0.038191
  endloop
 endfacet
 facet normal 0.000000 -1.000000 0.000000
  outer loop
   vertex -0.015910 -0.075000 -0.065227
   vertex -0.032664 -0.075000 -0.047992
   vertex -0.017678 -0.075000 -0.078033
  endloop
 endfacet
 facet normal 0.000000 -1.000000 0.000000
  outer loop
   vertex -0.042678 -0.075000 -0.003033
   vertex -0.029397 -0.075000 -0.038191
   vertex -0.038409 -0.075000 0.002272
  endloop
 endfacet
 facet normal 0.000000 -1.000000 0.000000
  outer loop
   vertex -0.029397 -0.075000 -0.038191
   vertex -0.042678 -0.075000 -0.003033
   vertex -0.032664 -0.075000 -0.047992
  endloop
 endfacet
 facet normal 0.000000 -1.000000 0.000000
  outer loop
   vertex -0.046194 -0.075000 0.050000
   vertex -0.038409 -0.075000 0.002272
   vertex -0.041573 -0.075000 0.050000
  endloop
 endfacet
 facet normal 0.000000 -1.000000 0.000000
  outer loop
   vertex -0.038409 -0.075000 0.002272
   vertex -0.046194 -0.075000 0.050000
   vertex -0.042678 -0.075000 -0.003033
  endloop
 endfacet
 facet normal 0.000000 -1.000000 0.000000
  outer loop
   vertex -0.046194 -0.075000 0.050000
   vertex -0.038409 -0.075000 0.097728
   vertex -0.042678 -0.075000 0.103033
  endloop
 endfacet
 facet normal 0.000000 -1.000000 0.000000
  outer loop
   vertex -0.038409 -0.075000 0.097728
   vertex -0.046194 -0.075000 0.050000
   vertex -0.041573 -0.075000 0.050000
  endloop
 endfacet
 facet normal 0.000000 -1.000000 0.000000
  outer loop
   vertex -0.042678 -0.075000 0.103033
   vertex -0.029397 -0.075000 0.138191
   vertex -0.032664 -0.075000 0.147992
  endloop
 endfacet
 facet normal 0.000000 -1.000000 0.000000
  outer loop
   vertex -0.029397 -0.075000 0.138191
   vertex -0.042678 -0.075000 0.103033
   vertex -0.038409 -0.075000 0.097728
  endloop
 endfacet
 facet normal 0.000000 -1.000000 0.000000
  outer loop
   vertex -0.032664 -0.075000 0.147992
   vertex -0.015910 -0.075000 0.165227
   vertex -0.017678 -0.075000 0.178033
  endloop
 endfacet
 facet normal 0.000000 -1.000000 0.000000
  outer loop
   vertex -0.015910 -0.075000 0.165227
   vertex -0.032664 -0.075000 0.147992
   vertex -0.029397 -0.075000 0.138191
  endloop
 endfacet
 facet normal 0.000000 -1.000000 0.000000
  outer loop
   vertex -0.017678 -0.075000 0.178033
   vertex 0.000000 -0.075000 0.174720
   vertex 0.000000 -0.075000 0.188582
  endloop
 endfacet
 facet normal 0.000000 -1.000000 0.000000
  outer loop
   vertex 0.000000 -0.075000 0.174720
   vertex -0.017678 -0.075000 0.178033
   vertex -0.015910 -0.075000 0.165227
  endloop
 endfacet
 facet normal 0.000000 -1.000000 0.000000
  outer loop
   vertex 0.000000 -0.075000 0.174720
   vertex 0.017678 -0.075000 0.178033
   vertex 0.000000 -0.075000 0.188582
  endloop
 endfacet
 facet normal 0.000000 -1.000000 0.000000
  outer loop
   vertex 0.017678 -0.075000 0.178033
   vertex 0.000000 -0.075000 0.174720
   vertex 0.015910 -0.075000 0.165227
  endloop
 endfacet
 facet normal 0.000000 -1.000000 0.000000
  outer loop
   vertex 0.015910 -0.075000 0.165227
   vertex 0.032664 -0.075000 0.147992
   vertex 0.017678 -0.075000 0.178033
  endloop
 endfacet
 facet normal 0.000000 -1.000000 0.000000
  outer loop
   vertex 0.032664 -0.075000 0.147992
   vertex 0.015910 -0.075000 0.165227
   vertex 0.029397 -0.075000 0.138191
  endloop
 endfacet
 facet normal 0.000000 -1.000000 0.000000
  outer loop
   vertex 0.029397 -0.075000 0.138191
   vertex 0.042678 -0.075000 0.103033
   vertex 0.032664 -0.075000 0.147992
  endloop
 endfacet
 facet normal 0.000000 -1.000000 0.000000
  outer loop
   vertex 0.042678 -0.075000 0.103033
   vertex 0.029397 -0.075000 0.138191
   vertex 0.038409 -0.075000 0.097728
  endloop
 endfacet
 facet normal 0.000000 -1.000000 0.000000
  outer loop
   vertex 0.041573 -0.075000 0.050000
   vertex 0.042678 -0.075000 0.103033
   vertex 0.038409 -0.075000 0.097728
  endloop
 endfacet
 facet normal 0.000000 -1.000000 0.000000
  outer loop
   vertex 0.042678 -0.075000 0.103033
   vertex 0.041573 -0.075000 0.050000
   vertex 0.046194 -0.075000 0.050000
  endloop
 endfacet
 facet normal 0.000000 -1.000000 0.000000
  outer loop
   vertex 0.032664 -0.075000 0.009410
   vertex 0.041573 -0.075000 0.050000
   vertex 0.035355 -0.075000 0.050000
  endloop
 endfacet
 facet normal 0.000000 -1.000000 0.000000
  outer loop
   vertex 0.041573 -0.075000 0.050000
   vertex 0.032664 -0.075000 0.009410
   vertex 0.038409 -0.075000 0.002272
  endloop
 endfacet
 facet normal 0.000000 -1.000000 0.000000
  outer loop
   vertex 0.025000 -0.075000 -0.025000
   vertex 0.038409 -0.075000 0.002272
   vertex 0.032664 -0.075000 0.009410
  endloop
 endfacet
 facet normal 0.000000 -1.000000 0.000000
  outer loop
   vertex 0.038409 -0.075000 0.002272
   vertex 0.025000 -0.075000 -0.025000
   vertex 0.029397 -0.075000 -0.038191
  endloop
 endfacet
 facet normal 0.000000 -1.000000 0.000000
  outer loop
   vertex 0.013530 -0.075000 -0.047992
   vertex 0.029397 -0.075000 -0.038191
   vertex 0.025000 -0.075000 -0.025000
  endloop
 endfacet
 facet normal 0.000000 -1.000000 0.000000
  outer loop
   vertex 0.029397 -0.075000 -0.038191
   vertex 0.013530 -0.075000 -0.047992
   vertex 0.015910 -0.075000 -0.065227
  endloop
 endfacet
 facet normal 0.000000 -1.000000 0.000000
  outer loop
   vertex 0.000000 -0.075000 -0.056066
   vertex 0.015910 -0.075000 -0.065227
   vertex 0.013530 -0.075000 -0.047992
  endloop
 endfacet
 facet normal 0.000000 -1.000000 0.000000
  outer loop
   vertex 0.015910 -0.075000 -0.065227
   vertex 0.000000 -0.075000 -0.056066
   vertex 0.000000 -0.075000 -0.074720
  endloop
 endfacet
 facet normal 0.000000 -1.000000 0.000000
  outer loop
   vertex -0.015910 -0.075000 -0.065227
   vertex 0.000000 -0.075000 -0.056066
   vertex -0.013530 -0.075000 -0.047992
  endloop
 endfacet
 facet normal 0.000000 -1.000000 0.000000
  outer loop
   vertex 0.000000 -0.075000 -0.056066
   vertex -0.015910 -0.075000 -0.065227
   vertex 0.000000 -0.075000 -0.074720
  endloop
 endfacet
 facet normal 0.000000 -1.000000 0.000000
  outer loop
   vertex -0.029397 -0.075000 -0.038191
   vertex -0.013530 -0.075000 -0.047992
   vertex -0.025000 -0.075000 -0.025000
  endloop
 endfacet
 facet normal 0.000000 -1.000000 0.000000
  outer loop
   vertex -0.013530 -0.075000 -0.047992
   vertex -0.029397 -0.075000 -0.038191
   vertex -0.015910 -0.075000 -0.065227
  endloop
 endfacet
 facet normal 0.000000 -1.000000 0.000000
  outer loop
   vertex -0.038409 -0.075000 0.002272
   vertex -0.025000 -0.075000 -0.025000
   vertex -0.032664 -0.075000 0.009410
  endloop
 endfacet
 facet normal 0.000000 -1.000000 0.000000
  outer loop
   vertex -0.025000 -0.075000 -0.025000
   vertex -0.038409 -0.075000 0.002272
   vertex -0.029397 -0.075000 -0.038191
  endloop
 endfacet
 facet normal 0.000000 -1.000000 0.000000
  outer loop
   vertex -0.041573 -0.075000 0.050000
   vertex -0.032664 -0.075000 0.009410
   vertex -0.035355 -0.075000 0.050000
  endloop
 endfacet
 facet normal 0.000000 -1.000000 0.000000
  outer loop
   vertex -0.032664 -0.075000 0.009410
   vertex -0.041573 -0.075000 0.050000
   vertex -0.038409 -0.075000 0.002272
  endloop
 endfacet
 facet normal 0.000000 -1.000000 0.000000
  outer loop
   vertex -0.041573 -0.075000 0.050000
   vertex -0.032664 -0.075000 0.090590
   vertex -0.038409 -0.075000 0.097728
  endloop
 endfacet
 facet normal 0.000000 -1.000000 0.000000
  outer loop
   vertex -0.032664 -0.075000 0.090590
   vertex -0.041573 -0.075000 0.050000
   vertex -0.035355 -0.075000 0.050000
  endloop
 endfacet
 facet normal 0.000000 -1.000000 0.000000
  outer loop
   vertex -0.038409 -0.075000 0.097728
   vertex -0.025000 -0.075000 0.125000
   vertex -0.029397 -0.075000 0.138191
  endloop
 endfacet
 facet normal 0.000000 -1.000000 0.000000
  outer loop
   vertex -0.025000 -0.075000 0.125000
   vertex -0.038409 -0.075000 0.097728
   vertex -0.032664 -0.075000 0.090590
  endloop
 endfacet
 facet normal 0.000000 -1.000000 0.000000
  outer loop
   vertex -0.029397 -0.075000 0.138191
   vertex -0.013530 -0.075000 0.147992
   vertex -0.015910 -0.075000 0.165227
  endloop
 endfacet
 facet normal 0.000000 -1.000000 0.000000
  outer loop
   vertex -0.013530 -0.075000 0.147992
   vertex -0.029397 -0.075000 0.138191
   vertex -0.025000 -0.075000 0.125000
  endloop
 endfacet
 facet normal 0.000000 -1.000000 0.000000
  outer loop
   vertex -0.015910 -0.075000 0.165227
   vertex 0.000000 -0.075000 0.156066
   vertex 0.000000 -0.075000 0.174720
  endloop
 endfacet
 facet normal 0.000000 -1.000000 0.000000
  outer loop
   vertex 0.000000 -0.075000 0.156066
   vertex -0.015910 -0.075000 0.165227
   vertex -0.013530 -0.075000 0.147992
  endloop
 endfacet
 facet normal 0.000000 -1.000000 0.000000
  outer loop
   vertex 0.000000 -0.075000 0.156066
   vertex 0.015910 -0.075000 0.165227
   vertex 0.000000 -0.075000 0.174720
  endloop
 endfacet
 facet normal 0.000000 -1.000000 0.000000
  outer loop
   vertex 0.015910 -0.075000 0.165227
   vertex 0.000000 -0.075000 0.156066
   vertex 0.013530 -0.075000 0.147992
  endloop
 endfacet
 facet normal 0.000000 -1.000000 0.000000
  outer loop
   vertex 0.013530 -0.075000 0.147992
   vertex 0.029397 -0.075000 0.138191
   vertex 0.015910 -0.075000 0.165227
  endloop
 endfacet
 facet normal 0.000000 -1.000000 0.000000
  outer loop
   vertex 0.029397 -0.075000 0.138191
   vertex 0.013530 -0.075000 0.147992
   vertex 0.025000 -0.075000 0.125000
  endloop
 endfacet
 facet normal 0.000000 -1.000000 0.000000
  outer loop
   vertex 0.025000 -0.075000 0.125000
   vertex 0.038409 -0.075000 0.097728
   vertex 0.029397 -0.075000 0.138191
  endloop
 endfacet
 facet normal 0.000000 -1.000000 0.000000
  outer loop
   vertex 0.038409 -0.075000 0.097728
   vertex 0.025000 -0.075000 0.125000
   vertex 0.032664 -0.075000 0.090590
  endloop
 endfacet
 facet normal 0.000000 -1.000000 0.000000
  outer loop
   vertex 0.035355 -0.075000 0.050000
   vertex 0.038409 -0.075000 0.097728
   vertex 0.032664 -0.075000 0.090590
  endloop
 endfacet
 facet normal 0.000000 -1.000000 0.000000
  outer loop
   vertex 0.038409 -0.075000 0.097728
   vertex 0.035355 -0.075000 0.050000
   vertex 0.041573 -0.075000 0.050000
  endloop
 endfacet
 facet normal 0.000000 -1.000000 0.000000
  outer loop
   vertex 0.025664 -0.075000 0.018109
   vertex 0.035355 -0.075000 0.050000
   vertex 0.027779 -0.075000 0.050000
  endloop
 endfacet
 facet normal 0.000000 -1.000000 0.000000
  outer loop
   vertex 0.035355 -0.075000 0.050000
   vertex 0.025664 -0.075000 0.018109
   vertex 0.032664 -0.075000 0.009410
  endloop
 endfacet
 facet normal 0.000000 -1.000000 0.000000
  outer loop
   vertex 0.019642 -0.075000 -0.008927
   vertex 0.032664 -0.075000 0.009410
   vertex 0.025664 -0.075000 0.018109
  endloop
 endfacet
 facet normal 0.000000 -1.000000 0.000000
  outer loop
   vertex 0.032664 -0.075000 0.009410
   vertex 0.019642 -0.075000 -0.008927
   vertex 0.025000 -0.075000 -0.025000
  endloop
 endfacet
 facet normal 0.000000 -1.000000 0.000000
  outer loop
   vertex 0.010630 -0.075000 -0.026992
   vertex 0.025000 -0.075000 -0.025000
   vertex 0.019642 -0.075000 -0.008927
  endloop
 endfacet
 facet normal 0.000000 -1.000000 0.000000
  outer loop
   vertex 0.025000 -0.075000 -0.025000
   vertex 0.010630 -0.075000 -0.026992
   vertex 0.013530 -0.075000 -0.047992
  endloop
 endfacet
 facet normal 0.000000 -1.000000 0.000000
  outer loop
   vertex 0.000000 -0.075000 -0.033335
   vertex 0.013530 -0.075000 -0.047992
   vertex 0.010630 -0.075000 -0.026992
  endloop
 endfacet
 facet normal 0.000000 -1.000000 0.000000
  outer loop
   vertex 0.013530 -0.075000 -0.047992
   vertex 0.000000 -0.075000 -0.033335
   vertex 0.000000 -0.075000 -0.056066
  endloop
 endfacet
 facet normal 0.000000 -1.000000 0.000000
  outer loop
   vertex -0.013530 -0.075000 -0.047992
   vertex 0.000000 -0.075000 -0.033335
   vertex -0.010630 -0.075000 -0.026992
  endloop
 endfacet
 facet normal 0.000000 -1.000000 0.000000
  outer loop
   vertex 0.000000 -0.075000 -0.033335
   vertex -0.013530 -0.075000 -0.047992
   vertex 0.000000 -0.075000 -0.056066
  endloop
 endfacet
 facet normal 0.000000 -1.000000 0.000000
  outer loop
   vertex -0.025000 -0.075000 -0.025000
   vertex -0.010630 -0.075000 -0.026992
   vertex -0.019642 -0.075000 -0.008927
  endloop
 endfacet
 facet normal 0.000000 -1.000000 0.000000
  outer loop
   vertex -0.010630 -0.075000 -0.026992
   vertex -0.025000 -0.075000 -0.025000
   vertex -0.013530 -0.075000 -0.047992
  endloop
 endfacet
 facet normal 0.000000 -1.000000 0.000000
  outer loop
   vertex -0.032664 -0.075000 0.009410
   vertex -0.019642 -0.075000 -0.008927
   vertex -0.025664 -0.075000 0.018109
  endloop
 endfacet
 facet normal 0.000000 -1.000000 0.000000
  outer loop
   vertex -0.019642 -0.075000 -0.008927
   vertex -0.032664 -0.075000 0.009410
   vertex -0.025000 -0.075000 -0.025000
  endloop
 endfacet
 facet normal 0.000000 -1.000000 0.000000
  outer loop
   vertex -0.035355 -0.075000 0.050000
   vertex -0.025664 -0.075000 0.018109
   vertex -0.027779 -0.075000 0.050000
  endloop
 endfacet
 facet normal 0.000000 -1.000000 0.000000
  outer loop
   vertex -0.025664 -0.075000 0.018109
   vertex -0.035355 -0.075000 0.050000
   vertex -0.032664 -0.075000 0.009410
  endloop
 endfacet
 facet normal 0.000000 -1.000000 0.000000
  outer loop
   vertex -0.035355 -0.075000 0.050000
   vertex -0.025664 -0.075000 0.081891
   vertex -0.032664 -0.075000 0.090590
  endloop
 endfacet
 facet normal 0.000000 -1.000000 0.000000
  outer loop
   vertex -0.025664 -0.075000 0.081891
   vertex -0.035355 -0.075000 0.050000
   vertex -0.027779 -0.075000 0.050000
  endloop
 endfacet
 facet normal 0.000000 -1.000000 0.000000
  outer loop
   vertex -0.032664 -0.075000 0.090590
   vertex -0.019642 -0.075000 0.108927
   vertex -0.025000 -0.075000 0.125000
  endloop
 endfacet
 facet normal 0.000000 -1.000000 0.000000
  outer loop
   vertex -0.019642 -0.075000 0.108927
   vertex -0.032664 -0.075000 0.090590
   vertex -0.025664 -0.075000 0.081891
  endloop
 endfacet
 facet normal 0.000000 -1.000000 0.000000
  outer loop
   vertex -0.025000 -0.075000 0.125000
   vertex -0.010630 -0.075000 0.126992
   vertex -0.013530 -0.075000 0.147992
  endloop
 endfacet
 facet normal 0.000000 -1.000000 0.000000
  outer loop
   vertex -0.010630 -0.075000 0.126992
   vertex -0.025000 -0.075000 0.125000
   vertex -0.019642 -0.075000 0.108927
  endloop
 endfacet
 facet normal 0.000000 -1.000000 0.000000
  outer loop
   vertex -0.013530 -0.075000 0.147992
   vertex 0.000000 -0.075000 0.133336
   vertex 0.000000 -0.075000 0.156066
  endloop
 endfacet
 facet normal 0.000000 -1.000000 0.000000
  outer loop
   vertex 0.000000 -0.075000 0.133336
   vertex -0.013530 -0.075000 0.147992
   vertex -0.010630 -0.075000 0.126992
  endloop
 endfacet
 facet normal 0.000000 -1.000000 0.000000
  outer loop
   vertex 0.000000 -0.075000 0.133336
   vertex 0.013530 -0.075000 0.147992
   vertex 0.000000 -0.075000 0.156066
  endloop
 endfacet
 facet normal 0.000000 -1.000000 0.000000
  outer loop
   vertex 0.013530 -0.075000 0.147992
   vertex 0.000000 -0.075000 0.133336
   vertex 0.010630 -0.075000 0.126992
  endloop
 endfacet
 facet normal 0.000000 -1.000000 0.000000
  outer loop
   vertex 0.010630 -0.075000 0.126992
   vertex 0.025000 -0.075000 0.125000
   vertex 0.013530 -0.075000 0.147992
  endloop
 endfacet
 facet normal 0.000000 -1.000000 0.000000
  outer loop
   vertex 0.025000 -0.075000 0.125000
   vertex 0.010630 -0.075000 0.126992
   vertex 0.019642 -0.075000 0.108927
  endloop
 endfacet
 facet normal 0.000000 -1.000000 0.000000
  outer loop
   vertex 0.019642 -0.075000 0.108927
   vertex 0.032664 -0.075000 0.090590
   vertex 0.025000 -0.075000 0.125000
  endloop
 endfacet
 facet normal 0.000000 -1.000000 0.000000
  outer loop
   vertex 0.032664 -0.075000 0.090590
   vertex 0.019642 -0.075000 0.108927
   vertex 0.025664 -0.075000 0.081891
  endloop
 endfacet
 facet normal 0.000000 -1.000000 0.000000
  outer loop
   vertex 0.027779 -0.075000 0.050000
   vertex 0.032664 -0.075000 0.090590
   vertex 0.025664 -0.075000 0.081891
  endloop
 endfacet
 facet normal 0.000000 -1.000000 0.000000
  outer loop
   vertex 0.032664 -0.075000 0.090590
   vertex 0.027779 -0.075000 0.050000
   vertex 0.035355 -0.075000 0.050000
  endloop
 endfacet
 facet normal 0.000000 -1.000000 0.000000
  outer loop
   vertex 0.017678 -0.075000 0.028033
   vertex 0.027779 -0.075000 0.050000
   vertex 0.019134 -0.075000 0.050000
  endloop
 endfacet
 facet normal 0.000000 -1.000000 0.000000
  outer loop
   vertex 0.027779 -0.075000 0.050000
   vertex 0.017678 -0.075000 0.028033
   vertex 0.025664 -0.075000 0.018109
  endloop
 endfacet
 facet normal 0.000000 -1.000000 0.000000
  outer loop
   vertex 0.013530 -0.075000 0.009410
   vertex 0.025664 -0.075000 0.018109
   vertex 0.017678 -0.075000 0.028033
  endloop
 endfacet
 facet normal 0.000000 -1.000000 0.000000
  outer loop
   vertex 0.025664 -0.075000 0.018109
   vertex 0.013530 -0.075000 0.009410
   vertex 0.019642 -0.075000 -0.008927
  endloop
 endfacet
 facet normal 0.000000 -1.000000 0.000000
  outer loop
   vertex 0.007322 -0.075000 -0.003033
   vertex 0.019642 -0.075000 -0.008927
   vertex 0.013530 -0.075000 0.009410
  endloop
 endfacet
 facet normal 0.000000 -1.000000 0.000000
  outer loop
   vertex 0.019642 -0.075000 -0.008927
   vertex 0.007322 -0.075000 -0.003033
   vertex 0.010630 -0.075000 -0.026992
  endloop
 endfacet
 facet normal 0.000000 -1.000000 0.000000
  outer loop
   vertex 0.000000 -0.075000 -0.007402
   vertex 0.010630 -0.075000 -0.026992
   vertex 0.007322 -0.075000 -0.003033
  endloop
 endfacet
 facet normal 0.000000 -1.000000 0.000000
  outer loop
   vertex 0.010630 -0.075000 -0.026992
   vertex 0.000000 -0.075000 -0.007402
   vertex 0.000000 -0.075000 -0.033335
  endloop
 endfacet
 facet normal 0.000000 -1.000000 0.000000
  outer loop
   vertex -0.010630 -0.075000 -0.026992
   vertex 0.000000 -0.075000 -0.007402
   vertex -0.007322 -0.075000 -0.003033
  endloop
 endfacet
 facet normal 0.000000 -1.000000 0.000000
  outer loop
   vertex 0.000000 -0.075000 -0.007402
   vertex -0.010630 -0.075000 -0.026992
   vertex 0.000000 -0.075000 -0.033335
  endloop
 endfacet
 facet normal 0.000000 -1.000000 0.000000
  outer loop
   vertex -0.019642 -0.075000 -0.008927
   vertex -0.007322 -0.075000 -0.003033
   vertex -0.013530 -0.075000 0.009410
  endloop
 endfacet
 facet normal 0.000000 -1.000000 0.000000
  outer loop
   vertex -0.007322 -0.075000 -0.003033
   vertex -0.019642 -0.075000 -0.008927
   vertex -0.010630 -0.075000 -0.026992
  endloop
 endfacet
 facet normal 0.000000 -1.000000 0.000000
  outer loop
   vertex -0.025664 -0.075000 0.018109
   vertex -0.013530 -0.075000 0.009410
   vertex -0.017678 -0.075000 0.028033
  endloop
 endfacet
 facet normal 0.000000 -1.000000 0.000000
  outer loop
   vertex -0.013530 -0.075000 0.009410
   vertex -0.025664 -0.075000 0.018109
   vertex -0.019642 -0.075000 -0.008927
  endloop
 endfacet
 facet normal 0.000000 -1.000000 0.000000
  outer loop
   vertex -0.027779 -0.075000 0.050000
   vertex -0.017678 -0.075000 0.028033
   vertex -0.019134 -0.075000 0.050000
  endloop
 endfacet
 facet normal 0.000000 -1.000000 0.000000
  outer loop
   vertex -0.017678 -0.075000 0.028033
   vertex -0.027779 -0.075000 0.050000
   vertex -0.025664 -0.075000 0.018109
  endloop
 endfacet
 facet normal 0.000000 -1.000000 0.000000
  outer loop
   vertex -0.027779 -0.075000 0.050000
   vertex -0.017678 -0.075000 0.071967
   vertex -0.025664 -0.075000 0.081891
  endloop
 endfacet
 facet normal 0.000000 -1.000000 0.000000
  outer loop
   vertex -0.017678 -0.075000 0.071967
   vertex -0.027779 -0.075000 0.050000
   vertex -0.019134 -0.075000 0.050000
  endloop
 endfacet
 facet normal 0.000000 -1.000000 0.000000
  outer loop
   vertex -0.025664 -0.075000 0.081891
   vertex -0.013530 -0.075000 0.090590
   vertex -0.019642 -0.075000 0.108927
  endloop
 endfacet
 facet normal 0.000000 -1.000000 0.000000
  outer loop
   vertex -0.013530 -0.075000 0.090590
   vertex -0.025664 -0.075000 0.081891
   vertex -0.017678 -0.075000 0.071967
  endloop
 endfacet
 facet normal 0.000000 -1.000000 0.000000
  outer loop
   vertex -0.019642 -0.075000 0.108927
   vertex -0.007322 -0.075000 0.103033
   vertex -0.010630 -0.075000 0.126992
  endloop
 endfacet
 facet normal 0.000000 -1.000000 0.000000
  outer loop
   vertex -0.007322 -0.075000 0.103033
   vertex -0.019642 -0.075000 0.108927
   vertex -0.013530 -0.075000 0.090590
  endloop
 endfacet
 facet normal 0.000000 -1.000000 0.000000
  outer loop
   vertex -0.010630 -0.075000 0.126992
   vertex 0.000000 -0.075000 0.107403
   vertex 0.000000 -0.075000 0.133336
  endloop
 endfacet
 facet normal 0.000000 -1.000000 0.000000
  outer loop
   vertex 0.000000 -0.075000 0.107403
   vertex -0.010630 -0.075000 0.126992
   vertex -0.007322 -0.075000 0.103033
  endloop
 endfacet
 facet normal 0.000000 -1.000000 0.000000
  outer loop
   vertex 0.000000 -0.075000 0.107403
   vertex 0.010630 -0.075000 0.126992
   vertex 0.000000 -0.075000 0.133336
  endloop
 endfacet
 facet normal 0.000000 -1.000000 0.000000
  outer loop
   vertex 0.010630 -0.075000 0.126992
   vertex 0.000000 -0.075000 0.107403
   vertex 0.007322 -0.075000 0.103033
  endloop
 endfacet
 facet normal 0.000000 -1.000000 0.000000
  outer loop
   vertex 0.007322 -0.075000 0.103033
   vertex 0.019642 -0.075000 0.108927
   vertex 0.010630 -0.075000 0.126992
  endloop
 endfacet
 facet normal 0.000000 -1.000000 0.000000
  outer loop
   vertex 0.019642 -0.075000 0.108927
   vertex 0.007322 -0.075000 0.103033
   vertex 0.013530 -0.075000 0.090590
  endloop
 endfacet
 facet normal 0.000000 -1.000000 0.000000
  outer loop
   vertex 0.013530 -0.075000 0.090590
   vertex 0.025664 -0.075000 0.081891
   vertex 0.019642 -0.075000 0.108927
  endloop
 endfacet
 facet normal 0.000000 -1.000000 0.000000
  outer loop
   vertex 0.025664 -0.075000 0.081891
   vertex 0.013530 -0.075000 0.090590
   vertex 0.017678 -0.075000 0.071967
  endloop
 endfacet
 facet normal 0.000000 -1.000000 0.000000
  outer loop
   vertex 0.019134 -0.075000 0.050000
   vertex 0.025664 -0.075000 0.081891
   vertex 0.017678 -0.075000 0.071967
  endloop
 endfacet
 facet normal 0.000000 -1.000000 0.000000
  outer loop
   vertex 0.025664 -0.075000 0.081891
   vertex 0.019134 -0.075000 0.050000
   vertex 0.027779 -0.075000 0.050000
  endloop
 endfacet
 facet normal 0.000000 -1.000000 0.000000
  outer loop
   vertex 0.009012 -0.075000 0.038801
   vertex 0.019134 -0.075000 0.050000
   vertex 0.009755 -0.075000 0.050000
  endloop
 endfacet
 facet normal 0.000000 -1.000000 0.000000
  outer loop
   vertex 0.019134 -0.075000 0.050000
   vertex 0.009012 -0.075000 0.038801
   vertex 0.017678 -0.075000 0.028033
  endloop
 endfacet
 facet normal 0.000000 -1.000000 0.000000
  outer loop
   vertex 0.006897 -0.075000 0.029308
   vertex 0.017678 -0.075000 0.028033
   vertex 0.009012 -0.075000 0.038801
  endloop
 endfacet
 facet normal 0.000000 -1.000000 0.000000
  outer loop
   vertex 0.017678 -0.075000 0.028033
   vertex 0.006897 -0.075000 0.029308
   vertex 0.013530 -0.075000 0.009410
  endloop
 endfacet
 facet normal 0.000000 -1.000000 0.000000
  outer loop
   vertex 0.003733 -0.075000 0.022964
   vertex 0.013530 -0.075000 0.009410
   vertex 0.006897 -0.075000 0.029308
  endloop
 endfacet
 facet normal 0.000000 -1.000000 0.000000
  outer loop
   vertex 0.013530 -0.075000 0.009410
   vertex 0.003733 -0.075000 0.022964
   vertex 0.007322 -0.075000 -0.003033
  endloop
 endfacet
 facet normal 0.000000 -1.000000 0.000000
  outer loop
   vertex 0.000000 -0.075000 0.020736
   vertex 0.007322 -0.075000 -0.003033
   vertex 0.003733 -0.075000 0.022964
  endloop
 endfacet
 facet normal 0.000000 -1.000000 0.000000
  outer loop
   vertex 0.007322 -0.075000 -0.003033
   vertex 0.000000 -0.075000 0.020736
   vertex 0.000000 -0.075000 -0.007402
  endloop
 endfacet
 facet normal 0.000000 -1.000000 0.000000
  outer loop
   vertex -0.007322 -0.075000 -0.003033
   vertex 0.000000 -0.075000 0.020736
   vertex -0.003733 -0.075000 0.022964
  endloop
 endfacet
 facet normal 0.000000 -1.000000 0.000000
  outer loop
   vertex 0.000000 -0.075000 0.020736
   vertex -0.007322 -0.075000 -0.003033
   vertex 0.000000 -0.075000 -0.007402
  endloop
 endfacet
 facet normal 0.000000 -1.000000 0.000000
  outer loop
   vertex -0.013530 -0.075000 0.009410
   vertex -0.003733 -0.075000 0.022964
   vertex -0.006897 -0.075000 0.029308
  endloop
 endfacet
 facet normal 0.000000 -1.000000 0.000000
  outer loop
   vertex -0.003733 -0.075000 0.022964
   vertex -0.013530 -0.075000 0.009410
   vertex -0.007322 -0.075000 -0.003033
  endloop
 endfacet
 facet normal 0.000000 -1.000000 0.000000
  outer loop
   vertex -0.017678 -0.075000 0.028033
   vertex -0.006897 -0.075000 0.029308
   vertex -0.009012 -0.075000 0.038801
  endloop
 endfacet
 facet normal 0.000000 -1.000000 0.000000
  outer loop
   vertex -0.006897 -0.075000 0.029308
   vertex -0.017678 -0.075000 0.028033
   vertex -0.013530 -0.075000 0.009410
  endloop
 endfacet
 facet normal 0.000000 -1.000000 0.000000
  outer loop
   vertex -0.019134 -0.075000 0.050000
   vertex -0.009012 -0.075000 0.038801
   vertex -0.009755 -0.075000 0.050000
  endloop
 endfacet
 facet normal 0.000000 -1.000000 0.000000
  outer loop
   vertex -0.009012 -0.075000 0.038801
   vertex -0.019134 -0.075000 0.050000
   vertex -0.017678 -0.075000 0.028033
  endloop
 endfacet
 facet normal 0.000000 -1.000000 0.000000
  outer loop
   vertex -0.019134 -0.075000 0.050000
   vertex -0.009012 -0.075000 0.061199
   vertex -0.017678 -0.075000 0.071967
  endloop
 endfacet
 facet normal 0.000000 -1.000000 0.000000
  outer loop
   vertex -0.009012 -0.075000 0.061199
   vertex -0.019134 -0.075000 0.050000
   vertex -0.009755 -0.075000 0.050000
  endloop
 endfacet
 facet normal 0.000000 -1.000000 0.000000
  outer loop
   vertex -0.017678 -0.075000 0.071967
   vertex -0.006897 -0.075000 0.070692
   vertex -0.013530 -0.075000 0.090590
  endloop
 endfacet
 facet normal 0.000000 -1.000000 0.000000
  outer loop
   vertex -0.006897 -0.075000 0.070692
   vertex -0.017678 -0.075000 0.071967
   vertex -0.009012 -0.075000 0.061199
  endloop
 endfacet
 facet normal 0.000000 -1.000000 0.000000
  outer loop
   vertex -0.013530 -0.075000 0.090590
   vertex -0.003733 -0.075000 0.077036
   vertex -0.007322 -0.075000 0.103033
  endloop
 endfacet
 facet normal 0.000000 -1.000000 0.000000
  outer loop
   vertex -0.003733 -0.075000 0.077036
   vertex -0.013530 -0.075000 0.090590
   vertex -0.006897 -0.075000 0.070692
  endloop
 endfacet
 facet normal 0.000000 -1.000000 0.000000
  outer loop
   vertex -0.007322 -0.075000 0.103033
   vertex 0.000000 -0.075000 0.079264
   vertex 0.000000 -0.075000 0.107403
  endloop
 endfacet
 facet normal 0.000000 -1.000000 0.000000
  outer loop
   vertex 0.000000 -0.075000 0.079264
   vertex -0.007322 -0.075000 0.103033
   vertex -0.003733 -0.075000 0.077036
  endloop
 endfacet
 facet normal 0.000000 -1.000000 0.000000
  outer loop
   vertex 0.000000 -0.075000 0.079264
   vertex 0.007322 -0.075000 0.103033
   vertex 0.000000 -0.075000 0.107403
  endloop
 endfacet
 facet normal 0.000000 -1.000000 0.000000
  outer loop
   vertex 0.007322 -0.075000 0.103033
   vertex 0.000000 -0.075000 0.079264
   vertex 0.003733 -0.075000 0.077036
  endloop
 endfacet
 facet normal 0.000000 -1.000000 0.000000
  outer loop
   vertex 0.003733 -0.075000 0.077036
   vertex 0.013530 -0.075000 0.090590
   vertex 0.007322 -0.075000 0.103033
  endloop
 endfacet
 facet normal 0.000000 -1.000000 0.000000
  outer loop
   vertex 0.013530 -0.075000 0.090590
   vertex 0.003733 -0.075000 0.077036
   vertex 0.006897 -0.075000 0.070692
  endloop
 endfacet
 facet normal 0.000000 -1.000000 0.000000
  outer loop
   vertex 0.006897 -0.075000 0.070692
   vertex 0.017678 -0.075000 0.071967
   vertex 0.013530 -0.075000 0.090590
  endloop
 endfacet
 facet normal 0.000000 -1.000000 0.000000
  outer loop
   vertex 0.017678 -0.075000 0.071967
   vertex 0.006897 -0.075000 0.070692
   vertex 0.009012 -0.075000 0.061199
  endloop
 endfacet
 facet normal 0.000000 -1.000000 0.000000
  outer loop
   vertex 0.009755 -0.075000 0.050000
   vertex 0.017678 -0.075000 0.071967
   vertex 0.009012 -0.075000 0.061199
  endloop
 endfacet
 facet normal 0.000000 -1.000000 0.000000
  outer loop
   vertex 0.017678 -0.075000 0.071967
   vertex 0.009755 -0.075000 0.050000
   vertex 0.019134 -0.075000 0.050000
  endloop
 endfacet
endsolid
