solid stl file generated from AC3D
 facet normal 0.000000 -1.000000 0.000000
  outer loop
   vertex -0.000068 -0.098800 0.000539
   vertex 0.039932 -0.098800 0.000539
   vertex 0.038312 -0.098800 0.011808
  endloop
 endfacet
 facet normal 0.000000 -1.000000 0.000000
  outer loop
   vertex -0.000068 -0.098800 0.000539
   vertex 0.038312 -0.098800 -0.010730
   vertex 0.039932 -0.098800 0.000539
  endloop
 endfacet
 facet normal 0.000000 -1.000000 0.000000
  outer loop
   vertex -0.000068 -0.098800 0.000539
   vertex 0.033582 -0.098800 -0.021087
   vertex 0.038312 -0.098800 -0.010730
  endloop
 endfacet
 facet normal 0.000000 -1.000000 0.000000
  outer loop
   vertex -0.000068 -0.098800 0.000539
   vertex 0.026126 -0.098800 -0.029691
   vertex 0.033582 -0.098800 -0.021087
  endloop
 endfacet
 facet normal 0.000000 -1.000000 0.000000
  outer loop
   vertex -0.000068 -0.098800 0.000539
   vertex 0.016548 -0.098800 -0.035846
   vertex 0.026126 -0.098800 -0.029691
  endloop
 endfacet
 facet normal 0.000000 -1.000000 0.000000
  outer loop
   vertex -0.000068 -0.098800 0.000539
   vertex 0.005624 -0.098800 -0.039054
   vertex 0.016548 -0.098800 -0.035846
  endloop
 endfacet
 facet normal 0.000000 -1.000000 0.000000
  outer loop
   vertex -0.000068 -0.098800 0.000539
   vertex -0.005761 -0.098800 -0.039054
   vertex 0.005624 -0.098800 -0.039054
  endloop
 endfacet
 facet normal 0.000000 -1.000000 0.000000
  outer loop
   vertex -0.000068 -0.098800 0.000539
   vertex -0.016685 -0.098800 -0.035846
   vertex -0.005761 -0.098800 -0.039054
  endloop
 endfacet
 facet normal 0.000000 -1.000000 0.000000
  outer loop
   vertex -0.000068 -0.098800 0.000539
   vertex -0.026263 -0.098800 -0.029691
   vertex -0.016685 -0.098800 -0.035846
  endloop
 endfacet
 facet normal 0.000000 -1.000000 0.000000
  outer loop
   vertex -0.000068 -0.098800 0.000539
   vertex -0.033718 -0.098800 -0.021086
   vertex -0.026263 -0.098800 -0.029691
  endloop
 endfacet
 facet normal 0.000000 -1.000000 0.000000
  outer loop
   vertex -0.000068 -0.098800 0.000539
   vertex -0.038448 -0.098800 -0.010730
   vertex -0.033718 -0.098800 -0.021086
  endloop
 endfacet
 facet normal 0.000000 -1.000000 0.000000
  outer loop
   vertex -0.000068 -0.098800 0.000539
   vertex -0.040068 -0.098800 0.000539
   vertex -0.038448 -0.098800 -0.010730
  endloop
 endfacet
 facet normal 0.000000 -1.000000 0.000000
  outer loop
   vertex -0.000068 -0.098800 0.000539
   vertex -0.038448 -0.098800 0.011808
   vertex -0.040068 -0.098800 0.000539
  endloop
 endfacet
 facet normal 0.000000 -1.000000 0.000000
  outer loop
   vertex -0.000068 -0.098800 0.000539
   vertex -0.033718 -0.098800 0.022165
   vertex -0.038448 -0.098800 0.011808
  endloop
 endfacet
 facet normal 0.000000 -1.000000 0.000000
  outer loop
   vertex -0.000068 -0.098800 0.000539
   vertex -0.026263 -0.098800 0.030769
   vertex -0.033718 -0.098800 0.022165
  endloop
 endfacet
 facet normal 0.000000 -1.000000 0.000000
  outer loop
   vertex -0.000068 -0.098800 0.000539
   vertex -0.016685 -0.098800 0.036924
   vertex -0.026263 -0.098800 0.030769
  endloop
 endfacet
 facet normal 0.000000 -1.000000 0.000000
  outer loop
   vertex -0.000068 -0.098800 0.000539
   vertex -0.005761 -0.098800 0.040132
   vertex -0.016685 -0.098800 0.036924
  endloop
 endfacet
 facet normal 0.000000 -1.000000 0.000000
  outer loop
   vertex -0.000068 -0.098800 0.000539
   vertex 0.005624 -0.098800 0.040132
   vertex -0.005761 -0.098800 0.040132
  endloop
 endfacet
 facet normal 0.000000 -1.000000 0.000000
  outer loop
   vertex -0.000068 -0.098800 0.000539
   vertex 0.016548 -0.098800 0.036924
   vertex 0.005624 -0.098800 0.040132
  endloop
 endfacet
 facet normal 0.000000 -1.000000 0.000000
  outer loop
   vertex -0.000068 -0.098800 0.000539
   vertex 0.026126 -0.098800 0.030769
   vertex 0.016548 -0.098800 0.036924
  endloop
 endfacet
 facet normal 0.000000 -1.000000 0.000000
  outer loop
   vertex -0.000068 -0.098800 0.000539
   vertex 0.033582 -0.098800 0.022165
   vertex 0.026126 -0.098800 0.030769
  endloop
 endfacet
 facet normal 0.000000 -1.000000 0.000000
  outer loop
   vertex -0.000068 -0.098800 0.000539
   vertex 0.038312 -0.098800 0.011808
   vertex 0.033582 -0.098800 0.022165
  endloop
 endfacet
 facet normal 0.000000 1.000000 0.000000
  outer loop
   vertex -0.000068 0.041200 0.000539
   vertex 0.038312 0.041200 0.011808
   vertex 0.039932 0.041200 0.000539
  endloop
 endfacet
 facet normal 0.000000 1.000000 0.000000
  outer loop
   vertex -0.000068 0.041200 0.000539
   vertex 0.039932 0.041200 0.000539
   vertex 0.038312 0.041200 -0.010730
  endloop
 endfacet
 facet normal 0.000000 1.000000 0.000000
  outer loop
   vertex -0.000068 0.041200 0.000539
   vertex 0.038312 0.041200 -0.010730
   vertex 0.033582 0.041200 -0.021087
  endloop
 endfacet
 facet normal 0.000000 1.000000 0.000000
  outer loop
   vertex -0.000068 0.041200 0.000539
   vertex 0.033582 0.041200 -0.021087
   vertex 0.026126 0.041200 -0.029691
  endloop
 endfacet
 facet normal 0.000000 1.000000 0.000000
  outer loop
   vertex -0.000068 0.041200 0.000539
   vertex 0.026126 0.041200 -0.029691
   vertex 0.016548 0.041200 -0.035846
  endloop
 endfacet
 facet normal 0.000000 1.000000 0.000000
  outer loop
   vertex -0.000068 0.041200 0.000539
   vertex 0.016548 0.041200 -0.035846
   vertex 0.005624 0.041200 -0.039054
  endloop
 endfacet
 facet normal 0.000000 1.000000 0.000000
  outer loop
   vertex -0.000068 0.041200 0.000539
   vertex 0.005624 0.041200 -0.039054
   vertex -0.005761 0.041200 -0.039054
  endloop
 endfacet
 facet normal 0.000000 1.000000 0.000000
  outer loop
   vertex -0.000068 0.041200 0.000539
   vertex -0.005761 0.041200 -0.039054
   vertex -0.016685 0.041200 -0.035846
  endloop
 endfacet
 facet normal 0.000000 1.000000 0.000000
  outer loop
   vertex -0.000068 0.041200 0.000539
   vertex -0.016685 0.041200 -0.035846
   vertex -0.026263 0.041200 -0.029691
  endloop
 endfacet
 facet normal 0.000000 1.000000 0.000000
  outer loop
   vertex -0.000068 0.041200 0.000539
   vertex -0.026263 0.041200 -0.029691
   vertex -0.033718 0.041200 -0.021086
  endloop
 endfacet
 facet normal 0.000000 1.000000 0.000000
  outer loop
   vertex -0.000068 0.041200 0.000539
   vertex -0.033718 0.041200 -0.021086
   vertex -0.038448 0.041200 -0.010730
  endloop
 endfacet
 facet normal 0.000000 1.000000 0.000000
  outer loop
   vertex -0.000068 0.041200 0.000539
   vertex -0.038448 0.041200 -0.010730
   vertex -0.040068 0.041200 0.000539
  endloop
 endfacet
 facet normal 0.000000 1.000000 0.000000
  outer loop
   vertex -0.000068 0.041200 0.000539
   vertex -0.040068 0.041200 0.000539
   vertex -0.038448 0.041200 0.011808
  endloop
 endfacet
 facet normal 0.000000 1.000000 0.000000
  outer loop
   vertex -0.000068 0.041200 0.000539
   vertex -0.038448 0.041200 0.011808
   vertex -0.033718 0.041200 0.022165
  endloop
 endfacet
 facet normal 0.000000 1.000000 0.000000
  outer loop
   vertex -0.000068 0.041200 0.000539
   vertex -0.033718 0.041200 0.022165
   vertex -0.026263 0.041200 0.030769
  endloop
 endfacet
 facet normal 0.000000 1.000000 0.000000
  outer loop
   vertex -0.000068 0.041200 0.000539
   vertex -0.026263 0.041200 0.030769
   vertex -0.016685 0.041200 0.036924
  endloop
 endfacet
 facet normal 0.000000 1.000000 0.000000
  outer loop
   vertex -0.000068 0.041200 0.000539
   vertex -0.016685 0.041200 0.036924
   vertex -0.005761 0.041200 0.040132
  endloop
 endfacet
 facet normal 0.000000 1.000000 0.000000
  outer loop
   vertex -0.000068 0.041200 0.000539
   vertex -0.005761 0.041200 0.040132
   vertex 0.005624 0.041200 0.040132
  endloop
 endfacet
 facet normal 0.000000 1.000000 0.000000
  outer loop
   vertex -0.000068 0.041200 0.000539
   vertex 0.005624 0.041200 0.040132
   vertex 0.016548 0.041200 0.036924
  endloop
 endfacet
 facet normal 0.000000 1.000000 0.000000
  outer loop
   vertex -0.000068 0.041200 0.000539
   vertex 0.016548 0.041200 0.036924
   vertex 0.026126 0.041200 0.030769
  endloop
 endfacet
 facet normal 0.000000 1.000000 0.000000
  outer loop
   vertex -0.000068 0.041200 0.000539
   vertex 0.026126 0.041200 0.030769
   vertex 0.033582 0.041200 0.022165
  endloop
 endfacet
 facet normal 0.000000 1.000000 0.000000
  outer loop
   vertex -0.000068 0.041200 0.000539
   vertex 0.033582 0.041200 0.022165
   vertex 0.038312 0.041200 0.011808
  endloop
 endfacet
 facet normal 0.989822 0.000000 0.142314
  outer loop
   vertex 0.038312 -0.098800 0.011808
   vertex 0.039932 0.041200 0.000539
   vertex 0.038312 0.041200 0.011808
  endloop
 endfacet
 facet normal 0.989822 0.000000 0.142314
  outer loop
   vertex 0.039932 0.041200 0.000539
   vertex 0.038312 -0.098800 0.011808
   vertex 0.039932 -0.098800 0.000539
  endloop
 endfacet
 facet normal 0.989821 0.000000 -0.142321
  outer loop
   vertex 0.039932 -0.098800 0.000539
   vertex 0.038312 0.041200 -0.010730
   vertex 0.039932 0.041200 0.000539
  endloop
 endfacet
 facet normal 0.989821 0.000000 -0.142321
  outer loop
   vertex 0.038312 0.041200 -0.010730
   vertex 0.039932 -0.098800 0.000539
   vertex 0.038312 -0.098800 -0.010730
  endloop
 endfacet
 facet normal 0.909633 0.000000 -0.415413
  outer loop
   vertex 0.038312 -0.098800 -0.010730
   vertex 0.033582 0.041200 -0.021087
   vertex 0.038312 0.041200 -0.010730
  endloop
 endfacet
 facet normal 0.909633 0.000000 -0.415413
  outer loop
   vertex 0.033582 0.041200 -0.021087
   vertex 0.038312 -0.098800 -0.010730
   vertex 0.033582 -0.098800 -0.021087
  endloop
 endfacet
 facet normal 0.755748 0.000000 -0.654862
  outer loop
   vertex 0.033582 -0.098800 -0.021087
   vertex 0.026126 0.041200 -0.029691
   vertex 0.033582 0.041200 -0.021087
  endloop
 endfacet
 facet normal 0.755748 0.000000 -0.654862
  outer loop
   vertex 0.026126 0.041200 -0.029691
   vertex 0.033582 -0.098800 -0.021087
   vertex 0.026126 -0.098800 -0.029691
  endloop
 endfacet
 facet normal 0.540638 0.000000 -0.841255
  outer loop
   vertex 0.016548 -0.098800 -0.035846
   vertex 0.026126 0.041200 -0.029691
   vertex 0.026126 -0.098800 -0.029691
  endloop
 endfacet
 facet normal 0.540638 0.000000 -0.841255
  outer loop
   vertex 0.026126 0.041200 -0.029691
   vertex 0.016548 -0.098800 -0.035846
   vertex 0.016548 0.041200 -0.035846
  endloop
 endfacet
 facet normal 0.281736 0.000000 -0.959492
  outer loop
   vertex 0.005624 -0.098800 -0.039054
   vertex 0.016548 0.041200 -0.035846
   vertex 0.016548 -0.098800 -0.035846
  endloop
 endfacet
 facet normal 0.281736 0.000000 -0.959492
  outer loop
   vertex 0.016548 0.041200 -0.035846
   vertex 0.005624 -0.098800 -0.039054
   vertex 0.005624 0.041200 -0.039054
  endloop
 endfacet
 facet normal 0.000000 0.000000 -1.000000
  outer loop
   vertex -0.005761 -0.098800 -0.039054
   vertex 0.005624 0.041200 -0.039054
   vertex 0.005624 -0.098800 -0.039054
  endloop
 endfacet
 facet normal 0.000000 0.000000 -1.000000
  outer loop
   vertex 0.005624 0.041200 -0.039054
   vertex -0.005761 -0.098800 -0.039054
   vertex -0.005761 0.041200 -0.039054
  endloop
 endfacet
 facet normal -0.281736 0.000000 -0.959492
  outer loop
   vertex -0.016685 -0.098800 -0.035846
   vertex -0.005761 0.041200 -0.039054
   vertex -0.005761 -0.098800 -0.039054
  endloop
 endfacet
 facet normal -0.281736 0.000000 -0.959492
  outer loop
   vertex -0.005761 0.041200 -0.039054
   vertex -0.016685 -0.098800 -0.035846
   vertex -0.016685 0.041200 -0.035846
  endloop
 endfacet
 facet normal -0.540642 0.000000 -0.841253
  outer loop
   vertex -0.026263 -0.098800 -0.029691
   vertex -0.016685 0.041200 -0.035846
   vertex -0.016685 -0.098800 -0.035846
  endloop
 endfacet
 facet normal -0.540642 0.000000 -0.841253
  outer loop
   vertex -0.016685 0.041200 -0.035846
   vertex -0.026263 -0.098800 -0.029691
   vertex -0.026263 0.041200 -0.029691
  endloop
 endfacet
 facet normal -0.755751 0.000000 -0.654859
  outer loop
   vertex -0.026263 -0.098800 -0.029691
   vertex -0.033718 0.041200 -0.021086
   vertex -0.026263 0.041200 -0.029691
  endloop
 endfacet
 facet normal -0.755751 0.000000 -0.654859
  outer loop
   vertex -0.033718 0.041200 -0.021086
   vertex -0.026263 -0.098800 -0.029691
   vertex -0.033718 -0.098800 -0.021086
  endloop
 endfacet
 facet normal -0.909631 0.000000 -0.415418
  outer loop
   vertex -0.033718 -0.098800 -0.021086
   vertex -0.038448 0.041200 -0.010730
   vertex -0.033718 0.041200 -0.021086
  endloop
 endfacet
 facet normal -0.909631 0.000000 -0.415418
  outer loop
   vertex -0.038448 0.041200 -0.010730
   vertex -0.033718 -0.098800 -0.021086
   vertex -0.038448 -0.098800 -0.010730
  endloop
 endfacet
 facet normal -0.989822 0.000000 -0.142310
  outer loop
   vertex -0.038448 -0.098800 -0.010730
   vertex -0.040068 0.041200 0.000539
   vertex -0.038448 0.041200 -0.010730
  endloop
 endfacet
 facet normal -0.989822 0.000000 -0.142310
  outer loop
   vertex -0.040068 0.041200 0.000539
   vertex -0.038448 -0.098800 -0.010730
   vertex -0.040068 -0.098800 0.000539
  endloop
 endfacet
 facet normal -0.989822 0.000000 0.142310
  outer loop
   vertex -0.040068 -0.098800 0.000539
   vertex -0.038448 0.041200 0.011808
   vertex -0.040068 0.041200 0.000539
  endloop
 endfacet
 facet normal -0.989822 0.000000 0.142310
  outer loop
   vertex -0.038448 0.041200 0.011808
   vertex -0.040068 -0.098800 0.000539
   vertex -0.038448 -0.098800 0.011808
  endloop
 endfacet
 facet normal -0.909631 -0.000000 0.415418
  outer loop
   vertex -0.038448 -0.098800 0.011808
   vertex -0.033718 0.041200 0.022165
   vertex -0.038448 0.041200 0.011808
  endloop
 endfacet
 facet normal -0.909631 -0.000000 0.415418
  outer loop
   vertex -0.033718 0.041200 0.022165
   vertex -0.038448 -0.098800 0.011808
   vertex -0.033718 -0.098800 0.022165
  endloop
 endfacet
 facet normal -0.755751 -0.000000 0.654859
  outer loop
   vertex -0.033718 -0.098800 0.022165
   vertex -0.026263 0.041200 0.030769
   vertex -0.033718 0.041200 0.022165
  endloop
 endfacet
 facet normal -0.755751 -0.000000 0.654859
  outer loop
   vertex -0.026263 0.041200 0.030769
   vertex -0.033718 -0.098800 0.022165
   vertex -0.026263 -0.098800 0.030769
  endloop
 endfacet
 facet normal -0.540642 0.000000 0.841253
  outer loop
   vertex -0.026263 0.041200 0.030769
   vertex -0.016685 -0.098800 0.036924
   vertex -0.016685 0.041200 0.036924
  endloop
 endfacet
 facet normal -0.540642 0.000000 0.841253
  outer loop
   vertex -0.016685 -0.098800 0.036924
   vertex -0.026263 0.041200 0.030769
   vertex -0.026263 -0.098800 0.030769
  endloop
 endfacet
 facet normal -0.281730 0.000000 0.959494
  outer loop
   vertex -0.016685 0.041200 0.036924
   vertex -0.005761 -0.098800 0.040132
   vertex -0.005761 0.041200 0.040132
  endloop
 endfacet
 facet normal -0.281730 0.000000 0.959494
  outer loop
   vertex -0.005761 -0.098800 0.040132
   vertex -0.016685 0.041200 0.036924
   vertex -0.016685 -0.098800 0.036924
  endloop
 endfacet
 facet normal 0.000000 0.000000 1.000000
  outer loop
   vertex -0.005761 0.041200 0.040132
   vertex 0.005624 -0.098800 0.040132
   vertex 0.005624 0.041200 0.040132
  endloop
 endfacet
 facet normal 0.000000 0.000000 1.000000
  outer loop
   vertex 0.005624 -0.098800 0.040132
   vertex -0.005761 0.041200 0.040132
   vertex -0.005761 -0.098800 0.040132
  endloop
 endfacet
 facet normal 0.281730 0.000000 0.959494
  outer loop
   vertex 0.005624 0.041200 0.040132
   vertex 0.016548 -0.098800 0.036924
   vertex 0.016548 0.041200 0.036924
  endloop
 endfacet
 facet normal 0.281730 0.000000 0.959494
  outer loop
   vertex 0.016548 -0.098800 0.036924
   vertex 0.005624 0.041200 0.040132
   vertex 0.005624 -0.098800 0.040132
  endloop
 endfacet
 facet normal 0.540644 0.000000 0.841251
  outer loop
   vertex 0.016548 0.041200 0.036924
   vertex 0.026126 -0.098800 0.030769
   vertex 0.026126 0.041200 0.030769
  endloop
 endfacet
 facet normal 0.540644 0.000000 0.841251
  outer loop
   vertex 0.026126 -0.098800 0.030769
   vertex 0.016548 0.041200 0.036924
   vertex 0.016548 -0.098800 0.036924
  endloop
 endfacet
 facet normal 0.755748 -0.000000 0.654862
  outer loop
   vertex 0.026126 -0.098800 0.030769
   vertex 0.033582 0.041200 0.022165
   vertex 0.026126 0.041200 0.030769
  endloop
 endfacet
 facet normal 0.755748 -0.000000 0.654862
  outer loop
   vertex 0.033582 0.041200 0.022165
   vertex 0.026126 -0.098800 0.030769
   vertex 0.033582 -0.098800 0.022165
  endloop
 endfacet
 facet normal 0.909631 -0.000000 0.415418
  outer loop
   vertex 0.033582 -0.098800 0.022165
   vertex 0.038312 0.041200 0.011808
   vertex 0.033582 0.041200 0.022165
  endloop
 endfacet
 facet normal 0.909631 -0.000000 0.415418
  outer loop
   vertex 0.038312 0.041200 0.011808
   vertex 0.033582 -0.098800 0.022165
   vertex 0.038312 -0.098800 0.011808
  endloop
 endfacet
 facet normal 0.815737 0.442484 0.372533
  outer loop
   vertex 0.033722 0.041200 0.021086
   vertex 0.018458 0.082800 0.005095
   vertex 0.016096 0.082800 0.010274
  endloop
 endfacet
 facet normal 0.815737 0.442484 0.372533
  outer loop
   vertex 0.018458 0.082800 0.005095
   vertex 0.033722 0.041200 0.021086
   vertex 0.038452 0.041200 0.010730
  endloop
 endfacet
 facet normal 0.678523 0.440338 0.587970
  outer loop
   vertex 0.026266 0.041200 0.029691
   vertex 0.016096 0.082800 0.010274
   vertex 0.012365 0.082800 0.014576
  endloop
 endfacet
 facet normal 0.678523 0.440338 0.587970
  outer loop
   vertex 0.016096 0.082800 0.010274
   vertex 0.026266 0.041200 0.029691
   vertex 0.033722 0.041200 0.021086
  endloop
 endfacet
 facet normal 0.486098 0.437320 0.756611
  outer loop
   vertex 0.012365 0.082800 0.014576
   vertex 0.016685 0.041200 0.035846
   vertex 0.026266 0.041200 0.029691
  endloop
 endfacet
 facet normal 0.486098 0.437320 0.756611
  outer loop
   vertex 0.016685 0.041200 0.035846
   vertex 0.012365 0.082800 0.014576
   vertex 0.007578 0.082800 0.017653
  endloop
 endfacet
 facet normal 0.253843 0.433663 0.864581
  outer loop
   vertex 0.007578 0.082800 0.017653
   vertex 0.005760 0.041200 0.039054
   vertex 0.016685 0.041200 0.035846
  endloop
 endfacet
 facet normal 0.253843 0.433663 0.864581
  outer loop
   vertex 0.005760 0.041200 0.039054
   vertex 0.007578 0.082800 0.017653
   vertex 0.002119 0.082800 0.019257
  endloop
 endfacet
 facet normal 0.000000 0.429702 0.902971
  outer loop
   vertex -0.003577 0.082800 0.019257
   vertex 0.005760 0.041200 0.039054
   vertex 0.002119 0.082800 0.019257
  endloop
 endfacet
 facet normal 0.000000 0.429702 0.902971
  outer loop
   vertex 0.005760 0.041200 0.039054
   vertex -0.003577 0.082800 0.019257
   vertex -0.005625 0.041200 0.039054
  endloop
 endfacet
 facet normal -0.255048 0.425700 0.868176
  outer loop
   vertex -0.009036 0.082800 0.017653
   vertex -0.005625 0.041200 0.039054
   vertex -0.003577 0.082800 0.019257
  endloop
 endfacet
 facet normal -0.255048 0.425700 0.868176
  outer loop
   vertex -0.005625 0.041200 0.039054
   vertex -0.009036 0.082800 0.017653
   vertex -0.016544 0.041200 0.035846
  endloop
 endfacet
 facet normal -0.490034 0.422014 0.762738
  outer loop
   vertex -0.013823 0.082800 0.014576
   vertex -0.016544 0.041200 0.035846
   vertex -0.009036 0.082800 0.017653
  endloop
 endfacet
 facet normal -0.490034 0.422014 0.762738
  outer loop
   vertex -0.016544 0.041200 0.035846
   vertex -0.013823 0.082800 0.014576
   vertex -0.026124 0.041200 0.029691
  endloop
 endfacet
 facet normal -0.686221 0.418939 0.594635
  outer loop
   vertex -0.033580 0.041200 0.021086
   vertex -0.013823 0.082800 0.014576
   vertex -0.017555 0.082800 0.010274
  endloop
 endfacet
 facet normal -0.686221 0.418939 0.594635
  outer loop
   vertex -0.013823 0.082800 0.014576
   vertex -0.033580 0.041200 0.021086
   vertex -0.026124 0.041200 0.029691
  endloop
 endfacet
 facet normal -0.826883 0.416726 0.377629
  outer loop
   vertex -0.038310 0.041200 0.010730
   vertex -0.017555 0.082800 0.010274
   vertex -0.019916 0.082800 0.005095
  endloop
 endfacet
 facet normal -0.826883 0.416726 0.377629
  outer loop
   vertex -0.017555 0.082800 0.010274
   vertex -0.038310 0.041200 0.010730
   vertex -0.033580 0.041200 0.021086
  endloop
 endfacet
 facet normal -0.900318 0.415565 0.129359
  outer loop
   vertex -0.039929 0.041200 -0.000539
   vertex -0.019916 0.082800 0.005095
   vertex -0.020729 0.082800 -0.000539
  endloop
 endfacet
 facet normal -0.900318 0.415565 0.129359
  outer loop
   vertex -0.019916 0.082800 0.005095
   vertex -0.039929 0.041200 -0.000539
   vertex -0.038310 0.041200 0.010730
  endloop
 endfacet
 facet normal -0.900318 0.415565 -0.129359
  outer loop
   vertex -0.038310 0.041200 -0.011808
   vertex -0.020729 0.082800 -0.000539
   vertex -0.019916 0.082800 -0.006174
  endloop
 endfacet
 facet normal -0.900318 0.415565 -0.129359
  outer loop
   vertex -0.020729 0.082800 -0.000539
   vertex -0.038310 0.041200 -0.011808
   vertex -0.039929 0.041200 -0.000539
  endloop
 endfacet
 facet normal -0.826883 0.416726 -0.377629
  outer loop
   vertex -0.033580 0.041200 -0.022165
   vertex -0.019916 0.082800 -0.006174
   vertex -0.017555 0.082800 -0.011352
  endloop
 endfacet
 facet normal -0.826883 0.416726 -0.377629
  outer loop
   vertex -0.019916 0.082800 -0.006174
   vertex -0.033580 0.041200 -0.022165
   vertex -0.038310 0.041200 -0.011808
  endloop
 endfacet
 facet normal -0.686221 0.418939 -0.594635
  outer loop
   vertex -0.026124 0.041200 -0.030769
   vertex -0.017555 0.082800 -0.011352
   vertex -0.013823 0.082800 -0.015654
  endloop
 endfacet
 facet normal -0.686221 0.418939 -0.594635
  outer loop
   vertex -0.017555 0.082800 -0.011352
   vertex -0.026124 0.041200 -0.030769
   vertex -0.033580 0.041200 -0.022165
  endloop
 endfacet
 facet normal -0.490034 0.422014 -0.762739
  outer loop
   vertex -0.016544 0.041200 -0.036924
   vertex -0.013823 0.082800 -0.015654
   vertex -0.009036 0.082800 -0.018732
  endloop
 endfacet
 facet normal -0.490034 0.422014 -0.762739
  outer loop
   vertex -0.013823 0.082800 -0.015654
   vertex -0.016544 0.041200 -0.036924
   vertex -0.026124 0.041200 -0.030769
  endloop
 endfacet
 facet normal -0.255048 0.425700 -0.868176
  outer loop
   vertex -0.005625 0.041200 -0.040132
   vertex -0.009036 0.082800 -0.018732
   vertex -0.003577 0.082800 -0.020336
  endloop
 endfacet
 facet normal -0.255048 0.425700 -0.868176
  outer loop
   vertex -0.009036 0.082800 -0.018732
   vertex -0.005625 0.041200 -0.040132
   vertex -0.016544 0.041200 -0.036924
  endloop
 endfacet
 facet normal -0.000005 0.429702 -0.902971
  outer loop
   vertex 0.005760 0.041200 -0.040132
   vertex -0.003577 0.082800 -0.020336
   vertex 0.002119 0.082800 -0.020336
  endloop
 endfacet
 facet normal -0.000005 0.429702 -0.902971
  outer loop
   vertex -0.003577 0.082800 -0.020336
   vertex 0.005760 0.041200 -0.040132
   vertex -0.005625 0.041200 -0.040132
  endloop
 endfacet
 facet normal 0.253847 0.433664 -0.864579
  outer loop
   vertex 0.005760 0.041200 -0.040132
   vertex 0.007578 0.082800 -0.018732
   vertex 0.016685 0.041200 -0.036924
  endloop
 endfacet
 facet normal 0.253847 0.433664 -0.864579
  outer loop
   vertex 0.007578 0.082800 -0.018732
   vertex 0.005760 0.041200 -0.040132
   vertex 0.002119 0.082800 -0.020336
  endloop
 endfacet
 facet normal 0.486094 0.437320 -0.756613
  outer loop
   vertex 0.016685 0.041200 -0.036924
   vertex 0.012365 0.082800 -0.015654
   vertex 0.026266 0.041200 -0.030769
  endloop
 endfacet
 facet normal 0.486094 0.437320 -0.756613
  outer loop
   vertex 0.012365 0.082800 -0.015654
   vertex 0.016685 0.041200 -0.036924
   vertex 0.007578 0.082800 -0.018732
  endloop
 endfacet
 facet normal 0.678523 0.440339 -0.587970
  outer loop
   vertex 0.033722 0.041200 -0.022165
   vertex 0.012365 0.082800 -0.015654
   vertex 0.016096 0.082800 -0.011352
  endloop
 endfacet
 facet normal 0.678523 0.440339 -0.587970
  outer loop
   vertex 0.012365 0.082800 -0.015654
   vertex 0.033722 0.041200 -0.022165
   vertex 0.026266 0.041200 -0.030769
  endloop
 endfacet
 facet normal 0.815737 0.442484 -0.372533
  outer loop
   vertex 0.038452 0.041200 -0.011809
   vertex 0.016096 0.082800 -0.011352
   vertex 0.018458 0.082800 -0.006174
  endloop
 endfacet
 facet normal 0.815737 0.442484 -0.372533
  outer loop
   vertex 0.016096 0.082800 -0.011352
   vertex 0.038452 0.041200 -0.011809
   vertex 0.033722 0.041200 -0.022165
  endloop
 endfacet
 facet normal 0.887117 0.443593 -0.127468
  outer loop
   vertex 0.040071 0.041200 -0.000539
   vertex 0.018458 0.082800 -0.006174
   vertex 0.019271 0.082800 -0.000539
  endloop
 endfacet
 facet normal 0.887117 0.443593 -0.127468
  outer loop
   vertex 0.018458 0.082800 -0.006174
   vertex 0.040071 0.041200 -0.000539
   vertex 0.038452 0.041200 -0.011809
  endloop
 endfacet
 facet normal 0.887117 0.443593 0.127467
  outer loop
   vertex 0.038452 0.041200 0.010730
   vertex 0.019271 0.082800 -0.000539
   vertex 0.018458 0.082800 0.005095
  endloop
 endfacet
 facet normal 0.887117 0.443593 0.127467
  outer loop
   vertex 0.019271 0.082800 -0.000539
   vertex 0.038452 0.041200 0.010730
   vertex 0.040071 0.041200 -0.000539
  endloop
 endfacet
 facet normal 0.000000 1.000000 0.000000
  outer loop
   vertex -0.000729 0.082800 -0.000539
   vertex 0.016096 0.082800 0.010274
   vertex 0.018458 0.082800 0.005095
  endloop
 endfacet
 facet normal 0.000000 1.000000 0.000000
  outer loop
   vertex -0.000729 0.082800 -0.000539
   vertex 0.012365 0.082800 0.014576
   vertex 0.016096 0.082800 0.010274
  endloop
 endfacet
 facet normal 0.000000 1.000000 0.000000
  outer loop
   vertex -0.000729 0.082800 -0.000539
   vertex 0.007578 0.082800 0.017653
   vertex 0.012365 0.082800 0.014576
  endloop
 endfacet
 facet normal 0.000000 1.000000 0.000000
  outer loop
   vertex -0.000729 0.082800 -0.000539
   vertex 0.002119 0.082800 0.019257
   vertex 0.007578 0.082800 0.017653
  endloop
 endfacet
 facet normal 0.000000 1.000000 0.000000
  outer loop
   vertex -0.000729 0.082800 -0.000539
   vertex -0.003577 0.082800 0.019257
   vertex 0.002119 0.082800 0.019257
  endloop
 endfacet
 facet normal 0.000000 1.000000 0.000000
  outer loop
   vertex -0.000729 0.082800 -0.000539
   vertex -0.009036 0.082800 0.017653
   vertex -0.003577 0.082800 0.019257
  endloop
 endfacet
 facet normal 0.000000 1.000000 0.000000
  outer loop
   vertex -0.000729 0.082800 -0.000539
   vertex -0.013823 0.082800 0.014576
   vertex -0.009036 0.082800 0.017653
  endloop
 endfacet
 facet normal 0.000000 1.000000 0.000000
  outer loop
   vertex -0.000729 0.082800 -0.000539
   vertex -0.017555 0.082800 0.010274
   vertex -0.013823 0.082800 0.014576
  endloop
 endfacet
 facet normal 0.000000 1.000000 0.000000
  outer loop
   vertex -0.000729 0.082800 -0.000539
   vertex -0.019916 0.082800 0.005095
   vertex -0.017555 0.082800 0.010274
  endloop
 endfacet
 facet normal 0.000000 1.000000 0.000000
  outer loop
   vertex -0.000729 0.082800 -0.000539
   vertex -0.020729 0.082800 -0.000539
   vertex -0.019916 0.082800 0.005095
  endloop
 endfacet
 facet normal 0.000000 1.000000 0.000000
  outer loop
   vertex -0.000729 0.082800 -0.000539
   vertex -0.019916 0.082800 -0.006174
   vertex -0.020729 0.082800 -0.000539
  endloop
 endfacet
 facet normal 0.000000 1.000000 0.000000
  outer loop
   vertex -0.000729 0.082800 -0.000539
   vertex -0.017555 0.082800 -0.011352
   vertex -0.019916 0.082800 -0.006174
  endloop
 endfacet
 facet normal 0.000000 1.000000 0.000000
  outer loop
   vertex -0.000729 0.082800 -0.000539
   vertex -0.013823 0.082800 -0.015654
   vertex -0.017555 0.082800 -0.011352
  endloop
 endfacet
 facet normal 0.000000 1.000000 0.000000
  outer loop
   vertex -0.000729 0.082800 -0.000539
   vertex -0.009036 0.082800 -0.018732
   vertex -0.013823 0.082800 -0.015654
  endloop
 endfacet
 facet normal 0.000000 1.000000 0.000000
  outer loop
   vertex -0.000729 0.082800 -0.000539
   vertex -0.003577 0.082800 -0.020336
   vertex -0.009036 0.082800 -0.018732
  endloop
 endfacet
 facet normal 0.000000 1.000000 0.000000
  outer loop
   vertex -0.000729 0.082800 -0.000539
   vertex 0.002119 0.082800 -0.020336
   vertex -0.003577 0.082800 -0.020336
  endloop
 endfacet
 facet normal 0.000000 1.000000 0.000000
  outer loop
   vertex -0.000729 0.082800 -0.000539
   vertex 0.007578 0.082800 -0.018732
   vertex 0.002119 0.082800 -0.020336
  endloop
 endfacet
 facet normal 0.000000 1.000000 0.000000
  outer loop
   vertex -0.000729 0.082800 -0.000539
   vertex 0.012365 0.082800 -0.015654
   vertex 0.007578 0.082800 -0.018732
  endloop
 endfacet
 facet normal 0.000000 1.000000 0.000000
  outer loop
   vertex -0.000729 0.082800 -0.000539
   vertex 0.016096 0.082800 -0.011352
   vertex 0.012365 0.082800 -0.015654
  endloop
 endfacet
 facet normal 0.000000 1.000000 0.000000
  outer loop
   vertex -0.000729 0.082800 -0.000539
   vertex 0.018458 0.082800 -0.006174
   vertex 0.016096 0.082800 -0.011352
  endloop
 endfacet
 facet normal 0.000000 1.000000 0.000000
  outer loop
   vertex -0.000729 0.082800 -0.000539
   vertex 0.019271 0.082800 -0.000539
   vertex 0.018458 0.082800 -0.006174
  endloop
 endfacet
 facet normal 0.000000 1.000000 0.000000
  outer loop
   vertex -0.000729 0.082800 -0.000539
   vertex 0.018458 0.082800 0.005095
   vertex 0.019271 0.082800 -0.000539
  endloop
 endfacet
 facet normal 0.000000 -1.000000 0.000000
  outer loop
   vertex 0.000071 0.041200 -0.000539
   vertex 0.038452 0.041200 0.010730
   vertex 0.033722 0.041200 0.021086
  endloop
 endfacet
 facet normal 0.000000 -1.000000 0.000000
  outer loop
   vertex 0.000071 0.041200 -0.000539
   vertex 0.033722 0.041200 0.021086
   vertex 0.026266 0.041200 0.029691
  endloop
 endfacet
 facet normal 0.000000 -1.000000 0.000000
  outer loop
   vertex 0.000071 0.041200 -0.000539
   vertex 0.026266 0.041200 0.029691
   vertex 0.016685 0.041200 0.035846
  endloop
 endfacet
 facet normal 0.000000 -1.000000 0.000000
  outer loop
   vertex 0.000071 0.041200 -0.000539
   vertex 0.016685 0.041200 0.035846
   vertex 0.005760 0.041200 0.039054
  endloop
 endfacet
 facet normal 0.000000 -1.000000 0.000000
  outer loop
   vertex 0.000071 0.041200 -0.000539
   vertex 0.005760 0.041200 0.039054
   vertex -0.005625 0.041200 0.039054
  endloop
 endfacet
 facet normal 0.000000 -1.000000 0.000000
  outer loop
   vertex 0.000071 0.041200 -0.000539
   vertex -0.005625 0.041200 0.039054
   vertex -0.016544 0.041200 0.035846
  endloop
 endfacet
 facet normal 0.000000 -1.000000 0.000000
  outer loop
   vertex 0.000071 0.041200 -0.000539
   vertex -0.016544 0.041200 0.035846
   vertex -0.026124 0.041200 0.029691
  endloop
 endfacet
 facet normal 0.000000 -1.000000 0.000000
  outer loop
   vertex 0.000071 0.041200 -0.000539
   vertex -0.026124 0.041200 0.029691
   vertex -0.033580 0.041200 0.021086
  endloop
 endfacet
 facet normal 0.000000 -1.000000 0.000000
  outer loop
   vertex 0.000071 0.041200 -0.000539
   vertex -0.033580 0.041200 0.021086
   vertex -0.038310 0.041200 0.010730
  endloop
 endfacet
 facet normal 0.000000 -1.000000 0.000000
  outer loop
   vertex 0.000071 0.041200 -0.000539
   vertex -0.038310 0.041200 0.010730
   vertex -0.039929 0.041200 -0.000539
  endloop
 endfacet
 facet normal 0.000000 -1.000000 0.000000
  outer loop
   vertex 0.000071 0.041200 -0.000539
   vertex -0.039929 0.041200 -0.000539
   vertex -0.038310 0.041200 -0.011808
  endloop
 endfacet
 facet normal 0.000000 -1.000000 0.000000
  outer loop
   vertex 0.000071 0.041200 -0.000539
   vertex -0.038310 0.041200 -0.011808
   vertex -0.033580 0.041200 -0.022165
  endloop
 endfacet
 facet normal 0.000000 -1.000000 0.000000
  outer loop
   vertex 0.000071 0.041200 -0.000539
   vertex -0.033580 0.041200 -0.022165
   vertex -0.026124 0.041200 -0.030769
  endloop
 endfacet
 facet normal 0.000000 -1.000000 0.000000
  outer loop
   vertex 0.000071 0.041200 -0.000539
   vertex -0.026124 0.041200 -0.030769
   vertex -0.016544 0.041200 -0.036924
  endloop
 endfacet
 facet normal 0.000000 -1.000000 0.000000
  outer loop
   vertex 0.000071 0.041200 -0.000539
   vertex -0.016544 0.041200 -0.036924
   vertex -0.005625 0.041200 -0.040132
  endloop
 endfacet
 facet normal 0.000000 -1.000000 0.000000
  outer loop
   vertex 0.000071 0.041200 -0.000539
   vertex -0.005625 0.041200 -0.040132
   vertex 0.005760 0.041200 -0.040132
  endloop
 endfacet
 facet normal 0.000000 -1.000000 0.000000
  outer loop
   vertex 0.000071 0.041200 -0.000539
   vertex 0.005760 0.041200 -0.040132
   vertex 0.016685 0.041200 -0.036924
  endloop
 endfacet
 facet normal 0.000000 -1.000000 0.000000
  outer loop
   vertex 0.000071 0.041200 -0.000539
   vertex 0.016685 0.041200 -0.036924
   vertex 0.026266 0.041200 -0.030769
  endloop
 endfacet
 facet normal 0.000000 -1.000000 0.000000
  outer loop
   vertex 0.000071 0.041200 -0.000539
   vertex 0.026266 0.041200 -0.030769
   vertex 0.033722 0.041200 -0.022165
  endloop
 endfacet
 facet normal 0.000000 -1.000000 0.000000
  outer loop
   vertex 0.000071 0.041200 -0.000539
   vertex 0.033722 0.041200 -0.022165
   vertex 0.038452 0.041200 -0.011809
  endloop
 endfacet
 facet normal 0.000000 -1.000000 0.000000
  outer loop
   vertex 0.000071 0.041200 -0.000539
   vertex 0.038452 0.041200 -0.011809
   vertex 0.040071 0.041200 -0.000539
  endloop
 endfacet
 facet normal 0.000000 -1.000000 0.000000
  outer loop
   vertex 0.000071 0.041200 -0.000539
   vertex 0.040071 0.041200 -0.000539
   vertex 0.038452 0.041200 0.010730
  endloop
 endfacet
 facet normal 0.911227 0.000000 0.411905
  outer loop
   vertex 0.018860 0.081426 0.012663
   vertex 0.021601 0.098800 0.006599
   vertex 0.018860 0.098800 0.012663
  endloop
 endfacet
 facet normal 0.911227 0.000000 0.411905
  outer loop
   vertex 0.021601 0.098800 0.006599
   vertex 0.018860 0.081426 0.012663
   vertex 0.021601 0.081426 0.006599
  endloop
 endfacet
 facet normal 0.759052 0.000000 0.651030
  outer loop
   vertex 0.014539 0.081426 0.017701
   vertex 0.018860 0.098800 0.012663
   vertex 0.014539 0.098800 0.017701
  endloop
 endfacet
 facet normal 0.759052 0.000000 0.651030
  outer loop
   vertex 0.018860 0.098800 0.012663
   vertex 0.014539 0.081426 0.017701
   vertex 0.018860 0.081426 0.012663
  endloop
 endfacet
 facet normal 0.544557 0.000000 0.838724
  outer loop
   vertex 0.008988 0.098800 0.021305
   vertex 0.014539 0.081426 0.017701
   vertex 0.014539 0.098800 0.017701
  endloop
 endfacet
 facet normal 0.544557 0.000000 0.838724
  outer loop
   vertex 0.014539 0.081426 0.017701
   vertex 0.008988 0.098800 0.021305
   vertex 0.008988 0.081426 0.021305
  endloop
 endfacet
 facet normal 0.284396 0.000000 0.958707
  outer loop
   vertex 0.002656 0.098800 0.023183
   vertex 0.008988 0.081426 0.021305
   vertex 0.008988 0.098800 0.021305
  endloop
 endfacet
 facet normal 0.284396 0.000000 0.958707
  outer loop
   vertex 0.008988 0.081426 0.021305
   vertex 0.002656 0.098800 0.023183
   vertex 0.002656 0.081426 0.023183
  endloop
 endfacet
 facet normal 0.000000 0.000000 1.000000
  outer loop
   vertex -0.003942 0.098800 0.023183
   vertex 0.002656 0.081426 0.023183
   vertex 0.002656 0.098800 0.023183
  endloop
 endfacet
 facet normal 0.000000 0.000000 1.000000
  outer loop
   vertex 0.002656 0.081426 0.023183
   vertex -0.003942 0.098800 0.023183
   vertex -0.003942 0.081426 0.023183
  endloop
 endfacet
 facet normal -0.284394 0.000000 0.958708
  outer loop
   vertex -0.010274 0.098800 0.021305
   vertex -0.003942 0.081426 0.023183
   vertex -0.003942 0.098800 0.023183
  endloop
 endfacet
 facet normal -0.284394 0.000000 0.958708
  outer loop
   vertex -0.003942 0.081426 0.023183
   vertex -0.010274 0.098800 0.021305
   vertex -0.010274 0.081426 0.021305
  endloop
 endfacet
 facet normal -0.544562 0.000000 0.838721
  outer loop
   vertex -0.015825 0.098800 0.017701
   vertex -0.010274 0.081426 0.021305
   vertex -0.010274 0.098800 0.021305
  endloop
 endfacet
 facet normal -0.544562 0.000000 0.838721
  outer loop
   vertex -0.010274 0.081426 0.021305
   vertex -0.015825 0.098800 0.017701
   vertex -0.015825 0.081426 0.017701
  endloop
 endfacet
 facet normal -0.759052 0.000000 0.651030
  outer loop
   vertex -0.020146 0.081426 0.012663
   vertex -0.015825 0.098800 0.017701
   vertex -0.020146 0.098800 0.012663
  endloop
 endfacet
 facet normal -0.759052 0.000000 0.651030
  outer loop
   vertex -0.015825 0.098800 0.017701
   vertex -0.020146 0.081426 0.012663
   vertex -0.015825 0.081426 0.017701
  endloop
 endfacet
 facet normal -0.911222 0.000000 0.411915
  outer loop
   vertex -0.022887 0.081426 0.006599
   vertex -0.020146 0.098800 0.012663
   vertex -0.022887 0.098800 0.006599
  endloop
 endfacet
 facet normal -0.911222 0.000000 0.411915
  outer loop
   vertex -0.020146 0.098800 0.012663
   vertex -0.022887 0.081426 0.006599
   vertex -0.020146 0.081426 0.012663
  endloop
 endfacet
 facet normal -0.990025 0.000000 0.140895
  outer loop
   vertex -0.023826 0.081426 -0.000000
   vertex -0.022887 0.098800 0.006599
   vertex -0.023826 0.098800 -0.000000
  endloop
 endfacet
 facet normal -0.990025 0.000000 0.140895
  outer loop
   vertex -0.022887 0.098800 0.006599
   vertex -0.023826 0.081426 -0.000000
   vertex -0.022887 0.081426 0.006599
  endloop
 endfacet
 facet normal -0.990025 0.000000 -0.140895
  outer loop
   vertex -0.022887 0.081426 -0.006599
   vertex -0.023826 0.098800 -0.000000
   vertex -0.022887 0.098800 -0.006599
  endloop
 endfacet
 facet normal -0.990025 0.000000 -0.140895
  outer loop
   vertex -0.023826 0.098800 -0.000000
   vertex -0.022887 0.081426 -0.006599
   vertex -0.023826 0.081426 -0.000000
  endloop
 endfacet
 facet normal -0.911219 0.000000 -0.411922
  outer loop
   vertex -0.020146 0.081426 -0.012662
   vertex -0.022887 0.098800 -0.006599
   vertex -0.020146 0.098800 -0.012662
  endloop
 endfacet
 facet normal -0.911219 0.000000 -0.411922
  outer loop
   vertex -0.022887 0.098800 -0.006599
   vertex -0.020146 0.081426 -0.012662
   vertex -0.022887 0.081426 -0.006599
  endloop
 endfacet
 facet normal -0.759048 0.000000 -0.651034
  outer loop
   vertex -0.015825 0.081426 -0.017700
   vertex -0.020146 0.098800 -0.012662
   vertex -0.015825 0.098800 -0.017700
  endloop
 endfacet
 facet normal -0.759048 0.000000 -0.651034
  outer loop
   vertex -0.020146 0.098800 -0.012662
   vertex -0.015825 0.081426 -0.017700
   vertex -0.020146 0.081426 -0.012662
  endloop
 endfacet
 facet normal -0.544596 0.000000 -0.838699
  outer loop
   vertex -0.015825 0.081426 -0.017700
   vertex -0.010274 0.098800 -0.021305
   vertex -0.010274 0.081426 -0.021305
  endloop
 endfacet
 facet normal -0.544596 0.000000 -0.838699
  outer loop
   vertex -0.010274 0.098800 -0.021305
   vertex -0.015825 0.081426 -0.017700
   vertex -0.015825 0.098800 -0.017700
  endloop
 endfacet
 facet normal -0.284343 0.000000 -0.958723
  outer loop
   vertex -0.010274 0.081426 -0.021305
   vertex -0.003942 0.098800 -0.023183
   vertex -0.003942 0.081426 -0.023183
  endloop
 endfacet
 facet normal -0.284343 0.000000 -0.958723
  outer loop
   vertex -0.003942 0.098800 -0.023183
   vertex -0.010274 0.081426 -0.021305
   vertex -0.010274 0.098800 -0.021305
  endloop
 endfacet
 facet normal 0.000000 0.000000 -1.000000
  outer loop
   vertex -0.003942 0.081426 -0.023183
   vertex 0.002656 0.098800 -0.023183
   vertex 0.002656 0.081426 -0.023183
  endloop
 endfacet
 facet normal 0.000000 0.000000 -1.000000
  outer loop
   vertex 0.002656 0.098800 -0.023183
   vertex -0.003942 0.081426 -0.023183
   vertex -0.003942 0.098800 -0.023183
  endloop
 endfacet
 facet normal 0.284343 0.000000 -0.958723
  outer loop
   vertex 0.002656 0.081426 -0.023183
   vertex 0.008988 0.098800 -0.021305
   vertex 0.008988 0.081426 -0.021305
  endloop
 endfacet
 facet normal 0.284343 0.000000 -0.958723
  outer loop
   vertex 0.008988 0.098800 -0.021305
   vertex 0.002656 0.081426 -0.023183
   vertex 0.002656 0.098800 -0.023183
  endloop
 endfacet
 facet normal 0.544591 0.000000 -0.838702
  outer loop
   vertex 0.008988 0.081426 -0.021305
   vertex 0.014539 0.098800 -0.017700
   vertex 0.014539 0.081426 -0.017700
  endloop
 endfacet
 facet normal 0.544591 0.000000 -0.838702
  outer loop
   vertex 0.014539 0.098800 -0.017700
   vertex 0.008988 0.081426 -0.021305
   vertex 0.008988 0.098800 -0.021305
  endloop
 endfacet
 facet normal 0.759048 0.000000 -0.651034
  outer loop
   vertex 0.018860 0.081426 -0.012662
   vertex 0.014539 0.098800 -0.017700
   vertex 0.018860 0.098800 -0.012662
  endloop
 endfacet
 facet normal 0.759048 0.000000 -0.651034
  outer loop
   vertex 0.014539 0.098800 -0.017700
   vertex 0.018860 0.081426 -0.012662
   vertex 0.014539 0.081426 -0.017700
  endloop
 endfacet
 facet normal 0.911223 0.000000 -0.411914
  outer loop
   vertex 0.021601 0.081426 -0.006599
   vertex 0.018860 0.098800 -0.012662
   vertex 0.021601 0.098800 -0.006599
  endloop
 endfacet
 facet normal 0.911223 0.000000 -0.411914
  outer loop
   vertex 0.018860 0.098800 -0.012662
   vertex 0.021601 0.081426 -0.006599
   vertex 0.018860 0.081426 -0.012662
  endloop
 endfacet
 facet normal 0.990024 0.000000 -0.140898
  outer loop
   vertex 0.022540 0.081426 -0.000000
   vertex 0.021601 0.098800 -0.006599
   vertex 0.022540 0.098800 -0.000000
  endloop
 endfacet
 facet normal 0.990024 0.000000 -0.140898
  outer loop
   vertex 0.021601 0.098800 -0.006599
   vertex 0.022540 0.081426 -0.000000
   vertex 0.021601 0.081426 -0.006599
  endloop
 endfacet
 facet normal 0.990025 0.000000 0.140894
  outer loop
   vertex 0.021601 0.081426 0.006599
   vertex 0.022540 0.098800 -0.000000
   vertex 0.021601 0.098800 0.006599
  endloop
 endfacet
 facet normal 0.990025 0.000000 0.140894
  outer loop
   vertex 0.022540 0.098800 -0.000000
   vertex 0.021601 0.081426 0.006599
   vertex 0.022540 0.081426 -0.000000
  endloop
 endfacet
 facet normal 0.000000 1.000000 0.000000
  outer loop
   vertex -0.000643 0.098800 -0.000000
   vertex 0.018860 0.098800 0.012663
   vertex 0.021601 0.098800 0.006599
  endloop
 endfacet
 facet normal 0.000000 1.000000 0.000000
  outer loop
   vertex -0.000643 0.098800 -0.000000
   vertex 0.014539 0.098800 0.017701
   vertex 0.018860 0.098800 0.012663
  endloop
 endfacet
 facet normal 0.000000 1.000000 0.000000
  outer loop
   vertex -0.000643 0.098800 -0.000000
   vertex 0.008988 0.098800 0.021305
   vertex 0.014539 0.098800 0.017701
  endloop
 endfacet
 facet normal 0.000000 1.000000 0.000000
  outer loop
   vertex -0.000643 0.098800 -0.000000
   vertex 0.002656 0.098800 0.023183
   vertex 0.008988 0.098800 0.021305
  endloop
 endfacet
 facet normal 0.000000 1.000000 0.000000
  outer loop
   vertex -0.000643 0.098800 -0.000000
   vertex -0.003942 0.098800 0.023183
   vertex 0.002656 0.098800 0.023183
  endloop
 endfacet
 facet normal 0.000000 1.000000 0.000000
  outer loop
   vertex -0.000643 0.098800 -0.000000
   vertex -0.010274 0.098800 0.021305
   vertex -0.003942 0.098800 0.023183
  endloop
 endfacet
 facet normal 0.000000 1.000000 0.000000
  outer loop
   vertex -0.000643 0.098800 -0.000000
   vertex -0.015825 0.098800 0.017701
   vertex -0.010274 0.098800 0.021305
  endloop
 endfacet
 facet normal 0.000000 1.000000 0.000000
  outer loop
   vertex -0.000643 0.098800 -0.000000
   vertex -0.020146 0.098800 0.012663
   vertex -0.015825 0.098800 0.017701
  endloop
 endfacet
 facet normal 0.000000 1.000000 0.000000
  outer loop
   vertex -0.000643 0.098800 -0.000000
   vertex -0.022887 0.098800 0.006599
   vertex -0.020146 0.098800 0.012663
  endloop
 endfacet
 facet normal 0.000000 1.000000 0.000000
  outer loop
   vertex -0.000643 0.098800 -0.000000
   vertex -0.023826 0.098800 -0.000000
   vertex -0.022887 0.098800 0.006599
  endloop
 endfacet
 facet normal 0.000000 1.000000 0.000000
  outer loop
   vertex -0.000643 0.098800 -0.000000
   vertex -0.022887 0.098800 -0.006599
   vertex -0.023826 0.098800 -0.000000
  endloop
 endfacet
 facet normal 0.000000 1.000000 0.000000
  outer loop
   vertex -0.000643 0.098800 -0.000000
   vertex -0.020146 0.098800 -0.012662
   vertex -0.022887 0.098800 -0.006599
  endloop
 endfacet
 facet normal 0.000000 1.000000 0.000000
  outer loop
   vertex -0.000643 0.098800 -0.000000
   vertex -0.015825 0.098800 -0.017700
   vertex -0.020146 0.098800 -0.012662
  endloop
 endfacet
 facet normal 0.000000 1.000000 0.000000
  outer loop
   vertex -0.000643 0.098800 -0.000000
   vertex -0.010274 0.098800 -0.021305
   vertex -0.015825 0.098800 -0.017700
  endloop
 endfacet
 facet normal 0.000000 1.000000 0.000000
  outer loop
   vertex -0.000643 0.098800 -0.000000
   vertex -0.003942 0.098800 -0.023183
   vertex -0.010274 0.098800 -0.021305
  endloop
 endfacet
 facet normal 0.000000 1.000000 0.000000
  outer loop
   vertex -0.000643 0.098800 -0.000000
   vertex 0.002656 0.098800 -0.023183
   vertex -0.003942 0.098800 -0.023183
  endloop
 endfacet
 facet normal 0.000000 1.000000 0.000000
  outer loop
   vertex -0.000643 0.098800 -0.000000
   vertex 0.008988 0.098800 -0.021305
   vertex 0.002656 0.098800 -0.023183
  endloop
 endfacet
 facet normal 0.000000 1.000000 0.000000
  outer loop
   vertex -0.000643 0.098800 -0.000000
   vertex 0.014539 0.098800 -0.017700
   vertex 0.008988 0.098800 -0.021305
  endloop
 endfacet
 facet normal 0.000000 1.000000 0.000000
  outer loop
   vertex -0.000643 0.098800 -0.000000
   vertex 0.018860 0.098800 -0.012662
   vertex 0.014539 0.098800 -0.017700
  endloop
 endfacet
 facet normal 0.000000 1.000000 0.000000
  outer loop
   vertex -0.000643 0.098800 -0.000000
   vertex 0.021601 0.098800 -0.006599
   vertex 0.018860 0.098800 -0.012662
  endloop
 endfacet
 facet normal 0.000000 1.000000 0.000000
  outer loop
   vertex -0.000643 0.098800 -0.000000
   vertex 0.022540 0.098800 -0.000000
   vertex 0.021601 0.098800 -0.006599
  endloop
 endfacet
 facet normal 0.000000 1.000000 0.000000
  outer loop
   vertex -0.000643 0.098800 -0.000000
   vertex 0.021601 0.098800 0.006599
   vertex 0.022540 0.098800 -0.000000
  endloop
 endfacet
 facet normal 0.000000 -1.000000 0.000000
  outer loop
   vertex -0.000643 0.081426 -0.000000
   vertex 0.021601 0.081426 0.006599
   vertex 0.018860 0.081426 0.012663
  endloop
 endfacet
 facet normal 0.000000 -1.000000 0.000000
  outer loop
   vertex -0.000643 0.081426 -0.000000
   vertex 0.018860 0.081426 0.012663
   vertex 0.014539 0.081426 0.017701
  endloop
 endfacet
 facet normal 0.000000 -1.000000 0.000000
  outer loop
   vertex -0.000643 0.081426 -0.000000
   vertex 0.014539 0.081426 0.017701
   vertex 0.008988 0.081426 0.021305
  endloop
 endfacet
 facet normal 0.000000 -1.000000 0.000000
  outer loop
   vertex -0.000643 0.081426 -0.000000
   vertex 0.008988 0.081426 0.021305
   vertex 0.002656 0.081426 0.023183
  endloop
 endfacet
 facet normal 0.000000 -1.000000 0.000000
  outer loop
   vertex -0.000643 0.081426 -0.000000
   vertex 0.002656 0.081426 0.023183
   vertex -0.003942 0.081426 0.023183
  endloop
 endfacet
 facet normal 0.000000 -1.000000 0.000000
  outer loop
   vertex -0.000643 0.081426 -0.000000
   vertex -0.003942 0.081426 0.023183
   vertex -0.010274 0.081426 0.021305
  endloop
 endfacet
 facet normal 0.000000 -1.000000 0.000000
  outer loop
   vertex -0.000643 0.081426 -0.000000
   vertex -0.010274 0.081426 0.021305
   vertex -0.015825 0.081426 0.017701
  endloop
 endfacet
 facet normal 0.000000 -1.000000 0.000000
  outer loop
   vertex -0.000643 0.081426 -0.000000
   vertex -0.015825 0.081426 0.017701
   vertex -0.020146 0.081426 0.012663
  endloop
 endfacet
 facet normal 0.000000 -1.000000 0.000000
  outer loop
   vertex -0.000643 0.081426 -0.000000
   vertex -0.020146 0.081426 0.012663
   vertex -0.022887 0.081426 0.006599
  endloop
 endfacet
 facet normal 0.000000 -1.000000 0.000000
  outer loop
   vertex -0.000643 0.081426 -0.000000
   vertex -0.022887 0.081426 0.006599
   vertex -0.023826 0.081426 -0.000000
  endloop
 endfacet
 facet normal 0.000000 -1.000000 0.000000
  outer loop
   vertex -0.000643 0.081426 -0.000000
   vertex -0.023826 0.081426 -0.000000
   vertex -0.022887 0.081426 -0.006599
  endloop
 endfacet
 facet normal 0.000000 -1.000000 0.000000
  outer loop
   vertex -0.000643 0.081426 -0.000000
   vertex -0.022887 0.081426 -0.006599
   vertex -0.020146 0.081426 -0.012662
  endloop
 endfacet
 facet normal 0.000000 -1.000000 0.000000
  outer loop
   vertex -0.000643 0.081426 -0.000000
   vertex -0.020146 0.081426 -0.012662
   vertex -0.015825 0.081426 -0.017700
  endloop
 endfacet
 facet normal 0.000000 -1.000000 0.000000
  outer loop
   vertex -0.000643 0.081426 -0.000000
   vertex -0.015825 0.081426 -0.017700
   vertex -0.010274 0.081426 -0.021305
  endloop
 endfacet
 facet normal 0.000000 -1.000000 0.000000
  outer loop
   vertex -0.000643 0.081426 -0.000000
   vertex -0.010274 0.081426 -0.021305
   vertex -0.003942 0.081426 -0.023183
  endloop
 endfacet
 facet normal 0.000000 -1.000000 0.000000
  outer loop
   vertex -0.000643 0.081426 -0.000000
   vertex -0.003942 0.081426 -0.023183
   vertex 0.002656 0.081426 -0.023183
  endloop
 endfacet
 facet normal 0.000000 -1.000000 0.000000
  outer loop
   vertex -0.000643 0.081426 -0.000000
   vertex 0.002656 0.081426 -0.023183
   vertex 0.008988 0.081426 -0.021305
  endloop
 endfacet
 facet normal 0.000000 -1.000000 0.000000
  outer loop
   vertex -0.000643 0.081426 -0.000000
   vertex 0.008988 0.081426 -0.021305
   vertex 0.014539 0.081426 -0.017700
  endloop
 endfacet
 facet normal 0.000000 -1.000000 0.000000
  outer loop
   vertex -0.000643 0.081426 -0.000000
   vertex 0.014539 0.081426 -0.017700
   vertex 0.018860 0.081426 -0.012662
  endloop
 endfacet
 facet normal 0.000000 -1.000000 0.000000
  outer loop
   vertex -0.000643 0.081426 -0.000000
   vertex 0.018860 0.081426 -0.012662
   vertex 0.021601 0.081426 -0.006599
  endloop
 endfacet
 facet normal 0.000000 -1.000000 0.000000
  outer loop
   vertex -0.000643 0.081426 -0.000000
   vertex 0.021601 0.081426 -0.006599
   vertex 0.022540 0.081426 -0.000000
  endloop
 endfacet
 facet normal 0.000000 -1.000000 0.000000
  outer loop
   vertex -0.000643 0.081426 -0.000000
   vertex 0.022540 0.081426 -0.000000
   vertex 0.021601 0.081426 0.006599
  endloop
 endfacet
endsolid
