solid stl file generated from AC3D
 facet normal 0.000000 -1.000000 0.000000
  outer loop
   vertex -0.048883 -0.062017 -0.042816
   vertex 0.048883 -0.062017 0.042816
   vertex -0.048883 -0.062017 0.042816
  endloop
 endfacet
 facet normal 0.000000 -1.000000 0.000000
  outer loop
   vertex 0.048883 -0.062017 0.042816
   vertex -0.048883 -0.062017 -0.042816
   vertex 0.048883 -0.062017 -0.042816
  endloop
 endfacet
 facet normal 0.000000 1.000000 0.000000
  outer loop
   vertex 0.048883 0.062017 -0.042816
   vertex -0.048883 0.062017 0.042816
   vertex 0.048883 0.062017 0.042816
  endloop
 endfacet
 facet normal 0.000000 1.000000 0.000000
  outer loop
   vertex -0.048883 0.062017 0.042816
   vertex 0.048883 0.062017 -0.042816
   vertex -0.048883 0.062017 -0.042816
  endloop
 endfacet
 facet normal 0.000000 0.000000 1.000000
  outer loop
   vertex -0.048883 0.062017 0.042816
   vertex 0.048883 -0.062017 0.042816
   vertex 0.048883 0.062017 0.042816
  endloop
 endfacet
 facet normal 0.000000 0.000000 1.000000
  outer loop
   vertex 0.048883 -0.062017 0.042816
   vertex -0.048883 0.062017 0.042816
   vertex -0.048883 -0.062017 0.042816
  endloop
 endfacet
 facet normal 0.000000 0.000000 -1.000000
  outer loop
   vertex -0.048883 -0.062017 -0.042816
   vertex 0.048883 0.062017 -0.042816
   vertex 0.048883 -0.062017 -0.042816
  endloop
 endfacet
 facet normal 0.000000 0.000000 -1.000000
  outer loop
   vertex 0.048883 0.062017 -0.042816
   vertex -0.048883 -0.062017 -0.042816
   vertex -0.048883 0.062017 -0.042816
  endloop
 endfacet
 facet normal -1.000000 0.000000 0.000000
  outer loop
   vertex -0.048883 -0.062017 -0.042816
   vertex -0.048883 0.062017 0.042816
   vertex -0.048883 0.062017 -0.042816
  endloop
 endfacet
 facet normal -1.000000 0.000000 0.000000
  outer loop
   vertex -0.048883 0.062017 0.042816
   vertex -0.048883 -0.062017 -0.042816
   vertex -0.048883 -0.062017 0.042816
  endloop
 endfacet
 facet normal 1.000000 0.000000 0.000000
  outer loop
   vertex 0.048883 -0.062017 0.042816
   vertex 0.048883 0.062017 -0.042816
   vertex 0.048883 0.062017 0.042816
  endloop
 endfacet
 facet normal 1.000000 0.000000 0.000000
  outer loop
   vertex 0.048883 0.062017 -0.042816
   vertex 0.048883 -0.062017 0.042816
   vertex 0.048883 -0.062017 -0.042816
  endloop
 endfacet
endsolid
