solid stl file generated from AC3D
 facet normal 0.000000 0.000000 -1.000000
  outer loop
   vertex 0.010405 -0.015518 -0.050786
   vertex 0.050405 -0.015518 -0.050786
   vertex 0.048785 -0.026787 -0.050786
  endloop
 endfacet
 facet normal 0.000000 0.000000 -1.000000
  outer loop
   vertex 0.010405 -0.015518 -0.050786
   vertex 0.048785 -0.004249 -0.050786
   vertex 0.050405 -0.015518 -0.050786
  endloop
 endfacet
 facet normal 0.000000 0.000000 -1.000000
  outer loop
   vertex 0.010405 -0.015518 -0.050786
   vertex 0.044055 0.006108 -0.050786
   vertex 0.048785 -0.004249 -0.050786
  endloop
 endfacet
 facet normal 0.000000 0.000000 -1.000000
  outer loop
   vertex 0.010405 -0.015518 -0.050786
   vertex 0.036600 0.014712 -0.050786
   vertex 0.044055 0.006108 -0.050786
  endloop
 endfacet
 facet normal 0.000000 0.000000 -1.000000
  outer loop
   vertex 0.010405 -0.015518 -0.050786
   vertex 0.027022 0.020867 -0.050786
   vertex 0.036600 0.014712 -0.050786
  endloop
 endfacet
 facet normal 0.000000 0.000000 -1.000000
  outer loop
   vertex 0.010405 -0.015518 -0.050786
   vertex 0.016098 0.024075 -0.050786
   vertex 0.027022 0.020867 -0.050786
  endloop
 endfacet
 facet normal 0.000000 0.000000 -1.000000
  outer loop
   vertex 0.010405 -0.015518 -0.050786
   vertex 0.004713 0.024075 -0.050786
   vertex 0.016098 0.024075 -0.050786
  endloop
 endfacet
 facet normal 0.000000 0.000000 -1.000000
  outer loop
   vertex 0.010405 -0.015518 -0.050786
   vertex -0.006211 0.020867 -0.050786
   vertex 0.004713 0.024075 -0.050786
  endloop
 endfacet
 facet normal 0.000000 0.000000 -1.000000
  outer loop
   vertex 0.010405 -0.015518 -0.050786
   vertex -0.015789 0.014712 -0.050786
   vertex -0.006211 0.020867 -0.050786
  endloop
 endfacet
 facet normal 0.000000 0.000000 -1.000000
  outer loop
   vertex 0.010405 -0.015518 -0.050786
   vertex -0.023245 0.006108 -0.050786
   vertex -0.015789 0.014712 -0.050786
  endloop
 endfacet
 facet normal 0.000000 0.000000 -1.000000
  outer loop
   vertex 0.010405 -0.015518 -0.050786
   vertex -0.027974 -0.004249 -0.050786
   vertex -0.023245 0.006108 -0.050786
  endloop
 endfacet
 facet normal 0.000000 0.000000 -1.000000
  outer loop
   vertex 0.010405 -0.015518 -0.050786
   vertex -0.029595 -0.015518 -0.050786
   vertex -0.027974 -0.004249 -0.050786
  endloop
 endfacet
 facet normal 0.000000 0.000000 -1.000000
  outer loop
   vertex 0.010405 -0.015518 -0.050786
   vertex -0.027974 -0.026787 -0.050786
   vertex -0.029595 -0.015518 -0.050786
  endloop
 endfacet
 facet normal 0.000000 0.000000 -1.000000
  outer loop
   vertex 0.010405 -0.015518 -0.050786
   vertex -0.023245 -0.037144 -0.050786
   vertex -0.027974 -0.026787 -0.050786
  endloop
 endfacet
 facet normal 0.000000 0.000000 -1.000000
  outer loop
   vertex 0.010405 -0.015518 -0.050786
   vertex -0.015789 -0.045748 -0.050786
   vertex -0.023245 -0.037144 -0.050786
  endloop
 endfacet
 facet normal 0.000000 0.000000 -1.000000
  outer loop
   vertex 0.010405 -0.015518 -0.050786
   vertex -0.006211 -0.051903 -0.050786
   vertex -0.015789 -0.045748 -0.050786
  endloop
 endfacet
 facet normal 0.000000 0.000000 -1.000000
  outer loop
   vertex 0.010405 -0.015518 -0.050786
   vertex 0.004713 -0.055111 -0.050786
   vertex -0.006211 -0.051903 -0.050786
  endloop
 endfacet
 facet normal 0.000000 0.000000 -1.000000
  outer loop
   vertex 0.010405 -0.015518 -0.050786
   vertex 0.016098 -0.055111 -0.050786
   vertex 0.004713 -0.055111 -0.050786
  endloop
 endfacet
 facet normal 0.000000 0.000000 -1.000000
  outer loop
   vertex 0.010405 -0.015518 -0.050786
   vertex 0.027022 -0.051903 -0.050786
   vertex 0.016098 -0.055111 -0.050786
  endloop
 endfacet
 facet normal 0.000000 0.000000 -1.000000
  outer loop
   vertex 0.010405 -0.015518 -0.050786
   vertex 0.036600 -0.045748 -0.050786
   vertex 0.027022 -0.051903 -0.050786
  endloop
 endfacet
 facet normal 0.000000 0.000000 -1.000000
  outer loop
   vertex 0.010405 -0.015518 -0.050786
   vertex 0.044055 -0.037144 -0.050786
   vertex 0.036600 -0.045748 -0.050786
  endloop
 endfacet
 facet normal 0.000000 0.000000 -1.000000
  outer loop
   vertex 0.010405 -0.015518 -0.050786
   vertex 0.048785 -0.026787 -0.050786
   vertex 0.044055 -0.037144 -0.050786
  endloop
 endfacet
 facet normal 0.000000 0.000000 1.000000
  outer loop
   vertex 0.010405 -0.015518 0.050787
   vertex 0.048785 -0.026787 0.050787
   vertex 0.050405 -0.015518 0.050787
  endloop
 endfacet
 facet normal 0.000000 0.000000 1.000000
  outer loop
   vertex 0.010405 -0.015518 0.050787
   vertex 0.050405 -0.015518 0.050787
   vertex 0.048785 -0.004249 0.050787
  endloop
 endfacet
 facet normal 0.000000 0.000000 1.000000
  outer loop
   vertex 0.010405 -0.015518 0.050787
   vertex 0.048785 -0.004249 0.050787
   vertex 0.044055 0.006108 0.050787
  endloop
 endfacet
 facet normal 0.000000 0.000000 1.000000
  outer loop
   vertex 0.010405 -0.015518 0.050787
   vertex 0.044055 0.006108 0.050787
   vertex 0.036600 0.014712 0.050787
  endloop
 endfacet
 facet normal 0.000000 0.000000 1.000000
  outer loop
   vertex 0.010405 -0.015518 0.050787
   vertex 0.036600 0.014712 0.050787
   vertex 0.027022 0.020867 0.050787
  endloop
 endfacet
 facet normal 0.000000 0.000000 1.000000
  outer loop
   vertex 0.010405 -0.015518 0.050787
   vertex 0.027022 0.020867 0.050787
   vertex 0.016098 0.024075 0.050787
  endloop
 endfacet
 facet normal 0.000000 0.000000 1.000000
  outer loop
   vertex 0.010405 -0.015518 0.050787
   vertex 0.016098 0.024075 0.050787
   vertex 0.004713 0.024075 0.050787
  endloop
 endfacet
 facet normal 0.000000 0.000000 1.000000
  outer loop
   vertex 0.010405 -0.015518 0.050787
   vertex 0.004713 0.024075 0.050787
   vertex -0.006211 0.020867 0.050787
  endloop
 endfacet
 facet normal 0.000000 0.000000 1.000000
  outer loop
   vertex 0.010405 -0.015518 0.050787
   vertex -0.006211 0.020867 0.050787
   vertex -0.015789 0.014712 0.050787
  endloop
 endfacet
 facet normal 0.000000 0.000000 1.000000
  outer loop
   vertex 0.010405 -0.015518 0.050787
   vertex -0.015789 0.014712 0.050787
   vertex -0.023245 0.006108 0.050787
  endloop
 endfacet
 facet normal 0.000000 0.000000 1.000000
  outer loop
   vertex 0.010405 -0.015518 0.050787
   vertex -0.023245 0.006108 0.050787
   vertex -0.027974 -0.004249 0.050787
  endloop
 endfacet
 facet normal 0.000000 0.000000 1.000000
  outer loop
   vertex 0.010405 -0.015518 0.050787
   vertex -0.027974 -0.004249 0.050787
   vertex -0.029595 -0.015518 0.050787
  endloop
 endfacet
 facet normal 0.000000 0.000000 1.000000
  outer loop
   vertex 0.010405 -0.015518 0.050787
   vertex -0.029595 -0.015518 0.050787
   vertex -0.027974 -0.026787 0.050787
  endloop
 endfacet
 facet normal 0.000000 0.000000 1.000000
  outer loop
   vertex 0.010405 -0.015518 0.050787
   vertex -0.027974 -0.026787 0.050787
   vertex -0.023245 -0.037144 0.050787
  endloop
 endfacet
 facet normal 0.000000 0.000000 1.000000
  outer loop
   vertex 0.010405 -0.015518 0.050787
   vertex -0.023245 -0.037144 0.050787
   vertex -0.015789 -0.045748 0.050787
  endloop
 endfacet
 facet normal 0.000000 0.000000 1.000000
  outer loop
   vertex 0.010405 -0.015518 0.050787
   vertex -0.015789 -0.045748 0.050787
   vertex -0.006211 -0.051903 0.050787
  endloop
 endfacet
 facet normal 0.000000 0.000000 1.000000
  outer loop
   vertex 0.010405 -0.015518 0.050787
   vertex -0.006211 -0.051903 0.050787
   vertex 0.004713 -0.055111 0.050787
  endloop
 endfacet
 facet normal 0.000000 0.000000 1.000000
  outer loop
   vertex 0.010405 -0.015518 0.050787
   vertex 0.004713 -0.055111 0.050787
   vertex 0.016098 -0.055111 0.050787
  endloop
 endfacet
 facet normal 0.000000 0.000000 1.000000
  outer loop
   vertex 0.010405 -0.015518 0.050787
   vertex 0.016098 -0.055111 0.050787
   vertex 0.027022 -0.051903 0.050787
  endloop
 endfacet
 facet normal 0.000000 0.000000 1.000000
  outer loop
   vertex 0.010405 -0.015518 0.050787
   vertex 0.027022 -0.051903 0.050787
   vertex 0.036600 -0.045748 0.050787
  endloop
 endfacet
 facet normal 0.000000 0.000000 1.000000
  outer loop
   vertex 0.010405 -0.015518 0.050787
   vertex 0.036600 -0.045748 0.050787
   vertex 0.044055 -0.037144 0.050787
  endloop
 endfacet
 facet normal 0.000000 0.000000 1.000000
  outer loop
   vertex 0.010405 -0.015518 0.050787
   vertex 0.044055 -0.037144 0.050787
   vertex 0.048785 -0.026787 0.050787
  endloop
 endfacet
 facet normal 0.989822 -0.142314 0.000000
  outer loop
   vertex 0.048785 -0.026787 0.050787
   vertex 0.050405 -0.015518 -0.050786
   vertex 0.050405 -0.015518 0.050787
  endloop
 endfacet
 facet normal 0.989822 -0.142314 0.000000
  outer loop
   vertex 0.050405 -0.015518 -0.050786
   vertex 0.048785 -0.026787 0.050787
   vertex 0.048785 -0.026787 -0.050786
  endloop
 endfacet
 facet normal 0.989821 0.142321 0.000000
  outer loop
   vertex 0.050405 -0.015518 0.050787
   vertex 0.048785 -0.004249 -0.050786
   vertex 0.048785 -0.004249 0.050787
  endloop
 endfacet
 facet normal 0.989821 0.142321 0.000000
  outer loop
   vertex 0.048785 -0.004249 -0.050786
   vertex 0.050405 -0.015518 0.050787
   vertex 0.050405 -0.015518 -0.050786
  endloop
 endfacet
 facet normal 0.909633 0.415412 0.000000
  outer loop
   vertex 0.044055 0.006108 0.050787
   vertex 0.048785 -0.004249 -0.050786
   vertex 0.044055 0.006108 -0.050786
  endloop
 endfacet
 facet normal 0.909633 0.415412 0.000000
  outer loop
   vertex 0.048785 -0.004249 -0.050786
   vertex 0.044055 0.006108 0.050787
   vertex 0.048785 -0.004249 0.050787
  endloop
 endfacet
 facet normal 0.755748 0.654863 0.000000
  outer loop
   vertex 0.044055 0.006108 0.050787
   vertex 0.036600 0.014712 -0.050786
   vertex 0.036600 0.014712 0.050787
  endloop
 endfacet
 facet normal 0.755748 0.654863 0.000000
  outer loop
   vertex 0.036600 0.014712 -0.050786
   vertex 0.044055 0.006108 0.050787
   vertex 0.044055 0.006108 -0.050786
  endloop
 endfacet
 facet normal 0.540638 0.841255 0.000000
  outer loop
   vertex 0.036600 0.014712 -0.050786
   vertex 0.027022 0.020867 0.050787
   vertex 0.036600 0.014712 0.050787
  endloop
 endfacet
 facet normal 0.540638 0.841255 0.000000
  outer loop
   vertex 0.027022 0.020867 0.050787
   vertex 0.036600 0.014712 -0.050786
   vertex 0.027022 0.020867 -0.050786
  endloop
 endfacet
 facet normal 0.281736 0.959492 0.000000
  outer loop
   vertex 0.027022 0.020867 -0.050786
   vertex 0.016098 0.024075 0.050787
   vertex 0.027022 0.020867 0.050787
  endloop
 endfacet
 facet normal 0.281736 0.959492 0.000000
  outer loop
   vertex 0.016098 0.024075 0.050787
   vertex 0.027022 0.020867 -0.050786
   vertex 0.016098 0.024075 -0.050786
  endloop
 endfacet
 facet normal 0.000000 1.000000 0.000000
  outer loop
   vertex 0.016098 0.024075 -0.050786
   vertex 0.004713 0.024075 0.050787
   vertex 0.016098 0.024075 0.050787
  endloop
 endfacet
 facet normal 0.000000 1.000000 0.000000
  outer loop
   vertex 0.004713 0.024075 0.050787
   vertex 0.016098 0.024075 -0.050786
   vertex 0.004713 0.024075 -0.050786
  endloop
 endfacet
 facet normal -0.281735 0.959492 0.000000
  outer loop
   vertex 0.004713 0.024075 -0.050786
   vertex -0.006211 0.020867 0.050787
   vertex 0.004713 0.024075 0.050787
  endloop
 endfacet
 facet normal -0.281735 0.959492 0.000000
  outer loop
   vertex -0.006211 0.020867 0.050787
   vertex 0.004713 0.024075 -0.050786
   vertex -0.006211 0.020867 -0.050786
  endloop
 endfacet
 facet normal -0.540642 0.841253 0.000000
  outer loop
   vertex -0.006211 0.020867 -0.050786
   vertex -0.015789 0.014712 0.050787
   vertex -0.006211 0.020867 0.050787
  endloop
 endfacet
 facet normal -0.540642 0.841253 0.000000
  outer loop
   vertex -0.015789 0.014712 0.050787
   vertex -0.006211 0.020867 -0.050786
   vertex -0.015789 0.014712 -0.050786
  endloop
 endfacet
 facet normal -0.755749 0.654862 0.000000
  outer loop
   vertex -0.023245 0.006108 -0.050786
   vertex -0.015789 0.014712 0.050787
   vertex -0.015789 0.014712 -0.050786
  endloop
 endfacet
 facet normal -0.755749 0.654862 0.000000
  outer loop
   vertex -0.015789 0.014712 0.050787
   vertex -0.023245 0.006108 -0.050786
   vertex -0.023245 0.006108 0.050787
  endloop
 endfacet
 facet normal -0.909632 0.415416 0.000000
  outer loop
   vertex -0.027974 -0.004249 -0.050786
   vertex -0.023245 0.006108 0.050787
   vertex -0.023245 0.006108 -0.050786
  endloop
 endfacet
 facet normal -0.909632 0.415416 0.000000
  outer loop
   vertex -0.023245 0.006108 0.050787
   vertex -0.027974 -0.004249 -0.050786
   vertex -0.027974 -0.004249 0.050787
  endloop
 endfacet
 facet normal -0.989822 0.142310 0.000000
  outer loop
   vertex -0.029595 -0.015518 -0.050786
   vertex -0.027974 -0.004249 0.050787
   vertex -0.027974 -0.004249 -0.050786
  endloop
 endfacet
 facet normal -0.989822 0.142310 0.000000
  outer loop
   vertex -0.027974 -0.004249 0.050787
   vertex -0.029595 -0.015518 -0.050786
   vertex -0.029595 -0.015518 0.050787
  endloop
 endfacet
 facet normal -0.989822 -0.142310 0.000000
  outer loop
   vertex -0.027974 -0.026787 -0.050786
   vertex -0.029595 -0.015518 0.050787
   vertex -0.029595 -0.015518 -0.050786
  endloop
 endfacet
 facet normal -0.989822 -0.142310 0.000000
  outer loop
   vertex -0.029595 -0.015518 0.050787
   vertex -0.027974 -0.026787 -0.050786
   vertex -0.027974 -0.026787 0.050787
  endloop
 endfacet
 facet normal -0.909631 -0.415418 -0.000000
  outer loop
   vertex -0.023245 -0.037144 -0.050786
   vertex -0.027974 -0.026787 0.050787
   vertex -0.027974 -0.026787 -0.050786
  endloop
 endfacet
 facet normal -0.909631 -0.415418 -0.000000
  outer loop
   vertex -0.027974 -0.026787 0.050787
   vertex -0.023245 -0.037144 -0.050786
   vertex -0.023245 -0.037144 0.050787
  endloop
 endfacet
 facet normal -0.755751 -0.654859 -0.000000
  outer loop
   vertex -0.015789 -0.045748 -0.050786
   vertex -0.023245 -0.037144 0.050787
   vertex -0.023245 -0.037144 -0.050786
  endloop
 endfacet
 facet normal -0.755751 -0.654859 -0.000000
  outer loop
   vertex -0.023245 -0.037144 0.050787
   vertex -0.015789 -0.045748 -0.050786
   vertex -0.015789 -0.045748 0.050787
  endloop
 endfacet
 facet normal -0.540641 -0.841253 0.000000
  outer loop
   vertex -0.015789 -0.045748 -0.050786
   vertex -0.006211 -0.051903 0.050787
   vertex -0.015789 -0.045748 0.050787
  endloop
 endfacet
 facet normal -0.540641 -0.841253 0.000000
  outer loop
   vertex -0.006211 -0.051903 0.050787
   vertex -0.015789 -0.045748 -0.050786
   vertex -0.006211 -0.051903 -0.050786
  endloop
 endfacet
 facet normal -0.281731 -0.959493 0.000000
  outer loop
   vertex -0.006211 -0.051903 -0.050786
   vertex 0.004713 -0.055111 0.050787
   vertex -0.006211 -0.051903 0.050787
  endloop
 endfacet
 facet normal -0.281731 -0.959493 0.000000
  outer loop
   vertex 0.004713 -0.055111 0.050787
   vertex -0.006211 -0.051903 -0.050786
   vertex 0.004713 -0.055111 -0.050786
  endloop
 endfacet
 facet normal 0.000000 -1.000000 0.000000
  outer loop
   vertex 0.004713 -0.055111 -0.050786
   vertex 0.016098 -0.055111 0.050787
   vertex 0.004713 -0.055111 0.050787
  endloop
 endfacet
 facet normal 0.000000 -1.000000 0.000000
  outer loop
   vertex 0.016098 -0.055111 0.050787
   vertex 0.004713 -0.055111 -0.050786
   vertex 0.016098 -0.055111 -0.050786
  endloop
 endfacet
 facet normal 0.281731 -0.959493 0.000000
  outer loop
   vertex 0.016098 -0.055111 -0.050786
   vertex 0.027022 -0.051903 0.050787
   vertex 0.016098 -0.055111 0.050787
  endloop
 endfacet
 facet normal 0.281731 -0.959493 0.000000
  outer loop
   vertex 0.027022 -0.051903 0.050787
   vertex 0.016098 -0.055111 -0.050786
   vertex 0.027022 -0.051903 -0.050786
  endloop
 endfacet
 facet normal 0.540644 -0.841252 0.000000
  outer loop
   vertex 0.027022 -0.051903 -0.050786
   vertex 0.036600 -0.045748 0.050787
   vertex 0.027022 -0.051903 0.050787
  endloop
 endfacet
 facet normal 0.540644 -0.841252 0.000000
  outer loop
   vertex 0.036600 -0.045748 0.050787
   vertex 0.027022 -0.051903 -0.050786
   vertex 0.036600 -0.045748 -0.050786
  endloop
 endfacet
 facet normal 0.755748 -0.654862 -0.000000
  outer loop
   vertex 0.036600 -0.045748 0.050787
   vertex 0.044055 -0.037144 -0.050786
   vertex 0.044055 -0.037144 0.050787
  endloop
 endfacet
 facet normal 0.755748 -0.654862 -0.000000
  outer loop
   vertex 0.044055 -0.037144 -0.050786
   vertex 0.036600 -0.045748 0.050787
   vertex 0.036600 -0.045748 -0.050786
  endloop
 endfacet
 facet normal 0.909631 -0.415418 -0.000000
  outer loop
   vertex 0.048785 -0.026787 0.050787
   vertex 0.044055 -0.037144 -0.050786
   vertex 0.048785 -0.026787 -0.050786
  endloop
 endfacet
 facet normal 0.909631 -0.415418 -0.000000
  outer loop
   vertex 0.044055 -0.037144 -0.050786
   vertex 0.048785 -0.026787 0.050787
   vertex 0.044055 -0.037144 0.050787
  endloop
 endfacet
 facet normal 0.000000 0.000000 -1.000000
  outer loop
   vertex 0.010544 -0.014440 0.050787
   vertex 0.050544 -0.014440 0.050787
   vertex 0.048925 -0.025709 0.050787
  endloop
 endfacet
 facet normal 0.000000 0.000000 -1.000000
  outer loop
   vertex 0.010544 -0.014440 0.050787
   vertex 0.048925 -0.003170 0.050787
   vertex 0.050544 -0.014440 0.050787
  endloop
 endfacet
 facet normal 0.000000 0.000000 -1.000000
  outer loop
   vertex 0.010544 -0.014440 0.050787
   vertex 0.044196 0.007186 0.050787
   vertex 0.048925 -0.003170 0.050787
  endloop
 endfacet
 facet normal 0.000000 0.000000 -1.000000
  outer loop
   vertex 0.010544 -0.014440 0.050787
   vertex 0.036739 0.015790 0.050787
   vertex 0.044196 0.007186 0.050787
  endloop
 endfacet
 facet normal 0.000000 0.000000 -1.000000
  outer loop
   vertex 0.010544 -0.014440 0.050787
   vertex 0.027159 0.021946 0.050787
   vertex 0.036739 0.015790 0.050787
  endloop
 endfacet
 facet normal 0.000000 0.000000 -1.000000
  outer loop
   vertex 0.010544 -0.014440 0.050787
   vertex 0.016234 0.025153 0.050787
   vertex 0.027159 0.021946 0.050787
  endloop
 endfacet
 facet normal 0.000000 0.000000 -1.000000
  outer loop
   vertex 0.010544 -0.014440 0.050787
   vertex 0.004848 0.025153 0.050787
   vertex 0.016234 0.025153 0.050787
  endloop
 endfacet
 facet normal 0.000000 0.000000 -1.000000
  outer loop
   vertex 0.010544 -0.014440 0.050787
   vertex -0.006070 0.021945 0.050787
   vertex 0.004848 0.025153 0.050787
  endloop
 endfacet
 facet normal 0.000000 0.000000 -1.000000
  outer loop
   vertex 0.010544 -0.014440 0.050787
   vertex -0.015651 0.015790 0.050787
   vertex -0.006070 0.021945 0.050787
  endloop
 endfacet
 facet normal 0.000000 0.000000 -1.000000
  outer loop
   vertex 0.010544 -0.014440 0.050787
   vertex -0.023107 0.007186 0.050787
   vertex -0.015651 0.015790 0.050787
  endloop
 endfacet
 facet normal 0.000000 0.000000 -1.000000
  outer loop
   vertex 0.010544 -0.014440 0.050787
   vertex -0.027836 -0.003171 0.050787
   vertex -0.023107 0.007186 0.050787
  endloop
 endfacet
 facet normal 0.000000 0.000000 -1.000000
  outer loop
   vertex 0.010544 -0.014440 0.050787
   vertex -0.029456 -0.014440 0.050787
   vertex -0.027836 -0.003171 0.050787
  endloop
 endfacet
 facet normal 0.000000 0.000000 -1.000000
  outer loop
   vertex 0.010544 -0.014440 0.050787
   vertex -0.027836 -0.025709 0.050787
   vertex -0.029456 -0.014440 0.050787
  endloop
 endfacet
 facet normal 0.000000 0.000000 -1.000000
  outer loop
   vertex 0.010544 -0.014440 0.050787
   vertex -0.023107 -0.036065 0.050787
   vertex -0.027836 -0.025709 0.050787
  endloop
 endfacet
 facet normal 0.000000 0.000000 -1.000000
  outer loop
   vertex 0.010544 -0.014440 0.050787
   vertex -0.015651 -0.044670 0.050787
   vertex -0.023107 -0.036065 0.050787
  endloop
 endfacet
 facet normal 0.000000 0.000000 -1.000000
  outer loop
   vertex 0.010544 -0.014440 0.050787
   vertex -0.006070 -0.050825 0.050787
   vertex -0.015651 -0.044670 0.050787
  endloop
 endfacet
 facet normal 0.000000 0.000000 -1.000000
  outer loop
   vertex 0.010544 -0.014440 0.050787
   vertex 0.004848 -0.054033 0.050787
   vertex -0.006070 -0.050825 0.050787
  endloop
 endfacet
 facet normal 0.000000 0.000000 -1.000000
  outer loop
   vertex 0.010544 -0.014440 0.050787
   vertex 0.016234 -0.054033 0.050787
   vertex 0.004848 -0.054033 0.050787
  endloop
 endfacet
 facet normal 0.000000 0.000000 -1.000000
  outer loop
   vertex 0.010544 -0.014440 0.050787
   vertex 0.027159 -0.050825 0.050787
   vertex 0.016234 -0.054033 0.050787
  endloop
 endfacet
 facet normal 0.000000 0.000000 -1.000000
  outer loop
   vertex 0.010544 -0.014440 0.050787
   vertex 0.036739 -0.044670 0.050787
   vertex 0.027159 -0.050825 0.050787
  endloop
 endfacet
 facet normal 0.000000 0.000000 -1.000000
  outer loop
   vertex 0.010544 -0.014440 0.050787
   vertex 0.044196 -0.036065 0.050787
   vertex 0.036739 -0.044670 0.050787
  endloop
 endfacet
 facet normal 0.000000 0.000000 -1.000000
  outer loop
   vertex 0.010544 -0.014440 0.050787
   vertex 0.048925 -0.025709 0.050787
   vertex 0.044196 -0.036065 0.050787
  endloop
 endfacet
 facet normal 0.000000 0.000000 -1.000000
  outer loop
   vertex 0.042973 -0.023697 -0.029908
   vertex 0.087783 -0.008004 -0.029908
   vertex 0.087783 -0.023697 -0.029908
  endloop
 endfacet
 facet normal 0.000000 0.000000 -1.000000
  outer loop
   vertex 0.087783 -0.008004 -0.029908
   vertex 0.042973 -0.023697 -0.029908
   vertex 0.042973 -0.008004 -0.029908
  endloop
 endfacet
 facet normal 0.000000 0.000000 1.000000
  outer loop
   vertex 0.042973 -0.008004 0.037704
   vertex 0.087783 -0.023697 0.037704
   vertex 0.087783 -0.008004 0.037704
  endloop
 endfacet
 facet normal 0.000000 0.000000 1.000000
  outer loop
   vertex 0.087783 -0.023697 0.037704
   vertex 0.042973 -0.008004 0.037704
   vertex 0.042973 -0.023697 0.037704
  endloop
 endfacet
 facet normal 0.000000 -1.000000 0.000000
  outer loop
   vertex 0.042973 -0.023697 -0.029908
   vertex 0.087783 -0.023697 0.037704
   vertex 0.042973 -0.023697 0.037704
  endloop
 endfacet
 facet normal 0.000000 -1.000000 0.000000
  outer loop
   vertex 0.087783 -0.023697 0.037704
   vertex 0.042973 -0.023697 -0.029908
   vertex 0.087783 -0.023697 -0.029908
  endloop
 endfacet
 facet normal 0.000000 1.000000 0.000000
  outer loop
   vertex 0.087783 -0.008004 -0.029908
   vertex 0.042973 -0.008004 0.037704
   vertex 0.087783 -0.008004 0.037704
  endloop
 endfacet
 facet normal 0.000000 1.000000 0.000000
  outer loop
   vertex 0.042973 -0.008004 0.037704
   vertex 0.087783 -0.008004 -0.029908
   vertex 0.042973 -0.008004 -0.029908
  endloop
 endfacet
 facet normal -1.000000 0.000000 0.000000
  outer loop
   vertex 0.042973 -0.023697 -0.029908
   vertex 0.042973 -0.008004 0.037704
   vertex 0.042973 -0.008004 -0.029908
  endloop
 endfacet
 facet normal -1.000000 0.000000 0.000000
  outer loop
   vertex 0.042973 -0.008004 0.037704
   vertex 0.042973 -0.023697 -0.029908
   vertex 0.042973 -0.023697 0.037704
  endloop
 endfacet
 facet normal 1.000000 0.000000 0.000000
  outer loop
   vertex 0.087783 -0.023697 0.037704
   vertex 0.087783 -0.008004 -0.029908
   vertex 0.087783 -0.008004 0.037704
  endloop
 endfacet
 facet normal 1.000000 0.000000 0.000000
  outer loop
   vertex 0.087783 -0.008004 -0.029908
   vertex 0.087783 -0.023697 0.037704
   vertex 0.087783 -0.023697 -0.029908
  endloop
 endfacet
endsolid
