solid stl file generated from AC3D
 facet normal 0.000000 -1.000000 -0.000000
  outer loop
   vertex -0.022886 -0.043592 -0.053262
   vertex 0.022886 -0.043592 0.037464
   vertex -0.022886 -0.043592 0.037464
  endloop
 endfacet
 facet normal 0.000000 -1.000000 -0.000000
  outer loop
   vertex 0.022886 -0.043592 0.037464
   vertex -0.022886 -0.043592 -0.053262
   vertex 0.022886 -0.043592 -0.053262
  endloop
 endfacet
 facet normal -0.885398 -0.464834 -0.000000
  outer loop
   vertex -0.022886 -0.043592 -0.053262
   vertex -0.045772 0.000000 0.037464
   vertex -0.045772 0.000000 -0.053262
  endloop
 endfacet
 facet normal -0.885398 -0.464834 -0.000000
  outer loop
   vertex -0.045772 0.000000 0.037464
   vertex -0.022886 -0.043592 -0.053262
   vertex -0.022886 -0.043592 0.037464
  endloop
 endfacet
 facet normal -0.885398 0.464834 0.000000
  outer loop
   vertex -0.045772 0.000000 -0.053262
   vertex -0.022886 0.043592 0.037464
   vertex -0.022886 0.043592 -0.053262
  endloop
 endfacet
 facet normal -0.885398 0.464834 0.000000
  outer loop
   vertex -0.022886 0.043592 0.037464
   vertex -0.045772 0.000000 -0.053262
   vertex -0.045772 0.000000 0.037464
  endloop
 endfacet
 facet normal 0.000000 1.000000 0.000000
  outer loop
   vertex 0.022886 0.043592 -0.053262
   vertex -0.022886 0.043592 0.037464
   vertex 0.022886 0.043592 0.037464
  endloop
 endfacet
 facet normal 0.000000 1.000000 0.000000
  outer loop
   vertex -0.022886 0.043592 0.037464
   vertex 0.022886 0.043592 -0.053262
   vertex -0.022886 0.043592 -0.053262
  endloop
 endfacet
 facet normal 0.885398 0.464835 0.000000
  outer loop
   vertex 0.022886 0.043592 0.037464
   vertex 0.045772 0.000000 -0.053262
   vertex 0.022886 0.043592 -0.053262
  endloop
 endfacet
 facet normal 0.885398 0.464835 0.000000
  outer loop
   vertex 0.045772 0.000000 -0.053262
   vertex 0.022886 0.043592 0.037464
   vertex 0.045772 0.000000 0.037464
  endloop
 endfacet
 facet normal 0.885398 -0.464834 -0.000000
  outer loop
   vertex 0.045772 0.000000 0.037464
   vertex 0.022886 -0.043592 -0.053262
   vertex 0.045772 0.000000 -0.053262
  endloop
 endfacet
 facet normal 0.885398 -0.464834 -0.000000
  outer loop
   vertex 0.022886 -0.043592 -0.053262
   vertex 0.045772 0.000000 0.037464
   vertex 0.022886 -0.043592 0.037464
  endloop
 endfacet
 facet normal 0.000000 0.000000 1.000000
  outer loop
   vertex -0.000000 0.000000 0.037464
   vertex -0.022886 -0.043592 0.037464
   vertex 0.022886 -0.043592 0.037464
  endloop
 endfacet
 facet normal 0.000000 0.000000 1.000000
  outer loop
   vertex -0.000000 0.000000 0.037464
   vertex -0.045772 0.000000 0.037464
   vertex -0.022886 -0.043592 0.037464
  endloop
 endfacet
 facet normal 0.000000 -0.000000 1.000000
  outer loop
   vertex -0.000000 0.000000 0.037464
   vertex -0.022886 0.043592 0.037464
   vertex -0.045772 0.000000 0.037464
  endloop
 endfacet
 facet normal 0.000000 -0.000000 1.000000
  outer loop
   vertex -0.000000 0.000000 0.037464
   vertex 0.022886 0.043592 0.037464
   vertex -0.022886 0.043592 0.037464
  endloop
 endfacet
 facet normal 0.000000 -0.000000 1.000000
  outer loop
   vertex -0.000000 0.000000 0.037464
   vertex 0.045772 0.000000 0.037464
   vertex 0.022886 0.043592 0.037464
  endloop
 endfacet
 facet normal 0.000000 0.000000 1.000000
  outer loop
   vertex -0.000000 0.000000 0.037464
   vertex 0.022886 -0.043592 0.037464
   vertex 0.045772 0.000000 0.037464
  endloop
 endfacet
 facet normal 0.000000 0.000000 -1.000000
  outer loop
   vertex -0.000000 0.000000 -0.053262
   vertex 0.022886 -0.043592 -0.053262
   vertex -0.022886 -0.043592 -0.053262
  endloop
 endfacet
 facet normal 0.000000 0.000000 -1.000000
  outer loop
   vertex -0.000000 0.000000 -0.053262
   vertex -0.022886 -0.043592 -0.053262
   vertex -0.045772 0.000000 -0.053262
  endloop
 endfacet
 facet normal 0.000000 0.000000 -1.000000
  outer loop
   vertex -0.000000 0.000000 -0.053262
   vertex -0.045772 0.000000 -0.053262
   vertex -0.022886 0.043592 -0.053262
  endloop
 endfacet
 facet normal 0.000000 0.000000 -1.000000
  outer loop
   vertex -0.000000 0.000000 -0.053262
   vertex -0.022886 0.043592 -0.053262
   vertex 0.022886 0.043592 -0.053262
  endloop
 endfacet
 facet normal 0.000000 0.000000 -1.000000
  outer loop
   vertex -0.000000 0.000000 -0.053262
   vertex 0.022886 0.043592 -0.053262
   vertex 0.045772 0.000000 -0.053262
  endloop
 endfacet
 facet normal 0.000000 0.000000 -1.000000
  outer loop
   vertex -0.000000 0.000000 -0.053262
   vertex 0.045772 0.000000 -0.053262
   vertex 0.022886 -0.043592 -0.053262
  endloop
 endfacet
 facet normal 0.911411 -0.411498 -0.000000
  outer loop
   vertex 0.028685 -0.007052 0.053262
   vertex 0.025719 -0.013623 0.037682
   vertex 0.028685 -0.007052 0.037682
  endloop
 endfacet
 facet normal 0.911411 -0.411498 -0.000000
  outer loop
   vertex 0.025719 -0.013623 0.037682
   vertex 0.028685 -0.007052 0.053262
   vertex 0.025719 -0.013623 0.053262
  endloop
 endfacet
 facet normal 0.767067 -0.641566 -0.000000
  outer loop
   vertex 0.025719 -0.013623 0.053262
   vertex 0.020999 -0.019265 0.037682
   vertex 0.025719 -0.013623 0.037682
  endloop
 endfacet
 facet normal 0.767067 -0.641566 -0.000000
  outer loop
   vertex 0.020999 -0.019265 0.037682
   vertex 0.025719 -0.013623 0.053262
   vertex 0.020999 -0.019265 0.053262
  endloop
 endfacet
 facet normal 0.575640 -0.817703 -0.000000
  outer loop
   vertex 0.014849 -0.023595 0.037682
   vertex 0.020999 -0.019265 0.053262
   vertex 0.014849 -0.023595 0.053262
  endloop
 endfacet
 facet normal 0.575640 -0.817703 -0.000000
  outer loop
   vertex 0.020999 -0.019265 0.053262
   vertex 0.014849 -0.023595 0.037682
   vertex 0.020999 -0.019265 0.037682
  endloop
 endfacet
 facet normal 0.355232 -0.934778 0.000000
  outer loop
   vertex 0.007686 -0.026317 0.037682
   vertex 0.014849 -0.023595 0.053262
   vertex 0.007686 -0.026317 0.053262
  endloop
 endfacet
 facet normal 0.355232 -0.934778 0.000000
  outer loop
   vertex 0.014849 -0.023595 0.053262
   vertex 0.007686 -0.026317 0.037682
   vertex 0.014849 -0.023595 0.037682
  endloop
 endfacet
 facet normal 0.119906 -0.992785 0.000000
  outer loop
   vertex -0.000000 -0.027245 0.037682
   vertex 0.007686 -0.026317 0.053262
   vertex -0.000000 -0.027245 0.053262
  endloop
 endfacet
 facet normal 0.119906 -0.992785 0.000000
  outer loop
   vertex 0.007686 -0.026317 0.053262
   vertex -0.000000 -0.027245 0.037682
   vertex 0.007686 -0.026317 0.037682
  endloop
 endfacet
 facet normal -0.119906 -0.992785 0.000000
  outer loop
   vertex -0.007686 -0.026317 0.037682
   vertex -0.000000 -0.027245 0.053262
   vertex -0.007686 -0.026317 0.053262
  endloop
 endfacet
 facet normal -0.119906 -0.992785 0.000000
  outer loop
   vertex -0.000000 -0.027245 0.053262
   vertex -0.007686 -0.026317 0.037682
   vertex -0.000000 -0.027245 0.037682
  endloop
 endfacet
 facet normal -0.355232 -0.934778 0.000000
  outer loop
   vertex -0.014849 -0.023595 0.037682
   vertex -0.007686 -0.026317 0.053262
   vertex -0.014849 -0.023595 0.053262
  endloop
 endfacet
 facet normal -0.355232 -0.934778 0.000000
  outer loop
   vertex -0.007686 -0.026317 0.053262
   vertex -0.014849 -0.023595 0.037682
   vertex -0.007686 -0.026317 0.037682
  endloop
 endfacet
 facet normal -0.575640 -0.817703 -0.000000
  outer loop
   vertex -0.020999 -0.019265 0.037682
   vertex -0.014849 -0.023595 0.053262
   vertex -0.020999 -0.019265 0.053262
  endloop
 endfacet
 facet normal -0.575640 -0.817703 -0.000000
  outer loop
   vertex -0.014849 -0.023595 0.053262
   vertex -0.020999 -0.019265 0.037682
   vertex -0.014849 -0.023595 0.037682
  endloop
 endfacet
 facet normal -0.767067 -0.641566 -0.000000
  outer loop
   vertex -0.020999 -0.019265 0.037682
   vertex -0.025719 -0.013623 0.053262
   vertex -0.025719 -0.013623 0.037682
  endloop
 endfacet
 facet normal -0.767067 -0.641566 -0.000000
  outer loop
   vertex -0.025719 -0.013623 0.053262
   vertex -0.020999 -0.019265 0.037682
   vertex -0.020999 -0.019265 0.053262
  endloop
 endfacet
 facet normal -0.911411 -0.411498 -0.000000
  outer loop
   vertex -0.025719 -0.013623 0.037682
   vertex -0.028685 -0.007052 0.053262
   vertex -0.028685 -0.007052 0.037682
  endloop
 endfacet
 facet normal -0.911411 -0.411498 -0.000000
  outer loop
   vertex -0.028685 -0.007052 0.053262
   vertex -0.025719 -0.013623 0.037682
   vertex -0.025719 -0.013623 0.053262
  endloop
 endfacet
 facet normal -0.989860 -0.142048 -0.000000
  outer loop
   vertex -0.028685 -0.007052 0.037682
   vertex -0.029697 -0.000000 0.053262
   vertex -0.029697 -0.000000 0.037682
  endloop
 endfacet
 facet normal -0.989860 -0.142048 -0.000000
  outer loop
   vertex -0.029697 -0.000000 0.053262
   vertex -0.028685 -0.007052 0.037682
   vertex -0.028685 -0.007052 0.053262
  endloop
 endfacet
 facet normal -0.989860 0.142048 0.000000
  outer loop
   vertex -0.029697 -0.000000 0.037682
   vertex -0.028685 0.007052 0.053262
   vertex -0.028685 0.007052 0.037682
  endloop
 endfacet
 facet normal -0.989860 0.142048 0.000000
  outer loop
   vertex -0.028685 0.007052 0.053262
   vertex -0.029697 -0.000000 0.037682
   vertex -0.029697 -0.000000 0.053262
  endloop
 endfacet
 facet normal -0.911414 0.411492 0.000000
  outer loop
   vertex -0.028685 0.007052 0.037682
   vertex -0.025719 0.013623 0.053262
   vertex -0.025719 0.013623 0.037682
  endloop
 endfacet
 facet normal -0.911414 0.411492 0.000000
  outer loop
   vertex -0.025719 0.013623 0.053262
   vertex -0.028685 0.007052 0.037682
   vertex -0.028685 0.007052 0.053262
  endloop
 endfacet
 facet normal -0.767072 0.641561 0.000000
  outer loop
   vertex -0.025719 0.013623 0.037682
   vertex -0.020999 0.019265 0.053262
   vertex -0.020999 0.019265 0.037682
  endloop
 endfacet
 facet normal -0.767072 0.641561 0.000000
  outer loop
   vertex -0.020999 0.019265 0.053262
   vertex -0.025719 0.013623 0.037682
   vertex -0.025719 0.013623 0.053262
  endloop
 endfacet
 facet normal -0.575634 0.817707 0.000000
  outer loop
   vertex -0.014849 0.023595 0.037682
   vertex -0.020999 0.019265 0.053262
   vertex -0.014849 0.023595 0.053262
  endloop
 endfacet
 facet normal -0.575634 0.817707 0.000000
  outer loop
   vertex -0.020999 0.019265 0.053262
   vertex -0.014849 0.023595 0.037682
   vertex -0.020999 0.019265 0.037682
  endloop
 endfacet
 facet normal -0.355232 0.934778 0.000000
  outer loop
   vertex -0.007686 0.026317 0.037682
   vertex -0.014849 0.023595 0.053262
   vertex -0.007686 0.026317 0.053262
  endloop
 endfacet
 facet normal -0.355232 0.934778 0.000000
  outer loop
   vertex -0.014849 0.023595 0.053262
   vertex -0.007686 0.026317 0.037682
   vertex -0.014849 0.023595 0.037682
  endloop
 endfacet
 facet normal -0.119906 0.992785 0.000000
  outer loop
   vertex -0.000000 0.027245 0.037682
   vertex -0.007686 0.026317 0.053262
   vertex -0.000000 0.027245 0.053262
  endloop
 endfacet
 facet normal -0.119906 0.992785 0.000000
  outer loop
   vertex -0.007686 0.026317 0.053262
   vertex -0.000000 0.027245 0.037682
   vertex -0.007686 0.026317 0.037682
  endloop
 endfacet
 facet normal 0.119906 0.992785 0.000000
  outer loop
   vertex 0.007686 0.026317 0.037682
   vertex -0.000000 0.027245 0.053262
   vertex 0.007686 0.026317 0.053262
  endloop
 endfacet
 facet normal 0.119906 0.992785 0.000000
  outer loop
   vertex -0.000000 0.027245 0.053262
   vertex 0.007686 0.026317 0.037682
   vertex -0.000000 0.027245 0.037682
  endloop
 endfacet
 facet normal 0.355231 0.934779 0.000000
  outer loop
   vertex 0.014849 0.023595 0.037682
   vertex 0.007686 0.026317 0.053262
   vertex 0.014849 0.023595 0.053262
  endloop
 endfacet
 facet normal 0.355231 0.934779 0.000000
  outer loop
   vertex 0.007686 0.026317 0.053262
   vertex 0.014849 0.023595 0.037682
   vertex 0.007686 0.026317 0.037682
  endloop
 endfacet
 facet normal 0.575639 0.817704 0.000000
  outer loop
   vertex 0.020999 0.019265 0.037682
   vertex 0.014849 0.023595 0.053262
   vertex 0.020999 0.019265 0.053262
  endloop
 endfacet
 facet normal 0.575639 0.817704 0.000000
  outer loop
   vertex 0.014849 0.023595 0.053262
   vertex 0.020999 0.019265 0.037682
   vertex 0.014849 0.023595 0.037682
  endloop
 endfacet
 facet normal 0.767068 0.641566 0.000000
  outer loop
   vertex 0.020999 0.019265 0.053262
   vertex 0.025719 0.013623 0.037682
   vertex 0.020999 0.019265 0.037682
  endloop
 endfacet
 facet normal 0.767068 0.641566 0.000000
  outer loop
   vertex 0.025719 0.013623 0.037682
   vertex 0.020999 0.019265 0.053262
   vertex 0.025719 0.013623 0.053262
  endloop
 endfacet
 facet normal 0.911411 0.411498 0.000000
  outer loop
   vertex 0.028685 0.007052 0.053262
   vertex 0.025719 0.013623 0.037682
   vertex 0.025719 0.013623 0.053262
  endloop
 endfacet
 facet normal 0.911411 0.411498 0.000000
  outer loop
   vertex 0.025719 0.013623 0.037682
   vertex 0.028685 0.007052 0.053262
   vertex 0.028685 0.007052 0.037682
  endloop
 endfacet
 facet normal 0.989860 0.142048 0.000000
  outer loop
   vertex 0.028685 0.007052 0.053262
   vertex 0.029697 0.000000 0.037682
   vertex 0.028685 0.007052 0.037682
  endloop
 endfacet
 facet normal 0.989860 0.142048 0.000000
  outer loop
   vertex 0.029697 0.000000 0.037682
   vertex 0.028685 0.007052 0.053262
   vertex 0.029697 0.000000 0.053262
  endloop
 endfacet
 facet normal 0.989860 -0.142047 -0.000000
  outer loop
   vertex 0.029697 0.000000 0.053262
   vertex 0.028685 -0.007052 0.037682
   vertex 0.029697 0.000000 0.037682
  endloop
 endfacet
 facet normal 0.989860 -0.142047 -0.000000
  outer loop
   vertex 0.028685 -0.007052 0.037682
   vertex 0.029697 0.000000 0.053262
   vertex 0.028685 -0.007052 0.053262
  endloop
 endfacet
 facet normal 0.000000 0.000000 1.000000
  outer loop
   vertex -0.000000 -0.000000 0.053262
   vertex 0.025719 -0.013623 0.053262
   vertex 0.028685 -0.007052 0.053262
  endloop
 endfacet
 facet normal 0.000000 0.000000 1.000000
  outer loop
   vertex -0.000000 -0.000000 0.053262
   vertex 0.020999 -0.019265 0.053262
   vertex 0.025719 -0.013623 0.053262
  endloop
 endfacet
 facet normal 0.000000 0.000000 1.000000
  outer loop
   vertex -0.000000 -0.000000 0.053262
   vertex 0.014849 -0.023595 0.053262
   vertex 0.020999 -0.019265 0.053262
  endloop
 endfacet
 facet normal 0.000000 0.000000 1.000000
  outer loop
   vertex -0.000000 -0.000000 0.053262
   vertex 0.007686 -0.026317 0.053262
   vertex 0.014849 -0.023595 0.053262
  endloop
 endfacet
 facet normal 0.000000 0.000000 1.000000
  outer loop
   vertex -0.000000 -0.000000 0.053262
   vertex -0.000000 -0.027245 0.053262
   vertex 0.007686 -0.026317 0.053262
  endloop
 endfacet
 facet normal 0.000000 0.000000 1.000000
  outer loop
   vertex -0.000000 -0.000000 0.053262
   vertex -0.007686 -0.026317 0.053262
   vertex -0.000000 -0.027245 0.053262
  endloop
 endfacet
 facet normal 0.000000 0.000000 1.000000
  outer loop
   vertex -0.000000 -0.000000 0.053262
   vertex -0.014849 -0.023595 0.053262
   vertex -0.007686 -0.026317 0.053262
  endloop
 endfacet
 facet normal 0.000000 0.000000 1.000000
  outer loop
   vertex -0.000000 -0.000000 0.053262
   vertex -0.020999 -0.019265 0.053262
   vertex -0.014849 -0.023595 0.053262
  endloop
 endfacet
 facet normal 0.000000 0.000000 1.000000
  outer loop
   vertex -0.000000 -0.000000 0.053262
   vertex -0.025719 -0.013623 0.053262
   vertex -0.020999 -0.019265 0.053262
  endloop
 endfacet
 facet normal 0.000000 0.000000 1.000000
  outer loop
   vertex -0.000000 -0.000000 0.053262
   vertex -0.028685 -0.007052 0.053262
   vertex -0.025719 -0.013623 0.053262
  endloop
 endfacet
 facet normal 0.000000 0.000000 1.000000
  outer loop
   vertex -0.000000 -0.000000 0.053262
   vertex -0.029697 -0.000000 0.053262
   vertex -0.028685 -0.007052 0.053262
  endloop
 endfacet
 facet normal 0.000000 0.000000 1.000000
  outer loop
   vertex -0.000000 -0.000000 0.053262
   vertex -0.028685 0.007052 0.053262
   vertex -0.029697 -0.000000 0.053262
  endloop
 endfacet
 facet normal 0.000000 0.000000 1.000000
  outer loop
   vertex -0.000000 -0.000000 0.053262
   vertex -0.025719 0.013623 0.053262
   vertex -0.028685 0.007052 0.053262
  endloop
 endfacet
 facet normal 0.000000 0.000000 1.000000
  outer loop
   vertex -0.000000 -0.000000 0.053262
   vertex -0.020999 0.019265 0.053262
   vertex -0.025719 0.013623 0.053262
  endloop
 endfacet
 facet normal 0.000000 0.000000 1.000000
  outer loop
   vertex -0.000000 -0.000000 0.053262
   vertex -0.014849 0.023595 0.053262
   vertex -0.020999 0.019265 0.053262
  endloop
 endfacet
 facet normal 0.000000 0.000000 1.000000
  outer loop
   vertex -0.000000 -0.000000 0.053262
   vertex -0.007686 0.026317 0.053262
   vertex -0.014849 0.023595 0.053262
  endloop
 endfacet
 facet normal 0.000000 0.000000 1.000000
  outer loop
   vertex -0.000000 -0.000000 0.053262
   vertex -0.000000 0.027245 0.053262
   vertex -0.007686 0.026317 0.053262
  endloop
 endfacet
 facet normal 0.000000 0.000000 1.000000
  outer loop
   vertex -0.000000 -0.000000 0.053262
   vertex 0.007686 0.026317 0.053262
   vertex -0.000000 0.027245 0.053262
  endloop
 endfacet
 facet normal 0.000000 0.000000 1.000000
  outer loop
   vertex -0.000000 -0.000000 0.053262
   vertex 0.014849 0.023595 0.053262
   vertex 0.007686 0.026317 0.053262
  endloop
 endfacet
 facet normal 0.000000 0.000000 1.000000
  outer loop
   vertex -0.000000 -0.000000 0.053262
   vertex 0.020999 0.019265 0.053262
   vertex 0.014849 0.023595 0.053262
  endloop
 endfacet
 facet normal 0.000000 0.000000 1.000000
  outer loop
   vertex -0.000000 -0.000000 0.053262
   vertex 0.025719 0.013623 0.053262
   vertex 0.020999 0.019265 0.053262
  endloop
 endfacet
 facet normal 0.000000 0.000000 1.000000
  outer loop
   vertex -0.000000 -0.000000 0.053262
   vertex 0.028685 0.007052 0.053262
   vertex 0.025719 0.013623 0.053262
  endloop
 endfacet
 facet normal 0.000000 0.000000 1.000000
  outer loop
   vertex -0.000000 -0.000000 0.053262
   vertex 0.029697 0.000000 0.053262
   vertex 0.028685 0.007052 0.053262
  endloop
 endfacet
 facet normal 0.000000 0.000000 1.000000
  outer loop
   vertex -0.000000 -0.000000 0.053262
   vertex 0.028685 -0.007052 0.053262
   vertex 0.029697 0.000000 0.053262
  endloop
 endfacet
 facet normal 0.000000 0.000000 -1.000000
  outer loop
   vertex -0.000000 0.000000 0.037682
   vertex 0.028685 -0.007052 0.037682
   vertex 0.025719 -0.013623 0.037682
  endloop
 endfacet
 facet normal 0.000000 0.000000 -1.000000
  outer loop
   vertex -0.000000 0.000000 0.037682
   vertex 0.025719 -0.013623 0.037682
   vertex 0.020999 -0.019265 0.037682
  endloop
 endfacet
 facet normal 0.000000 0.000000 -1.000000
  outer loop
   vertex -0.000000 0.000000 0.037682
   vertex 0.020999 -0.019265 0.037682
   vertex 0.014849 -0.023595 0.037682
  endloop
 endfacet
 facet normal 0.000000 0.000000 -1.000000
  outer loop
   vertex -0.000000 0.000000 0.037682
   vertex 0.014849 -0.023595 0.037682
   vertex 0.007686 -0.026317 0.037682
  endloop
 endfacet
 facet normal 0.000000 0.000000 -1.000000
  outer loop
   vertex -0.000000 0.000000 0.037682
   vertex 0.007686 -0.026317 0.037682
   vertex -0.000000 -0.027245 0.037682
  endloop
 endfacet
 facet normal 0.000000 0.000000 -1.000000
  outer loop
   vertex -0.000000 0.000000 0.037682
   vertex -0.000000 -0.027245 0.037682
   vertex -0.007686 -0.026317 0.037682
  endloop
 endfacet
 facet normal 0.000000 0.000000 -1.000000
  outer loop
   vertex -0.000000 0.000000 0.037682
   vertex -0.007686 -0.026317 0.037682
   vertex -0.014849 -0.023595 0.037682
  endloop
 endfacet
 facet normal 0.000000 0.000000 -1.000000
  outer loop
   vertex -0.000000 0.000000 0.037682
   vertex -0.014849 -0.023595 0.037682
   vertex -0.020999 -0.019265 0.037682
  endloop
 endfacet
 facet normal 0.000000 0.000000 -1.000000
  outer loop
   vertex -0.000000 0.000000 0.037682
   vertex -0.020999 -0.019265 0.037682
   vertex -0.025719 -0.013623 0.037682
  endloop
 endfacet
 facet normal 0.000000 0.000000 -1.000000
  outer loop
   vertex -0.000000 0.000000 0.037682
   vertex -0.025719 -0.013623 0.037682
   vertex -0.028685 -0.007052 0.037682
  endloop
 endfacet
 facet normal 0.000000 0.000000 -1.000000
  outer loop
   vertex -0.000000 0.000000 0.037682
   vertex -0.028685 -0.007052 0.037682
   vertex -0.029697 -0.000000 0.037682
  endloop
 endfacet
 facet normal 0.000000 0.000000 -1.000000
  outer loop
   vertex -0.000000 0.000000 0.037682
   vertex -0.029697 -0.000000 0.037682
   vertex -0.028685 0.007052 0.037682
  endloop
 endfacet
 facet normal 0.000000 0.000000 -1.000000
  outer loop
   vertex -0.000000 0.000000 0.037682
   vertex -0.028685 0.007052 0.037682
   vertex -0.025719 0.013623 0.037682
  endloop
 endfacet
 facet normal 0.000000 0.000000 -1.000000
  outer loop
   vertex -0.000000 0.000000 0.037682
   vertex -0.025719 0.013623 0.037682
   vertex -0.020999 0.019265 0.037682
  endloop
 endfacet
 facet normal 0.000000 0.000000 -1.000000
  outer loop
   vertex -0.000000 0.000000 0.037682
   vertex -0.020999 0.019265 0.037682
   vertex -0.014849 0.023595 0.037682
  endloop
 endfacet
 facet normal 0.000000 0.000000 -1.000000
  outer loop
   vertex -0.000000 0.000000 0.037682
   vertex -0.014849 0.023595 0.037682
   vertex -0.007686 0.026317 0.037682
  endloop
 endfacet
 facet normal 0.000000 0.000000 -1.000000
  outer loop
   vertex -0.000000 0.000000 0.037682
   vertex -0.007686 0.026317 0.037682
   vertex -0.000000 0.027245 0.037682
  endloop
 endfacet
 facet normal 0.000000 0.000000 -1.000000
  outer loop
   vertex -0.000000 0.000000 0.037682
   vertex -0.000000 0.027245 0.037682
   vertex 0.007686 0.026317 0.037682
  endloop
 endfacet
 facet normal 0.000000 0.000000 -1.000000
  outer loop
   vertex -0.000000 0.000000 0.037682
   vertex 0.007686 0.026317 0.037682
   vertex 0.014849 0.023595 0.037682
  endloop
 endfacet
 facet normal 0.000000 0.000000 -1.000000
  outer loop
   vertex -0.000000 0.000000 0.037682
   vertex 0.014849 0.023595 0.037682
   vertex 0.020999 0.019265 0.037682
  endloop
 endfacet
 facet normal 0.000000 0.000000 -1.000000
  outer loop
   vertex -0.000000 0.000000 0.037682
   vertex 0.020999 0.019265 0.037682
   vertex 0.025719 0.013623 0.037682
  endloop
 endfacet
 facet normal 0.000000 0.000000 -1.000000
  outer loop
   vertex -0.000000 0.000000 0.037682
   vertex 0.025719 0.013623 0.037682
   vertex 0.028685 0.007052 0.037682
  endloop
 endfacet
 facet normal 0.000000 0.000000 -1.000000
  outer loop
   vertex -0.000000 0.000000 0.037682
   vertex 0.028685 0.007052 0.037682
   vertex 0.029697 0.000000 0.037682
  endloop
 endfacet
 facet normal 0.000000 0.000000 -1.000000
  outer loop
   vertex -0.000000 0.000000 0.037682
   vertex 0.029697 0.000000 0.037682
   vertex 0.028685 -0.007052 0.037682
  endloop
 endfacet
endsolid
