#
# Object file
# Created by SpaceClaim
#

mtllib robolab_table.mtl

# table\Solid15
v -0.626199536929324 0.62754014790242 -0.738658526670347
v -0.626199536929324 0.769361850545254 -0.738658526670347
v -0.626199536929324 0.769361850545254 -0.0586585266703469
v -0.626199536929324 0.62754014790242 -0.0586585266703469
v -0.626199536929324 0.62754014790242 -0.738658526670347
v -0.739656899043591 0.62754014790242 -0.738658526670347
v -0.739656899043591 0.769361850545254 -0.738658526670347
v -0.626199536929324 0.769361850545254 -0.738658526670347
v -0.739656899043591 0.62754014790242 -0.0586585266703469
v -0.626199536929324 0.62754014790242 -0.0586585266703469
v -0.626199536929324 0.769361850545254 -0.0586585266703469
v -0.739656899043591 0.769361850545254 -0.0586585266703469
v -0.739656899043591 0.62754014790242 -0.738658526670347
v -0.626199536929324 0.62754014790242 -0.738658526670347
v -0.626199536929324 0.62754014790242 -0.0586585266703469
v -0.739656899043591 0.62754014790242 -0.0586585266703469
v -0.626199536929324 0.769361850545254 -0.738658526670347
v -0.739656899043591 0.769361850545254 -0.738658526670347
v -0.739656899043591 0.769361850545254 -0.0586585266703469
v -0.626199536929324 0.769361850545254 -0.0586585266703469
v -0.739656899043591 0.769361850545254 -0.738658526670347
v -0.739656899043591 0.62754014790242 -0.738658526670347
v -0.739656899043591 0.62754014790242 -0.0586585266703469
v -0.739656899043591 0.769361850545254 -0.0586585266703469
vn 1 0 0
vn 1 0 0
vn 1 0 0
vn 1 0 0
vn 0 0 -1
vn 0 0 -1
vn 0 0 -1
vn 0 0 -1
vn 0 0 1
vn 0 0 1
vn 0 0 1
vn 0 0 1
vn 0 -1 0
vn 0 -1 0
vn 0 -1 0
vn 0 -1 0
vn 0 1 0
vn 0 1 0
vn 0 1 0
vn 0 1 0
vn -1 0 0
vn -1 0 0
vn -1 0 0
vn -1 0 0
vt 0.00034 -7.0910851321417E-05
vt 0.00034 7.09108513214169E-05
vt -0.00034 7.09108513214169E-05
vt -0.00034 -7.0910851321417E-05
vt 5.67286810571336E-05 -7.0910851321417E-05
vt -5.67286810571336E-05 -7.0910851321417E-05
vt -5.67286810571336E-05 7.09108513214169E-05
vt 5.67286810571336E-05 7.09108513214169E-05
vt -5.67286810571336E-05 -7.0910851321417E-05
vt 5.67286810571336E-05 -7.0910851321417E-05
vt 5.67286810571336E-05 7.09108513214169E-05
vt -5.67286810571336E-05 7.09108513214169E-05
vt 0.00034 -5.67286810571336E-05
vt 0.00034 5.67286810571336E-05
vt -0.00034 5.67286810571336E-05
vt -0.00034 -5.67286810571336E-05
vt -0.00034 5.67286810571336E-05
vt -0.00034 -5.67286810571336E-05
vt 0.00034 -5.67286810571336E-05
vt 0.00034 5.67286810571336E-05
vt -0.00034 7.09108513214169E-05
vt -0.00034 -7.0910851321417E-05
vt 0.00034 -7.0910851321417E-05
vt 0.00034 7.09108513214169E-05

#o table\Solid15
#g table\Solid15
#s off

usemtl mtl_0

# face 0
f 2/2/2 3/3/3 1/1/1
f 1/1/1 3/3/3 4/4/4

# face 1
f 5/5/5 6/6/6 8/8/8
f 8/8/8 6/6/6 7/7/7

# face 2
f 9/9/9 10/10/10 12/12/12
f 12/12/12 10/10/10 11/11/11

# face 3
f 14/14/14 15/15/15 13/13/13
f 13/13/13 15/15/15 16/16/16

# face 4
f 18/18/18 19/19/19 17/17/17
f 17/17/17 19/19/19 20/20/20

# face 5
f 22/22/22 23/23/23 21/21/21
f 21/21/21 23/23/23 24/24/24

# table\Solid14
v 0.752796042885536 0.636525027687404 -0.732782983356278
v 0.752796042885536 0.778346730330238 -0.732782983356278
v 0.752796042885536 0.778346730330238 -0.0527829833562774
v 0.752796042885536 0.636525027687404 -0.0527829833562774
v 0.752796042885536 0.636525027687404 -0.732782983356278
v 0.639338680771269 0.636525027687404 -0.732782983356278
v 0.639338680771269 0.778346730330238 -0.732782983356278
v 0.752796042885536 0.778346730330238 -0.732782983356278
v 0.639338680771269 0.636525027687404 -0.0527829833562774
v 0.752796042885536 0.636525027687404 -0.0527829833562774
v 0.752796042885536 0.778346730330238 -0.0527829833562774
v 0.639338680771269 0.778346730330238 -0.0527829833562774
v 0.639338680771269 0.636525027687404 -0.732782983356278
v 0.752796042885536 0.636525027687404 -0.732782983356278
v 0.752796042885536 0.636525027687404 -0.0527829833562774
v 0.639338680771269 0.636525027687404 -0.0527829833562774
v 0.752796042885536 0.778346730330238 -0.732782983356278
v 0.639338680771269 0.778346730330238 -0.732782983356278
v 0.639338680771269 0.778346730330238 -0.0527829833562774
v 0.752796042885536 0.778346730330238 -0.0527829833562774
v 0.639338680771269 0.778346730330238 -0.732782983356278
v 0.639338680771269 0.636525027687404 -0.732782983356278
v 0.639338680771269 0.636525027687404 -0.0527829833562774
v 0.639338680771269 0.778346730330238 -0.0527829833562774
vn 1 0 0
vn 1 0 0
vn 1 0 0
vn 1 0 0
vn 0 0 -1
vn 0 0 -1
vn 0 0 -1
vn 0 0 -1
vn 0 0 1
vn 0 0 1
vn 0 0 1
vn 0 0 1
vn 0 -1 0
vn 0 -1 0
vn 0 -1 0
vn 0 -1 0
vn 0 1 0
vn 0 1 0
vn 0 1 0
vn 0 1 0
vn -1 0 0
vn -1 0 0
vn -1 0 0
vn -1 0 0
vt 0.00034 -7.0910851321417E-05
vt 0.00034 7.09108513214169E-05
vt -0.00034 7.09108513214169E-05
vt -0.00034 -7.0910851321417E-05
vt 5.67286810571336E-05 -7.0910851321417E-05
vt -5.67286810571336E-05 -7.0910851321417E-05
vt -5.67286810571336E-05 7.09108513214169E-05
vt 5.67286810571336E-05 7.09108513214169E-05
vt -5.67286810571336E-05 -7.0910851321417E-05
vt 5.67286810571336E-05 -7.0910851321417E-05
vt 5.67286810571336E-05 7.09108513214169E-05
vt -5.67286810571336E-05 7.09108513214169E-05
vt 0.00034 -5.67286810571336E-05
vt 0.00034 5.67286810571336E-05
vt -0.00034 5.67286810571336E-05
vt -0.00034 -5.67286810571336E-05
vt -0.00034 5.67286810571336E-05
vt -0.00034 -5.67286810571336E-05
vt 0.00034 -5.67286810571336E-05
vt 0.00034 5.67286810571336E-05
vt -0.00034 7.09108513214169E-05
vt -0.00034 -7.0910851321417E-05
vt 0.00034 -7.0910851321417E-05
vt 0.00034 7.09108513214169E-05

#o table\Solid14
#g table\Solid14
#s off

usemtl mtl_0

# face 0
f 26/26/26 27/27/27 25/25/25
f 25/25/25 27/27/27 28/28/28

# face 1
f 29/29/29 30/30/30 32/32/32
f 32/32/32 30/30/30 31/31/31

# face 2
f 33/33/33 34/34/34 36/36/36
f 36/36/36 34/34/34 35/35/35

# face 3
f 38/38/38 39/39/39 37/37/37
f 37/37/37 39/39/39 40/40/40

# face 4
f 42/42/42 43/43/43 41/41/41
f 41/41/41 43/43/43 44/44/44

# face 5
f 46/46/46 47/47/47 45/45/45
f 45/45/45 47/47/47 48/48/48

# table\Solid13
v 0.744619279711727 -0.761788943753774 -0.73382252632396
v 0.744619279711727 -0.61996724111094 -0.73382252632396
v 0.744619279711727 -0.61996724111094 -0.0538225263239598
v 0.744619279711727 -0.761788943753774 -0.0538225263239598
v 0.744619279711727 -0.761788943753774 -0.73382252632396
v 0.63116191759746 -0.761788943753774 -0.73382252632396
v 0.63116191759746 -0.61996724111094 -0.73382252632396
v 0.744619279711727 -0.61996724111094 -0.73382252632396
v 0.63116191759746 -0.761788943753774 -0.0538225263239598
v 0.744619279711727 -0.761788943753774 -0.0538225263239598
v 0.744619279711727 -0.61996724111094 -0.0538225263239598
v 0.63116191759746 -0.61996724111094 -0.0538225263239598
v 0.63116191759746 -0.761788943753774 -0.73382252632396
v 0.744619279711727 -0.761788943753774 -0.73382252632396
v 0.744619279711727 -0.761788943753774 -0.0538225263239598
v 0.63116191759746 -0.761788943753774 -0.0538225263239598
v 0.744619279711727 -0.61996724111094 -0.73382252632396
v 0.63116191759746 -0.61996724111094 -0.73382252632396
v 0.63116191759746 -0.61996724111094 -0.0538225263239598
v 0.744619279711727 -0.61996724111094 -0.0538225263239598
v 0.63116191759746 -0.61996724111094 -0.73382252632396
v 0.63116191759746 -0.761788943753774 -0.73382252632396
v 0.63116191759746 -0.761788943753774 -0.0538225263239598
v 0.63116191759746 -0.61996724111094 -0.0538225263239598
vn 1 0 0
vn 1 0 0
vn 1 0 0
vn 1 0 0
vn 0 0 -1
vn 0 0 -1
vn 0 0 -1
vn 0 0 -1
vn 0 0 1
vn 0 0 1
vn 0 0 1
vn 0 0 1
vn 0 -1 0
vn 0 -1 0
vn 0 -1 0
vn 0 -1 0
vn 0 1 0
vn 0 1 0
vn 0 1 0
vn 0 1 0
vn -1 0 0
vn -1 0 0
vn -1 0 0
vn -1 0 0
vt 0.00034 -7.09108513214169E-05
vt 0.00034 7.0910851321417E-05
vt -0.00034 7.0910851321417E-05
vt -0.00034 -7.09108513214169E-05
vt 5.67286810571336E-05 -7.09108513214169E-05
vt -5.67286810571336E-05 -7.09108513214169E-05
vt -5.67286810571336E-05 7.0910851321417E-05
vt 5.67286810571336E-05 7.0910851321417E-05
vt -5.67286810571336E-05 -7.09108513214169E-05
vt 5.67286810571336E-05 -7.09108513214169E-05
vt 5.67286810571336E-05 7.0910851321417E-05
vt -5.67286810571336E-05 7.0910851321417E-05
vt 0.00034 -5.67286810571336E-05
vt 0.00034 5.67286810571336E-05
vt -0.00034 5.67286810571336E-05
vt -0.00034 -5.67286810571336E-05
vt -0.00034 5.67286810571336E-05
vt -0.00034 -5.67286810571336E-05
vt 0.00034 -5.67286810571336E-05
vt 0.00034 5.67286810571336E-05
vt -0.00034 7.0910851321417E-05
vt -0.00034 -7.09108513214169E-05
vt 0.00034 -7.09108513214169E-05
vt 0.00034 7.0910851321417E-05

#o table\Solid13
#g table\Solid13
#s off

usemtl mtl_0

# face 0
f 50/50/50 51/51/51 49/49/49
f 49/49/49 51/51/51 52/52/52

# face 1
f 53/53/53 54/54/54 56/56/56
f 56/56/56 54/54/54 55/55/55

# face 2
f 57/57/57 58/58/58 60/60/60
f 60/60/60 58/58/58 59/59/59

# face 3
f 62/62/62 63/63/63 61/61/61
f 61/61/61 63/63/63 64/64/64

# face 4
f 66/66/66 67/67/67 65/65/65
f 65/65/65 67/67/67 68/68/68

# face 5
f 70/70/70 71/71/71 69/69/69
f 69/69/69 71/71/71 72/72/72

# table\Solid12
v 0.750727841604829 -0.779048972498207 -0.0497093445646037
v 0.750727841604829 0.775335230304084 -0.0497093445646037
v 0.750727841604829 0.775335230304084 0.000128592855421016
v 0.750727841604829 -0.779048972498207 0.000128592855421016
v 0.750727841604829 -0.779048972498207 -0.0497093445646037
v -0.749747082487556 -0.779048972498207 -0.0497093445646037
v -0.749747082487556 0.775335230304084 -0.0497093445646037
v 0.750727841604829 0.775335230304084 -0.0497093445646037
v -0.749747082487556 -0.779048972498207 0.000128592855421016
v 0.750727841604829 -0.779048972498207 0.000128592855421016
v 0.750727841604829 0.775335230304084 0.000128592855421016
v -0.749747082487556 0.775335230304084 0.000128592855421016
v -0.749747082487556 -0.779048972498207 -0.0497093445646037
v 0.750727841604829 -0.779048972498207 -0.0497093445646037
v 0.750727841604829 -0.779048972498207 0.000128592855421016
v -0.749747082487556 -0.779048972498207 0.000128592855421016
v 0.750727841604829 0.775335230304084 -0.0497093445646037
v -0.749747082487556 0.775335230304084 -0.0497093445646037
v -0.749747082487556 0.775335230304084 0.000128592855421016
v 0.750727841604829 0.775335230304084 0.000128592855421016
v -0.749747082487556 0.775335230304084 -0.0497093445646037
v -0.749747082487556 -0.779048972498207 -0.0497093445646037
v -0.749747082487556 -0.779048972498207 0.000128592855421016
v -0.749747082487556 0.775335230304084 0.000128592855421016
vn 1 0 0
vn 1 0 0
vn 1 0 0
vn 1 0 0
vn 0 0 -1
vn 0 0 -1
vn 0 0 -1
vn 0 0 -1
vn 0 0 1
vn 0 0 1
vn 0 0 1
vn 0 0 1
vn 0 -1 0
vn 0 -1 0
vn 0 -1 0
vn 0 -1 0
vn 0 1 0
vn 0 1 0
vn 0 1 0
vn 0 1 0
vn -1 0 0
vn -1 0 0
vn -1 0 0
vn -1 0 0
vt 2.49189687100124E-05 -0.000777192101401146
vt 2.49189687100124E-05 0.000777192101401146
vt -2.49189687100124E-05 0.000777192101401146
vt -2.49189687100124E-05 -0.000777192101401146
vt 0.000750237462046193 -0.000777192101401146
vt -0.000750237462046193 -0.000777192101401146
vt -0.000750237462046193 0.000777192101401146
vt 0.000750237462046193 0.000777192101401146
vt -0.000750237462046193 -0.000777192101401146
vt 0.000750237462046193 -0.000777192101401146
vt 0.000750237462046193 0.000777192101401146
vt -0.000750237462046193 0.000777192101401146
vt 2.49189687100124E-05 -0.000750237462046193
vt 2.49189687100124E-05 0.000750237462046193
vt -2.49189687100124E-05 0.000750237462046193
vt -2.49189687100124E-05 -0.000750237462046193
vt -2.49189687100124E-05 0.000750237462046193
vt -2.49189687100124E-05 -0.000750237462046193
vt 2.49189687100124E-05 -0.000750237462046193
vt 2.49189687100124E-05 0.000750237462046193
vt -2.49189687100124E-05 0.000777192101401146
vt -2.49189687100124E-05 -0.000777192101401146
vt 2.49189687100124E-05 -0.000777192101401146
vt 2.49189687100124E-05 0.000777192101401146

#o table\Solid12
#g table\Solid12
#s off

usemtl mtl_0

# face 0
f 74/74/74 75/75/75 73/73/73
f 73/73/73 75/75/75 76/76/76

# face 1
f 77/77/77 78/78/78 80/80/80
f 80/80/80 78/78/78 79/79/79

# face 2
f 81/81/81 82/82/82 84/84/84
f 84/84/84 82/82/82 83/83/83

# face 3
f 86/86/86 87/87/87 85/85/85
f 85/85/85 87/87/87 88/88/88

# face 4
f 90/90/90 91/91/91 89/89/89
f 89/89/89 91/91/91 92/92/92

# face 5
f 94/94/94 95/95/95 93/93/93
f 93/93/93 95/95/95 96/96/96

# table\Solid6
v -0.630933939433681 -0.761788943753774 -0.73382252632396
v -0.630933939433681 -0.61996724111094 -0.73382252632396
v -0.630933939433681 -0.61996724111094 -0.0538225263239598
v -0.630933939433681 -0.761788943753774 -0.0538225263239598
v -0.630933939433681 -0.761788943753774 -0.73382252632396
v -0.744391301547948 -0.761788943753774 -0.73382252632396
v -0.744391301547948 -0.61996724111094 -0.73382252632396
v -0.630933939433681 -0.61996724111094 -0.73382252632396
v -0.744391301547948 -0.761788943753774 -0.0538225263239598
v -0.630933939433681 -0.761788943753774 -0.0538225263239598
v -0.630933939433681 -0.61996724111094 -0.0538225263239598
v -0.744391301547948 -0.61996724111094 -0.0538225263239598
v -0.744391301547948 -0.761788943753774 -0.73382252632396
v -0.630933939433681 -0.761788943753774 -0.73382252632396
v -0.630933939433681 -0.761788943753774 -0.0538225263239598
v -0.744391301547948 -0.761788943753774 -0.0538225263239598
v -0.630933939433681 -0.61996724111094 -0.73382252632396
v -0.744391301547948 -0.61996724111094 -0.73382252632396
v -0.744391301547948 -0.61996724111094 -0.0538225263239598
v -0.630933939433681 -0.61996724111094 -0.0538225263239598
v -0.744391301547948 -0.61996724111094 -0.73382252632396
v -0.744391301547948 -0.761788943753774 -0.73382252632396
v -0.744391301547948 -0.761788943753774 -0.0538225263239598
v -0.744391301547948 -0.61996724111094 -0.0538225263239598
vn 1 0 0
vn 1 0 0
vn 1 0 0
vn 1 0 0
vn 0 0 -1
vn 0 0 -1
vn 0 0 -1
vn 0 0 -1
vn 0 0 1
vn 0 0 1
vn 0 0 1
vn 0 0 1
vn 0 -1 0
vn 0 -1 0
vn 0 -1 0
vn 0 -1 0
vn 0 1 0
vn 0 1 0
vn 0 1 0
vn 0 1 0
vn -1 0 0
vn -1 0 0
vn -1 0 0
vn -1 0 0
vt 0.00034 -7.09108513214169E-05
vt 0.00034 7.0910851321417E-05
vt -0.00034 7.0910851321417E-05
vt -0.00034 -7.09108513214169E-05
vt 5.67286810571337E-05 -7.09108513214169E-05
vt -5.67286810571336E-05 -7.09108513214169E-05
vt -5.67286810571336E-05 7.0910851321417E-05
vt 5.67286810571337E-05 7.0910851321417E-05
vt -5.67286810571336E-05 -7.09108513214169E-05
vt 5.67286810571337E-05 -7.09108513214169E-05
vt 5.67286810571337E-05 7.0910851321417E-05
vt -5.67286810571336E-05 7.0910851321417E-05
vt 0.00034 -5.67286810571336E-05
vt 0.00034 5.67286810571337E-05
vt -0.00034 5.67286810571337E-05
vt -0.00034 -5.67286810571336E-05
vt -0.00034 5.67286810571337E-05
vt -0.00034 -5.67286810571336E-05
vt 0.00034 -5.67286810571336E-05
vt 0.00034 5.67286810571337E-05
vt -0.00034 7.0910851321417E-05
vt -0.00034 -7.09108513214169E-05
vt 0.00034 -7.09108513214169E-05
vt 0.00034 7.0910851321417E-05

#o table\Solid6
#g table\Solid6
#s off

usemtl mtl_0

# face 0
f 98/98/98 99/99/99 97/97/97
f 97/97/97 99/99/99 100/100/100

# face 1
f 101/101/101 102/102/102 104/104/104
f 104/104/104 102/102/102 103/103/103

# face 2
f 105/105/105 106/106/106 108/108/108
f 108/108/108 106/106/106 107/107/107

# face 3
f 110/110/110 111/111/111 109/109/109
f 109/109/109 111/111/111 112/112/112

# face 4
f 114/114/114 115/115/115 113/113/113
f 113/113/113 115/115/115 116/116/116

# face 5
f 118/118/118 119/119/119 117/117/117
f 117/117/117 119/119/119 120/120/120
