solid stl file generated from AC3D
 facet normal 0.980632 0.155334 0.119296
  outer loop
   vertex 0.074665 -0.000000 -0.000109
   vertex 0.071010 0.023073 -0.000109
   vertex 0.059724 0.009459 0.110391
  endloop
 endfacet
 facet normal 0.752894 0.643051 0.140129
  outer loop
   vertex 0.052796 0.052796 -0.000109
   vertex 0.035541 0.048919 0.110391
   vertex 0.053876 0.027452 0.110391
  endloop
 endfacet
 facet normal -0.909906 0.408629 -0.071365
  outer loop
   vertex -0.064205 -0.010169 0.055141
   vertex -0.059724 0.009459 0.110391
   vertex -0.061805 -0.000000 0.082766
  endloop
 endfacet
 facet normal -0.418413 0.878561 -0.230350
  outer loop
   vertex 0.031282 -0.061393 0.027516
   vertex 0.010169 -0.064205 0.055141
   vertex 0.000000 -0.061805 0.082766
  endloop
 endfacet
 facet normal -0.398783 0.891725 0.214008
  outer loop
   vertex -0.010169 0.064205 0.055141
   vertex -0.031282 0.061393 0.027516
   vertex 0.009459 0.059724 0.110391
  endloop
 endfacet
 facet normal -0.519264 -0.847399 0.110817
  outer loop
   vertex -0.052796 -0.052796 -0.000109
   vertex -0.023073 -0.071010 -0.000109
   vertex -0.035541 -0.048919 0.110391
  endloop
 endfacet
 facet normal -0.155740 0.983086 0.096368
  outer loop
   vertex -0.031282 0.061393 0.027516
   vertex -0.027452 0.053876 0.110391
   vertex 0.009459 0.059724 0.110391
  endloop
 endfacet
 facet normal -0.273038 0.950628 0.147504
  outer loop
   vertex 0.000000 0.074664 -0.000109
   vertex -0.031282 0.061393 0.027516
   vertex 0.000000 0.061805 0.082766
  endloop
 endfacet
 facet normal 0.418413 -0.878561 -0.230350
  outer loop
   vertex -0.031282 0.061393 0.027516
   vertex -0.010169 0.064205 0.055141
   vertex 0.000000 0.061805 0.082766
  endloop
 endfacet
 facet normal -0.837216 -0.526128 0.149194
  outer loop
   vertex -0.052796 -0.052796 -0.000109
   vertex -0.035541 -0.048919 0.110391
   vertex -0.061393 -0.031282 0.027516
  endloop
 endfacet
 facet normal 0.000000 -0.000000 -1.000000
  outer loop
   vertex 0.052796 -0.052796 -0.000109
   vertex 0.023073 -0.071010 -0.000109
   vertex 0.074665 -0.000000 -0.000109
  endloop
 endfacet
 facet normal -0.149963 0.946725 0.284995
  outer loop
   vertex 0.000000 0.074664 -0.000109
   vertex -0.023073 0.071010 -0.000109
   vertex -0.031282 0.061393 0.027516
  endloop
 endfacet
 facet normal -0.000000 0.000000 -1.000000
  outer loop
   vertex 0.023073 -0.071010 -0.000109
   vertex 0.000000 -0.074665 -0.000109
   vertex 0.074665 -0.000000 -0.000109
  endloop
 endfacet
 facet normal -0.517325 0.844234 0.140154
  outer loop
   vertex -0.023073 0.071010 -0.000109
   vertex -0.052796 0.052796 -0.000109
   vertex -0.031282 0.061393 0.027516
  endloop
 endfacet
 facet normal 0.878561 0.418413 -0.230350
  outer loop
   vertex -0.061393 -0.031282 0.027516
   vertex -0.064205 -0.010169 0.055141
   vertex -0.061805 -0.000000 0.082766
  endloop
 endfacet
 facet normal -0.922126 0.381998 -0.061325
  outer loop
   vertex -0.061805 -0.000000 0.082766
   vertex -0.059724 0.009459 0.110391
   vertex -0.048919 0.035541 0.110391
  endloop
 endfacet
 facet normal -0.847399 0.519264 0.110817
  outer loop
   vertex -0.052796 0.052796 -0.000109
   vertex -0.071010 0.023073 -0.000109
   vertex -0.048919 0.035541 0.110391
  endloop
 endfacet
 facet normal 0.519264 0.847399 0.110817
  outer loop
   vertex 0.052796 0.052796 -0.000109
   vertex 0.023073 0.071010 -0.000109
   vertex 0.035541 0.048919 0.110391
  endloop
 endfacet
 facet normal -0.961382 0.218331 0.167560
  outer loop
   vertex -0.071010 0.023073 -0.000109
   vertex -0.061805 -0.000000 0.082766
   vertex -0.048919 0.035541 0.110391
  endloop
 endfacet
 facet normal -0.983086 -0.155740 0.096368
  outer loop
   vertex -0.061393 -0.031282 0.027516
   vertex -0.053876 -0.027452 0.110391
   vertex -0.059724 0.009459 0.110391
  endloop
 endfacet
 facet normal -0.946725 -0.149963 0.284995
  outer loop
   vertex -0.074665 -0.000000 -0.000109
   vertex -0.071010 -0.023073 -0.000109
   vertex -0.061393 -0.031282 0.027516
  endloop
 endfacet
 facet normal 0.000000 0.000000 -1.000000
  outer loop
   vertex 0.071010 -0.023073 -0.000109
   vertex 0.052796 -0.052796 -0.000109
   vertex 0.074665 -0.000000 -0.000109
  endloop
 endfacet
 facet normal 0.381998 0.922126 -0.061325
  outer loop
   vertex 0.000000 0.061805 0.082766
   vertex 0.009459 0.059724 0.110391
   vertex 0.035541 0.048919 0.110391
  endloop
 endfacet
 facet normal -0.844234 -0.517325 0.140154
  outer loop
   vertex -0.071010 -0.023073 -0.000109
   vertex -0.052796 -0.052796 -0.000109
   vertex -0.061393 -0.031282 0.027516
  endloop
 endfacet
 facet normal 0.307527 -0.946265 0.100043
  outer loop
   vertex 0.031282 -0.061393 0.027516
   vertex 0.027452 -0.053876 0.110391
   vertex 0.009459 -0.059724 0.110391
  endloop
 endfacet
 facet normal -0.646300 0.756699 0.098503
  outer loop
   vertex -0.031282 0.061393 0.027516
   vertex -0.048919 0.035541 0.110391
   vertex -0.027452 0.053876 0.110391
  endloop
 endfacet
 facet normal 0.273038 -0.950628 0.147504
  outer loop
   vertex 0.000000 -0.074665 -0.000109
   vertex 0.031282 -0.061393 0.027516
   vertex 0.000000 -0.061805 0.082766
  endloop
 endfacet
 facet normal -0.526128 0.837216 0.149194
  outer loop
   vertex -0.052796 0.052796 -0.000109
   vertex -0.048919 0.035541 0.110391
   vertex -0.031282 0.061393 0.027516
  endloop
 endfacet
 facet normal -0.976287 0.154646 0.151485
  outer loop
   vertex -0.071010 0.023073 -0.000109
   vertex -0.074665 -0.000000 -0.000109
   vertex -0.061805 -0.000000 0.082766
  endloop
 endfacet
 facet normal -0.950628 -0.273038 0.147504
  outer loop
   vertex -0.074665 -0.000000 -0.000109
   vertex -0.061393 -0.031282 0.027516
   vertex -0.061805 -0.000000 0.082766
  endloop
 endfacet
 facet normal 0.218331 0.961382 0.167560
  outer loop
   vertex 0.023073 0.071010 -0.000109
   vertex 0.000000 0.061805 0.082766
   vertex 0.035541 0.048919 0.110391
  endloop
 endfacet
 facet normal -0.016172 -0.996613 0.080633
  outer loop
   vertex 0.010169 -0.064205 0.055141
   vertex 0.009459 -0.059724 0.110391
   vertex 0.000000 -0.061805 0.082766
  endloop
 endfacet
 facet normal 0.149963 -0.946725 0.284995
  outer loop
   vertex 0.000000 -0.074665 -0.000109
   vertex 0.023073 -0.071010 -0.000109
   vertex 0.031282 -0.061393 0.027516
  endloop
 endfacet
 facet normal 0.847399 -0.519264 0.110817
  outer loop
   vertex 0.052796 -0.052796 -0.000109
   vertex 0.071010 -0.023073 -0.000109
   vertex 0.048919 -0.035541 0.110391
  endloop
 endfacet
 facet normal 0.408629 0.909906 -0.071365
  outer loop
   vertex -0.010169 0.064205 0.055141
   vertex 0.009459 0.059724 0.110391
   vertex 0.000000 0.061805 0.082766
  endloop
 endfacet
 facet normal -0.891725 -0.398783 0.214008
  outer loop
   vertex -0.064205 -0.010169 0.055141
   vertex -0.061393 -0.031282 0.027516
   vertex -0.059724 0.009459 0.110391
  endloop
 endfacet
 facet normal 0.517325 -0.844234 0.140154
  outer loop
   vertex 0.023073 -0.071010 -0.000109
   vertex 0.052796 -0.052796 -0.000109
   vertex 0.031282 -0.061393 0.027516
  endloop
 endfacet
 facet normal -0.756699 -0.646300 0.098503
  outer loop
   vertex -0.061393 -0.031282 0.027516
   vertex -0.035541 -0.048919 0.110391
   vertex -0.053876 -0.027452 0.110391
  endloop
 endfacet
 facet normal 0.847399 0.519264 0.110814
  outer loop
   vertex 0.071010 0.023073 -0.000109
   vertex 0.052796 0.052796 -0.000109
   vertex 0.053876 0.027452 0.110391
  endloop
 endfacet
 facet normal 0.000000 0.000000 -1.000000
  outer loop
   vertex 0.000000 -0.074665 -0.000109
   vertex -0.023073 -0.071010 -0.000109
   vertex 0.074665 -0.000000 -0.000109
  endloop
 endfacet
 facet normal 0.975556 -0.154530 0.156238
  outer loop
   vertex 0.071010 -0.023073 -0.000109
   vertex 0.074665 -0.000000 -0.000109
   vertex 0.064205 -0.010169 0.055141
  endloop
 endfacet
 facet normal 0.000000 -0.997173 0.075138
  outer loop
   vertex 0.000000 -0.061805 0.082766
   vertex 0.009459 -0.059724 0.110391
   vertex -0.009459 -0.059724 0.110391
  endloop
 endfacet
 facet normal -0.381998 -0.922126 -0.061325
  outer loop
   vertex 0.000000 -0.061805 0.082766
   vertex -0.009459 -0.059724 0.110391
   vertex -0.035541 -0.048919 0.110391
  endloop
 endfacet
 facet normal 0.962384 -0.213262 0.168332
  outer loop
   vertex 0.071010 -0.023073 -0.000109
   vertex 0.064205 -0.010169 0.055141
   vertex 0.048919 -0.035541 0.110391
  endloop
 endfacet
 facet normal -0.154646 -0.976287 0.151485
  outer loop
   vertex -0.023073 -0.071010 -0.000109
   vertex 0.000000 -0.074665 -0.000109
   vertex 0.000000 -0.061805 0.082766
  endloop
 endfacet
 facet normal 0.920933 -0.381504 0.079602
  outer loop
   vertex 0.064205 -0.010169 0.055141
   vertex 0.059724 -0.009459 0.110391
   vertex 0.048919 -0.035541 0.110391
  endloop
 endfacet
 facet normal 0.154646 0.976287 0.151485
  outer loop
   vertex 0.023073 0.071010 -0.000109
   vertex 0.000000 0.074664 -0.000109
   vertex 0.000000 0.061805 0.082766
  endloop
 endfacet
 facet normal 0.000000 0.000000 -1.000000
  outer loop
   vertex 0.052796 0.052796 -0.000109
   vertex 0.071010 0.023073 -0.000109
   vertex 0.074665 -0.000000 -0.000109
  endloop
 endfacet
 facet normal -0.000000 -0.000000 -1.000000
  outer loop
   vertex 0.023073 0.071010 -0.000109
   vertex 0.052796 0.052796 -0.000109
   vertex 0.074665 -0.000000 -0.000109
  endloop
 endfacet
 facet normal -0.218331 -0.961382 0.167560
  outer loop
   vertex -0.023073 -0.071010 -0.000109
   vertex 0.000000 -0.061805 0.082766
   vertex -0.035541 -0.048919 0.110391
  endloop
 endfacet
 facet normal 0.996726 0.000000 0.080850
  outer loop
   vertex 0.064205 -0.010169 0.055141
   vertex 0.059724 0.009459 0.110391
   vertex 0.059724 -0.009459 0.110391
  endloop
 endfacet
 facet normal 0.000000 0.000000 -1.000000
  outer loop
   vertex 0.000000 0.074664 -0.000109
   vertex 0.023073 0.071010 -0.000109
   vertex 0.074665 -0.000000 -0.000109
  endloop
 endfacet
 facet normal -0.000000 0.000000 -1.000000
  outer loop
   vertex -0.023073 0.071010 -0.000109
   vertex 0.000000 0.074664 -0.000109
   vertex 0.074665 -0.000000 -0.000109
  endloop
 endfacet
 facet normal 0.942460 0.306291 0.133995
  outer loop
   vertex 0.071010 0.023073 -0.000109
   vertex 0.053876 0.027452 0.110391
   vertex 0.059724 0.009459 0.110391
  endloop
 endfacet
 facet normal 0.000000 0.000000 -1.000000
  outer loop
   vertex -0.052796 0.052796 -0.000109
   vertex -0.023073 0.071010 -0.000109
   vertex 0.074665 -0.000000 -0.000109
  endloop
 endfacet
 facet normal 0.000000 0.000000 -1.000000
  outer loop
   vertex -0.071010 0.023073 -0.000109
   vertex -0.052796 0.052796 -0.000109
   vertex 0.074665 -0.000000 -0.000109
  endloop
 endfacet
 facet normal 0.526128 -0.837216 0.149194
  outer loop
   vertex 0.052796 -0.052796 -0.000109
   vertex 0.048919 -0.035541 0.110391
   vertex 0.031282 -0.061393 0.027516
  endloop
 endfacet
 facet normal 0.000000 0.000000 -1.000000
  outer loop
   vertex -0.074665 -0.000000 -0.000109
   vertex -0.071010 0.023073 -0.000109
   vertex 0.074665 -0.000000 -0.000109
  endloop
 endfacet
 facet normal 0.969703 -0.194529 0.147768
  outer loop
   vertex 0.074665 -0.000000 -0.000109
   vertex 0.059724 0.009459 0.110391
   vertex 0.064205 -0.010169 0.055141
  endloop
 endfacet
 facet normal 0.000000 0.000000 -1.000000
  outer loop
   vertex -0.071010 -0.023073 -0.000109
   vertex -0.074665 -0.000000 -0.000109
   vertex 0.074665 -0.000000 -0.000109
  endloop
 endfacet
 facet normal 0.235717 -0.968392 0.081579
  outer loop
   vertex 0.010169 -0.064205 0.055141
   vertex 0.031282 -0.061393 0.027516
   vertex 0.009459 -0.059724 0.110391
  endloop
 endfacet
 facet normal 0.000000 0.000000 -1.000000
  outer loop
   vertex -0.052796 -0.052796 -0.000109
   vertex -0.071010 -0.023073 -0.000109
   vertex 0.074665 -0.000000 -0.000109
  endloop
 endfacet
 facet normal -0.000000 0.000000 -1.000000
  outer loop
   vertex -0.023073 -0.071010 -0.000109
   vertex -0.052796 -0.052796 -0.000109
   vertex 0.074665 -0.000000 -0.000109
  endloop
 endfacet
 facet normal 0.646300 -0.756699 0.098503
  outer loop
   vertex 0.031282 -0.061393 0.027516
   vertex 0.048919 -0.035541 0.110391
   vertex 0.027452 -0.053876 0.110391
  endloop
 endfacet
endsolid
