solid stl file generated from AC3D
 facet normal 0.130582 -0.991438 -0.000000
  outer loop
   vertex 0.000300 -0.062330 -0.051289
   vertex 0.015538 -0.060323 -0.045145
   vertex 0.000300 -0.062330 -0.045145
  endloop
 endfacet
 facet normal 0.130582 -0.991438 0.000000
  outer loop
   vertex 0.000300 -0.062330 -0.051289
   vertex 0.015538 -0.060323 -0.051289
   vertex 0.015538 -0.060323 -0.045145
  endloop
 endfacet
 facet normal 0.382612 -0.923909 0.000000
  outer loop
   vertex 0.015538 -0.060323 -0.051289
   vertex 0.029740 -0.054442 -0.045145
   vertex 0.015538 -0.060323 -0.045145
  endloop
 endfacet
 facet normal 0.382612 -0.923909 0.000000
  outer loop
   vertex 0.015538 -0.060323 -0.051289
   vertex 0.029740 -0.054442 -0.051289
   vertex 0.029740 -0.054442 -0.045145
  endloop
 endfacet
 facet normal 0.608773 -0.793344 0.000000
  outer loop
   vertex 0.029740 -0.054442 -0.051289
   vertex 0.041934 -0.045085 -0.045145
   vertex 0.029740 -0.054442 -0.045145
  endloop
 endfacet
 facet normal 0.608773 -0.793344 0.000000
  outer loop
   vertex 0.029740 -0.054442 -0.051289
   vertex 0.041934 -0.045085 -0.051289
   vertex 0.041934 -0.045085 -0.045145
  endloop
 endfacet
 facet normal 0.793344 -0.608773 0.000000
  outer loop
   vertex 0.041934 -0.045085 -0.051289
   vertex 0.051291 -0.032891 -0.045145
   vertex 0.041934 -0.045085 -0.045145
  endloop
 endfacet
 facet normal 0.793344 -0.608773 0.000000
  outer loop
   vertex 0.041934 -0.045085 -0.051289
   vertex 0.051291 -0.032891 -0.051289
   vertex 0.051291 -0.032891 -0.045145
  endloop
 endfacet
 facet normal 0.923875 -0.382694 0.000000
  outer loop
   vertex 0.051291 -0.032891 -0.051289
   vertex 0.057174 -0.018690 -0.045145
   vertex 0.051291 -0.032891 -0.045145
  endloop
 endfacet
 facet normal 0.923875 -0.382694 0.000000
  outer loop
   vertex 0.051291 -0.032891 -0.051289
   vertex 0.057174 -0.018690 -0.051289
   vertex 0.057174 -0.018690 -0.045145
  endloop
 endfacet
 facet normal 0.991450 -0.130487 0.000000
  outer loop
   vertex 0.057174 -0.018690 -0.051289
   vertex 0.059179 -0.003451 -0.045145
   vertex 0.057174 -0.018690 -0.045145
  endloop
 endfacet
 facet normal 0.991450 -0.130487 0.000000
  outer loop
   vertex 0.057174 -0.018690 -0.051289
   vertex 0.059179 -0.003451 -0.051289
   vertex 0.059179 -0.003451 -0.045145
  endloop
 endfacet
 facet normal 0.991452 0.130475 0.000000
  outer loop
   vertex 0.059179 -0.003451 -0.051289
   vertex 0.057174 0.011788 -0.045145
   vertex 0.059179 -0.003451 -0.045145
  endloop
 endfacet
 facet normal 0.991452 0.130475 0.000000
  outer loop
   vertex 0.059179 -0.003451 -0.051289
   vertex 0.057174 0.011788 -0.051289
   vertex 0.057174 0.011788 -0.045145
  endloop
 endfacet
 facet normal 0.923875 0.382694 0.000000
  outer loop
   vertex 0.057174 0.011788 -0.051289
   vertex 0.051291 0.025989 -0.045145
   vertex 0.057174 0.011788 -0.045145
  endloop
 endfacet
 facet normal 0.923875 0.382694 0.000000
  outer loop
   vertex 0.057174 0.011788 -0.051289
   vertex 0.051291 0.025989 -0.051289
   vertex 0.051291 0.025989 -0.045145
  endloop
 endfacet
 facet normal 0.793344 0.608773 0.000000
  outer loop
   vertex 0.051291 0.025989 -0.051289
   vertex 0.041934 0.038184 -0.045145
   vertex 0.051291 0.025989 -0.045145
  endloop
 endfacet
 facet normal 0.793344 0.608773 0.000000
  outer loop
   vertex 0.051291 0.025989 -0.051289
   vertex 0.041934 0.038184 -0.051289
   vertex 0.041934 0.038184 -0.045145
  endloop
 endfacet
 facet normal 0.608773 0.793344 0.000000
  outer loop
   vertex 0.041934 0.038184 -0.051289
   vertex 0.029740 0.047541 -0.045145
   vertex 0.041934 0.038184 -0.045145
  endloop
 endfacet
 facet normal 0.382611 0.923909 0.000000
  outer loop
   vertex 0.029740 0.047541 -0.051289
   vertex 0.015538 0.053422 -0.045145
   vertex 0.029740 0.047541 -0.045145
  endloop
 endfacet
 facet normal 0.382611 0.923909 0.000000
  outer loop
   vertex 0.029740 0.047541 -0.051289
   vertex 0.015538 0.053422 -0.051289
   vertex 0.015538 0.053422 -0.045145
  endloop
 endfacet
 facet normal 0.130583 0.991437 0.000000
  outer loop
   vertex 0.015538 0.053422 -0.051289
   vertex 0.000300 0.055429 -0.045145
   vertex 0.015538 0.053422 -0.045145
  endloop
 endfacet
 facet normal 0.130583 0.991437 -0.000000
  outer loop
   vertex 0.015538 0.053422 -0.051289
   vertex 0.000300 0.055429 -0.051289
   vertex 0.000300 0.055429 -0.045145
  endloop
 endfacet
 facet normal -0.130570 0.991439 0.000000
  outer loop
   vertex 0.000300 0.055429 -0.051289
   vertex -0.014939 0.053422 -0.045145
   vertex 0.000300 0.055429 -0.045145
  endloop
 endfacet
 facet normal -0.130570 0.991439 0.000000
  outer loop
   vertex 0.000300 0.055429 -0.051289
   vertex -0.014939 0.053422 -0.051289
   vertex -0.014939 0.053422 -0.045145
  endloop
 endfacet
 facet normal -0.382646 0.923895 0.000000
  outer loop
   vertex -0.014939 0.053422 -0.051289
   vertex -0.029139 0.047541 -0.045145
   vertex -0.014939 0.053422 -0.045145
  endloop
 endfacet
 facet normal -0.382646 0.923895 0.000000
  outer loop
   vertex -0.014939 0.053422 -0.051289
   vertex -0.029139 0.047541 -0.051289
   vertex -0.029139 0.047541 -0.045145
  endloop
 endfacet
 facet normal -0.608773 0.793344 0.000000
  outer loop
   vertex -0.029139 0.047541 -0.051289
   vertex -0.041333 0.038184 -0.045145
   vertex -0.029139 0.047541 -0.045145
  endloop
 endfacet
 facet normal -0.608773 0.793344 0.000000
  outer loop
   vertex -0.029139 0.047541 -0.051289
   vertex -0.041333 0.038184 -0.051289
   vertex -0.041333 0.038184 -0.045145
  endloop
 endfacet
 facet normal -0.793344 0.608774 0.000000
  outer loop
   vertex -0.041333 0.038184 -0.051289
   vertex -0.050691 0.025989 -0.045145
   vertex -0.041333 0.038184 -0.045145
  endloop
 endfacet
 facet normal -0.793344 0.608774 0.000000
  outer loop
   vertex -0.041333 0.038184 -0.051289
   vertex -0.050691 0.025989 -0.051289
   vertex -0.050691 0.025989 -0.045145
  endloop
 endfacet
 facet normal -0.923875 0.382695 0.000000
  outer loop
   vertex -0.050691 0.025989 -0.051289
   vertex -0.056573 0.011788 -0.045145
   vertex -0.050691 0.025989 -0.045145
  endloop
 endfacet
 facet normal -0.923875 0.382695 0.000000
  outer loop
   vertex -0.050691 0.025989 -0.051289
   vertex -0.056573 0.011788 -0.051289
   vertex -0.056573 0.011788 -0.045145
  endloop
 endfacet
 facet normal -0.991439 0.130570 0.000000
  outer loop
   vertex -0.056573 0.011788 -0.051289
   vertex -0.058580 -0.003451 -0.045145
   vertex -0.056573 0.011788 -0.045145
  endloop
 endfacet
 facet normal -0.991439 0.130570 0.000000
  outer loop
   vertex -0.056573 0.011788 -0.051289
   vertex -0.058580 -0.003451 -0.051289
   vertex -0.058580 -0.003451 -0.045145
  endloop
 endfacet
 facet normal -0.991437 -0.130582 0.000000
  outer loop
   vertex -0.058580 -0.003451 -0.051289
   vertex -0.056573 -0.018690 -0.045145
   vertex -0.058580 -0.003451 -0.045145
  endloop
 endfacet
 facet normal -0.991437 -0.130582 0.000000
  outer loop
   vertex -0.058580 -0.003451 -0.051289
   vertex -0.056573 -0.018690 -0.051289
   vertex -0.056573 -0.018690 -0.045145
  endloop
 endfacet
 facet normal -0.923875 -0.382694 0.000000
  outer loop
   vertex -0.056573 -0.018690 -0.051289
   vertex -0.050691 -0.032891 -0.045145
   vertex -0.056573 -0.018690 -0.045145
  endloop
 endfacet
 facet normal -0.923875 -0.382694 0.000000
  outer loop
   vertex -0.056573 -0.018690 -0.051289
   vertex -0.050691 -0.032891 -0.051289
   vertex -0.050691 -0.032891 -0.045145
  endloop
 endfacet
 facet normal -0.793344 -0.608773 0.000000
  outer loop
   vertex -0.050691 -0.032891 -0.051289
   vertex -0.041333 -0.045085 -0.045145
   vertex -0.050691 -0.032891 -0.045145
  endloop
 endfacet
 facet normal -0.793344 -0.608773 0.000000
  outer loop
   vertex -0.050691 -0.032891 -0.051289
   vertex -0.041333 -0.045085 -0.051289
   vertex -0.041333 -0.045085 -0.045145
  endloop
 endfacet
 facet normal -0.608773 -0.793344 0.000000
  outer loop
   vertex -0.041333 -0.045085 -0.051289
   vertex -0.029139 -0.054442 -0.045145
   vertex -0.041333 -0.045085 -0.045145
  endloop
 endfacet
 facet normal -0.608773 -0.793344 0.000000
  outer loop
   vertex -0.041333 -0.045085 -0.051289
   vertex -0.029139 -0.054442 -0.051289
   vertex -0.029139 -0.054442 -0.045145
  endloop
 endfacet
 facet normal -0.382647 -0.923895 0.000000
  outer loop
   vertex -0.029139 -0.054442 -0.051289
   vertex -0.014940 -0.060323 -0.045145
   vertex -0.029139 -0.054442 -0.045145
  endloop
 endfacet
 facet normal -0.382647 -0.923895 0.000000
  outer loop
   vertex -0.029139 -0.054442 -0.051289
   vertex -0.014940 -0.060323 -0.051289
   vertex -0.014940 -0.060323 -0.045145
  endloop
 endfacet
 facet normal -0.130569 -0.991439 0.000000
  outer loop
   vertex -0.014940 -0.060323 -0.051289
   vertex 0.000300 -0.062330 -0.045145
   vertex -0.014940 -0.060323 -0.045145
  endloop
 endfacet
 facet normal -0.130569 -0.991439 0.000000
  outer loop
   vertex -0.014940 -0.060323 -0.051289
   vertex 0.000300 -0.062330 -0.051289
   vertex 0.000300 -0.062330 -0.045145
  endloop
 endfacet
 facet normal -0.923860 0.000000 -0.382731
  outer loop
   vertex -0.036527 -0.060437 -0.024153
   vertex -0.040721 -0.054293 -0.014028
   vertex -0.036527 -0.054293 -0.024153
  endloop
 endfacet
 facet normal 0.909759 -0.363317 0.200848
  outer loop
   vertex 0.067967 -0.016559 0.016088
   vertex 0.060028 -0.031806 0.024466
   vertex 0.067988 -0.024921 0.000867
  endloop
 endfacet
 facet normal 0.000000 0.000000 -1.000000
  outer loop
   vertex 0.029740 -0.054442 -0.051289
   vertex 0.015538 -0.060323 -0.051289
   vertex 0.041934 -0.045085 -0.051289
  endloop
 endfacet
 facet normal 0.000000 0.000000 -1.000000
  outer loop
   vertex -0.014940 -0.060323 -0.051289
   vertex 0.015538 -0.060323 -0.051289
   vertex 0.000300 -0.062330 -0.051289
  endloop
 endfacet
 facet normal -0.923859 0.000000 0.382732
  outer loop
   vertex -0.040721 -0.060437 0.007705
   vertex -0.036527 -0.054293 0.017830
   vertex -0.040721 -0.054293 0.007705
  endloop
 endfacet
 facet normal -0.962199 -0.036312 0.269914
  outer loop
   vertex -0.070914 -0.001893 0.008778
   vertex -0.064418 -0.009620 0.030897
   vertex -0.068959 0.006202 0.016836
  endloop
 endfacet
 facet normal 0.000000 0.000000 1.000000
  outer loop
   vertex 0.029740 -0.054442 -0.045145
   vertex 0.041934 -0.045085 -0.045145
   vertex 0.015538 -0.060323 -0.045145
  endloop
 endfacet
 facet normal 0.000000 0.000000 1.000000
  outer loop
   vertex -0.029139 -0.054442 -0.045145
   vertex -0.014940 -0.060323 -0.045145
   vertex 0.015538 -0.060323 -0.045145
  endloop
 endfacet
 facet normal 0.000000 0.000000 1.000000
  outer loop
   vertex -0.014940 -0.060323 -0.045145
   vertex 0.000300 -0.062330 -0.045145
   vertex 0.015538 -0.060323 -0.045145
  endloop
 endfacet
 facet normal 0.000000 -1.000000 0.000000
  outer loop
   vertex -0.040721 -0.060437 -0.014028
   vertex -0.036527 -0.060437 0.017830
   vertex -0.042151 -0.060437 -0.003162
  endloop
 endfacet
 facet normal -0.875891 -0.108333 -0.470189
  outer loop
   vertex -0.059608 -0.001637 -0.049957
   vertex -0.057805 -0.016213 -0.049957
   vertex -0.064913 -0.009696 -0.038218
  endloop
 endfacet
 facet normal 0.608817 0.000000 -0.793311
  outer loop
   vertex 0.029519 -0.060437 -0.032848
   vertex 0.020825 -0.060437 -0.039521
   vertex 0.020825 -0.054293 -0.039521
  endloop
 endfacet
 facet normal 0.471913 -0.772378 -0.425124
  outer loop
   vertex 0.023473 -0.056545 -0.049957
   vertex 0.038200 -0.047547 -0.049957
   vertex 0.042962 -0.051783 -0.036974
  endloop
 endfacet
 facet normal -0.861734 0.457563 -0.219206
  outer loop
   vertex -0.058595 0.027022 -0.038416
   vertex -0.064753 0.019663 -0.029569
   vertex -0.067718 0.020909 -0.015313
  endloop
 endfacet
 facet normal 0.490436 -0.736322 -0.466157
  outer loop
   vertex 0.023473 -0.056545 -0.049957
   vertex 0.042962 -0.051783 -0.036974
   vertex 0.029877 -0.059478 -0.038585
  endloop
 endfacet
 facet normal -0.476322 0.763154 -0.436707
  outer loop
   vertex -0.020983 0.054100 -0.049957
   vertex -0.035600 0.056448 -0.029910
   vertex -0.023120 0.059111 -0.038869
  endloop
 endfacet
 facet normal -0.095408 -0.745845 0.659252
  outer loop
   vertex 0.000037 -0.059863 0.042713
   vertex 0.006984 -0.058738 0.044991
   vertex -0.015121 -0.059599 0.040817
  endloop
 endfacet
 facet normal 0.582481 -0.303864 0.753911
  outer loop
   vertex 0.029261 -0.016601 0.068773
   vertex 0.029512 -0.030960 0.062792
   vertex 0.048876 -0.015881 0.053908
  endloop
 endfacet
 facet normal 0.594837 0.753986 -0.278700
  outer loop
   vertex 0.035151 0.054119 -0.036974
   vertex 0.037483 0.057332 -0.023306
   vertex 0.049157 0.048292 -0.022846
  endloop
 endfacet
 facet normal 0.116638 0.968891 0.218281
  outer loop
   vertex 0.000037 0.070268 0.000739
   vertex 0.013539 0.062126 0.029662
   vertex 0.015316 0.068401 0.000861
  endloop
 endfacet
 facet normal 0.684100 0.685125 -0.250222
  outer loop
   vertex 0.034624 0.046867 -0.049957
   vertex 0.058938 0.027037 -0.037780
   vertex 0.048561 0.032951 -0.049957
  endloop
 endfacet
 facet normal 0.833341 0.386549 0.395124
  outer loop
   vertex 0.054377 0.037492 0.025072
   vertex 0.049548 0.034097 0.038579
   vertex 0.058765 0.013064 0.039716
  endloop
 endfacet
 facet normal 0.888106 -0.302902 -0.345714
  outer loop
   vertex 0.065421 -0.009130 -0.037281
   vertex 0.068222 -0.016620 -0.023522
   vertex 0.055789 -0.022902 -0.049957
  endloop
 endfacet
 facet normal 0.691155 0.600538 -0.402069
  outer loop
   vertex 0.034624 0.046867 -0.049957
   vertex 0.049157 0.048292 -0.022846
   vertex 0.058938 0.027037 -0.037780
  endloop
 endfacet
 facet normal -0.650967 0.296459 0.698824
  outer loop
   vertex -0.042335 0.026411 0.053908
   vertex -0.049028 0.012192 0.053706
   vertex -0.036507 0.019693 0.062187
  endloop
 endfacet
 facet normal -0.646992 -0.723337 -0.241216
  outer loop
   vertex -0.042126 -0.051909 -0.037838
   vertex -0.036987 -0.058918 -0.030604
   vertex -0.042951 -0.058814 -0.014919
  endloop
 endfacet
 facet normal 0.446180 0.846959 0.289109
  outer loop
   vertex 0.027713 0.062505 0.015010
   vertex 0.034968 0.053903 0.029013
   vertex 0.037421 0.057208 0.015547
  endloop
 endfacet
 facet normal 0.959630 0.270264 -0.077894
  outer loop
   vertex 0.065602 0.027730 -0.007553
   vertex 0.070105 0.014166 0.000860
   vertex 0.068450 0.013003 -0.023572
  endloop
 endfacet
 facet normal -0.912081 0.003154 -0.409997
  outer loop
   vertex -0.059608 -0.001637 -0.049957
   vertex -0.064913 -0.009696 -0.038218
   vertex -0.064878 0.005058 -0.038181
  endloop
 endfacet
 facet normal -0.963509 0.002914 -0.267660
  outer loop
   vertex -0.064878 0.005058 -0.038181
   vertex -0.064913 -0.009696 -0.038218
   vertex -0.071178 -0.001883 -0.015579
  endloop
 endfacet
 facet normal 0.727310 -0.686251 0.008925
  outer loop
   vertex 0.043033 -0.058814 -0.014833
   vertex 0.061039 -0.039527 0.000864
   vertex 0.042755 -0.058815 0.007759
  endloop
 endfacet
 facet normal 0.950238 -0.281776 0.132855
  outer loop
   vertex 0.061039 -0.039527 0.000864
   vertex 0.060028 -0.031806 0.024466
   vertex 0.059154 -0.038995 0.015474
  endloop
 endfacet
 facet normal -0.964000 0.141144 -0.225350
  outer loop
   vertex -0.064878 0.005058 -0.038181
   vertex -0.071178 -0.001883 -0.015579
   vertex -0.064753 0.019663 -0.029569
  endloop
 endfacet
 facet normal -0.875620 -0.364264 0.317178
  outer loop
   vertex -0.069475 -0.017000 0.008460
   vertex -0.060036 -0.039952 0.008159
   vertex -0.064418 -0.009620 0.030897
  endloop
 endfacet
 facet normal 0.679138 0.095238 0.727806
  outer loop
   vertex 0.048901 0.012359 0.053908
   vertex 0.038435 0.005918 0.064517
   vertex 0.050881 -0.001762 0.053908
  endloop
 endfacet
 facet normal -0.991447 0.000000 -0.130507
  outer loop
   vertex -0.040721 -0.060437 -0.014028
   vertex -0.042151 -0.060437 -0.003162
   vertex -0.042151 -0.054293 -0.003162
  endloop
 endfacet
 facet normal -0.538023 0.428081 0.726139
  outer loop
   vertex -0.042335 0.026411 0.053908
   vertex -0.036507 0.019693 0.062187
   vertex -0.029457 0.027475 0.062823
  endloop
 endfacet
 facet normal 0.807576 -0.271589 0.523507
  outer loop
   vertex 0.059811 -0.009708 0.040242
   vertex 0.048876 -0.015881 0.053908
   vertex 0.052462 -0.031419 0.040315
  endloop
 endfacet
 facet normal 0.206842 0.244925 0.947221
  outer loop
   vertex 0.000037 0.005566 0.077117
   vertex 0.013739 -0.001753 0.076017
   vertex 0.029267 0.013098 0.068786
  endloop
 endfacet
 facet normal 0.422517 -0.000494 0.906355
  outer loop
   vertex 0.013739 -0.001753 0.076017
   vertex 0.029261 -0.016601 0.068773
   vertex 0.029267 0.013098 0.068786
  endloop
 endfacet
 facet normal -0.134480 -0.990768 -0.017172
  outer loop
   vertex -0.036987 -0.058918 -0.030604
   vertex -0.033985 -0.059873 0.000990
   vertex -0.042645 -0.058817 0.007857
  endloop
 endfacet
 facet normal -0.923860 0.000000 -0.382731
  outer loop
   vertex -0.036527 -0.060437 -0.024153
   vertex -0.040721 -0.060437 -0.014028
   vertex -0.040721 -0.054293 -0.014028
  endloop
 endfacet
 facet normal 0.991447 0.000000 -0.130507
  outer loop
   vertex 0.041816 -0.060437 -0.003162
   vertex 0.040386 -0.060437 -0.014028
   vertex 0.040386 -0.054293 -0.014028
  endloop
 endfacet
 facet normal -0.587156 -0.082346 0.805274
  outer loop
   vertex -0.050820 -0.001710 0.053908
   vertex -0.048865 -0.015649 0.053908
   vertex -0.036489 -0.023185 0.062162
  endloop
 endfacet
 facet normal -0.924442 -0.381227 0.008478
  outer loop
   vertex -0.069733 -0.016960 -0.015313
   vertex -0.060209 -0.040055 -0.015311
   vertex -0.060036 -0.039952 0.008159
  endloop
 endfacet
 facet normal -0.963601 -0.097041 0.249111
  outer loop
   vertex -0.070914 -0.001893 0.008778
   vertex -0.069475 -0.017000 0.008460
   vertex -0.064418 -0.009620 0.030897
  endloop
 endfacet
 facet normal 0.576150 0.339572 0.743466
  outer loop
   vertex 0.036016 0.034222 0.053908
   vertex 0.029267 0.013098 0.068786
   vertex 0.048901 0.012359 0.053908
  endloop
 endfacet
 facet normal -0.751538 -0.591564 -0.291963
  outer loop
   vertex -0.058047 -0.031398 -0.038416
   vertex -0.042126 -0.051909 -0.037838
   vertex -0.060209 -0.040055 -0.015311
  endloop
 endfacet
 facet normal -0.805663 -0.519844 0.284024
  outer loop
   vertex -0.060036 -0.039952 0.008159
   vertex -0.049737 -0.043573 0.030746
   vertex -0.057688 -0.031168 0.030897
  endloop
 endfacet
 facet normal 0.056142 -0.952556 0.299141
  outer loop
   vertex 0.000037 -0.059863 0.042713
   vertex 0.015586 -0.059599 0.040634
   vertex 0.006984 -0.058738 0.044991
  endloop
 endfacet
 facet normal 0.729670 -0.588132 0.348829
  outer loop
   vertex 0.059154 -0.038995 0.015474
   vertex 0.045784 -0.040441 0.041004
   vertex 0.049957 -0.050705 0.014967
  endloop
 endfacet
 facet normal -0.872202 0.119375 0.474356
  outer loop
   vertex -0.064418 -0.009620 0.030897
   vertex -0.050820 -0.001710 0.053908
   vertex -0.049028 0.012192 0.053706
  endloop
 endfacet
 facet normal 0.562621 -0.562685 0.605676
  outer loop
   vertex 0.028311 -0.042616 0.055214
   vertex 0.045784 -0.040441 0.041004
   vertex 0.042223 -0.030111 0.053908
  endloop
 endfacet
 facet normal -0.594349 0.088286 0.799347
  outer loop
   vertex -0.049028 0.012192 0.053706
   vertex -0.050820 -0.001710 0.053908
   vertex -0.036507 0.019693 0.062187
  endloop
 endfacet
 facet normal -0.768006 -0.354390 0.533456
  outer loop
   vertex -0.057688 -0.031168 0.030897
   vertex -0.042294 -0.029889 0.053908
   vertex -0.048865 -0.015649 0.053908
  endloop
 endfacet
 facet normal 0.366052 0.890063 -0.271650
  outer loop
   vertex 0.035151 0.054119 -0.036974
   vertex 0.014756 0.066598 -0.023570
   vertex 0.037483 0.057332 -0.023306
  endloop
 endfacet
 facet normal -0.882419 -0.275694 -0.381220
  outer loop
   vertex -0.057805 -0.016213 -0.049957
   vertex -0.058047 -0.031398 -0.038416
   vertex -0.064913 -0.009696 -0.038218
  endloop
 endfacet
 facet normal -0.017218 -0.999852 0.000101
  outer loop
   vertex -0.042951 -0.058814 -0.014919
   vertex -0.036987 -0.058918 -0.030604
   vertex -0.042645 -0.058817 0.007857
  endloop
 endfacet
 facet normal -0.352230 0.909611 -0.220323
  outer loop
   vertex -0.023120 0.059111 -0.038869
   vertex -0.035600 0.056448 -0.029910
   vertex -0.015179 0.067891 -0.015313
  endloop
 endfacet
 facet normal -0.925549 0.187690 0.328835
  outer loop
   vertex -0.067604 0.020754 0.007978
   vertex -0.056588 0.014513 0.042544
   vertex -0.058225 0.026845 0.030897
  endloop
 endfacet
 facet normal -0.867016 -0.292687 -0.403258
  outer loop
   vertex -0.057805 -0.016213 -0.049957
   vertex -0.054725 -0.025337 -0.049957
   vertex -0.058047 -0.031398 -0.038416
  endloop
 endfacet
 facet normal -0.315320 0.553549 0.770816
  outer loop
   vertex -0.028008 0.040714 0.053908
   vertex -0.029457 0.027475 0.062823
   vertex -0.014412 0.027748 0.068782
  endloop
 endfacet
 facet normal 0.802567 0.562352 0.199113
  outer loop
   vertex 0.057801 0.040875 0.000878
   vertex 0.049135 0.048238 0.015010
   vertex 0.062080 0.029191 0.016626
  endloop
 endfacet
 facet normal -0.879545 0.247257 -0.406528
  outer loop
   vertex -0.058595 0.027022 -0.038416
   vertex -0.064878 0.005058 -0.038181
   vertex -0.064753 0.019663 -0.029569
  endloop
 endfacet
 facet normal 0.603420 -0.096239 0.791594
  outer loop
   vertex 0.029261 -0.016601 0.068773
   vertex 0.048876 -0.015881 0.053908
   vertex 0.038435 0.005918 0.064517
  endloop
 endfacet
 facet normal 0.233431 -0.227037 0.945497
  outer loop
   vertex 0.000037 -0.017876 0.075528
   vertex 0.014481 -0.031240 0.068753
   vertex 0.013739 -0.001753 0.076017
  endloop
 endfacet
 facet normal -0.724092 -0.464115 0.510184
  outer loop
   vertex -0.057688 -0.031168 0.030897
   vertex -0.041341 -0.042886 0.043438
   vertex -0.042294 -0.029889 0.053908
  endloop
 endfacet
 facet normal 0.082297 -0.529935 0.844036
  outer loop
   vertex 0.000037 -0.045028 0.061504
   vertex 0.015342 -0.039521 0.063470
   vertex 0.014481 -0.031240 0.068753
  endloop
 endfacet
 facet normal 0.000000 1.000000 0.000000
  outer loop
   vertex -0.029854 -0.054293 0.026525
   vertex -0.021159 -0.054293 0.033197
   vertex -0.036527 -0.054293 0.017830
  endloop
 endfacet
 facet normal 0.923860 0.000000 0.382731
  outer loop
   vertex 0.036191 -0.060437 0.017830
   vertex 0.040386 -0.054293 0.007705
   vertex 0.036191 -0.054293 0.017830
  endloop
 endfacet
 facet normal 0.612304 0.786763 -0.078024
  outer loop
   vertex 0.037483 0.057332 -0.023306
   vertex 0.038411 0.059006 0.000866
   vertex 0.049157 0.048292 -0.022846
  endloop
 endfacet
 facet normal 0.931984 -0.109170 0.345669
  outer loop
   vertex 0.069566 -0.001500 0.016533
   vertex 0.059811 -0.009708 0.040242
   vertex 0.067967 -0.016559 0.016088
  endloop
 endfacet
 facet normal 0.153026 0.875431 0.458479
  outer loop
   vertex 0.027713 0.062505 0.015010
   vertex 0.032484 0.047152 0.042733
   vertex 0.034968 0.053903 0.029013
  endloop
 endfacet
 facet normal -0.882697 0.109130 -0.457095
  outer loop
   vertex -0.057840 0.012669 -0.049957
   vertex -0.059608 -0.001637 -0.049957
   vertex -0.064878 0.005058 -0.038181
  endloop
 endfacet
 facet normal -0.000000 -0.030298 0.999541
  outer loop
   vertex -0.013664 -0.001753 0.076017
   vertex 0.000037 -0.017876 0.075528
   vertex 0.013739 -0.001753 0.076017
  endloop
 endfacet
 facet normal -0.714696 -0.662179 -0.225230
  outer loop
   vertex -0.042126 -0.051909 -0.037838
   vertex -0.042951 -0.058814 -0.014919
   vertex -0.060209 -0.040055 -0.015311
  endloop
 endfacet
 facet normal -0.286280 0.167985 0.943305
  outer loop
   vertex -0.014412 0.027748 0.068782
   vertex 0.000037 0.005566 0.077117
   vertex 0.000037 0.014376 0.075548
  endloop
 endfacet
 facet normal 0.353670 0.932069 0.078524
  outer loop
   vertex 0.015316 0.068401 0.000861
   vertex 0.027713 0.062505 0.015010
   vertex 0.028607 0.064066 -0.007551
  endloop
 endfacet
 facet normal -0.382732 0.000000 0.923859
  outer loop
   vertex -0.021159 -0.060437 0.033197
   vertex -0.011034 -0.060437 0.037392
   vertex -0.011034 -0.054293 0.037392
  endloop
 endfacet
 facet normal -0.272602 -0.607218 0.746307
  outer loop
   vertex -0.027981 -0.044155 0.053905
   vertex -0.013820 -0.050835 0.053643
   vertex -0.022975 -0.032864 0.064921
  endloop
 endfacet
 facet normal 0.089898 0.640206 0.762925
  outer loop
   vertex 0.000037 0.033542 0.067417
   vertex 0.015367 0.036093 0.063470
   vertex 0.007123 0.048645 0.053908
  endloop
 endfacet
 facet normal 0.608138 -0.755820 0.242701
  outer loop
   vertex 0.042755 -0.058815 0.007759
   vertex 0.049957 -0.050705 0.014967
   vertex 0.036445 -0.058863 0.023422
  endloop
 endfacet
 facet normal 0.224341 -0.227764 0.947520
  outer loop
   vertex 0.013739 -0.001753 0.076017
   vertex 0.014481 -0.031240 0.068753
   vertex 0.029261 -0.016601 0.068773
  endloop
 endfacet
 facet normal -0.724123 -0.470255 0.504487
  outer loop
   vertex -0.049737 -0.043573 0.030746
   vertex -0.041341 -0.042886 0.043438
   vertex -0.057688 -0.031168 0.030897
  endloop
 endfacet
 facet normal -0.589928 -0.744348 0.312939
  outer loop
   vertex -0.042645 -0.058817 0.007857
   vertex -0.029680 -0.058996 0.031871
   vertex -0.049737 -0.043573 0.030746
  endloop
 endfacet
 facet normal -0.935127 -0.294046 -0.197670
  outer loop
   vertex -0.064913 -0.009696 -0.038218
   vertex -0.058047 -0.031398 -0.038416
   vertex -0.060209 -0.040055 -0.015311
  endloop
 endfacet
 facet normal -0.880723 0.473605 0.005023
  outer loop
   vertex -0.056606 0.041573 -0.015313
   vertex -0.067718 0.020909 -0.015313
   vertex -0.056505 0.041517 0.007793
  endloop
 endfacet
 facet normal 0.638506 -0.675561 0.368684
  outer loop
   vertex 0.049957 -0.050705 0.014967
   vertex 0.045784 -0.040441 0.041004
   vertex 0.036445 -0.058863 0.023422
  endloop
 endfacet
 facet normal 0.626004 0.673474 0.393130
  outer loop
   vertex 0.049135 0.048238 0.015010
   vertex 0.049548 0.034097 0.038579
   vertex 0.054377 0.037492 0.025072
  endloop
 endfacet
 facet normal -0.038243 -0.999094 -0.018690
  outer loop
   vertex -0.014801 -0.059405 -0.049957
   vertex -0.009209 -0.059873 -0.036389
   vertex -0.036987 -0.058918 -0.030604
  endloop
 endfacet
 facet normal 0.113725 0.990623 -0.075710
  outer loop
   vertex 0.000037 0.068280 -0.023670
   vertex 0.015316 0.068401 0.000861
   vertex 0.014756 0.066598 -0.023570
  endloop
 endfacet
 facet normal -0.127133 0.923017 -0.363148
  outer loop
   vertex -0.023120 0.059111 -0.038869
   vertex 0.000037 0.068280 -0.023670
   vertex 0.000036 0.057938 -0.049957
  endloop
 endfacet
 facet normal -0.433984 -0.763460 -0.478316
  outer loop
   vertex -0.042177 -0.043844 -0.049957
   vertex -0.014801 -0.059405 -0.049957
   vertex -0.036987 -0.058918 -0.030604
  endloop
 endfacet
 facet normal 0.806079 0.563254 0.181608
  outer loop
   vertex 0.049135 0.048238 0.015010
   vertex 0.054377 0.037492 0.025072
   vertex 0.062080 0.029191 0.016626
  endloop
 endfacet
 facet normal -0.209690 0.928935 0.305138
  outer loop
   vertex -0.022741 0.065658 0.007958
   vertex 0.000037 0.063242 0.030964
   vertex 0.000037 0.067917 0.016734
  endloop
 endfacet
 facet normal -0.988634 0.149953 0.010769
  outer loop
   vertex -0.071178 -0.001883 -0.015579
   vertex -0.070914 -0.001893 0.008778
   vertex -0.067718 0.020909 -0.015313
  endloop
 endfacet
 facet normal 0.330591 -0.482942 0.810849
  outer loop
   vertex 0.014481 -0.031240 0.068753
   vertex 0.015342 -0.039521 0.063470
   vertex 0.029512 -0.030960 0.062792
  endloop
 endfacet
 facet normal -0.494457 -0.484676 0.721527
  outer loop
   vertex -0.036489 -0.023185 0.062162
   vertex -0.027981 -0.044155 0.053905
   vertex -0.022975 -0.032864 0.064921
  endloop
 endfacet
 facet normal 0.489908 0.391939 0.778700
  outer loop
   vertex 0.036016 0.034222 0.053908
   vertex 0.020484 0.026433 0.067600
   vertex 0.029267 0.013098 0.068786
  endloop
 endfacet
 facet normal -0.363123 0.908999 -0.204603
  outer loop
   vertex -0.035600 0.056448 -0.029910
   vertex -0.037376 0.059024 -0.015313
   vertex -0.015179 0.067891 -0.015313
  endloop
 endfacet
 facet normal -0.881853 0.471464 0.007481
  outer loop
   vertex -0.067718 0.020909 -0.015313
   vertex -0.067604 0.020754 0.007978
   vertex -0.056505 0.041517 0.007793
  endloop
 endfacet
 facet normal -0.032529 -0.775685 0.630281
  outer loop
   vertex 0.000037 -0.045028 0.061504
   vertex -0.013820 -0.050835 0.053643
   vertex 0.006984 -0.058738 0.044991
  endloop
 endfacet
 facet normal -0.056386 0.834399 0.548269
  outer loop
   vertex 0.000037 0.063242 0.030964
   vertex -0.013826 0.047352 0.053722
   vertex 0.007123 0.048645 0.053908
  endloop
 endfacet
 facet normal -0.182620 0.939825 -0.288754
  outer loop
   vertex -0.023120 0.059111 -0.038869
   vertex -0.015179 0.067891 -0.015313
   vertex 0.000037 0.068280 -0.023670
  endloop
 endfacet
 facet normal -0.161993 0.887128 -0.432161
  outer loop
   vertex -0.020983 0.054100 -0.049957
   vertex -0.023120 0.059111 -0.038869
   vertex 0.000036 0.057938 -0.049957
  endloop
 endfacet
 facet normal 0.402544 0.531805 0.745078
  outer loop
   vertex 0.015367 0.036093 0.063470
   vertex 0.020484 0.026433 0.067600
   vertex 0.021993 0.042983 0.054972
  endloop
 endfacet
 facet normal 0.909652 0.390239 0.142292
  outer loop
   vertex 0.065602 0.027730 -0.007553
   vertex 0.068150 0.013186 0.016046
   vertex 0.070105 0.014166 0.000860
  endloop
 endfacet
 facet normal 0.608817 0.000000 0.793311
  outer loop
   vertex 0.020825 -0.060437 0.033197
   vertex 0.029519 -0.054293 0.026525
   vertex 0.020825 -0.054293 0.033197
  endloop
 endfacet
 facet normal 0.509873 0.856621 -0.078931
  outer loop
   vertex 0.037483 0.057332 -0.023306
   vertex 0.028607 0.064066 -0.007551
   vertex 0.038411 0.059006 0.000866
  endloop
 endfacet
 facet normal -0.924759 -0.380437 0.009383
  outer loop
   vertex -0.069733 -0.016960 -0.015313
   vertex -0.060036 -0.039952 0.008159
   vertex -0.069475 -0.017000 0.008460
  endloop
 endfacet
 facet normal 0.475478 0.801721 0.362165
  outer loop
   vertex 0.027713 0.062505 0.015010
   vertex 0.023356 0.053279 0.041154
   vertex 0.032484 0.047152 0.042733
  endloop
 endfacet
 facet normal -0.965434 0.149059 -0.213819
  outer loop
   vertex -0.064753 0.019663 -0.029569
   vertex -0.071178 -0.001883 -0.015579
   vertex -0.067718 0.020909 -0.015313
  endloop
 endfacet
 facet normal 0.248451 -0.731379 0.635104
  outer loop
   vertex 0.015586 -0.059599 0.040634
   vertex 0.028311 -0.042616 0.055214
   vertex 0.006984 -0.058738 0.044991
  endloop
 endfacet
 facet normal -0.068550 -0.983606 -0.166791
  outer loop
   vertex -0.036987 -0.058918 -0.030604
   vertex -0.009209 -0.059873 -0.036389
   vertex -0.016583 -0.059873 -0.033358
  endloop
 endfacet
 facet normal 0.238343 -0.725024 0.646168
  outer loop
   vertex 0.006984 -0.058738 0.044991
   vertex 0.028311 -0.042616 0.055214
   vertex 0.015342 -0.039521 0.063470
  endloop
 endfacet
 facet normal -0.547171 -0.549074 0.631761
  outer loop
   vertex -0.042294 -0.029889 0.053908
   vertex -0.041341 -0.042886 0.043438
   vertex -0.027981 -0.044155 0.053905
  endloop
 endfacet
 facet normal 0.391313 0.535416 0.748468
  outer loop
   vertex 0.021993 0.042983 0.054972
   vertex 0.020484 0.026433 0.067600
   vertex 0.036016 0.034222 0.053908
  endloop
 endfacet
 facet normal -0.766689 0.353249 0.536100
  outer loop
   vertex -0.058225 0.026845 0.030897
   vertex -0.049028 0.012192 0.053706
   vertex -0.042335 0.026411 0.053908
  endloop
 endfacet
 facet normal 0.126504 0.387410 0.913187
  outer loop
   vertex 0.000037 0.033542 0.067417
   vertex 0.000037 0.014376 0.075548
   vertex 0.020484 0.026433 0.067600
  endloop
 endfacet
 facet normal 0.994710 0.100670 -0.020442
  outer loop
   vertex 0.069907 -0.001449 -0.023832
   vertex 0.068450 0.013003 -0.023572
   vertex 0.071261 -0.009818 0.000857
  endloop
 endfacet
 facet normal 0.924629 0.101305 0.367150
  outer loop
   vertex 0.068150 0.013186 0.016046
   vertex 0.058765 0.013064 0.039716
   vertex 0.069566 -0.001500 0.016533
  endloop
 endfacet
 facet normal -0.857713 0.460528 0.228567
  outer loop
   vertex -0.056505 0.041517 0.007793
   vertex -0.067604 0.020754 0.007978
   vertex -0.058225 0.026845 0.030897
  endloop
 endfacet
 facet normal 0.384746 0.721568 0.575596
  outer loop
   vertex 0.023356 0.053279 0.041154
   vertex 0.021993 0.042983 0.054972
   vertex 0.032484 0.047152 0.042733
  endloop
 endfacet
 facet normal 0.838265 0.383140 0.387962
  outer loop
   vertex 0.062080 0.029191 0.016626
   vertex 0.054377 0.037492 0.025072
   vertex 0.058765 0.013064 0.039716
  endloop
 endfacet
 facet normal 0.382684 0.000000 0.923879
  outer loop
   vertex 0.010699 -0.060437 0.037392
   vertex 0.020825 -0.054293 0.033197
   vertex 0.010699 -0.054293 0.037392
  endloop
 endfacet
 facet normal 0.980451 -0.108936 0.163857
  outer loop
   vertex 0.071261 -0.009818 0.000857
   vertex 0.069566 -0.001500 0.016533
   vertex 0.067967 -0.016559 0.016088
  endloop
 endfacet
 facet normal 0.000000 1.000000 0.000000
  outer loop
   vertex -0.029854 -0.054293 -0.032848
   vertex -0.036527 -0.054293 -0.024153
   vertex -0.036527 -0.054293 0.017830
  endloop
 endfacet
 facet normal -0.188188 0.981577 0.033060
  outer loop
   vertex -0.015179 0.067891 -0.015313
   vertex -0.022741 0.065658 0.007958
   vertex 0.000037 0.070268 0.000739
  endloop
 endfacet
 facet normal -0.546493 -0.674482 0.496406
  outer loop
   vertex -0.049737 -0.043573 0.030746
   vertex -0.029680 -0.058996 0.031871
   vertex -0.027981 -0.044155 0.053905
  endloop
 endfacet
 facet normal -0.048400 0.678410 0.733088
  outer loop
   vertex -0.013826 0.047352 0.053722
   vertex 0.000037 0.033542 0.067417
   vertex 0.007123 0.048645 0.053908
  endloop
 endfacet
 facet normal 0.121523 0.989314 -0.080561
  outer loop
   vertex 0.000037 0.068280 -0.023670
   vertex 0.000037 0.070268 0.000739
   vertex 0.015316 0.068401 0.000861
  endloop
 endfacet
 facet normal 0.066035 -0.922152 0.381150
  outer loop
   vertex -0.016584 -0.059151 -0.033362
   vertex -0.009209 -0.059873 -0.036389
   vertex -0.008139 -0.058337 -0.032857
  endloop
 endfacet
 facet normal 0.373238 0.910330 -0.178864
  outer loop
   vertex 0.014756 0.066598 -0.023570
   vertex 0.028607 0.064066 -0.007551
   vertex 0.037483 0.057332 -0.023306
  endloop
 endfacet
 facet normal -0.694137 0.689686 -0.206173
  outer loop
   vertex -0.035600 0.056448 -0.029910
   vertex -0.052738 0.036542 -0.038801
   vertex -0.037376 0.059024 -0.015313
  endloop
 endfacet
 facet normal -0.794265 -0.248077 0.554617
  outer loop
   vertex -0.064418 -0.009620 0.030897
   vertex -0.057688 -0.031168 0.030897
   vertex -0.050820 -0.001710 0.053908
  endloop
 endfacet
 facet normal 0.517340 -0.503287 0.692143
  outer loop
   vertex 0.029512 -0.030960 0.062792
   vertex 0.028311 -0.042616 0.055214
   vertex 0.042223 -0.030111 0.053908
  endloop
 endfacet
 facet normal 0.926312 0.099959 -0.363255
  outer loop
   vertex 0.068450 0.013003 -0.023572
   vertex 0.069907 -0.001449 -0.023832
   vertex 0.059683 -0.001637 -0.049957
  endloop
 endfacet
 facet normal 0.832933 -0.487585 -0.261693
  outer loop
   vertex 0.055789 -0.022902 -0.049957
   vertex 0.042962 -0.051783 -0.036974
   vertex 0.045824 -0.039925 -0.049957
  endloop
 endfacet
 facet normal -0.735147 -0.677856 0.008383
  outer loop
   vertex -0.060209 -0.040055 -0.015311
   vertex -0.042645 -0.058817 0.007857
   vertex -0.060036 -0.039952 0.008159
  endloop
 endfacet
 facet normal -0.358892 0.895718 0.262461
  outer loop
   vertex -0.037272 0.058886 0.008079
   vertex -0.034923 0.053309 0.030323
   vertex -0.013336 0.061813 0.030816
  endloop
 endfacet
 facet normal -0.776234 -0.526322 -0.347054
  outer loop
   vertex -0.054725 -0.025337 -0.049957
   vertex -0.042177 -0.043844 -0.049957
   vertex -0.042126 -0.051909 -0.037838
  endloop
 endfacet
 facet normal -0.684852 -0.545200 -0.483461
  outer loop
   vertex -0.054725 -0.025337 -0.049957
   vertex -0.042126 -0.051909 -0.037838
   vertex -0.058047 -0.031398 -0.038416
  endloop
 endfacet
 facet normal 0.828210 -0.555874 -0.071227
  outer loop
   vertex 0.059149 -0.039246 -0.023302
   vertex 0.061039 -0.039527 0.000864
   vertex 0.053808 -0.048232 -0.015283
  endloop
 endfacet
 facet normal -0.768584 0.564418 0.301181
  outer loop
   vertex -0.056505 0.041517 0.007793
   vertex -0.058225 0.026845 0.030897
   vertex -0.045152 0.044048 0.032019
  endloop
 endfacet
 facet normal 0.930237 0.348656 0.114442
  outer loop
   vertex 0.065602 0.027730 -0.007553
   vertex 0.062080 0.029191 0.016626
   vertex 0.068150 0.013186 0.016046
  endloop
 endfacet
 facet normal 0.564426 0.712166 0.417425
  outer loop
   vertex 0.037421 0.057208 0.015547
   vertex 0.049548 0.034097 0.038579
   vertex 0.049135 0.048238 0.015010
  endloop
 endfacet
 facet normal -0.196242 -0.590996 0.782441
  outer loop
   vertex -0.022975 -0.032864 0.064921
   vertex -0.013820 -0.050835 0.053643
   vertex 0.000037 -0.045028 0.061504
  endloop
 endfacet
 facet normal -0.392894 0.284468 0.874478
  outer loop
   vertex -0.036507 0.019693 0.062187
   vertex -0.032647 0.006442 0.068232
   vertex -0.029457 0.027475 0.062823
  endloop
 endfacet
 facet normal 0.490273 -0.718871 0.492805
  outer loop
   vertex 0.036445 -0.058863 0.023422
   vertex 0.045784 -0.040441 0.041004
   vertex 0.028311 -0.042616 0.055214
  endloop
 endfacet
 facet normal -0.759918 0.442437 -0.476208
  outer loop
   vertex -0.045787 0.036473 -0.049957
   vertex -0.055758 0.019347 -0.049957
   vertex -0.052738 0.036542 -0.038801
  endloop
 endfacet
 facet normal -0.147730 0.850891 0.504143
  outer loop
   vertex -0.023203 0.052988 0.041461
   vertex -0.013826 0.047352 0.053722
   vertex 0.000037 0.063242 0.030964
  endloop
 endfacet
 facet normal 0.813133 0.114029 0.570800
  outer loop
   vertex 0.058765 0.013064 0.039716
   vertex 0.048901 0.012359 0.053908
   vertex 0.050881 -0.001762 0.053908
  endloop
 endfacet
 facet normal 0.777921 -0.616246 0.122802
  outer loop
   vertex 0.061039 -0.039527 0.000864
   vertex 0.059154 -0.038995 0.015474
   vertex 0.049957 -0.050705 0.014967
  endloop
 endfacet
 facet normal -0.626420 0.737920 0.251140
  outer loop
   vertex -0.045152 0.044048 0.032019
   vertex -0.034923 0.053309 0.030323
   vertex -0.037272 0.058886 0.008079
  endloop
 endfacet
 facet normal -0.502503 0.704684 0.500911
  outer loop
   vertex -0.045152 0.044048 0.032019
   vertex -0.028008 0.040714 0.053908
   vertex -0.023203 0.052988 0.041461
  endloop
 endfacet
 facet normal 0.614487 -0.087283 0.784083
  outer loop
   vertex 0.050881 -0.001762 0.053908
   vertex 0.038435 0.005918 0.064517
   vertex 0.048876 -0.015881 0.053908
  endloop
 endfacet
 facet normal -0.589354 0.590336 0.551513
  outer loop
   vertex -0.045152 0.044048 0.032019
   vertex -0.042335 0.026411 0.053908
   vertex -0.028008 0.040714 0.053908
  endloop
 endfacet
 facet normal 0.862267 0.290274 -0.415014
  outer loop
   vertex 0.054831 0.021826 -0.049957
   vertex 0.058938 0.027037 -0.037780
   vertex 0.057914 0.012669 -0.049957
  endloop
 endfacet
 facet normal 0.338789 0.848004 -0.407566
  outer loop
   vertex 0.014402 0.056169 -0.049957
   vertex 0.013695 0.062691 -0.036974
   vertex 0.035151 0.054119 -0.036974
  endloop
 endfacet
 facet normal -0.481517 -0.483229 0.731185
  outer loop
   vertex -0.042294 -0.029889 0.053908
   vertex -0.027981 -0.044155 0.053905
   vertex -0.036489 -0.023185 0.062162
  endloop
 endfacet
 facet normal 0.474091 0.876882 0.079476
  outer loop
   vertex 0.028607 0.064066 -0.007551
   vertex 0.027713 0.062505 0.015010
   vertex 0.037421 0.057208 0.015547
  endloop
 endfacet
 facet normal -0.648832 -0.299398 0.699556
  outer loop
   vertex -0.048865 -0.015649 0.053908
   vertex -0.042294 -0.029889 0.053908
   vertex -0.036489 -0.023185 0.062162
  endloop
 endfacet
 facet normal -0.645368 0.646985 -0.406092
  outer loop
   vertex -0.045787 0.036473 -0.049957
   vertex -0.052738 0.036542 -0.038801
   vertex -0.038036 0.044205 -0.049957
  endloop
 endfacet
 facet normal 0.071562 0.219540 0.972975
  outer loop
   vertex 0.008214 -0.058337 -0.032857
   vertex 0.017039 -0.059873 -0.033160
   vertex 0.016669 -0.058848 -0.033364
  endloop
 endfacet
 facet normal 0.228804 0.234729 0.944749
  outer loop
   vertex 0.020484 0.026433 0.067600
   vertex 0.000037 0.014376 0.075548
   vertex 0.029267 0.013098 0.068786
  endloop
 endfacet
 facet normal -0.130507 0.000000 0.991447
  outer loop
   vertex -0.011034 -0.060437 0.037392
   vertex -0.000168 -0.054293 0.038822
   vertex -0.011034 -0.054293 0.037392
  endloop
 endfacet
 facet normal 0.274110 0.951474 0.139862
  outer loop
   vertex 0.000037 0.070268 0.000739
   vertex 0.000037 0.067917 0.016734
   vertex 0.013539 0.062126 0.029662
  endloop
 endfacet
 facet normal -0.888511 0.250055 -0.384734
  outer loop
   vertex -0.055758 0.019347 -0.049957
   vertex -0.064878 0.005058 -0.038181
   vertex -0.058595 0.027022 -0.038416
  endloop
 endfacet
 facet normal 0.130507 0.000000 0.991447
  outer loop
   vertex -0.000168 -0.060437 0.038822
   vertex 0.010699 -0.060437 0.037392
   vertex 0.010699 -0.054293 0.037392
  endloop
 endfacet
 facet normal 0.435406 -0.751603 0.495494
  outer loop
   vertex 0.015586 -0.059599 0.040634
   vertex 0.036445 -0.058863 0.023422
   vertex 0.028311 -0.042616 0.055214
  endloop
 endfacet
 facet normal -0.130507 0.000000 0.991447
  outer loop
   vertex -0.011034 -0.060437 0.037392
   vertex -0.000168 -0.060437 0.038822
   vertex -0.000168 -0.054293 0.038822
  endloop
 endfacet
 facet normal 0.922144 0.114007 -0.369665
  outer loop
   vertex 0.057914 0.012669 -0.049957
   vertex 0.068450 0.013003 -0.023572
   vertex 0.059683 -0.001637 -0.049957
  endloop
 endfacet
 facet normal 0.150293 0.454920 0.877758
  outer loop
   vertex 0.000037 0.033542 0.067417
   vertex 0.020484 0.026433 0.067600
   vertex 0.015367 0.036093 0.063470
  endloop
 endfacet
 facet normal -0.298755 -0.954330 -0.000459
  outer loop
   vertex -0.036987 -0.058918 -0.030604
   vertex -0.033971 -0.059873 -0.007737
   vertex -0.033985 -0.059873 0.000990
  endloop
 endfacet
 facet normal -0.267180 -0.936424 0.227430
  outer loop
   vertex -0.049737 -0.043573 0.030746
   vertex -0.027981 -0.044155 0.053905
   vertex -0.041341 -0.042886 0.043438
  endloop
 endfacet
 facet normal 0.120869 0.833805 0.538665
  outer loop
   vertex 0.000037 0.063242 0.030964
   vertex 0.023356 0.053279 0.041154
   vertex 0.013539 0.062126 0.029662
  endloop
 endfacet
 facet normal 0.793361 0.000000 0.608751
  outer loop
   vertex 0.029519 -0.060437 0.026525
   vertex 0.036191 -0.060437 0.017830
   vertex 0.036191 -0.054293 0.017830
  endloop
 endfacet
 facet normal 0.500481 0.748118 0.435704
  outer loop
   vertex 0.049548 0.034097 0.038579
   vertex 0.021993 0.042983 0.054972
   vertex 0.036016 0.034222 0.053908
  endloop
 endfacet
 facet normal 0.380131 0.006505 0.924910
  outer loop
   vertex -0.016584 -0.059151 -0.033362
   vertex -0.016583 -0.059873 -0.033358
   vertex -0.009209 -0.059873 -0.036389
  endloop
 endfacet
 facet normal -0.670259 0.742112 0.004758
  outer loop
   vertex -0.037272 0.058886 0.008079
   vertex -0.056606 0.041573 -0.015313
   vertex -0.056505 0.041517 0.007793
  endloop
 endfacet
 facet normal 0.264740 0.961240 -0.077004
  outer loop
   vertex 0.014756 0.066598 -0.023570
   vertex 0.015316 0.068401 0.000861
   vertex 0.028607 0.064066 -0.007551
  endloop
 endfacet
 facet normal -0.991447 0.000000 0.130507
  outer loop
   vertex -0.042151 -0.060437 -0.003162
   vertex -0.040721 -0.054293 0.007705
   vertex -0.042151 -0.054293 -0.003162
  endloop
 endfacet
 facet normal -0.073585 0.958999 -0.273689
  outer loop
   vertex 0.000036 0.057938 -0.049957
   vertex 0.014756 0.066598 -0.023570
   vertex 0.013695 0.062691 -0.036974
  endloop
 endfacet
 facet normal 0.969687 -0.210268 -0.124473
  outer loop
   vertex 0.069907 -0.001449 -0.023832
   vertex 0.071261 -0.009818 0.000857
   vertex 0.067988 -0.024921 0.000867
  endloop
 endfacet
 facet normal -0.092666 0.807026 0.583200
  outer loop
   vertex -0.013336 0.061813 0.030816
   vertex -0.023203 0.052988 0.041461
   vertex 0.000037 0.063242 0.030964
  endloop
 endfacet
 facet normal -0.991447 0.000000 0.130507
  outer loop
   vertex -0.042151 -0.060437 -0.003162
   vertex -0.040721 -0.060437 0.007705
   vertex -0.040721 -0.054293 0.007705
  endloop
 endfacet
 facet normal -0.608751 0.000000 0.793361
  outer loop
   vertex -0.029854 -0.060437 0.026525
   vertex -0.021159 -0.060437 0.033197
   vertex -0.021159 -0.054293 0.033197
  endloop
 endfacet
 facet normal 0.793361 0.000000 0.608751
  outer loop
   vertex 0.029519 -0.060437 0.026525
   vertex 0.036191 -0.054293 0.017830
   vertex 0.029519 -0.054293 0.026525
  endloop
 endfacet
 facet normal 0.758519 -0.532844 0.375134
  outer loop
   vertex 0.060028 -0.031806 0.024466
   vertex 0.052462 -0.031419 0.040315
   vertex 0.045784 -0.040441 0.041004
  endloop
 endfacet
 facet normal 0.206374 0.675087 0.708285
  outer loop
   vertex 0.007123 0.048645 0.053908
   vertex 0.015367 0.036093 0.063470
   vertex 0.021993 0.042983 0.054972
  endloop
 endfacet
 facet normal 0.960080 -0.111881 -0.256376
  outer loop
   vertex 0.069907 -0.001449 -0.023832
   vertex 0.068222 -0.016620 -0.023522
   vertex 0.065421 -0.009130 -0.037281
  endloop
 endfacet
 facet normal 0.000000 0.000000 -1.000000
  outer loop
   vertex 0.000036 0.057938 -0.049957
   vertex 0.014402 0.056169 -0.049957
   vertex -0.020983 0.054100 -0.049957
  endloop
 endfacet
 facet normal -0.007827 -0.458882 0.888463
  outer loop
   vertex 0.000037 -0.017876 0.075528
   vertex 0.000037 -0.045028 0.061504
   vertex 0.014481 -0.031240 0.068753
  endloop
 endfacet
 facet normal -0.652437 0.148901 0.743071
  outer loop
   vertex -0.036507 0.019693 0.062187
   vertex -0.050820 -0.001710 0.053908
   vertex -0.032647 0.006442 0.068232
  endloop
 endfacet
 facet normal 0.849402 0.051148 0.525261
  outer loop
   vertex 0.058765 0.013064 0.039716
   vertex 0.050881 -0.001762 0.053908
   vertex 0.059811 -0.009708 0.040242
  endloop
 endfacet
 facet normal 0.991447 0.000000 -0.130507
  outer loop
   vertex 0.041816 -0.060437 -0.003162
   vertex 0.040386 -0.054293 -0.014028
   vertex 0.041816 -0.054293 -0.003162
  endloop
 endfacet
 facet normal -0.515772 0.516631 0.683427
  outer loop
   vertex -0.028008 0.040714 0.053908
   vertex -0.042335 0.026411 0.053908
   vertex -0.029457 0.027475 0.062823
  endloop
 endfacet
 facet normal -0.382732 0.000000 0.923859
  outer loop
   vertex -0.021159 -0.060437 0.033197
   vertex -0.011034 -0.054293 0.037392
   vertex -0.021159 -0.054293 0.033197
  endloop
 endfacet
 facet normal 0.705655 0.342756 0.620136
  outer loop
   vertex 0.036016 0.034222 0.053908
   vertex 0.058765 0.013064 0.039716
   vertex 0.049548 0.034097 0.038579
  endloop
 endfacet
 facet normal 0.777966 0.438479 -0.450005
  outer loop
   vertex 0.048561 0.032951 -0.049957
   vertex 0.058938 0.027037 -0.037780
   vertex 0.054831 0.021826 -0.049957
  endloop
 endfacet
 facet normal -0.267132 0.592057 0.760335
  outer loop
   vertex -0.013826 0.047352 0.053722
   vertex -0.028008 0.040714 0.053908
   vertex -0.014412 0.027748 0.068782
  endloop
 endfacet
 facet normal 0.700504 -0.710285 0.069202
  outer loop
   vertex 0.043033 -0.058814 -0.014833
   vertex 0.053808 -0.048232 -0.015283
   vertex 0.061039 -0.039527 0.000864
  endloop
 endfacet
 facet normal 0.000000 0.000000 1.000000
  outer loop
   vertex -0.038036 0.044205 -0.049957
   vertex -0.020983 0.054100 -0.049957
   vertex -0.032669 0.047442 -0.049957
  endloop
 endfacet
 facet normal 0.996403 0.048043 -0.069801
  outer loop
   vertex 0.068450 0.013003 -0.023572
   vertex 0.070105 0.014166 0.000860
   vertex 0.071261 -0.009818 0.000857
  endloop
 endfacet
 facet normal -0.830312 0.501015 -0.244063
  outer loop
   vertex -0.052738 0.036542 -0.038801
   vertex -0.058595 0.027022 -0.038416
   vertex -0.056606 0.041573 -0.015313
  endloop
 endfacet
 facet normal -0.895805 0.289011 0.337647
  outer loop
   vertex -0.067604 0.020754 0.007978
   vertex -0.068959 0.006202 0.016836
   vertex -0.056588 0.014513 0.042544
  endloop
 endfacet
 facet normal -0.382733 0.000000 -0.923859
  outer loop
   vertex -0.011034 -0.060437 -0.043715
   vertex -0.021159 -0.054293 -0.039521
   vertex -0.011034 -0.054293 -0.043715
  endloop
 endfacet
 facet normal -0.438972 -0.000847 0.898500
  outer loop
   vertex -0.032647 0.006442 0.068232
   vertex -0.022866 -0.009228 0.072995
   vertex -0.022871 0.005733 0.073007
  endloop
 endfacet
 facet normal -0.072299 -0.996866 -0.032101
  outer loop
   vertex -0.036987 -0.058918 -0.030604
   vertex -0.026007 -0.059873 -0.025674
   vertex -0.033971 -0.059873 -0.007737
  endloop
 endfacet
 facet normal -0.507119 0.661353 0.552668
  outer loop
   vertex -0.034923 0.053309 0.030323
   vertex -0.045152 0.044048 0.032019
   vertex -0.023203 0.052988 0.041461
  endloop
 endfacet
 facet normal 0.108192 0.925106 -0.363970
  outer loop
   vertex 0.000036 0.057938 -0.049957
   vertex 0.000037 0.068280 -0.023670
   vertex 0.014756 0.066598 -0.023570
  endloop
 endfacet
 facet normal 0.879830 0.320990 0.350520
  outer loop
   vertex 0.062080 0.029191 0.016626
   vertex 0.058765 0.013064 0.039716
   vertex 0.068150 0.013186 0.016046
  endloop
 endfacet
 facet normal -0.345484 0.854398 0.388130
  outer loop
   vertex -0.013336 0.061813 0.030816
   vertex -0.034923 0.053309 0.030323
   vertex -0.023203 0.052988 0.041461
  endloop
 endfacet
 facet normal 0.678047 -0.699908 -0.224456
  outer loop
   vertex 0.043033 -0.058814 -0.014833
   vertex 0.042962 -0.051783 -0.036974
   vertex 0.053808 -0.048232 -0.015283
  endloop
 endfacet
 facet normal 0.350379 -0.354914 0.866759
  outer loop
   vertex 0.014481 -0.031240 0.068753
   vertex 0.029512 -0.030960 0.062792
   vertex 0.029261 -0.016601 0.068773
  endloop
 endfacet
 facet normal -0.055081 -0.998233 0.022304
  outer loop
   vertex -0.042645 -0.058817 0.007857
   vertex -0.015121 -0.059599 0.040817
   vertex -0.029680 -0.058996 0.031871
  endloop
 endfacet
 facet normal -0.859717 0.462310 -0.217154
  outer loop
   vertex -0.056606 0.041573 -0.015313
   vertex -0.058595 0.027022 -0.038416
   vertex -0.067718 0.020909 -0.015313
  endloop
 endfacet
 facet normal 0.606198 0.794199 -0.042097
  outer loop
   vertex 0.037421 0.057208 0.015547
   vertex 0.049135 0.048238 0.015010
   vertex 0.057801 0.040875 0.000878
  endloop
 endfacet
 facet normal -0.908804 0.099277 0.405241
  outer loop
   vertex -0.056588 0.014513 0.042544
   vertex -0.068959 0.006202 0.016836
   vertex -0.064418 -0.009620 0.030897
  endloop
 endfacet
 facet normal 0.634828 -0.635076 -0.440082
  outer loop
   vertex 0.038200 -0.047547 -0.049957
   vertex 0.045824 -0.039925 -0.049957
   vertex 0.042962 -0.051783 -0.036974
  endloop
 endfacet
 facet normal -0.672003 0.740512 0.007383
  outer loop
   vertex -0.037376 0.059024 -0.015313
   vertex -0.056606 0.041573 -0.015313
   vertex -0.037272 0.058886 0.008079
  endloop
 endfacet
 facet normal 0.000000 0.000000 -1.000000
  outer loop
   vertex -0.045787 0.036473 -0.049957
   vertex -0.038036 0.044205 -0.049957
   vertex -0.040846 0.039243 -0.049957
  endloop
 endfacet
 facet normal 0.899800 0.242990 -0.362374
  outer loop
   vertex 0.058938 0.027037 -0.037780
   vertex 0.068450 0.013003 -0.023572
   vertex 0.057914 0.012669 -0.049957
  endloop
 endfacet
 facet normal 0.229140 0.170659 0.958316
  outer loop
   vertex 0.000037 0.014376 0.075548
   vertex 0.000037 0.005566 0.077117
   vertex 0.029267 0.013098 0.068786
  endloop
 endfacet
 facet normal -0.382733 0.000000 -0.923859
  outer loop
   vertex -0.011034 -0.060437 -0.043715
   vertex -0.021159 -0.060437 -0.039521
   vertex -0.021159 -0.054293 -0.039521
  endloop
 endfacet
 facet normal 0.991447 0.000000 0.130507
  outer loop
   vertex 0.040386 -0.060437 0.007705
   vertex 0.041816 -0.054293 -0.003162
   vertex 0.040386 -0.054293 0.007705
  endloop
 endfacet
 facet normal -0.220818 -0.314380 0.923257
  outer loop
   vertex -0.022866 -0.009228 0.072995
   vertex -0.022975 -0.032864 0.064921
   vertex 0.000037 -0.017876 0.075528
  endloop
 endfacet
 facet normal -0.793361 0.000000 -0.608751
  outer loop
   vertex -0.029854 -0.060437 -0.032848
   vertex -0.036527 -0.054293 -0.024153
   vertex -0.029854 -0.054293 -0.032848
  endloop
 endfacet
 facet normal -0.736021 -0.676887 0.009830
  outer loop
   vertex -0.060209 -0.040055 -0.015311
   vertex -0.042951 -0.058814 -0.014919
   vertex -0.042645 -0.058817 0.007857
  endloop
 endfacet
 facet normal -0.940077 -0.340821 -0.009823
  outer loop
   vertex 0.016669 -0.058848 -0.033364
   vertex 0.017039 -0.059873 -0.033160
   vertex 0.016391 -0.058337 -0.024431
  endloop
 endfacet
 facet normal -0.174067 -0.177273 0.968646
  outer loop
   vertex -0.022866 -0.009228 0.072995
   vertex 0.000037 -0.017876 0.075528
   vertex -0.013664 -0.001753 0.076017
  endloop
 endfacet
 facet normal -0.828124 -0.001850 0.560542
  outer loop
   vertex -0.056588 0.014513 0.042544
   vertex -0.064418 -0.009620 0.030897
   vertex -0.049028 0.012192 0.053706
  endloop
 endfacet
 facet normal -0.989436 0.144855 0.005838
  outer loop
   vertex -0.067718 0.020909 -0.015313
   vertex -0.070914 -0.001893 0.008778
   vertex -0.067604 0.020754 0.007978
  endloop
 endfacet
 facet normal 0.000000 0.000000 1.000000
  outer loop
   vertex 0.032743 -0.050947 -0.049957
   vertex 0.038200 -0.047547 -0.049957
   vertex 0.023473 -0.056545 -0.049957
  endloop
 endfacet
 facet normal 0.730891 0.430774 0.529370
  outer loop
   vertex 0.058765 0.013064 0.039716
   vertex 0.036016 0.034222 0.053908
   vertex 0.048901 0.012359 0.053908
  endloop
 endfacet
 facet normal -0.984906 0.147204 0.091058
  outer loop
   vertex -0.067604 0.020754 0.007978
   vertex -0.070914 -0.001893 0.008778
   vertex -0.068959 0.006202 0.016836
  endloop
 endfacet
 facet normal -0.608751 0.000000 0.793361
  outer loop
   vertex -0.029854 -0.060437 0.026525
   vertex -0.021159 -0.054293 0.033197
   vertex -0.029854 -0.054293 0.026525
  endloop
 endfacet
 facet normal -0.995398 -0.095229 0.010737
  outer loop
   vertex -0.071178 -0.001883 -0.015579
   vertex -0.069733 -0.016960 -0.015313
   vertex -0.070914 -0.001893 0.008778
  endloop
 endfacet
 facet normal 0.513038 -0.817625 -0.261306
  outer loop
   vertex 0.042962 -0.051783 -0.036974
   vertex 0.043033 -0.058814 -0.014833
   vertex 0.029877 -0.059478 -0.038585
  endloop
 endfacet
 facet normal 0.658844 0.645049 -0.387086
  outer loop
   vertex 0.034624 0.046867 -0.049957
   vertex 0.035151 0.054119 -0.036974
   vertex 0.049157 0.048292 -0.022846
  endloop
 endfacet
 facet normal 0.000000 1.000000 0.000000
  outer loop
   vertex -0.042151 -0.054293 -0.003162
   vertex -0.040721 -0.054293 0.007705
   vertex -0.036527 -0.054293 0.017830
  endloop
 endfacet
 facet normal 0.000000 0.000000 1.000000
  outer loop
   vertex -0.045787 0.036473 -0.049957
   vertex -0.049022 0.031044 -0.049957
   vertex -0.055758 0.019347 -0.049957
  endloop
 endfacet
 facet normal 0.107989 0.944501 0.310251
  outer loop
   vertex 0.000037 0.067917 0.016734
   vertex 0.000037 0.063242 0.030964
   vertex 0.013539 0.062126 0.029662
  endloop
 endfacet
 facet normal 0.991447 0.000000 0.130507
  outer loop
   vertex 0.040386 -0.060437 0.007705
   vertex 0.041816 -0.060437 -0.003162
   vertex 0.041816 -0.054293 -0.003162
  endloop
 endfacet
 facet normal 0.716500 -0.650574 -0.251758
  outer loop
   vertex 0.059149 -0.039246 -0.023302
   vertex 0.053808 -0.048232 -0.015283
   vertex 0.042962 -0.051783 -0.036974
  endloop
 endfacet
 facet normal -0.336937 -0.784447 -0.520688
  outer loop
   vertex -0.042177 -0.043844 -0.049957
   vertex -0.036987 -0.058918 -0.030604
   vertex -0.042126 -0.051909 -0.037838
  endloop
 endfacet
 facet normal -0.069502 0.389604 0.918356
  outer loop
   vertex -0.014412 0.027748 0.068782
   vertex 0.000037 0.014376 0.075548
   vertex 0.000037 0.033542 0.067417
  endloop
 endfacet
 facet normal -0.575398 -0.070839 0.814800
  outer loop
   vertex -0.050820 -0.001710 0.053908
   vertex -0.036489 -0.023185 0.062162
   vertex -0.022866 -0.009228 0.072995
  endloop
 endfacet
 facet normal -0.923859 0.000000 0.382732
  outer loop
   vertex -0.040721 -0.060437 0.007705
   vertex -0.036527 -0.060437 0.017830
   vertex -0.036527 -0.054293 0.017830
  endloop
 endfacet
 facet normal -0.967331 -0.096872 -0.234278
  outer loop
   vertex -0.064913 -0.009696 -0.038218
   vertex -0.069733 -0.016960 -0.015313
   vertex -0.071178 -0.001883 -0.015579
  endloop
 endfacet
 facet normal 0.564321 -0.263842 0.782259
  outer loop
   vertex 0.048876 -0.015881 0.053908
   vertex 0.029512 -0.030960 0.062792
   vertex 0.042223 -0.030111 0.053908
  endloop
 endfacet
 facet normal -0.347096 -0.757550 0.552849
  outer loop
   vertex -0.015121 -0.059599 0.040817
   vertex -0.013820 -0.050835 0.053643
   vertex -0.027981 -0.044155 0.053905
  endloop
 endfacet
 facet normal 0.685304 -0.464473 0.560913
  outer loop
   vertex 0.052462 -0.031419 0.040315
   vertex 0.042223 -0.030111 0.053908
   vertex 0.045784 -0.040441 0.041004
  endloop
 endfacet
 facet normal -0.895098 -0.125534 0.427832
  outer loop
   vertex -0.057688 -0.031168 0.030897
   vertex -0.048865 -0.015649 0.053908
   vertex -0.050820 -0.001710 0.053908
  endloop
 endfacet
 facet normal -0.075258 -0.819737 0.567774
  outer loop
   vertex -0.015121 -0.059599 0.040817
   vertex 0.006984 -0.058738 0.044991
   vertex -0.013820 -0.050835 0.053643
  endloop
 endfacet
 facet normal 0.202304 0.954207 0.220369
  outer loop
   vertex 0.015316 0.068401 0.000861
   vertex 0.013539 0.062126 0.029662
   vertex 0.027713 0.062505 0.015010
  endloop
 endfacet
 facet normal -0.069882 0.994264 -0.080964
  outer loop
   vertex -0.015179 0.067891 -0.015313
   vertex 0.000037 0.070268 0.000739
   vertex 0.000037 0.068280 -0.023670
  endloop
 endfacet
 facet normal -0.698114 0.440462 0.564473
  outer loop
   vertex -0.056588 0.014513 0.042544
   vertex -0.049028 0.012192 0.053706
   vertex -0.058225 0.026845 0.030897
  endloop
 endfacet
 facet normal 0.000000 0.000000 -1.000000
  outer loop
   vertex 0.048561 0.032951 -0.049957
   vertex 0.054831 0.021826 -0.049957
   vertex 0.057273 0.014646 -0.049957
  endloop
 endfacet
 facet normal 0.990291 0.047723 0.130560
  outer loop
   vertex 0.070105 0.014166 0.000860
   vertex 0.068150 0.013186 0.016046
   vertex 0.071261 -0.009818 0.000857
  endloop
 endfacet
 facet normal -0.754969 0.445066 -0.481600
  outer loop
   vertex -0.058595 0.027022 -0.038416
   vertex -0.052738 0.036542 -0.038801
   vertex -0.055758 0.019347 -0.049957
  endloop
 endfacet
 facet normal -0.168482 0.603641 0.779251
  outer loop
   vertex -0.013826 0.047352 0.053722
   vertex -0.014412 0.027748 0.068782
   vertex 0.000037 0.033542 0.067417
  endloop
 endfacet
 facet normal -0.892929 0.278319 -0.353859
  outer loop
   vertex -0.055758 0.019347 -0.049957
   vertex -0.057840 0.012669 -0.049957
   vertex -0.064878 0.005058 -0.038181
  endloop
 endfacet
 facet normal -0.933439 -0.291546 0.209028
  outer loop
   vertex -0.064418 -0.009620 0.030897
   vertex -0.060036 -0.039952 0.008159
   vertex -0.057688 -0.031168 0.030897
  endloop
 endfacet
 facet normal 0.000000 -1.000000 0.000000
  outer loop
   vertex -0.021159 -0.060437 0.033197
   vertex -0.036527 -0.060437 0.017830
   vertex -0.011034 -0.060437 0.037392
  endloop
 endfacet
 facet normal 0.917196 0.051256 0.395126
  outer loop
   vertex 0.069566 -0.001500 0.016533
   vertex 0.058765 0.013064 0.039716
   vertex 0.059811 -0.009708 0.040242
  endloop
 endfacet
 facet normal 0.923859 0.000000 -0.382732
  outer loop
   vertex 0.040386 -0.060437 -0.014028
   vertex 0.036191 -0.060437 -0.024153
   vertex 0.036191 -0.054293 -0.024153
  endloop
 endfacet
 facet normal -0.715477 -0.663115 0.219936
  outer loop
   vertex -0.060036 -0.039952 0.008159
   vertex -0.042645 -0.058817 0.007857
   vertex -0.049737 -0.043573 0.030746
  endloop
 endfacet
 facet normal 0.861253 -0.157683 -0.483094
  outer loop
   vertex 0.059683 -0.001637 -0.049957
   vertex 0.065421 -0.009130 -0.037281
   vertex 0.055789 -0.022902 -0.049957
  endloop
 endfacet
 facet normal 0.109648 0.890577 -0.441418
  outer loop
   vertex 0.000036 0.057938 -0.049957
   vertex 0.013695 0.062691 -0.036974
   vertex 0.014402 0.056169 -0.049957
  endloop
 endfacet
 facet normal 0.703506 0.709858 -0.034378
  outer loop
   vertex 0.049157 0.048292 -0.022846
   vertex 0.057801 0.040875 0.000878
   vertex 0.057300 0.040633 -0.014352
  endloop
 endfacet
 facet normal -0.653964 0.720339 0.231177
  outer loop
   vertex -0.037272 0.058886 0.008079
   vertex -0.056505 0.041517 0.007793
   vertex -0.045152 0.044048 0.032019
  endloop
 endfacet
 facet normal -0.106201 0.972507 0.207249
  outer loop
   vertex -0.022741 0.065658 0.007958
   vertex -0.013336 0.061813 0.030816
   vertex 0.000037 0.063242 0.030964
  endloop
 endfacet
 facet normal 0.676788 0.723816 0.134346
  outer loop
   vertex 0.038411 0.059006 0.000866
   vertex 0.037421 0.057208 0.015547
   vertex 0.057801 0.040875 0.000878
  endloop
 endfacet
 facet normal 0.290831 -0.874006 -0.389270
  outer loop
   vertex 0.023473 -0.056545 -0.049957
   vertex 0.029877 -0.059478 -0.038585
   vertex 0.014875 -0.059405 -0.049957
  endloop
 endfacet
 facet normal -0.355348 0.306064 0.883206
  outer loop
   vertex -0.029457 0.027475 0.062823
   vertex -0.022871 0.005733 0.073007
   vertex -0.014412 0.027748 0.068782
  endloop
 endfacet
 facet normal 0.000000 -1.000000 0.000000
  outer loop
   vertex -0.042151 -0.060437 -0.003162
   vertex -0.036527 -0.060437 0.017830
   vertex -0.040721 -0.060437 0.007705
  endloop
 endfacet
 facet normal 0.734064 -0.343204 0.585971
  outer loop
   vertex 0.048876 -0.015881 0.053908
   vertex 0.042223 -0.030111 0.053908
   vertex 0.052462 -0.031419 0.040315
  endloop
 endfacet
 facet normal 0.894595 -0.425596 -0.136266
  outer loop
   vertex 0.068222 -0.016620 -0.023522
   vertex 0.067988 -0.024921 0.000867
   vertex 0.061039 -0.039527 0.000864
  endloop
 endfacet
 facet normal 0.355352 0.889462 -0.287370
  outer loop
   vertex 0.013695 0.062691 -0.036974
   vertex 0.014756 0.066598 -0.023570
   vertex 0.035151 0.054119 -0.036974
  endloop
 endfacet
 facet normal -0.130507 0.000000 -0.991447
  outer loop
   vertex -0.000168 -0.060437 -0.045145
   vertex -0.011034 -0.054293 -0.043715
   vertex -0.000168 -0.054293 -0.045145
  endloop
 endfacet
 facet normal 0.000000 0.000000 -1.000000
  outer loop
   vertex -0.057840 0.012669 -0.049957
   vertex -0.057199 0.014646 -0.049957
   vertex -0.057199 -0.018150 -0.049957
  endloop
 endfacet
 facet normal 0.000000 0.000000 -1.000000
  outer loop
   vertex -0.057840 0.012669 -0.049957
   vertex -0.057199 -0.018150 -0.049957
   vertex -0.059608 -0.001637 -0.049957
  endloop
 endfacet
 facet normal -0.608751 0.000000 -0.793361
  outer loop
   vertex -0.021159 -0.060437 -0.039521
   vertex -0.029854 -0.054293 -0.032848
   vertex -0.021159 -0.054293 -0.039521
  endloop
 endfacet
 facet normal -0.109994 -0.456112 0.883099
  outer loop
   vertex 0.000037 -0.017876 0.075528
   vertex -0.022975 -0.032864 0.064921
   vertex 0.000037 -0.045028 0.061504
  endloop
 endfacet
 facet normal -0.390068 -0.296055 0.871894
  outer loop
   vertex -0.036489 -0.023185 0.062162
   vertex -0.022975 -0.032864 0.064921
   vertex -0.022866 -0.009228 0.072995
  endloop
 endfacet
 facet normal 0.000000 -1.000000 0.000000
  outer loop
   vertex -0.029854 -0.060437 0.026525
   vertex -0.036527 -0.060437 0.017830
   vertex -0.021159 -0.060437 0.033197
  endloop
 endfacet
 facet normal 0.000000 0.000000 -1.000000
  outer loop
   vertex 0.057273 0.014646 -0.049957
   vertex 0.057914 0.012669 -0.049957
   vertex 0.059683 -0.001637 -0.049957
  endloop
 endfacet
 facet normal 0.000000 0.000000 -1.000000
  outer loop
   vertex 0.057273 0.014646 -0.049957
   vertex 0.059683 -0.001637 -0.049957
   vertex 0.055789 -0.022902 -0.049957
  endloop
 endfacet
 facet normal -0.130507 0.000000 -0.991447
  outer loop
   vertex -0.000168 -0.060437 -0.045145
   vertex -0.011034 -0.060437 -0.043715
   vertex -0.011034 -0.054293 -0.043715
  endloop
 endfacet
 facet normal 0.130507 0.000000 -0.991447
  outer loop
   vertex 0.010699 -0.060437 -0.043715
   vertex -0.000168 -0.054293 -0.045145
   vertex 0.010699 -0.054293 -0.043715
  endloop
 endfacet
 facet normal -0.152350 0.977819 0.143735
  outer loop
   vertex -0.022741 0.065658 0.007958
   vertex 0.000037 0.067917 0.016734
   vertex 0.000037 0.070268 0.000739
  endloop
 endfacet
 facet normal 0.000000 0.000000 -1.000000
  outer loop
   vertex -0.059608 -0.001637 -0.049957
   vertex -0.057199 -0.018150 -0.049957
   vertex -0.057805 -0.016213 -0.049957
  endloop
 endfacet
 facet normal 0.382684 0.000000 -0.923879
  outer loop
   vertex 0.020825 -0.060437 -0.039521
   vertex 0.010699 -0.054293 -0.043715
   vertex 0.020825 -0.054293 -0.039521
  endloop
 endfacet
 facet normal -0.608751 0.000000 -0.793361
  outer loop
   vertex -0.021159 -0.060437 -0.039521
   vertex -0.029854 -0.060437 -0.032848
   vertex -0.029854 -0.054293 -0.032848
  endloop
 endfacet
 facet normal 0.890736 -0.258252 0.374026
  outer loop
   vertex 0.067967 -0.016559 0.016088
   vertex 0.059811 -0.009708 0.040242
   vertex 0.060028 -0.031806 0.024466
  endloop
 endfacet
 facet normal -0.881645 -0.363598 -0.300830
  outer loop
   vertex -0.064913 -0.009696 -0.038218
   vertex -0.060209 -0.040055 -0.015311
   vertex -0.069733 -0.016960 -0.015313
  endloop
 endfacet
 facet normal 0.352297 0.862575 0.363113
  outer loop
   vertex 0.013539 0.062126 0.029662
   vertex 0.023356 0.053279 0.041154
   vertex 0.027713 0.062505 0.015010
  endloop
 endfacet
 facet normal 0.731537 -0.680897 0.035113
  outer loop
   vertex 0.042755 -0.058815 0.007759
   vertex 0.061039 -0.039527 0.000864
   vertex 0.049957 -0.050705 0.014967
  endloop
 endfacet
 facet normal 0.792434 0.549973 -0.263776
  outer loop
   vertex 0.049157 0.048292 -0.022846
   vertex 0.057300 0.040633 -0.014352
   vertex 0.058938 0.027037 -0.037780
  endloop
 endfacet
 facet normal 0.130507 -0.000000 -0.991447
  outer loop
   vertex 0.010699 -0.060437 -0.043715
   vertex -0.000168 -0.060437 -0.045145
   vertex -0.000168 -0.054293 -0.045145
  endloop
 endfacet
 facet normal 0.793361 0.000000 -0.608751
  outer loop
   vertex 0.036191 -0.060437 -0.024153
   vertex 0.029519 -0.054293 -0.032848
   vertex 0.036191 -0.054293 -0.024153
  endloop
 endfacet
 facet normal -0.793361 0.000000 0.608751
  outer loop
   vertex -0.036527 -0.060437 0.017830
   vertex -0.029854 -0.054293 0.026525
   vertex -0.036527 -0.054293 0.017830
  endloop
 endfacet
 facet normal 0.382684 0.000000 -0.923879
  outer loop
   vertex 0.020825 -0.060437 -0.039521
   vertex 0.010699 -0.060437 -0.043715
   vertex 0.010699 -0.054293 -0.043715
  endloop
 endfacet
 facet normal 0.800164 -0.113657 0.588914
  outer loop
   vertex 0.059811 -0.009708 0.040242
   vertex 0.050881 -0.001762 0.053908
   vertex 0.048876 -0.015881 0.053908
  endloop
 endfacet
 facet normal -0.055873 -0.996083 -0.068528
  outer loop
   vertex -0.036987 -0.058918 -0.030604
   vertex -0.016583 -0.059873 -0.033358
   vertex -0.026007 -0.059873 -0.025674
  endloop
 endfacet
 facet normal 0.358648 0.923318 0.137313
  outer loop
   vertex 0.028607 0.064066 -0.007551
   vertex 0.037421 0.057208 0.015547
   vertex 0.038411 0.059006 0.000866
  endloop
 endfacet
 facet normal 0.868988 0.431490 -0.242230
  outer loop
   vertex 0.057300 0.040633 -0.014352
   vertex 0.065602 0.027730 -0.007553
   vertex 0.068450 0.013003 -0.023572
  endloop
 endfacet
 facet normal 0.888833 -0.422918 0.176401
  outer loop
   vertex 0.067988 -0.024921 0.000867
   vertex 0.060028 -0.031806 0.024466
   vertex 0.061039 -0.039527 0.000864
  endloop
 endfacet
 facet normal 0.793361 0.000000 -0.608751
  outer loop
   vertex 0.036191 -0.060437 -0.024153
   vertex 0.029519 -0.060437 -0.032848
   vertex 0.029519 -0.054293 -0.032848
  endloop
 endfacet
 facet normal 0.759517 -0.650487 0.000000
  outer loop
   vertex -0.032669 -0.058337 -0.007576
   vertex -0.032669 -0.058337 0.000850
   vertex -0.033985 -0.059873 0.000990
  endloop
 endfacet
 facet normal 0.875803 -0.354380 -0.327695
  outer loop
   vertex 0.055789 -0.022902 -0.049957
   vertex 0.068222 -0.016620 -0.023522
   vertex 0.059149 -0.039246 -0.023302
  endloop
 endfacet
 facet normal -0.334991 0.732335 0.592846
  outer loop
   vertex -0.023203 0.052988 0.041461
   vertex -0.028008 0.040714 0.053908
   vertex -0.013826 0.047352 0.053722
  endloop
 endfacet
 facet normal 0.611444 0.660520 0.435718
  outer loop
   vertex 0.034968 0.053903 0.029013
   vertex 0.032484 0.047152 0.042733
   vertex 0.049548 0.034097 0.038579
  endloop
 endfacet
 facet normal -0.793361 0.000000 0.608751
  outer loop
   vertex -0.036527 -0.060437 0.017830
   vertex -0.029854 -0.060437 0.026525
   vertex -0.029854 -0.054293 0.026525
  endloop
 endfacet
 facet normal 0.554577 0.517484 0.651655
  outer loop
   vertex 0.032484 0.047152 0.042733
   vertex 0.021993 0.042983 0.054972
   vertex 0.049548 0.034097 0.038579
  endloop
 endfacet
 facet normal -0.706148 0.504192 0.497137
  outer loop
   vertex -0.045152 0.044048 0.032019
   vertex -0.058225 0.026845 0.030897
   vertex -0.042335 0.026411 0.053908
  endloop
 endfacet
 facet normal 0.993428 -0.110925 -0.028223
  outer loop
   vertex 0.069907 -0.001449 -0.023832
   vertex 0.067988 -0.024921 0.000867
   vertex 0.068222 -0.016620 -0.023522
  endloop
 endfacet
 facet normal 0.370090 0.804559 -0.464455
  outer loop
   vertex 0.014402 0.056169 -0.049957
   vertex 0.035151 0.054119 -0.036974
   vertex 0.034624 0.046867 -0.049957
  endloop
 endfacet
 facet normal 0.173149 -0.720757 0.671215
  outer loop
   vertex 0.000037 -0.045028 0.061504
   vertex 0.006984 -0.058738 0.044991
   vertex 0.015342 -0.039521 0.063470
  endloop
 endfacet
 facet normal -0.991447 0.000000 -0.130507
  outer loop
   vertex -0.040721 -0.060437 -0.014028
   vertex -0.042151 -0.054293 -0.003162
   vertex -0.040721 -0.054293 -0.014028
  endloop
 endfacet
 facet normal -0.169301 0.248132 0.953817
  outer loop
   vertex -0.014412 0.027748 0.068782
   vertex -0.022871 0.005733 0.073007
   vertex 0.000037 0.005566 0.077117
  endloop
 endfacet
 facet normal 0.848997 0.527152 -0.036265
  outer loop
   vertex 0.057300 0.040633 -0.014352
   vertex 0.057801 0.040875 0.000878
   vertex 0.065602 0.027730 -0.007553
  endloop
 endfacet
 facet normal 0.608817 0.000000 -0.793311
  outer loop
   vertex 0.029519 -0.060437 -0.032848
   vertex 0.020825 -0.054293 -0.039521
   vertex 0.029519 -0.054293 -0.032848
  endloop
 endfacet
 facet normal 0.860887 -0.289988 0.418067
  outer loop
   vertex 0.059811 -0.009708 0.040242
   vertex 0.052462 -0.031419 0.040315
   vertex 0.060028 -0.031806 0.024466
  endloop
 endfacet
 facet normal 0.000000 0.000000 -1.000000
  outer loop
   vertex 0.049096 -0.026350 -0.049957
   vertex 0.055789 -0.022902 -0.049957
   vertex 0.049096 -0.034549 -0.049957
  endloop
 endfacet
 facet normal 0.970625 -0.210305 0.116869
  outer loop
   vertex 0.071261 -0.009818 0.000857
   vertex 0.067967 -0.016559 0.016088
   vertex 0.067988 -0.024921 0.000867
  endloop
 endfacet
 facet normal 0.882604 0.459178 0.100821
  outer loop
   vertex 0.057801 0.040875 0.000878
   vertex 0.062080 0.029191 0.016626
   vertex 0.065602 0.027730 -0.007553
  endloop
 endfacet
 facet normal 0.923860 0.000000 0.382731
  outer loop
   vertex 0.036191 -0.060437 0.017830
   vertex 0.040386 -0.060437 0.007705
   vertex 0.040386 -0.054293 0.007705
  endloop
 endfacet
 facet normal 0.359478 -0.534383 0.764990
  outer loop
   vertex 0.015342 -0.039521 0.063470
   vertex 0.028311 -0.042616 0.055214
   vertex 0.029512 -0.030960 0.062792
  endloop
 endfacet
 facet normal 0.749427 -0.518140 -0.412177
  outer loop
   vertex 0.055789 -0.022902 -0.049957
   vertex 0.059149 -0.039246 -0.023302
   vertex 0.042962 -0.051783 -0.036974
  endloop
 endfacet
 facet normal 0.000000 0.000000 -1.000000
  outer loop
   vertex -0.054725 -0.025337 -0.049957
   vertex -0.057199 -0.018150 -0.049957
   vertex -0.042177 -0.043844 -0.049957
  endloop
 endfacet
 facet normal 0.421793 -0.000494 0.906692
  outer loop
   vertex 0.029267 0.013098 0.068786
   vertex 0.029261 -0.016601 0.068773
   vertex 0.038435 0.005918 0.064517
  endloop
 endfacet
 facet normal 0.000000 1.000000 0.000000
  outer loop
   vertex -0.040721 -0.054293 -0.014028
   vertex -0.042151 -0.054293 -0.003162
   vertex -0.036527 -0.054293 0.017830
  endloop
 endfacet
 facet normal 0.000000 0.000000 1.000000
  outer loop
   vertex 0.049096 -0.034549 -0.049957
   vertex 0.055789 -0.022902 -0.049957
   vertex 0.045824 -0.039925 -0.049957
  endloop
 endfacet
 facet normal -0.627525 0.696066 -0.348861
  outer loop
   vertex -0.038036 0.044205 -0.049957
   vertex -0.052738 0.036542 -0.038801
   vertex -0.035600 0.056448 -0.029910
  endloop
 endfacet
 facet normal 0.000000 1.000000 0.000000
  outer loop
   vertex -0.021159 -0.054293 0.033197
   vertex -0.011034 -0.054293 0.037392
   vertex -0.036527 -0.054293 0.017830
  endloop
 endfacet
 facet normal -0.403982 0.284817 0.869297
  outer loop
   vertex -0.029457 0.027475 0.062823
   vertex -0.032647 0.006442 0.068232
   vertex -0.022871 0.005733 0.073007
  endloop
 endfacet
 facet normal 0.130507 -0.000000 0.991447
  outer loop
   vertex -0.000168 -0.060437 0.038822
   vertex 0.010699 -0.054293 0.037392
   vertex -0.000168 -0.054293 0.038822
  endloop
 endfacet
 facet normal -0.454693 0.783610 -0.423332
  outer loop
   vertex -0.038036 0.044205 -0.049957
   vertex -0.035600 0.056448 -0.029910
   vertex -0.020983 0.054100 -0.049957
  endloop
 endfacet
 facet normal 0.993665 0.097625 0.055674
  outer loop
   vertex 0.071261 -0.009818 0.000857
   vertex 0.068150 0.013186 0.016046
   vertex 0.069566 -0.001500 0.016533
  endloop
 endfacet
 facet normal 0.926780 0.094963 -0.363402
  outer loop
   vertex 0.059683 -0.001637 -0.049957
   vertex 0.069907 -0.001449 -0.023832
   vertex 0.065421 -0.009130 -0.037281
  endloop
 endfacet
 facet normal -0.648902 0.715056 -0.260041
  outer loop
   vertex -0.052738 0.036542 -0.038801
   vertex -0.056606 0.041573 -0.015313
   vertex -0.037376 0.059024 -0.015313
  endloop
 endfacet
 facet normal -0.995415 -0.095062 0.010632
  outer loop
   vertex -0.070914 -0.001893 0.008778
   vertex -0.069733 -0.016960 -0.015313
   vertex -0.069475 -0.017000 0.008460
  endloop
 endfacet
 facet normal 0.925170 -0.371729 -0.076662
  outer loop
   vertex 0.068222 -0.016620 -0.023522
   vertex 0.061039 -0.039527 0.000864
   vertex 0.059149 -0.039246 -0.023302
  endloop
 endfacet
 facet normal 0.699569 0.654000 0.287902
  outer loop
   vertex 0.037421 0.057208 0.015547
   vertex 0.034968 0.053903 0.029013
   vertex 0.049548 0.034097 0.038579
  endloop
 endfacet
 facet normal 0.608817 0.000000 0.793311
  outer loop
   vertex 0.020825 -0.060437 0.033197
   vertex 0.029519 -0.060437 0.026525
   vertex 0.029519 -0.054293 0.026525
  endloop
 endfacet
 facet normal 0.889519 0.419419 -0.181227
  outer loop
   vertex 0.058938 0.027037 -0.037780
   vertex 0.057300 0.040633 -0.014352
   vertex 0.068450 0.013003 -0.023572
  endloop
 endfacet
 facet normal 0.762736 -0.646708 0.001172
  outer loop
   vertex -0.032669 -0.058337 -0.007576
   vertex -0.033985 -0.059873 0.000990
   vertex -0.033971 -0.059873 -0.007737
  endloop
 endfacet
 facet normal 0.000000 0.000000 -1.000000
  outer loop
   vertex 0.040921 -0.042749 -0.049957
   vertex 0.045824 -0.039925 -0.049957
   vertex 0.038200 -0.047547 -0.049957
  endloop
 endfacet
 facet normal 0.583911 0.296172 0.755864
  outer loop
   vertex 0.048901 0.012359 0.053908
   vertex 0.029267 0.013098 0.068786
   vertex 0.038435 0.005918 0.064517
  endloop
 endfacet
 facet normal 0.000000 1.000000 0.000000
  outer loop
   vertex -0.011034 -0.054293 0.037392
   vertex -0.000168 -0.054293 0.038822
   vertex -0.036527 -0.054293 0.017830
  endloop
 endfacet
 facet normal -0.399575 0.862866 0.309518
  outer loop
   vertex -0.037272 0.058886 0.008079
   vertex -0.013336 0.061813 0.030816
   vertex -0.022741 0.065658 0.007958
  endloop
 endfacet
 facet normal 0.753986 -0.546884 0.363899
  outer loop
   vertex 0.059154 -0.038995 0.015474
   vertex 0.060028 -0.031806 0.024466
   vertex 0.045784 -0.040441 0.041004
  endloop
 endfacet
 facet normal 0.248676 0.764779 0.594368
  outer loop
   vertex 0.023356 0.053279 0.041154
   vertex 0.007123 0.048645 0.053908
   vertex 0.021993 0.042983 0.054972
  endloop
 endfacet
 facet normal -0.370788 0.928186 -0.031400
  outer loop
   vertex -0.037376 0.059024 -0.015313
   vertex -0.022741 0.065658 0.007958
   vertex -0.015179 0.067891 -0.015313
  endloop
 endfacet
 facet normal -0.363057 -0.759616 0.539604
  outer loop
   vertex -0.027981 -0.044155 0.053905
   vertex -0.029680 -0.058996 0.031871
   vertex -0.015121 -0.059599 0.040817
  endloop
 endfacet
 facet normal -0.000000 -0.148576 0.988901
  outer loop
   vertex 0.000037 0.005566 0.077117
   vertex -0.013664 -0.001753 0.076017
   vertex 0.013739 -0.001753 0.076017
  endloop
 endfacet
 facet normal -0.172523 0.177382 0.968902
  outer loop
   vertex -0.022871 0.005733 0.073007
   vertex -0.013664 -0.001753 0.076017
   vertex 0.000037 0.005566 0.077117
  endloop
 endfacet
 facet normal 0.000000 -1.000000 0.000000
  outer loop
   vertex -0.036527 -0.060437 -0.024153
   vertex -0.036527 -0.060437 0.017830
   vertex -0.040721 -0.060437 -0.014028
  endloop
 endfacet
 facet normal 0.147433 0.854493 0.498102
  outer loop
   vertex 0.000037 0.063242 0.030964
   vertex 0.007123 0.048645 0.053908
   vertex 0.023356 0.053279 0.041154
  endloop
 endfacet
 facet normal -0.793361 0.000000 -0.608751
  outer loop
   vertex -0.029854 -0.060437 -0.032848
   vertex -0.036527 -0.060437 -0.024153
   vertex -0.036527 -0.054293 -0.024153
  endloop
 endfacet
 facet normal 0.923859 0.000000 -0.382732
  outer loop
   vertex 0.040386 -0.060437 -0.014028
   vertex 0.036191 -0.054293 -0.024153
   vertex 0.040386 -0.054293 -0.014028
  endloop
 endfacet
 facet normal -0.422372 0.906394 0.007253
  outer loop
   vertex -0.037376 0.059024 -0.015313
   vertex -0.037272 0.058886 0.008079
   vertex -0.022741 0.065658 0.007958
  endloop
 endfacet
 facet normal 0.682887 0.730236 -0.020494
  outer loop
   vertex 0.038411 0.059006 0.000866
   vertex 0.057801 0.040875 0.000878
   vertex 0.049157 0.048292 -0.022846
  endloop
 endfacet
 facet normal -0.581422 -0.118186 0.804972
  outer loop
   vertex -0.032647 0.006442 0.068232
   vertex -0.050820 -0.001710 0.053908
   vertex -0.022866 -0.009228 0.072995
  endloop
 endfacet
 facet normal -0.311355 -0.000850 0.950293
  outer loop
   vertex -0.022871 0.005733 0.073007
   vertex -0.022866 -0.009228 0.072995
   vertex -0.013664 -0.001753 0.076017
  endloop
 endfacet
endsolid
