solid Mesh
  facet normal -1 0 0
    outer loop
      vertex -1 -0.9 0
      vertex -1 -1 0
      vertex -1 -0.9 1
    endloop
  endfacet
  facet normal -1 0 0
    outer loop
      vertex -1 -0.9 1
      vertex -1 -1 0
      vertex -1 -1 1
    endloop
  endfacet
  facet normal 1 0 0
    outer loop
      vertex -0.9 -0.9 1
      vertex -0.9 -1 0
      vertex -0.9 -0.9 0
    endloop
  endfacet
  facet normal 1 0 0
    outer loop
      vertex -0.9 -1 1
      vertex -0.9 -1 0
      vertex -0.9 -0.9 1
    endloop
  endfacet
  facet normal 0 -1 0
    outer loop
      vertex -1 -1 0
      vertex -0.9 -1 0
      vertex -1 -1 1
    endloop
  endfacet
  facet normal 0 -1 0
    outer loop
      vertex -1 -1 1
      vertex -0.9 -1 0
      vertex -0.9 -1 1
    endloop
  endfacet
  facet normal 0 1 0
    outer loop
      vertex -1 -0.9 1
      vertex -0.9 -0.9 0
      vertex -1 -0.9 0
    endloop
  endfacet
  facet normal 0 1 0
    outer loop
      vertex -0.9 -0.9 1
      vertex -0.9 -0.9 0
      vertex -1 -0.9 1
    endloop
  endfacet
  facet normal 0 0 -1
    outer loop
      vertex -1 -1 0
      vertex -1 -0.9 0
      vertex -0.9 -0.9 0
    endloop
  endfacet
  facet normal 0 0 -1
    outer loop
      vertex -0.9 -1 0
      vertex -1 -1 0
      vertex -0.9 -0.9 0
    endloop
  endfacet
  facet normal 0 0 1
    outer loop
      vertex -0.9 -0.9 1
      vertex -1 -0.9 1
      vertex -1 -1 1
    endloop
  endfacet
  facet normal 0 0 1
    outer loop
      vertex -0.9 -0.9 1
      vertex -1 -1 1
      vertex -0.9 -1 1
    endloop
  endfacet
  facet normal -1 0 -0
    outer loop
      vertex -1 1 1.1
      vertex -1 1 1
      vertex -1 -1 1.1
    endloop
  endfacet
  facet normal -1 0 0
    outer loop
      vertex -1 1 1
      vertex -1 -1 1
      vertex -1 -1 1.1
    endloop
  endfacet
  facet normal 1 0 0
    outer loop
      vertex 1 -1 1.1
      vertex 1 1 1
      vertex 1 1 1.1
    endloop
  endfacet
  facet normal 1 0 0
    outer loop
      vertex 1 -1 1.1
      vertex 1 -1 1
      vertex 1 1 1
    endloop
  endfacet
  facet normal 0 -1 0
    outer loop
      vertex -1 -1 1
      vertex 1 -1 1
      vertex 1 -1 1.1
    endloop
  endfacet
  facet normal 0 -1 0
    outer loop
      vertex -1 -1 1.1
      vertex -1 -1 1
      vertex 1 -1 1.1
    endloop
  endfacet
  facet normal 0 1 0
    outer loop
      vertex 1 1 1.1
      vertex 1 1 1
      vertex -1 1 1
    endloop
  endfacet
  facet normal 0 1 0
    outer loop
      vertex 1 1 1.1
      vertex -1 1 1
      vertex -1 1 1.1
    endloop
  endfacet
  facet normal 0 0 -1
    outer loop
      vertex -1 -1 1
      vertex -1 1 1
      vertex 1 -1 1
    endloop
  endfacet
  facet normal 0 0 -1
    outer loop
      vertex 1 -1 1
      vertex -1 1 1
      vertex 1 1 1
    endloop
  endfacet
  facet normal 0 0 1
    outer loop
      vertex 1 -1 1.1
      vertex -1 1 1.1
      vertex -1 -1 1.1
    endloop
  endfacet
  facet normal 0 0 1
    outer loop
      vertex 1 1 1.1
      vertex -1 1 1.1
      vertex 1 -1 1.1
    endloop
  endfacet
  facet normal -1 0 0
    outer loop
      vertex 0.9 1 0
      vertex 0.9 0.9 0
      vertex 0.9 1 1
    endloop
  endfacet
  facet normal -1 0 0
    outer loop
      vertex 0.9 1 1
      vertex 0.9 0.9 0
      vertex 0.9 0.9 1
    endloop
  endfacet
  facet normal 1 0 0
    outer loop
      vertex 1 1 1
      vertex 1 0.9 0
      vertex 1 1 0
    endloop
  endfacet
  facet normal 1 0 0
    outer loop
      vertex 1 0.9 1
      vertex 1 0.9 0
      vertex 1 1 1
    endloop
  endfacet
  facet normal 0 -1 0
    outer loop
      vertex 0.9 0.9 0
      vertex 1 0.9 0
      vertex 0.9 0.9 1
    endloop
  endfacet
  facet normal 0 -1 0
    outer loop
      vertex 0.9 0.9 1
      vertex 1 0.9 0
      vertex 1 0.9 1
    endloop
  endfacet
  facet normal 0 1 0
    outer loop
      vertex 0.9 1 1
      vertex 1 1 0
      vertex 0.9 1 0
    endloop
  endfacet
  facet normal 0 1 0
    outer loop
      vertex 1 1 1
      vertex 1 1 0
      vertex 0.9 1 1
    endloop
  endfacet
  facet normal 0 0 -1
    outer loop
      vertex 0.9 0.9 0
      vertex 0.9 1 0
      vertex 1 1 0
    endloop
  endfacet
  facet normal 0 0 -1
    outer loop
      vertex 1 0.9 0
      vertex 0.9 0.9 0
      vertex 1 1 0
    endloop
  endfacet
  facet normal 0 0 1
    outer loop
      vertex 1 1 1
      vertex 0.9 1 1
      vertex 0.9 0.9 1
    endloop
  endfacet
  facet normal 0 0 1
    outer loop
      vertex 1 1 1
      vertex 0.9 0.9 1
      vertex 1 0.9 1
    endloop
  endfacet
  facet normal -1 0 0
    outer loop
      vertex 0.9 -0.9 0
      vertex 0.9 -1 0
      vertex 0.9 -0.9 1
    endloop
  endfacet
  facet normal -1 0 0
    outer loop
      vertex 0.9 -0.9 1
      vertex 0.9 -1 0
      vertex 0.9 -1 1
    endloop
  endfacet
  facet normal 1 0 0
    outer loop
      vertex 1 -0.9 1
      vertex 1 -1 0
      vertex 1 -0.9 0
    endloop
  endfacet
  facet normal 1 0 0
    outer loop
      vertex 1 -1 1
      vertex 1 -1 0
      vertex 1 -0.9 1
    endloop
  endfacet
  facet normal 0 -1 0
    outer loop
      vertex 0.9 -1 0
      vertex 1 -1 0
      vertex 0.9 -1 1
    endloop
  endfacet
  facet normal 0 -1 0
    outer loop
      vertex 0.9 -1 1
      vertex 1 -1 0
      vertex 1 -1 1
    endloop
  endfacet
  facet normal 0 1 0
    outer loop
      vertex 0.9 -0.9 1
      vertex 1 -0.9 0
      vertex 0.9 -0.9 0
    endloop
  endfacet
  facet normal 0 1 0
    outer loop
      vertex 1 -0.9 1
      vertex 1 -0.9 0
      vertex 0.9 -0.9 1
    endloop
  endfacet
  facet normal 0 0 -1
    outer loop
      vertex 0.9 -1 0
      vertex 0.9 -0.9 0
      vertex 1 -0.9 0
    endloop
  endfacet
  facet normal 0 0 -1
    outer loop
      vertex 1 -1 0
      vertex 0.9 -1 0
      vertex 1 -0.9 0
    endloop
  endfacet
  facet normal 0 0 1
    outer loop
      vertex 1 -0.9 1
      vertex 0.9 -0.9 1
      vertex 0.9 -1 1
    endloop
  endfacet
  facet normal 0 0 1
    outer loop
      vertex 1 -0.9 1
      vertex 0.9 -1 1
      vertex 1 -1 1
    endloop
  endfacet
  facet normal -1 0 0
    outer loop
      vertex -1 1 0
      vertex -1 0.9 0
      vertex -1 1 1
    endloop
  endfacet
  facet normal -1 0 0
    outer loop
      vertex -1 1 1
      vertex -1 0.9 0
      vertex -1 0.9 1
    endloop
  endfacet
  facet normal 1 0 0
    outer loop
      vertex -0.9 1 1
      vertex -0.9 0.9 0
      vertex -0.9 1 0
    endloop
  endfacet
  facet normal 1 0 0
    outer loop
      vertex -0.9 0.9 1
      vertex -0.9 0.9 0
      vertex -0.9 1 1
    endloop
  endfacet
  facet normal 0 -1 0
    outer loop
      vertex -1 0.9 0
      vertex -0.9 0.9 0
      vertex -1 0.9 1
    endloop
  endfacet
  facet normal 0 -1 0
    outer loop
      vertex -1 0.9 1
      vertex -0.9 0.9 0
      vertex -0.9 0.9 1
    endloop
  endfacet
  facet normal 0 1 0
    outer loop
      vertex -1 1 1
      vertex -0.9 1 0
      vertex -1 1 0
    endloop
  endfacet
  facet normal 0 1 0
    outer loop
      vertex -0.9 1 1
      vertex -0.9 1 0
      vertex -1 1 1
    endloop
  endfacet
  facet normal 0 0 -1
    outer loop
      vertex -1 0.9 0
      vertex -1 1 0
      vertex -0.9 1 0
    endloop
  endfacet
  facet normal 0 0 -1
    outer loop
      vertex -0.9 0.9 0
      vertex -1 0.9 0
      vertex -0.9 1 0
    endloop
  endfacet
  facet normal 0 0 1
    outer loop
      vertex -0.9 1 1
      vertex -1 1 1
      vertex -1 0.9 1
    endloop
  endfacet
  facet normal 0 0 1
    outer loop
      vertex -0.9 1 1
      vertex -1 0.9 1
      vertex -0.9 0.9 1
    endloop
  endfacet
endsolid Mesh
