solid stl file generated from AC3D
 facet normal 0.000000 0.000000 1.000000
  outer loop
   vertex -0.014639 0.071736 -0.057679
   vertex 0.073842 -0.016001 -0.057679
   vertex 0.073470 0.021175 -0.057679
  endloop
 endfacet
 facet normal 0.000000 0.000000 1.000000
  outer loop
   vertex -0.014639 0.071736 -0.057679
   vertex -0.023933 -0.071767 -0.057679
   vertex 0.073842 -0.016001 -0.057679
  endloop
 endfacet
 facet normal 0.000000 0.000000 1.000000
  outer loop
   vertex -0.014639 0.071736 -0.057679
   vertex -0.052187 -0.055409 -0.057679
   vertex -0.023933 -0.071767 -0.057679
  endloop
 endfacet
 facet normal 0.000000 0.000000 1.000000
  outer loop
   vertex -0.052187 -0.055409 -0.057679
   vertex -0.014639 0.071736 -0.057679
   vertex -0.052931 0.051660 -0.057679
  endloop
 endfacet
 facet normal 0.999976 0.006944 0.000000
  outer loop
   vertex -0.052187 -0.055409 0.024943
   vertex -0.052931 0.051660 -0.057679
   vertex -0.052931 0.051660 0.024943
  endloop
 endfacet
 facet normal 0.999976 0.006944 0.000000
  outer loop
   vertex -0.052931 0.051660 -0.057679
   vertex -0.052187 -0.055409 0.024943
   vertex -0.052187 -0.055409 -0.057679
  endloop
 endfacet
 facet normal 0.501036 0.865426 0.000000
  outer loop
   vertex -0.023933 -0.071767 -0.057679
   vertex -0.052187 -0.055409 0.024943
   vertex -0.023933 -0.071767 0.024943
  endloop
 endfacet
 facet normal 0.501036 0.865426 0.000000
  outer loop
   vertex -0.052187 -0.055409 0.024943
   vertex -0.023933 -0.071767 -0.057679
   vertex -0.052187 -0.055409 -0.057679
  endloop
 endfacet
 facet normal -0.495427 0.868649 0.000000
  outer loop
   vertex 0.073842 -0.016001 -0.057679
   vertex -0.023933 -0.071767 0.024943
   vertex 0.073842 -0.016001 0.024943
  endloop
 endfacet
 facet normal -0.495427 0.868649 0.000000
  outer loop
   vertex -0.023933 -0.071767 0.024943
   vertex 0.073842 -0.016001 -0.057679
   vertex -0.023933 -0.071767 -0.057679
  endloop
 endfacet
 facet normal -0.999950 -0.010000 0.000000
  outer loop
   vertex 0.073842 -0.016001 -0.057679
   vertex 0.073470 0.021175 0.024943
   vertex 0.073470 0.021175 -0.057679
  endloop
 endfacet
 facet normal -0.999950 -0.010000 0.000000
  outer loop
   vertex 0.073470 0.021175 0.024943
   vertex 0.073842 -0.016001 -0.057679
   vertex 0.073842 -0.016001 0.024943
  endloop
 endfacet
 facet normal -0.497715 -0.867341 0.000000
  outer loop
   vertex -0.014639 0.071736 -0.057679
   vertex 0.073470 0.021175 0.024943
   vertex -0.014639 0.071736 0.024943
  endloop
 endfacet
 facet normal -0.497715 -0.867341 0.000000
  outer loop
   vertex 0.073470 0.021175 0.024943
   vertex -0.014639 0.071736 -0.057679
   vertex 0.073470 0.021175 -0.057679
  endloop
 endfacet
 facet normal 0.464328 -0.885663 0.000000
  outer loop
   vertex -0.052931 0.051660 -0.057679
   vertex -0.014639 0.071736 0.024943
   vertex -0.052931 0.051660 0.024943
  endloop
 endfacet
 facet normal 0.464328 -0.885663 0.000000
  outer loop
   vertex -0.014639 0.071736 0.024943
   vertex -0.052931 0.051660 -0.057679
   vertex -0.014639 0.071736 -0.057679
  endloop
 endfacet
 facet normal 0.000000 0.000000 -1.000000
  outer loop
   vertex 0.073842 -0.016001 0.024943
   vertex -0.014639 0.071736 0.024943
   vertex 0.073470 0.021175 0.024943
  endloop
 endfacet
 facet normal 0.000000 0.000000 -1.000000
  outer loop
   vertex -0.023933 -0.071767 0.024943
   vertex -0.014639 0.071736 0.024943
   vertex 0.073842 -0.016001 0.024943
  endloop
 endfacet
 facet normal 0.000000 0.000000 -1.000000
  outer loop
   vertex -0.052187 -0.055409 0.024943
   vertex -0.014639 0.071736 0.024943
   vertex -0.023933 -0.071767 0.024943
  endloop
 endfacet
 facet normal 0.000000 0.000000 -1.000000
  outer loop
   vertex -0.014639 0.071736 0.024943
   vertex -0.052187 -0.055409 0.024943
   vertex -0.052931 0.051660 0.024943
  endloop
 endfacet
 facet normal 0.707094 -0.707120 0.000000
  outer loop
   vertex -0.052931 0.051660 0.024943
   vertex -0.052831 0.051760 -0.057671
   vertex -0.052831 0.051760 0.024951
  endloop
 endfacet
 facet normal 0.707094 -0.707120 0.000000
  outer loop
   vertex -0.052831 0.051760 -0.057671
   vertex -0.052931 0.051660 0.024943
   vertex -0.052931 0.051660 -0.057679
  endloop
 endfacet
 facet normal 0.081799 0.000568 -0.996649
  outer loop
   vertex -0.052187 -0.055409 0.024943
   vertex -0.052831 0.051760 0.024951
   vertex -0.052087 -0.055309 0.024951
  endloop
 endfacet
 facet normal 0.081799 0.000568 -0.996649
  outer loop
   vertex -0.052831 0.051760 0.024951
   vertex -0.052187 -0.055409 0.024943
   vertex -0.052931 0.051660 0.024943
  endloop
 endfacet
 facet normal -0.707094 0.707120 0.000000
  outer loop
   vertex -0.052087 -0.055309 -0.057671
   vertex -0.052187 -0.055409 0.024943
   vertex -0.052087 -0.055309 0.024951
  endloop
 endfacet
 facet normal -0.707094 0.707120 0.000000
  outer loop
   vertex -0.052187 -0.055409 0.024943
   vertex -0.052087 -0.055309 -0.057671
   vertex -0.052187 -0.055409 -0.057679
  endloop
 endfacet
 facet normal -0.081781 -0.000568 0.996650
  outer loop
   vertex -0.052831 0.051760 -0.057671
   vertex -0.052187 -0.055409 -0.057679
   vertex -0.052087 -0.055309 -0.057671
  endloop
 endfacet
 facet normal -0.081781 -0.000568 0.996650
  outer loop
   vertex -0.052187 -0.055409 -0.057679
   vertex -0.052831 0.051760 -0.057671
   vertex -0.052931 0.051660 -0.057679
  endloop
 endfacet
 facet normal -0.999976 -0.006944 0.000000
  outer loop
   vertex -0.052087 -0.055309 -0.057671
   vertex -0.052831 0.051760 0.024951
   vertex -0.052831 0.051760 -0.057671
  endloop
 endfacet
 facet normal -0.999976 -0.006944 0.000000
  outer loop
   vertex -0.052831 0.051760 0.024951
   vertex -0.052087 -0.055309 -0.057671
   vertex -0.052087 -0.055309 0.024951
  endloop
 endfacet
endsolid
