solid stl file generated from AC3D
 facet normal -0.801519 0.321830 -0.503977
  outer loop
   vertex -0.133101 0.000006 -0.135639
   vertex -0.140132 0.000006 -0.124457
   vertex -0.140322 0.012106 -0.116428
  endloop
 endfacet
 facet normal -0.864750 0.212996 -0.454798
  outer loop
   vertex -0.058997 0.256994 -0.010918
   vertex -0.042426 0.256994 -0.042426
   vertex -0.057570 0.250006 -0.016904
  endloop
 endfacet
 facet normal 0.382717 0.000000 0.923865
  outer loop
   vertex 0.134141 0.011999 0.134142
   vertex 0.120000 0.000006 0.140000
   vertex 0.134141 0.000006 0.134142
  endloop
 endfacet
 facet normal 0.382717 0.000000 -0.923865
  outer loop
   vertex 0.120000 0.011999 -0.140000
   vertex 0.134141 0.011999 -0.134142
   vertex 0.134141 0.000006 -0.134142
  endloop
 endfacet
 facet normal 0.000000 1.000000 0.000000
  outer loop
   vertex 0.057569 0.250006 0.016904
   vertex 0.039293 0.250006 0.045345
   vertex 0.064722 0.250006 0.047023
  endloop
 endfacet
 facet normal 0.000000 1.000000 0.000000
  outer loop
   vertex -0.120001 0.011999 -0.127000
   vertex -0.113001 0.011999 -0.120000
   vertex -0.120635 0.011999 -0.140000
  endloop
 endfacet
 facet normal 0.000000 -1.000000 0.000000
  outer loop
   vertex 0.127000 0.000006 0.120000
   vertex 0.140001 0.000006 0.120000
   vertex 0.120000 0.000006 0.127000
  endloop
 endfacet
 facet normal 1.000000 0.000000 0.000000
  outer loop
   vertex 0.099878 0.168783 0.002121
   vertex 0.099878 0.168783 -0.002121
   vertex 0.099878 0.179998 0.002121
  endloop
 endfacet
 facet normal 0.003671 0.585755 0.810479
  outer loop
   vertex -0.140132 0.000006 0.124457
   vertex -0.139956 0.013281 0.114862
   vertex -0.260001 0.000006 0.125000
  endloop
 endfacet
 facet normal -1.000000 0.000000 0.000000
  outer loop
   vertex -0.260001 0.226995 0.125000
   vertex -0.260001 0.230001 -0.122000
   vertex -0.260001 0.000006 0.125000
  endloop
 endfacet
 facet normal 0.221206 0.970624 0.094637
  outer loop
   vertex -0.104624 0.011999 0.090680
   vertex -0.131648 0.018255 0.089683
   vertex -0.115050 0.011999 0.115050
  endloop
 endfacet
 facet normal 0.000000 -1.000000 0.000000
  outer loop
   vertex 0.030130 0.194998 0.092728
   vertex 0.078878 0.194998 0.057309
   vertex 0.047498 0.194998 0.082272
  endloop
 endfacet
 facet normal 1.000000 0.000000 0.000000
  outer loop
   vertex 0.107000 0.168783 0.003000
   vertex 0.107000 0.179998 0.003000
   vertex 0.107000 0.179998 0.010000
  endloop
 endfacet
 facet normal 0.000000 1.000000 0.000000
  outer loop
   vertex -0.140132 0.000006 -0.124457
   vertex -0.124949 0.000006 -0.115050
   vertex -0.120001 0.000006 -0.113000
  endloop
 endfacet
 facet normal 0.000000 1.000000 0.000000
  outer loop
   vertex 0.140001 0.011999 0.080000
   vertex 0.134141 0.011999 -0.134142
   vertex 0.120000 0.011999 -0.113000
  endloop
 endfacet
 facet normal 0.923829 0.000000 0.382806
  outer loop
   vertex 0.134141 0.000006 0.134142
   vertex 0.140001 0.000006 0.120000
   vertex 0.134141 0.011999 0.134142
  endloop
 endfacet
 facet normal -0.583237 0.041323 0.811250
  outer loop
   vertex -0.064555 0.169775 0.074359
   vertex -0.067721 0.012854 0.080076
   vertex -0.048750 0.194998 0.084437
  endloop
 endfacet
 facet normal 0.914364 -0.143244 0.378709
  outer loop
   vertex 0.099878 0.179998 0.002121
   vertex 0.099878 0.168783 -0.002121
   vertex 0.101999 0.179998 -0.003000
  endloop
 endfacet
 facet normal -0.382561 0.000000 -0.923930
  outer loop
   vertex -0.120001 0.000006 -0.113000
   vertex -0.120001 0.011999 -0.113000
   vertex -0.115050 0.000006 -0.115050
  endloop
 endfacet
 facet normal 0.000000 -1.000000 0.000000
  outer loop
   vertex 0.053899 0.174002 0.023997
   vertex 0.048540 0.174002 0.035267
   vertex 0.039480 0.174002 0.043846
  endloop
 endfacet
 facet normal -0.993485 -0.089928 -0.070005
  outer loop
   vertex -0.050593 0.075949 0.016200
   vertex -0.050700 0.091299 -0.002000
   vertex -0.049201 0.075750 -0.003299
  endloop
 endfacet
 facet normal 1.000000 0.000000 0.000000
  outer loop
   vertex 0.140001 0.000006 0.120000
   vertex 0.140001 0.000006 -0.120000
   vertex 0.140001 0.011999 0.080000
  endloop
 endfacet
 facet normal 0.000000 1.000000 0.000000
  outer loop
   vertex 0.009931 0.194998 0.094480
   vertex -0.029357 0.194998 0.090350
   vertex -0.010191 0.194998 0.096966
  endloop
 endfacet
 facet normal 0.000000 1.000000 0.000000
  outer loop
   vertex -0.077673 0.222006 0.019145
   vertex -0.070838 0.222006 -0.037178
   vertex -0.092925 0.222006 0.019752
  endloop
 endfacet
 facet normal 0.084152 0.000000 0.996453
  outer loop
   vertex -0.139956 0.013281 0.114862
   vertex -0.260001 0.226995 0.125000
   vertex -0.260001 0.000006 0.125000
  endloop
 endfacet
 facet normal 0.923969 0.000000 0.382467
  outer loop
   vertex 0.115049 0.000006 0.115050
   vertex 0.115049 0.011999 0.115050
   vertex 0.113000 0.000006 0.120000
  endloop
 endfacet
 facet normal 0.000000 -1.000000 0.000000
  outer loop
   vertex 0.120000 0.000006 0.140000
   vertex 0.120000 0.000006 0.127000
   vertex 0.134141 0.000006 0.134142
  endloop
 endfacet
 facet normal 0.000000 1.000000 0.000000
  outer loop
   vertex -0.029357 0.194998 0.090350
   vertex -0.063567 0.194998 0.070599
   vertex -0.048750 0.194998 0.084437
  endloop
 endfacet
 facet normal 0.000000 -1.000000 0.000000
  outer loop
   vertex -0.127001 0.000006 0.120000
   vertex -0.140132 0.000006 0.124457
   vertex -0.120001 0.000006 0.113000
  endloop
 endfacet
 facet normal -0.039963 0.997953 0.049919
  outer loop
   vertex 0.113000 0.011999 0.120000
   vertex 0.101728 0.017050 0.010000
   vertex 0.067556 0.011999 0.083620
  endloop
 endfacet
 facet normal 0.000000 -1.000000 0.000000
  outer loop
   vertex -0.124949 0.000006 -0.115050
   vertex -0.140132 0.000006 -0.124457
   vertex -0.127001 0.000006 -0.120000
  endloop
 endfacet
 facet normal 0.000000 1.000000 0.000000
  outer loop
   vertex 0.039293 0.250006 0.045345
   vertex 0.024927 0.250006 0.054578
   vertex 0.024721 0.250006 0.076085
  endloop
 endfacet
 facet normal -0.309024 0.004229 0.951045
  outer loop
   vertex -0.010191 0.194998 0.096966
   vertex -0.048750 0.194998 0.084437
   vertex -0.014048 0.021994 0.096482
  endloop
 endfacet
 facet normal 0.567471 0.792210 -0.224457
  outer loop
   vertex 0.111856 0.011999 -0.013000
   vertex 0.107000 0.021994 0.010000
   vertex 0.116998 0.011999 0.000000
  endloop
 endfacet
 facet normal 1.000000 0.000000 0.000000
  outer loop
   vertex 0.107000 0.179998 -0.010000
   vertex 0.107000 0.179998 -0.003000
   vertex 0.107000 0.168783 -0.003000
  endloop
 endfacet
 facet normal 0.923829 0.000000 -0.382806
  outer loop
   vertex 0.140001 0.000006 -0.120000
   vertex 0.134141 0.000006 -0.134142
   vertex 0.134141 0.011999 -0.134142
  endloop
 endfacet
 facet normal 0.245383 0.005077 -0.969413
  outer loop
   vertex 0.099626 0.014929 -0.012731
   vertex 0.096681 0.179998 -0.012612
   vertex 0.107000 0.179998 -0.010000
  endloop
 endfacet
 facet normal 0.587767 0.010839 0.808958
  outer loop
   vertex 0.078878 0.194998 0.057309
   vertex 0.030130 0.194998 0.092728
   vertex 0.036523 0.021994 0.090401
  endloop
 endfacet
 facet normal 0.000000 1.000000 0.000000
  outer loop
   vertex 0.107000 0.179998 0.010000
   vertex 0.107000 0.179998 0.003000
   vertex 0.096681 0.179998 0.012612
  endloop
 endfacet
 facet normal 0.092092 0.309348 -0.946479
  outer loop
   vertex -0.010916 0.256994 -0.058998
   vertex 0.022085 0.256994 -0.055787
   vertex 0.008539 0.250006 -0.059389
  endloop
 endfacet
 facet normal 0.000000 -1.000000 0.000000
  outer loop
   vertex -0.059001 0.091299 -0.000000
   vertex -0.050261 0.091299 0.017261
   vertex -0.048747 0.091299 0.033236
  endloop
 endfacet
 facet normal 0.000000 1.000000 0.000000
  outer loop
   vertex -0.064723 0.250006 0.047023
   vertex -0.024722 0.250006 0.076085
   vertex -0.039290 0.250006 0.045345
  endloop
 endfacet
 facet normal 0.000000 1.000000 0.000000
  outer loop
   vertex 0.107000 0.179998 -0.010000
   vertex 0.096681 0.179998 -0.012612
   vertex 0.107000 0.179998 -0.003000
  endloop
 endfacet
 facet normal 0.000000 1.000000 0.000000
  outer loop
   vertex 0.120000 0.000006 0.140000
   vertex 0.115049 0.000006 0.115050
   vertex 0.113000 0.000006 0.120000
  endloop
 endfacet
 facet normal 0.000000 1.000000 0.000000
  outer loop
   vertex -0.029357 0.222006 -0.090350
   vertex -0.063567 0.222006 -0.070599
   vertex -0.045447 0.222006 -0.065839
  endloop
 endfacet
 facet normal -0.707107 0.000000 0.707107
  outer loop
   vertex -0.120001 0.011999 -0.127000
   vertex -0.113001 0.000006 -0.120000
   vertex -0.113001 0.011999 -0.120000
  endloop
 endfacet
 facet normal 0.000000 1.000000 0.000000
  outer loop
   vertex -0.113001 0.011999 0.120000
   vertex -0.120001 0.011999 0.127000
   vertex -0.120635 0.011999 0.140000
  endloop
 endfacet
 facet normal 0.000000 -1.000000 0.000000
  outer loop
   vertex -0.060000 0.000006 0.000000
   vertex -0.120001 0.000006 -0.113000
   vertex -0.115050 0.000006 -0.115050
  endloop
 endfacet
 facet normal -0.809305 -0.181807 0.558544
  outer loop
   vertex -0.077673 0.222006 0.019145
   vertex -0.045447 0.222006 0.065839
   vertex -0.064723 0.250006 0.047023
  endloop
 endfacet
 facet normal 0.459602 0.158998 0.873777
  outer loop
   vertex 0.042425 0.256994 0.042426
   vertex 0.010919 0.256994 0.058998
   vertex 0.039293 0.250006 0.045345
  endloop
 endfacet
 facet normal -0.310237 0.731108 0.607646
  outer loop
   vertex -0.014048 0.021994 0.096482
   vertex -0.067721 0.012854 0.080076
   vertex -0.019522 0.011999 0.105713
  endloop
 endfacet
 facet normal 0.000000 1.000000 0.000000
  outer loop
   vertex 0.140001 0.000006 -0.120000
   vertex 0.115049 0.000006 -0.115050
   vertex 0.120000 0.000006 -0.113000
  endloop
 endfacet
 facet normal 0.122491 0.000000 0.992470
  outer loop
   vertex 0.107000 0.179998 -0.003000
   vertex 0.099878 0.168783 -0.002121
   vertex 0.107000 0.168783 -0.003000
  endloop
 endfacet
 facet normal 0.000000 -1.000000 0.000000
  outer loop
   vertex 0.115049 0.011999 0.124950
   vertex 0.113000 0.011999 0.120000
   vertex 0.134141 0.011999 0.134142
  endloop
 endfacet
 facet normal 0.000000 1.000000 0.000000
  outer loop
   vertex 0.047498 0.222006 0.082272
   vertex 0.076856 0.222006 0.055840
   vertex 0.045446 0.222006 0.065839
  endloop
 endfacet
 facet normal -0.697005 0.168425 0.697006
  outer loop
   vertex 0.127000 0.000006 0.120000
   vertex 0.124948 0.011999 0.115050
   vertex 0.120000 0.000006 0.113000
  endloop
 endfacet
 facet normal 0.000000 0.000000 1.000000
  outer loop
   vertex -0.205000 0.233007 0.100000
   vertex -0.155001 0.230001 0.100000
   vertex -0.155001 0.233007 0.100000
  endloop
 endfacet
 facet normal 0.000000 1.000000 0.000000
  outer loop
   vertex -0.009932 0.194998 -0.094480
   vertex 0.047498 0.194998 -0.082272
   vertex 0.030130 0.194998 -0.092728
  endloop
 endfacet
 facet normal 0.049253 -0.019705 0.998592
  outer loop
   vertex -0.154120 0.230001 0.119837
   vertex -0.260001 0.226995 0.125000
   vertex -0.139956 0.013281 0.114862
  endloop
 endfacet
 facet normal 0.864772 0.212701 0.454892
  outer loop
   vertex 0.058999 0.256994 0.010918
   vertex 0.042425 0.256994 0.042426
   vertex 0.057569 0.250006 0.016904
  endloop
 endfacet
 facet normal 0.979698 -0.200481 0.000000
  outer loop
   vertex 0.057569 0.250006 0.016904
   vertex 0.057569 0.250006 -0.016904
   vertex 0.058999 0.256994 0.010918
  endloop
 endfacet
 facet normal 0.000000 1.000000 0.000000
  outer loop
   vertex 0.113000 0.011999 -0.120000
   vertex 0.120000 0.011999 -0.127000
   vertex 0.120000 0.011999 -0.140000
  endloop
 endfacet
 facet normal 0.809281 -0.181755 -0.558597
  outer loop
   vertex 0.077676 0.222006 -0.019145
   vertex 0.045446 0.222006 -0.065839
   vertex 0.064722 0.250006 -0.047023
  endloop
 endfacet
 facet normal 0.000000 0.438893 0.898539
  outer loop
   vertex 0.120000 0.000006 0.140000
   vertex 0.134141 0.011999 0.134142
   vertex -0.120635 0.000006 0.140000
  endloop
 endfacet
 facet normal -0.025174 0.997596 0.064568
  outer loop
   vertex -0.205000 0.230001 0.100000
   vertex -0.260001 0.226995 0.125000
   vertex -0.154120 0.230001 0.119837
  endloop
 endfacet
 facet normal 0.697005 -0.168425 -0.697005
  outer loop
   vertex -0.120001 0.011999 -0.113000
   vertex -0.124949 0.000006 -0.115050
   vertex -0.127001 0.011999 -0.120000
  endloop
 endfacet
 facet normal 0.382561 0.000000 0.923930
  outer loop
   vertex 0.120000 0.000006 0.113000
   vertex 0.115049 0.011999 0.115050
   vertex 0.115049 0.000006 0.115050
  endloop
 endfacet
 facet normal 0.812004 0.331935 0.480072
  outer loop
   vertex 0.116998 0.011999 0.000000
   vertex 0.107000 0.021994 0.010000
   vertex 0.109857 0.015005 0.010000
  endloop
 endfacet
 facet normal -0.707107 0.000000 0.707107
  outer loop
   vertex 0.127000 0.000006 -0.120000
   vertex 0.120000 0.011999 -0.127000
   vertex 0.120000 0.000006 -0.127000
  endloop
 endfacet
 facet normal 0.535429 0.472793 -0.699845
  outer loop
   vertex -0.140132 0.000006 -0.124457
   vertex -0.152831 0.016439 -0.123071
   vertex -0.140322 0.012106 -0.116428
  endloop
 endfacet
 facet normal 0.022987 0.000000 0.999736
  outer loop
   vertex -0.120635 0.011999 0.140000
   vertex -0.120635 0.000006 0.140000
   vertex 0.134141 0.011999 0.134142
  endloop
 endfacet
 facet normal -0.319047 0.000000 -0.947739
  outer loop
   vertex -0.132731 0.011999 -0.135928
   vertex -0.120635 0.011999 -0.140000
   vertex -0.120635 0.000006 -0.140000
  endloop
 endfacet
 facet normal 0.000000 -1.000000 0.000000
  outer loop
   vertex 0.120000 0.000006 -0.127000
   vertex 0.140001 0.000006 -0.120000
   vertex 0.127000 0.000006 -0.120000
  endloop
 endfacet
 facet normal 0.362182 0.800113 0.478167
  outer loop
   vertex 0.077127 0.021994 0.059646
   vertex 0.036523 0.021994 0.090401
   vertex 0.067556 0.011999 0.083620
  endloop
 endfacet
 facet normal -0.912096 0.056416 -0.406076
  outer loop
   vertex -0.078253 0.250006 -0.016633
   vertex -0.064723 0.250006 -0.047023
   vertex -0.070838 0.222006 -0.037178
  endloop
 endfacet
 facet normal 0.364784 0.301299 -0.880995
  outer loop
   vertex 0.120000 0.011999 0.127000
   vertex 0.113000 0.000006 0.120000
   vertex 0.115049 0.011999 0.124950
  endloop
 endfacet
 facet normal 0.000000 -1.000000 0.000000
  outer loop
   vertex -0.120635 0.000006 0.140000
   vertex -0.042426 0.000006 0.042426
   vertex 0.000001 0.000006 0.060000
  endloop
 endfacet
 facet normal 0.000000 1.000000 0.000000
  outer loop
   vertex -0.205000 0.233007 0.050000
   vertex -0.205000 0.233007 0.100000
   vertex -0.155001 0.233007 0.050000
  endloop
 endfacet
 facet normal -0.923968 0.000000 0.382469
  outer loop
   vertex -0.115050 0.011999 0.115050
   vertex -0.113001 0.000006 0.120000
   vertex -0.113001 0.011999 0.120000
  endloop
 endfacet
 facet normal -0.353460 -0.079447 0.932070
  outer loop
   vertex -0.045447 0.222006 0.065839
   vertex -0.009642 0.222006 0.079417
   vertex -0.024722 0.250006 0.076085
  endloop
 endfacet
 facet normal -0.364806 -0.301110 0.881050
  outer loop
   vertex -0.115050 0.000006 0.115050
   vertex -0.124949 0.011999 0.115050
   vertex -0.120001 0.000006 0.113000
  endloop
 endfacet
 facet normal 0.000000 1.000000 0.000000
  outer loop
   vertex -0.155001 0.233007 0.050000
   vertex -0.205000 0.233007 0.100000
   vertex -0.155001 0.233007 0.100000
  endloop
 endfacet
 facet normal 0.707107 0.000000 -0.707106
  outer loop
   vertex -0.120001 0.011999 0.127000
   vertex -0.127001 0.000006 0.120000
   vertex -0.127001 0.011999 0.120000
  endloop
 endfacet
 facet normal 0.000000 0.000000 -1.000000
  outer loop
   vertex -0.205000 0.233007 0.050000
   vertex -0.155001 0.233007 0.050000
   vertex -0.155001 0.230001 0.050000
  endloop
 endfacet
 facet normal 0.000000 -1.000000 0.000000
  outer loop
   vertex -0.120635 0.011999 -0.140000
   vertex -0.113001 0.011999 -0.120000
   vertex -0.123427 0.011999 -0.093996
  endloop
 endfacet
 facet normal -0.793090 -0.121076 -0.596949
  outer loop
   vertex -0.060786 0.169775 -0.076231
   vertex -0.089488 0.172781 -0.038708
   vertex -0.078879 0.194998 -0.057309
  endloop
 endfacet
 facet normal 0.000000 0.000000 -1.000000
  outer loop
   vertex -0.155001 0.230001 0.050000
   vertex -0.205000 0.230001 0.050000
   vertex -0.205000 0.233007 0.050000
  endloop
 endfacet
 facet normal 1.000000 0.000000 0.000000
  outer loop
   vertex -0.155001 0.233007 0.050000
   vertex -0.155001 0.233007 0.100000
   vertex -0.155001 0.230001 0.050000
  endloop
 endfacet
 facet normal 0.707107 0.000000 -0.707106
  outer loop
   vertex -0.127001 0.000006 0.120000
   vertex -0.120001 0.011999 0.127000
   vertex -0.120001 0.000006 0.127000
  endloop
 endfacet
 facet normal 1.000000 0.000000 0.000000
  outer loop
   vertex -0.155001 0.233007 0.100000
   vertex -0.155001 0.230001 0.100000
   vertex -0.155001 0.230001 0.050000
  endloop
 endfacet
 facet normal -0.923968 0.000000 -0.382469
  outer loop
   vertex -0.115050 0.000006 -0.115050
   vertex -0.113001 0.011999 -0.120000
   vertex -0.113001 0.000006 -0.120000
  endloop
 endfacet
 facet normal 0.000000 1.000000 0.000000
  outer loop
   vertex 0.024721 0.250006 0.076085
   vertex 0.064722 0.250006 0.047023
   vertex 0.039293 0.250006 0.045345
  endloop
 endfacet
 facet normal 0.000000 1.000000 0.000000
  outer loop
   vertex -0.018542 0.174002 0.057063
   vertex -0.006167 0.174002 0.058677
   vertex 0.006273 0.174002 0.059671
  endloop
 endfacet
 facet normal 0.004513 0.087505 -0.996154
  outer loop
   vertex -0.260001 0.000006 -0.125000
   vertex -0.152831 0.016439 -0.123071
   vertex -0.140132 0.000006 -0.124457
  endloop
 endfacet
 facet normal 0.979698 -0.200481 0.000000
  outer loop
   vertex 0.058999 0.256994 -0.010918
   vertex 0.058999 0.256994 0.010918
   vertex 0.057569 0.250006 -0.016904
  endloop
 endfacet
 facet normal 0.122491 0.000000 -0.992470
  outer loop
   vertex 0.099878 0.168783 0.002121
   vertex 0.099878 0.179998 0.002121
   vertex 0.107000 0.179998 0.003000
  endloop
 endfacet
 facet normal 0.935754 0.337798 0.101280
  outer loop
   vertex 0.140001 0.011999 0.080000
   vertex 0.134141 0.011999 0.134142
   vertex 0.140001 0.000006 0.120000
  endloop
 endfacet
 facet normal 0.000000 1.000000 0.000000
  outer loop
   vertex 0.047498 0.222006 -0.082272
   vertex 0.009931 0.222006 -0.094480
   vertex 0.045446 0.222006 -0.065839
  endloop
 endfacet
 facet normal 0.122491 0.000000 -0.992470
  outer loop
   vertex 0.107000 0.168783 0.003000
   vertex 0.099878 0.168783 0.002121
   vertex 0.107000 0.179998 0.003000
  endloop
 endfacet
 facet normal 0.999551 0.029973 0.000000
  outer loop
   vertex 0.056379 0.091299 0.017391
   vertex 0.056379 0.091299 -0.017391
   vertex 0.053899 0.174002 -0.023997
  endloop
 endfacet
 facet normal 0.000000 -1.000000 0.000000
  outer loop
   vertex 0.134141 0.000006 -0.134142
   vertex 0.120000 0.000006 -0.127000
   vertex 0.120000 0.000006 -0.140000
  endloop
 endfacet
 facet normal 0.000000 0.000000 -1.000000
  outer loop
   vertex -0.120635 0.011999 -0.140000
   vertex 0.120000 0.011999 -0.140000
   vertex 0.120000 0.000006 -0.140000
  endloop
 endfacet
 facet normal 0.826193 -0.011361 -0.563273
  outer loop
   vertex 0.056379 0.091299 -0.017391
   vertex 0.036787 0.091299 -0.046128
   vertex 0.039480 0.174002 -0.043846
  endloop
 endfacet
 facet normal 0.000000 1.000000 0.000000
  outer loop
   vertex 0.008539 0.250006 -0.059389
   vertex 0.039293 0.250006 -0.045345
   vertex 0.024721 0.250006 -0.076085
  endloop
 endfacet
 facet normal 0.332047 0.480108 -0.811936
  outer loop
   vertex 0.067556 0.011999 -0.083620
   vertex 0.010396 0.011999 -0.106996
   vertex 0.036523 0.021994 -0.090401
  endloop
 endfacet
 facet normal 0.222478 0.019651 -0.974740
  outer loop
   vertex 0.036787 0.091299 -0.046128
   vertex -0.013129 0.091299 -0.057521
   vertex 0.039480 0.174002 -0.043846
  endloop
 endfacet
 facet normal -0.023788 0.999716 -0.001444
  outer loop
   vertex -0.067889 0.013342 -0.079125
   vertex -0.120635 0.011999 -0.140000
   vertex -0.123427 0.011999 -0.093996
  endloop
 endfacet
 facet normal 0.000000 1.000000 0.000000
  outer loop
   vertex 0.140001 0.011999 0.080000
   vertex 0.120000 0.011999 -0.113000
   vertex 0.111856 0.011999 -0.013000
  endloop
 endfacet
 facet normal 0.000000 -1.000000 0.000000
  outer loop
   vertex -0.260001 0.000006 0.125000
   vertex -0.120001 0.000006 -0.113000
   vertex -0.140132 0.000006 0.124457
  endloop
 endfacet
 facet normal 0.000000 1.000000 0.000000
  outer loop
   vertex -0.078879 0.194998 0.057309
   vertex -0.048750 0.194998 0.084437
   vertex -0.063567 0.194998 0.070599
  endloop
 endfacet
 facet normal 0.000000 -1.000000 0.000000
  outer loop
   vertex -0.113001 0.000006 0.120000
   vertex -0.120635 0.000006 0.140000
   vertex -0.120001 0.000006 0.127000
  endloop
 endfacet
 facet normal -0.562707 -0.047278 -0.825303
  outer loop
   vertex -0.013129 0.091299 -0.057521
   vertex -0.048747 0.091299 -0.033236
   vertex -0.029501 0.174002 -0.051096
  endloop
 endfacet
 facet normal 0.000000 0.970910 0.239445
  outer loop
   vertex -0.124949 0.011999 0.115050
   vertex -0.115050 0.011999 0.115050
   vertex -0.131648 0.018255 0.089683
  endloop
 endfacet
 facet normal 0.000000 1.000000 0.000000
  outer loop
   vertex 0.078252 0.250006 0.016633
   vertex 0.078252 0.250006 -0.016633
   vertex 0.057569 0.250006 -0.016904
  endloop
 endfacet
 facet normal -0.382759 0.000000 0.923848
  outer loop
   vertex 0.120000 0.011999 0.113000
   vertex 0.120000 0.000006 0.113000
   vertex 0.124948 0.011999 0.115050
  endloop
 endfacet
 facet normal 0.000000 1.000000 0.000000
  outer loop
   vertex 0.045446 0.222006 -0.065839
   vertex 0.077676 0.222006 -0.019145
   vertex 0.076856 0.222006 -0.055840
  endloop
 endfacet
 facet normal -0.955218 -0.026595 -0.294705
  outer loop
   vertex -0.048747 0.091299 -0.033236
   vertex -0.059001 0.091299 -0.000000
   vertex -0.053900 0.174002 -0.023997
  endloop
 endfacet
 facet normal 0.000000 -1.000000 0.000000
  outer loop
   vertex 0.120000 0.011999 0.113000
   vertex 0.124948 0.011999 0.115050
   vertex 0.134141 0.011999 0.134142
  endloop
 endfacet
 facet normal 0.254042 0.030859 -0.966701
  outer loop
   vertex -0.131095 0.017004 -0.089970
   vertex -0.128802 0.229223 -0.082593
   vertex -0.103987 0.172735 -0.077875
  endloop
 endfacet
 facet normal 0.000000 1.000000 0.000000
  outer loop
   vertex 0.045446 0.222006 0.065839
   vertex -0.009642 0.222006 0.079417
   vertex -0.009932 0.222006 0.094480
  endloop
 endfacet
 facet normal -0.955218 -0.026595 0.294705
  outer loop
   vertex -0.059001 0.091299 -0.000000
   vertex -0.048747 0.091299 0.033236
   vertex -0.053900 0.174002 0.023997
  endloop
 endfacet
 facet normal -0.923771 0.000000 0.382946
  outer loop
   vertex 0.124948 0.011999 0.115050
   vertex 0.127000 0.000006 0.120000
   vertex 0.127000 0.011999 0.120000
  endloop
 endfacet
 facet normal 0.000000 -1.000000 0.000000
  outer loop
   vertex -0.050261 0.091299 0.017261
   vertex -0.059001 0.091299 -0.000000
   vertex -0.050700 0.091299 -0.002000
  endloop
 endfacet
 facet normal 0.244555 0.105362 0.963894
  outer loop
   vertex -0.019522 0.011999 0.105713
   vertex 0.067556 0.011999 0.083620
   vertex 0.036523 0.021994 0.090401
  endloop
 endfacet
 facet normal -0.562707 -0.047278 0.825303
  outer loop
   vertex -0.048747 0.091299 0.033236
   vertex -0.013129 0.091299 0.057521
   vertex -0.029501 0.174002 0.051096
  endloop
 endfacet
 facet normal 0.000000 1.000000 0.000000
  outer loop
   vertex 0.115049 0.000006 -0.115050
   vertex 0.120000 0.000006 -0.140000
   vertex 0.113000 0.000006 -0.120000
  endloop
 endfacet
 facet normal 0.338181 0.930581 0.140192
  outer loop
   vertex -0.127001 0.011999 0.120000
   vertex -0.124949 0.011999 0.115050
   vertex -0.131648 0.018255 0.089683
  endloop
 endfacet
 facet normal 0.707107 0.000000 0.707106
  outer loop
   vertex -0.127001 0.011999 -0.120000
   vertex -0.127001 0.000006 -0.120000
   vertex -0.120001 0.011999 -0.127000
  endloop
 endfacet
 facet normal 0.835771 0.010053 -0.548986
  outer loop
   vertex -0.131095 0.017004 -0.089970
   vertex -0.152831 0.016439 -0.123071
   vertex -0.128802 0.229223 -0.082593
  endloop
 endfacet
 facet normal 0.222478 0.019651 0.974740
  outer loop
   vertex -0.013129 0.091299 0.057521
   vertex 0.036787 0.091299 0.046128
   vertex 0.039480 0.174002 0.043846
  endloop
 endfacet
 facet normal -0.986916 0.149539 -0.060291
  outer loop
   vertex -0.095370 0.194998 0.020271
   vertex -0.092925 0.194998 -0.019752
   vertex -0.097498 0.172781 0.000000
  endloop
 endfacet
 facet normal 0.826193 -0.011361 0.563273
  outer loop
   vertex 0.036787 0.091299 0.046128
   vertex 0.056379 0.091299 0.017391
   vertex 0.039480 0.174002 0.043846
  endloop
 endfacet
 facet normal -0.925729 0.152186 -0.346215
  outer loop
   vertex -0.092925 0.194998 -0.019752
   vertex -0.078879 0.194998 -0.057309
   vertex -0.089488 0.172781 -0.038708
  endloop
 endfacet
 facet normal 0.000000 1.000000 0.000000
  outer loop
   vertex -0.008540 0.250006 0.059389
   vertex -0.039290 0.250006 0.045345
   vertex -0.024722 0.250006 0.076085
  endloop
 endfacet
 facet normal 0.008388 0.999965 0.000000
  outer loop
   vertex -0.155001 0.230001 0.050000
   vertex -0.155001 0.230001 0.100000
   vertex -0.131396 0.229803 0.084073
  endloop
 endfacet
 facet normal 0.746717 -0.069536 0.661497
  outer loop
   vertex 0.045446 0.222006 0.065839
   vertex 0.070836 0.222006 0.037178
   vertex 0.064722 0.250006 0.047023
  endloop
 endfacet
 facet normal -0.966678 -0.255997 0.000000
  outer loop
   vertex -0.078253 0.250006 0.016633
   vertex -0.078253 0.250006 -0.016633
   vertex -0.070838 0.222006 -0.037178
  endloop
 endfacet
 facet normal 0.951057 0.003838 0.308992
  outer loop
   vertex 0.057710 0.174002 0.012267
   vertex 0.053899 0.174002 0.023997
   vertex 0.056379 0.091299 0.017391
  endloop
 endfacet
 facet normal 0.808850 -0.022679 0.587577
  outer loop
   vertex 0.053899 0.174002 0.023997
   vertex 0.039480 0.174002 0.043846
   vertex 0.056379 0.091299 0.017391
  endloop
 endfacet
 facet normal 0.108391 0.058208 -0.992403
  outer loop
   vertex -0.131095 0.017004 -0.089970
   vertex -0.103987 0.172735 -0.077875
   vertex -0.068759 0.169775 -0.074201
  endloop
 endfacet
 facet normal 0.603781 0.004657 -0.797136
  outer loop
   vertex 0.077127 0.021994 -0.059646
   vertex 0.036523 0.021994 -0.090401
   vertex 0.078878 0.194998 -0.057309
  endloop
 endfacet
 facet normal -0.707107 0.000000 -0.707107
  outer loop
   vertex -0.120001 0.000006 0.127000
   vertex -0.120001 0.011999 0.127000
   vertex -0.113001 0.000006 0.120000
  endloop
 endfacet
 facet normal 0.426912 -0.123442 0.895828
  outer loop
   vertex 0.039480 0.174002 0.043846
   vertex 0.006273 0.174002 0.059671
   vertex -0.013129 0.091299 0.057521
  endloop
 endfacet
 facet normal -0.079648 -0.007228 0.996797
  outer loop
   vertex 0.006273 0.174002 0.059671
   vertex -0.006167 0.174002 0.058677
   vertex -0.013129 0.091299 0.057521
  endloop
 endfacet
 facet normal -0.308967 0.012716 0.950988
  outer loop
   vertex -0.006167 0.174002 0.058677
   vertex -0.029501 0.174002 0.051096
   vertex -0.013129 0.091299 0.057521
  endloop
 endfacet
 facet normal 0.831820 -0.149540 -0.534522
  outer loop
   vertex 0.057569 0.250006 -0.016904
   vertex 0.039293 0.250006 -0.045345
   vertex 0.042425 0.256994 -0.042426
  endloop
 endfacet
 facet normal 0.000000 1.000000 0.000000
  outer loop
   vertex -0.115050 0.011999 0.115050
   vertex -0.113001 0.011999 0.120000
   vertex -0.104624 0.011999 0.090680
  endloop
 endfacet
 facet normal -0.742859 0.028433 0.668844
  outer loop
   vertex -0.029501 0.174002 0.051096
   vertex -0.053900 0.174002 0.023997
   vertex -0.048747 0.091299 0.033236
  endloop
 endfacet
 facet normal 0.949191 0.007213 0.314617
  outer loop
   vertex -0.139956 0.013281 0.114862
   vertex -0.131648 0.018255 0.089683
   vertex -0.131396 0.229803 0.084073
  endloop
 endfacet
 facet normal 0.071528 0.800656 -0.594839
  outer loop
   vertex -0.014048 0.021994 -0.096482
   vertex 0.036523 0.021994 -0.090401
   vertex 0.010396 0.011999 -0.106996
  endloop
 endfacet
 facet normal -0.969111 -0.011706 0.246346
  outer loop
   vertex -0.053900 0.174002 0.023997
   vertex -0.060000 0.174002 -0.000000
   vertex -0.059001 0.091299 -0.000000
  endloop
 endfacet
 facet normal -0.969111 -0.011706 -0.246346
  outer loop
   vertex -0.060000 0.174002 -0.000000
   vertex -0.053900 0.174002 -0.023997
   vertex -0.059001 0.091299 -0.000000
  endloop
 endfacet
 facet normal 0.582181 0.137694 -0.801315
  outer loop
   vertex 0.024721 0.250006 -0.076085
   vertex 0.064722 0.250006 -0.047023
   vertex 0.045446 0.222006 -0.065839
  endloop
 endfacet
 facet normal -0.742859 0.028433 -0.668844
  outer loop
   vertex -0.053900 0.174002 -0.023997
   vertex -0.029501 0.174002 -0.051096
   vertex -0.048747 0.091299 -0.033236
  endloop
 endfacet
 facet normal -0.582181 0.137694 0.801315
  outer loop
   vertex -0.024722 0.250006 0.076085
   vertex -0.064723 0.250006 0.047023
   vertex -0.045447 0.222006 0.065839
  endloop
 endfacet
 facet normal 0.003023 0.999986 -0.004310
  outer loop
   vertex -0.132731 0.011999 -0.135928
   vertex -0.140322 0.012106 -0.116428
   vertex -0.120001 0.011999 -0.127000
  endloop
 endfacet
 facet normal -0.308967 0.012716 -0.950988
  outer loop
   vertex -0.029501 0.174002 -0.051096
   vertex -0.006167 0.174002 -0.058677
   vertex -0.013129 0.091299 -0.057521
  endloop
 endfacet
 facet normal -0.079648 -0.007228 -0.996797
  outer loop
   vertex -0.006167 0.174002 -0.058677
   vertex 0.006273 0.174002 -0.059671
   vertex -0.013129 0.091299 -0.057521
  endloop
 endfacet
 facet normal 0.426912 -0.123442 -0.895828
  outer loop
   vertex 0.006273 0.174002 -0.059671
   vertex 0.039480 0.174002 -0.043846
   vertex -0.013129 0.091299 -0.057521
  endloop
 endfacet
 facet normal 0.000000 1.000000 0.000000
  outer loop
   vertex -0.078253 0.250006 0.016633
   vertex -0.064723 0.250006 0.047023
   vertex -0.057570 0.250006 0.016904
  endloop
 endfacet
 facet normal 0.808850 -0.022679 -0.587577
  outer loop
   vertex 0.039480 0.174002 -0.043846
   vertex 0.053899 0.174002 -0.023997
   vertex 0.056379 0.091299 -0.017391
  endloop
 endfacet
 facet normal 0.000000 -1.000000 0.000000
  outer loop
   vertex 0.022962 0.000006 0.055433
   vertex 0.120000 0.000006 0.140000
   vertex -0.120635 0.000006 0.140000
  endloop
 endfacet
 facet normal 0.994272 -0.022475 -0.104488
  outer loop
   vertex 0.053899 0.174002 -0.023997
   vertex 0.057710 0.174002 0.012267
   vertex 0.056379 0.091299 0.017391
  endloop
 endfacet
 facet normal 0.864772 0.212701 -0.454892
  outer loop
   vertex 0.042425 0.256994 -0.042426
   vertex 0.058999 0.256994 -0.010918
   vertex 0.057569 0.250006 -0.016904
  endloop
 endfacet
 facet normal 0.000000 1.000000 0.000000
  outer loop
   vertex -0.070838 0.222006 -0.037178
   vertex -0.045447 0.222006 -0.065839
   vertex -0.063567 0.222006 -0.070599
  endloop
 endfacet
 facet normal -0.057941 -0.972037 -0.227569
  outer loop
   vertex -0.103987 0.172735 -0.077875
   vertex -0.060786 0.169775 -0.076231
   vertex -0.068759 0.169775 -0.074201
  endloop
 endfacet
 facet normal -0.473396 0.483065 -0.736576
  outer loop
   vertex -0.024924 0.250006 -0.054578
   vertex -0.039290 0.250006 -0.045345
   vertex -0.010916 0.256994 -0.058998
  endloop
 endfacet
 facet normal 0.000000 -1.000000 0.000000
  outer loop
   vertex -0.133101 0.000006 -0.135639
   vertex -0.120001 0.000006 -0.127000
   vertex -0.140132 0.000006 -0.124457
  endloop
 endfacet
 facet normal -0.819931 -0.082728 0.566454
  outer loop
   vertex -0.089488 0.172781 0.038708
   vertex -0.064555 0.169775 0.074359
   vertex -0.078879 0.194998 0.057309
  endloop
 endfacet
 facet normal 0.000000 -1.000000 0.000000
  outer loop
   vertex -0.060000 0.000006 0.000000
   vertex -0.042426 0.000006 0.042426
   vertex -0.115050 0.000006 0.115050
  endloop
 endfacet
 facet normal -0.979029 0.021401 -0.202594
  outer loop
   vertex -0.089488 0.172781 -0.038708
   vertex -0.097498 0.172781 0.000000
   vertex -0.092925 0.194998 -0.019752
  endloop
 endfacet
 facet normal 0.000000 1.000000 0.000000
  outer loop
   vertex -0.009932 0.222006 0.094480
   vertex 0.047498 0.222006 0.082272
   vertex 0.045446 0.222006 0.065839
  endloop
 endfacet
 facet normal -0.831714 -0.149949 -0.534571
  outer loop
   vertex -0.039290 0.250006 -0.045345
   vertex -0.057570 0.250006 -0.016904
   vertex -0.042426 0.256994 -0.042426
  endloop
 endfacet
 facet normal 0.000000 1.000000 0.000000
  outer loop
   vertex -0.113001 0.011999 -0.120000
   vertex -0.120001 0.011999 -0.113000
   vertex -0.123427 0.011999 -0.093996
  endloop
 endfacet
 facet normal 0.000000 1.000000 0.000000
  outer loop
   vertex 0.107000 0.179998 0.003000
   vertex 0.099878 0.179998 0.002121
   vertex 0.096681 0.179998 0.012612
  endloop
 endfacet
 facet normal 0.000000 1.000000 0.000000
  outer loop
   vertex -0.057570 0.250006 0.016904
   vertex -0.057570 0.250006 -0.016904
   vertex -0.078253 0.250006 0.016633
  endloop
 endfacet
 facet normal 0.000000 -0.999983 -0.005811
  outer loop
   vertex -0.155001 0.230001 0.050000
   vertex -0.131396 0.229803 0.084073
   vertex -0.205000 0.230001 0.050000
  endloop
 endfacet
 facet normal 0.000000 -1.000000 0.000000
  outer loop
   vertex -0.013129 0.091299 -0.057521
   vertex -0.016562 0.091299 -0.050361
   vertex -0.048747 0.091299 -0.033236
  endloop
 endfacet
 facet normal 0.000000 1.000000 0.000000
  outer loop
   vertex -0.009642 0.222006 0.079417
   vertex -0.045447 0.222006 0.065839
   vertex -0.047499 0.222006 0.082272
  endloop
 endfacet
 facet normal 0.000000 -1.000000 0.000000
  outer loop
   vertex 0.022962 0.000006 0.055433
   vertex 0.140001 0.000006 0.120000
   vertex 0.115049 0.000006 0.115050
  endloop
 endfacet
 facet normal -0.330183 -0.012558 -0.943833
  outer loop
   vertex -0.120635 0.000006 -0.140000
   vertex -0.133101 0.000006 -0.135639
   vertex -0.132731 0.011999 -0.135928
  endloop
 endfacet
 facet normal 0.000000 1.000000 0.000000
  outer loop
   vertex 0.067556 0.011999 -0.083620
   vertex 0.111856 0.011999 -0.013000
   vertex 0.120000 0.011999 -0.113000
  endloop
 endfacet
 facet normal 0.000000 -1.000000 0.000000
  outer loop
   vertex -0.016562 0.091299 -0.050361
   vertex -0.013129 0.091299 -0.057521
   vertex 0.007062 0.091299 -0.050361
  endloop
 endfacet
 facet normal 0.000000 1.000000 0.000000
  outer loop
   vertex -0.078253 0.250006 -0.016633
   vertex -0.078253 0.250006 0.016633
   vertex -0.057570 0.250006 -0.016904
  endloop
 endfacet
 facet normal 0.901477 -0.003277 -0.432814
  outer loop
   vertex 0.099626 0.014929 -0.012731
   vertex 0.077127 0.021994 -0.059646
   vertex 0.078878 0.194998 -0.057309
  endloop
 endfacet
 facet normal 0.000000 1.000000 0.000000
  outer loop
   vertex 0.101999 0.179998 -0.003000
   vertex 0.107000 0.179998 -0.003000
   vertex 0.096681 0.179998 -0.012612
  endloop
 endfacet
 facet normal 0.216195 -0.481922 0.849124
  outer loop
   vertex -0.078879 0.194998 -0.057309
   vertex -0.068759 0.169775 -0.074201
   vertex -0.060786 0.169775 -0.076231
  endloop
 endfacet
 facet normal 0.243478 0.967839 -0.063287
  outer loop
   vertex 0.109857 0.015005 0.010000
   vertex 0.101728 0.017050 0.010000
   vertex 0.140001 0.011999 0.080000
  endloop
 endfacet
 facet normal 0.000000 -1.000000 0.000000
  outer loop
   vertex -0.022959 0.000006 -0.055433
   vertex 0.120000 0.000006 -0.140000
   vertex 0.022962 0.000006 -0.055433
  endloop
 endfacet
 facet normal 0.010974 0.999880 0.010974
  outer loop
   vertex -0.127001 0.011999 -0.120000
   vertex -0.120001 0.011999 -0.127000
   vertex -0.140322 0.012106 -0.116428
  endloop
 endfacet
 facet normal 0.000000 1.000000 0.000000
  outer loop
   vertex -0.113001 0.000006 -0.120000
   vertex -0.120635 0.000006 -0.140000
   vertex -0.115050 0.000006 -0.115050
  endloop
 endfacet
 facet normal -0.923968 0.000000 0.382469
  outer loop
   vertex -0.113001 0.000006 0.120000
   vertex -0.115050 0.011999 0.115050
   vertex -0.115050 0.000006 0.115050
  endloop
 endfacet
 facet normal 0.382759 0.000000 -0.923848
  outer loop
   vertex -0.124949 0.000006 -0.115050
   vertex -0.120001 0.011999 -0.113000
   vertex -0.120001 0.000006 -0.113000
  endloop
 endfacet
 facet normal 0.000000 1.000000 0.000000
  outer loop
   vertex -0.063567 0.222006 -0.070599
   vertex -0.092925 0.222006 -0.019752
   vertex -0.070838 0.222006 -0.037178
  endloop
 endfacet
 facet normal 0.382561 0.000000 -0.923930
  outer loop
   vertex 0.115049 0.000006 -0.115050
   vertex 0.120000 0.011999 -0.113000
   vertex 0.120000 0.000006 -0.113000
  endloop
 endfacet
 facet normal 0.007747 0.999969 -0.001065
  outer loop
   vertex -0.140322 0.012106 -0.116428
   vertex -0.123427 0.011999 -0.093996
   vertex -0.127001 0.011999 -0.120000
  endloop
 endfacet
 facet normal 0.923969 0.000000 -0.382467
  outer loop
   vertex 0.115049 0.011999 0.124950
   vertex 0.113000 0.000006 0.120000
   vertex 0.113000 0.011999 0.120000
  endloop
 endfacet
 facet normal -0.382759 0.000000 -0.923848
  outer loop
   vertex 0.124948 0.011999 -0.115050
   vertex 0.120000 0.000006 -0.113000
   vertex 0.120000 0.011999 -0.113000
  endloop
 endfacet
 facet normal 0.000000 1.000000 0.000000
  outer loop
   vertex 0.124948 0.011999 0.115050
   vertex 0.127000 0.011999 0.120000
   vertex 0.134141 0.011999 0.134142
  endloop
 endfacet
 facet normal 0.004270 0.999985 -0.003413
  outer loop
   vertex -0.131396 0.229803 0.084073
   vertex -0.128802 0.229223 -0.082593
   vertex -0.205000 0.230001 0.050000
  endloop
 endfacet
 facet normal 0.000000 0.078138 0.996943
  outer loop
   vertex 0.101999 0.179998 -0.003000
   vertex 0.099878 0.168783 -0.002121
   vertex 0.107000 0.179998 -0.003000
  endloop
 endfacet
 facet normal 0.696985 -0.168594 -0.696985
  outer loop
   vertex 0.120000 0.011999 -0.113000
   vertex 0.115049 0.000006 -0.115050
   vertex 0.113000 0.011999 -0.120000
  endloop
 endfacet
 facet normal 0.999788 -0.020567 0.000000
  outer loop
   vertex 0.078252 0.250006 -0.016633
   vertex 0.078252 0.250006 0.016633
   vertex 0.077676 0.222006 -0.019145
  endloop
 endfacet
 facet normal 0.000000 -1.000000 0.000000
  outer loop
   vertex 0.140001 0.011999 0.080000
   vertex 0.113000 0.011999 0.120000
   vertex 0.115049 0.011999 0.115050
  endloop
 endfacet
 facet normal 0.519289 0.854583 0.005108
  outer loop
   vertex -0.119509 0.222601 0.080534
   vertex -0.128802 0.229223 -0.082593
   vertex -0.131396 0.229803 0.084073
  endloop
 endfacet
 facet normal 0.018514 -0.003374 -0.999823
  outer loop
   vertex -0.155497 0.226995 -0.123831
   vertex -0.152831 0.016439 -0.123071
   vertex -0.260001 0.000006 -0.125000
  endloop
 endfacet
 facet normal 0.923969 0.000000 -0.382467
  outer loop
   vertex 0.113000 0.000006 -0.120000
   vertex 0.113000 0.011999 -0.120000
   vertex 0.115049 0.000006 -0.115050
  endloop
 endfacet
 facet normal 0.930820 0.016870 -0.365088
  outer loop
   vertex 0.096681 0.179998 -0.012612
   vertex 0.099626 0.014929 -0.012731
   vertex 0.078878 0.194998 -0.057309
  endloop
 endfacet
 facet normal 0.000000 -1.000000 0.000000
  outer loop
   vertex 0.134141 0.000006 0.134142
   vertex 0.120000 0.000006 0.127000
   vertex 0.140001 0.000006 0.120000
  endloop
 endfacet
 facet normal 0.000000 1.000000 0.000000
  outer loop
   vertex -0.024924 0.250006 -0.054578
   vertex 0.008539 0.250006 -0.059389
   vertex 0.024721 0.250006 -0.076085
  endloop
 endfacet
 facet normal -0.664174 0.121447 0.737647
  outer loop
   vertex -0.048750 0.194998 0.084437
   vertex -0.078879 0.194998 0.057309
   vertex -0.064555 0.169775 0.074359
  endloop
 endfacet
 facet normal 0.000000 -1.000000 0.000000
  outer loop
   vertex 0.120000 0.000006 0.127000
   vertex 0.120000 0.000006 0.140000
   vertex 0.113000 0.000006 0.120000
  endloop
 endfacet
 facet normal 0.928504 -0.004382 0.371297
  outer loop
   vertex 0.078878 0.194998 0.057309
   vertex 0.077127 0.021994 0.059646
   vertex 0.096681 0.179998 0.012612
  endloop
 endfacet
 facet normal 0.546134 0.102514 -0.831402
  outer loop
   vertex 0.022085 0.256994 -0.055787
   vertex 0.042425 0.256994 -0.042426
   vertex 0.039293 0.250006 -0.045345
  endloop
 endfacet
 facet normal 0.915552 0.402199 0.000000
  outer loop
   vertex -0.103987 0.172735 0.077875
   vertex -0.103987 0.172735 -0.077875
   vertex -0.128802 0.229223 -0.082593
  endloop
 endfacet
 facet normal 0.000000 -1.000000 0.000000
  outer loop
   vertex 0.120000 0.000006 -0.140000
   vertex -0.115050 0.000006 -0.115050
   vertex -0.120635 0.000006 -0.140000
  endloop
 endfacet
 facet normal 0.953323 0.298993 -0.042171
  outer loop
   vertex -0.128802 0.229223 -0.082593
   vertex -0.119509 0.222601 0.080534
   vertex -0.103987 0.172735 0.077875
  endloop
 endfacet
 facet normal -0.017142 0.013041 -0.999768
  outer loop
   vertex -0.260001 0.000006 -0.125000
   vertex -0.260001 0.230001 -0.122000
   vertex -0.155497 0.226995 -0.123831
  endloop
 endfacet
 facet normal 0.000000 1.000000 0.000000
  outer loop
   vertex 0.057569 0.250006 -0.016904
   vertex 0.057569 0.250006 0.016904
   vertex 0.078252 0.250006 0.016633
  endloop
 endfacet
 facet normal 0.913468 0.012568 0.406717
  outer loop
   vertex 0.092924 0.222006 0.019752
   vertex 0.076856 0.222006 0.055840
   vertex 0.096681 0.179998 0.012612
  endloop
 endfacet
 facet normal 0.669102 0.000000 0.743171
  outer loop
   vertex 0.076856 0.222006 0.055840
   vertex 0.047498 0.222006 0.082272
   vertex 0.047498 0.194998 0.082272
  endloop
 endfacet
 facet normal 0.000000 1.000000 0.000000
  outer loop
   vertex -0.076857 0.222006 0.055840
   vertex -0.047499 0.222006 0.082272
   vertex -0.045447 0.222006 0.065839
  endloop
 endfacet
 facet normal 0.207926 0.000000 0.978145
  outer loop
   vertex 0.047498 0.222006 0.082272
   vertex -0.009932 0.222006 0.094480
   vertex 0.047498 0.194998 0.082272
  endloop
 endfacet
 facet normal -0.308148 0.076626 0.948247
  outer loop
   vertex -0.009932 0.222006 0.094480
   vertex -0.047499 0.222006 0.082272
   vertex -0.029357 0.194998 0.090350
  endloop
 endfacet
 facet normal 0.000000 1.000000 0.000000
  outer loop
   vertex 0.127000 0.011999 0.120000
   vertex 0.120000 0.011999 0.127000
   vertex 0.134141 0.011999 0.134142
  endloop
 endfacet
 facet normal 0.000000 -1.000000 0.000000
  outer loop
   vertex 0.140001 0.000006 -0.120000
   vertex 0.120000 0.000006 -0.127000
   vertex 0.134141 0.000006 -0.134142
  endloop
 endfacet
 facet normal -0.667134 0.076643 0.740985
  outer loop
   vertex -0.047499 0.222006 0.082272
   vertex -0.076857 0.222006 0.055840
   vertex -0.063567 0.194998 0.070599
  endloop
 endfacet
 facet normal -0.890821 -0.221632 0.396633
  outer loop
   vertex -0.076857 0.222006 0.055840
   vertex -0.092925 0.222006 0.019752
   vertex -0.095000 0.194998 -0.000000
  endloop
 endfacet
 facet normal 0.000000 1.000000 0.000000
  outer loop
   vertex -0.045447 0.222006 0.065839
   vertex -0.077673 0.222006 0.019145
   vertex -0.076857 0.222006 0.055840
  endloop
 endfacet
 facet normal 0.000000 -1.000000 0.000000
  outer loop
   vertex 0.007062 0.091299 -0.050361
   vertex -0.013129 0.091299 -0.057521
   vertex 0.036787 0.091299 -0.046128
  endloop
 endfacet
 facet normal -1.000000 0.000000 0.000000
  outer loop
   vertex -0.092925 0.222006 0.019752
   vertex -0.092925 0.222006 -0.019752
   vertex -0.092925 0.194998 -0.019752
  endloop
 endfacet
 facet normal -0.841151 0.237901 -0.485663
  outer loop
   vertex -0.092925 0.222006 -0.019752
   vertex -0.063567 0.222006 -0.070599
   vertex -0.078879 0.194998 -0.057309
  endloop
 endfacet
 facet normal 0.000000 -1.000000 0.000000
  outer loop
   vertex 0.124948 0.011999 -0.115050
   vertex 0.120000 0.011999 -0.113000
   vertex 0.134141 0.011999 -0.134142
  endloop
 endfacet
 facet normal -0.497030 0.108777 -0.860888
  outer loop
   vertex -0.063567 0.222006 -0.070599
   vertex -0.029357 0.222006 -0.090350
   vertex -0.068759 0.169775 -0.074201
  endloop
 endfacet
 facet normal 0.000000 1.000000 0.000000
  outer loop
   vertex 0.008539 0.250006 0.059389
   vertex -0.008540 0.250006 0.059389
   vertex 0.024721 0.250006 0.076085
  endloop
 endfacet
 facet normal 0.000000 1.000000 0.000000
  outer loop
   vertex 0.113000 0.011999 -0.120000
   vertex 0.120000 0.011999 -0.140000
   vertex 0.067556 0.011999 -0.083620
  endloop
 endfacet
 facet normal -0.104237 0.076661 -0.991593
  outer loop
   vertex -0.029357 0.222006 -0.090350
   vertex 0.009931 0.222006 -0.094480
   vertex -0.009932 0.194998 -0.094480
  endloop
 endfacet
 facet normal 0.000000 1.000000 0.000000
  outer loop
   vertex -0.120001 0.011999 -0.113000
   vertex -0.127001 0.011999 -0.120000
   vertex -0.123427 0.011999 -0.093996
  endloop
 endfacet
 facet normal 0.301370 -0.221642 -0.927389
  outer loop
   vertex 0.009931 0.222006 -0.094480
   vertex 0.047498 0.222006 -0.082272
   vertex -0.009932 0.194998 -0.094480
  endloop
 endfacet
 facet normal 0.666377 0.090147 -0.740145
  outer loop
   vertex 0.047498 0.222006 -0.082272
   vertex 0.076856 0.222006 -0.055840
   vertex 0.078878 0.194998 -0.057309
  endloop
 endfacet
 facet normal 0.913468 0.012568 -0.406717
  outer loop
   vertex 0.076856 0.222006 -0.055840
   vertex 0.092924 0.222006 -0.019752
   vertex 0.096681 0.179998 -0.012612
  endloop
 endfacet
 facet normal 0.996025 0.089080 0.000000
  outer loop
   vertex 0.092924 0.222006 -0.019752
   vertex 0.092924 0.222006 0.019752
   vertex 0.096681 0.179998 -0.012612
  endloop
 endfacet
 facet normal 0.000000 1.000000 0.000000
  outer loop
   vertex 0.047498 0.194998 0.082272
   vertex 0.009931 0.194998 0.094480
   vertex 0.030130 0.194998 0.092728
  endloop
 endfacet
 facet normal -0.696985 -0.168594 -0.696985
  outer loop
   vertex -0.113001 0.011999 -0.120000
   vertex -0.115050 0.000006 -0.115050
   vertex -0.120001 0.011999 -0.113000
  endloop
 endfacet
 facet normal 0.935232 0.088661 -0.342753
  outer loop
   vertex 0.096681 0.179998 -0.012612
   vertex 0.078878 0.194998 -0.057309
   vertex 0.076856 0.222006 -0.055840
  endloop
 endfacet
 facet normal 0.622549 0.000000 -0.782581
  outer loop
   vertex 0.078878 0.194998 -0.057309
   vertex 0.047498 0.194998 -0.082272
   vertex 0.047498 0.222006 -0.082272
  endloop
 endfacet
 facet normal 0.207926 0.000000 -0.978145
  outer loop
   vertex 0.047498 0.194998 -0.082272
   vertex -0.009932 0.194998 -0.094480
   vertex 0.047498 0.222006 -0.082272
  endloop
 endfacet
 facet normal -0.931657 0.020000 -0.362787
  outer loop
   vertex -0.140322 0.012106 -0.116428
   vertex -0.132731 0.011999 -0.135928
   vertex -0.133101 0.000006 -0.135639
  endloop
 endfacet
 facet normal 0.382561 0.000000 0.923930
  outer loop
   vertex 0.115049 0.011999 0.115050
   vertex 0.120000 0.000006 0.113000
   vertex 0.120000 0.011999 0.113000
  endloop
 endfacet
 facet normal -0.298502 -0.069129 -0.951902
  outer loop
   vertex -0.009932 0.194998 -0.094480
   vertex -0.068759 0.169775 -0.074201
   vertex -0.029357 0.222006 -0.090350
  endloop
 endfacet
 facet normal -0.913410 0.017563 0.406661
  outer loop
   vertex -0.064723 0.250006 0.047023
   vertex -0.078253 0.250006 0.016633
   vertex -0.077673 0.222006 0.019145
  endloop
 endfacet
 facet normal 0.000000 1.000000 0.000000
  outer loop
   vertex 0.039293 0.250006 -0.045345
   vertex 0.057569 0.250006 -0.016904
   vertex 0.064722 0.250006 -0.047023
  endloop
 endfacet
 facet normal -0.762699 0.119648 -0.635590
  outer loop
   vertex -0.068759 0.169775 -0.074201
   vertex -0.078879 0.194998 -0.057309
   vertex -0.063567 0.222006 -0.070599
  endloop
 endfacet
 facet normal -0.936639 0.000000 -0.350295
  outer loop
   vertex -0.078879 0.194998 -0.057309
   vertex -0.092925 0.194998 -0.019752
   vertex -0.092925 0.222006 -0.019752
  endloop
 endfacet
 facet normal 0.000000 -1.000000 0.000000
  outer loop
   vertex -0.260001 0.000006 -0.125000
   vertex -0.120001 0.000006 -0.113000
   vertex -0.260001 0.000006 0.125000
  endloop
 endfacet
 facet normal -0.983114 0.151064 -0.103279
  outer loop
   vertex -0.092925 0.194998 -0.019752
   vertex -0.095000 0.194998 -0.000000
   vertex -0.092925 0.222006 0.019752
  endloop
 endfacet
 facet normal 0.000000 1.000000 0.000000
  outer loop
   vertex -0.155001 0.230001 0.100000
   vertex -0.205000 0.230001 0.100000
   vertex -0.154120 0.230001 0.119837
  endloop
 endfacet
 facet normal 0.382717 0.000000 -0.923865
  outer loop
   vertex 0.134141 0.000006 -0.134142
   vertex 0.120000 0.000006 -0.140000
   vertex 0.120000 0.011999 -0.140000
  endloop
 endfacet
 facet normal -0.890828 -0.221612 0.396626
  outer loop
   vertex -0.095000 0.194998 -0.000000
   vertex -0.063567 0.194998 0.070599
   vertex -0.076857 0.222006 0.055840
  endloop
 endfacet
 facet normal 0.000000 1.000000 0.000000
  outer loop
   vertex 0.120000 0.011999 0.127000
   vertex 0.115049 0.011999 0.124950
   vertex 0.134141 0.011999 0.134142
  endloop
 endfacet
 facet normal -0.498528 -0.076610 0.863482
  outer loop
   vertex -0.063567 0.194998 0.070599
   vertex -0.029357 0.194998 0.090350
   vertex -0.047499 0.222006 0.082272
  endloop
 endfacet
 facet normal -0.459573 0.158771 -0.873833
  outer loop
   vertex -0.042426 0.256994 -0.042426
   vertex -0.010916 0.256994 -0.058998
   vertex -0.039290 0.250006 -0.045345
  endloop
 endfacet
 facet normal 0.090895 0.648343 0.755903
  outer loop
   vertex 0.036523 0.021994 0.090401
   vertex -0.014048 0.021994 0.096482
   vertex -0.019522 0.011999 0.105713
  endloop
 endfacet
 facet normal -0.104237 -0.076661 0.991593
  outer loop
   vertex -0.029357 0.194998 0.090350
   vertex 0.009931 0.194998 0.094480
   vertex -0.009932 0.222006 0.094480
  endloop
 endfacet
 facet normal 0.000000 1.000000 0.000000
  outer loop
   vertex -0.039290 0.250006 -0.045345
   vertex -0.024924 0.250006 -0.054578
   vertex -0.024722 0.250006 -0.076085
  endloop
 endfacet
 facet normal 0.301370 0.221642 0.927389
  outer loop
   vertex 0.009931 0.194998 0.094480
   vertex 0.047498 0.194998 0.082272
   vertex -0.009932 0.222006 0.094480
  endloop
 endfacet
 facet normal 0.455000 0.833667 -0.313009
  outer loop
   vertex -0.140322 0.012106 -0.116428
   vertex -0.152831 0.016439 -0.123071
   vertex -0.131095 0.017004 -0.089970
  endloop
 endfacet
 facet normal 0.620088 0.088821 0.779488
  outer loop
   vertex 0.047498 0.194998 0.082272
   vertex 0.078878 0.194998 0.057309
   vertex 0.076856 0.222006 0.055840
  endloop
 endfacet
 facet normal 0.935232 0.088661 0.342753
  outer loop
   vertex 0.078878 0.194998 0.057309
   vertex 0.096681 0.179998 0.012612
   vertex 0.076856 0.222006 0.055840
  endloop
 endfacet
 facet normal -1.000000 0.000000 0.000000
  outer loop
   vertex -0.205000 0.230001 0.100000
   vertex -0.205000 0.233007 0.100000
   vertex -0.205000 0.230001 0.050000
  endloop
 endfacet
 facet normal 0.996025 0.089080 0.000000
  outer loop
   vertex 0.096681 0.179998 0.012612
   vertex 0.096681 0.179998 -0.012612
   vertex 0.092924 0.222006 0.019752
  endloop
 endfacet
 facet normal 0.913408 0.017693 -0.406660
  outer loop
   vertex 0.064722 0.250006 -0.047023
   vertex 0.078252 0.250006 -0.016633
   vertex 0.077676 0.222006 -0.019145
  endloop
 endfacet
 facet normal 0.000000 1.000000 0.000000
  outer loop
   vertex 0.006273 0.174002 -0.059671
   vertex -0.006167 0.174002 -0.058677
   vertex -0.018542 0.174002 -0.057063
  endloop
 endfacet
 facet normal -0.038028 0.999203 0.012160
  outer loop
   vertex -0.260001 0.230001 -0.122000
   vertex -0.260001 0.226995 0.125000
   vertex -0.205000 0.230001 0.050000
  endloop
 endfacet
 facet normal 0.923771 0.000000 -0.382946
  outer loop
   vertex -0.127001 0.000006 -0.120000
   vertex -0.127001 0.011999 -0.120000
   vertex -0.124949 0.000006 -0.115050
  endloop
 endfacet
 facet normal 0.000000 1.000000 0.000000
  outer loop
   vertex 0.064722 0.250006 -0.047023
   vertex 0.024721 0.250006 -0.076085
   vertex 0.039293 0.250006 -0.045345
  endloop
 endfacet
 facet normal 0.000000 -1.000000 0.000000
  outer loop
   vertex -0.127001 0.000006 -0.120000
   vertex -0.140132 0.000006 -0.124457
   vertex -0.120001 0.000006 -0.127000
  endloop
 endfacet
 facet normal 0.000000 1.000000 0.000000
  outer loop
   vertex -0.024722 0.250006 -0.076085
   vertex -0.064723 0.250006 -0.047023
   vertex -0.039290 0.250006 -0.045345
  endloop
 endfacet
 facet normal 0.000000 1.000000 0.000000
  outer loop
   vertex 0.099878 0.168783 0.002121
   vertex 0.107000 0.168783 0.003000
   vertex 0.099878 0.168783 -0.002121
  endloop
 endfacet
 facet normal 0.000000 1.000000 0.000000
  outer loop
   vertex -0.024722 0.250006 0.076085
   vertex 0.024721 0.250006 0.076085
   vertex -0.008540 0.250006 0.059389
  endloop
 endfacet
 facet normal 0.000000 1.000000 0.000000
  outer loop
   vertex 0.107000 0.168783 0.003000
   vertex 0.107000 0.168783 -0.003000
   vertex 0.099878 0.168783 -0.002121
  endloop
 endfacet
 facet normal 0.000000 1.000000 0.000000
  outer loop
   vertex -0.009642 0.222006 -0.079417
   vertex 0.045446 0.222006 -0.065839
   vertex 0.009931 0.222006 -0.094480
  endloop
 endfacet
 facet normal -0.864750 0.212996 0.454798
  outer loop
   vertex -0.042426 0.256994 0.042426
   vertex -0.058997 0.256994 0.010918
   vertex -0.057570 0.250006 0.016904
  endloop
 endfacet
 facet normal -0.707107 0.000000 -0.707107
  outer loop
   vertex 0.127000 0.011999 0.120000
   vertex 0.120000 0.000006 0.127000
   vertex 0.120000 0.011999 0.127000
  endloop
 endfacet
 facet normal 0.000000 -1.000000 0.000000
  outer loop
   vertex 0.113000 0.000006 -0.120000
   vertex 0.120000 0.000006 -0.140000
   vertex 0.120000 0.000006 -0.127000
  endloop
 endfacet
 facet normal -0.310802 0.028176 -0.950057
  outer loop
   vertex -0.014048 0.021994 -0.096482
   vertex -0.067889 0.013342 -0.079125
   vertex -0.068759 0.169775 -0.074201
  endloop
 endfacet
 facet normal -1.000000 0.000000 0.000000
  outer loop
   vertex 0.107000 0.168783 -0.003000
   vertex 0.107000 0.168783 0.003000
   vertex 0.107000 0.179998 -0.010000
  endloop
 endfacet
 facet normal -0.054572 0.998510 0.000000
  outer loop
   vertex -0.205000 0.230001 0.050000
   vertex -0.260001 0.226995 0.125000
   vertex -0.205000 0.230001 0.100000
  endloop
 endfacet
 facet normal 0.000000 1.000000 0.000000
  outer loop
   vertex 0.092924 0.222006 0.019752
   vertex 0.092924 0.222006 -0.019752
   vertex 0.077676 0.222006 -0.019145
  endloop
 endfacet
 facet normal 0.582181 0.137694 0.801315
  outer loop
   vertex 0.064722 0.250006 0.047023
   vertex 0.024721 0.250006 0.076085
   vertex 0.045446 0.222006 0.065839
  endloop
 endfacet
 facet normal -0.707107 0.000000 -0.707107
  outer loop
   vertex -0.113001 0.011999 0.120000
   vertex -0.113001 0.000006 0.120000
   vertex -0.120001 0.011999 0.127000
  endloop
 endfacet
 facet normal 0.000000 1.000000 0.000000
  outer loop
   vertex -0.092925 0.222006 0.019752
   vertex -0.076857 0.222006 0.055840
   vertex -0.077673 0.222006 0.019145
  endloop
 endfacet
 facet normal 0.000000 1.000000 0.000000
  outer loop
   vertex -0.120635 0.011999 -0.140000
   vertex -0.132731 0.011999 -0.135928
   vertex -0.120001 0.011999 -0.127000
  endloop
 endfacet
 facet normal 0.000000 -1.000000 0.000000
  outer loop
   vertex 0.022962 0.000006 -0.055433
   vertex 0.120000 0.000006 -0.140000
   vertex 0.115049 0.000006 -0.115050
  endloop
 endfacet
 facet normal -0.293502 0.007682 0.955927
  outer loop
   vertex -0.014048 0.021994 0.096482
   vertex -0.048750 0.194998 0.084437
   vertex -0.067721 0.012854 0.080076
  endloop
 endfacet
 facet normal 0.000000 -1.000000 0.000000
  outer loop
   vertex -0.120001 0.000006 -0.113000
   vertex -0.060000 0.000006 0.000000
   vertex -0.115050 0.000006 0.115050
  endloop
 endfacet
 facet normal -0.975215 -0.090720 0.201805
  outer loop
   vertex -0.097498 0.172781 0.000000
   vertex -0.089488 0.172781 0.038708
   vertex -0.095370 0.194998 0.020271
  endloop
 endfacet
 facet normal 0.153629 0.751483 -0.641616
  outer loop
   vertex -0.131095 0.017004 -0.089970
   vertex -0.067889 0.013342 -0.079125
   vertex -0.123427 0.011999 -0.093996
  endloop
 endfacet
 facet normal 0.000000 1.000000 0.000000
  outer loop
   vertex 0.076856 0.222006 0.055840
   vertex 0.092924 0.222006 0.019752
   vertex 0.070836 0.222006 0.037178
  endloop
 endfacet
 facet normal -0.992229 -0.031356 -0.120411
  outer loop
   vertex -0.070838 0.222006 -0.037178
   vertex -0.077673 0.222006 0.019145
   vertex -0.078253 0.250006 0.016633
  endloop
 endfacet
 facet normal 0.000000 -1.000000 0.000000
  outer loop
   vertex 0.099878 0.179998 0.002121
   vertex 0.101999 0.179998 -0.003000
   vertex 0.096681 0.179998 0.012612
  endloop
 endfacet
 facet normal 0.000000 -1.000000 0.000000
  outer loop
   vertex -0.115050 0.000006 0.115050
   vertex -0.042426 0.000006 0.042426
   vertex -0.120635 0.000006 0.140000
  endloop
 endfacet
 facet normal 0.170822 0.031948 -0.984784
  outer loop
   vertex -0.068759 0.169775 -0.074201
   vertex -0.067889 0.013342 -0.079125
   vertex -0.131095 0.017004 -0.089970
  endloop
 endfacet
 facet normal 0.310563 0.046043 0.949437
  outer loop
   vertex -0.131396 0.229803 0.084073
   vertex -0.103987 0.172735 0.077875
   vertex -0.119509 0.222601 0.080534
  endloop
 endfacet
 facet normal -0.979780 -0.200078 0.000000
  outer loop
   vertex -0.057570 0.250006 -0.016904
   vertex -0.057570 0.250006 0.016904
   vertex -0.058997 0.256994 0.010918
  endloop
 endfacet
 facet normal -0.831714 -0.149949 0.534571
  outer loop
   vertex -0.057570 0.250006 0.016904
   vertex -0.039290 0.250006 0.045345
   vertex -0.042426 0.256994 0.042426
  endloop
 endfacet
 facet normal -0.393750 -0.318879 0.862135
  outer loop
   vertex -0.039290 0.250006 0.045345
   vertex -0.008540 0.250006 0.059389
   vertex -0.022086 0.256994 0.055787
  endloop
 endfacet
 facet normal -0.909386 0.095248 0.404900
  outer loop
   vertex -0.078879 0.194998 0.057309
   vertex -0.095370 0.194998 0.020271
   vertex -0.089488 0.172781 0.038708
  endloop
 endfacet
 facet normal 0.000000 0.458169 0.888865
  outer loop
   vertex -0.008540 0.250006 0.059389
   vertex 0.008539 0.250006 0.059389
   vertex -0.022086 0.256994 0.055787
  endloop
 endfacet
 facet normal 0.281430 -0.042211 0.958653
  outer loop
   vertex 0.008539 0.250006 0.059389
   vertex 0.024927 0.250006 0.054578
   vertex 0.010919 0.256994 0.058998
  endloop
 endfacet
 facet normal 0.235606 -0.175397 -0.955890
  outer loop
   vertex 0.045446 0.222006 -0.065839
   vertex -0.009642 0.222006 -0.079417
   vertex 0.024721 0.250006 -0.076085
  endloop
 endfacet
 facet normal 0.000000 1.000000 0.000000
  outer loop
   vertex -0.120635 0.000006 0.140000
   vertex -0.113001 0.000006 0.120000
   vertex -0.115050 0.000006 0.115050
  endloop
 endfacet
 facet normal 0.017857 0.979748 0.199437
  outer loop
   vertex -0.131648 0.018255 0.089683
   vertex -0.139956 0.013281 0.114862
   vertex -0.127001 0.011999 0.120000
  endloop
 endfacet
 facet normal -0.353460 -0.079447 -0.932070
  outer loop
   vertex -0.009642 0.222006 -0.079417
   vertex -0.045447 0.222006 -0.065839
   vertex -0.024722 0.250006 -0.076085
  endloop
 endfacet
 facet normal 0.000000 1.000000 0.000000
  outer loop
   vertex 0.140001 0.000006 0.120000
   vertex 0.120000 0.000006 0.113000
   vertex 0.115049 0.000006 0.115050
  endloop
 endfacet
 facet normal 0.000000 -1.000000 0.000000
  outer loop
   vertex -0.050700 0.091299 -0.002000
   vertex -0.059001 0.091299 -0.000000
   vertex -0.048747 0.091299 -0.033236
  endloop
 endfacet
 facet normal 0.000000 1.000000 0.000000
  outer loop
   vertex 0.115049 0.011999 0.115050
   vertex 0.120000 0.011999 0.113000
   vertex 0.140001 0.011999 0.080000
  endloop
 endfacet
 facet normal 0.901656 0.127654 -0.413183
  outer loop
   vertex 0.099626 0.014929 -0.012731
   vertex 0.067556 0.011999 -0.083620
   vertex 0.077127 0.021994 -0.059646
  endloop
 endfacet
 facet normal 0.000000 -1.000000 0.000000
  outer loop
   vertex -0.120001 0.000006 0.127000
   vertex -0.133101 0.000006 0.135639
   vertex -0.127001 0.000006 0.120000
  endloop
 endfacet
 facet normal 0.393720 -0.318796 -0.862180
  outer loop
   vertex 0.039293 0.250006 -0.045345
   vertex 0.008539 0.250006 -0.059389
   vertex 0.022085 0.256994 -0.055787
  endloop
 endfacet
 facet normal 0.000000 1.000000 0.000000
  outer loop
   vertex 0.048540 0.174002 -0.035267
   vertex 0.039480 0.174002 -0.043846
   vertex 0.030000 0.174002 -0.051962
  endloop
 endfacet
 facet normal 0.839217 0.008663 -0.543727
  outer loop
   vertex -0.155497 0.226995 -0.123831
   vertex -0.128802 0.229223 -0.082593
   vertex -0.152831 0.016439 -0.123071
  endloop
 endfacet
 facet normal 0.000000 -1.000000 0.000000
  outer loop
   vertex -0.120635 0.000006 0.140000
   vertex 0.000001 0.000006 0.060000
   vertex 0.022962 0.000006 0.055433
  endloop
 endfacet
 facet normal 0.000000 0.118166 -0.992994
  outer loop
   vertex -0.024722 0.250006 -0.076085
   vertex 0.024721 0.250006 -0.076085
   vertex -0.009642 0.222006 -0.079417
  endloop
 endfacet
 facet normal 0.000000 1.000000 0.000000
  outer loop
   vertex 0.120000 0.011999 -0.127000
   vertex 0.127000 0.011999 -0.120000
   vertex 0.134141 0.011999 -0.134142
  endloop
 endfacet
 facet normal 0.000000 -1.000000 0.000000
  outer loop
   vertex 0.127000 0.000006 -0.120000
   vertex 0.140001 0.000006 -0.120000
   vertex 0.120000 0.000006 -0.113000
  endloop
 endfacet
 facet normal 0.000000 1.000000 0.000000
  outer loop
   vertex -0.048750 0.194998 0.084437
   vertex -0.010191 0.194998 0.096966
   vertex -0.029357 0.194998 0.090350
  endloop
 endfacet
 facet normal -0.327509 0.175625 -0.928382
  outer loop
   vertex 0.010396 0.011999 -0.106996
   vertex -0.067889 0.013342 -0.079125
   vertex -0.014048 0.021994 -0.096482
  endloop
 endfacet
 facet normal -1.000000 0.000000 0.000000
  outer loop
   vertex 0.107000 0.179998 0.010000
   vertex 0.107000 0.179998 -0.010000
   vertex 0.107000 0.168783 0.003000
  endloop
 endfacet
 facet normal -0.582181 0.137694 -0.801315
  outer loop
   vertex -0.064723 0.250006 -0.047023
   vertex -0.024722 0.250006 -0.076085
   vertex -0.045447 0.222006 -0.065839
  endloop
 endfacet
 facet normal 0.000000 -1.000000 0.000000
  outer loop
   vertex 0.039480 0.174002 -0.043846
   vertex 0.048540 0.174002 -0.035267
   vertex 0.053899 0.174002 -0.023997
  endloop
 endfacet
 facet normal 1.000000 0.000000 0.000000
  outer loop
   vertex 0.107000 0.021994 0.010000
   vertex 0.107000 0.179998 -0.010000
   vertex 0.107000 0.179998 0.010000
  endloop
 endfacet
 facet normal 0.000000 1.000000 0.000000
  outer loop
   vertex 0.030000 0.174002 0.051962
   vertex 0.039480 0.174002 0.043846
   vertex 0.048540 0.174002 0.035267
  endloop
 endfacet
 facet normal 0.980255 0.024831 0.196171
  outer loop
   vertex 0.111856 0.011999 -0.013000
   vertex 0.107000 0.179998 -0.010000
   vertex 0.107000 0.021994 0.010000
  endloop
 endfacet
 facet normal 0.000000 1.000000 0.000000
  outer loop
   vertex 0.070836 0.222006 0.037178
   vertex 0.045446 0.222006 0.065839
   vertex 0.076856 0.222006 0.055840
  endloop
 endfacet
 facet normal 0.707107 0.000000 0.707106
  outer loop
   vertex -0.120001 0.000006 -0.127000
   vertex -0.120001 0.011999 -0.127000
   vertex -0.127001 0.000006 -0.120000
  endloop
 endfacet
 facet normal 0.000000 -1.000000 0.000000
  outer loop
   vertex -0.095000 0.194998 -0.000000
   vertex -0.092925 0.194998 -0.019752
   vertex -0.095370 0.194998 0.020271
  endloop
 endfacet
 facet normal -0.546151 0.102205 0.831428
  outer loop
   vertex -0.022086 0.256994 0.055787
   vertex -0.042426 0.256994 0.042426
   vertex -0.039290 0.250006 0.045345
  endloop
 endfacet
 facet normal 0.707107 0.000000 -0.707106
  outer loop
   vertex 0.113000 0.000006 0.120000
   vertex 0.120000 0.011999 0.127000
   vertex 0.120000 0.000006 0.127000
  endloop
 endfacet
 facet normal 0.707107 0.000000 0.707106
  outer loop
   vertex 0.120000 0.000006 -0.127000
   vertex 0.120000 0.011999 -0.127000
   vertex 0.113000 0.000006 -0.120000
  endloop
 endfacet
 facet normal -0.999539 0.020044 0.022782
  outer loop
   vertex -0.050700 0.091299 -0.002000
   vertex -0.050593 0.075949 0.016200
   vertex -0.050261 0.091299 0.017261
  endloop
 endfacet
 facet normal -1.000000 0.000000 0.000000
  outer loop
   vertex -0.205000 0.233007 0.050000
   vertex -0.205000 0.230001 0.050000
   vertex -0.205000 0.233007 0.100000
  endloop
 endfacet
 facet normal 0.043688 -0.011822 -0.998975
  outer loop
   vertex -0.009932 0.194998 -0.094480
   vertex 0.030130 0.194998 -0.092728
   vertex 0.036523 0.021994 -0.090401
  endloop
 endfacet
 facet normal -0.134700 -0.322588 -0.936906
  outer loop
   vertex 0.008539 0.250006 -0.059389
   vertex -0.024924 0.250006 -0.054578
   vertex -0.010916 0.256994 -0.058998
  endloop
 endfacet
 facet normal 0.000000 1.000000 0.000000
  outer loop
   vertex 0.024927 0.250006 0.054578
   vertex 0.008539 0.250006 0.059389
   vertex 0.024721 0.250006 0.076085
  endloop
 endfacet
 facet normal 0.000000 -1.000000 0.000000
  outer loop
   vertex -0.113001 0.011999 0.120000
   vertex -0.120635 0.011999 0.140000
   vertex -0.104624 0.011999 0.090680
  endloop
 endfacet
 facet normal 0.000000 -1.000000 0.000000
  outer loop
   vertex 0.111856 0.011999 -0.013000
   vertex 0.116998 0.011999 0.000000
   vertex 0.140001 0.011999 0.080000
  endloop
 endfacet
 facet normal 0.432140 0.110344 0.895030
  outer loop
   vertex -0.103987 0.172735 0.077875
   vertex -0.131396 0.229803 0.084073
   vertex -0.067721 0.012854 0.080076
  endloop
 endfacet
 facet normal 0.000000 1.000000 0.000000
  outer loop
   vertex -0.047499 0.222006 0.082272
   vertex -0.009932 0.222006 0.094480
   vertex -0.009642 0.222006 0.079417
  endloop
 endfacet
 facet normal 0.000000 -1.000000 0.000000
  outer loop
   vertex -0.120001 0.000006 -0.127000
   vertex -0.120635 0.000006 -0.140000
   vertex -0.113001 0.000006 -0.120000
  endloop
 endfacet
 facet normal 0.890074 0.165960 0.424530
  outer loop
   vertex 0.101728 0.017050 0.010000
   vertex 0.077127 0.021994 0.059646
   vertex 0.067556 0.011999 0.083620
  endloop
 endfacet
 facet normal 0.000000 -1.000000 0.000000
  outer loop
   vertex 0.115049 0.000006 0.115050
   vertex 0.120000 0.000006 0.140000
   vertex 0.022962 0.000006 0.055433
  endloop
 endfacet
 facet normal 0.000000 -1.000000 0.000000
  outer loop
   vertex -0.140132 0.000006 0.124457
   vertex -0.127001 0.000006 0.120000
   vertex -0.133101 0.000006 0.135639
  endloop
 endfacet
 facet normal -0.707107 0.000000 0.707107
  outer loop
   vertex -0.113001 0.000006 -0.120000
   vertex -0.120001 0.011999 -0.127000
   vertex -0.120001 0.000006 -0.127000
  endloop
 endfacet
 facet normal 0.150712 0.026027 0.988235
  outer loop
   vertex -0.131648 0.018255 0.089683
   vertex -0.067721 0.012854 0.080076
   vertex -0.131396 0.229803 0.084073
  endloop
 endfacet
 facet normal 0.473396 0.483065 0.736576
  outer loop
   vertex 0.024927 0.250006 0.054578
   vertex 0.039293 0.250006 0.045345
   vertex 0.010919 0.256994 0.058998
  endloop
 endfacet
 facet normal 0.000000 -1.000000 0.000000
  outer loop
   vertex 0.078878 0.194998 -0.057309
   vertex 0.030130 0.194998 -0.092728
   vertex 0.047498 0.194998 -0.082272
  endloop
 endfacet
 facet normal 0.000000 -1.000000 0.000000
  outer loop
   vertex -0.120001 0.000006 -0.113000
   vertex -0.260001 0.000006 -0.125000
   vertex -0.140132 0.000006 -0.124457
  endloop
 endfacet
 facet normal -0.746706 -0.069517 -0.661512
  outer loop
   vertex -0.045447 0.222006 -0.065839
   vertex -0.070838 0.222006 -0.037178
   vertex -0.064723 0.250006 -0.047023
  endloop
 endfacet
 facet normal -0.979780 -0.200078 0.000000
  outer loop
   vertex -0.058997 0.256994 0.010918
   vertex -0.058997 0.256994 -0.010918
   vertex -0.057570 0.250006 -0.016904
  endloop
 endfacet
 facet normal 0.000000 0.118166 0.992994
  outer loop
   vertex 0.024721 0.250006 0.076085
   vertex -0.024722 0.250006 0.076085
   vertex -0.009642 0.222006 0.079417
  endloop
 endfacet
 facet normal -0.002035 0.999998 0.000421
  outer loop
   vertex -0.089488 0.172781 0.038708
   vertex -0.097498 0.172781 0.000000
   vertex -0.103987 0.172735 0.077875
  endloop
 endfacet
 facet normal 0.000000 -1.000000 0.000000
  outer loop
   vertex 0.006273 0.174002 0.059671
   vertex 0.039480 0.174002 0.043846
   vertex 0.030000 0.174002 0.051962
  endloop
 endfacet
 facet normal 0.880923 0.301024 0.365183
  outer loop
   vertex -0.127001 0.011999 0.120000
   vertex -0.120001 0.000006 0.113000
   vertex -0.124949 0.011999 0.115050
  endloop
 endfacet
 facet normal 0.000000 0.000000 1.000000
  outer loop
   vertex -0.155001 0.230001 0.100000
   vertex -0.205000 0.233007 0.100000
   vertex -0.205000 0.230001 0.100000
  endloop
 endfacet
 facet normal 0.028591 0.999549 -0.009143
  outer loop
   vertex -0.155497 0.226995 -0.123831
   vertex -0.260001 0.230001 -0.122000
   vertex -0.205000 0.230001 0.050000
  endloop
 endfacet
 facet normal 0.089453 -0.950657 0.297067
  outer loop
   vertex -0.067889 0.013342 -0.079125
   vertex 0.010396 0.011999 -0.106996
   vertex 0.120000 0.011999 -0.140000
  endloop
 endfacet
 facet normal 0.000000 -1.000000 0.000000
  outer loop
   vertex 0.030000 0.174002 -0.051962
   vertex 0.039480 0.174002 -0.043846
   vertex 0.006273 0.174002 -0.059671
  endloop
 endfacet
 facet normal 0.286467 0.954543 -0.082370
  outer loop
   vertex 0.116998 0.011999 0.000000
   vertex 0.109857 0.015005 0.010000
   vertex 0.140001 0.011999 0.080000
  endloop
 endfacet
 facet normal -0.025543 0.999639 -0.008292
  outer loop
   vertex -0.120635 0.011999 0.140000
   vertex -0.067721 0.012854 0.080076
   vertex -0.104624 0.011999 0.090680
  endloop
 endfacet
 facet normal 0.000000 1.000000 0.000000
  outer loop
   vertex 0.067556 0.011999 0.083620
   vertex -0.019522 0.011999 0.105713
   vertex 0.134141 0.011999 0.134142
  endloop
 endfacet
 facet normal 0.119382 0.008649 -0.992811
  outer loop
   vertex 0.036523 0.021994 -0.090401
   vertex -0.014048 0.021994 -0.096482
   vertex -0.009932 0.194998 -0.094480
  endloop
 endfacet
 facet normal 0.000000 0.000000 -1.000000
  outer loop
   vertex 0.120000 0.000006 -0.140000
   vertex -0.120635 0.000006 -0.140000
   vertex -0.120635 0.011999 -0.140000
  endloop
 endfacet
 facet normal 0.000000 -1.000000 0.000000
  outer loop
   vertex -0.133101 0.000006 0.135639
   vertex -0.120001 0.000006 0.127000
   vertex -0.120635 0.000006 0.140000
  endloop
 endfacet
 facet normal 0.000000 1.000000 0.000000
  outer loop
   vertex 0.101999 0.179998 -0.003000
   vertex 0.096681 0.179998 -0.012612
   vertex 0.096681 0.179998 0.012612
  endloop
 endfacet
 facet normal 0.000000 -1.000000 0.000000
  outer loop
   vertex -0.120001 0.000006 -0.113000
   vertex -0.120001 0.000006 0.113000
   vertex -0.140132 0.000006 0.124457
  endloop
 endfacet
 facet normal 0.896650 0.020683 0.442256
  outer loop
   vertex 0.077127 0.021994 0.059646
   vertex 0.101728 0.017050 0.010000
   vertex 0.096681 0.179998 0.012612
  endloop
 endfacet
 facet normal -0.004779 -0.999988 -0.000989
  outer loop
   vertex -0.097498 0.172781 0.000000
   vertex -0.089488 0.172781 -0.038708
   vertex -0.103987 0.172735 0.077875
  endloop
 endfacet
 facet normal 0.245386 0.000000 0.969425
  outer loop
   vertex 0.107000 0.179998 0.010000
   vertex 0.096681 0.179998 0.012612
   vertex 0.107000 0.021994 0.010000
  endloop
 endfacet
 facet normal 0.000000 -1.000000 0.000000
  outer loop
   vertex 0.022962 0.000006 0.055433
   vertex 0.055433 0.000006 0.022961
   vertex 0.140001 0.000006 0.120000
  endloop
 endfacet
 facet normal 0.000000 1.000000 0.000000
  outer loop
   vertex -0.095370 0.194998 0.020271
   vertex -0.078879 0.194998 0.057309
   vertex -0.095000 0.194998 -0.000000
  endloop
 endfacet
 facet normal 0.923969 0.000000 0.382467
  outer loop
   vertex 0.113000 0.011999 0.120000
   vertex 0.113000 0.000006 0.120000
   vertex 0.115049 0.011999 0.115050
  endloop
 endfacet
 facet normal 0.000000 1.000000 0.000000
  outer loop
   vertex -0.092925 0.222006 -0.019752
   vertex -0.092925 0.222006 0.019752
   vertex -0.070838 0.222006 -0.037178
  endloop
 endfacet
 facet normal 0.000000 1.000000 0.000000
  outer loop
   vertex 0.024721 0.250006 -0.076085
   vertex -0.024722 0.250006 -0.076085
   vertex -0.024924 0.250006 -0.054578
  endloop
 endfacet
 facet normal 0.000000 -1.000000 0.000000
  outer loop
   vertex -0.029501 0.174002 -0.051096
   vertex -0.018542 0.174002 -0.057063
   vertex -0.006167 0.174002 -0.058677
  endloop
 endfacet
 facet normal 0.000000 1.000000 0.000000
  outer loop
   vertex -0.010191 0.194998 0.096966
   vertex 0.030130 0.194998 0.092728
   vertex 0.009931 0.194998 0.094480
  endloop
 endfacet
 facet normal 0.000000 1.000000 0.000000
  outer loop
   vertex 0.010396 0.011999 -0.106996
   vertex 0.067556 0.011999 -0.083620
   vertex 0.120000 0.011999 -0.140000
  endloop
 endfacet
 facet normal -0.039364 0.998819 -0.028482
  outer loop
   vertex -0.155497 0.226995 -0.123831
   vertex -0.205000 0.230001 0.050000
   vertex -0.128802 0.229223 -0.082593
  endloop
 endfacet
 facet normal -0.880923 0.301024 -0.365183
  outer loop
   vertex 0.127000 0.011999 -0.120000
   vertex 0.120000 0.000006 -0.113000
   vertex 0.124948 0.011999 -0.115050
  endloop
 endfacet
 facet normal -0.017835 0.017336 -0.999691
  outer loop
   vertex 0.111856 0.011999 -0.013000
   vertex 0.099626 0.014929 -0.012731
   vertex 0.107000 0.179998 -0.010000
  endloop
 endfacet
 facet normal 0.000000 0.000000 1.000000
  outer loop
   vertex 0.109857 0.015005 0.010000
   vertex 0.107000 0.021994 0.010000
   vertex 0.101728 0.017050 0.010000
  endloop
 endfacet
 facet normal 0.000000 -1.000000 0.000000
  outer loop
   vertex 0.053899 0.174002 -0.023997
   vertex 0.058690 0.174002 -0.012475
   vertex 0.057710 0.174002 0.012267
  endloop
 endfacet
 facet normal 0.000000 -1.000000 0.000000
  outer loop
   vertex 0.134141 0.011999 0.134142
   vertex 0.113000 0.011999 0.120000
   vertex 0.067556 0.011999 0.083620
  endloop
 endfacet
 facet normal 0.000000 -0.021007 -0.999779
  outer loop
   vertex 0.007299 0.076498 -0.050050
   vertex -0.016562 0.091299 -0.050361
   vertex 0.007062 0.091299 -0.050361
  endloop
 endfacet
 facet normal 0.000000 1.000000 0.000000
  outer loop
   vertex -0.057570 0.250006 -0.016904
   vertex -0.039290 0.250006 -0.045345
   vertex -0.064723 0.250006 -0.047023
  endloop
 endfacet
 facet normal 0.000000 0.000000 1.000000
  outer loop
   vertex -0.124949 0.011999 0.115050
   vertex -0.115050 0.000006 0.115050
   vertex -0.115050 0.011999 0.115050
  endloop
 endfacet
 facet normal 0.000000 1.000000 0.000000
  outer loop
   vertex 0.057710 0.174002 0.012267
   vertex 0.048540 0.174002 0.035267
   vertex 0.053899 0.174002 0.023997
  endloop
 endfacet
 facet normal 0.159761 0.974142 -0.159761
  outer loop
   vertex -0.120001 0.011999 0.127000
   vertex -0.127001 0.011999 0.120000
   vertex -0.139956 0.013281 0.114862
  endloop
 endfacet
 facet normal -0.707107 0.000000 0.707107
  outer loop
   vertex 0.120000 0.011999 -0.127000
   vertex 0.127000 0.000006 -0.120000
   vertex 0.127000 0.011999 -0.120000
  endloop
 endfacet
 facet normal 0.104526 -0.009514 0.994477
  outer loop
   vertex 0.030130 0.194998 0.092728
   vertex -0.010191 0.194998 0.096966
   vertex 0.036523 0.021994 0.090401
  endloop
 endfacet
 facet normal 0.000000 1.000000 0.000000
  outer loop
   vertex 0.064722 0.250006 0.047023
   vertex 0.078252 0.250006 0.016633
   vertex 0.057569 0.250006 0.016904
  endloop
 endfacet
 facet normal 0.235606 -0.175397 0.955890
  outer loop
   vertex -0.009642 0.222006 0.079417
   vertex 0.045446 0.222006 0.065839
   vertex 0.024721 0.250006 0.076085
  endloop
 endfacet
 facet normal 0.000000 -1.000000 0.000000
  outer loop
   vertex 0.120000 0.000006 0.113000
   vertex 0.140001 0.000006 0.120000
   vertex 0.127000 0.000006 0.120000
  endloop
 endfacet
 facet normal 0.000000 1.000000 0.000000
  outer loop
   vertex 0.092924 0.222006 -0.019752
   vertex 0.076856 0.222006 -0.055840
   vertex 0.077676 0.222006 -0.019145
  endloop
 endfacet
 facet normal 0.000000 1.000000 0.000000
  outer loop
   vertex 0.076856 0.222006 -0.055840
   vertex 0.047498 0.222006 -0.082272
   vertex 0.045446 0.222006 -0.065839
  endloop
 endfacet
 facet normal 0.000000 1.000000 0.000000
  outer loop
   vertex 0.078252 0.250006 -0.016633
   vertex 0.064722 0.250006 -0.047023
   vertex 0.057569 0.250006 -0.016904
  endloop
 endfacet
 facet normal 0.000000 1.000000 0.000000
  outer loop
   vertex -0.063567 0.194998 0.070599
   vertex -0.095000 0.194998 -0.000000
   vertex -0.078879 0.194998 0.057309
  endloop
 endfacet
 facet normal 0.707107 0.000000 0.707107
  outer loop
   vertex -0.120001 0.000006 0.113000
   vertex -0.127001 0.011999 0.120000
   vertex -0.127001 0.000006 0.120000
  endloop
 endfacet
 facet normal 0.362182 0.800113 -0.478167
  outer loop
   vertex 0.036523 0.021994 -0.090401
   vertex 0.077127 0.021994 -0.059646
   vertex 0.067556 0.011999 -0.083620
  endloop
 endfacet
 facet normal 0.014605 -0.015574 0.999772
  outer loop
   vertex 0.101728 0.017050 0.010000
   vertex 0.107000 0.021994 0.010000
   vertex 0.096681 0.179998 0.012612
  endloop
 endfacet
 facet normal -0.003189 -0.026145 -0.999653
  outer loop
   vertex 0.007299 0.076498 -0.050050
   vertex -0.016841 0.076498 -0.049973
   vertex -0.016562 0.091299 -0.050361
  endloop
 endfacet
 facet normal 0.000000 1.000000 0.000000
  outer loop
   vertex -0.064723 0.250006 -0.047023
   vertex -0.078253 0.250006 -0.016633
   vertex -0.057570 0.250006 -0.016904
  endloop
 endfacet
 facet normal -1.000000 0.000000 0.000000
  outer loop
   vertex -0.260001 0.000006 0.125000
   vertex -0.260001 0.230001 -0.122000
   vertex -0.260001 0.000006 -0.125000
  endloop
 endfacet
 facet normal -0.096453 0.088322 0.991411
  outer loop
   vertex 0.010919 0.256994 0.058998
   vertex -0.022086 0.256994 0.055787
   vertex 0.008539 0.250006 0.059389
  endloop
 endfacet
 facet normal 0.069349 0.997231 -0.026843
  outer loop
   vertex -0.060786 0.169775 -0.076231
   vertex -0.103987 0.172735 -0.077875
   vertex -0.089488 0.172781 -0.038708
  endloop
 endfacet
 facet normal 0.587767 0.010839 -0.808958
  outer loop
   vertex 0.030130 0.194998 -0.092728
   vertex 0.078878 0.194998 -0.057309
   vertex 0.036523 0.021994 -0.090401
  endloop
 endfacet
 facet normal 0.119385 -0.005439 0.992833
  outer loop
   vertex -0.014048 0.021994 0.096482
   vertex 0.036523 0.021994 0.090401
   vertex -0.010191 0.194998 0.096966
  endloop
 endfacet
 facet normal 0.707107 0.000000 0.707106
  outer loop
   vertex 0.113000 0.011999 -0.120000
   vertex 0.113000 0.000006 -0.120000
   vertex 0.120000 0.011999 -0.127000
  endloop
 endfacet
 facet normal 0.077469 0.996548 0.029848
  outer loop
   vertex -0.103987 0.172735 0.077875
   vertex -0.064555 0.169775 0.074359
   vertex -0.089488 0.172781 0.038708
  endloop
 endfacet
 facet normal 0.923683 0.020386 -0.382615
  outer loop
   vertex -0.060000 0.000006 0.000000
   vertex -0.053900 0.174002 0.023997
   vertex -0.042426 0.000006 0.042426
  endloop
 endfacet
 facet normal 0.382627 0.017606 -0.923735
  outer loop
   vertex -0.042426 0.000006 0.042426
   vertex -0.029501 0.174002 0.051096
   vertex 0.000001 0.000006 0.060000
  endloop
 endfacet
 facet normal 0.000000 1.000000 0.000000
  outer loop
   vertex 0.058690 0.174002 -0.012475
   vertex 0.053899 0.174002 -0.023997
   vertex 0.048540 0.174002 -0.035267
  endloop
 endfacet
 facet normal -0.195078 0.005177 -0.980774
  outer loop
   vertex 0.000001 0.000006 0.060000
   vertex 0.006273 0.174002 0.059671
   vertex 0.022962 0.000006 0.055433
  endloop
 endfacet
 facet normal 0.603781 0.004657 0.797136
  outer loop
   vertex 0.036523 0.021994 0.090401
   vertex 0.077127 0.021994 0.059646
   vertex 0.078878 0.194998 0.057309
  endloop
 endfacet
 facet normal -0.706947 0.021991 -0.706925
  outer loop
   vertex 0.022962 0.000006 0.055433
   vertex 0.048540 0.174002 0.035267
   vertex 0.055433 0.000006 0.022961
  endloop
 endfacet
 facet normal 0.000000 0.999757 -0.022056
  outer loop
   vertex 0.120000 0.011999 -0.140000
   vertex -0.120635 0.011999 -0.140000
   vertex -0.067889 0.013342 -0.079125
  endloop
 endfacet
 facet normal -0.999825 0.018716 0.000000
  outer loop
   vertex 0.055433 0.000006 0.022961
   vertex 0.058690 0.174002 -0.012475
   vertex 0.055433 0.000006 -0.022961
  endloop
 endfacet
 facet normal -0.706947 0.021991 0.706925
  outer loop
   vertex 0.055433 0.000006 -0.022961
   vertex 0.048540 0.174002 -0.035267
   vertex 0.022962 0.000006 -0.055433
  endloop
 endfacet
 facet normal 0.000000 -1.000000 0.000000
  outer loop
   vertex -0.006167 0.174002 0.058677
   vertex -0.018542 0.174002 0.057063
   vertex -0.029501 0.174002 0.051096
  endloop
 endfacet
 facet normal 0.000000 0.024350 0.999704
  outer loop
   vertex 0.022962 0.000006 -0.055433
   vertex 0.006273 0.174002 -0.059671
   vertex -0.022959 0.000006 -0.055433
  endloop
 endfacet
 facet normal 0.000000 1.000000 0.000000
  outer loop
   vertex 0.134141 0.011999 -0.134142
   vertex 0.120000 0.011999 -0.140000
   vertex 0.120000 0.011999 -0.127000
  endloop
 endfacet
 facet normal 0.707046 0.008959 0.707111
  outer loop
   vertex -0.022959 0.000006 -0.055433
   vertex -0.029501 0.174002 -0.051096
   vertex -0.055434 0.000006 -0.022961
  endloop
 endfacet
 facet normal 0.000000 -1.000000 0.000000
  outer loop
   vertex -0.120635 0.000006 -0.140000
   vertex -0.120001 0.000006 -0.127000
   vertex -0.133101 0.000006 -0.135639
  endloop
 endfacet
 facet normal 0.980768 -0.007485 0.195034
  outer loop
   vertex -0.055434 0.000006 -0.022961
   vertex -0.053900 0.174002 -0.023997
   vertex -0.060000 0.000006 0.000000
  endloop
 endfacet
 facet normal 0.969178 0.000000 0.246363
  outer loop
   vertex -0.060000 0.174002 -0.000000
   vertex -0.060000 0.000006 0.000000
   vertex -0.053900 0.174002 -0.023997
  endloop
 endfacet
 facet normal -0.003173 0.999995 0.000000
  outer loop
   vertex -0.103987 0.172735 -0.077875
   vertex -0.103987 0.172735 0.077875
   vertex -0.089488 0.172781 -0.038708
  endloop
 endfacet
 facet normal 0.000000 1.000000 0.000000
  outer loop
   vertex 0.127000 0.011999 -0.120000
   vertex 0.124948 0.011999 -0.115050
   vertex 0.134141 0.011999 -0.134142
  endloop
 endfacet
 facet normal 0.743157 -0.002568 0.669113
  outer loop
   vertex -0.053900 0.174002 -0.023997
   vertex -0.055434 0.000006 -0.022961
   vertex -0.029501 0.174002 -0.051096
  endloop
 endfacet
 facet normal 0.000000 -1.000000 0.000000
  outer loop
   vertex -0.115050 0.000006 0.115050
   vertex -0.120001 0.000006 0.113000
   vertex -0.120001 0.000006 -0.113000
  endloop
 endfacet
 facet normal 0.478191 -0.003912 0.878247
  outer loop
   vertex -0.029501 0.174002 -0.051096
   vertex -0.022959 0.000006 -0.055433
   vertex -0.018542 0.174002 -0.057063
  endloop
 endfacet
 facet normal 0.104520 0.006663 0.994500
  outer loop
   vertex -0.018542 0.174002 -0.057063
   vertex -0.022959 0.000006 -0.055433
   vertex 0.006273 0.174002 -0.059671
  endloop
 endfacet
 facet normal 0.008144 0.999967 -0.000362
  outer loop
   vertex -0.154120 0.230001 0.119837
   vertex -0.131396 0.229803 0.084073
   vertex -0.155001 0.230001 0.100000
  endloop
 endfacet
 facet normal 0.000000 1.000000 0.000000
  outer loop
   vertex 0.140001 0.011999 0.080000
   vertex 0.120000 0.011999 0.113000
   vertex 0.134141 0.011999 0.134142
  endloop
 endfacet
 facet normal -0.308997 -0.006473 0.951041
  outer loop
   vertex 0.006273 0.174002 -0.059671
   vertex 0.022962 0.000006 -0.055433
   vertex 0.030000 0.174002 -0.051962
  endloop
 endfacet
 facet normal 0.843367 0.042823 0.535628
  outer loop
   vertex -0.131396 0.229803 0.084073
   vertex -0.154120 0.230001 0.119837
   vertex -0.139956 0.013281 0.114862
  endloop
 endfacet
 facet normal -0.669114 0.012242 0.743059
  outer loop
   vertex 0.030000 0.174002 -0.051962
   vertex 0.022962 0.000006 -0.055433
   vertex 0.048540 0.174002 -0.035267
  endloop
 endfacet
 facet normal 0.912098 0.056383 0.406077
  outer loop
   vertex 0.078252 0.250006 0.016633
   vertex 0.064722 0.250006 0.047023
   vertex 0.070836 0.222006 0.037178
  endloop
 endfacet
 facet normal -0.913485 -0.007417 0.406804
  outer loop
   vertex 0.048540 0.174002 -0.035267
   vertex 0.055433 0.000006 -0.022961
   vertex 0.058690 0.174002 -0.012475
  endloop
 endfacet
 facet normal -0.999160 0.010643 -0.039576
  outer loop
   vertex 0.058690 0.174002 -0.012475
   vertex 0.055433 0.000006 0.022961
   vertex 0.057710 0.174002 0.012267
  endloop
 endfacet
 facet normal -0.928842 -0.010605 -0.370325
  outer loop
   vertex 0.057710 0.174002 0.012267
   vertex 0.055433 0.000006 0.022961
   vertex 0.048540 0.174002 0.035267
  endloop
 endfacet
 facet normal 0.091324 0.034416 0.995226
  outer loop
   vertex -0.064555 0.169775 0.074359
   vertex -0.103987 0.172735 0.077875
   vertex -0.067721 0.012854 0.080076
  endloop
 endfacet
 facet normal -0.669114 0.012242 -0.743059
  outer loop
   vertex 0.048540 0.174002 0.035267
   vertex 0.022962 0.000006 0.055433
   vertex 0.030000 0.174002 0.051962
  endloop
 endfacet
 facet normal -0.308997 -0.006473 -0.951041
  outer loop
   vertex 0.030000 0.174002 0.051962
   vertex 0.022962 0.000006 0.055433
   vertex 0.006273 0.174002 0.059671
  endloop
 endfacet
 facet normal -0.707107 0.000000 -0.707107
  outer loop
   vertex 0.120000 0.000006 0.127000
   vertex 0.127000 0.011999 0.120000
   vertex 0.127000 0.000006 0.120000
  endloop
 endfacet
 facet normal 0.104520 -0.005648 -0.994507
  outer loop
   vertex 0.006273 0.174002 0.059671
   vertex 0.000001 0.000006 0.060000
   vertex -0.018542 0.174002 0.057063
  endloop
 endfacet
 facet normal 0.477883 0.036114 -0.877681
  outer loop
   vertex -0.018542 0.174002 0.057063
   vertex 0.000001 0.000006 0.060000
   vertex -0.029501 0.174002 0.051096
  endloop
 endfacet
 facet normal 0.000000 1.000000 0.000000
  outer loop
   vertex 0.009931 0.222006 -0.094480
   vertex -0.029357 0.222006 -0.090350
   vertex -0.009642 0.222006 -0.079417
  endloop
 endfacet
 facet normal 0.742982 -0.021858 -0.668955
  outer loop
   vertex -0.029501 0.174002 0.051096
   vertex -0.042426 0.000006 0.042426
   vertex -0.053900 0.174002 0.023997
  endloop
 endfacet
 facet normal 0.405292 0.863167 -0.301134
  outer loop
   vertex -0.123427 0.011999 -0.093996
   vertex -0.140322 0.012106 -0.116428
   vertex -0.131095 0.017004 -0.089970
  endloop
 endfacet
 facet normal 0.831820 -0.149540 0.534522
  outer loop
   vertex 0.039293 0.250006 0.045345
   vertex 0.057569 0.250006 0.016904
   vertex 0.042425 0.256994 0.042426
  endloop
 endfacet
 facet normal 0.969178 0.000000 -0.246363
  outer loop
   vertex -0.053900 0.174002 0.023997
   vertex -0.060000 0.000006 0.000000
   vertex -0.060000 0.174002 -0.000000
  endloop
 endfacet
 facet normal -0.319047 0.000000 0.947739
  outer loop
   vertex -0.120635 0.000006 0.140000
   vertex -0.120635 0.011999 0.140000
   vertex -0.132731 0.011999 0.135928
  endloop
 endfacet
 facet normal 0.909465 0.415034 -0.024888
  outer loop
   vertex 0.134141 0.011999 -0.134142
   vertex 0.140001 0.011999 0.080000
   vertex 0.140001 0.000006 -0.120000
  endloop
 endfacet
 facet normal 0.000000 1.000000 0.000000
  outer loop
   vertex -0.039290 0.250006 0.045345
   vertex -0.057570 0.250006 0.016904
   vertex -0.064723 0.250006 0.047023
  endloop
 endfacet
 facet normal 0.000000 -1.000000 0.000000
  outer loop
   vertex 0.115049 0.000006 -0.115050
   vertex 0.140001 0.000006 -0.120000
   vertex 0.022962 0.000006 -0.055433
  endloop
 endfacet
 facet normal -0.945300 0.021319 0.325506
  outer loop
   vertex -0.132731 0.011999 0.135928
   vertex -0.139956 0.013281 0.114862
   vertex -0.133101 0.000006 0.135639
  endloop
 endfacet
 facet normal 0.227623 0.963223 -0.142788
  outer loop
   vertex 0.111856 0.011999 -0.013000
   vertex 0.067556 0.011999 -0.083620
   vertex 0.099626 0.014929 -0.012731
  endloop
 endfacet
 facet normal -0.707106 0.000000 -0.707107
  outer loop
   vertex 0.120000 0.000006 -0.113000
   vertex 0.127000 0.011999 -0.120000
   vertex 0.127000 0.000006 -0.120000
  endloop
 endfacet
 facet normal 0.157286 0.776641 0.609992
  outer loop
   vertex -0.131648 0.018255 0.089683
   vertex -0.104624 0.011999 0.090680
   vertex -0.067721 0.012854 0.080076
  endloop
 endfacet
 facet normal -0.787101 0.368151 0.494912
  outer loop
   vertex -0.140132 0.000006 0.124457
   vertex -0.133101 0.000006 0.135639
   vertex -0.139956 0.013281 0.114862
  endloop
 endfacet
 facet normal -0.330183 -0.012558 0.943833
  outer loop
   vertex -0.133101 0.000006 0.135639
   vertex -0.120635 0.000006 0.140000
   vertex -0.132731 0.011999 0.135928
  endloop
 endfacet
 facet normal 0.058910 0.997471 0.039765
  outer loop
   vertex 0.140001 0.011999 0.080000
   vertex 0.101728 0.017050 0.010000
   vertex 0.113000 0.011999 0.120000
  endloop
 endfacet
 facet normal 0.000000 1.000000 0.000000
  outer loop
   vertex 0.113000 0.011999 -0.120000
   vertex 0.067556 0.011999 -0.083620
   vertex 0.120000 0.011999 -0.113000
  endloop
 endfacet
 facet normal 0.000000 1.000000 0.000000
  outer loop
   vertex -0.045447 0.222006 -0.065839
   vertex -0.009642 0.222006 -0.079417
   vertex -0.029357 0.222006 -0.090350
  endloop
 endfacet
 facet normal 0.000000 1.000000 0.000000
  outer loop
   vertex -0.120635 0.011999 0.140000
   vertex 0.134141 0.011999 0.134142
   vertex -0.019522 0.011999 0.105713
  endloop
 endfacet
 facet normal -0.333052 0.018833 -0.942720
  outer loop
   vertex -0.068759 0.169775 -0.074201
   vertex -0.009932 0.194998 -0.094480
   vertex -0.014048 0.021994 -0.096482
  endloop
 endfacet
 facet normal 0.977934 -0.171871 0.118763
  outer loop
   vertex 0.070836 0.222006 0.037178
   vertex 0.077676 0.222006 -0.019145
   vertex 0.078252 0.250006 0.016633
  endloop
 endfacet
 facet normal 0.000000 1.000000 0.000000
  outer loop
   vertex 0.077676 0.222006 -0.019145
   vertex 0.070836 0.222006 0.037178
   vertex 0.092924 0.222006 0.019752
  endloop
 endfacet
 facet normal 0.006905 0.999769 0.020362
  outer loop
   vertex -0.019522 0.011999 0.105713
   vertex -0.067721 0.012854 0.080076
   vertex -0.120635 0.011999 0.140000
  endloop
 endfacet
 facet normal 0.034343 0.998210 0.048969
  outer loop
   vertex -0.139956 0.013281 0.114862
   vertex -0.132731 0.011999 0.135928
   vertex -0.120001 0.011999 0.127000
  endloop
 endfacet
 facet normal 0.000000 1.000000 0.000000
  outer loop
   vertex -0.132731 0.011999 0.135928
   vertex -0.120635 0.011999 0.140000
   vertex -0.120001 0.011999 0.127000
  endloop
 endfacet
endsolid
