solid stl file generated from AC3D
 facet normal 0.000000 0.000000 -1.000000
  outer loop
   vertex -0.044216 -0.035972 0.000000
   vertex -0.052281 -0.022709 0.000000
   vertex 0.038906 0.041658 0.000000
  endloop
 endfacet
 facet normal 0.000000 0.000000 -1.000000
  outer loop
   vertex 0.038906 0.041658 0.000000
   vertex -0.052281 -0.022709 0.000000
   vertex -0.056469 -0.007761 0.000000
  endloop
 endfacet
 facet normal 0.000000 0.000000 -1.000000
  outer loop
   vertex -0.032871 -0.046567 0.000000
   vertex -0.044216 -0.035972 0.000000
   vertex -0.019088 -0.053709 0.000000
  endloop
 endfacet
 facet normal 0.000000 0.000000 -1.000000
  outer loop
   vertex -0.019088 -0.053709 0.000000
   vertex -0.044216 -0.035972 0.000000
   vertex 0.038906 0.041658 0.000000
  endloop
 endfacet
 facet normal 0.000000 0.000000 -1.000000
  outer loop
   vertex -0.019088 -0.053709 0.000000
   vertex 0.038906 0.041658 0.000000
   vertex -0.003890 -0.056867 0.000000
  endloop
 endfacet
 facet normal 0.000000 0.000000 -1.000000
  outer loop
   vertex -0.003890 -0.056867 0.000000
   vertex 0.038906 0.041658 0.000000
   vertex 0.048702 0.029616 0.000000
  endloop
 endfacet
 facet normal 0.000000 0.000000 -1.000000
  outer loop
   vertex -0.003890 -0.056867 0.000000
   vertex 0.048702 0.029616 0.000000
   vertex 0.011597 -0.055808 0.000000
  endloop
 endfacet
 facet normal 0.000000 0.000000 -1.000000
  outer loop
   vertex 0.011597 -0.055808 0.000000
   vertex 0.048702 0.029616 0.000000
   vertex 0.054886 0.015378 0.000000
  endloop
 endfacet
 facet normal 0.000000 0.000000 -1.000000
  outer loop
   vertex 0.011597 -0.055808 0.000000
   vertex 0.054886 0.015378 0.000000
   vertex 0.026224 -0.050609 0.000000
  endloop
 endfacet
 facet normal 0.000000 0.000000 -1.000000
  outer loop
   vertex 0.026224 -0.050609 0.000000
   vertex 0.054886 0.015378 0.000000
   vertex 0.057000 0.000000 0.000000
  endloop
 endfacet
 facet normal 0.000000 0.000000 -1.000000
  outer loop
   vertex 0.026224 -0.050609 0.000000
   vertex 0.057000 0.000000 0.000000
   vertex 0.038906 -0.041658 0.000000
  endloop
 endfacet
 facet normal 0.000000 0.000000 -1.000000
  outer loop
   vertex 0.038906 -0.041658 0.000000
   vertex 0.057000 0.000000 0.000000
   vertex 0.054886 -0.015378 0.000000
  endloop
 endfacet
 facet normal 0.000000 0.000000 -1.000000
  outer loop
   vertex 0.038906 -0.041658 0.000000
   vertex 0.054886 -0.015378 0.000000
   vertex 0.048702 -0.029616 0.000000
  endloop
 endfacet
 facet normal 0.000000 0.000000 -1.000000
  outer loop
   vertex -0.056469 -0.007761 0.000000
   vertex -0.056469 0.007761 0.000000
   vertex 0.038906 0.041658 0.000000
  endloop
 endfacet
 facet normal 0.000000 0.000000 -1.000000
  outer loop
   vertex 0.038906 0.041658 0.000000
   vertex -0.056469 0.007761 0.000000
   vertex -0.052281 0.022709 0.000000
  endloop
 endfacet
 facet normal 0.000000 0.000000 -1.000000
  outer loop
   vertex 0.038906 0.041658 0.000000
   vertex -0.052281 0.022709 0.000000
   vertex -0.044216 0.035972 0.000000
  endloop
 endfacet
 facet normal 0.000000 0.000000 -1.000000
  outer loop
   vertex 0.011597 0.055808 0.000000
   vertex 0.026224 0.050609 0.000000
   vertex -0.003890 0.056867 0.000000
  endloop
 endfacet
 facet normal 0.000000 0.000000 -1.000000
  outer loop
   vertex -0.003890 0.056867 0.000000
   vertex 0.026224 0.050609 0.000000
   vertex 0.038906 0.041658 0.000000
  endloop
 endfacet
 facet normal 0.000000 0.000000 -1.000000
  outer loop
   vertex -0.003890 0.056867 0.000000
   vertex 0.038906 0.041658 0.000000
   vertex -0.019088 0.053709 0.000000
  endloop
 endfacet
 facet normal 0.000000 0.000000 -1.000000
  outer loop
   vertex -0.019088 0.053709 0.000000
   vertex 0.038906 0.041658 0.000000
   vertex -0.044216 0.035972 0.000000
  endloop
 endfacet
 facet normal 0.000000 0.000000 -1.000000
  outer loop
   vertex -0.019088 0.053709 0.000000
   vertex -0.044216 0.035972 0.000000
   vertex -0.032871 0.046567 0.000000
  endloop
 endfacet
 facet normal 0.000021 -0.996197 0.087129
  outer loop
   vertex 0.019750 -0.055571 0.124197
   vertex -0.013402 -0.057458 0.102630
   vertex 0.015886 -0.056821 0.109906
  endloop
 endfacet
 facet normal 0.000068 -0.996213 0.086941
  outer loop
   vertex 0.015886 -0.056821 0.109906
   vertex -0.013402 -0.057458 0.102630
   vertex -0.011996 -0.057726 0.099558
  endloop
 endfacet
 facet normal -0.000008 -0.996196 0.087144
  outer loop
   vertex 0.015886 -0.056821 0.109906
   vertex -0.011996 -0.057726 0.099558
   vertex 0.011257 -0.057916 0.097388
  endloop
 endfacet
 facet normal -0.000002 -0.996191 0.087201
  outer loop
   vertex 0.011257 -0.057916 0.097388
   vertex -0.011996 -0.057726 0.099558
   vertex 0.004023 -0.058821 0.087049
  endloop
 endfacet
 facet normal -0.000007 -0.996190 0.087204
  outer loop
   vertex 0.011257 -0.057916 0.097388
   vertex 0.004023 -0.058821 0.087049
   vertex 0.006554 -0.058635 0.089174
  endloop
 endfacet
 facet normal 0.000000 -0.996197 0.087133
  outer loop
   vertex 0.024806 -0.053532 0.147500
   vertex -0.024806 -0.053532 0.147500
   vertex 0.020412 -0.055356 0.126646
  endloop
 endfacet
 facet normal 0.000003 -0.996196 0.087139
  outer loop
   vertex 0.020412 -0.055356 0.126646
   vertex -0.024806 -0.053532 0.147500
   vertex -0.022457 -0.054559 0.135759
  endloop
 endfacet
 facet normal 0.000067 -0.996170 0.087437
  outer loop
   vertex 0.020412 -0.055356 0.126646
   vertex -0.022457 -0.054559 0.135759
   vertex 0.019750 -0.055571 0.124197
  endloop
 endfacet
 facet normal -0.000010 -0.996195 0.087157
  outer loop
   vertex 0.019750 -0.055571 0.124197
   vertex -0.022457 -0.054559 0.135759
   vertex -0.017988 -0.056191 0.117106
  endloop
 endfacet
 facet normal -0.000016 -0.996192 0.087186
  outer loop
   vertex 0.019750 -0.055571 0.124197
   vertex -0.017988 -0.056191 0.117106
   vertex -0.013402 -0.057458 0.102630
  endloop
 endfacet
 facet normal 0.000133 -0.996135 0.087833
  outer loop
   vertex -0.000718 -0.058996 0.085050
   vertex 0.002082 -0.058963 0.085420
   vertex -0.004000 -0.058864 0.086552
  endloop
 endfacet
 facet normal -0.000043 -0.996218 0.086892
  outer loop
   vertex -0.004000 -0.058864 0.086552
   vertex 0.002082 -0.058963 0.085420
   vertex 0.004023 -0.058821 0.087049
  endloop
 endfacet
 facet normal -0.000050 -0.996208 0.087007
  outer loop
   vertex -0.004000 -0.058864 0.086552
   vertex 0.004023 -0.058821 0.087049
   vertex -0.008730 -0.058351 0.092423
  endloop
 endfacet
 facet normal 0.000072 -0.996183 0.087295
  outer loop
   vertex -0.008730 -0.058351 0.092423
   vertex 0.004023 -0.058821 0.087049
   vertex -0.011996 -0.057726 0.099558
  endloop
 endfacet
 facet normal -0.788223 0.000000 0.615389
  outer loop
   vertex -0.025617 -0.018000 0.220000
   vertex -0.054714 -0.018000 0.182731
   vertex -0.054714 -0.022076 0.182731
  endloop
 endfacet
 facet normal -0.788225 -0.000014 0.615387
  outer loop
   vertex -0.042426 -0.041000 0.198470
   vertex -0.025617 -0.041000 0.220000
   vertex -0.050178 -0.031035 0.188541
  endloop
 endfacet
 facet normal -0.788223 0.000000 0.615390
  outer loop
   vertex -0.050178 -0.031035 0.188541
   vertex -0.025617 -0.041000 0.220000
   vertex -0.025617 -0.018000 0.220000
  endloop
 endfacet
 facet normal -0.788111 -0.000555 0.615532
  outer loop
   vertex -0.050178 -0.031035 0.188541
   vertex -0.025617 -0.018000 0.220000
   vertex -0.050379 -0.030639 0.188284
  endloop
 endfacet
 facet normal -0.788225 0.000033 0.615387
  outer loop
   vertex -0.050379 -0.030639 0.188284
   vertex -0.025617 -0.018000 0.220000
   vertex -0.054714 -0.022076 0.182731
  endloop
 endfacet
 facet normal 0.000000 -0.642995 0.765870
  outer loop
   vertex -0.042426 -0.041000 0.158016
   vertex -0.040191 -0.043032 0.156310
   vertex 0.023359 -0.041000 0.158016
  endloop
 endfacet
 facet normal -0.000016 -0.642698 0.766119
  outer loop
   vertex 0.023359 -0.041000 0.158016
   vertex -0.040191 -0.043032 0.156310
   vertex -0.036784 -0.046129 0.153712
  endloop
 endfacet
 facet normal -0.000004 -0.642780 0.766051
  outer loop
   vertex 0.023359 -0.041000 0.158016
   vertex -0.036784 -0.046129 0.153712
   vertex -0.027011 -0.052169 0.148644
  endloop
 endfacet
 facet normal -0.000105 -0.642813 0.766023
  outer loop
   vertex 0.026043 -0.052941 0.147996
   vertex 0.023359 -0.041000 0.158016
   vertex 0.025426 -0.053240 0.147745
  endloop
 endfacet
 facet normal 0.000004 -0.642803 0.766032
  outer loop
   vertex 0.025426 -0.053240 0.147745
   vertex 0.023359 -0.041000 0.158016
   vertex -0.027011 -0.052169 0.148644
  endloop
 endfacet
 facet normal 0.000005 -0.642776 0.766054
  outer loop
   vertex 0.025426 -0.053240 0.147745
   vertex -0.027011 -0.052169 0.148644
   vertex 0.024806 -0.053532 0.147500
  endloop
 endfacet
 facet normal 0.000000 -0.642891 0.765958
  outer loop
   vertex 0.024806 -0.053532 0.147500
   vertex -0.027011 -0.052169 0.148644
   vertex -0.024806 -0.053532 0.147500
  endloop
 endfacet
 facet normal 0.000000 -1.000000 0.000000
  outer loop
   vertex -0.042426 -0.041000 0.158016
   vertex 0.023359 -0.041000 0.158016
   vertex -0.042426 -0.041000 0.198470
  endloop
 endfacet
 facet normal 0.000000 -1.000000 0.000000
  outer loop
   vertex -0.042426 -0.041000 0.198470
   vertex 0.023359 -0.041000 0.158016
   vertex 0.019146 -0.041000 0.173738
  endloop
 endfacet
 facet normal 0.000000 -1.000000 0.000000
  outer loop
   vertex -0.042426 -0.041000 0.198470
   vertex 0.019146 -0.041000 0.173738
   vertex -0.025617 -0.041000 0.220000
  endloop
 endfacet
 facet normal 0.000000 -1.000000 0.000000
  outer loop
   vertex -0.025617 -0.041000 0.220000
   vertex 0.019146 -0.041000 0.173738
   vertex 0.026844 -0.041000 0.181679
  endloop
 endfacet
 facet normal 0.000000 -1.000000 0.000000
  outer loop
   vertex -0.025617 -0.041000 0.220000
   vertex 0.026844 -0.041000 0.181679
   vertex -0.017428 -0.041000 0.227432
  endloop
 endfacet
 facet normal 0.000000 -1.000000 0.000000
  outer loop
   vertex -0.017428 -0.041000 0.227432
   vertex 0.026844 -0.041000 0.181679
   vertex 0.031433 -0.041000 0.191741
  endloop
 endfacet
 facet normal 0.000000 -1.000000 0.000000
  outer loop
   vertex -0.017428 -0.041000 0.227432
   vertex 0.031433 -0.041000 0.191741
   vertex -0.007220 -0.041000 0.231688
  endloop
 endfacet
 facet normal 0.000000 -1.000000 0.000000
  outer loop
   vertex -0.007220 -0.041000 0.231688
   vertex 0.031433 -0.041000 0.191741
   vertex 0.032383 -0.041000 0.202760
  endloop
 endfacet
 facet normal 0.000000 -1.000000 0.000000
  outer loop
   vertex -0.007220 -0.041000 0.231688
   vertex 0.032383 -0.041000 0.202760
   vertex 0.003824 -0.041000 0.232274
  endloop
 endfacet
 facet normal 0.000000 -1.000000 0.000000
  outer loop
   vertex 0.003824 -0.041000 0.232274
   vertex 0.032383 -0.041000 0.202760
   vertex 0.029582 -0.041000 0.213459
  endloop
 endfacet
 facet normal 0.000000 -1.000000 0.000000
  outer loop
   vertex 0.003824 -0.041000 0.232274
   vertex 0.029582 -0.041000 0.213459
   vertex 0.014426 -0.041000 0.229123
  endloop
 endfacet
 facet normal 0.000000 -1.000000 0.000000
  outer loop
   vertex 0.014426 -0.041000 0.229123
   vertex 0.029582 -0.041000 0.213459
   vertex 0.023356 -0.041000 0.222600
  endloop
 endfacet
 facet normal -0.672051 0.000000 0.740505
  outer loop
   vertex -0.025617 -0.018000 0.220000
   vertex -0.025617 -0.041000 0.220000
   vertex -0.017428 -0.041000 0.227432
  endloop
 endfacet
 facet normal -0.672051 0.000000 0.740505
  outer loop
   vertex -0.025617 -0.018000 0.220000
   vertex -0.017428 -0.041000 0.227432
   vertex -0.017428 -0.018000 0.227432
  endloop
 endfacet
 facet normal -0.384820 0.000000 0.922991
  outer loop
   vertex -0.017428 -0.018000 0.227432
   vertex -0.017428 -0.041000 0.227432
   vertex -0.007220 -0.041000 0.231688
  endloop
 endfacet
 facet normal -0.384820 0.000000 0.922991
  outer loop
   vertex -0.017428 -0.018000 0.227432
   vertex -0.007220 -0.041000 0.231688
   vertex -0.007220 -0.018000 0.231688
  endloop
 endfacet
 facet normal -0.052986 0.000000 0.998595
  outer loop
   vertex -0.007220 -0.018000 0.231688
   vertex -0.007220 -0.041000 0.231688
   vertex 0.003824 -0.041000 0.232274
  endloop
 endfacet
 facet normal -0.052986 0.000000 0.998595
  outer loop
   vertex -0.007220 -0.018000 0.231688
   vertex 0.003824 -0.041000 0.232274
   vertex 0.003824 -0.018000 0.232274
  endloop
 endfacet
 facet normal 0.284892 0.000000 0.958560
  outer loop
   vertex 0.003824 -0.018000 0.232274
   vertex 0.003824 -0.041000 0.232274
   vertex 0.014426 -0.041000 0.229123
  endloop
 endfacet
 facet normal 0.284892 0.000000 0.958560
  outer loop
   vertex 0.003824 -0.018000 0.232274
   vertex 0.014426 -0.041000 0.229123
   vertex 0.014426 -0.018000 0.229123
  endloop
 endfacet
 facet normal 0.589853 0.000000 0.807510
  outer loop
   vertex 0.014426 -0.018000 0.229123
   vertex 0.014426 -0.041000 0.229123
   vertex 0.023356 -0.041000 0.222600
  endloop
 endfacet
 facet normal 0.589853 0.000000 0.807510
  outer loop
   vertex 0.014426 -0.018000 0.229123
   vertex 0.023356 -0.041000 0.222600
   vertex 0.023356 -0.018000 0.222600
  endloop
 endfacet
 facet normal 0.826501 0.000000 0.562936
  outer loop
   vertex 0.023356 -0.018000 0.222600
   vertex 0.023356 -0.041000 0.222600
   vertex 0.029582 -0.041000 0.213459
  endloop
 endfacet
 facet normal 0.826501 0.000000 0.562936
  outer loop
   vertex 0.023356 -0.018000 0.222600
   vertex 0.029582 -0.041000 0.213459
   vertex 0.029582 -0.018000 0.213459
  endloop
 endfacet
 facet normal 0.967397 0.000000 0.253265
  outer loop
   vertex 0.029582 -0.018000 0.213459
   vertex 0.029582 -0.041000 0.213459
   vertex 0.032383 -0.041000 0.202760
  endloop
 endfacet
 facet normal 0.967397 0.000000 0.253265
  outer loop
   vertex 0.029582 -0.018000 0.213459
   vertex 0.032383 -0.041000 0.202760
   vertex 0.032383 -0.018000 0.202760
  endloop
 endfacet
 facet normal 0.996304 0.000000 -0.085896
  outer loop
   vertex 0.032383 -0.018000 0.202760
   vertex 0.032383 -0.041000 0.202760
   vertex 0.031433 -0.041000 0.191741
  endloop
 endfacet
 facet normal 0.996304 0.000000 -0.085896
  outer loop
   vertex 0.032383 -0.018000 0.202760
   vertex 0.031433 -0.041000 0.191741
   vertex 0.031433 -0.018000 0.191741
  endloop
 endfacet
 facet normal 0.909842 0.000000 -0.414954
  outer loop
   vertex 0.031433 -0.018000 0.191741
   vertex 0.031433 -0.041000 0.191741
   vertex 0.026844 -0.041000 0.181679
  endloop
 endfacet
 facet normal 0.909842 0.000000 -0.414954
  outer loop
   vertex 0.031433 -0.018000 0.191741
   vertex 0.026844 -0.041000 0.181679
   vertex 0.026844 -0.018000 0.181679
  endloop
 endfacet
 facet normal 0.718007 0.000000 -0.696036
  outer loop
   vertex 0.026844 -0.018000 0.181679
   vertex 0.026844 -0.041000 0.181679
   vertex 0.019146 -0.041000 0.173738
  endloop
 endfacet
 facet normal 0.718007 0.000000 -0.696036
  outer loop
   vertex 0.026844 -0.018000 0.181679
   vertex 0.019146 -0.041000 0.173738
   vertex 0.019146 -0.018000 0.173738
  endloop
 endfacet
 facet normal 0.000000 1.000000 0.000000
  outer loop
   vertex 0.019146 -0.018000 0.173738
   vertex 0.025466 -0.018000 0.150151
   vertex -0.055852 -0.018000 0.150151
  endloop
 endfacet
 facet normal 0.000000 1.000000 0.000000
  outer loop
   vertex -0.055852 -0.018000 0.150151
   vertex -0.054714 -0.018000 0.182731
   vertex 0.019146 -0.018000 0.173738
  endloop
 endfacet
 facet normal 0.000000 1.000000 0.000000
  outer loop
   vertex 0.019146 -0.018000 0.173738
   vertex -0.054714 -0.018000 0.182731
   vertex -0.025617 -0.018000 0.220000
  endloop
 endfacet
 facet normal 0.000000 1.000000 0.000000
  outer loop
   vertex 0.019146 -0.018000 0.173738
   vertex -0.025617 -0.018000 0.220000
   vertex 0.026844 -0.018000 0.181679
  endloop
 endfacet
 facet normal 0.000000 1.000000 0.000000
  outer loop
   vertex 0.026844 -0.018000 0.181679
   vertex -0.025617 -0.018000 0.220000
   vertex -0.017428 -0.018000 0.227432
  endloop
 endfacet
 facet normal 0.000000 1.000000 0.000000
  outer loop
   vertex 0.026844 -0.018000 0.181679
   vertex -0.017428 -0.018000 0.227432
   vertex 0.031433 -0.018000 0.191741
  endloop
 endfacet
 facet normal 0.000000 1.000000 0.000000
  outer loop
   vertex 0.031433 -0.018000 0.191741
   vertex -0.017428 -0.018000 0.227432
   vertex -0.007220 -0.018000 0.231688
  endloop
 endfacet
 facet normal 0.000000 1.000000 0.000000
  outer loop
   vertex 0.031433 -0.018000 0.191741
   vertex -0.007220 -0.018000 0.231688
   vertex 0.032383 -0.018000 0.202760
  endloop
 endfacet
 facet normal 0.000000 1.000000 0.000000
  outer loop
   vertex 0.032383 -0.018000 0.202760
   vertex -0.007220 -0.018000 0.231688
   vertex 0.003824 -0.018000 0.232274
  endloop
 endfacet
 facet normal 0.000000 1.000000 0.000000
  outer loop
   vertex 0.032383 -0.018000 0.202760
   vertex 0.003824 -0.018000 0.232274
   vertex 0.029582 -0.018000 0.213459
  endloop
 endfacet
 facet normal 0.000000 1.000000 0.000000
  outer loop
   vertex 0.029582 -0.018000 0.213459
   vertex 0.003824 -0.018000 0.232274
   vertex 0.014426 -0.018000 0.229123
  endloop
 endfacet
 facet normal 0.000000 1.000000 0.000000
  outer loop
   vertex 0.029582 -0.018000 0.213459
   vertex 0.014426 -0.018000 0.229123
   vertex 0.023356 -0.018000 0.222600
  endloop
 endfacet
 facet normal 0.000000 0.562354 0.826897
  outer loop
   vertex -0.055852 -0.018000 0.150151
   vertex 0.025466 -0.018000 0.150151
   vertex 0.026970 -0.009748 0.144539
  endloop
 endfacet
 facet normal 0.000000 -0.580877 0.813991
  outer loop
   vertex 0.025466 0.018000 0.150151
   vertex -0.055852 0.018000 0.150151
   vertex 0.026890 0.010552 0.144836
  endloop
 endfacet
 facet normal -0.001176 -0.589502 0.807766
  outer loop
   vertex 0.026890 0.010552 0.144836
   vertex -0.055852 0.018000 0.150151
   vertex -0.056029 0.011034 0.145067
  endloop
 endfacet
 facet normal 0.001391 -0.227403 0.973800
  outer loop
   vertex 0.026890 0.010552 0.144836
   vertex -0.056029 0.011034 0.145067
   vertex 0.026941 0.009743 0.144647
  endloop
 endfacet
 facet normal 0.001102 -0.244634 0.969615
  outer loop
   vertex 0.026941 0.009743 0.144647
   vertex -0.056029 0.011034 0.145067
   vertex -0.056041 0.009718 0.144735
  endloop
 endfacet
 facet normal 0.001101 -0.227087 0.973874
  outer loop
   vertex 0.026941 0.009743 0.144647
   vertex -0.056041 0.009718 0.144735
   vertex 0.027514 0.000564 0.142506
  endloop
 endfacet
 facet normal -0.000913 -0.244446 0.969663
  outer loop
   vertex 0.027514 0.000564 0.142506
   vertex -0.056041 0.009718 0.144735
   vertex -0.056118 0.000920 0.142517
  endloop
 endfacet
 facet normal 0.000914 0.184242 0.982880
  outer loop
   vertex 0.027514 0.000564 0.142506
   vertex -0.056118 0.000920 0.142517
   vertex 0.027487 0.000020 0.142608
  endloop
 endfacet
 facet normal 0.000786 0.172653 0.984982
  outer loop
   vertex 0.027487 0.000020 0.142608
   vertex -0.056118 0.000920 0.142517
   vertex -0.056113 0.000030 0.142673
  endloop
 endfacet
 facet normal 0.000786 0.182900 0.983131
  outer loop
   vertex 0.027487 0.000020 0.142608
   vertex -0.056113 0.000030 0.142673
   vertex 0.027011 -0.009519 0.144383
  endloop
 endfacet
 facet normal -0.000452 0.172459 0.985017
  outer loop
   vertex 0.027011 -0.009519 0.144383
   vertex -0.056113 0.000030 0.142673
   vertex -0.056056 -0.009354 0.144316
  endloop
 endfacet
 facet normal 0.000452 0.562946 0.826494
  outer loop
   vertex 0.027011 -0.009519 0.144383
   vertex -0.056056 -0.009354 0.144316
   vertex 0.026970 -0.009748 0.144539
  endloop
 endfacet
 facet normal 0.000424 0.558785 0.829313
  outer loop
   vertex 0.026970 -0.009748 0.144539
   vertex -0.056056 -0.009354 0.144316
   vertex -0.056047 -0.009728 0.144568
  endloop
 endfacet
 facet normal 0.000424 0.559439 0.828872
  outer loop
   vertex 0.026970 -0.009748 0.144539
   vertex -0.056047 -0.009728 0.144568
   vertex -0.055852 -0.018000 0.150151
  endloop
 endfacet
 facet normal 0.000000 -1.000000 0.000000
  outer loop
   vertex -0.055852 0.018000 0.150151
   vertex 0.025466 0.018000 0.150151
   vertex -0.054714 0.018000 0.182731
  endloop
 endfacet
 facet normal 0.000000 -1.000000 0.000000
  outer loop
   vertex -0.054714 0.018000 0.182731
   vertex 0.025466 0.018000 0.150151
   vertex 0.019146 0.018000 0.173738
  endloop
 endfacet
 facet normal 0.000000 -1.000000 0.000000
  outer loop
   vertex -0.054714 0.018000 0.182731
   vertex 0.019146 0.018000 0.173738
   vertex -0.025617 0.018000 0.220000
  endloop
 endfacet
 facet normal 0.000000 -1.000000 0.000000
  outer loop
   vertex -0.025617 0.018000 0.220000
   vertex 0.019146 0.018000 0.173738
   vertex 0.026844 0.018000 0.181679
  endloop
 endfacet
 facet normal 0.000000 -1.000000 0.000000
  outer loop
   vertex -0.025617 0.018000 0.220000
   vertex 0.026844 0.018000 0.181679
   vertex -0.017428 0.018000 0.227432
  endloop
 endfacet
 facet normal 0.000000 -1.000000 0.000000
  outer loop
   vertex -0.017428 0.018000 0.227432
   vertex 0.026844 0.018000 0.181679
   vertex 0.031433 0.018000 0.191741
  endloop
 endfacet
 facet normal 0.000000 -1.000000 0.000000
  outer loop
   vertex -0.017428 0.018000 0.227432
   vertex 0.031433 0.018000 0.191741
   vertex -0.007220 0.018000 0.231688
  endloop
 endfacet
 facet normal 0.000000 -1.000000 0.000000
  outer loop
   vertex -0.007220 0.018000 0.231688
   vertex 0.031433 0.018000 0.191741
   vertex 0.032383 0.018000 0.202760
  endloop
 endfacet
 facet normal 0.000000 -1.000000 0.000000
  outer loop
   vertex -0.007220 0.018000 0.231688
   vertex 0.032383 0.018000 0.202760
   vertex 0.003824 0.018000 0.232274
  endloop
 endfacet
 facet normal 0.000000 -1.000000 0.000000
  outer loop
   vertex 0.003824 0.018000 0.232274
   vertex 0.032383 0.018000 0.202760
   vertex 0.029582 0.018000 0.213459
  endloop
 endfacet
 facet normal 0.000000 -1.000000 0.000000
  outer loop
   vertex 0.003824 0.018000 0.232274
   vertex 0.029582 0.018000 0.213459
   vertex 0.014426 0.018000 0.229123
  endloop
 endfacet
 facet normal 0.000000 -1.000000 0.000000
  outer loop
   vertex 0.014426 0.018000 0.229123
   vertex 0.029582 0.018000 0.213459
   vertex 0.023356 0.018000 0.222600
  endloop
 endfacet
 facet normal -0.672051 0.000000 0.740505
  outer loop
   vertex -0.025617 0.041000 0.220000
   vertex -0.025617 0.018000 0.220000
   vertex -0.017428 0.018000 0.227432
  endloop
 endfacet
 facet normal -0.672051 0.000000 0.740505
  outer loop
   vertex -0.025617 0.041000 0.220000
   vertex -0.017428 0.018000 0.227432
   vertex -0.017428 0.041000 0.227432
  endloop
 endfacet
 facet normal -0.384820 0.000000 0.922991
  outer loop
   vertex -0.017428 0.041000 0.227432
   vertex -0.017428 0.018000 0.227432
   vertex -0.007220 0.018000 0.231688
  endloop
 endfacet
 facet normal -0.384820 0.000000 0.922991
  outer loop
   vertex -0.017428 0.041000 0.227432
   vertex -0.007220 0.018000 0.231688
   vertex -0.007220 0.041000 0.231688
  endloop
 endfacet
 facet normal -0.052986 0.000000 0.998595
  outer loop
   vertex -0.007220 0.041000 0.231688
   vertex -0.007220 0.018000 0.231688
   vertex 0.003824 0.018000 0.232274
  endloop
 endfacet
 facet normal -0.052986 0.000000 0.998595
  outer loop
   vertex -0.007220 0.041000 0.231688
   vertex 0.003824 0.018000 0.232274
   vertex 0.003824 0.041000 0.232274
  endloop
 endfacet
 facet normal 0.284892 0.000000 0.958560
  outer loop
   vertex 0.003824 0.041000 0.232274
   vertex 0.003824 0.018000 0.232274
   vertex 0.014426 0.018000 0.229123
  endloop
 endfacet
 facet normal 0.284892 0.000000 0.958560
  outer loop
   vertex 0.003824 0.041000 0.232274
   vertex 0.014426 0.018000 0.229123
   vertex 0.014426 0.041000 0.229123
  endloop
 endfacet
 facet normal 0.589853 0.000000 0.807510
  outer loop
   vertex 0.014426 0.041000 0.229123
   vertex 0.014426 0.018000 0.229123
   vertex 0.023356 0.018000 0.222600
  endloop
 endfacet
 facet normal 0.589853 0.000000 0.807510
  outer loop
   vertex 0.014426 0.041000 0.229123
   vertex 0.023356 0.018000 0.222600
   vertex 0.023356 0.041000 0.222600
  endloop
 endfacet
 facet normal 0.826501 0.000000 0.562936
  outer loop
   vertex 0.023356 0.041000 0.222600
   vertex 0.023356 0.018000 0.222600
   vertex 0.029582 0.018000 0.213459
  endloop
 endfacet
 facet normal 0.826501 0.000000 0.562936
  outer loop
   vertex 0.023356 0.041000 0.222600
   vertex 0.029582 0.018000 0.213459
   vertex 0.029582 0.041000 0.213459
  endloop
 endfacet
 facet normal 0.967397 0.000000 0.253265
  outer loop
   vertex 0.029582 0.041000 0.213459
   vertex 0.029582 0.018000 0.213459
   vertex 0.032383 0.018000 0.202760
  endloop
 endfacet
 facet normal 0.967397 0.000000 0.253265
  outer loop
   vertex 0.029582 0.041000 0.213459
   vertex 0.032383 0.018000 0.202760
   vertex 0.032383 0.041000 0.202760
  endloop
 endfacet
 facet normal 0.996304 0.000000 -0.085896
  outer loop
   vertex 0.032383 0.041000 0.202760
   vertex 0.032383 0.018000 0.202760
   vertex 0.031433 0.018000 0.191741
  endloop
 endfacet
 facet normal 0.996304 0.000000 -0.085896
  outer loop
   vertex 0.032383 0.041000 0.202760
   vertex 0.031433 0.018000 0.191741
   vertex 0.031433 0.041000 0.191741
  endloop
 endfacet
 facet normal 0.909842 0.000000 -0.414954
  outer loop
   vertex 0.031433 0.041000 0.191741
   vertex 0.031433 0.018000 0.191741
   vertex 0.026844 0.018000 0.181679
  endloop
 endfacet
 facet normal 0.909842 0.000000 -0.414954
  outer loop
   vertex 0.031433 0.041000 0.191741
   vertex 0.026844 0.018000 0.181679
   vertex 0.026844 0.041000 0.181679
  endloop
 endfacet
 facet normal 0.718007 0.000000 -0.696036
  outer loop
   vertex 0.026844 0.041000 0.181679
   vertex 0.026844 0.018000 0.181679
   vertex 0.019146 0.018000 0.173738
  endloop
 endfacet
 facet normal 0.718007 0.000000 -0.696036
  outer loop
   vertex 0.026844 0.041000 0.181679
   vertex 0.019146 0.018000 0.173738
   vertex 0.019146 0.041000 0.173738
  endloop
 endfacet
 facet normal 0.703769 -0.096747 -0.703811
  outer loop
   vertex 0.054886 -0.015378 0.000000
   vertex 0.057000 0.000000 0.000000
   vertex 0.057906 -0.007959 0.002000
  endloop
 endfacet
 facet normal 0.703751 -0.096734 -0.703831
  outer loop
   vertex 0.057906 -0.007959 0.002000
   vertex 0.056812 -0.015918 0.002000
   vertex 0.054886 -0.015378 0.000000
  endloop
 endfacet
 facet normal 0.651537 -0.283020 -0.703846
  outer loop
   vertex 0.054886 -0.015378 0.000000
   vertex 0.056812 -0.015918 0.002000
   vertex 0.053611 -0.023287 0.002000
  endloop
 endfacet
 facet normal 0.651611 -0.283015 -0.703779
  outer loop
   vertex 0.054886 -0.015378 0.000000
   vertex 0.053611 -0.023287 0.002000
   vertex 0.048702 -0.029616 0.000000
  endloop
 endfacet
 facet normal 0.651595 -0.282994 -0.703803
  outer loop
   vertex 0.053611 -0.023287 0.002000
   vertex 0.050411 -0.030655 0.002000
   vertex 0.048702 -0.029616 0.000000
  endloop
 endfacet
 facet normal 0.551073 -0.448321 -0.703794
  outer loop
   vertex 0.048702 -0.029616 0.000000
   vertex 0.050411 -0.030655 0.002000
   vertex 0.045341 -0.036887 0.002000
  endloop
 endfacet
 facet normal 0.551125 -0.448332 -0.703747
  outer loop
   vertex 0.048702 -0.029616 0.000000
   vertex 0.045341 -0.036887 0.002000
   vertex 0.038906 -0.041658 0.000000
  endloop
 endfacet
 facet normal 0.551146 -0.448381 -0.703699
  outer loop
   vertex 0.045341 -0.036887 0.002000
   vertex 0.040271 -0.043119 0.002000
   vertex 0.038906 -0.041658 0.000000
  endloop
 endfacet
 facet normal 0.409720 -0.580487 -0.703679
  outer loop
   vertex 0.038906 -0.041658 0.000000
   vertex 0.040271 -0.043119 0.002000
   vertex 0.033707 -0.047752 0.002000
  endloop
 endfacet
 facet normal 0.409704 -0.580479 -0.703694
  outer loop
   vertex 0.038906 -0.041658 0.000000
   vertex 0.033707 -0.047752 0.002000
   vertex 0.026224 -0.050609 0.000000
  endloop
 endfacet
 facet normal 0.409687 -0.580353 -0.703809
  outer loop
   vertex 0.033707 -0.047752 0.002000
   vertex 0.027144 -0.052385 0.002000
   vertex 0.026224 -0.050609 0.000000
  endloop
 endfacet
 facet normal 0.237938 -0.669340 -0.703825
  outer loop
   vertex 0.026224 -0.050609 0.000000
   vertex 0.027144 -0.052385 0.002000
   vertex 0.019574 -0.055076 0.002000
  endloop
 endfacet
 facet normal 0.237895 -0.669299 -0.703879
  outer loop
   vertex 0.026224 -0.050609 0.000000
   vertex 0.019574 -0.055076 0.002000
   vertex 0.011597 -0.055808 0.000000
  endloop
 endfacet
 facet normal 0.237878 -0.669419 -0.703770
  outer loop
   vertex 0.019574 -0.055076 0.002000
   vertex 0.012004 -0.057766 0.002000
   vertex 0.011597 -0.055808 0.000000
  endloop
 endfacet
 facet normal 0.048461 -0.708783 -0.703760
  outer loop
   vertex 0.011597 -0.055808 0.000000
   vertex 0.012004 -0.057766 0.002000
   vertex 0.003989 -0.058314 0.002000
  endloop
 endfacet
 facet normal 0.048467 -0.708794 -0.703749
  outer loop
   vertex 0.011597 -0.055808 0.000000
   vertex 0.003989 -0.058314 0.002000
   vertex -0.003890 -0.056867 0.000000
  endloop
 endfacet
 facet normal 0.048462 -0.708805 -0.703738
  outer loop
   vertex 0.003989 -0.058314 0.002000
   vertex -0.004026 -0.058862 0.002000
   vertex -0.003890 -0.056867 0.000000
  endloop
 endfacet
 facet normal -0.144503 -0.695630 -0.703717
  outer loop
   vertex -0.003890 -0.056867 0.000000
   vertex -0.004026 -0.058862 0.002000
   vertex -0.011892 -0.057228 0.002000
  endloop
 endfacet
 facet normal -0.144527 -0.695543 -0.703798
  outer loop
   vertex -0.003890 -0.056867 0.000000
   vertex -0.011892 -0.057228 0.002000
   vertex -0.019088 -0.053709 0.000000
  endloop
 endfacet
 facet normal -0.144589 -0.695619 -0.703710
  outer loop
   vertex -0.011892 -0.057228 0.002000
   vertex -0.019758 -0.055593 0.002000
   vertex -0.019088 -0.053709 0.000000
  endloop
 endfacet
 facet normal -0.326861 -0.630817 -0.703727
  outer loop
   vertex -0.019088 -0.053709 0.000000
   vertex -0.019758 -0.055593 0.002000
   vertex -0.026891 -0.051897 0.002000
  endloop
 endfacet
 facet normal -0.326861 -0.630793 -0.703749
  outer loop
   vertex -0.019088 -0.053709 0.000000
   vertex -0.026891 -0.051897 0.002000
   vertex -0.032871 -0.046567 0.000000
  endloop
 endfacet
 facet normal -0.326842 -0.630779 -0.703770
  outer loop
   vertex -0.026891 -0.051897 0.002000
   vertex -0.034024 -0.048201 0.002000
   vertex -0.032871 -0.046567 0.000000
  endloop
 endfacet
 facet normal -0.484862 -0.519261 -0.703759
  outer loop
   vertex -0.032871 -0.046567 0.000000
   vertex -0.034024 -0.048201 0.002000
   vertex -0.039896 -0.042718 0.002000
  endloop
 endfacet
 facet normal -0.484831 -0.519151 -0.703862
  outer loop
   vertex -0.032871 -0.046567 0.000000
   vertex -0.039896 -0.042718 0.002000
   vertex -0.044216 -0.035972 0.000000
  endloop
 endfacet
 facet normal -0.484979 -0.519204 -0.703720
  outer loop
   vertex -0.039896 -0.042718 0.002000
   vertex -0.045767 -0.037234 0.002000
   vertex -0.044216 -0.035972 0.000000
  endloop
 endfacet
 facet normal -0.607058 -0.369152 -0.703710
  outer loop
   vertex -0.044216 -0.035972 0.000000
   vertex -0.045767 -0.037234 0.002000
   vertex -0.049941 -0.030370 0.002000
  endloop
 endfacet
 facet normal -0.607048 -0.369135 -0.703727
  outer loop
   vertex -0.044216 -0.035972 0.000000
   vertex -0.049941 -0.030370 0.002000
   vertex -0.052281 -0.022709 0.000000
  endloop
 endfacet
 facet normal -0.607028 -0.369134 -0.703745
  outer loop
   vertex -0.049941 -0.030370 0.002000
   vertex -0.054115 -0.023506 0.002000
   vertex -0.052281 -0.022709 0.000000
  endloop
 endfacet
 facet normal -0.684110 -0.191721 -0.703730
  outer loop
   vertex -0.052281 -0.022709 0.000000
   vertex -0.054115 -0.023506 0.002000
   vertex -0.056283 -0.015770 0.002000
  endloop
 endfacet
 facet normal -0.684029 -0.191645 -0.703829
  outer loop
   vertex -0.052281 -0.022709 0.000000
   vertex -0.056283 -0.015770 0.002000
   vertex -0.056469 -0.007761 0.000000
  endloop
 endfacet
 facet normal -0.684104 -0.191630 -0.703761
  outer loop
   vertex -0.056283 -0.015770 0.002000
   vertex -0.058450 -0.008034 0.002000
   vertex -0.056469 -0.007761 0.000000
  endloop
 endfacet
 facet normal -0.706335 -0.048355 -0.706224
  outer loop
   vertex -0.056469 -0.007761 0.000000
   vertex -0.058450 -0.008034 0.002000
   vertex -0.059000 0.000000 0.002000
  endloop
 endfacet
 facet normal -0.619996 0.000000 -0.784605
  outer loop
   vertex -0.056469 -0.007761 0.000000
   vertex -0.059000 0.000000 0.002000
   vertex -0.056469 0.007761 0.000000
  endloop
 endfacet
 facet normal -0.706335 0.048355 -0.706224
  outer loop
   vertex -0.059000 0.000000 0.002000
   vertex -0.058450 0.008034 0.002000
   vertex -0.056469 0.007761 0.000000
  endloop
 endfacet
 facet normal -0.684104 0.191630 -0.703761
  outer loop
   vertex -0.056469 0.007761 0.000000
   vertex -0.058450 0.008034 0.002000
   vertex -0.056283 0.015770 0.002000
  endloop
 endfacet
 facet normal -0.684029 0.191645 -0.703829
  outer loop
   vertex -0.056469 0.007761 0.000000
   vertex -0.056283 0.015770 0.002000
   vertex -0.052281 0.022709 0.000000
  endloop
 endfacet
 facet normal -0.684110 0.191721 -0.703730
  outer loop
   vertex -0.056283 0.015770 0.002000
   vertex -0.054115 0.023506 0.002000
   vertex -0.052281 0.022709 0.000000
  endloop
 endfacet
 facet normal -0.607028 0.369134 -0.703745
  outer loop
   vertex -0.052281 0.022709 0.000000
   vertex -0.054115 0.023506 0.002000
   vertex -0.049941 0.030370 0.002000
  endloop
 endfacet
 facet normal -0.607048 0.369135 -0.703727
  outer loop
   vertex -0.052281 0.022709 0.000000
   vertex -0.049941 0.030370 0.002000
   vertex -0.044216 0.035972 0.000000
  endloop
 endfacet
 facet normal -0.607058 0.369152 -0.703710
  outer loop
   vertex -0.049941 0.030370 0.002000
   vertex -0.045767 0.037234 0.002000
   vertex -0.044216 0.035972 0.000000
  endloop
 endfacet
 facet normal -0.484979 0.519204 -0.703720
  outer loop
   vertex -0.044216 0.035972 0.000000
   vertex -0.045767 0.037234 0.002000
   vertex -0.039896 0.042718 0.002000
  endloop
 endfacet
 facet normal -0.484831 0.519151 -0.703862
  outer loop
   vertex -0.044216 0.035972 0.000000
   vertex -0.039896 0.042718 0.002000
   vertex -0.032871 0.046567 0.000000
  endloop
 endfacet
 facet normal -0.484862 0.519261 -0.703759
  outer loop
   vertex -0.039896 0.042718 0.002000
   vertex -0.034024 0.048201 0.002000
   vertex -0.032871 0.046567 0.000000
  endloop
 endfacet
 facet normal -0.326842 0.630779 -0.703770
  outer loop
   vertex -0.032871 0.046567 0.000000
   vertex -0.034024 0.048201 0.002000
   vertex -0.026891 0.051897 0.002000
  endloop
 endfacet
 facet normal -0.326861 0.630793 -0.703749
  outer loop
   vertex -0.032871 0.046567 0.000000
   vertex -0.026891 0.051897 0.002000
   vertex -0.019088 0.053709 0.000000
  endloop
 endfacet
 facet normal -0.326861 0.630817 -0.703727
  outer loop
   vertex -0.026891 0.051897 0.002000
   vertex -0.019758 0.055593 0.002000
   vertex -0.019088 0.053709 0.000000
  endloop
 endfacet
 facet normal -0.144589 0.695619 -0.703710
  outer loop
   vertex -0.019088 0.053709 0.000000
   vertex -0.019758 0.055593 0.002000
   vertex -0.011892 0.057228 0.002000
  endloop
 endfacet
 facet normal -0.144527 0.695543 -0.703798
  outer loop
   vertex -0.019088 0.053709 0.000000
   vertex -0.011892 0.057228 0.002000
   vertex -0.003890 0.056867 0.000000
  endloop
 endfacet
 facet normal -0.144503 0.695630 -0.703717
  outer loop
   vertex -0.011892 0.057228 0.002000
   vertex -0.004026 0.058862 0.002000
   vertex -0.003890 0.056867 0.000000
  endloop
 endfacet
 facet normal 0.048462 0.708805 -0.703738
  outer loop
   vertex -0.003890 0.056867 0.000000
   vertex -0.004026 0.058862 0.002000
   vertex 0.003989 0.058314 0.002000
  endloop
 endfacet
 facet normal 0.048467 0.708794 -0.703749
  outer loop
   vertex -0.003890 0.056867 0.000000
   vertex 0.003989 0.058314 0.002000
   vertex 0.011597 0.055808 0.000000
  endloop
 endfacet
 facet normal 0.048461 0.708783 -0.703760
  outer loop
   vertex 0.003989 0.058314 0.002000
   vertex 0.012004 0.057766 0.002000
   vertex 0.011597 0.055808 0.000000
  endloop
 endfacet
 facet normal 0.237878 0.669419 -0.703770
  outer loop
   vertex 0.011597 0.055808 0.000000
   vertex 0.012004 0.057766 0.002000
   vertex 0.019574 0.055076 0.002000
  endloop
 endfacet
 facet normal 0.237895 0.669299 -0.703879
  outer loop
   vertex 0.011597 0.055808 0.000000
   vertex 0.019574 0.055076 0.002000
   vertex 0.026224 0.050609 0.000000
  endloop
 endfacet
 facet normal 0.237938 0.669340 -0.703825
  outer loop
   vertex 0.019574 0.055076 0.002000
   vertex 0.027144 0.052385 0.002000
   vertex 0.026224 0.050609 0.000000
  endloop
 endfacet
 facet normal 0.409687 0.580353 -0.703809
  outer loop
   vertex 0.026224 0.050609 0.000000
   vertex 0.027144 0.052385 0.002000
   vertex 0.033707 0.047752 0.002000
  endloop
 endfacet
 facet normal 0.409704 0.580479 -0.703694
  outer loop
   vertex 0.026224 0.050609 0.000000
   vertex 0.033707 0.047752 0.002000
   vertex 0.038906 0.041658 0.000000
  endloop
 endfacet
 facet normal 0.409720 0.580487 -0.703679
  outer loop
   vertex 0.033707 0.047752 0.002000
   vertex 0.040271 0.043119 0.002000
   vertex 0.038906 0.041658 0.000000
  endloop
 endfacet
 facet normal 0.551146 0.448381 -0.703699
  outer loop
   vertex 0.038906 0.041658 0.000000
   vertex 0.040271 0.043119 0.002000
   vertex 0.045341 0.036887 0.002000
  endloop
 endfacet
 facet normal 0.551125 0.448332 -0.703747
  outer loop
   vertex 0.038906 0.041658 0.000000
   vertex 0.045341 0.036887 0.002000
   vertex 0.048702 0.029616 0.000000
  endloop
 endfacet
 facet normal 0.551073 0.448321 -0.703794
  outer loop
   vertex 0.045341 0.036887 0.002000
   vertex 0.050411 0.030655 0.002000
   vertex 0.048702 0.029616 0.000000
  endloop
 endfacet
 facet normal 0.651595 0.282994 -0.703803
  outer loop
   vertex 0.048702 0.029616 0.000000
   vertex 0.050411 0.030655 0.002000
   vertex 0.053611 0.023287 0.002000
  endloop
 endfacet
 facet normal 0.651611 0.283015 -0.703779
  outer loop
   vertex 0.048702 0.029616 0.000000
   vertex 0.053611 0.023287 0.002000
   vertex 0.054886 0.015378 0.000000
  endloop
 endfacet
 facet normal 0.651537 0.283020 -0.703846
  outer loop
   vertex 0.053611 0.023287 0.002000
   vertex 0.056812 0.015918 0.002000
   vertex 0.054886 0.015378 0.000000
  endloop
 endfacet
 facet normal 0.703751 0.096734 -0.703831
  outer loop
   vertex 0.054886 0.015378 0.000000
   vertex 0.056812 0.015918 0.002000
   vertex 0.057906 0.007959 0.002000
  endloop
 endfacet
 facet normal 0.703769 0.096747 -0.703811
  outer loop
   vertex 0.054886 0.015378 0.000000
   vertex 0.057906 0.007959 0.002000
   vertex 0.057000 0.000000 0.000000
  endloop
 endfacet
 facet normal 0.703790 0.096739 -0.703790
  outer loop
   vertex 0.057000 0.000000 0.000000
   vertex 0.057906 0.007959 0.002000
   vertex 0.059000 0.000000 0.002000
  endloop
 endfacet
 facet normal 0.703790 -0.096739 -0.703790
  outer loop
   vertex 0.057000 0.000000 0.000000
   vertex 0.059000 0.000000 0.002000
   vertex 0.057906 -0.007959 0.002000
  endloop
 endfacet
 facet normal -0.999390 -0.000096 0.034925
  outer loop
   vertex -0.056029 0.011034 0.145067
   vertex -0.055852 0.018000 0.150151
   vertex -0.056339 0.017520 0.136214
  endloop
 endfacet
 facet normal -0.999391 0.000000 0.034902
  outer loop
   vertex -0.054714 -0.022076 0.182731
   vertex -0.054714 -0.018000 0.182731
   vertex -0.055769 -0.019256 0.152522
  endloop
 endfacet
 facet normal -0.999391 -0.000145 0.034908
  outer loop
   vertex -0.055769 -0.019256 0.152522
   vertex -0.054714 -0.018000 0.182731
   vertex -0.055852 -0.018000 0.150151
  endloop
 endfacet
 facet normal -0.999391 -0.000178 0.034891
  outer loop
   vertex -0.055769 -0.019256 0.152522
   vertex -0.055852 -0.018000 0.150151
   vertex -0.056679 -0.016386 0.126471
  endloop
 endfacet
 facet normal -0.999390 -0.000133 0.034917
  outer loop
   vertex -0.058515 -0.007551 0.073894
   vertex -0.058053 -0.010526 0.087106
   vertex -0.056113 0.000030 0.142673
  endloop
 endfacet
 facet normal -0.999391 0.000000 0.034908
  outer loop
   vertex -0.054714 0.018000 0.182731
   vertex -0.054714 0.022076 0.182731
   vertex -0.055852 0.018000 0.150151
  endloop
 endfacet
 facet normal -0.999393 0.000730 0.034817
  outer loop
   vertex -0.055852 0.018000 0.150151
   vertex -0.054714 0.022076 0.182731
   vertex -0.055371 0.020372 0.163908
  endloop
 endfacet
 facet normal -0.999390 0.000152 0.034916
  outer loop
   vertex -0.055852 0.018000 0.150151
   vertex -0.055371 0.020372 0.163908
   vertex -0.056339 0.017520 0.136214
  endloop
 endfacet
 facet normal -0.999381 0.000239 0.035170
  outer loop
   vertex -0.056029 0.011034 0.145067
   vertex -0.056339 0.017520 0.136214
   vertex -0.056041 0.009718 0.144735
  endloop
 endfacet
 facet normal -0.999391 -0.000072 0.034886
  outer loop
   vertex -0.056041 0.009718 0.144735
   vertex -0.056339 0.017520 0.136214
   vertex -0.056794 0.015913 0.123176
  endloop
 endfacet
 facet normal -0.999391 -0.000049 0.034892
  outer loop
   vertex -0.056041 0.009718 0.144735
   vertex -0.056794 0.015913 0.123176
   vertex -0.056118 0.000920 0.142517
  endloop
 endfacet
 facet normal -0.999391 -0.000002 0.034903
  outer loop
   vertex -0.055852 -0.018000 0.150151
   vertex -0.056047 -0.009728 0.144568
   vertex -0.056679 -0.016386 0.126471
  endloop
 endfacet
 facet normal -0.999385 -0.000428 0.035059
  outer loop
   vertex -0.056679 -0.016386 0.126471
   vertex -0.056047 -0.009728 0.144568
   vertex -0.056056 -0.009354 0.144316
  endloop
 endfacet
 facet normal -0.999393 0.000127 0.034840
  outer loop
   vertex -0.056679 -0.016386 0.126471
   vertex -0.056056 -0.009354 0.144316
   vertex -0.056802 -0.015915 0.122941
  endloop
 endfacet
 facet normal -0.999392 0.000034 0.034869
  outer loop
   vertex -0.056802 -0.015915 0.122941
   vertex -0.056056 -0.009354 0.144316
   vertex -0.056113 0.000030 0.142673
  endloop
 endfacet
 facet normal -0.999391 -0.000012 0.034907
  outer loop
   vertex -0.056802 -0.015915 0.122941
   vertex -0.056113 0.000030 0.142673
   vertex -0.057441 -0.013474 0.104647
  endloop
 endfacet
 facet normal -0.999391 0.000064 0.034879
  outer loop
   vertex -0.057441 -0.013474 0.104647
   vertex -0.056113 0.000030 0.142673
   vertex -0.058053 -0.010526 0.087106
  endloop
 endfacet
 facet normal -0.999367 0.000939 0.035573
  outer loop
   vertex -0.058980 -0.001549 0.060583
   vertex -0.058824 -0.004556 0.065045
   vertex -0.058999 -0.000252 0.060015
  endloop
 endfacet
 facet normal -0.999428 -0.001137 0.033799
  outer loop
   vertex -0.058999 -0.000252 0.060015
   vertex -0.058824 -0.004556 0.065045
   vertex -0.058998 0.000000 0.060053
  endloop
 endfacet
 facet normal -0.999391 -0.000048 0.034893
  outer loop
   vertex -0.056794 0.015913 0.123176
   vertex -0.057159 0.014624 0.112720
   vertex -0.056118 0.000920 0.142517
  endloop
 endfacet
 facet normal -0.999390 0.000012 0.034921
  outer loop
   vertex -0.056118 0.000920 0.142517
   vertex -0.057159 0.014624 0.112720
   vertex -0.057831 0.011689 0.093489
  endloop
 endfacet
 facet normal -0.999391 -0.000041 0.034909
  outer loop
   vertex -0.056118 0.000920 0.142517
   vertex -0.057831 0.011689 0.093489
   vertex -0.058352 0.008724 0.078570
  endloop
 endfacet
 facet normal -0.999390 0.000110 0.034935
  outer loop
   vertex -0.058824 -0.004556 0.065045
   vertex -0.058515 -0.007551 0.073894
   vertex -0.058998 0.000000 0.060053
  endloop
 endfacet
 facet normal -0.999391 0.000041 0.034898
  outer loop
   vertex -0.058998 0.000000 0.060053
   vertex -0.058515 -0.007551 0.073894
   vertex -0.056113 0.000030 0.142673
  endloop
 endfacet
 facet normal -0.999391 -0.000735 0.034898
  outer loop
   vertex -0.058998 0.000000 0.060053
   vertex -0.056113 0.000030 0.142673
   vertex -0.058994 0.000875 0.060186
  endloop
 endfacet
 facet normal -0.999390 0.000505 0.034911
  outer loop
   vertex -0.058994 0.000875 0.060186
   vertex -0.056113 0.000030 0.142673
   vertex -0.056118 0.000920 0.142517
  endloop
 endfacet
 facet normal -0.999390 0.000089 0.034911
  outer loop
   vertex -0.058994 0.000875 0.060186
   vertex -0.056118 0.000920 0.142517
   vertex -0.058937 0.002733 0.061813
  endloop
 endfacet
 facet normal -0.999390 -0.000051 0.034908
  outer loop
   vertex -0.058937 0.002733 0.061813
   vertex -0.056118 0.000920 0.142517
   vertex -0.058352 0.008724 0.078570
  endloop
 endfacet
 facet normal -0.999390 -0.000078 0.034917
  outer loop
   vertex -0.058937 0.002733 0.061813
   vertex -0.058352 0.008724 0.078570
   vertex -0.058721 0.005736 0.068002
  endloop
 endfacet
 facet normal -0.788236 0.000000 0.615372
  outer loop
   vertex -0.054714 0.022076 0.182731
   vertex -0.054714 0.018000 0.182731
   vertex -0.050193 0.030538 0.188522
  endloop
 endfacet
 facet normal -0.788223 -0.000012 0.615389
  outer loop
   vertex -0.050193 0.030538 0.188522
   vertex -0.054714 0.018000 0.182731
   vertex -0.025617 0.018000 0.220000
  endloop
 endfacet
 facet normal -0.788210 0.000059 0.615407
  outer loop
   vertex -0.050193 0.030538 0.188522
   vertex -0.025617 0.018000 0.220000
   vertex -0.048764 0.033212 0.190352
  endloop
 endfacet
 facet normal -0.788224 0.000000 0.615388
  outer loop
   vertex -0.048764 0.033212 0.190352
   vertex -0.025617 0.018000 0.220000
   vertex -0.025617 0.041000 0.220000
  endloop
 endfacet
 facet normal -0.788225 0.000008 0.615387
  outer loop
   vertex -0.048764 0.033212 0.190352
   vertex -0.025617 0.041000 0.220000
   vertex -0.042426 0.041000 0.198470
  endloop
 endfacet
 facet normal 0.000000 1.000000 0.000000
  outer loop
   vertex 0.019146 0.041000 0.173738
   vertex 0.023359 0.041000 0.158016
   vertex -0.042426 0.041000 0.158016
  endloop
 endfacet
 facet normal 0.000000 1.000000 0.000000
  outer loop
   vertex -0.042426 0.041000 0.158016
   vertex -0.042426 0.041000 0.198470
   vertex 0.019146 0.041000 0.173738
  endloop
 endfacet
 facet normal 0.000000 1.000000 0.000000
  outer loop
   vertex 0.019146 0.041000 0.173738
   vertex -0.042426 0.041000 0.198470
   vertex -0.025617 0.041000 0.220000
  endloop
 endfacet
 facet normal 0.000000 1.000000 0.000000
  outer loop
   vertex 0.019146 0.041000 0.173738
   vertex -0.025617 0.041000 0.220000
   vertex 0.026844 0.041000 0.181679
  endloop
 endfacet
 facet normal 0.000000 1.000000 0.000000
  outer loop
   vertex 0.026844 0.041000 0.181679
   vertex -0.025617 0.041000 0.220000
   vertex -0.017428 0.041000 0.227432
  endloop
 endfacet
 facet normal 0.000000 1.000000 0.000000
  outer loop
   vertex 0.026844 0.041000 0.181679
   vertex -0.017428 0.041000 0.227432
   vertex 0.031433 0.041000 0.191741
  endloop
 endfacet
 facet normal 0.000000 1.000000 0.000000
  outer loop
   vertex 0.031433 0.041000 0.191741
   vertex -0.017428 0.041000 0.227432
   vertex -0.007220 0.041000 0.231688
  endloop
 endfacet
 facet normal 0.000000 1.000000 0.000000
  outer loop
   vertex 0.031433 0.041000 0.191741
   vertex -0.007220 0.041000 0.231688
   vertex 0.032383 0.041000 0.202760
  endloop
 endfacet
 facet normal 0.000000 1.000000 0.000000
  outer loop
   vertex 0.032383 0.041000 0.202760
   vertex -0.007220 0.041000 0.231688
   vertex 0.003824 0.041000 0.232274
  endloop
 endfacet
 facet normal 0.000000 1.000000 0.000000
  outer loop
   vertex 0.032383 0.041000 0.202760
   vertex 0.003824 0.041000 0.232274
   vertex 0.029582 0.041000 0.213459
  endloop
 endfacet
 facet normal 0.000000 1.000000 0.000000
  outer loop
   vertex 0.029582 0.041000 0.213459
   vertex 0.003824 0.041000 0.232274
   vertex 0.014426 0.041000 0.229123
  endloop
 endfacet
 facet normal 0.000000 1.000000 0.000000
  outer loop
   vertex 0.029582 0.041000 0.213459
   vertex 0.014426 0.041000 0.229123
   vertex 0.023356 0.041000 0.222600
  endloop
 endfacet
 facet normal 0.000000 0.642954 0.765905
  outer loop
   vertex -0.042426 0.041000 0.158016
   vertex 0.023359 0.041000 0.158016
   vertex -0.040090 0.042900 0.156421
  endloop
 endfacet
 facet normal -0.000008 0.642801 0.766034
  outer loop
   vertex -0.040090 0.042900 0.156421
   vertex 0.023359 0.041000 0.158016
   vertex 0.026043 0.052941 0.147996
  endloop
 endfacet
 facet normal 0.000014 0.642716 0.766104
  outer loop
   vertex -0.040090 0.042900 0.156421
   vertex 0.026043 0.052941 0.147996
   vertex -0.031503 0.049886 0.150560
  endloop
 endfacet
 facet normal -0.000006 0.642934 0.765922
  outer loop
   vertex -0.031503 0.049886 0.150560
   vertex 0.026043 0.052941 0.147996
   vertex 0.025426 0.053240 0.147745
  endloop
 endfacet
 facet normal -0.000000 0.642880 0.765967
  outer loop
   vertex -0.031503 0.049886 0.150560
   vertex 0.025426 0.053240 0.147745
   vertex -0.027091 0.052288 0.148544
  endloop
 endfacet
 facet normal 0.000003 0.642773 0.766056
  outer loop
   vertex -0.027091 0.052288 0.148544
   vertex 0.025426 0.053240 0.147745
   vertex 0.024806 0.053532 0.147500
  endloop
 endfacet
 facet normal 0.000000 0.642847 0.765995
  outer loop
   vertex -0.027091 0.052288 0.148544
   vertex 0.024806 0.053532 0.147500
   vertex -0.024806 0.053532 0.147500
  endloop
 endfacet
 facet normal -0.000177 0.996218 0.086886
  outer loop
   vertex -0.011998 0.057741 0.099393
   vertex 0.004026 0.058861 0.086584
   vertex -0.011257 0.057916 0.097388
  endloop
 endfacet
 facet normal 0.002845 0.995835 0.091128
  outer loop
   vertex -0.011257 0.057916 0.097388
   vertex 0.004026 0.058861 0.086584
   vertex 0.004000 0.058864 0.086552
  endloop
 endfacet
 facet normal 0.000056 0.996188 0.087232
  outer loop
   vertex -0.011257 0.057916 0.097388
   vertex 0.004000 0.058864 0.086552
   vertex -0.006554 0.058635 0.089174
  endloop
 endfacet
 facet normal 0.000087 0.996177 0.087355
  outer loop
   vertex -0.006554 0.058635 0.089174
   vertex 0.004000 0.058864 0.086552
   vertex 0.000718 0.058996 0.085050
  endloop
 endfacet
 facet normal -0.000283 0.996234 0.086707
  outer loop
   vertex -0.006554 0.058635 0.089174
   vertex 0.000718 0.058996 0.085050
   vertex -0.002082 0.058963 0.085420
  endloop
 endfacet
 facet normal -0.000416 0.996178 0.087345
  outer loop
   vertex 0.008730 0.058351 0.092423
   vertex 0.004026 0.058861 0.086584
   vertex 0.013402 0.057458 0.102630
  endloop
 endfacet
 facet normal -0.000001 0.996199 0.087105
  outer loop
   vertex 0.013402 0.057458 0.102630
   vertex 0.004026 0.058861 0.086584
   vertex -0.011998 0.057741 0.099393
  endloop
 endfacet
 facet normal -0.000013 0.996191 0.087195
  outer loop
   vertex 0.013402 0.057458 0.102630
   vertex -0.011998 0.057741 0.099393
   vertex 0.017988 0.056191 0.117106
  endloop
 endfacet
 facet normal -0.000002 0.996193 0.087177
  outer loop
   vertex 0.017988 0.056191 0.117106
   vertex -0.011998 0.057741 0.099393
   vertex -0.015886 0.056821 0.109906
  endloop
 endfacet
 facet normal -0.000007 0.996191 0.087201
  outer loop
   vertex 0.017988 0.056191 0.117106
   vertex -0.015886 0.056821 0.109906
   vertex 0.019742 0.055550 0.124429
  endloop
 endfacet
 facet normal 0.000000 0.996192 0.087182
  outer loop
   vertex 0.019742 0.055550 0.124429
   vertex -0.015886 0.056821 0.109906
   vertex -0.020412 0.055356 0.126646
  endloop
 endfacet
 facet normal -0.000002 0.996197 0.087135
  outer loop
   vertex 0.019742 0.055550 0.124429
   vertex -0.020412 0.055356 0.126646
   vertex 0.022457 0.054559 0.135759
  endloop
 endfacet
 facet normal -0.000002 0.996197 0.087132
  outer loop
   vertex 0.022457 0.054559 0.135759
   vertex -0.020412 0.055356 0.126646
   vertex -0.024806 0.053532 0.147500
  endloop
 endfacet
 facet normal 0.000000 0.996196 0.087138
  outer loop
   vertex 0.022457 0.054559 0.135759
   vertex -0.024806 0.053532 0.147500
   vertex 0.024806 0.053532 0.147500
  endloop
 endfacet
 facet normal 0.965921 0.000083 0.258836
  outer loop
   vertex 0.033990 -0.048157 0.118338
   vertex 0.039711 -0.043635 0.096987
   vertex 0.045374 -0.037712 0.075852
  endloop
 endfacet
 facet normal 0.965927 0.000000 0.258815
  outer loop
   vertex 0.019146 -0.018000 0.173738
   vertex 0.019146 -0.041000 0.173738
   vertex 0.025466 -0.018000 0.150151
  endloop
 endfacet
 facet normal 0.965921 0.000024 0.258836
  outer loop
   vertex 0.025466 -0.018000 0.150151
   vertex 0.019146 -0.041000 0.173738
   vertex 0.023359 -0.041000 0.158016
  endloop
 endfacet
 facet normal 0.965836 -0.000369 0.259153
  outer loop
   vertex 0.023359 -0.041000 0.158016
   vertex 0.026043 -0.052941 0.147996
   vertex 0.026211 -0.052858 0.147370
  endloop
 endfacet
 facet normal 0.965921 0.000000 0.258836
  outer loop
   vertex 0.019146 0.041000 0.173738
   vertex 0.019146 0.018000 0.173738
   vertex 0.023359 0.041000 0.158016
  endloop
 endfacet
 facet normal 0.965927 -0.000016 0.258815
  outer loop
   vertex 0.023359 0.041000 0.158016
   vertex 0.019146 0.018000 0.173738
   vertex 0.025466 0.018000 0.150151
  endloop
 endfacet
 facet normal 0.965944 0.000007 0.258751
  outer loop
   vertex 0.023359 0.041000 0.158016
   vertex 0.025466 0.018000 0.150151
   vertex 0.026043 0.052941 0.147996
  endloop
 endfacet
 facet normal 0.965920 0.000013 0.258841
  outer loop
   vertex 0.026043 0.052941 0.147996
   vertex 0.025466 0.018000 0.150151
   vertex 0.033128 0.048822 0.121557
  endloop
 endfacet
 facet normal 0.965965 -0.000155 0.258671
  outer loop
   vertex 0.033128 0.048822 0.121557
   vertex 0.025466 0.018000 0.150151
   vertex 0.033984 0.048149 0.118360
  endloop
 endfacet
 facet normal 0.965930 -0.000007 0.258802
  outer loop
   vertex 0.033984 0.048149 0.118360
   vertex 0.025466 0.018000 0.150151
   vertex 0.026890 0.010552 0.144836
  endloop
 endfacet
 facet normal 0.965920 0.000023 0.258842
  outer loop
   vertex 0.033984 0.048149 0.118360
   vertex 0.026890 0.010552 0.144836
   vertex 0.039573 0.043761 0.097504
  endloop
 endfacet
 facet normal 0.965887 0.000393 0.258964
  outer loop
   vertex 0.026941 0.009743 0.144647
   vertex 0.045727 0.037204 0.074537
   vertex 0.026890 0.010552 0.144836
  endloop
 endfacet
 facet normal 0.965883 0.000435 0.258978
  outer loop
   vertex 0.026890 0.010552 0.144836
   vertex 0.045727 0.037204 0.074537
   vertex 0.045254 0.037856 0.076300
  endloop
 endfacet
 facet normal 0.965930 -0.000036 0.258803
  outer loop
   vertex 0.026890 0.010552 0.144836
   vertex 0.045254 0.037856 0.076300
   vertex 0.039573 0.043761 0.097504
  endloop
 endfacet
 facet normal 0.965939 -0.000000 0.258770
  outer loop
   vertex 0.023359 -0.041000 0.158016
   vertex 0.026211 -0.052858 0.147370
   vertex 0.025466 -0.018000 0.150151
  endloop
 endfacet
 facet normal 0.965928 -0.000004 0.258812
  outer loop
   vertex 0.025466 -0.018000 0.150151
   vertex 0.026211 -0.052858 0.147370
   vertex 0.033282 -0.048716 0.120980
  endloop
 endfacet
 facet normal 0.965923 -0.000023 0.258831
  outer loop
   vertex 0.025466 -0.018000 0.150151
   vertex 0.033282 -0.048716 0.120980
   vertex 0.026970 -0.009748 0.144539
  endloop
 endfacet
 facet normal 0.965920 -0.000028 0.258839
  outer loop
   vertex 0.026970 -0.009748 0.144539
   vertex 0.033282 -0.048716 0.120980
   vertex 0.033990 -0.048157 0.118338
  endloop
 endfacet
 facet normal 0.966543 0.001682 0.256499
  outer loop
   vertex 0.026970 -0.009748 0.144539
   vertex 0.033990 -0.048157 0.118338
   vertex 0.027011 -0.009519 0.144383
  endloop
 endfacet
 facet normal 0.965926 0.000007 0.258819
  outer loop
   vertex 0.027011 -0.009519 0.144383
   vertex 0.033990 -0.048157 0.118338
   vertex 0.045374 -0.037712 0.075852
  endloop
 endfacet
 facet normal 0.965921 -0.000036 0.258835
  outer loop
   vertex 0.027011 -0.009519 0.144383
   vertex 0.045374 -0.037712 0.075852
   vertex 0.027487 0.000020 0.142608
  endloop
 endfacet
 facet normal 0.966160 0.000751 0.257941
  outer loop
   vertex 0.058418 0.008268 0.027173
   vertex 0.056709 0.016282 0.033551
   vertex 0.058435 0.008033 0.027110
  endloop
 endfacet
 facet normal 0.965924 0.000011 0.258825
  outer loop
   vertex 0.058435 0.008033 0.027110
   vertex 0.056709 0.016282 0.033551
   vertex 0.027514 0.000564 0.142506
  endloop
 endfacet
 facet normal 0.965925 -0.000046 0.258822
  outer loop
   vertex 0.058435 0.008033 0.027110
   vertex 0.027514 0.000564 0.142506
   vertex 0.059000 0.000094 0.025000
  endloop
 endfacet
 facet normal 0.965925 -0.000026 0.258822
  outer loop
   vertex 0.059000 0.000094 0.025000
   vertex 0.027514 0.000564 0.142506
   vertex 0.058447 -0.008034 0.027063
  endloop
 endfacet
 facet normal 0.966002 0.000531 0.258536
  outer loop
   vertex 0.027487 0.000020 0.142608
   vertex 0.045374 -0.037712 0.075852
   vertex 0.027514 0.000564 0.142506
  endloop
 endfacet
 facet normal 0.965917 -0.000056 0.258850
  outer loop
   vertex 0.027514 0.000564 0.142506
   vertex 0.045374 -0.037712 0.075852
   vertex 0.045735 -0.037210 0.074505
  endloop
 endfacet
 facet normal 0.965921 -0.000027 0.258836
  outer loop
   vertex 0.027514 0.000564 0.142506
   vertex 0.045735 -0.037210 0.074505
   vertex 0.050162 -0.031061 0.057985
  endloop
 endfacet
 facet normal 0.965925 -0.000017 0.258822
  outer loop
   vertex 0.056709 0.016282 0.033551
   vertex 0.054084 0.023494 0.043348
   vertex 0.027514 0.000564 0.142506
  endloop
 endfacet
 facet normal 0.965918 0.000113 0.258850
  outer loop
   vertex 0.027514 0.000564 0.142506
   vertex 0.054084 0.023494 0.043348
   vertex 0.053906 0.023982 0.044012
  endloop
 endfacet
 facet normal 0.965928 -0.000069 0.258809
  outer loop
   vertex 0.027514 0.000564 0.142506
   vertex 0.053906 0.023982 0.044012
   vertex 0.026941 0.009743 0.144647
  endloop
 endfacet
 facet normal 0.965925 0.000037 0.258823
  outer loop
   vertex 0.026941 0.009743 0.144647
   vertex 0.053906 0.023982 0.044012
   vertex 0.050063 0.031220 0.058353
  endloop
 endfacet
 facet normal 0.965929 -0.000040 0.258805
  outer loop
   vertex 0.026941 0.009743 0.144647
   vertex 0.050063 0.031220 0.058353
   vertex 0.045727 0.037204 0.074537
  endloop
 endfacet
 facet normal 0.960894 0.014865 0.276518
  outer loop
   vertex 0.058444 -0.008082 0.027076
   vertex 0.058447 -0.008034 0.027063
   vertex 0.056760 -0.016102 0.033359
  endloop
 endfacet
 facet normal 0.965926 0.000002 0.258820
  outer loop
   vertex 0.056760 -0.016102 0.033359
   vertex 0.058447 -0.008034 0.027063
   vertex 0.027514 0.000564 0.142506
  endloop
 endfacet
 facet normal 0.965928 0.000062 0.258811
  outer loop
   vertex 0.056760 -0.016102 0.033359
   vertex 0.027514 0.000564 0.142506
   vertex 0.054095 -0.023498 0.043307
  endloop
 endfacet
 facet normal 0.965924 0.000005 0.258824
  outer loop
   vertex 0.054095 -0.023498 0.043307
   vertex 0.027514 0.000564 0.142506
   vertex 0.050162 -0.031061 0.057985
  endloop
 endfacet
 facet normal 0.965825 0.000776 0.259195
  outer loop
   vertex 0.054095 -0.023498 0.043307
   vertex 0.050162 -0.031061 0.057985
   vertex 0.053982 -0.023811 0.043729
  endloop
 endfacet
 facet normal 0.935113 -0.354120 -0.012766
  outer loop
   vertex 0.056760 -0.016102 0.033359
   vertex 0.054095 -0.023498 0.043307
   vertex 0.053611 -0.023287 0.002000
  endloop
 endfacet
 facet normal -0.538203 -0.842129 -0.034015
  outer loop
   vertex -0.022457 -0.054559 0.135759
   vertex -0.024806 -0.053532 0.147500
   vertex -0.027011 -0.052169 0.148644
  endloop
 endfacet
 facet normal -0.878328 0.477892 -0.012605
  outer loop
   vertex -0.055371 0.020372 0.163908
   vertex -0.054714 0.022076 0.182731
   vertex -0.050193 0.030538 0.188522
  endloop
 endfacet
 facet normal 0.442894 0.896329 -0.020957
  outer loop
   vertex 0.025426 0.053240 0.147745
   vertex 0.026043 0.052941 0.147996
   vertex 0.033128 0.048822 0.121557
  endloop
 endfacet
 facet normal 0.353268 0.935518 -0.002826
  outer loop
   vertex 0.022457 0.054559 0.135759
   vertex 0.027144 0.052385 0.002000
   vertex 0.019742 0.055550 0.124429
  endloop
 endfacet
 facet normal 0.334945 0.942229 -0.004108
  outer loop
   vertex 0.019742 0.055550 0.124429
   vertex 0.027144 0.052385 0.002000
   vertex 0.019574 0.055076 0.002000
  endloop
 endfacet
 facet normal 0.358324 0.933588 -0.004106
  outer loop
   vertex 0.019742 0.055550 0.124429
   vertex 0.019574 0.055076 0.002000
   vertex 0.017988 0.056191 0.117106
  endloop
 endfacet
 facet normal 0.576702 0.816944 -0.004160
  outer loop
   vertex 0.033707 0.047752 0.002000
   vertex 0.027144 0.052385 0.002000
   vertex 0.033984 0.048149 0.118360
  endloop
 endfacet
 facet normal 0.489422 0.872042 0.002976
  outer loop
   vertex 0.033984 0.048149 0.118360
   vertex 0.027144 0.052385 0.002000
   vertex 0.022457 0.054559 0.135759
  endloop
 endfacet
 facet normal 0.369688 0.924227 -0.095574
  outer loop
   vertex 0.033984 0.048149 0.118360
   vertex 0.022457 0.054559 0.135759
   vertex 0.033128 0.048822 0.121557
  endloop
 endfacet
 facet normal 0.458864 0.888395 -0.014095
  outer loop
   vertex 0.033128 0.048822 0.121557
   vertex 0.022457 0.054559 0.135759
   vertex 0.024806 0.053532 0.147500
  endloop
 endfacet
 facet normal 0.433814 0.900673 -0.024360
  outer loop
   vertex 0.033128 0.048822 0.121557
   vertex 0.024806 0.053532 0.147500
   vertex 0.025426 0.053240 0.147745
  endloop
 endfacet
 facet normal -0.082360 0.996541 -0.011041
  outer loop
   vertex -0.006554 0.058635 0.089174
   vertex -0.002082 0.058963 0.085420
   vertex -0.011892 0.057228 0.002000
  endloop
 endfacet
 facet normal -0.203386 0.979092 0.003554
  outer loop
   vertex -0.011892 0.057228 0.002000
   vertex -0.002082 0.058963 0.085420
   vertex -0.004026 0.058862 0.002000
  endloop
 endfacet
 facet normal -0.011908 0.999929 -0.000933
  outer loop
   vertex -0.004026 0.058862 0.002000
   vertex -0.002082 0.058963 0.085420
   vertex 0.000718 0.058996 0.085050
  endloop
 endfacet
 facet normal 0.068212 0.997656 -0.005506
  outer loop
   vertex -0.004026 0.058862 0.002000
   vertex 0.000718 0.058996 0.085050
   vertex 0.003989 0.058314 0.002000
  endloop
 endfacet
 facet normal 0.043157 0.999047 -0.006504
  outer loop
   vertex 0.000718 0.058996 0.085050
   vertex 0.004000 0.058864 0.086552
   vertex 0.003989 0.058314 0.002000
  endloop
 endfacet
 facet normal 0.122577 0.992438 -0.006472
  outer loop
   vertex 0.003989 0.058314 0.002000
   vertex 0.004000 0.058864 0.086552
   vertex 0.004026 0.058861 0.086584
  endloop
 endfacet
 facet normal 0.068211 0.997650 -0.006482
  outer loop
   vertex 0.003989 0.058314 0.002000
   vertex 0.004026 0.058861 0.086584
   vertex 0.012004 0.057766 0.002000
  endloop
 endfacet
 facet normal 0.110754 0.993845 -0.002420
  outer loop
   vertex 0.012004 0.057766 0.002000
   vertex 0.004026 0.058861 0.086584
   vertex 0.008730 0.058351 0.092423
  endloop
 endfacet
 facet normal 0.334832 0.942259 0.006027
  outer loop
   vertex 0.012004 0.057766 0.002000
   vertex 0.008730 0.058351 0.092423
   vertex 0.019574 0.055076 0.002000
  endloop
 endfacet
 facet normal 0.209397 0.977776 -0.010302
  outer loop
   vertex 0.019574 0.055076 0.002000
   vertex 0.008730 0.058351 0.092423
   vertex 0.013402 0.057458 0.102630
  endloop
 endfacet
 facet normal 0.282113 0.959366 -0.005406
  outer loop
   vertex 0.019574 0.055076 0.002000
   vertex 0.013402 0.057458 0.102630
   vertex 0.017988 0.056191 0.117106
  endloop
 endfacet
 facet normal -0.336688 0.941577 -0.008629
  outer loop
   vertex -0.020412 0.055356 0.126646
   vertex -0.015886 0.056821 0.109906
   vertex -0.026891 0.051897 0.002000
  endloop
 endfacet
 facet normal -0.460053 0.887868 0.006404
  outer loop
   vertex -0.026891 0.051897 0.002000
   vertex -0.015886 0.056821 0.109906
   vertex -0.019758 0.055593 0.002000
  endloop
 endfacet
 facet normal -0.236814 0.971552 -0.002559
  outer loop
   vertex -0.019758 0.055593 0.002000
   vertex -0.015886 0.056821 0.109906
   vertex -0.011998 0.057741 0.099393
  endloop
 endfacet
 facet normal -0.203504 0.979059 -0.005379
  outer loop
   vertex -0.019758 0.055593 0.002000
   vertex -0.011998 0.057741 0.099393
   vertex -0.011892 0.057228 0.002000
  endloop
 endfacet
 facet normal -0.243590 0.969863 -0.005374
  outer loop
   vertex -0.011892 0.057228 0.002000
   vertex -0.011998 0.057741 0.099393
   vertex -0.011257 0.057916 0.097388
  endloop
 endfacet
 facet normal -0.161428 0.986866 -0.006043
  outer loop
   vertex -0.011892 0.057228 0.002000
   vertex -0.011257 0.057916 0.097388
   vertex -0.006554 0.058635 0.089174
  endloop
 endfacet
 facet normal -0.854410 0.519567 0.005755
  outer loop
   vertex -0.049941 0.030370 0.002000
   vertex -0.042426 0.041000 0.158016
   vertex -0.045767 0.037234 0.002000
  endloop
 endfacet
 facet normal -0.633088 0.774063 -0.005127
  outer loop
   vertex -0.045767 0.037234 0.002000
   vertex -0.042426 0.041000 0.158016
   vertex -0.040090 0.042900 0.156421
  endloop
 endfacet
 facet normal -0.682610 0.730781 -0.001719
  outer loop
   vertex -0.045767 0.037234 0.002000
   vertex -0.040090 0.042900 0.156421
   vertex -0.039896 0.042718 0.002000
  endloop
 endfacet
 facet normal -0.631786 0.775141 -0.001707
  outer loop
   vertex -0.039896 0.042718 0.002000
   vertex -0.040090 0.042900 0.156421
   vertex -0.031503 0.049886 0.150560
  endloop
 endfacet
 facet normal -0.682478 0.730898 0.003291
  outer loop
   vertex -0.039896 0.042718 0.002000
   vertex -0.031503 0.049886 0.150560
   vertex -0.034024 0.048201 0.002000
  endloop
 endfacet
 facet normal -0.478800 0.877922 -0.001833
  outer loop
   vertex -0.034024 0.048201 0.002000
   vertex -0.031503 0.049886 0.150560
   vertex -0.027091 0.052288 0.148544
  endloop
 endfacet
 facet normal -0.460061 0.887882 -0.002997
  outer loop
   vertex -0.034024 0.048201 0.002000
   vertex -0.027091 0.052288 0.148544
   vertex -0.026891 0.051897 0.002000
  endloop
 endfacet
 facet normal -0.479205 0.877698 -0.002996
  outer loop
   vertex -0.026891 0.051897 0.002000
   vertex -0.027091 0.052288 0.148544
   vertex -0.024806 0.053532 0.147500
  endloop
 endfacet
 facet normal -0.401670 0.915773 -0.004535
  outer loop
   vertex -0.026891 0.051897 0.002000
   vertex -0.024806 0.053532 0.147500
   vertex -0.020412 0.055356 0.126646
  endloop
 endfacet
 facet normal -0.870170 0.492334 -0.020287
  outer loop
   vertex -0.055371 0.020372 0.163908
   vertex -0.050193 0.030538 0.188522
   vertex -0.056339 0.017520 0.136214
  endloop
 endfacet
 facet normal -0.986549 0.163049 -0.011654
  outer loop
   vertex -0.058721 0.005736 0.068002
   vertex -0.058352 0.008724 0.078570
   vertex -0.056283 0.015770 0.002000
  endloop
 endfacet
 facet normal -0.978026 0.208357 -0.007254
  outer loop
   vertex -0.056283 0.015770 0.002000
   vertex -0.058352 0.008724 0.078570
   vertex -0.057831 0.011689 0.093489
  endloop
 endfacet
 facet normal -0.967108 0.254318 -0.005019
  outer loop
   vertex -0.057831 0.011689 0.093489
   vertex -0.057159 0.014624 0.112720
   vertex -0.056283 0.015770 0.002000
  endloop
 endfacet
 facet normal -0.952293 0.305153 -0.004376
  outer loop
   vertex -0.056283 0.015770 0.002000
   vertex -0.057159 0.014624 0.112720
   vertex -0.056794 0.015913 0.123176
  endloop
 endfacet
 facet normal -0.962893 0.269849 -0.004379
  outer loop
   vertex -0.056283 0.015770 0.002000
   vertex -0.056794 0.015913 0.123176
   vertex -0.054115 0.023506 0.002000
  endloop
 endfacet
 facet normal -0.956062 0.293151 -0.002768
  outer loop
   vertex -0.054115 0.023506 0.002000
   vertex -0.056794 0.015913 0.123176
   vertex -0.056339 0.017520 0.136214
  endloop
 endfacet
 facet normal -0.854390 0.519555 0.009015
  outer loop
   vertex -0.054115 0.023506 0.002000
   vertex -0.056339 0.017520 0.136214
   vertex -0.049941 0.030370 0.002000
  endloop
 endfacet
 facet normal -0.901776 0.432202 -0.001608
  outer loop
   vertex -0.049941 0.030370 0.002000
   vertex -0.056339 0.017520 0.136214
   vertex -0.050193 0.030538 0.188522
  endloop
 endfacet
 facet normal -0.805176 0.593034 -0.001622
  outer loop
   vertex -0.049941 0.030370 0.002000
   vertex -0.050193 0.030538 0.188522
   vertex -0.042426 0.041000 0.158016
  endloop
 endfacet
 facet normal -0.866216 0.497158 -0.050043
  outer loop
   vertex -0.042426 0.041000 0.158016
   vertex -0.050193 0.030538 0.188522
   vertex -0.048764 0.033212 0.190352
  endloop
 endfacet
 facet normal -0.775614 0.631207 0.000000
  outer loop
   vertex -0.042426 0.041000 0.158016
   vertex -0.048764 0.033212 0.190352
   vertex -0.042426 0.041000 0.198470
  endloop
 endfacet
 facet normal -0.981578 -0.190865 -0.008654
  outer loop
   vertex -0.058053 -0.010526 0.087106
   vertex -0.058515 -0.007551 0.073894
   vertex -0.056283 -0.015770 0.002000
  endloop
 endfacet
 facet normal -0.989453 -0.144152 -0.014239
  outer loop
   vertex -0.058515 -0.007551 0.073894
   vertex -0.058824 -0.004556 0.065045
   vertex -0.056283 -0.015770 0.002000
  endloop
 endfacet
 facet normal -0.995820 -0.087994 -0.024484
  outer loop
   vertex -0.056283 -0.015770 0.002000
   vertex -0.058824 -0.004556 0.065045
   vertex -0.058980 -0.001549 0.060583
  endloop
 endfacet
 facet normal -0.962719 -0.269676 0.021143
  outer loop
   vertex -0.056283 -0.015770 0.002000
   vertex -0.058980 -0.001549 0.060583
   vertex -0.058450 -0.008034 0.002000
  endloop
 endfacet
 facet normal -0.999817 -0.017747 -0.007081
  outer loop
   vertex -0.058450 -0.008034 0.002000
   vertex -0.058980 -0.001549 0.060583
   vertex -0.058999 -0.000252 0.060015
  endloop
 endfacet
 facet normal -0.997665 -0.068299 -0.000279
  outer loop
   vertex -0.058450 -0.008034 0.002000
   vertex -0.058999 -0.000252 0.060015
   vertex -0.059000 0.000000 0.002000
  endloop
 endfacet
 facet normal -0.999992 0.003957 0.000034
  outer loop
   vertex -0.059000 0.000000 0.002000
   vertex -0.058999 -0.000252 0.060015
   vertex -0.058998 0.000000 0.060053
  endloop
 endfacet
 facet normal -0.997665 0.068299 0.000034
  outer loop
   vertex -0.059000 0.000000 0.002000
   vertex -0.058998 0.000000 0.060053
   vertex -0.058450 0.008034 0.002000
  endloop
 endfacet
 facet normal -0.999946 0.005883 -0.008625
  outer loop
   vertex -0.058450 0.008034 0.002000
   vertex -0.058998 0.000000 0.060053
   vertex -0.058994 0.000875 0.060186
  endloop
 endfacet
 facet normal -0.962653 0.269657 0.024177
  outer loop
   vertex -0.058450 0.008034 0.002000
   vertex -0.058994 0.000875 0.060186
   vertex -0.056283 0.015770 0.002000
  endloop
 endfacet
 facet normal -0.997802 0.058261 -0.031575
  outer loop
   vertex -0.056283 0.015770 0.002000
   vertex -0.058994 0.000875 0.060186
   vertex -0.058937 0.002733 0.061813
  endloop
 endfacet
 facet normal -0.993513 0.112003 -0.019671
  outer loop
   vertex -0.056283 0.015770 0.002000
   vertex -0.058937 0.002733 0.061813
   vertex -0.058721 0.005736 0.068002
  endloop
 endfacet
 facet normal -0.889055 -0.457652 -0.011673
  outer loop
   vertex -0.050379 -0.030639 0.188284
   vertex -0.054714 -0.022076 0.182731
   vertex -0.055769 -0.019256 0.152522
  endloop
 endfacet
 facet normal -0.900431 -0.434991 -0.002745
  outer loop
   vertex -0.050379 -0.030639 0.188284
   vertex -0.055769 -0.019256 0.152522
   vertex -0.049941 -0.030370 0.002000
  endloop
 endfacet
 facet normal -0.928359 -0.371586 -0.008508
  outer loop
   vertex -0.049941 -0.030370 0.002000
   vertex -0.055769 -0.019256 0.152522
   vertex -0.056679 -0.016386 0.126471
  endloop
 endfacet
 facet normal -0.854362 -0.519538 0.012120
  outer loop
   vertex -0.049941 -0.030370 0.002000
   vertex -0.056679 -0.016386 0.126471
   vertex -0.054115 -0.023506 0.002000
  endloop
 endfacet
 facet normal -0.960205 -0.279271 -0.003805
  outer loop
   vertex -0.054115 -0.023506 0.002000
   vertex -0.056679 -0.016386 0.126471
   vertex -0.056802 -0.015915 0.122941
  endloop
 endfacet
 facet normal -0.962892 -0.269849 -0.004456
  outer loop
   vertex -0.054115 -0.023506 0.002000
   vertex -0.056802 -0.015915 0.122941
   vertex -0.056283 -0.015770 0.002000
  endloop
 endfacet
 facet normal -0.958708 -0.284357 -0.004455
  outer loop
   vertex -0.056283 -0.015770 0.002000
   vertex -0.056802 -0.015915 0.122941
   vertex -0.057441 -0.013474 0.104647
  endloop
 endfacet
 facet normal -0.971827 -0.235625 -0.005693
  outer loop
   vertex -0.056283 -0.015770 0.002000
   vertex -0.057441 -0.013474 0.104647
   vertex -0.058053 -0.010526 0.087106
  endloop
 endfacet
 facet normal -0.789297 -0.614012 0.000000
  outer loop
   vertex -0.042426 -0.041000 0.158016
   vertex -0.042426 -0.041000 0.198470
   vertex -0.050178 -0.031035 0.188541
  endloop
 endfacet
 facet normal -0.301904 -0.953260 -0.012210
  outer loop
   vertex -0.017988 -0.056191 0.117106
   vertex -0.026891 -0.051897 0.002000
   vertex -0.013402 -0.057458 0.102630
  endloop
 endfacet
 facet normal -0.460026 -0.887816 0.012602
  outer loop
   vertex -0.013402 -0.057458 0.102630
   vertex -0.026891 -0.051897 0.002000
   vertex -0.019758 -0.055593 0.002000
  endloop
 endfacet
 facet normal -0.199015 -0.979981 -0.005592
  outer loop
   vertex -0.013402 -0.057458 0.102630
   vertex -0.019758 -0.055593 0.002000
   vertex -0.011996 -0.057726 0.099558
  endloop
 endfacet
 facet normal -0.203504 -0.979060 -0.005215
  outer loop
   vertex -0.011996 -0.057726 0.099558
   vertex -0.019758 -0.055593 0.002000
   vertex -0.011892 -0.057228 0.002000
  endloop
 endfacet
 facet normal -0.198930 -0.980000 -0.005215
  outer loop
   vertex -0.011996 -0.057726 0.099558
   vertex -0.011892 -0.057228 0.002000
   vertex -0.008730 -0.058351 0.092423
  endloop
 endfacet
 facet normal -0.366378 -0.930444 -0.006372
  outer loop
   vertex -0.017988 -0.056191 0.117106
   vertex -0.022457 -0.054559 0.135759
   vertex -0.026891 -0.051897 0.002000
  endloop
 endfacet
 facet normal -0.469183 -0.883099 -0.002022
  outer loop
   vertex -0.026891 -0.051897 0.002000
   vertex -0.022457 -0.054559 0.135759
   vertex -0.027011 -0.052169 0.148644
  endloop
 endfacet
 facet normal -0.460062 -0.887884 -0.002023
  outer loop
   vertex -0.026891 -0.051897 0.002000
   vertex -0.027011 -0.052169 0.148644
   vertex -0.034024 -0.048201 0.002000
  endloop
 endfacet
 facet normal -0.524948 -0.851131 0.002074
  outer loop
   vertex -0.034024 -0.048201 0.002000
   vertex -0.027011 -0.052169 0.148644
   vertex -0.036784 -0.046129 0.153712
  endloop
 endfacet
 facet normal -0.682480 -0.730900 -0.002434
  outer loop
   vertex -0.034024 -0.048201 0.002000
   vertex -0.036784 -0.046129 0.153712
   vertex -0.039896 -0.042718 0.002000
  endloop
 endfacet
 facet normal -0.673803 -0.738906 -0.002792
  outer loop
   vertex -0.039896 -0.042718 0.002000
   vertex -0.036784 -0.046129 0.153712
   vertex -0.040191 -0.043032 0.156310
  endloop
 endfacet
 facet normal -0.682608 -0.730779 -0.002792
  outer loop
   vertex -0.039896 -0.042718 0.002000
   vertex -0.040191 -0.043032 0.156310
   vertex -0.045767 -0.037234 0.002000
  endloop
 endfacet
 facet normal -0.674118 -0.738616 -0.003393
  outer loop
   vertex -0.045767 -0.037234 0.002000
   vertex -0.040191 -0.043032 0.156310
   vertex -0.042426 -0.041000 0.158016
  endloop
 endfacet
 facet normal -0.854410 -0.519567 0.005755
  outer loop
   vertex -0.045767 -0.037234 0.002000
   vertex -0.042426 -0.041000 0.158016
   vertex -0.049941 -0.030370 0.002000
  endloop
 endfacet
 facet normal -0.793985 -0.607930 -0.003176
  outer loop
   vertex -0.049941 -0.030370 0.002000
   vertex -0.042426 -0.041000 0.158016
   vertex -0.050178 -0.031035 0.188541
  endloop
 endfacet
 facet normal -0.890982 -0.454030 -0.002751
  outer loop
   vertex -0.049941 -0.030370 0.002000
   vertex -0.050178 -0.031035 0.188541
   vertex -0.050379 -0.030639 0.188284
  endloop
 endfacet
 facet normal 0.248515 -0.968602 -0.007170
  outer loop
   vertex 0.015886 -0.056821 0.109906
   vertex 0.011257 -0.057916 0.097388
   vertex 0.019574 -0.055076 0.002000
  endloop
 endfacet
 facet normal 0.175042 -0.984461 -0.014048
  outer loop
   vertex 0.019574 -0.055076 0.002000
   vertex 0.011257 -0.057916 0.097388
   vertex 0.006554 -0.058635 0.089174
  endloop
 endfacet
 facet normal 0.334816 -0.942213 0.011540
  outer loop
   vertex 0.019574 -0.055076 0.002000
   vertex 0.006554 -0.058635 0.089174
   vertex 0.012004 -0.057766 0.002000
  endloop
 endfacet
 facet normal 0.077541 -0.996976 -0.005091
  outer loop
   vertex 0.012004 -0.057766 0.002000
   vertex 0.006554 -0.058635 0.089174
   vertex 0.004023 -0.058821 0.087049
  endloop
 endfacet
 facet normal 0.068211 -0.997653 -0.005975
  outer loop
   vertex 0.012004 -0.057766 0.002000
   vertex 0.004023 -0.058821 0.087049
   vertex 0.003989 -0.058314 0.002000
  endloop
 endfacet
 facet normal 0.077948 -0.996939 -0.005974
  outer loop
   vertex 0.003989 -0.058314 0.002000
   vertex 0.004023 -0.058821 0.087049
   vertex 0.002082 -0.058963 0.085420
  endloop
 endfacet
 facet normal 0.068211 -0.997652 -0.006202
  outer loop
   vertex 0.003989 -0.058314 0.002000
   vertex 0.002082 -0.058963 0.085420
   vertex -0.004026 -0.058862 0.002000
  endloop
 endfacet
 facet normal 0.012061 -0.999925 -0.002094
  outer loop
   vertex -0.004026 -0.058862 0.002000
   vertex 0.002082 -0.058963 0.085420
   vertex -0.000718 -0.058996 0.085050
  endloop
 endfacet
 facet normal -0.203383 -0.979077 0.006521
  outer loop
   vertex -0.004026 -0.058862 0.002000
   vertex -0.000718 -0.058996 0.085050
   vertex -0.011892 -0.057228 0.002000
  endloop
 endfacet
 facet normal -0.047006 -0.998783 -0.014938
  outer loop
   vertex -0.011892 -0.057228 0.002000
   vertex -0.000718 -0.058996 0.085050
   vertex -0.004000 -0.058864 0.086552
  endloop
 endfacet
 facet normal -0.117888 -0.992993 -0.008210
  outer loop
   vertex -0.011892 -0.057228 0.002000
   vertex -0.004000 -0.058864 0.086552
   vertex -0.008730 -0.058351 0.092423
  endloop
 endfacet
 facet normal 0.334945 -0.942227 -0.004368
  outer loop
   vertex 0.027144 -0.052385 0.002000
   vertex 0.020412 -0.055356 0.126646
   vertex 0.019574 -0.055076 0.002000
  endloop
 endfacet
 facet normal 0.323241 -0.946307 -0.004299
  outer loop
   vertex 0.019574 -0.055076 0.002000
   vertex 0.020412 -0.055356 0.126646
   vertex 0.019750 -0.055571 0.124197
  endloop
 endfacet
 facet normal 0.322149 -0.946679 -0.004299
  outer loop
   vertex 0.019574 -0.055076 0.002000
   vertex 0.019750 -0.055571 0.124197
   vertex 0.015886 -0.056821 0.109906
  endloop
 endfacet
 facet normal 0.436774 -0.899569 -0.002054
  outer loop
   vertex 0.026043 -0.052941 0.147996
   vertex 0.025426 -0.053240 0.147745
   vertex 0.026211 -0.052858 0.147370
  endloop
 endfacet
 facet normal 0.431249 -0.902088 -0.016185
  outer loop
   vertex 0.026211 -0.052858 0.147370
   vertex 0.025426 -0.053240 0.147745
   vertex 0.024806 -0.053532 0.147500
  endloop
 endfacet
 facet normal 0.430396 -0.902257 -0.026291
  outer loop
   vertex 0.026211 -0.052858 0.147370
   vertex 0.024806 -0.053532 0.147500
   vertex 0.033282 -0.048716 0.120980
  endloop
 endfacet
 facet normal 0.452396 -0.891649 -0.017333
  outer loop
   vertex 0.033282 -0.048716 0.120980
   vertex 0.024806 -0.053532 0.147500
   vertex 0.020412 -0.055356 0.126646
  endloop
 endfacet
 facet normal 0.431030 -0.899236 -0.074756
  outer loop
   vertex 0.033282 -0.048716 0.120980
   vertex 0.020412 -0.055356 0.126646
   vertex 0.033990 -0.048157 0.118338
  endloop
 endfacet
 facet normal 0.470515 -0.882381 0.004380
  outer loop
   vertex 0.033990 -0.048157 0.118338
   vertex 0.020412 -0.055356 0.126646
   vertex 0.027144 -0.052385 0.002000
  endloop
 endfacet
 facet normal 0.576702 -0.816943 -0.004247
  outer loop
   vertex 0.033990 -0.048157 0.118338
   vertex 0.027144 -0.052385 0.002000
   vertex 0.033707 -0.047752 0.002000
  endloop
 endfacet
 facet normal 0.917153 -0.398329 -0.012781
  outer loop
   vertex 0.053611 -0.023287 0.002000
   vertex 0.054095 -0.023498 0.043307
   vertex 0.050411 -0.030655 0.002000
  endloop
 endfacet
 facet normal 0.931425 -0.363377 -0.020110
  outer loop
   vertex 0.050411 -0.030655 0.002000
   vertex 0.054095 -0.023498 0.043307
   vertex 0.053982 -0.023811 0.043729
  endloop
 endfacet
 facet normal 0.775184 -0.630646 0.037095
  outer loop
   vertex 0.050411 -0.030655 0.002000
   vertex 0.053982 -0.023811 0.043729
   vertex 0.045341 -0.036887 0.002000
  endloop
 endfacet
 facet normal 0.865578 -0.500269 -0.022477
  outer loop
   vertex 0.053982 -0.023811 0.043729
   vertex 0.050162 -0.031061 0.057985
   vertex 0.045341 -0.036887 0.002000
  endloop
 endfacet
 facet normal 0.802496 -0.596617 -0.007019
  outer loop
   vertex 0.045341 -0.036887 0.002000
   vertex 0.050162 -0.031061 0.057985
   vertex 0.045735 -0.037210 0.074505
  endloop
 endfacet
 facet normal 0.775699 -0.631065 -0.007027
  outer loop
   vertex 0.045341 -0.036887 0.002000
   vertex 0.045735 -0.037210 0.074505
   vertex 0.040271 -0.043119 0.002000
  endloop
 endfacet
 facet normal 0.797644 -0.603029 -0.010965
  outer loop
   vertex 0.040271 -0.043119 0.002000
   vertex 0.045735 -0.037210 0.074505
   vertex 0.045374 -0.037712 0.075852
  endloop
 endfacet
 facet normal 0.576534 -0.816829 0.019966
  outer loop
   vertex 0.040271 -0.043119 0.002000
   vertex 0.045374 -0.037712 0.075852
   vertex 0.033707 -0.047752 0.002000
  endloop
 endfacet
 facet normal 0.698830 -0.715166 -0.013175
  outer loop
   vertex 0.033707 -0.047752 0.002000
   vertex 0.045374 -0.037712 0.075852
   vertex 0.039711 -0.043635 0.096987
  endloop
 endfacet
 facet normal 0.610304 -0.792156 -0.004242
  outer loop
   vertex 0.033707 -0.047752 0.002000
   vertex 0.039711 -0.043635 0.096987
   vertex 0.033990 -0.048157 0.118338
  endloop
 endfacet
 facet normal 0.970438 -0.237484 -0.043037
  outer loop
   vertex 0.056760 -0.016102 0.033359
   vertex 0.053611 -0.023287 0.002000
   vertex 0.058444 -0.008082 0.027076
  endloop
 endfacet
 facet normal 0.915282 -0.397587 0.064673
  outer loop
   vertex 0.058444 -0.008082 0.027076
   vertex 0.053611 -0.023287 0.002000
   vertex 0.056812 -0.015918 0.002000
  endloop
 endfacet
 facet normal 0.996410 -0.073589 -0.041853
  outer loop
   vertex 0.058444 -0.008082 0.027076
   vertex 0.056812 -0.015918 0.002000
   vertex 0.058447 -0.008034 0.027063
  endloop
 endfacet
 facet normal 0.990450 -0.136142 -0.021787
  outer loop
   vertex 0.058447 -0.008034 0.027063
   vertex 0.056812 -0.015918 0.002000
   vertex 0.057906 -0.007959 0.002000
  endloop
 endfacet
 facet normal 0.997069 -0.073355 -0.021742
  outer loop
   vertex 0.058447 -0.008034 0.027063
   vertex 0.057906 -0.007959 0.002000
   vertex 0.059000 0.000094 0.025000
  endloop
 endfacet
 facet normal 0.990685 -0.136174 0.000557
  outer loop
   vertex 0.059000 0.000094 0.025000
   vertex 0.057906 -0.007959 0.002000
   vertex 0.059000 0.000000 0.002000
  endloop
 endfacet
 facet normal 0.997472 0.071065 -0.000290
  outer loop
   vertex 0.059000 0.000094 0.025000
   vertex 0.059000 0.000000 0.002000
   vertex 0.058435 0.008033 0.027110
  endloop
 endfacet
 facet normal 0.915413 0.397644 0.062441
  outer loop
   vertex 0.053611 0.023287 0.002000
   vertex 0.058418 0.008268 0.027173
   vertex 0.056812 0.015918 0.002000
  endloop
 endfacet
 facet normal 0.995858 0.082372 -0.038502
  outer loop
   vertex 0.056812 0.015918 0.002000
   vertex 0.058418 0.008268 0.027173
   vertex 0.058435 0.008033 0.027110
  endloop
 endfacet
 facet normal 0.990461 0.136144 -0.021268
  outer loop
   vertex 0.056812 0.015918 0.002000
   vertex 0.058435 0.008033 0.027110
   vertex 0.057906 0.007959 0.002000
  endloop
 endfacet
 facet normal 0.990461 0.136143 -0.021268
  outer loop
   vertex 0.057906 0.007959 0.002000
   vertex 0.058435 0.008033 0.027110
   vertex 0.059000 0.000000 0.002000
  endloop
 endfacet
 facet normal 0.775224 0.630678 0.035683
  outer loop
   vertex 0.045341 0.036887 0.002000
   vertex 0.053906 0.023982 0.044012
   vertex 0.050411 0.030655 0.002000
  endloop
 endfacet
 facet normal 0.930530 0.365705 -0.019324
  outer loop
   vertex 0.050411 0.030655 0.002000
   vertex 0.053906 0.023982 0.044012
   vertex 0.054084 0.023494 0.043348
  endloop
 endfacet
 facet normal 0.917157 0.398331 -0.012486
  outer loop
   vertex 0.050411 0.030655 0.002000
   vertex 0.054084 0.023494 0.043348
   vertex 0.053611 0.023287 0.002000
  endloop
 endfacet
 facet normal 0.934053 0.356916 -0.012472
  outer loop
   vertex 0.053611 0.023287 0.002000
   vertex 0.054084 0.023494 0.043348
   vertex 0.056709 0.016282 0.033551
  endloop
 endfacet
 facet normal 0.969826 0.240168 -0.041905
  outer loop
   vertex 0.053611 0.023287 0.002000
   vertex 0.056709 0.016282 0.033551
   vertex 0.058418 0.008268 0.027173
  endloop
 endfacet
 facet normal 0.607884 0.794015 -0.004156
  outer loop
   vertex 0.033984 0.048149 0.118360
   vertex 0.039573 0.043761 0.097504
   vertex 0.033707 0.047752 0.002000
  endloop
 endfacet
 facet normal 0.697110 0.716849 -0.012861
  outer loop
   vertex 0.033707 0.047752 0.002000
   vertex 0.039573 0.043761 0.097504
   vertex 0.045254 0.037856 0.076300
  endloop
 endfacet
 facet normal 0.576543 0.816841 0.019194
  outer loop
   vertex 0.033707 0.047752 0.002000
   vertex 0.045254 0.037856 0.076300
   vertex 0.040271 0.043119 0.002000
  endloop
 endfacet
 facet normal 0.795720 0.605574 -0.010470
  outer loop
   vertex 0.040271 0.043119 0.002000
   vertex 0.045254 0.037856 0.076300
   vertex 0.045727 0.037204 0.074537
  endloop
 endfacet
 facet normal 0.775699 0.631065 -0.006886
  outer loop
   vertex 0.040271 0.043119 0.002000
   vertex 0.045727 0.037204 0.074537
   vertex 0.045341 0.036887 0.002000
  endloop
 endfacet
 facet normal 0.800815 0.598873 -0.006879
  outer loop
   vertex 0.045341 0.036887 0.002000
   vertex 0.045727 0.037204 0.074537
   vertex 0.050063 0.031220 0.058353
  endloop
 endfacet
 facet normal 0.864383 0.502356 -0.021911
  outer loop
   vertex 0.045341 0.036887 0.002000
   vertex 0.050063 0.031220 0.058353
   vertex 0.053906 0.023982 0.044012
  endloop
 endfacet
endsolid
