mtllib fod1.mtl
g g0
v 0.125181 0.125181 -0.278
v 0.125181 -0.125181 -0.278
v -0.125181 0.125181 -0.278
v -0.125181 -0.125181 -0.278
v -0.052 0.090067 -0.278
v -0.073539 0.073539 -0.278
v -0.090067 0.052 -0.278
v -0.100456 0.026917 -0.278
v -0.104 0 -0.278
v -0.100456 -0.026917 -0.278
v -0.090067 -0.052 -0.278
v -0.073539 -0.073539 -0.278
v -0.052 -0.090067 -0.278
v -0.026917 -0.100456 -0.278
v 0 -0.104 -0.278
v 0.026917 -0.100456 -0.278
v 0.052 -0.090067 -0.278
v 0.073539 -0.073539 -0.278
v 0.090067 -0.052 -0.278
v 0.100456 -0.026917 -0.278
v 0.104 0 -0.278
v 0.100456 0.026917 -0.278
v 0.090067 0.052 -0.278
v 0.073539 0.073539 -0.278
v 0.052 0.090067 -0.278
v 0.026917 0.100456 -0.278
v -0.026917 0.100456 -0.278
v 0 0.104 -0.278
v -0.125181 0.125181 -0.3
v 0.125181 0.125181 -0.3
v 0.125181 -0.125181 -0.3
v -0.125181 -0.125181 -0.3
v 0.104 0 0
v 0.100456 0.026917 0
v 0.100456 -0.026917 0
v 0.090067 0.052 0
v 0.090067 -0.052 0
v 0.073539 0.073539 0
v 0.073539 -0.073539 0
v 0.052 0.090067 0
v 0.052 -0.090067 0
v 0.026917 0.100456 0
v 0.026917 -0.100456 0
v 0 0.104 0
v 0 -0.104 0
v -0.026917 0.100456 0
v -0.026917 -0.100456 0
v -0.052 0.090067 0
v -0.052 -0.090067 0
v -0.073539 0.073539 0
v -0.073539 -0.073539 0
v -0.090067 0.052 0
v -0.090067 -0.052 0
v -0.104 0 0
v -0.100456 0.026917 0
v -0.100456 -0.026917 0
v -0.2 0.2 -0.3
v -0.2 -0.2 -0.3
v 0.2 0.2 -0.3
v 0.2 -0.2 -0.3
v 0.2 -0.2 -0.35
v -0.2 0.2 -0.35
v -0.2 -0.2 -0.35
v 0.2 0.2 -0.35
vn -1 0 0
vn -1 0 0
vn -1 0 0
vn -1 0 0
vn -1 0 0
vn -1 0 0
vn 0 1 0
vn 0 1 0
vn 0 1 0
vn 0 1 0
vn 0 1 0
vn 0 1 0
vn 1 0 0
vn 1 0 0
vn 1 0 0
vn 1 0 0
vn 1 0 0
vn 1 0 0
vn 0 -1 0
vn 0 -1 0
vn 0 -1 0
vn 0 -1 0
vn 0 -1 0
vn 0 -1 0
vn 0 0 1
vn 0 0 1
vn 0 0 1
vn 0 0 1
vn 0 0 1
vn 0 0 1
vn 0 0 1
vn 0 0 1
vn 0 0 1
vn 0 0 1
vn 0 0 1
vn 0 0 1
vn 0 0 1
vn 0 0 1
vn 0 0 1
vn 0 0 1
vn 0 0 1
vn 0 0 1
vn 0 0 1
vn 0 0 1
vn 0 0 1
vn 0 0 1
vn 0 0 1
vn 0 0 1
vn 0 0 1
vn 0 0 1
vn 0 0 1
vn 0 0 1
vn 0 0 1
vn 0 0 1
vn 0 0 1
vn 0 0 1
vn 0 0 1
vn 0 0 1
vn 0 0 1
vn 0 0 1
vn 0 0 1
vn 0 0 1
vn 0 0 1
vn 0 0 1
vn 0 0 1
vn 0 0 1
vn 0 0 1
vn 0 0 1
vn 0 0 1
vn 0 0 1
vn 0 0 1
vn 0 0 1
vn 0 0 1
vn 0 0 1
vn 0 0 1
vn 0 0 1
vn 0 0 1
vn 0 0 1
vn 0 0 1
vn 0 0 1
vn 0 0 1
vn 0 0 1
vn 0 0 1
vn 0 0 1
vn 0 0 1
vn 0 0 1
vn 0 0 1
vn 0 0 1
vn 0 0 1
vn 0 0 1
vn 0 0 1
vn 0 0 1
vn 0 0 1
vn 0 0 1
vn 0 0 1
vn 0 0 1
vn 0 0 1
vn 0 0 1
vn 0 0 1
vn 0 0 1
vn 0 0 1
vn 0 0 1
vn 0 0 1
vn 0 0 1
vn 0 0 1
vn 0 0 1
vn 0 0 1
vn 0 0 1
vn -0.300906 0.953654 0
vn -0.461541 0.887119 0
vn -0.216222 0.976344 0
vn -0.461541 0.887119 0
vn -0.300906 0.953654 0
vn -0.53749 0.84327 0
vn -0.53749 0.84327 0
vn -0.707107 0.707107 0
vn -0.461541 0.887119 0
vn -0.707107 0.707107 0
vn -0.53749 0.84327 0
vn -0.707107 0.707107 0
vn -0.84327 0.53749 0
vn -0.707107 0.707107 0
vn -0.707107 0.707107 0
vn -0.707107 0.707107 0
vn -0.84327 0.53749 0
vn -0.887119 0.461541 0
vn -0.953654 0.300906 0
vn -0.887119 0.461541 0
vn -0.84327 0.53749 0
vn -0.887119 0.461541 0
vn -0.953654 0.300906 0
vn -0.976344 0.216222 0
vn -0.999038 0.0438458 0
vn -0.976344 0.216222 0
vn -0.953654 0.300906 0
vn -0.976344 0.216222 0
vn -0.999038 0.0438458 0
vn -0.999038 -0.0438458 0
vn -0.976344 -0.216222 0
vn -0.999038 -0.0438458 0
vn -0.999038 0.0438458 0
vn -0.999038 -0.0438458 0
vn -0.976344 -0.216222 0
vn -0.953654 -0.300906 0
vn -0.887119 -0.461541 0
vn -0.953654 -0.300906 0
vn -0.976344 -0.216222 0
vn -0.953654 -0.300906 0
vn -0.887119 -0.461541 0
vn -0.84327 -0.53749 0
vn -0.707107 -0.707107 0
vn -0.84327 -0.53749 0
vn -0.887119 -0.461541 0
vn -0.84327 -0.53749 0
vn -0.707107 -0.707107 0
vn -0.707107 -0.707107 0
vn -0.707107 -0.707107 0
vn -0.53749 -0.84327 0
vn -0.707107 -0.707107 0
vn -0.53749 -0.84327 0
vn -0.707107 -0.707107 0
vn -0.461541 -0.887119 0
vn -0.461541 -0.887119 0
vn -0.300906 -0.953654 0
vn -0.53749 -0.84327 0
vn -0.300906 -0.953654 0
vn -0.461541 -0.887119 0
vn -0.216222 -0.976344 0
vn -0.216222 -0.976344 0
vn -0.0438458 -0.999038 0
vn -0.300906 -0.953654 0
vn -0.0438458 -0.999038 0
vn -0.216222 -0.976344 0
vn 0.0438458 -0.999038 0
vn 0.0438458 -0.999038 0
vn 0.216222 -0.976344 0
vn -0.0438458 -0.999038 0
vn 0.216222 -0.976344 0
vn 0.0438458 -0.999038 0
vn 0.300906 -0.953654 0
vn 0.300906 -0.953654 0
vn 0.461541 -0.887119 0
vn 0.216222 -0.976344 0
vn 0.461541 -0.887119 0
vn 0.300906 -0.953654 0
vn 0.53749 -0.84327 0
vn 0.53749 -0.84327 0
vn 0.707107 -0.707107 0
vn 0.461541 -0.887119 0
vn 0.707107 -0.707107 0
vn 0.53749 -0.84327 0
vn 0.707107 -0.707107 0
vn 0.707107 -0.707107 0
vn 0.84327 -0.53749 0
vn 0.887119 -0.461541 0
vn 0.84327 -0.53749 0
vn 0.707107 -0.707107 0
vn 0.707107 -0.707107 0
vn 0.887119 -0.461541 0
vn 0.953654 -0.300906 0
vn 0.976344 -0.216222 0
vn 0.953654 -0.300906 0
vn 0.887119 -0.461541 0
vn 0.84327 -0.53749 0
vn 0.976344 -0.216222 0
vn 0.999038 -0.0438458 0
vn 0.999038 0.0438458 0
vn 0.999038 -0.0438458 0
vn 0.976344 -0.216222 0
vn 0.953654 -0.300906 0
vn 0.999038 0.0438458 0
vn 0.976344 0.216222 0
vn 0.953654 0.300906 0
vn 0.976344 0.216222 0
vn 0.999038 0.0438458 0
vn 0.999038 -0.0438458 0
vn 0.953654 0.300906 0
vn 0.887119 0.461541 0
vn 0.84327 0.53749 0
vn 0.887119 0.461541 0
vn 0.953654 0.300906 0
vn 0.976344 0.216222 0
vn 0.84327 0.53749 0
vn 0.707107 0.707107 0
vn 0.707107 0.707107 0
vn 0.707107 0.707107 0
vn 0.84327 0.53749 0
vn 0.887119 0.461541 0
vn 0.707107 0.707107 0
vn 0.53749 0.84327 0
vn 0.707107 0.707107 0
vn 0.53749 0.84327 0
vn 0.707107 0.707107 0
vn 0.461541 0.887119 0
vn 0.461541 0.887119 0
vn 0.300906 0.953654 0
vn 0.53749 0.84327 0
vn 0.300906 0.953654 0
vn 0.461541 0.887119 0
vn 0.216222 0.976344 0
vn 0.216222 0.976344 0
vn 0.0438458 0.999038 0
vn 0.300906 0.953654 0
vn 0.0438458 0.999038 0
vn 0.216222 0.976344 0
vn -0.0438458 0.999038 0
vn -0.0438458 0.999038 0
vn -0.216222 0.976344 0
vn 0.0438458 0.999038 0
vn -0.216222 0.976344 0
vn -0.0438458 0.999038 0
vn -0.300906 0.953654 0
vn 0 0 1
vn 0 0 1
vn 0 0 1
vn 0 0 1
vn 0 0 1
vn 0 0 1
vn 0 0 1
vn 0 0 1
vn 0 0 1
vn 0 0 1
vn 0 0 1
vn 0 0 1
vn 0 0 1
vn 0 0 1
vn 0 0 1
vn 0 0 1
vn 0 0 1
vn 0 0 1
vn 0 0 1
vn 0 0 1
vn 0 0 1
vn 0 0 1
vn 0 0 1
vn 0 0 1
vn 0 0 1
vn 0 0 1
vn 0 0 1
vn 0 0 1
vn 0 0 1
vn 0 0 1
vn 0 0 1
vn 0 0 1
vn 0 0 1
vn 0 0 1
vn 0 0 1
vn 0 0 1
vn 0 0 1
vn 0 0 1
vn 0 0 1
vn 0 0 1
vn 0 0 1
vn 0 0 1
vn 0 0 1
vn 0 0 1
vn 0 0 1
vn 0 0 1
vn 0 0 1
vn 0 0 1
vn 0 0 1
vn 0 0 1
vn 0 0 1
vn 0 0 1
vn 0 0 1
vn 0 0 1
vn 0 0 1
vn 0 0 1
vn 0 0 1
vn 0 0 1
vn 0 0 1
vn 0 0 1
vn 0 0 1
vn 0 0 1
vn 0 0 1
vn 0 0 1
vn 0 0 1
vn 0 0 1
vn 0 0 1
vn 0 0 1
vn 0 0 1
vn 0 0 1
vn 0 0 1
vn 0 0 1
vn 0 0 1
vn 0 0 1
vn 0 0 1
vn 0 0 1
vn 0 0 1
vn 0 0 1
vn 0 0 1
vn 0 0 1
vn 0 0 1
vn 0 0 1
vn 0 0 1
vn 0 0 1
vn 0 0 1
vn 0 0 1
vn 0 0 1
vn 0 0 1
vn 0 0 1
vn 0 0 1
vn 0 1 0
vn 0 1 0
vn 0 1 0
vn 0 1 0
vn 0 1 0
vn 0 1 0
vn -1 0 0
vn -1 0 0
vn -1 0 0
vn -1 0 0
vn -1 0 0
vn -1 0 0
vn 0 -1 0
vn 0 -1 0
vn 0 -1 0
vn 0 -1 0
vn 0 -1 0
vn 0 -1 0
vn 1 0 0
vn 1 0 0
vn 1 0 0
vn 1 0 0
vn 1 0 0
vn 1 0 0
vn 0 0 -1
vn 0 0 -1
vn 0 0 -1
vn 0 0 -1
vn 0 0 -1
vn 0 0 -1
vt 0 0
vt 0 0
vt 0 0
vt 0 0
vt 0 0
vt 0 0
vt 0 0
vt 0 0
vt 0 0
vt 0 0
vt 0 0
vt 0 0
vt 0 0
vt 0 0
vt 0 0
vt 0 0
vt 0 0
vt 0 0
vt 0 0
vt 0 0
vt 0 0
vt 0 0
vt 0 0
vt 0 0
vt 0 0
vt 0 0
vt 0 0
vt 0 0
vt 0 0
vt 0 0
vt 0 0
vt 0 0
vt 0 0
vt 0 0
vt 0 0
vt 0 0
vt 0 0
vt 0 0
vt 0 0
vt 0 0
vt 0 0
vt 0 0
vt 0 0
vt 0 0
vt 0 0
vt 0 0
vt 0 0
vt 0 0
vt 0 0
vt 0 0
vt 0 0
vt 0 0
vt 0 0
vt 0 0
vt 0 0
vt 0 0
vt 0 0
vt 0 0
vt 0 0
vt 0 0
vt 0 0
vt 0 0
vt 0 0
vt 0 0
vt 0 0
vt 0 0
vt 0 0
vt 0 0
vt 0 0
vt 0 0
vt 0 0
vt 0 0
vt 0 0
vt 0 0
vt 0 0
vt 0 0
vt 0 0
vt 0 0
vt 0 0
vt 0 0
vt 0 0
vt 0 0
vt 0 0
vt 0 0
vt 0 0
vt 0 0
vt 0 0
vt 0 0
vt 0 0
vt 0 0
vt 0 0
vt 0 0
vt 0 0
vt 0 0
vt 0 0
vt 0 0
vt 0 0
vt 0 0
vt 0 0
vt 0 0
vt 0 0
vt 0 0
vt 0 0
vt 0 0
vt 0 0
vt 0 0
vt 0 0
vt 0 0
vt 0 0
vt 0 0
vt 0 0
vt 0 0
vt 0 0
vt 0 0
vt 0 0
vt 0 0
vt 0 0
vt 0 0
vt 0 0
vt 0 0
vt 0 0
vt 0 0
vt 0 0
vt 0 0
vt 0 0
vt 0 0
vt 0 0
vt 0 0
vt 0 0
vt 0 0
vt 0 0
vt 0 0
vt 0 0
vt 0 0
vt 0 0
vt 0 0
vt 0 0
vt 0 0
vt 0 0
vt 0 0
vt 0 0
vt 0 0
vt 0 0
vt 0 0
vt 0 0
vt 0 0
vt 0 0
vt 0 0
vt 0 0
vt 0 0
vt 0 0
vt 0 0
vt 0 0
vt 0 0
vt 0 0
vt 0 0
vt 0 0
vt 0 0
vt 0 0
vt 0 0
vt 0 0
vt 0 0
vt 0 0
vt 0 0
vt 0 0
vt 0 0
vt 0 0
vt 0 0
vt 0 0
vt 0 0
vt 0 0
vt 0 0
vt 0 0
vt 0 0
vt 0 0
vt 0 0
vt 0 0
vt 0 0
vt 0 0
vt 0 0
vt 0 0
vt 0 0
vt 0 0
vt 0 0
vt 0 0
vt 0 0
vt 0 0
vt 0 0
vt 0 0
vt 0 0
vt 0 0
vt 0 0
vt 0 0
vt 0 0
vt 0 0
vt 0 0
vt 0 0
vt 0 0
vt 0 0
vt 0 0
vt 0 0
vt 0 0
vt 0 0
vt 0 0
vt 0 0
vt 0 0
vt 0 0
vt 0 0
vt 0 0
vt 0 0
vt 0 0
vt 0 0
vt 0 0
vt 0 0
vt 0 0
vt 0 0
vt 0 0
vt 0 0
vt 0 0
vt 0 0
vt 0 0
vt 0 0
vt 0 0
vt 0 0
vt 0 0
vt 0 0
vt 0 0
vt 0 0
vt 0 0
vt 0 0
vt 0 0
vt 0 0
vt 0 0
vt 0 0
vt 0 0
vt 0 0
vt 0 0
vt 0 0
vt 0 0
vt 0 0
vt 0 0
vt 0 0
vt 0 0
vt 0 0
vt 0 0
vt 0 0
vt 0 0
vt 0 0
vt 0 0
vt 0 0
vt 0 0
vt 0 0
vt 0 0
vt 0 0
vt 0 0
vt 0 0
vt 0 0
vt 0 0
vt 0 0
vt 0 0
vt 0 0
vt 0 0
vt 0 0
vt 0 0
vt 0 0
vt 0 0
vt 0 0
vt 0 0
vt 0 0
vt 0 0
vt 0 0
vt 0 0
vt 0 0
vt 0 0
vt 0 0
vt 0 0
vt 0 0
vt 0 0
vt 0 0
vt 0 0
vt 0 0
vt 0 0
vt 0 0
vt 0 0
vt 0 0
vt 0 0
vt 0 0
vt 0 0
vt 0 0
vt 0 0
vt 0 0
vt 0 0
vt 0 0
vt 0 0
vt 0 0
vt 0 0
vt 0 0
vt 0 0
vt 0 0
vt 0 0
vt 0 0
vt 0 0
vt 0 0
vt 0 0
vt 0 0
vt 0 0
vt 0 0
vt 0 0
vt 0 0
vt 0 0
vt 0 0
vt 0 0
vt 0 0
vt 0 0
vt 0 0
vt 0 0
vt 0 0
vt 0 0
vt 0 0
vt 0 0
vt 0 0
vt 0 0
vt 0 0
vt 0 0
vt 0 0
vt 0 0
vt 0 0
vt 0 0
vt 0 0
vt 0 0
vt 0 0
vt 0 0
vt 0 0
vt 0 0
vt 0 0
vt 0 0
vt 0 0
vt 0 0
vt 0 0
vt 0 0
vt 0 0
vt 0 0
vt 0 0
vt 0 0
vt 0 0
vt 0 0
vt 0 0
vt 0 0
vt 0 0
vt 0 0
vt 0 0
vt 0 0
vt 0 0
vt 0 0
vt 0 0
vt 0 0
vt 0 0
vt 0 0
vt 0 0
vt 0 0
vt 0 0
vt 0 0
vt 0 0
vt 0 0
vt 0 0
vt 0 0
vt 0 0
vt 0 0
vt 0 0
vt 0 0
vt 0 0
vt 0 0
usemtl acmat_0
f 32/1/1 3/2/2 29/3/3
f 3/4/4 32/5/5 4/6/6
f 30/7/7 3/8/8 1/9/9
f 3/10/10 30/11/11 29/12/12
f 2/13/13 30/14/14 1/15/15
f 30/16/16 2/17/17 31/18/18
f 32/19/19 2/20/20 4/21/21
f 2/22/22 32/23/23 31/24/24
f 1/25/25 21/26/26 2/27/27
f 1/28/28 22/29/29 21/30/30
f 1/31/31 23/32/32 22/33/33
f 1/34/34 24/35/35 23/36/36
f 1/37/37 25/38/38 24/39/39
f 1/40/40 26/41/41 25/42/42
f 1/43/43 28/44/44 26/45/45
f 1/46/46 27/47/47 28/48/48
f 8/49/49 3/50/50 9/51/51
f 7/52/52 3/53/53 8/54/54
f 6/55/55 3/56/56 7/57/57
f 5/58/58 3/59/59 6/60/60
f 27/61/61 3/62/62 5/63/63
f 3/64/64 27/65/65 1/66/66
f 20/67/67 2/68/68 21/69/69
f 19/70/70 2/71/71 20/72/72
f 18/73/73 2/74/74 19/75/75
f 17/76/76 2/77/77 18/78/78
f 16/79/79 2/80/80 17/81/81
f 15/82/82 2/83/83 16/84/84
f 14/85/85 2/86/86 15/87/87
f 3/88/88 10/89/89 9/90/90
f 14/91/91 4/92/92 2/93/93
f 13/94/94 4/95/95 14/96/96
f 12/97/97 4/98/98 13/99/99
f 11/100/100 4/101/101 12/102/102
f 10/103/103 4/104/104 11/105/105
f 4/106/106 10/107/107 3/108/108
f 27/109/109 48/110/110 46/111/111
f 48/112/112 27/113/113 5/114/114
f 5/115/115 50/116/116 48/117/117
f 50/118/118 5/119/119 6/120/120
f 7/121/121 50/122/122 6/123/123
f 50/124/124 7/125/125 52/126/126
f 8/127/127 52/128/128 7/129/129
f 52/130/130 8/131/131 55/132/132
f 9/133/133 55/134/134 8/135/135
f 55/136/136 9/137/137 54/138/138
f 10/139/139 54/140/140 9/141/141
f 54/142/142 10/143/143 56/144/144
f 11/145/145 56/146/146 10/147/147
f 56/148/148 11/149/149 53/150/150
f 12/151/151 53/152/152 11/153/153
f 53/154/154 12/155/155 51/156/156
f 12/157/157 49/158/158 51/159/159
f 49/160/160 12/161/161 13/162/162
f 13/163/163 47/164/164 49/165/165
f 47/166/166 13/167/167 14/168/168
f 14/169/169 45/170/170 47/171/171
f 45/172/172 14/173/173 15/174/174
f 15/175/175 43/176/176 45/177/177
f 43/178/178 15/179/179 16/180/180
f 16/181/181 41/182/182 43/183/183
f 41/184/184 16/185/185 17/186/186
f 17/187/187 39/188/188 41/189/189
f 39/190/190 17/191/191 18/192/192
f 39/193/193 19/194/194 37/195/195
f 19/196/196 39/197/197 18/198/198
f 37/199/199 20/200/200 35/201/201
f 20/202/202 37/203/203 19/204/204
f 35/205/205 21/206/206 33/207/207
f 21/208/208 35/209/209 20/210/210
f 33/211/211 22/212/212 34/213/213
f 22/214/214 33/215/215 21/216/216
f 34/217/217 23/218/218 36/219/219
f 23/220/220 34/221/221 22/222/222
f 36/223/223 24/224/224 38/225/225
f 24/226/226 36/227/227 23/228/228
f 24/229/229 40/230/230 38/231/231
f 40/232/232 24/233/233 25/234/234
f 25/235/235 42/236/236 40/237/237
f 42/238/238 25/239/239 26/240/240
f 26/241/241 44/242/242 42/243/243
f 44/244/244 26/245/245 28/246/246
f 28/247/247 46/248/248 44/249/249
f 46/250/250 28/251/251 27/252/252
f 59/253/253 30/254/254 60/255/255
f 59/256/256 29/257/257 30/258/258
f 29/259/259 57/260/260 32/261/261
f 57/262/262 29/263/263 59/264/264
f 31/265/265 60/266/266 30/267/267
f 32/268/268 60/269/269 31/270/270
f 32/271/271 58/272/272 60/273/273
f 58/274/274 32/275/275 57/276/276
f 34/277/277 35/278/278 33/279/279
f 36/280/280 35/281/281 34/282/282
f 36/283/283 37/284/284 35/285/285
f 38/286/286 37/287/287 36/288/288
f 38/289/289 39/290/290 37/291/291
f 40/292/292 39/293/293 38/294/294
f 40/295/295 41/296/296 39/297/297
f 42/298/298 41/299/299 40/300/300
f 42/301/301 43/302/302 41/303/303
f 44/304/304 43/305/305 42/306/306
f 44/307/307 45/308/308 43/309/309
f 46/310/310 45/311/311 44/312/312
f 46/313/313 47/314/314 45/315/315
f 48/316/316 47/317/317 46/318/318
f 48/319/319 49/320/320 47/321/321
f 50/322/322 49/323/323 48/324/324
f 50/325/325 51/326/326 49/327/327
f 52/328/328 51/329/329 50/330/330
f 52/331/331 53/332/332 51/333/333
f 55/334/334 53/335/335 52/336/336
f 55/337/337 56/338/338 53/339/339
f 56/340/340 55/341/341 54/342/342
f 64/343/343 57/344/344 59/345/345
f 57/346/346 64/347/347 62/348/348
f 63/349/349 57/350/350 62/351/351
f 57/352/352 63/353/353 58/354/354
f 63/355/355 60/356/356 58/357/357
f 60/358/358 63/359/359 61/360/360
f 60/361/361 64/362/362 59/363/363
f 64/364/364 60/365/365 61/366/366
f 63/367/367 64/368/368 61/369/369
f 64/370/370 63/371/371 62/372/372
