solid ascii
  facet normal 0.000000 0.000000 -1.000000
    outer loop
      vertex -0.007727 0.002071 0.000000
      vertex -0.007727 -0.002071 0.000000
      vertex -0.008000 0.000000 0.000000
    endloop
  endfacet
  facet normal 0.000000 0.000000 -1.000000
    outer loop
      vertex -0.007727 -0.002071 0.000000
      vertex -0.007727 0.002071 0.000000
      vertex -0.006928 0.004000 0.000000
    endloop
  endfacet
  facet normal 0.000000 0.000000 -1.000000
    outer loop
      vertex -0.007727 -0.002071 0.000000
      vertex -0.006928 0.004000 0.000000
      vertex -0.006928 -0.004000 0.000000
    endloop
  endfacet
  facet normal 0.000000 0.000000 -1.000000
    outer loop
      vertex -0.006928 -0.004000 0.000000
      vertex -0.006928 0.004000 0.000000
      vertex -0.005657 0.005657 0.000000
    endloop
  endfacet
  facet normal 0.000000 0.000000 -1.000000
    outer loop
      vertex -0.006928 -0.004000 0.000000
      vertex -0.005657 0.005657 0.000000
      vertex -0.005657 -0.005657 0.000000
    endloop
  endfacet
  facet normal 0.000000 0.000000 -1.000000
    outer loop
      vertex -0.005657 -0.005657 0.000000
      vertex -0.005657 0.005657 0.000000
      vertex -0.004000 0.006928 0.000000
    endloop
  endfacet
  facet normal 0.000000 0.000000 -1.000000
    outer loop
      vertex -0.005657 -0.005657 0.000000
      vertex -0.004000 0.006928 0.000000
      vertex -0.004000 -0.006928 0.000000
    endloop
  endfacet
  facet normal 0.000000 0.000000 -1.000000
    outer loop
      vertex -0.004000 -0.006928 0.000000
      vertex -0.004000 0.006928 0.000000
      vertex -0.002071 0.007727 0.000000
    endloop
  endfacet
  facet normal 0.000000 0.000000 -1.000000
    outer loop
      vertex -0.004000 -0.006928 0.000000
      vertex -0.002071 0.007727 0.000000
      vertex -0.002071 -0.007727 0.000000
    endloop
  endfacet
  facet normal 0.000000 0.000000 -1.000000
    outer loop
      vertex -0.002071 -0.007727 0.000000
      vertex -0.002071 0.007727 0.000000
      vertex -0.000000 0.008000 0.000000
    endloop
  endfacet
  facet normal 0.000000 0.000000 -1.000000
    outer loop
      vertex -0.002071 -0.007727 0.000000
      vertex -0.000000 0.008000 0.000000
      vertex -0.000000 -0.008000 0.000000
    endloop
  endfacet
  facet normal 0.000000 0.000000 -1.000000
    outer loop
      vertex -0.000000 -0.008000 0.000000
      vertex -0.000000 0.008000 0.000000
      vertex 0.002071 0.007727 0.000000
    endloop
  endfacet
  facet normal 0.000000 0.000000 -1.000000
    outer loop
      vertex -0.000000 -0.008000 0.000000
      vertex 0.002071 0.007727 0.000000
      vertex 0.002071 -0.007727 0.000000
    endloop
  endfacet
  facet normal 0.000000 0.000000 -1.000000
    outer loop
      vertex 0.002071 -0.007727 0.000000
      vertex 0.002071 0.007727 0.000000
      vertex 0.004000 0.006928 0.000000
    endloop
  endfacet
  facet normal 0.000000 0.000000 -1.000000
    outer loop
      vertex 0.002071 -0.007727 0.000000
      vertex 0.004000 0.006928 0.000000
      vertex 0.004000 -0.006928 0.000000
    endloop
  endfacet
  facet normal 0.000000 0.000000 -1.000000
    outer loop
      vertex 0.004000 -0.006928 0.000000
      vertex 0.004000 0.006928 0.000000
      vertex 0.005657 0.005657 0.000000
    endloop
  endfacet
  facet normal 0.000000 0.000000 -1.000000
    outer loop
      vertex 0.004000 -0.006928 0.000000
      vertex 0.005657 0.005657 0.000000
      vertex 0.005657 -0.005657 0.000000
    endloop
  endfacet
  facet normal 0.000000 0.000000 -1.000000
    outer loop
      vertex 0.005657 -0.005657 0.000000
      vertex 0.005657 0.005657 0.000000
      vertex 0.006928 0.004000 0.000000
    endloop
  endfacet
  facet normal 0.000000 0.000000 -1.000000
    outer loop
      vertex 0.005657 -0.005657 0.000000
      vertex 0.006928 0.004000 0.000000
      vertex 0.006928 -0.004000 0.000000
    endloop
  endfacet
  facet normal 0.000000 0.000000 -1.000000
    outer loop
      vertex 0.006928 -0.004000 0.000000
      vertex 0.006928 0.004000 0.000000
      vertex 0.007727 0.002071 0.000000
    endloop
  endfacet
  facet normal 0.000000 0.000000 -1.000000
    outer loop
      vertex 0.006928 -0.004000 0.000000
      vertex 0.007727 0.002071 0.000000
      vertex 0.007727 -0.002071 0.000000
    endloop
  endfacet
  facet normal 0.000000 0.000000 -1.000000
    outer loop
      vertex 0.007727 -0.002071 0.000000
      vertex 0.007727 0.002071 0.000000
      vertex 0.008000 0.000000 0.000000
    endloop
  endfacet
  facet normal -0.906214 -0.422820 0.000000
    outer loop
      vertex -0.007727 -0.002071 0.490000
      vertex -0.006928 -0.004000 0.000000
      vertex -0.006928 -0.004000 0.490000
    endloop
  endfacet
  facet normal -0.939769 -0.341811 0.000000
    outer loop
      vertex -0.006928 -0.004000 0.000000
      vertex -0.007727 -0.002071 0.490000
      vertex -0.007727 -0.002071 0.000000
    endloop
  endfacet
  facet normal -0.000000 0.000000 1.000000
    outer loop
      vertex -0.007727 -0.002071 0.550000
      vertex -0.007727 0.002071 0.550000
      vertex -0.008000 0.000000 0.550000
    endloop
  endfacet
  facet normal -0.000000 0.000000 1.000000
    outer loop
      vertex -0.007727 0.002071 0.550000
      vertex -0.007727 -0.002071 0.550000
      vertex -0.006928 -0.004000 0.550000
    endloop
  endfacet
  facet normal -0.000000 0.000000 1.000000
    outer loop
      vertex -0.007727 0.002071 0.550000
      vertex -0.006928 -0.004000 0.550000
      vertex -0.006928 0.004000 0.550000
    endloop
  endfacet
  facet normal -0.000000 0.000000 1.000000
    outer loop
      vertex -0.006928 0.004000 0.550000
      vertex -0.006928 -0.004000 0.550000
      vertex -0.005657 -0.005657 0.550000
    endloop
  endfacet
  facet normal -0.000000 0.000000 1.000000
    outer loop
      vertex -0.006928 0.004000 0.550000
      vertex -0.005657 -0.005657 0.550000
      vertex -0.005657 0.005657 0.550000
    endloop
  endfacet
  facet normal -0.000000 0.000000 1.000000
    outer loop
      vertex -0.005657 0.005657 0.550000
      vertex -0.005657 -0.005657 0.550000
      vertex -0.004000 -0.006928 0.550000
    endloop
  endfacet
  facet normal -0.000000 0.000000 1.000000
    outer loop
      vertex -0.005657 0.005657 0.550000
      vertex -0.004000 -0.006928 0.550000
      vertex -0.004000 0.006928 0.550000
    endloop
  endfacet
  facet normal -0.000000 0.000000 1.000000
    outer loop
      vertex -0.004000 0.006928 0.550000
      vertex -0.004000 -0.006928 0.550000
      vertex -0.002071 -0.007727 0.550000
    endloop
  endfacet
  facet normal -0.000000 0.000000 1.000000
    outer loop
      vertex -0.004000 0.006928 0.550000
      vertex -0.002071 -0.007727 0.550000
      vertex -0.002071 0.007727 0.550000
    endloop
  endfacet
  facet normal -0.000000 0.000000 1.000000
    outer loop
      vertex -0.002071 0.007727 0.550000
      vertex -0.002071 -0.007727 0.550000
      vertex -0.000000 -0.008000 0.550000
    endloop
  endfacet
  facet normal -0.000000 0.000000 1.000000
    outer loop
      vertex -0.002071 0.007727 0.550000
      vertex -0.000000 -0.008000 0.550000
      vertex -0.000000 0.008000 0.550000
    endloop
  endfacet
  facet normal -0.000000 0.000000 1.000000
    outer loop
      vertex -0.000000 0.008000 0.550000
      vertex -0.000000 -0.008000 0.550000
      vertex 0.002071 -0.007727 0.550000
    endloop
  endfacet
  facet normal -0.000000 0.000000 1.000000
    outer loop
      vertex -0.000000 0.008000 0.550000
      vertex 0.002071 -0.007727 0.550000
      vertex 0.002071 0.007727 0.550000
    endloop
  endfacet
  facet normal -0.000000 0.000000 1.000000
    outer loop
      vertex 0.002071 0.007727 0.550000
      vertex 0.002071 -0.007727 0.550000
      vertex 0.004000 -0.006928 0.550000
    endloop
  endfacet
  facet normal -0.000000 0.000000 1.000000
    outer loop
      vertex 0.002071 0.007727 0.550000
      vertex 0.004000 -0.006928 0.550000
      vertex 0.004000 0.006928 0.550000
    endloop
  endfacet
  facet normal -0.000000 0.000000 1.000000
    outer loop
      vertex 0.004000 0.006928 0.550000
      vertex 0.004000 -0.006928 0.550000
      vertex 0.005657 -0.005657 0.550000
    endloop
  endfacet
  facet normal -0.000000 0.000000 1.000000
    outer loop
      vertex 0.004000 0.006928 0.550000
      vertex 0.005657 -0.005657 0.550000
      vertex 0.005657 0.005657 0.550000
    endloop
  endfacet
  facet normal -0.000000 0.000000 1.000000
    outer loop
      vertex 0.005657 0.005657 0.550000
      vertex 0.005657 -0.005657 0.550000
      vertex 0.006928 -0.004000 0.550000
    endloop
  endfacet
  facet normal -0.000000 0.000000 1.000000
    outer loop
      vertex 0.005657 0.005657 0.550000
      vertex 0.006928 -0.004000 0.550000
      vertex 0.006928 0.004000 0.550000
    endloop
  endfacet
  facet normal -0.000000 0.000000 1.000000
    outer loop
      vertex 0.006928 0.004000 0.550000
      vertex 0.006928 -0.004000 0.550000
      vertex 0.007727 -0.002071 0.550000
    endloop
  endfacet
  facet normal -0.000000 0.000000 1.000000
    outer loop
      vertex 0.006928 0.004000 0.550000
      vertex 0.007727 -0.002071 0.550000
      vertex 0.007727 0.002071 0.550000
    endloop
  endfacet
  facet normal -0.000000 0.000000 1.000000
    outer loop
      vertex 0.007727 0.002071 0.550000
      vertex 0.007727 -0.002071 0.550000
      vertex 0.008000 0.000000 0.550000
    endloop
  endfacet
  facet normal -0.984769 -0.173868 0.000000
    outer loop
      vertex -0.008000 0.000000 0.490000
      vertex -0.007727 -0.002071 0.000000
      vertex -0.007727 -0.002071 0.490000
    endloop
  endfacet
  facet normal -0.996214 -0.086934 -0.000000
    outer loop
      vertex -0.007727 -0.002071 0.000000
      vertex -0.008000 0.000000 0.490000
      vertex -0.008000 0.000000 0.000000
    endloop
  endfacet
  facet normal -0.996214 0.086934 0.000000
    outer loop
      vertex -0.007727 0.002071 0.490000
      vertex -0.008000 0.000000 0.000000
      vertex -0.008000 0.000000 0.490000
    endloop
  endfacet
  facet normal -0.984769 0.173868 0.000000
    outer loop
      vertex -0.008000 0.000000 0.000000
      vertex -0.007727 0.002071 0.490000
      vertex -0.007727 0.002071 0.000000
    endloop
  endfacet
  facet normal -0.939769 0.341811 0.000000
    outer loop
      vertex -0.006928 0.004000 0.490000
      vertex -0.007727 0.002071 0.000000
      vertex -0.007727 0.002071 0.490000
    endloop
  endfacet
  facet normal -0.906214 0.422820 0.000000
    outer loop
      vertex -0.007727 0.002071 0.000000
      vertex -0.006928 0.004000 0.490000
      vertex -0.006928 0.004000 0.000000
    endloop
  endfacet
  facet normal -0.819280 0.573394 0.000000
    outer loop
      vertex -0.005657 0.005657 0.490000
      vertex -0.006928 0.004000 0.000000
      vertex -0.006928 0.004000 0.490000
    endloop
  endfacet
  facet normal -0.765901 0.642958 0.000000
    outer loop
      vertex -0.006928 0.004000 0.000000
      vertex -0.005657 0.005657 0.490000
      vertex -0.005657 0.005657 0.000000
    endloop
  endfacet
  facet normal -0.642958 0.765901 -0.000000
    outer loop
      vertex -0.005657 0.005657 0.490000
      vertex -0.004000 0.006928 0.000000
      vertex -0.005657 0.005657 0.000000
    endloop
  endfacet
  facet normal -0.573394 0.819280 -0.000000
    outer loop
      vertex -0.004000 0.006928 0.000000
      vertex -0.005657 0.005657 0.490000
      vertex -0.004000 0.006928 0.490000
    endloop
  endfacet
  facet normal -0.422820 0.906214 -0.000000
    outer loop
      vertex -0.004000 0.006928 0.490000
      vertex -0.002071 0.007727 0.000000
      vertex -0.004000 0.006928 0.000000
    endloop
  endfacet
  facet normal -0.341811 0.939769 -0.000000
    outer loop
      vertex -0.002071 0.007727 0.000000
      vertex -0.004000 0.006928 0.490000
      vertex -0.002071 0.007727 0.490000
    endloop
  endfacet
  facet normal -0.173868 0.984769 -0.000000
    outer loop
      vertex -0.002071 0.007727 0.490000
      vertex -0.000000 0.008000 0.000000
      vertex -0.002071 0.007727 0.000000
    endloop
  endfacet
  facet normal -0.086934 0.996214 0.000000
    outer loop
      vertex -0.000000 0.008000 0.000000
      vertex -0.002071 0.007727 0.490000
      vertex -0.000000 0.008000 0.490000
    endloop
  endfacet
  facet normal 0.086934 0.996214 0.000000
    outer loop
      vertex -0.000000 0.008000 0.490000
      vertex 0.002071 0.007727 0.000000
      vertex -0.000000 0.008000 0.000000
    endloop
  endfacet
  facet normal 0.173868 0.984769 0.000000
    outer loop
      vertex 0.002071 0.007727 0.000000
      vertex -0.000000 0.008000 0.490000
      vertex 0.002071 0.007727 0.490000
    endloop
  endfacet
  facet normal 0.996214 0.086934 0.000000
    outer loop
      vertex 0.007727 0.002071 0.000000
      vertex 0.008000 0.000000 0.490000
      vertex 0.008000 0.000000 0.000000
    endloop
  endfacet
  facet normal 0.984769 0.173868 0.000000
    outer loop
      vertex 0.008000 0.000000 0.490000
      vertex 0.007727 0.002071 0.000000
      vertex 0.007727 0.002071 0.490000
    endloop
  endfacet
  facet normal 0.984769 -0.173868 -0.000000
    outer loop
      vertex 0.008000 0.000000 0.000000
      vertex 0.007727 -0.002071 0.490000
      vertex 0.007727 -0.002071 0.000000
    endloop
  endfacet
  facet normal 0.996214 -0.086934 0.000000
    outer loop
      vertex 0.007727 -0.002071 0.490000
      vertex 0.008000 0.000000 0.000000
      vertex 0.008000 0.000000 0.490000
    endloop
  endfacet
  facet normal 0.906214 -0.422820 0.000000
    outer loop
      vertex 0.007727 -0.002071 0.000000
      vertex 0.006928 -0.004000 0.490000
      vertex 0.006928 -0.004000 0.000000
    endloop
  endfacet
  facet normal 0.939769 -0.341811 0.000000
    outer loop
      vertex 0.006928 -0.004000 0.490000
      vertex 0.007727 -0.002071 0.000000
      vertex 0.007727 -0.002071 0.490000
    endloop
  endfacet
  facet normal 0.765901 -0.642958 0.000000
    outer loop
      vertex 0.006928 -0.004000 0.000000
      vertex 0.005657 -0.005657 0.490000
      vertex 0.005657 -0.005657 0.000000
    endloop
  endfacet
  facet normal 0.819280 -0.573394 0.000000
    outer loop
      vertex 0.005657 -0.005657 0.490000
      vertex 0.006928 -0.004000 0.000000
      vertex 0.006928 -0.004000 0.490000
    endloop
  endfacet
  facet normal 0.642958 -0.765901 0.000000
    outer loop
      vertex 0.005657 -0.005657 0.490000
      vertex 0.004000 -0.006928 0.000000
      vertex 0.005657 -0.005657 0.000000
    endloop
  endfacet
  facet normal 0.573394 -0.819280 0.000000
    outer loop
      vertex 0.004000 -0.006928 0.000000
      vertex 0.005657 -0.005657 0.490000
      vertex 0.004000 -0.006928 0.490000
    endloop
  endfacet
  facet normal 0.422820 -0.906214 -0.000000
    outer loop
      vertex 0.004000 -0.006928 0.490000
      vertex 0.002071 -0.007727 0.000000
      vertex 0.004000 -0.006928 0.000000
    endloop
  endfacet
  facet normal 0.341811 -0.939769 -0.000000
    outer loop
      vertex 0.002071 -0.007727 0.000000
      vertex 0.004000 -0.006928 0.490000
      vertex 0.002071 -0.007727 0.490000
    endloop
  endfacet
  facet normal 0.173868 -0.984769 -0.000000
    outer loop
      vertex 0.002071 -0.007727 0.490000
      vertex -0.000000 -0.008000 0.000000
      vertex 0.002071 -0.007727 0.000000
    endloop
  endfacet
  facet normal 0.086934 -0.996214 0.000000
    outer loop
      vertex -0.000000 -0.008000 0.000000
      vertex 0.002071 -0.007727 0.490000
      vertex -0.000000 -0.008000 0.490000
    endloop
  endfacet
  facet normal -0.086934 -0.996214 0.000000
    outer loop
      vertex -0.000000 -0.008000 0.490000
      vertex -0.002071 -0.007727 0.000000
      vertex -0.000000 -0.008000 0.000000
    endloop
  endfacet
  facet normal -0.173868 -0.984769 0.000000
    outer loop
      vertex -0.002071 -0.007727 0.000000
      vertex -0.000000 -0.008000 0.490000
      vertex -0.002071 -0.007727 0.490000
    endloop
  endfacet
  facet normal -0.341811 -0.939769 -0.000000
    outer loop
      vertex -0.002071 -0.007727 0.490000
      vertex -0.004000 -0.006928 0.000000
      vertex -0.002071 -0.007727 0.000000
    endloop
  endfacet
  facet normal -0.422820 -0.906214 -0.000000
    outer loop
      vertex -0.004000 -0.006928 0.000000
      vertex -0.002071 -0.007727 0.490000
      vertex -0.004000 -0.006928 0.490000
    endloop
  endfacet
  facet normal -0.573394 -0.819280 -0.000000
    outer loop
      vertex -0.004000 -0.006928 0.490000
      vertex -0.005657 -0.005657 0.000000
      vertex -0.004000 -0.006928 0.000000
    endloop
  endfacet
  facet normal -0.642958 -0.765901 -0.000000
    outer loop
      vertex -0.005657 -0.005657 0.000000
      vertex -0.004000 -0.006928 0.490000
      vertex -0.005657 -0.005657 0.490000
    endloop
  endfacet
  facet normal 0.341811 0.939769 -0.000000
    outer loop
      vertex 0.002071 0.007727 0.490000
      vertex 0.004000 0.006928 0.000000
      vertex 0.002071 0.007727 0.000000
    endloop
  endfacet
  facet normal 0.422820 0.906214 -0.000000
    outer loop
      vertex 0.004000 0.006928 0.000000
      vertex 0.002071 0.007727 0.490000
      vertex 0.004000 0.006928 0.490000
    endloop
  endfacet
  facet normal 0.573394 0.819280 -0.000000
    outer loop
      vertex 0.004000 0.006928 0.490000
      vertex 0.005657 0.005657 0.000000
      vertex 0.004000 0.006928 0.000000
    endloop
  endfacet
  facet normal 0.642958 0.765901 -0.000000
    outer loop
      vertex 0.005657 0.005657 0.000000
      vertex 0.004000 0.006928 0.490000
      vertex 0.005657 0.005657 0.490000
    endloop
  endfacet
  facet normal 0.819280 0.573394 -0.000000
    outer loop
      vertex 0.005657 0.005657 0.000000
      vertex 0.006928 0.004000 0.490000
      vertex 0.006928 0.004000 0.000000
    endloop
  endfacet
  facet normal 0.765901 0.642958 -0.000000
    outer loop
      vertex 0.006928 0.004000 0.490000
      vertex 0.005657 0.005657 0.000000
      vertex 0.005657 0.005657 0.490000
    endloop
  endfacet
  facet normal 0.939769 0.341811 -0.000000
    outer loop
      vertex 0.006928 0.004000 0.000000
      vertex 0.007727 0.002071 0.490000
      vertex 0.007727 0.002071 0.000000
    endloop
  endfacet
  facet normal 0.906214 0.422820 -0.000000
    outer loop
      vertex 0.007727 0.002071 0.490000
      vertex 0.006928 0.004000 0.000000
      vertex 0.006928 0.004000 0.490000
    endloop
  endfacet
  facet normal -0.765901 -0.642958 -0.000000
    outer loop
      vertex -0.006928 -0.004000 0.490000
      vertex -0.005657 -0.005657 0.000000
      vertex -0.005657 -0.005657 0.490000
    endloop
  endfacet
  facet normal -0.819280 -0.573394 0.000000
    outer loop
      vertex -0.005657 -0.005657 0.000000
      vertex -0.006928 -0.004000 0.490000
      vertex -0.006928 -0.004000 0.000000
    endloop
  endfacet
  facet normal 0.642958 -0.765901 0.000000
    outer loop
      vertex 0.010607 -0.010607 0.500000
      vertex 0.007500 -0.012990 0.490000
      vertex 0.010607 -0.010607 0.490000
    endloop
  endfacet
  facet normal 0.573394 -0.819280 0.000000
    outer loop
      vertex 0.007500 -0.012990 0.490000
      vertex 0.010607 -0.010607 0.500000
      vertex 0.007500 -0.012990 0.500000
    endloop
  endfacet
  facet normal 0.765901 -0.642958 0.000000
    outer loop
      vertex 0.012990 -0.007500 0.490000
      vertex 0.010607 -0.010607 0.500000
      vertex 0.010607 -0.010607 0.490000
    endloop
  endfacet
  facet normal 0.819280 -0.573394 0.000000
    outer loop
      vertex 0.010607 -0.010607 0.500000
      vertex 0.012990 -0.007500 0.490000
      vertex 0.012990 -0.007500 0.500000
    endloop
  endfacet
  facet normal 0.906214 -0.422820 0.000000
    outer loop
      vertex 0.014489 -0.003882 0.490000
      vertex 0.012990 -0.007500 0.500000
      vertex 0.012990 -0.007500 0.490000
    endloop
  endfacet
  facet normal 0.939769 -0.341811 0.000000
    outer loop
      vertex 0.012990 -0.007500 0.500000
      vertex 0.014489 -0.003882 0.490000
      vertex 0.014489 -0.003882 0.500000
    endloop
  endfacet
  facet normal 0.984769 -0.173868 0.000000
    outer loop
      vertex 0.015000 0.000000 0.490000
      vertex 0.014489 -0.003882 0.500000
      vertex 0.014489 -0.003882 0.490000
    endloop
  endfacet
  facet normal 0.996214 -0.086934 0.000000
    outer loop
      vertex 0.014489 -0.003882 0.500000
      vertex 0.015000 0.000000 0.490000
      vertex 0.015000 0.000000 0.500000
    endloop
  endfacet
  facet normal 0.996214 0.086934 0.000000
    outer loop
      vertex 0.007727 0.002071 0.490000
      vertex 0.008000 0.000000 0.500000
      vertex 0.008000 0.000000 0.490000
    endloop
  endfacet
  facet normal 0.984769 0.173868 0.000000
    outer loop
      vertex 0.008000 0.000000 0.500000
      vertex 0.007727 0.002071 0.490000
      vertex 0.007727 0.002071 0.500000
    endloop
  endfacet
  facet normal 0.984769 -0.173868 0.000000
    outer loop
      vertex 0.008000 0.000000 0.490000
      vertex 0.007727 -0.002071 0.500000
      vertex 0.007727 -0.002071 0.490000
    endloop
  endfacet
  facet normal 0.996214 -0.086934 0.000000
    outer loop
      vertex 0.007727 -0.002071 0.500000
      vertex 0.008000 0.000000 0.490000
      vertex 0.008000 0.000000 0.500000
    endloop
  endfacet
  facet normal 0.906214 -0.422820 0.000000
    outer loop
      vertex 0.007727 -0.002071 0.490000
      vertex 0.006928 -0.004000 0.500000
      vertex 0.006928 -0.004000 0.490000
    endloop
  endfacet
  facet normal 0.939769 -0.341811 0.000000
    outer loop
      vertex 0.006928 -0.004000 0.500000
      vertex 0.007727 -0.002071 0.490000
      vertex 0.007727 -0.002071 0.500000
    endloop
  endfacet
  facet normal 0.765901 -0.642958 0.000000
    outer loop
      vertex 0.006928 -0.004000 0.490000
      vertex 0.005657 -0.005657 0.500000
      vertex 0.005657 -0.005657 0.490000
    endloop
  endfacet
  facet normal 0.819280 -0.573394 0.000000
    outer loop
      vertex 0.005657 -0.005657 0.500000
      vertex 0.006928 -0.004000 0.490000
      vertex 0.006928 -0.004000 0.500000
    endloop
  endfacet
  facet normal 0.642958 -0.765901 0.000000
    outer loop
      vertex 0.005657 -0.005657 0.500000
      vertex 0.004000 -0.006928 0.490000
      vertex 0.005657 -0.005657 0.490000
    endloop
  endfacet
  facet normal 0.573394 -0.819280 0.000000
    outer loop
      vertex 0.004000 -0.006928 0.490000
      vertex 0.005657 -0.005657 0.500000
      vertex 0.004000 -0.006928 0.500000
    endloop
  endfacet
  facet normal 0.422820 -0.906214 0.000000
    outer loop
      vertex 0.004000 -0.006928 0.500000
      vertex 0.002071 -0.007727 0.490000
      vertex 0.004000 -0.006928 0.490000
    endloop
  endfacet
  facet normal 0.341811 -0.939769 -0.000000
    outer loop
      vertex 0.002071 -0.007727 0.490000
      vertex 0.004000 -0.006928 0.500000
      vertex 0.002071 -0.007727 0.500000
    endloop
  endfacet
  facet normal 0.173868 -0.984769 -0.000000
    outer loop
      vertex 0.002071 -0.007727 0.500000
      vertex -0.000000 -0.008000 0.490000
      vertex 0.002071 -0.007727 0.490000
    endloop
  endfacet
  facet normal 0.086934 -0.996214 0.000000
    outer loop
      vertex -0.000000 -0.008000 0.490000
      vertex 0.002071 -0.007727 0.500000
      vertex -0.000000 -0.008000 0.500000
    endloop
  endfacet
  facet normal -0.086934 -0.996214 0.000000
    outer loop
      vertex -0.000000 -0.008000 0.500000
      vertex -0.002071 -0.007727 0.490000
      vertex -0.000000 -0.008000 0.490000
    endloop
  endfacet
  facet normal -0.173868 -0.984769 0.000000
    outer loop
      vertex -0.002071 -0.007727 0.490000
      vertex -0.000000 -0.008000 0.500000
      vertex -0.002071 -0.007727 0.500000
    endloop
  endfacet
  facet normal -0.341811 -0.939769 -0.000000
    outer loop
      vertex -0.002071 -0.007727 0.500000
      vertex -0.004000 -0.006928 0.490000
      vertex -0.002071 -0.007727 0.490000
    endloop
  endfacet
  facet normal -0.422820 -0.906214 -0.000000
    outer loop
      vertex -0.004000 -0.006928 0.490000
      vertex -0.002071 -0.007727 0.500000
      vertex -0.004000 -0.006928 0.500000
    endloop
  endfacet
  facet normal -0.573394 -0.819280 -0.000000
    outer loop
      vertex -0.004000 -0.006928 0.500000
      vertex -0.005657 -0.005657 0.490000
      vertex -0.004000 -0.006928 0.490000
    endloop
  endfacet
  facet normal -0.642958 -0.765901 -0.000000
    outer loop
      vertex -0.005657 -0.005657 0.490000
      vertex -0.004000 -0.006928 0.500000
      vertex -0.005657 -0.005657 0.500000
    endloop
  endfacet
  facet normal 0.000000 0.000000 -1.000000
    outer loop
      vertex -0.014489 0.003882 0.490000
      vertex -0.014489 -0.003882 0.490000
      vertex -0.015000 0.000000 0.490000
    endloop
  endfacet
  facet normal 0.000000 0.000000 -1.000000
    outer loop
      vertex -0.014489 -0.003882 0.490000
      vertex -0.014489 0.003882 0.490000
      vertex -0.012990 0.007500 0.490000
    endloop
  endfacet
  facet normal 0.000000 0.000000 -1.000000
    outer loop
      vertex -0.014489 -0.003882 0.490000
      vertex -0.012990 0.007500 0.490000
      vertex -0.012990 -0.007500 0.490000
    endloop
  endfacet
  facet normal 0.000000 0.000000 -1.000000
    outer loop
      vertex -0.012990 -0.007500 0.490000
      vertex -0.012990 0.007500 0.490000
      vertex -0.010607 0.010607 0.490000
    endloop
  endfacet
  facet normal 0.000000 0.000000 -1.000000
    outer loop
      vertex -0.012990 -0.007500 0.490000
      vertex -0.010607 0.010607 0.490000
      vertex -0.010607 -0.010607 0.490000
    endloop
  endfacet
  facet normal 0.000000 0.000000 -1.000000
    outer loop
      vertex -0.010607 -0.010607 0.490000
      vertex -0.010607 0.010607 0.490000
      vertex -0.007500 0.012990 0.490000
    endloop
  endfacet
  facet normal 0.000000 0.000000 -1.000000
    outer loop
      vertex -0.010607 -0.010607 0.490000
      vertex -0.007500 0.012990 0.490000
      vertex -0.008000 0.000000 0.490000
    endloop
  endfacet
  facet normal 0.000000 0.000000 -1.000000
    outer loop
      vertex -0.008000 0.000000 0.490000
      vertex -0.007500 0.012990 0.490000
      vertex -0.007727 0.002071 0.490000
    endloop
  endfacet
  facet normal 0.000000 0.000000 -1.000000
    outer loop
      vertex -0.007727 0.002071 0.490000
      vertex -0.007500 0.012990 0.490000
      vertex -0.006928 0.004000 0.490000
    endloop
  endfacet
  facet normal 0.000000 0.000000 -1.000000
    outer loop
      vertex -0.006928 0.004000 0.490000
      vertex -0.007500 0.012990 0.490000
      vertex -0.003882 0.014489 0.490000
    endloop
  endfacet
  facet normal 0.000000 0.000000 -1.000000
    outer loop
      vertex -0.006928 0.004000 0.490000
      vertex -0.003882 0.014489 0.490000
      vertex -0.005657 0.005657 0.490000
    endloop
  endfacet
  facet normal 0.000000 0.000000 -1.000000
    outer loop
      vertex -0.005657 0.005657 0.490000
      vertex -0.003882 0.014489 0.490000
      vertex -0.004000 0.006928 0.490000
    endloop
  endfacet
  facet normal 0.000000 0.000000 -1.000000
    outer loop
      vertex -0.004000 0.006928 0.490000
      vertex -0.003882 0.014489 0.490000
      vertex -0.002071 0.007727 0.490000
    endloop
  endfacet
  facet normal 0.000000 0.000000 -1.000000
    outer loop
      vertex -0.002071 0.007727 0.490000
      vertex -0.003882 0.014489 0.490000
      vertex -0.000000 0.015000 0.490000
    endloop
  endfacet
  facet normal 0.000000 0.000000 -1.000000
    outer loop
      vertex -0.002071 0.007727 0.490000
      vertex -0.000000 0.015000 0.490000
      vertex -0.000000 0.008000 0.490000
    endloop
  endfacet
  facet normal 0.000000 0.000000 -1.000000
    outer loop
      vertex -0.000000 0.008000 0.490000
      vertex -0.000000 0.015000 0.490000
      vertex 0.003882 0.014489 0.490000
    endloop
  endfacet
  facet normal 0.000000 0.000000 -1.000000
    outer loop
      vertex -0.000000 0.008000 0.490000
      vertex 0.003882 0.014489 0.490000
      vertex 0.002071 0.007727 0.490000
    endloop
  endfacet
  facet normal 0.000000 0.000000 -1.000000
    outer loop
      vertex 0.002071 0.007727 0.490000
      vertex 0.003882 0.014489 0.490000
      vertex 0.004000 0.006928 0.490000
    endloop
  endfacet
  facet normal 0.000000 0.000000 -1.000000
    outer loop
      vertex 0.004000 0.006928 0.490000
      vertex 0.003882 0.014489 0.490000
      vertex 0.007500 0.012990 0.490000
    endloop
  endfacet
  facet normal 0.000000 0.000000 -1.000000
    outer loop
      vertex 0.004000 0.006928 0.490000
      vertex 0.007500 0.012990 0.490000
      vertex 0.005657 0.005657 0.490000
    endloop
  endfacet
  facet normal 0.000000 0.000000 -1.000000
    outer loop
      vertex 0.005657 0.005657 0.490000
      vertex 0.007500 0.012990 0.490000
      vertex 0.006928 0.004000 0.490000
    endloop
  endfacet
  facet normal 0.000000 0.000000 -1.000000
    outer loop
      vertex 0.006928 0.004000 0.490000
      vertex 0.007500 0.012990 0.490000
      vertex 0.007727 0.002071 0.490000
    endloop
  endfacet
  facet normal 0.000000 0.000000 -1.000000
    outer loop
      vertex 0.007727 0.002071 0.490000
      vertex 0.007500 0.012990 0.490000
      vertex 0.010607 0.010607 0.490000
    endloop
  endfacet
  facet normal 0.000000 0.000000 -1.000000
    outer loop
      vertex 0.007727 0.002071 0.490000
      vertex 0.010607 0.010607 0.490000
      vertex 0.008000 0.000000 0.490000
    endloop
  endfacet
  facet normal 0.000000 0.000000 -1.000000
    outer loop
      vertex -0.008000 0.000000 0.490000
      vertex -0.007500 -0.012990 0.490000
      vertex -0.010607 -0.010607 0.490000
    endloop
  endfacet
  facet normal 0.000000 0.000000 -1.000000
    outer loop
      vertex -0.007500 -0.012990 0.490000
      vertex -0.008000 0.000000 0.490000
      vertex -0.007727 -0.002071 0.490000
    endloop
  endfacet
  facet normal 0.000000 0.000000 -1.000000
    outer loop
      vertex -0.007500 -0.012990 0.490000
      vertex -0.007727 -0.002071 0.490000
      vertex -0.006928 -0.004000 0.490000
    endloop
  endfacet
  facet normal 0.000000 0.000000 -1.000000
    outer loop
      vertex -0.007500 -0.012990 0.490000
      vertex -0.006928 -0.004000 0.490000
      vertex -0.003882 -0.014489 0.490000
    endloop
  endfacet
  facet normal 0.000000 0.000000 -1.000000
    outer loop
      vertex -0.003882 -0.014489 0.490000
      vertex -0.006928 -0.004000 0.490000
      vertex -0.005657 -0.005657 0.490000
    endloop
  endfacet
  facet normal 0.000000 0.000000 -1.000000
    outer loop
      vertex -0.003882 -0.014489 0.490000
      vertex -0.005657 -0.005657 0.490000
      vertex -0.004000 -0.006928 0.490000
    endloop
  endfacet
  facet normal 0.000000 0.000000 -1.000000
    outer loop
      vertex -0.003882 -0.014489 0.490000
      vertex -0.004000 -0.006928 0.490000
      vertex -0.002071 -0.007727 0.490000
    endloop
  endfacet
  facet normal 0.000000 0.000000 -1.000000
    outer loop
      vertex -0.003882 -0.014489 0.490000
      vertex -0.002071 -0.007727 0.490000
      vertex -0.000000 -0.015000 0.490000
    endloop
  endfacet
  facet normal 0.000000 0.000000 -1.000000
    outer loop
      vertex -0.000000 -0.015000 0.490000
      vertex -0.002071 -0.007727 0.490000
      vertex -0.000000 -0.008000 0.490000
    endloop
  endfacet
  facet normal 0.000000 0.000000 -1.000000
    outer loop
      vertex -0.000000 -0.015000 0.490000
      vertex -0.000000 -0.008000 0.490000
      vertex 0.002071 -0.007727 0.490000
    endloop
  endfacet
  facet normal 0.000000 0.000000 -1.000000
    outer loop
      vertex -0.000000 -0.015000 0.490000
      vertex 0.002071 -0.007727 0.490000
      vertex 0.003882 -0.014489 0.490000
    endloop
  endfacet
  facet normal 0.000000 0.000000 -1.000000
    outer loop
      vertex 0.003882 -0.014489 0.490000
      vertex 0.002071 -0.007727 0.490000
      vertex 0.004000 -0.006928 0.490000
    endloop
  endfacet
  facet normal 0.000000 0.000000 -1.000000
    outer loop
      vertex 0.003882 -0.014489 0.490000
      vertex 0.004000 -0.006928 0.490000
      vertex 0.007500 -0.012990 0.490000
    endloop
  endfacet
  facet normal 0.000000 0.000000 -1.000000
    outer loop
      vertex 0.007500 -0.012990 0.490000
      vertex 0.004000 -0.006928 0.490000
      vertex 0.005657 -0.005657 0.490000
    endloop
  endfacet
  facet normal 0.000000 0.000000 -1.000000
    outer loop
      vertex 0.007500 -0.012990 0.490000
      vertex 0.005657 -0.005657 0.490000
      vertex 0.006928 -0.004000 0.490000
    endloop
  endfacet
  facet normal 0.000000 0.000000 -1.000000
    outer loop
      vertex 0.007500 -0.012990 0.490000
      vertex 0.006928 -0.004000 0.490000
      vertex 0.007727 -0.002071 0.490000
    endloop
  endfacet
  facet normal 0.000000 0.000000 -1.000000
    outer loop
      vertex 0.007500 -0.012990 0.490000
      vertex 0.007727 -0.002071 0.490000
      vertex 0.010607 -0.010607 0.490000
    endloop
  endfacet
  facet normal 0.000000 0.000000 -1.000000
    outer loop
      vertex 0.010607 -0.010607 0.490000
      vertex 0.007727 -0.002071 0.490000
      vertex 0.008000 0.000000 0.490000
    endloop
  endfacet
  facet normal 0.000000 0.000000 -1.000000
    outer loop
      vertex 0.010607 -0.010607 0.490000
      vertex 0.008000 0.000000 0.490000
      vertex 0.010607 0.010607 0.490000
    endloop
  endfacet
  facet normal 0.000000 0.000000 -1.000000
    outer loop
      vertex 0.010607 -0.010607 0.490000
      vertex 0.010607 0.010607 0.490000
      vertex 0.012990 0.007500 0.490000
    endloop
  endfacet
  facet normal 0.000000 0.000000 -1.000000
    outer loop
      vertex 0.010607 -0.010607 0.490000
      vertex 0.012990 0.007500 0.490000
      vertex 0.012990 -0.007500 0.490000
    endloop
  endfacet
  facet normal 0.000000 0.000000 -1.000000
    outer loop
      vertex 0.012990 -0.007500 0.490000
      vertex 0.012990 0.007500 0.490000
      vertex 0.014489 0.003882 0.490000
    endloop
  endfacet
  facet normal 0.000000 0.000000 -1.000000
    outer loop
      vertex 0.012990 -0.007500 0.490000
      vertex 0.014489 0.003882 0.490000
      vertex 0.014489 -0.003882 0.490000
    endloop
  endfacet
  facet normal 0.000000 0.000000 -1.000000
    outer loop
      vertex 0.014489 -0.003882 0.490000
      vertex 0.014489 0.003882 0.490000
      vertex 0.015000 0.000000 0.490000
    endloop
  endfacet
  facet normal 0.996214 0.086934 0.000000
    outer loop
      vertex 0.014489 0.003882 0.490000
      vertex 0.015000 0.000000 0.500000
      vertex 0.015000 0.000000 0.490000
    endloop
  endfacet
  facet normal 0.984769 0.173868 0.000000
    outer loop
      vertex 0.015000 0.000000 0.500000
      vertex 0.014489 0.003882 0.490000
      vertex 0.014489 0.003882 0.500000
    endloop
  endfacet
  facet normal 0.939769 0.341811 0.000000
    outer loop
      vertex 0.012990 0.007500 0.490000
      vertex 0.014489 0.003882 0.500000
      vertex 0.014489 0.003882 0.490000
    endloop
  endfacet
  facet normal 0.906214 0.422820 0.000000
    outer loop
      vertex 0.014489 0.003882 0.500000
      vertex 0.012990 0.007500 0.490000
      vertex 0.012990 0.007500 0.500000
    endloop
  endfacet
  facet normal 0.819280 0.573394 0.000000
    outer loop
      vertex 0.010607 0.010607 0.490000
      vertex 0.012990 0.007500 0.500000
      vertex 0.012990 0.007500 0.490000
    endloop
  endfacet
  facet normal 0.765901 0.642958 0.000000
    outer loop
      vertex 0.012990 0.007500 0.500000
      vertex 0.010607 0.010607 0.490000
      vertex 0.010607 0.010607 0.500000
    endloop
  endfacet
  facet normal 0.573394 0.819280 0.000000
    outer loop
      vertex 0.007500 0.012990 0.500000
      vertex 0.010607 0.010607 0.490000
      vertex 0.007500 0.012990 0.490000
    endloop
  endfacet
  facet normal 0.642958 0.765901 0.000000
    outer loop
      vertex 0.010607 0.010607 0.490000
      vertex 0.007500 0.012990 0.500000
      vertex 0.010607 0.010607 0.500000
    endloop
  endfacet
  facet normal 0.341811 0.939769 0.000000
    outer loop
      vertex 0.003882 0.014489 0.500000
      vertex 0.007500 0.012990 0.490000
      vertex 0.003882 0.014489 0.490000
    endloop
  endfacet
  facet normal 0.422820 0.906214 0.000000
    outer loop
      vertex 0.007500 0.012990 0.490000
      vertex 0.003882 0.014489 0.500000
      vertex 0.007500 0.012990 0.500000
    endloop
  endfacet
  facet normal 0.086934 0.996214 0.000000
    outer loop
      vertex -0.000000 0.015000 0.500000
      vertex 0.003882 0.014489 0.490000
      vertex -0.000000 0.015000 0.490000
    endloop
  endfacet
  facet normal 0.173868 0.984769 0.000000
    outer loop
      vertex 0.003882 0.014489 0.490000
      vertex -0.000000 0.015000 0.500000
      vertex 0.003882 0.014489 0.500000
    endloop
  endfacet
  facet normal -0.173868 0.984769 0.000000
    outer loop
      vertex -0.003882 0.014489 0.500000
      vertex -0.000000 0.015000 0.490000
      vertex -0.003882 0.014489 0.490000
    endloop
  endfacet
  facet normal -0.086934 0.996214 0.000000
    outer loop
      vertex -0.000000 0.015000 0.490000
      vertex -0.003882 0.014489 0.500000
      vertex -0.000000 0.015000 0.500000
    endloop
  endfacet
  facet normal -0.422820 0.906214 0.000000
    outer loop
      vertex -0.007500 0.012990 0.500000
      vertex -0.003882 0.014489 0.490000
      vertex -0.007500 0.012990 0.490000
    endloop
  endfacet
  facet normal -0.341811 0.939769 0.000000
    outer loop
      vertex -0.003882 0.014489 0.490000
      vertex -0.007500 0.012990 0.500000
      vertex -0.003882 0.014489 0.500000
    endloop
  endfacet
  facet normal -0.642958 0.765901 0.000000
    outer loop
      vertex -0.010607 0.010607 0.500000
      vertex -0.007500 0.012990 0.490000
      vertex -0.010607 0.010607 0.490000
    endloop
  endfacet
  facet normal -0.573394 0.819280 0.000000
    outer loop
      vertex -0.007500 0.012990 0.490000
      vertex -0.010607 0.010607 0.500000
      vertex -0.007500 0.012990 0.500000
    endloop
  endfacet
  facet normal -0.819280 0.573394 0.000000
    outer loop
      vertex -0.010607 0.010607 0.500000
      vertex -0.012990 0.007500 0.490000
      vertex -0.012990 0.007500 0.500000
    endloop
  endfacet
  facet normal -0.765901 0.642958 0.000000
    outer loop
      vertex -0.012990 0.007500 0.490000
      vertex -0.010607 0.010607 0.500000
      vertex -0.010607 0.010607 0.490000
    endloop
  endfacet
  facet normal -0.939769 0.341811 0.000000
    outer loop
      vertex -0.012990 0.007500 0.500000
      vertex -0.014489 0.003882 0.490000
      vertex -0.014489 0.003882 0.500000
    endloop
  endfacet
  facet normal -0.906214 0.422820 0.000000
    outer loop
      vertex -0.014489 0.003882 0.490000
      vertex -0.012990 0.007500 0.500000
      vertex -0.012990 0.007500 0.490000
    endloop
  endfacet
  facet normal -0.996214 0.086934 0.000000
    outer loop
      vertex -0.014489 0.003882 0.500000
      vertex -0.015000 0.000000 0.490000
      vertex -0.015000 0.000000 0.500000
    endloop
  endfacet
  facet normal -0.984769 0.173868 0.000000
    outer loop
      vertex -0.015000 0.000000 0.490000
      vertex -0.014489 0.003882 0.500000
      vertex -0.014489 0.003882 0.490000
    endloop
  endfacet
  facet normal -0.984769 -0.173868 0.000000
    outer loop
      vertex -0.015000 0.000000 0.500000
      vertex -0.014489 -0.003882 0.490000
      vertex -0.014489 -0.003882 0.500000
    endloop
  endfacet
  facet normal -0.996214 -0.086934 0.000000
    outer loop
      vertex -0.014489 -0.003882 0.490000
      vertex -0.015000 0.000000 0.500000
      vertex -0.015000 0.000000 0.490000
    endloop
  endfacet
  facet normal -0.906214 -0.422820 0.000000
    outer loop
      vertex -0.014489 -0.003882 0.500000
      vertex -0.012990 -0.007500 0.490000
      vertex -0.012990 -0.007500 0.500000
    endloop
  endfacet
  facet normal -0.939769 -0.341811 0.000000
    outer loop
      vertex -0.012990 -0.007500 0.490000
      vertex -0.014489 -0.003882 0.500000
      vertex -0.014489 -0.003882 0.490000
    endloop
  endfacet
  facet normal -0.765901 -0.642958 0.000000
    outer loop
      vertex -0.012990 -0.007500 0.500000
      vertex -0.010607 -0.010607 0.490000
      vertex -0.010607 -0.010607 0.500000
    endloop
  endfacet
  facet normal -0.819280 -0.573394 0.000000
    outer loop
      vertex -0.010607 -0.010607 0.490000
      vertex -0.012990 -0.007500 0.500000
      vertex -0.012990 -0.007500 0.490000
    endloop
  endfacet
  facet normal -0.573394 -0.819280 0.000000
    outer loop
      vertex -0.007500 -0.012990 0.500000
      vertex -0.010607 -0.010607 0.490000
      vertex -0.007500 -0.012990 0.490000
    endloop
  endfacet
  facet normal -0.642958 -0.765901 0.000000
    outer loop
      vertex -0.010607 -0.010607 0.490000
      vertex -0.007500 -0.012990 0.500000
      vertex -0.010607 -0.010607 0.500000
    endloop
  endfacet
  facet normal -0.341811 -0.939769 0.000000
    outer loop
      vertex -0.003882 -0.014489 0.500000
      vertex -0.007500 -0.012990 0.490000
      vertex -0.003882 -0.014489 0.490000
    endloop
  endfacet
  facet normal -0.422820 -0.906214 0.000000
    outer loop
      vertex -0.007500 -0.012990 0.490000
      vertex -0.003882 -0.014489 0.500000
      vertex -0.007500 -0.012990 0.500000
    endloop
  endfacet
  facet normal 0.819280 0.573394 0.000000
    outer loop
      vertex 0.005657 0.005657 0.490000
      vertex 0.006928 0.004000 0.500000
      vertex 0.006928 0.004000 0.490000
    endloop
  endfacet
  facet normal 0.765901 0.642958 0.000000
    outer loop
      vertex 0.006928 0.004000 0.500000
      vertex 0.005657 0.005657 0.490000
      vertex 0.005657 0.005657 0.500000
    endloop
  endfacet
  facet normal 0.939769 0.341811 0.000000
    outer loop
      vertex 0.006928 0.004000 0.490000
      vertex 0.007727 0.002071 0.500000
      vertex 0.007727 0.002071 0.490000
    endloop
  endfacet
  facet normal 0.906214 0.422820 0.000000
    outer loop
      vertex 0.007727 0.002071 0.500000
      vertex 0.006928 0.004000 0.490000
      vertex 0.006928 0.004000 0.500000
    endloop
  endfacet
  facet normal -0.765901 -0.642958 -0.000000
    outer loop
      vertex -0.006928 -0.004000 0.500000
      vertex -0.005657 -0.005657 0.490000
      vertex -0.005657 -0.005657 0.500000
    endloop
  endfacet
  facet normal -0.819280 -0.573394 -0.000000
    outer loop
      vertex -0.005657 -0.005657 0.490000
      vertex -0.006928 -0.004000 0.500000
      vertex -0.006928 -0.004000 0.490000
    endloop
  endfacet
  facet normal -0.906214 -0.422820 -0.000000
    outer loop
      vertex -0.007727 -0.002071 0.500000
      vertex -0.006928 -0.004000 0.490000
      vertex -0.006928 -0.004000 0.500000
    endloop
  endfacet
  facet normal -0.939769 -0.341811 -0.000000
    outer loop
      vertex -0.006928 -0.004000 0.490000
      vertex -0.007727 -0.002071 0.500000
      vertex -0.007727 -0.002071 0.490000
    endloop
  endfacet
  facet normal -0.984769 -0.173868 -0.000000
    outer loop
      vertex -0.008000 0.000000 0.500000
      vertex -0.007727 -0.002071 0.490000
      vertex -0.007727 -0.002071 0.500000
    endloop
  endfacet
  facet normal -0.996214 -0.086934 -0.000000
    outer loop
      vertex -0.007727 -0.002071 0.490000
      vertex -0.008000 0.000000 0.500000
      vertex -0.008000 0.000000 0.490000
    endloop
  endfacet
  facet normal -0.996214 0.086934 0.000000
    outer loop
      vertex -0.007727 0.002071 0.500000
      vertex -0.008000 0.000000 0.490000
      vertex -0.008000 0.000000 0.500000
    endloop
  endfacet
  facet normal -0.984769 0.173868 0.000000
    outer loop
      vertex -0.008000 0.000000 0.490000
      vertex -0.007727 0.002071 0.500000
      vertex -0.007727 0.002071 0.490000
    endloop
  endfacet
  facet normal -0.939769 0.341811 0.000000
    outer loop
      vertex -0.006928 0.004000 0.500000
      vertex -0.007727 0.002071 0.490000
      vertex -0.007727 0.002071 0.500000
    endloop
  endfacet
  facet normal -0.906214 0.422820 0.000000
    outer loop
      vertex -0.007727 0.002071 0.490000
      vertex -0.006928 0.004000 0.500000
      vertex -0.006928 0.004000 0.490000
    endloop
  endfacet
  facet normal -0.819280 0.573394 0.000000
    outer loop
      vertex -0.005657 0.005657 0.500000
      vertex -0.006928 0.004000 0.490000
      vertex -0.006928 0.004000 0.500000
    endloop
  endfacet
  facet normal -0.765901 0.642958 0.000000
    outer loop
      vertex -0.006928 0.004000 0.490000
      vertex -0.005657 0.005657 0.500000
      vertex -0.005657 0.005657 0.490000
    endloop
  endfacet
  facet normal -0.642958 0.765901 -0.000000
    outer loop
      vertex -0.005657 0.005657 0.500000
      vertex -0.004000 0.006928 0.490000
      vertex -0.005657 0.005657 0.490000
    endloop
  endfacet
  facet normal -0.573394 0.819280 -0.000000
    outer loop
      vertex -0.004000 0.006928 0.490000
      vertex -0.005657 0.005657 0.500000
      vertex -0.004000 0.006928 0.500000
    endloop
  endfacet
  facet normal -0.422820 0.906214 -0.000000
    outer loop
      vertex -0.004000 0.006928 0.500000
      vertex -0.002071 0.007727 0.490000
      vertex -0.004000 0.006928 0.490000
    endloop
  endfacet
  facet normal -0.341811 0.939769 -0.000000
    outer loop
      vertex -0.002071 0.007727 0.490000
      vertex -0.004000 0.006928 0.500000
      vertex -0.002071 0.007727 0.500000
    endloop
  endfacet
  facet normal -0.173868 0.984769 0.000000
    outer loop
      vertex -0.002071 0.007727 0.500000
      vertex -0.000000 0.008000 0.490000
      vertex -0.002071 0.007727 0.490000
    endloop
  endfacet
  facet normal -0.086934 0.996214 0.000000
    outer loop
      vertex -0.000000 0.008000 0.490000
      vertex -0.002071 0.007727 0.500000
      vertex -0.000000 0.008000 0.500000
    endloop
  endfacet
  facet normal 0.086934 0.996214 0.000000
    outer loop
      vertex -0.000000 0.008000 0.500000
      vertex 0.002071 0.007727 0.490000
      vertex -0.000000 0.008000 0.490000
    endloop
  endfacet
  facet normal 0.173868 0.984769 0.000000
    outer loop
      vertex 0.002071 0.007727 0.490000
      vertex -0.000000 0.008000 0.500000
      vertex 0.002071 0.007727 0.500000
    endloop
  endfacet
  facet normal 0.341811 0.939769 0.000000
    outer loop
      vertex 0.002071 0.007727 0.500000
      vertex 0.004000 0.006928 0.490000
      vertex 0.002071 0.007727 0.490000
    endloop
  endfacet
  facet normal 0.422820 0.906214 0.000000
    outer loop
      vertex 0.004000 0.006928 0.490000
      vertex 0.002071 0.007727 0.500000
      vertex 0.004000 0.006928 0.500000
    endloop
  endfacet
  facet normal 0.573394 0.819280 0.000000
    outer loop
      vertex 0.004000 0.006928 0.500000
      vertex 0.005657 0.005657 0.490000
      vertex 0.004000 0.006928 0.490000
    endloop
  endfacet
  facet normal 0.642958 0.765901 0.000000
    outer loop
      vertex 0.005657 0.005657 0.490000
      vertex 0.004000 0.006928 0.500000
      vertex 0.005657 0.005657 0.500000
    endloop
  endfacet
  facet normal -0.173868 0.984769 0.000000
    outer loop
      vertex -0.002071 0.007727 0.550000
      vertex -0.000000 0.008000 0.500000
      vertex -0.002071 0.007727 0.500000
    endloop
  endfacet
  facet normal -0.086934 0.996214 0.000000
    outer loop
      vertex -0.000000 0.008000 0.500000
      vertex -0.002071 0.007727 0.550000
      vertex -0.000000 0.008000 0.550000
    endloop
  endfacet
  facet normal 0.086934 0.996214 0.000000
    outer loop
      vertex -0.000000 0.008000 0.550000
      vertex 0.002071 0.007727 0.500000
      vertex -0.000000 0.008000 0.500000
    endloop
  endfacet
  facet normal 0.173868 0.984769 0.000000
    outer loop
      vertex 0.002071 0.007727 0.500000
      vertex -0.000000 0.008000 0.550000
      vertex 0.002071 0.007727 0.550000
    endloop
  endfacet
  facet normal -0.422820 0.906214 0.000000
    outer loop
      vertex -0.004000 0.006928 0.550000
      vertex -0.002071 0.007727 0.500000
      vertex -0.004000 0.006928 0.500000
    endloop
  endfacet
  facet normal -0.341811 0.939769 0.000000
    outer loop
      vertex -0.002071 0.007727 0.500000
      vertex -0.004000 0.006928 0.550000
      vertex -0.002071 0.007727 0.550000
    endloop
  endfacet
  facet normal 0.000000 0.000000 1.000000
    outer loop
      vertex -0.014489 -0.003882 0.500000
      vertex -0.014489 0.003882 0.500000
      vertex -0.015000 0.000000 0.500000
    endloop
  endfacet
  facet normal 0.000000 0.000000 1.000000
    outer loop
      vertex -0.014489 0.003882 0.500000
      vertex -0.014489 -0.003882 0.500000
      vertex -0.012990 -0.007500 0.500000
    endloop
  endfacet
  facet normal 0.000000 0.000000 1.000000
    outer loop
      vertex -0.014489 0.003882 0.500000
      vertex -0.012990 -0.007500 0.500000
      vertex -0.012990 0.007500 0.500000
    endloop
  endfacet
  facet normal 0.000000 0.000000 1.000000
    outer loop
      vertex -0.012990 0.007500 0.500000
      vertex -0.012990 -0.007500 0.500000
      vertex -0.010607 -0.010607 0.500000
    endloop
  endfacet
  facet normal 0.000000 0.000000 1.000000
    outer loop
      vertex -0.012990 0.007500 0.500000
      vertex -0.010607 -0.010607 0.500000
      vertex -0.010607 0.010607 0.500000
    endloop
  endfacet
  facet normal 0.000000 0.000000 1.000000
    outer loop
      vertex -0.010607 0.010607 0.500000
      vertex -0.010607 -0.010607 0.500000
      vertex -0.007500 -0.012990 0.500000
    endloop
  endfacet
  facet normal 0.000000 0.000000 1.000000
    outer loop
      vertex -0.010607 0.010607 0.500000
      vertex -0.007500 -0.012990 0.500000
      vertex -0.008000 0.000000 0.500000
    endloop
  endfacet
  facet normal 0.000000 0.000000 1.000000
    outer loop
      vertex -0.008000 0.000000 0.500000
      vertex -0.007500 -0.012990 0.500000
      vertex -0.007727 -0.002071 0.500000
    endloop
  endfacet
  facet normal 0.000000 0.000000 1.000000
    outer loop
      vertex -0.007727 -0.002071 0.500000
      vertex -0.007500 -0.012990 0.500000
      vertex -0.006928 -0.004000 0.500000
    endloop
  endfacet
  facet normal 0.000000 0.000000 1.000000
    outer loop
      vertex -0.006928 -0.004000 0.500000
      vertex -0.007500 -0.012990 0.500000
      vertex -0.003882 -0.014489 0.500000
    endloop
  endfacet
  facet normal 0.000000 0.000000 1.000000
    outer loop
      vertex -0.006928 -0.004000 0.500000
      vertex -0.003882 -0.014489 0.500000
      vertex -0.005657 -0.005657 0.500000
    endloop
  endfacet
  facet normal 0.000000 0.000000 1.000000
    outer loop
      vertex -0.005657 -0.005657 0.500000
      vertex -0.003882 -0.014489 0.500000
      vertex -0.004000 -0.006928 0.500000
    endloop
  endfacet
  facet normal 0.000000 0.000000 1.000000
    outer loop
      vertex -0.004000 -0.006928 0.500000
      vertex -0.003882 -0.014489 0.500000
      vertex -0.002071 -0.007727 0.500000
    endloop
  endfacet
  facet normal 0.000000 0.000000 1.000000
    outer loop
      vertex -0.002071 -0.007727 0.500000
      vertex -0.003882 -0.014489 0.500000
      vertex -0.000000 -0.015000 0.500000
    endloop
  endfacet
  facet normal 0.000000 0.000000 1.000000
    outer loop
      vertex -0.002071 -0.007727 0.500000
      vertex -0.000000 -0.015000 0.500000
      vertex -0.000000 -0.008000 0.500000
    endloop
  endfacet
  facet normal 0.000000 0.000000 1.000000
    outer loop
      vertex -0.000000 -0.008000 0.500000
      vertex -0.000000 -0.015000 0.500000
      vertex 0.003882 -0.014489 0.500000
    endloop
  endfacet
  facet normal 0.000000 0.000000 1.000000
    outer loop
      vertex -0.000000 -0.008000 0.500000
      vertex 0.003882 -0.014489 0.500000
      vertex 0.002071 -0.007727 0.500000
    endloop
  endfacet
  facet normal 0.000000 0.000000 1.000000
    outer loop
      vertex 0.002071 -0.007727 0.500000
      vertex 0.003882 -0.014489 0.500000
      vertex 0.004000 -0.006928 0.500000
    endloop
  endfacet
  facet normal 0.000000 0.000000 1.000000
    outer loop
      vertex 0.004000 -0.006928 0.500000
      vertex 0.003882 -0.014489 0.500000
      vertex 0.007500 -0.012990 0.500000
    endloop
  endfacet
  facet normal 0.000000 0.000000 1.000000
    outer loop
      vertex 0.004000 -0.006928 0.500000
      vertex 0.007500 -0.012990 0.500000
      vertex 0.005657 -0.005657 0.500000
    endloop
  endfacet
  facet normal 0.000000 0.000000 1.000000
    outer loop
      vertex 0.005657 -0.005657 0.500000
      vertex 0.007500 -0.012990 0.500000
      vertex 0.006928 -0.004000 0.500000
    endloop
  endfacet
  facet normal 0.000000 0.000000 1.000000
    outer loop
      vertex 0.006928 -0.004000 0.500000
      vertex 0.007500 -0.012990 0.500000
      vertex 0.007727 -0.002071 0.500000
    endloop
  endfacet
  facet normal 0.000000 0.000000 1.000000
    outer loop
      vertex 0.007727 -0.002071 0.500000
      vertex 0.007500 -0.012990 0.500000
      vertex 0.010607 -0.010607 0.500000
    endloop
  endfacet
  facet normal 0.000000 0.000000 1.000000
    outer loop
      vertex 0.007727 -0.002071 0.500000
      vertex 0.010607 -0.010607 0.500000
      vertex 0.008000 0.000000 0.500000
    endloop
  endfacet
  facet normal 0.000000 0.000000 1.000000
    outer loop
      vertex -0.008000 0.000000 0.500000
      vertex -0.007500 0.012990 0.500000
      vertex -0.010607 0.010607 0.500000
    endloop
  endfacet
  facet normal 0.000000 0.000000 1.000000
    outer loop
      vertex -0.007500 0.012990 0.500000
      vertex -0.008000 0.000000 0.500000
      vertex -0.007727 0.002071 0.500000
    endloop
  endfacet
  facet normal 0.000000 0.000000 1.000000
    outer loop
      vertex -0.007500 0.012990 0.500000
      vertex -0.007727 0.002071 0.500000
      vertex -0.006928 0.004000 0.500000
    endloop
  endfacet
  facet normal 0.000000 0.000000 1.000000
    outer loop
      vertex -0.007500 0.012990 0.500000
      vertex -0.006928 0.004000 0.500000
      vertex -0.003882 0.014489 0.500000
    endloop
  endfacet
  facet normal 0.000000 0.000000 1.000000
    outer loop
      vertex -0.003882 0.014489 0.500000
      vertex -0.006928 0.004000 0.500000
      vertex -0.005657 0.005657 0.500000
    endloop
  endfacet
  facet normal 0.000000 0.000000 1.000000
    outer loop
      vertex -0.003882 0.014489 0.500000
      vertex -0.005657 0.005657 0.500000
      vertex -0.004000 0.006928 0.500000
    endloop
  endfacet
  facet normal 0.000000 0.000000 1.000000
    outer loop
      vertex -0.003882 0.014489 0.500000
      vertex -0.004000 0.006928 0.500000
      vertex -0.002071 0.007727 0.500000
    endloop
  endfacet
  facet normal 0.000000 0.000000 1.000000
    outer loop
      vertex -0.003882 0.014489 0.500000
      vertex -0.002071 0.007727 0.500000
      vertex -0.000000 0.015000 0.500000
    endloop
  endfacet
  facet normal 0.000000 0.000000 1.000000
    outer loop
      vertex -0.000000 0.015000 0.500000
      vertex -0.002071 0.007727 0.500000
      vertex -0.000000 0.008000 0.500000
    endloop
  endfacet
  facet normal 0.000000 0.000000 1.000000
    outer loop
      vertex -0.000000 0.015000 0.500000
      vertex -0.000000 0.008000 0.500000
      vertex 0.002071 0.007727 0.500000
    endloop
  endfacet
  facet normal 0.000000 0.000000 1.000000
    outer loop
      vertex -0.000000 0.015000 0.500000
      vertex 0.002071 0.007727 0.500000
      vertex 0.003882 0.014489 0.500000
    endloop
  endfacet
  facet normal 0.000000 0.000000 1.000000
    outer loop
      vertex 0.003882 0.014489 0.500000
      vertex 0.002071 0.007727 0.500000
      vertex 0.004000 0.006928 0.500000
    endloop
  endfacet
  facet normal 0.000000 0.000000 1.000000
    outer loop
      vertex 0.003882 0.014489 0.500000
      vertex 0.004000 0.006928 0.500000
      vertex 0.007500 0.012990 0.500000
    endloop
  endfacet
  facet normal 0.000000 0.000000 1.000000
    outer loop
      vertex 0.007500 0.012990 0.500000
      vertex 0.004000 0.006928 0.500000
      vertex 0.005657 0.005657 0.500000
    endloop
  endfacet
  facet normal 0.000000 0.000000 1.000000
    outer loop
      vertex 0.007500 0.012990 0.500000
      vertex 0.005657 0.005657 0.500000
      vertex 0.006928 0.004000 0.500000
    endloop
  endfacet
  facet normal 0.000000 0.000000 1.000000
    outer loop
      vertex 0.007500 0.012990 0.500000
      vertex 0.006928 0.004000 0.500000
      vertex 0.007727 0.002071 0.500000
    endloop
  endfacet
  facet normal 0.000000 0.000000 1.000000
    outer loop
      vertex 0.007500 0.012990 0.500000
      vertex 0.007727 0.002071 0.500000
      vertex 0.010607 0.010607 0.500000
    endloop
  endfacet
  facet normal 0.000000 0.000000 1.000000
    outer loop
      vertex 0.010607 0.010607 0.500000
      vertex 0.007727 0.002071 0.500000
      vertex 0.008000 0.000000 0.500000
    endloop
  endfacet
  facet normal 0.000000 0.000000 1.000000
    outer loop
      vertex 0.010607 0.010607 0.500000
      vertex 0.008000 0.000000 0.500000
      vertex 0.010607 -0.010607 0.500000
    endloop
  endfacet
  facet normal 0.000000 0.000000 1.000000
    outer loop
      vertex 0.010607 0.010607 0.500000
      vertex 0.010607 -0.010607 0.500000
      vertex 0.012990 -0.007500 0.500000
    endloop
  endfacet
  facet normal 0.000000 0.000000 1.000000
    outer loop
      vertex 0.010607 0.010607 0.500000
      vertex 0.012990 -0.007500 0.500000
      vertex 0.012990 0.007500 0.500000
    endloop
  endfacet
  facet normal 0.000000 0.000000 1.000000
    outer loop
      vertex 0.012990 0.007500 0.500000
      vertex 0.012990 -0.007500 0.500000
      vertex 0.014489 -0.003882 0.500000
    endloop
  endfacet
  facet normal 0.000000 0.000000 1.000000
    outer loop
      vertex 0.012990 0.007500 0.500000
      vertex 0.014489 -0.003882 0.500000
      vertex 0.014489 0.003882 0.500000
    endloop
  endfacet
  facet normal 0.000000 0.000000 1.000000
    outer loop
      vertex 0.014489 0.003882 0.500000
      vertex 0.014489 -0.003882 0.500000
      vertex 0.015000 0.000000 0.500000
    endloop
  endfacet
  facet normal 0.341811 0.939769 0.000000
    outer loop
      vertex 0.002071 0.007727 0.550000
      vertex 0.004000 0.006928 0.500000
      vertex 0.002071 0.007727 0.500000
    endloop
  endfacet
  facet normal 0.422820 0.906214 0.000000
    outer loop
      vertex 0.004000 0.006928 0.500000
      vertex 0.002071 0.007727 0.550000
      vertex 0.004000 0.006928 0.550000
    endloop
  endfacet
  facet normal 0.573394 0.819280 0.000000
    outer loop
      vertex 0.004000 0.006928 0.550000
      vertex 0.005657 0.005657 0.500000
      vertex 0.004000 0.006928 0.500000
    endloop
  endfacet
  facet normal 0.642958 0.765901 0.000000
    outer loop
      vertex 0.005657 0.005657 0.500000
      vertex 0.004000 0.006928 0.550000
      vertex 0.005657 0.005657 0.550000
    endloop
  endfacet
  facet normal 0.819280 0.573394 0.000000
    outer loop
      vertex 0.005657 0.005657 0.500000
      vertex 0.006928 0.004000 0.550000
      vertex 0.006928 0.004000 0.500000
    endloop
  endfacet
  facet normal 0.765901 0.642958 0.000000
    outer loop
      vertex 0.006928 0.004000 0.550000
      vertex 0.005657 0.005657 0.500000
      vertex 0.005657 0.005657 0.550000
    endloop
  endfacet
  facet normal 0.939769 0.341811 -0.000000
    outer loop
      vertex 0.006928 0.004000 0.500000
      vertex 0.007727 0.002071 0.550000
      vertex 0.007727 0.002071 0.500000
    endloop
  endfacet
  facet normal 0.906214 0.422820 -0.000000
    outer loop
      vertex 0.007727 0.002071 0.550000
      vertex 0.006928 0.004000 0.500000
      vertex 0.006928 0.004000 0.550000
    endloop
  endfacet
  facet normal 0.996214 0.086934 -0.000000
    outer loop
      vertex 0.007727 0.002071 0.500000
      vertex 0.008000 0.000000 0.550000
      vertex 0.008000 0.000000 0.500000
    endloop
  endfacet
  facet normal 0.984769 0.173868 -0.000000
    outer loop
      vertex 0.008000 0.000000 0.550000
      vertex 0.007727 0.002071 0.500000
      vertex 0.007727 0.002071 0.550000
    endloop
  endfacet
  facet normal 0.984769 -0.173868 -0.000000
    outer loop
      vertex 0.008000 0.000000 0.500000
      vertex 0.007727 -0.002071 0.550000
      vertex 0.007727 -0.002071 0.500000
    endloop
  endfacet
  facet normal 0.996214 -0.086934 -0.000000
    outer loop
      vertex 0.007727 -0.002071 0.550000
      vertex 0.008000 0.000000 0.500000
      vertex 0.008000 0.000000 0.550000
    endloop
  endfacet
  facet normal 0.906214 -0.422820 -0.000000
    outer loop
      vertex 0.007727 -0.002071 0.500000
      vertex 0.006928 -0.004000 0.550000
      vertex 0.006928 -0.004000 0.500000
    endloop
  endfacet
  facet normal 0.939769 -0.341811 -0.000000
    outer loop
      vertex 0.006928 -0.004000 0.550000
      vertex 0.007727 -0.002071 0.500000
      vertex 0.007727 -0.002071 0.550000
    endloop
  endfacet
  facet normal 0.765901 -0.642958 -0.000000
    outer loop
      vertex 0.006928 -0.004000 0.500000
      vertex 0.005657 -0.005657 0.550000
      vertex 0.005657 -0.005657 0.500000
    endloop
  endfacet
  facet normal 0.819280 -0.573394 -0.000000
    outer loop
      vertex 0.005657 -0.005657 0.550000
      vertex 0.006928 -0.004000 0.500000
      vertex 0.006928 -0.004000 0.550000
    endloop
  endfacet
  facet normal 0.642958 -0.765901 -0.000000
    outer loop
      vertex 0.005657 -0.005657 0.550000
      vertex 0.004000 -0.006928 0.500000
      vertex 0.005657 -0.005657 0.500000
    endloop
  endfacet
  facet normal 0.573394 -0.819280 -0.000000
    outer loop
      vertex 0.004000 -0.006928 0.500000
      vertex 0.005657 -0.005657 0.550000
      vertex 0.004000 -0.006928 0.550000
    endloop
  endfacet
  facet normal 0.422820 -0.906214 0.000000
    outer loop
      vertex 0.004000 -0.006928 0.550000
      vertex 0.002071 -0.007727 0.500000
      vertex 0.004000 -0.006928 0.500000
    endloop
  endfacet
  facet normal 0.341811 -0.939769 0.000000
    outer loop
      vertex 0.002071 -0.007727 0.500000
      vertex 0.004000 -0.006928 0.550000
      vertex 0.002071 -0.007727 0.550000
    endloop
  endfacet
  facet normal 0.173868 -0.984769 0.000000
    outer loop
      vertex 0.002071 -0.007727 0.550000
      vertex -0.000000 -0.008000 0.500000
      vertex 0.002071 -0.007727 0.500000
    endloop
  endfacet
  facet normal 0.086934 -0.996214 0.000000
    outer loop
      vertex -0.000000 -0.008000 0.500000
      vertex 0.002071 -0.007727 0.550000
      vertex -0.000000 -0.008000 0.550000
    endloop
  endfacet
  facet normal -0.086934 -0.996214 0.000000
    outer loop
      vertex -0.000000 -0.008000 0.550000
      vertex -0.002071 -0.007727 0.500000
      vertex -0.000000 -0.008000 0.500000
    endloop
  endfacet
  facet normal -0.173868 -0.984769 0.000000
    outer loop
      vertex -0.002071 -0.007727 0.500000
      vertex -0.000000 -0.008000 0.550000
      vertex -0.002071 -0.007727 0.550000
    endloop
  endfacet
  facet normal -0.341811 -0.939769 0.000000
    outer loop
      vertex -0.002071 -0.007727 0.550000
      vertex -0.004000 -0.006928 0.500000
      vertex -0.002071 -0.007727 0.500000
    endloop
  endfacet
  facet normal -0.422820 -0.906214 0.000000
    outer loop
      vertex -0.004000 -0.006928 0.500000
      vertex -0.002071 -0.007727 0.550000
      vertex -0.004000 -0.006928 0.550000
    endloop
  endfacet
  facet normal -0.573394 -0.819280 0.000000
    outer loop
      vertex -0.004000 -0.006928 0.550000
      vertex -0.005657 -0.005657 0.500000
      vertex -0.004000 -0.006928 0.500000
    endloop
  endfacet
  facet normal -0.642958 -0.765901 0.000000
    outer loop
      vertex -0.005657 -0.005657 0.500000
      vertex -0.004000 -0.006928 0.550000
      vertex -0.005657 -0.005657 0.550000
    endloop
  endfacet
  facet normal -0.765901 -0.642958 0.000000
    outer loop
      vertex -0.006928 -0.004000 0.550000
      vertex -0.005657 -0.005657 0.500000
      vertex -0.005657 -0.005657 0.550000
    endloop
  endfacet
  facet normal -0.819280 -0.573394 0.000000
    outer loop
      vertex -0.005657 -0.005657 0.500000
      vertex -0.006928 -0.004000 0.550000
      vertex -0.006928 -0.004000 0.500000
    endloop
  endfacet
  facet normal -0.906214 -0.422820 0.000000
    outer loop
      vertex -0.007727 -0.002071 0.550000
      vertex -0.006928 -0.004000 0.500000
      vertex -0.006928 -0.004000 0.550000
    endloop
  endfacet
  facet normal -0.939769 -0.341811 0.000000
    outer loop
      vertex -0.006928 -0.004000 0.500000
      vertex -0.007727 -0.002071 0.550000
      vertex -0.007727 -0.002071 0.500000
    endloop
  endfacet
  facet normal -0.984769 -0.173868 0.000000
    outer loop
      vertex -0.008000 0.000000 0.550000
      vertex -0.007727 -0.002071 0.500000
      vertex -0.007727 -0.002071 0.550000
    endloop
  endfacet
  facet normal -0.996214 -0.086934 0.000000
    outer loop
      vertex -0.007727 -0.002071 0.500000
      vertex -0.008000 0.000000 0.550000
      vertex -0.008000 0.000000 0.500000
    endloop
  endfacet
  facet normal -0.996214 0.086934 0.000000
    outer loop
      vertex -0.007727 0.002071 0.550000
      vertex -0.008000 0.000000 0.500000
      vertex -0.008000 0.000000 0.550000
    endloop
  endfacet
  facet normal -0.984769 0.173868 0.000000
    outer loop
      vertex -0.008000 0.000000 0.500000
      vertex -0.007727 0.002071 0.550000
      vertex -0.007727 0.002071 0.500000
    endloop
  endfacet
  facet normal -0.939769 0.341811 0.000000
    outer loop
      vertex -0.006928 0.004000 0.550000
      vertex -0.007727 0.002071 0.500000
      vertex -0.007727 0.002071 0.550000
    endloop
  endfacet
  facet normal -0.906214 0.422820 0.000000
    outer loop
      vertex -0.007727 0.002071 0.500000
      vertex -0.006928 0.004000 0.550000
      vertex -0.006928 0.004000 0.500000
    endloop
  endfacet
  facet normal -0.819280 0.573394 0.000000
    outer loop
      vertex -0.005657 0.005657 0.550000
      vertex -0.006928 0.004000 0.500000
      vertex -0.006928 0.004000 0.550000
    endloop
  endfacet
  facet normal -0.765901 0.642958 0.000000
    outer loop
      vertex -0.006928 0.004000 0.500000
      vertex -0.005657 0.005657 0.550000
      vertex -0.005657 0.005657 0.500000
    endloop
  endfacet
  facet normal -0.642958 0.765901 0.000000
    outer loop
      vertex -0.005657 0.005657 0.550000
      vertex -0.004000 0.006928 0.500000
      vertex -0.005657 0.005657 0.500000
    endloop
  endfacet
  facet normal -0.573394 0.819280 0.000000
    outer loop
      vertex -0.004000 0.006928 0.500000
      vertex -0.005657 0.005657 0.550000
      vertex -0.004000 0.006928 0.550000
    endloop
  endfacet
  facet normal 0.173868 -0.984769 0.000000
    outer loop
      vertex 0.003882 -0.014489 0.500000
      vertex -0.000000 -0.015000 0.490000
      vertex 0.003882 -0.014489 0.490000
    endloop
  endfacet
  facet normal 0.086934 -0.996214 0.000000
    outer loop
      vertex -0.000000 -0.015000 0.490000
      vertex 0.003882 -0.014489 0.500000
      vertex -0.000000 -0.015000 0.500000
    endloop
  endfacet
  facet normal 0.422820 -0.906214 0.000000
    outer loop
      vertex 0.007500 -0.012990 0.500000
      vertex 0.003882 -0.014489 0.490000
      vertex 0.007500 -0.012990 0.490000
    endloop
  endfacet
  facet normal 0.341811 -0.939769 0.000000
    outer loop
      vertex 0.003882 -0.014489 0.490000
      vertex 0.007500 -0.012990 0.500000
      vertex 0.003882 -0.014489 0.500000
    endloop
  endfacet
  facet normal -0.086934 -0.996214 0.000000
    outer loop
      vertex -0.000000 -0.015000 0.500000
      vertex -0.003882 -0.014489 0.490000
      vertex -0.000000 -0.015000 0.490000
    endloop
  endfacet
  facet normal -0.173868 -0.984769 0.000000
    outer loop
      vertex -0.003882 -0.014489 0.490000
      vertex -0.000000 -0.015000 0.500000
      vertex -0.003882 -0.014489 0.500000
    endloop
  endfacet
endsolid
