solid ascii
  facet normal 1.000000e+000 0.000000e+000 0.000000e+000
    outer loop
      vertex   8.000000e-002 -3.650000e-002 1.511880e-002
      vertex   8.000000e-002 3.650000e-002 -1.511880e-002
      vertex   8.000000e-002 -1.511880e-002 3.650000e-002
    endloop
  endfacet
  facet normal 1.000000e+000 0.000000e+000 0.000000e+000
    outer loop
      vertex   8.000000e-002 -3.650000e-002 1.511880e-002
      vertex   8.000000e-002 1.511880e-002 -3.650000e-002
      vertex   8.000000e-002 3.650000e-002 -1.511880e-002
    endloop
  endfacet
  facet normal 1.000000e+000 0.000000e+000 0.000000e+000
    outer loop
      vertex   8.000000e-002 -3.650000e-002 1.511880e-002
      vertex   8.000000e-002 -1.511880e-002 -3.650000e-002
      vertex   8.000000e-002 1.511880e-002 -3.650000e-002
    endloop
  endfacet
  facet normal 1.000000e+000 0.000000e+000 0.000000e+000
    outer loop
      vertex   8.000000e-002 -3.650000e-002 1.511880e-002
      vertex   8.000000e-002 -3.650000e-002 -1.511880e-002
      vertex   8.000000e-002 -1.511880e-002 -3.650000e-002
    endloop
  endfacet
  facet normal 1.000000e+000 0.000000e+000 0.000000e+000
    outer loop
      vertex   8.000000e-002 3.650000e-002 -1.511880e-002
      vertex   8.000000e-002 3.650000e-002 1.511880e-002
      vertex   8.000000e-002 -1.511880e-002 3.650000e-002
    endloop
  endfacet
  facet normal 1.000000e+000 0.000000e+000 0.000000e+000
    outer loop
      vertex   8.000000e-002 -1.511880e-002 3.650000e-002
      vertex   8.000000e-002 3.650000e-002 1.511880e-002
      vertex   8.000000e-002 1.511880e-002 3.650000e-002
    endloop
  endfacet
  facet normal 2.623951e-016 0.000000e+000 -1.000000e+000
    outer loop
      vertex   -1.580000e-001 -1.511880e-002 -3.650000e-002
      vertex   -1.580000e-001 1.511880e-002 -3.650000e-002
      vertex   8.000000e-002 -1.511880e-002 -3.650000e-002
    endloop
  endfacet
  facet normal 2.623951e-016 0.000000e+000 -1.000000e+000
    outer loop
      vertex   8.000000e-002 -1.511880e-002 -3.650000e-002
      vertex   -1.580000e-001 1.511880e-002 -3.650000e-002
      vertex   8.000000e-002 1.511880e-002 -3.650000e-002
    endloop
  endfacet
  facet normal 1.732543e-016 -7.071068e-001 -7.071068e-001
    outer loop
      vertex   -1.580000e-001 -3.650000e-002 -1.511880e-002
      vertex   -1.580000e-001 -1.511880e-002 -3.650000e-002
      vertex   8.000000e-002 -3.650000e-002 -1.511880e-002
    endloop
  endfacet
  facet normal 1.803875e-016 -7.071068e-001 -7.071068e-001
    outer loop
      vertex   8.000000e-002 -3.650000e-002 -1.511880e-002
      vertex   -1.580000e-001 -1.511880e-002 -3.650000e-002
      vertex   8.000000e-002 -1.511880e-002 -3.650000e-002
    endloop
  endfacet
  facet normal -2.623951e-016 0.000000e+000 1.000000e+000
    outer loop
      vertex   -1.580000e-001 1.511880e-002 3.650000e-002
      vertex   -1.580000e-001 -1.511880e-002 3.650000e-002
      vertex   8.000000e-002 1.511880e-002 3.650000e-002
    endloop
  endfacet
  facet normal -2.623951e-016 0.000000e+000 1.000000e+000
    outer loop
      vertex   8.000000e-002 1.511880e-002 3.650000e-002
      vertex   -1.580000e-001 -1.511880e-002 3.650000e-002
      vertex   8.000000e-002 -1.511880e-002 3.650000e-002
    endloop
  endfacet
  facet normal -1.807871e-016 7.071068e-001 7.071068e-001
    outer loop
      vertex   -1.580000e-001 3.650000e-002 1.511880e-002
      vertex   -1.580000e-001 1.511880e-002 3.650000e-002
      vertex   8.000000e-002 3.650000e-002 1.511880e-002
    endloop
  endfacet
  facet normal -1.803875e-016 7.071068e-001 7.071068e-001
    outer loop
      vertex   8.000000e-002 3.650000e-002 1.511880e-002
      vertex   -1.580000e-001 1.511880e-002 3.650000e-002
      vertex   8.000000e-002 1.511880e-002 3.650000e-002
    endloop
  endfacet
  facet normal 0.000000e+000 1.000000e+000 0.000000e+000
    outer loop
      vertex   -1.580000e-001 3.650000e-002 -1.511880e-002
      vertex   -1.580000e-001 3.650000e-002 1.511880e-002
      vertex   8.000000e-002 3.650000e-002 -1.511880e-002
    endloop
  endfacet
  facet normal 2.915502e-017 1.000000e+000 2.294791e-016
    outer loop
      vertex   8.000000e-002 3.650000e-002 -1.511880e-002
      vertex   -1.580000e-001 3.650000e-002 1.511880e-002
      vertex   8.000000e-002 3.650000e-002 1.511880e-002
    endloop
  endfacet
  facet normal 1.807871e-016 7.071068e-001 -7.071068e-001
    outer loop
      vertex   -1.580000e-001 1.511880e-002 -3.650000e-002
      vertex   -1.580000e-001 3.650000e-002 -1.511880e-002
      vertex   8.000000e-002 1.511880e-002 -3.650000e-002
    endloop
  endfacet
  facet normal 1.906953e-016 7.071068e-001 -7.071068e-001
    outer loop
      vertex   8.000000e-002 1.511880e-002 -3.650000e-002
      vertex   -1.580000e-001 3.650000e-002 -1.511880e-002
      vertex   8.000000e-002 3.650000e-002 -1.511880e-002
    endloop
  endfacet
  facet normal 1.271189e-031 -1.000000e+000 -4.589581e-016
    outer loop
      vertex   -1.580000e-001 -3.650000e-002 1.511880e-002
      vertex   -1.580000e-001 -3.650000e-002 -1.511880e-002
      vertex   8.000000e-002 -3.650000e-002 1.511880e-002
    endloop
  endfacet
  facet normal -2.915502e-017 -1.000000e+000 -2.294791e-016
    outer loop
      vertex   8.000000e-002 -3.650000e-002 1.511880e-002
      vertex   -1.580000e-001 -3.650000e-002 -1.511880e-002
      vertex   8.000000e-002 -3.650000e-002 -1.511880e-002
    endloop
  endfacet
  facet normal -1.958527e-016 -7.071068e-001 7.071068e-001
    outer loop
      vertex   -1.580000e-001 -1.511880e-002 3.650000e-002
      vertex   -1.580000e-001 -3.650000e-002 1.511880e-002
      vertex   8.000000e-002 -1.511880e-002 3.650000e-002
    endloop
  endfacet
  facet normal -1.906953e-016 -7.071068e-001 7.071068e-001
    outer loop
      vertex   8.000000e-002 -1.511880e-002 3.650000e-002
      vertex   -1.580000e-001 -3.650000e-002 1.511880e-002
      vertex   8.000000e-002 -3.650000e-002 1.511880e-002
    endloop
  endfacet
  facet normal -1.000000e+000 0.000000e+000 0.000000e+000
    outer loop
      vertex   -1.580000e-001 -3.650000e-002 -1.511880e-002
      vertex   -1.580000e-001 -3.650000e-002 1.511880e-002
      vertex   -1.580000e-001 1.511880e-002 -3.650000e-002
    endloop
  endfacet
  facet normal -1.000000e+000 0.000000e+000 0.000000e+000
    outer loop
      vertex   -1.580000e-001 -1.511880e-002 -3.650000e-002
      vertex   -1.580000e-001 -3.650000e-002 -1.511880e-002
      vertex   -1.580000e-001 1.511880e-002 -3.650000e-002
    endloop
  endfacet
  facet normal -1.000000e+000 0.000000e+000 0.000000e+000
    outer loop
      vertex   -1.580000e-001 1.511880e-002 3.650000e-002
      vertex   -1.580000e-001 3.650000e-002 1.511880e-002
      vertex   -1.580000e-001 -1.511880e-002 3.650000e-002
    endloop
  endfacet
  facet normal -1.000000e+000 0.000000e+000 0.000000e+000
    outer loop
      vertex   -1.580000e-001 -1.511880e-002 3.650000e-002
      vertex   -1.580000e-001 3.650000e-002 1.511880e-002
      vertex   -1.580000e-001 3.650000e-002 -1.511880e-002
    endloop
  endfacet
  facet normal -1.000000e+000 0.000000e+000 0.000000e+000
    outer loop
      vertex   -1.580000e-001 1.511880e-002 -3.650000e-002
      vertex   -1.580000e-001 -1.511880e-002 3.650000e-002
      vertex   -1.580000e-001 3.650000e-002 -1.511880e-002
    endloop
  endfacet
  facet normal -1.000000e+000 0.000000e+000 0.000000e+000
    outer loop
      vertex   -1.580000e-001 1.511880e-002 -3.650000e-002
      vertex   -1.580000e-001 -3.650000e-002 1.511880e-002
      vertex   -1.580000e-001 -1.511880e-002 3.650000e-002
    endloop
  endfacet
endsolid
