solid ascii
  facet normal -1.000000e+000 -1.110223e-016 -2.748077e-016
    outer loop
      vertex   -4.250000e-002 -6.250000e-002 2.525000e-001
      vertex   -4.250000e-002 6.250000e-002 2.525000e-001
      vertex   -4.250000e-002 -6.250000e-002 8.138580e-016
    endloop
  endfacet
  facet normal -1.000000e+000 -1.110223e-016 -2.748077e-016
    outer loop
      vertex   -4.250000e-002 -6.250000e-002 8.138580e-016
      vertex   -4.250000e-002 6.250000e-002 2.525000e-001
      vertex   -4.250000e-002 6.250000e-002 9.382973e-016
    endloop
  endfacet
  facet normal -1.982541e-016 1.000000e+000 9.119689e-016
    outer loop
      vertex   1.750000e-002 6.250000e-002 2.775000e-001
      vertex   4.250000e-002 6.250000e-002 2.525000e-001
      vertex   -1.750000e-002 6.250000e-002 2.775000e-001
    endloop
  endfacet
  facet normal -1.632681e-016 1.000000e+000 9.959354e-016
    outer loop
      vertex   -1.750000e-002 6.250000e-002 2.775000e-001
      vertex   4.250000e-002 6.250000e-002 2.525000e-001
      vertex   -4.250000e-002 6.250000e-002 2.525000e-001
    endloop
  endfacet
  facet normal -1.632681e-016 1.000000e+000 9.068653e-016
    outer loop
      vertex   -4.250000e-002 6.250000e-002 2.525000e-001
      vertex   4.250000e-002 6.250000e-002 2.525000e-001
      vertex   -4.250000e-002 6.250000e-002 9.382973e-016
    endloop
  endfacet
  facet normal -1.632681e-016 1.000000e+000 9.068653e-016
    outer loop
      vertex   -4.250000e-002 6.250000e-002 9.382973e-016
      vertex   4.250000e-002 6.250000e-002 2.525000e-001
      vertex   4.250000e-002 6.250000e-002 9.624989e-016
    endloop
  endfacet
  facet normal 1.632681e-016 -1.000000e+000 -9.343461e-016
    outer loop
      vertex   4.250000e-002 -6.250000e-002 8.380596e-016
      vertex   4.250000e-002 -6.250000e-002 2.525000e-001
      vertex   -4.250000e-002 -6.250000e-002 8.138580e-016
    endloop
  endfacet
  facet normal 1.632681e-016 -1.000000e+000 -9.343461e-016
    outer loop
      vertex   -4.250000e-002 -6.250000e-002 8.138580e-016
      vertex   4.250000e-002 -6.250000e-002 2.525000e-001
      vertex   -4.250000e-002 -6.250000e-002 2.525000e-001
    endloop
  endfacet
  facet normal 1.632681e-016 -1.000000e+000 -7.183796e-016
    outer loop
      vertex   -4.250000e-002 -6.250000e-002 2.525000e-001
      vertex   4.250000e-002 -6.250000e-002 2.525000e-001
      vertex   -1.750000e-002 -6.250000e-002 2.775000e-001
    endloop
  endfacet
  facet normal 3.965082e-016 -1.000000e+000 -1.586033e-016
    outer loop
      vertex   -1.750000e-002 -6.250000e-002 2.775000e-001
      vertex   4.250000e-002 -6.250000e-002 2.525000e-001
      vertex   1.750000e-002 -6.250000e-002 2.775000e-001
    endloop
  endfacet
  facet normal 2.847250e-016 9.955144e-016 -1.000000e+000
    outer loop
      vertex   4.250000e-002 -6.250000e-002 8.380596e-016
      vertex   -4.250000e-002 -6.250000e-002 8.138580e-016
      vertex   4.250000e-002 6.250000e-002 9.624989e-016
    endloop
  endfacet
  facet normal 2.847250e-016 9.955144e-016 -1.000000e+000
    outer loop
      vertex   4.250000e-002 6.250000e-002 9.624989e-016
      vertex   -4.250000e-002 -6.250000e-002 8.138580e-016
      vertex   -4.250000e-002 6.250000e-002 9.382973e-016
    endloop
  endfacet
  facet normal -7.071068e-001 -7.114481e-016 7.071068e-001
    outer loop
      vertex   -1.750000e-002 6.250000e-002 2.775000e-001
      vertex   -4.250000e-002 6.250000e-002 2.525000e-001
      vertex   -1.750000e-002 -6.250000e-002 2.775000e-001
    endloop
  endfacet
  facet normal -7.071068e-001 -7.065416e-016 7.071068e-001
    outer loop
      vertex   -1.750000e-002 -6.250000e-002 2.775000e-001
      vertex   -4.250000e-002 6.250000e-002 2.525000e-001
      vertex   -4.250000e-002 -6.250000e-002 2.525000e-001
    endloop
  endfacet
  facet normal 7.071068e-001 -5.102800e-016 7.071068e-001
    outer loop
      vertex   4.250000e-002 -6.250000e-002 2.525000e-001
      vertex   4.250000e-002 6.250000e-002 2.525000e-001
      vertex   1.750000e-002 -6.250000e-002 2.775000e-001
    endloop
  endfacet
  facet normal 7.071068e-001 -4.906539e-016 7.071068e-001
    outer loop
      vertex   1.750000e-002 -6.250000e-002 2.775000e-001
      vertex   4.250000e-002 6.250000e-002 2.525000e-001
      vertex   1.750000e-002 6.250000e-002 2.775000e-001
    endloop
  endfacet
  facet normal 7.043401e-031 -8.881784e-016 1.000000e+000
    outer loop
      vertex   1.750000e-002 -6.250000e-002 2.775000e-001
      vertex   1.750000e-002 6.250000e-002 2.775000e-001
      vertex   -1.750000e-002 -6.250000e-002 2.775000e-001
    endloop
  endfacet
  facet normal 1.760850e-031 -8.881784e-016 1.000000e+000
    outer loop
      vertex   -1.750000e-002 -6.250000e-002 2.775000e-001
      vertex   1.750000e-002 6.250000e-002 2.775000e-001
      vertex   -1.750000e-002 6.250000e-002 2.775000e-001
    endloop
  endfacet
  facet normal 1.000000e+000 1.665335e-016 2.748077e-016
    outer loop
      vertex   4.250000e-002 6.250000e-002 2.525000e-001
      vertex   4.250000e-002 -6.250000e-002 2.525000e-001
      vertex   4.250000e-002 6.250000e-002 9.624989e-016
    endloop
  endfacet
  facet normal 1.000000e+000 2.220446e-016 3.022884e-016
    outer loop
      vertex   4.250000e-002 6.250000e-002 9.624989e-016
      vertex   4.250000e-002 -6.250000e-002 2.525000e-001
      vertex   4.250000e-002 -6.250000e-002 8.380596e-016
    endloop
  endfacet
endsolid
