solid ascii
  facet normal -9.651301e-002 -9.953317e-001 0.000000e+000
    outer loop
      vertex   -4.166968e-002 -1.073296e-001 1.985000e-001
      vertex   7.207718e-002 -1.183591e-001 1.985000e-001
      vertex   -4.166968e-002 -1.073296e-001 3.850000e-001
    endloop
  endfacet
  facet normal -9.651301e-002 -9.953317e-001 0.000000e+000
    outer loop
      vertex   -4.166968e-002 -1.073296e-001 3.850000e-001
      vertex   7.207718e-002 -1.183591e-001 1.985000e-001
      vertex   7.207718e-002 -1.183591e-001 3.850000e-001
    endloop
  endfacet
  facet normal -6.210675e-001 -7.837571e-001 0.000000e+000
    outer loop
      vertex   -9.496517e-002 -6.509698e-002 1.985000e-001
      vertex   -4.166968e-002 -1.073296e-001 1.985000e-001
      vertex   -9.496517e-002 -6.509698e-002 3.850000e-001
    endloop
  endfacet
  facet normal -6.210675e-001 -7.837571e-001 0.000000e+000
    outer loop
      vertex   -9.496517e-002 -6.509698e-002 3.850000e-001
      vertex   -4.166968e-002 -1.073296e-001 1.985000e-001
      vertex   -4.166968e-002 -1.073296e-001 3.850000e-001
    endloop
  endfacet
  facet normal 7.837571e-001 -6.210675e-001 0.000000e+000
    outer loop
      vertex   7.207718e-002 -1.183591e-001 1.985000e-001
      vertex   1.316997e-001 -4.311844e-002 1.985000e-001
      vertex   7.207718e-002 -1.183591e-001 3.850000e-001
    endloop
  endfacet
  facet normal 7.837571e-001 -6.210675e-001 0.000000e+000
    outer loop
      vertex   7.207718e-002 -1.183591e-001 3.850000e-001
      vertex   1.316997e-001 -4.311844e-002 1.985000e-001
      vertex   1.316997e-001 -4.311844e-002 3.850000e-001
    endloop
  endfacet
  facet normal 0.000000e+000 0.000000e+000 -1.000000e+000
    outer loop
      vertex   -1.316997e-001 4.311844e-002 1.985000e-001
      vertex   -7.207718e-002 1.183591e-001 1.985000e-001
      vertex   -9.496517e-002 -6.509698e-002 1.985000e-001
    endloop
  endfacet
  facet normal 0.000000e+000 0.000000e+000 -1.000000e+000
    outer loop
      vertex   -9.496517e-002 -6.509698e-002 1.985000e-001
      vertex   -7.207718e-002 1.183591e-001 1.985000e-001
      vertex   4.166968e-002 1.073296e-001 1.985000e-001
    endloop
  endfacet
  facet normal 0.000000e+000 0.000000e+000 -1.000000e+000
    outer loop
      vertex   -4.166968e-002 -1.073296e-001 1.985000e-001
      vertex   4.166968e-002 1.073296e-001 1.985000e-001
      vertex   9.496517e-002 6.509698e-002 1.985000e-001
    endloop
  endfacet
  facet normal 0.000000e+000 0.000000e+000 -1.000000e+000
    outer loop
      vertex   1.316997e-001 -4.311844e-002 1.985000e-001
      vertex   -4.166968e-002 -1.073296e-001 1.985000e-001
      vertex   9.496517e-002 6.509698e-002 1.985000e-001
    endloop
  endfacet
  facet normal 0.000000e+000 0.000000e+000 -1.000000e+000
    outer loop
      vertex   1.316997e-001 -4.311844e-002 1.985000e-001
      vertex   7.207718e-002 -1.183591e-001 1.985000e-001
      vertex   -4.166968e-002 -1.073296e-001 1.985000e-001
    endloop
  endfacet
  facet normal 0.000000e+000 0.000000e+000 -1.000000e+000
    outer loop
      vertex   -9.496517e-002 -6.509698e-002 1.985000e-001
      vertex   4.166968e-002 1.073296e-001 1.985000e-001
      vertex   -4.166968e-002 -1.073296e-001 1.985000e-001
    endloop
  endfacet
  facet normal 0.000000e+000 0.000000e+000 1.000000e+000
    outer loop
      vertex   -7.207718e-002 1.183591e-001 3.850000e-001
      vertex   -1.316997e-001 4.311844e-002 3.850000e-001
      vertex   4.166968e-002 1.073296e-001 3.850000e-001
    endloop
  endfacet
  facet normal 0.000000e+000 0.000000e+000 1.000000e+000
    outer loop
      vertex   4.166968e-002 1.073296e-001 3.850000e-001
      vertex   -1.316997e-001 4.311844e-002 3.850000e-001
      vertex   -9.496517e-002 -6.509698e-002 3.850000e-001
    endloop
  endfacet
  facet normal 0.000000e+000 0.000000e+000 1.000000e+000
    outer loop
      vertex   9.496517e-002 6.509698e-002 3.850000e-001
      vertex   -9.496517e-002 -6.509698e-002 3.850000e-001
      vertex   -4.166968e-002 -1.073296e-001 3.850000e-001
    endloop
  endfacet
  facet normal 0.000000e+000 0.000000e+000 1.000000e+000
    outer loop
      vertex   1.316997e-001 -4.311844e-002 3.850000e-001
      vertex   -4.166968e-002 -1.073296e-001 3.850000e-001
      vertex   7.207718e-002 -1.183591e-001 3.850000e-001
    endloop
  endfacet
  facet normal 0.000000e+000 0.000000e+000 1.000000e+000
    outer loop
      vertex   1.316997e-001 -4.311844e-002 3.850000e-001
      vertex   9.496517e-002 6.509698e-002 3.850000e-001
      vertex   -4.166968e-002 -1.073296e-001 3.850000e-001
    endloop
  endfacet
  facet normal 0.000000e+000 0.000000e+000 1.000000e+000
    outer loop
      vertex   4.166968e-002 1.073296e-001 3.850000e-001
      vertex   -9.496517e-002 -6.509698e-002 3.850000e-001
      vertex   9.496517e-002 6.509698e-002 3.850000e-001
    endloop
  endfacet
  facet normal -9.469293e-001 -3.214419e-001 0.000000e+000
    outer loop
      vertex   -1.316997e-001 4.311844e-002 1.985000e-001
      vertex   -9.496517e-002 -6.509698e-002 1.985000e-001
      vertex   -1.316997e-001 4.311844e-002 3.850000e-001
    endloop
  endfacet
  facet normal -9.469293e-001 -3.214419e-001 0.000000e+000
    outer loop
      vertex   -1.316997e-001 4.311844e-002 3.850000e-001
      vertex   -9.496517e-002 -6.509698e-002 1.985000e-001
      vertex   -9.496517e-002 -6.509698e-002 3.850000e-001
    endloop
  endfacet
  facet normal 9.469293e-001 3.214419e-001 0.000000e+000
    outer loop
      vertex   1.316997e-001 -4.311844e-002 1.985000e-001
      vertex   9.496517e-002 6.509698e-002 1.985000e-001
      vertex   1.316997e-001 -4.311844e-002 3.850000e-001
    endloop
  endfacet
  facet normal 9.469293e-001 3.214419e-001 0.000000e+000
    outer loop
      vertex   1.316997e-001 -4.311844e-002 3.850000e-001
      vertex   9.496517e-002 6.509698e-002 1.985000e-001
      vertex   9.496517e-002 6.509698e-002 3.850000e-001
    endloop
  endfacet
  facet normal 6.210675e-001 7.837571e-001 0.000000e+000
    outer loop
      vertex   9.496517e-002 6.509698e-002 1.985000e-001
      vertex   4.166968e-002 1.073296e-001 1.985000e-001
      vertex   9.496517e-002 6.509698e-002 3.850000e-001
    endloop
  endfacet
  facet normal 6.210675e-001 7.837571e-001 0.000000e+000
    outer loop
      vertex   9.496517e-002 6.509698e-002 3.850000e-001
      vertex   4.166968e-002 1.073296e-001 1.985000e-001
      vertex   4.166968e-002 1.073296e-001 3.850000e-001
    endloop
  endfacet
  facet normal 9.651301e-002 9.953317e-001 0.000000e+000
    outer loop
      vertex   4.166968e-002 1.073296e-001 1.985000e-001
      vertex   -7.207718e-002 1.183591e-001 1.985000e-001
      vertex   4.166968e-002 1.073296e-001 3.850000e-001
    endloop
  endfacet
  facet normal 9.651301e-002 9.953317e-001 0.000000e+000
    outer loop
      vertex   4.166968e-002 1.073296e-001 3.850000e-001
      vertex   -7.207718e-002 1.183591e-001 1.985000e-001
      vertex   -7.207718e-002 1.183591e-001 3.850000e-001
    endloop
  endfacet
  facet normal -7.837571e-001 6.210675e-001 0.000000e+000
    outer loop
      vertex   -7.207718e-002 1.183591e-001 1.985000e-001
      vertex   -1.316997e-001 4.311844e-002 1.985000e-001
      vertex   -7.207718e-002 1.183591e-001 3.850000e-001
    endloop
  endfacet
  facet normal -7.837571e-001 6.210675e-001 0.000000e+000
    outer loop
      vertex   -7.207718e-002 1.183591e-001 3.850000e-001
      vertex   -1.316997e-001 4.311844e-002 1.985000e-001
      vertex   -1.316997e-001 4.311844e-002 3.850000e-001
    endloop
  endfacet
endsolid
