solid ascii
  facet normal -1.000000e+000 2.914742e-016 -5.613186e-016
    outer loop
      vertex   4.001531e-017 -1.100000e-002 -7.700000e-002
      vertex   -3.455488e-018 -6.000000e-002 -2.500000e-002
      vertex   3.152142e-017 6.000000e-002 -2.500000e-002
    endloop
  endfacet
  facet normal -1.000000e+000 2.914742e-016 -5.613186e-016
    outer loop
      vertex   4.642775e-017 1.100000e-002 -7.700000e-002
      vertex   4.001531e-017 -1.100000e-002 -7.700000e-002
      vertex   3.152142e-017 6.000000e-002 -2.500000e-002
    endloop
  endfacet
  facet normal -1.000000e+000 2.914742e-016 -5.613186e-016
    outer loop
      vertex   -4.642775e-017 -1.100000e-002 7.700000e-002
      vertex   -4.001531e-017 1.100000e-002 7.700000e-002
      vertex   -3.152142e-017 -6.000000e-002 2.500000e-002
    endloop
  endfacet
  facet normal -1.000000e+000 2.914742e-016 -5.613186e-016
    outer loop
      vertex   -3.152142e-017 -6.000000e-002 2.500000e-002
      vertex   -4.001531e-017 1.100000e-002 7.700000e-002
      vertex   3.455488e-018 6.000000e-002 2.500000e-002
    endloop
  endfacet
  facet normal -1.000000e+000 2.914742e-016 -5.613186e-016
    outer loop
      vertex   3.152142e-017 6.000000e-002 -2.500000e-002
      vertex   -3.152142e-017 -6.000000e-002 2.500000e-002
      vertex   3.455488e-018 6.000000e-002 2.500000e-002
    endloop
  endfacet
  facet normal -1.000000e+000 2.914742e-016 -5.613186e-016
    outer loop
      vertex   3.152142e-017 6.000000e-002 -2.500000e-002
      vertex   -3.455488e-018 -6.000000e-002 -2.500000e-002
      vertex   -3.152142e-017 -6.000000e-002 2.500000e-002
    endloop
  endfacet
  facet normal 5.596928e-016 7.277890e-001 -6.858011e-001
    outer loop
      vertex   4.642775e-017 1.100000e-002 -7.700000e-002
      vertex   3.152142e-017 6.000000e-002 -2.500000e-002
      vertex   3.145000e-001 1.100000e-002 -7.700000e-002
    endloop
  endfacet
  facet normal 5.624720e-016 7.277890e-001 -6.858011e-001
    outer loop
      vertex   3.145000e-001 1.100000e-002 -7.700000e-002
      vertex   3.152142e-017 6.000000e-002 -2.500000e-002
      vertex   3.145000e-001 6.000000e-002 -2.500000e-002
    endloop
  endfacet
  facet normal -5.596928e-016 -7.277890e-001 6.858011e-001
    outer loop
      vertex   -4.642775e-017 -1.100000e-002 7.700000e-002
      vertex   -3.152142e-017 -6.000000e-002 2.500000e-002
      vertex   3.145000e-001 -1.100000e-002 7.700000e-002
    endloop
  endfacet
  facet normal -5.539801e-016 -7.277890e-001 6.858011e-001
    outer loop
      vertex   3.145000e-001 -1.100000e-002 7.700000e-002
      vertex   -3.152142e-017 -6.000000e-002 2.500000e-002
      vertex   3.145000e-001 -6.000000e-002 2.500000e-002
    endloop
  endfacet
  facet normal -5.736446e-016 1.672026e-031 1.000000e+000
    outer loop
      vertex   -4.001531e-017 1.100000e-002 7.700000e-002
      vertex   -4.642775e-017 -1.100000e-002 7.700000e-002
      vertex   3.145000e-001 1.100000e-002 7.700000e-002
    endloop
  endfacet
  facet normal -5.736446e-016 0.000000e+000 1.000000e+000
    outer loop
      vertex   3.145000e-001 1.100000e-002 7.700000e-002
      vertex   -4.642775e-017 -1.100000e-002 7.700000e-002
      vertex   3.145000e-001 -1.100000e-002 7.700000e-002
    endloop
  endfacet
  facet normal 2.426958e-016 1.000000e+000 1.387779e-016
    outer loop
      vertex   3.152142e-017 6.000000e-002 -2.500000e-002
      vertex   3.455488e-018 6.000000e-002 2.500000e-002
      vertex   3.145000e-001 6.000000e-002 -2.500000e-002
    endloop
  endfacet
  facet normal 2.426958e-016 1.000000e+000 1.387779e-016
    outer loop
      vertex   3.145000e-001 6.000000e-002 -2.500000e-002
      vertex   3.455488e-018 6.000000e-002 2.500000e-002
      vertex   3.145000e-001 6.000000e-002 2.500000e-002
    endloop
  endfacet
  facet normal -2.315970e-016 7.277890e-001 6.858011e-001
    outer loop
      vertex   3.455488e-018 6.000000e-002 2.500000e-002
      vertex   -4.001531e-017 1.100000e-002 7.700000e-002
      vertex   3.145000e-001 6.000000e-002 2.500000e-002
    endloop
  endfacet
  facet normal -2.288179e-016 7.277890e-001 6.858011e-001
    outer loop
      vertex   3.145000e-001 6.000000e-002 2.500000e-002
      vertex   -4.001531e-017 1.100000e-002 7.700000e-002
      vertex   3.145000e-001 1.100000e-002 7.700000e-002
    endloop
  endfacet
  facet normal 5.736446e-016 -1.672026e-031 -1.000000e+000
    outer loop
      vertex   4.001531e-017 -1.100000e-002 -7.700000e-002
      vertex   4.642775e-017 1.100000e-002 -7.700000e-002
      vertex   3.145000e-001 -1.100000e-002 -7.700000e-002
    endloop
  endfacet
  facet normal 5.736446e-016 0.000000e+000 -1.000000e+000
    outer loop
      vertex   3.145000e-001 -1.100000e-002 -7.700000e-002
      vertex   4.642775e-017 1.100000e-002 -7.700000e-002
      vertex   3.145000e-001 1.100000e-002 -7.700000e-002
    endloop
  endfacet
  facet normal 2.315970e-016 -7.277890e-001 -6.858011e-001
    outer loop
      vertex   -3.455488e-018 -6.000000e-002 -2.500000e-002
      vertex   4.001531e-017 -1.100000e-002 -7.700000e-002
      vertex   3.145000e-001 -6.000000e-002 -2.500000e-002
    endloop
  endfacet
  facet normal 2.288179e-016 -7.277890e-001 -6.858011e-001
    outer loop
      vertex   3.145000e-001 -6.000000e-002 -2.500000e-002
      vertex   4.001531e-017 -1.100000e-002 -7.700000e-002
      vertex   3.145000e-001 -1.100000e-002 -7.700000e-002
    endloop
  endfacet
  facet normal -2.206326e-016 -1.000000e+000 -1.387779e-016
    outer loop
      vertex   -3.152142e-017 -6.000000e-002 2.500000e-002
      vertex   -3.455488e-018 -6.000000e-002 -2.500000e-002
      vertex   3.145000e-001 -6.000000e-002 2.500000e-002
    endloop
  endfacet
  facet normal -2.206326e-016 -1.000000e+000 -1.387779e-016
    outer loop
      vertex   3.145000e-001 -6.000000e-002 2.500000e-002
      vertex   -3.455488e-018 -6.000000e-002 -2.500000e-002
      vertex   3.145000e-001 -6.000000e-002 -2.500000e-002
    endloop
  endfacet
  facet normal 1.000000e+000 0.000000e+000 0.000000e+000
    outer loop
      vertex   3.145000e-001 -1.100000e-002 7.700000e-002
      vertex   3.145000e-001 -6.000000e-002 2.500000e-002
      vertex   3.145000e-001 6.000000e-002 2.500000e-002
    endloop
  endfacet
  facet normal 1.000000e+000 0.000000e+000 0.000000e+000
    outer loop
      vertex   3.145000e-001 1.100000e-002 7.700000e-002
      vertex   3.145000e-001 -1.100000e-002 7.700000e-002
      vertex   3.145000e-001 6.000000e-002 2.500000e-002
    endloop
  endfacet
  facet normal 1.000000e+000 -4.625929e-016 6.316173e-016
    outer loop
      vertex   3.145000e-001 -1.100000e-002 -7.700000e-002
      vertex   3.145000e-001 6.000000e-002 -2.500000e-002
      vertex   3.145000e-001 -6.000000e-002 -2.500000e-002
    endloop
  endfacet
  facet normal 1.000000e+000 0.000000e+000 0.000000e+000
    outer loop
      vertex   3.145000e-001 -1.100000e-002 -7.700000e-002
      vertex   3.145000e-001 1.100000e-002 -7.700000e-002
      vertex   3.145000e-001 6.000000e-002 -2.500000e-002
    endloop
  endfacet
  facet normal 1.000000e+000 -4.625929e-016 1.110223e-015
    outer loop
      vertex   3.145000e-001 6.000000e-002 -2.500000e-002
      vertex   3.145000e-001 6.000000e-002 2.500000e-002
      vertex   3.145000e-001 -6.000000e-002 -2.500000e-002
    endloop
  endfacet
  facet normal 1.000000e+000 0.000000e+000 0.000000e+000
    outer loop
      vertex   3.145000e-001 -6.000000e-002 -2.500000e-002
      vertex   3.145000e-001 6.000000e-002 2.500000e-002
      vertex   3.145000e-001 -6.000000e-002 2.500000e-002
    endloop
  endfacet
endsolid
