600 0 1 0           
37 SolidWorks(2001239)-Sat-Convertor-2.0 13 ACIS 6.0.3 NT 24 Mon Oct 08 15:27:31 2001 
1000 9.9999999999999995e-007 1e-010 
-0 body $1 $2 $-1 $-1 #
-1 string_attrib-name_attrib-gen-attrib $-1 $3 $-1 $0 keep keep_kept ignore copy 17 SW_COMPONENT_NAME 8 Staubli5 #
-2 lump $-1 $-1 $4 $0 #
-3 rgb_color-st-attrib $-1 $-1 $1 $0 0.75294117647058822 0.75294117647058822 0.75294117647058822 #
-4 shell $-1 $-1 $-1 $5 $-1 $2 #
-5 face $-1 $6 $7 $4 $-1 $8 reversed single #
-6 face $-1 $9 $10 $4 $-1 $11 reversed single #
-7 loop $-1 $-1 $12 $5 #
-8 torus-surface $-1 -1.3322676295501878e-015 2.2204460492503131e-016 0.017999999999999114 1.9428902930940236e-015 -1.7486012637846212e-015 -1 0.032500000000000001 0.0049999999999999923 1 -2.2204460492503087e-015 1.9428902930940275e-015 forward_v I I I I #
-9 face $-1 $13 $14 $4 $-1 $15 reversed single #
-10 loop $-1 $-1 $16 $6 #
-11 plane-surface $-1 -0.022500000000002185 6.6613381477509392e-016 0.012999999999999221 -2.4980018054066093e-015 -1.7486012637846111e-015 -1 0.99999999999999867 -2.2759572004815709e-015 -2.4980018054066022e-015 forward_v I I I I #
-12 coedge $-1 $17 $18 $19 $20 forward $7 $-1 #
-13 face $-1 $21 $22 $4 $-1 $23 forward single #
-14 loop $-1 $-1 $24 $9 #
-15 cone-surface $-1 -8.8817841970012523e-016 4.4408920985006262e-016 -0.018000000000001362 1.9428902930940236e-015 -1.7486012637846212e-015 -1 0.03749999999999995 -8.3266726846886741e-017 -9.7144514654701197e-017 1 I I 0 1 1 forward I I I I #
-16 coedge $-1 $25 $26 $27 $28 forward $10 $-1 #
-17 coedge $-1 $29 $12 $25 $30 reversed $7 $-1 #
-18 coedge $-1 $12 $29 $24 $31 forward $7 $-1 #
-19 coedge $-1 $32 $33 $12 $20 reversed $22 $-1 #
-20 edge $-1 $34 4.6252171484157388e-007 $35 0.01208643976346385 $12 $36 forward 7 unknown #
-21 face $-1 $37 $38 $4 $-1 $39 forward single #
-22 loop $-1 $-1 $40 $13 #
-23 cone-surface $-1 -4.8849813083506888e-015 0.067000000000001059 -2.4563684419831588e-015 5.7731597280507974e-015 -1 -1.2767564783189263e-015 -0.019999999999999969 0 5.2041704279304213e-017 1 I I 0 1 1 forward I I I I #
-24 coedge $-1 $41 $41 $18 $31 reversed $14 $-1 #
-25 coedge $-1 $42 $16 $17 $30 forward $10 $-1 #
-26 coedge $-1 $16 $42 $43 $44 reversed $10 $-1 #
-27 coedge $-1 $45 $46 $16 $28 reversed $22 $-1 #
-28 edge $-1 $47 -0.050409339976962508 $48 -0.038272835155554352 $16 $49 forward 7 unknown #
-29 coedge $-1 $18 $17 $46 $50 forward $7 $-1 #
-30 edge $-1 $48 1.0841639957212408 $35 2.0574286578686238 $25 $51 forward 7 unknown #
-31 edge $-1 $52 1.3361750960129626 $34 1.805417557576958 $18 $53 forward 7 unknown #
-32 coedge $-1 $46 $19 $41 $54 forward $22 $-1 #
-33 coedge $-1 $19 $55 $42 $56 reversed $22 $-1 #
-34 vertex $-1 $31 $57 #
-35 vertex $-1 $20 $58 #
-36 intcurve-curve $-1 forward { exactcur full nubs 3 open 11 
	4.6252171484157388e-007 3 0.0030219568321519924 2 0.003777330409761288 2 0.0045327039873705845 2 0.0060434511425892243 2 
	0.0067988247201985182 2 0.0075541982978078129 2 0.0090649454530264666 2 0.01057569260824512 2 0.011331066185854485 2 
	0.01208643976346385 3 
	-0.0087177978870829342 0.036472592449672936 0.017999999999998226 
	-0.0096170303277218153 0.036257654981715903 0.017564481851610469 
	-0.010451170553216404 0.03596585041901354 0.017077134337492618 
	-0.011408373343101878 0.035459188844089079 0.016428709181156052 
	-0.011595518514440226 0.035350674163829698 0.016297087948664492 
	-0.011960999312595016 0.035117639467637601 0.01603077105660666 
	-0.012140078173968413 0.034992512285492661 0.01589547828190821 
	-0.012656566789119958 0.034595792856092739 0.015492005313553093 
	-0.012973929445166715 0.034303058470976228 0.015225911075273532 
	-0.013410465429838396 0.033815921014912209 0.014839043779341881 
	-0.013549376967358294 0.033645510000344048 0.014712146698033279 
	-0.013813887465565671 0.033287195068994885 0.014464072378024193 
	-0.013940023812274193 0.033098304075433349 0.014342347353884694 
	-0.014291911689908569 0.032513000733237568 0.013994642770456926 
	-0.014492826923970163 0.032097056439264027 0.01378472721428578 
	-0.014828096644934065 0.031207063710326888 0.013423423054829412 
	-0.014962591645110638 0.030729182133402727 0.013271787797230958 
	-0.015100488862083827 0.029995587235150556 0.013114118771171981 
	-0.015136277327403112 0.029747075970995546 0.013072663464072851 
	-0.015185455028322784 0.029241032579117587 0.013015505251804473 
	-0.015198684153573953 0.028982571436697135 0.012999999999999103 
	-0.01519868415357406 0.028727164844447151 0.012999999999999221 
	0 
	null_surface 
	null_surface 
	nullbs 
	nullbs 
	I I 
	0 
	9 0.0030219568321519924 0.003777330409761288 0.0045327039873705845 0.0060434511425892243 0.0067988247201985182 0.0075541982978078129 0.0090649454530264666 0.01057569260824512 0.011331066185854485 
	0 
	F 1 F 0 } I I #
-37 face $-1 $59 $60 $4 $-1 $61 reversed single #
-38 loop $-1 $62 $63 $21 #
-39 cone-surface $-1 -3.9968028886505635e-015 1.5543122344752192e-015 -0.08163961030679158 -1.9428902930940236e-015 1.7486012637846212e-015 1 0.022499999999999968 -5.5511151231257827e-017 -5.5511151231257827e-017 1 I I 0 1 1 forward I I I I #
-40 coedge $-1 $64 $45 $65 $66 reversed $22 $-1 #
-41 coedge $-1 $24 $24 $32 $54 reversed $14 $-1 #
-42 coedge $-1 $26 $25 $33 $56 forward $10 $-1 #
-43 coedge $-1 $67 $68 $26 $44 forward $38 $-1 #
-44 edge $-1 $47 0.82915770908358744 $69 2.312434944506391 $43 $70 forward 7 unknown #
-45 coedge $-1 $40 $27 $68 $71 reversed $22 $-1 #
-46 coedge $-1 $27 $32 $29 $50 reversed $22 $-1 #
-47 vertex $-1 $44 $72 #
-48 vertex $-1 $30 $73 #
-49 straight-curve $-1 0.015198684153566511 0.067000000000001059 0.012999999999999221 -5.7731597280507974e-015 1 1.2767564783189263e-015 I I #
-50 edge $-1 $48 0.010395394481575277 $52 0.022579261856503788 $29 $74 forward 7 unknown #
-51 ellipse-curve $-1 -1.3322676295501878e-015 -4.4408920985006262e-016 0.012999999999999221 -1.9428902930940236e-015 1.7486012637846212e-015 1 0.032499999999999959 -8.3266726846886741e-017 -8.1532003370909933e-017 1 I I #
-52 vertex $-1 $31 $75 #
-53 ellipse-curve $-1 -1.3322676295501878e-015 2.2204460492503131e-016 0.017999999999999114 -1.9428902930940236e-015 1.7486012637846212e-015 1 0.03749999999999995 -8.3266726846886741e-017 -9.3675067702747583e-017 1 I I #
-54 edge $-1 $34 0.022839391369489415 $52 0.040930516593236127 $32 $76 forward 7 unknown #
-55 coedge $-1 $33 $77 $67 $78 reversed $22 $-1 #
-56 edge $-1 $35 0.038272835155554796 $69 0.050409339976964063 $42 $79 forward 7 unknown #
-57 point $-1 -0.0087177978870829342 0.036472592449672936 0.017999999999998226 #
-58 point $-1 -0.01519868415357406 0.028727164844447151 0.012999999999999221 #
-59 face $-1 $80 $81 $4 $-1 $82 forward single #
-60 loop $-1 $-1 $83 $37 #
-61 plane-surface $-1 -4.8849813083506888e-015 0.067000000000001059 -2.4563684419831588e-015 1.2212453270876708e-015 -1 -1.2767564783189146e-015 -0.99999999999999845 -1.2212453270876722e-015 2.55351295663786e-015 forward_v I I I I #
-62 loop $-1 $-1 $84 $21 #
-63 coedge $-1 $68 $85 $86 $87 forward $38 $-1 #
-64 coedge $-1 $77 $40 $88 $89 forward $22 $-1 #
-65 coedge $-1 $86 $90 $40 $66 forward $81 $-1 #
-66 edge $-1 $91 -1.1102230246251542e-016 $92 0.056692235935954433 $65 $93 forward 7 unknown #
-67 coedge $-1 $94 $43 $55 $78 forward $38 $-1 #
-68 coedge $-1 $43 $63 $45 $71 forward $38 $-1 #
-69 vertex $-1 $44 $95 #
-70 ellipse-curve $-1 -1.3322676295501878e-015 -4.4408920985006262e-016 0.012999999999999221 -1.9428902930940236e-015 1.7486012637846212e-015 1 0.022499999999999961 -5.5511151231257827e-017 -5.6378512969246231e-017 1 I I #
-71 edge $-1 $92 0.06809005269347021 $47 0.083667990827620498 $68 $96 forward 7 unknown #
-72 point $-1 0.015198684153568287 0.01659066002303855 0.012999999999999221 #
-73 point $-1 0.015198684153568731 0.028727164844446706 0.012999999999999221 #
-74 intcurve-curve $-1 forward { exactcur full nubs 3 open 10 
	0.010395394481575277 3 0.011918377903441465 2 0.012679869614374518 2 0.013441361325307573 2 0.014964344747173607 2 
	0.016487328169039642 2 0.018010311590905676 2 0.018771803301838693 2 0.019533295012771713 2 0.022579261856503788 3 
	0.015198684153568731 0.028727164844446706 0.012999999999999221 
	0.015198684153564781 0.029235983291921425 0.012999999999998907 
	0.015146498039830042 0.029750443944961374 0.01306150915953848 
	0.015008871339061118 0.030483169891313777 0.013218874279838488 
	0.014952994764490052 0.030722493870048551 0.013282227546386839 
	0.014821997475246216 0.03119208857321154 0.013428254237415199 
	0.014746375390035477 0.031423583550953316 0.013511466862414733 
	0.014493802977634494 0.032095280728974884 0.013783721228972539 
	0.014292953026727789 0.032510546796540779 0.013993513783835626 
	0.013827836219844538 0.033285620704437358 0.014453299959517957 
	0.013560713393532344 0.033647743081667569 0.014705764825887344 
	0.012976382259360347 0.03430082889456304 0.015223861872560245 
	0.012658707776571489 0.034593851892372518 0.015490223350583403 
	0.012143665814165649 0.034989902812564144 0.015892729661691779 
	0.011964826875831313 0.035115064676467217 0.016027923185584457 
	0.011598407150010323 0.035348964192006394 0.016295040822109114 
	0.011410833474745861 0.035457817597473629 0.016427007333759805 
	0.010451719642732667 0.035965834168220384 0.017076902676452437 
	0.0096167985106169595 0.036257710391395054 0.017564594125753976 
	0.0087177978870762729 0.036472592449676045 0.017999999999998226 
	0 
	null_surface 
	null_surface 
	nullbs 
	nullbs 
	I I 
	0 
	8 0.011918377903441465 0.012679869614374518 0.013441361325307573 0.014964344747173607 0.016487328169039642 0.018010311590905676 0.018771803301838693 0.019533295012771713 
	0 
	F 1 F 0 } I I #
-75 point $-1 0.0087177978870762729 0.036472592449676045 0.017999999999998226 #
-76 intcurve-curve $-1 forward { exactcur full nubs 3 open 9 
	0.022839391369489415 3 0.025100782022457756 2 0.027362172675426098 2 0.031884953981362776 2 0.034146344634331117 2 
	0.036407735287299459 2 0.0386691259402678 2 0.039799821266751967 2 0.040930516593236127 3 
	-0.0087177978870829342 0.036472592449672936 0.017999999999998226 
	-0.008055908072020895 0.036630799509926065 0.018320567868400483 
	-0.0073733296525809967 0.036774948548841613 0.018606255424430566 
	-0.0059639135487867881 0.037029644423328956 0.019104723663726821 
	-0.0052323276351178161 0.037140534739678377 0.019318130348534239 
	-0.0030304250938009065 0.037406587877974379 0.019826400942371977 
	-0.0015379927065745189 0.037499176784403732 0.019998456470192071 
	0.00073868928932513118 0.037500403443192692 0.020000756456260892 
	0.0015076452057849726 0.037477271450759131 0.019957483376903097 
	0.0030133707546296826 0.0373863406360605 0.019786200582755122 
	0.0037552970349784254 0.037318768043078654 0.019658612037436678 
	0.0052180824567640638 0.037142486717348822 0.019321876164952696 
	0.0059389400786188044 0.037033768198039801 0.019112726509060405 
	0.0070044848102451523 0.036841789337570902 0.018737102857961114 
	0.0073561562755329185 0.036773102347390063 0.018601787883193981 
	0.0080456727574748504 0.036628421222887952 0.018314111976315609 
	0.0083845639537786006 0.036552243110198335 0.018161392559975786 
	0.0087177978870762729 0.036472592449676045 0.017999999999998226 
	0 
	null_surface 
	null_surface 
	nullbs 
	nullbs 
	I I 
	0 
	7 0.025100782022457756 0.027362172675426098 0.031884953981362776 0.034146344634331117 0.036407735287299459 0.0386691259402678 0.039799821266751967 
	0 
	F 1 F 0 } I I #
-77 coedge $-1 $55 $64 $97 $98 forward $22 $-1 #
-78 edge $-1 $69 0.12043373154836914 $99 0.13598215950014916 $67 $100 forward 7 unknown #
-79 straight-curve $-1 -0.01519868415357406 0.067000000000001947 0.012999999999995668 5.7731597280507974e-015 -1 -1.2767564783189263e-015 I I #
-80 face $-1 $101 $102 $4 $-1 $103 reversed single #
-81 loop $-1 $-1 $90 $59 #
-82 cone-surface $-1 -4.8849813083506888e-015 0.067000000000001059 -2.4563684419831588e-015 5.7731597280507974e-015 -1 -1.2767564783189263e-015 -0.019999999999999969 0 5.2041704279304213e-017 1 I I 0 1 1 forward I I I I #
-83 coedge $-1 $88 $88 $90 $104 reversed $60 $-1 #
-84 coedge $-1 $105 $106 $107 $108 forward $62 $-1 #
-85 coedge $-1 $63 $94 $109 $110 reversed $38 $-1 #
-86 coedge $-1 $111 $65 $63 $87 reversed $81 $-1 #
-87 edge $-1 $112 0.052485132177117304 $92 0.06809005269347021 $63 $113 forward 7 unknown #
-88 coedge $-1 $83 $83 $64 $89 reversed $60 $-1 #
-89 edge $-1 $91 -3.1415926535897949 $114 2.4685381367268114e-032 $64 $115 forward 7 unknown #
-90 coedge $-1 $65 $97 $83 $104 forward $81 $-1 #
-91 vertex $-1 $89 $116 #
-92 vertex $-1 $66 $117 #
-93 straight-curve $-1 0.019999999999995084 0.067000000000001059 -2.5084101462624631e-015 5.7731597280507974e-015 -1 -1.2767564783189263e-015 I I #
-94 coedge $-1 $85 $67 $118 $119 forward $38 $-1 #
-95 point $-1 -0.015198684153575837 0.016590660023037884 0.012999999999997444 #
-96 intcurve-curve $-1 forward { exactcur full nubs 3 open 9 
	0.06809005269347021 3 0.070037294960239013 2 0.071010916093623422 2 0.071984537227007817 2 0.073931779493776592 2 
	0.075879021760545368 2 0.079773506294082905 2 0.081720748560851708 2 0.083667990827620498 3 
	0.019999999999995442 0.010307764064046626 -2.581268532253489e-015 
	0.019999999999995445 0.010307764064046598 0.00065120628577704925 
	0.019968277707797417 0.010369959544843155 0.0012986754820709344 
	0.019874002725017704 0.010548865321931195 0.002264659762901744 
	0.0198346663209754 0.010622868291045751 0.0025858147497536902 
	0.019742785187347782 0.010792671209648913 0.0032129206387208273 
	0.019690084634091672 0.010888762686837333 0.0035207726207522102 
	0.019513047589914064 0.011204879149100483 0.0044296799809086518 
	0.019369887357438418 0.011452488277221423 0.0050162084777011402 
	0.019036986254341394 0.011997715546376631 0.0061601978932195756 
	0.018846735665731147 0.012295912385822227 0.0067180274047052152 
	0.018220365958020669 0.013222098584233566 0.0083272813218761184 
	0.017726019925594305 0.013885922749021617 0.0093287106637846458 
	0.016868429601576019 0.014896349922890517 0.010759425590583864 
	0.016563020713262783 0.015236083806454082 0.011224005134127427 
	0.015910810524336433 0.01591596724562902 0.012130871974328827 
	0.015563112738855911 0.016256807424247954 0.012573935771970321 
	0.015198684153568287 0.01659066002303855 0.012999999999999221 
	0 
	null_surface 
	null_surface 
	nullbs 
	nullbs 
	I I 
	0 
	7 0.070037294960239013 0.071010916093623422 0.071984537227007817 0.073931779493776592 0.075879021760545368 0.079773506294082905 0.081720748560851708 
	0 
	F 1 F 0 } I I #
-97 coedge $-1 $90 $118 $77 $98 reversed $81 $-1 #
-98 edge $-1 $114 0 $99 0.056692235935955987 $77 $120 forward 7 unknown #
-99 vertex $-1 $98 $121 #
-100 intcurve-curve $-1 forward { exactcur full nubs 3 open 9 
	0.12043373154836914 3 0.12237728504234165 2 0.12432083853631415 2 0.12820794552425913 2 0.13015149901823164 2 
	0.13209505251220413 2 0.13306682925919039 2 0.13403860600617665 2 0.13598215950014916 3 
	-0.015198684153575837 0.016590660023037884 0.012999999999997444 
	-0.015564555052527207 0.016255486122395885 0.012572249520447177 
	-0.015910673932584381 0.015916055751497266 0.012130960875726376 
	-0.016560686651971523 0.015238570578929134 0.011227351173480192 
	-0.016865508232025171 0.014899644321980987 0.010763968337129632 
	-0.017722459800154841 0.01389041014569109 0.0093353065177616112 
	-0.018217880152791896 0.013225690233457071 0.0083333197302047479 
	-0.018846790678740774 0.012295872924078716 0.0067180596051735278 
	-0.019036095227609618 0.0119991039352145 0.0061627425911270992 
	-0.019368067030568557 0.011455539981253759 0.0050229769319125993 
	-0.01951151274605057 0.011207578917207361 0.004436794048427983 
	-0.019689501664901275 0.010889823822917533 0.0035241441450142071 
	-0.019742785565283881 0.01079267218025487 0.0032129845062356388 
	-0.019834841982986243 0.010622541982839878 0.0025845492496879077 
	-0.019873584786195265 0.010549650295419377 0.0022679330657142185 
	-0.019967346661530543 0.010371742463858191 0.0013102052802396458 
	-0.020000000000002235 0.010307764064043018 0.00065995510558717121 
	-0.020000000000004559 0.010307764064045072 -2.4771851236948805e-015 
	0 
	null_surface 
	null_surface 
	nullbs 
	nullbs 
	I I 
	0 
	7 0.12237728504234165 0.12432083853631415 0.12820794552425913 0.13015149901823164 0.13209505251220413 0.13306682925919039 0.13403860600617665 
	0 
	F 1 F 0 } I I #
-101 face $-1 $122 $123 $4 $-1 $124 forward single #
-102 loop $-1 $-1 $107 $80 #
-103 plane-surface $-1 -0.05900000000000416 0.032500000000003082 -0.018000000000008468 -1.9428902930940165e-015 -1.7208456881689922e-015 1 2.1649348980190553e-015 -1.0000000000000027 -1.7208456881689926e-015 forward_v I I I I #
-104 edge $-1 $114 2.4685381367268114e-032 $91 3.1415926535897913 $90 $125 forward 7 unknown #
-105 coedge $-1 $126 $84 $127 $128 forward $62 $-1 #
-106 coedge $-1 $84 $126 $129 $130 reversed $62 $-1 #
-107 coedge $-1 $131 $131 $84 $108 reversed $102 $-1 #
-108 edge $-1 $132 -1.1033973639718571e-031 $133 3.1415926535897376 $84 $134 forward 7 unknown #
-109 coedge $-1 $135 $136 $85 $110 forward $137 $-1 #
-110 edge $-1 $112 0.82915770908340314 $138 2.3124349445061072 $109 $139 forward 7 unknown #
-111 coedge $-1 $140 $86 $136 $141 reversed $81 $-1 #
-112 vertex $-1 $87 $142 #
-113 intcurve-curve $-1 forward { exactcur full nubs 3 open 9 
	0.052485132177117304 3 0.054435747241661434 2 0.05638636230620557 2 0.060287592435293788 2 0.062238207499837897 2 
	0.064188822564382006 2 0.066139437628926115 2 0.067114745161198155 2 0.06809005269347021 3 
	0.015198684153569619 0.016590660023037884 -0.013000000000000581 
	0.015561560609457979 0.016258229328165563 -0.012575750412320206 
	0.015906033629848132 0.015920763507428909 -0.012137170393309922 
	0.016559470686062148 0.01523996545569517 -0.011229280546301134 
	0.016867355877104591 0.014897592722709324 -0.01076116690860832 
	0.017726745978127241 0.013885111807028144 -0.009327599214509763 
	0.018219366682636375 0.013223169184099631 -0.0083281641838715871 
	0.018841435341455888 0.012303950409139702 -0.0067324753635717612 
	0.019029147403821521 0.012010152354704512 -0.0061842191672647102 
	0.019362702057714495 0.011464640400978748 -0.0050436878025212975 
	0.019509287361875592 0.011211473769286606 -0.0044467486180124784 
	0.019747641377496537 0.010786106687467184 -0.0032274644329276583 
	0.019840410702217641 0.010612566070109075 -0.0026031005063581053 
	0.019935437311244961 0.010432303344209304 -0.0016379397055476252 
	0.01995979635162794 0.01038545886508857 -0.0013093512035146776 
	0.01999202620673023 0.010323280214462827 -0.00065326803229105723 
	0.019999999999995442 0.010307764064046682 -0.00032616711665916023 
	0.019999999999995442 0.010307764064046626 -2.581268532253489e-015 
	0 
	null_surface 
	null_surface 
	nullbs 
	nullbs 
	I I 
	0 
	7 0.054435747241661434 0.05638636230620557 0.060287592435293788 0.062238207499837897 0.064188822564382006 0.066139437628926115 0.067114745161198155 
	0 
	F 1 F 0 } I I #
-114 vertex $-1 $89 $143 #
-115 ellipse-curve $-1 -4.8849813083506888e-015 0.067000000000001059 -2.4563684419831588e-015 5.7731597280507974e-015 -1 -1.2767564783189263e-015 -0.019999999999999969 0 5.2041704279304213e-017 1 I I #
-116 point $-1 0.019999999999995115 0.06700000000000117 -2.5465740627339528e-015 #
-117 point $-1 0.019999999999995442 0.010307764064046626 -2.581268532253489e-015 #
-118 coedge $-1 $97 $144 $94 $119 reversed $81 $-1 #
-119 edge $-1 $99 1.6258348159242626e-016 $138 0.015638575542003836 $94 $145 forward 7 unknown #
-120 straight-curve $-1 -0.020000000000004854 0.067000000000001059 -2.4043267377038546e-015 5.7731597280507974e-015 -1 -1.2767564783189263e-015 I I #
-121 point $-1 -0.020000000000004559 0.010307764064045072 -2.4771851236948805e-015 #
-122 face $-1 $146 $147 $4 $-1 $148 reversed single #
-123 loop $-1 $-1 $127 $101 #
-124 cone-surface $-1 -3.9968028886505635e-015 1.5543122344752192e-015 -0.08163961030679158 -1.9428902930940236e-015 1.7486012637846212e-015 1 0.022499999999999968 -5.5511151231257827e-017 -5.5511151231257827e-017 1 I I 0 1 1 forward I I I I #
-125 ellipse-curve $-1 -4.8849813083506888e-015 0.067000000000001059 -2.4563684419831588e-015 5.7731597280507974e-015 -1 -1.2767564783189263e-015 -0.019999999999999969 0 5.2041704279304213e-017 1 I I #
-126 coedge $-1 $106 $105 $149 $150 forward $62 $-1 #
-127 coedge $-1 $151 $152 $105 $128 reversed $123 $-1 #
-128 edge $-1 $133 0.06363961030679012 $153 0.099639610306790596 $105 $154 forward 7 unknown #
-129 coedge $-1 $152 $151 $106 $130 forward $123 $-1 #
-130 edge $-1 $132 0.063639610306790217 $155 0.099639610306790791 $129 $156 forward 7 unknown #
-131 coedge $-1 $107 $107 $151 $157 reversed $102 $-1 #
-132 vertex $-1 $157 $158 #
-133 vertex $-1 $157 $159 #
-134 ellipse-curve $-1 -8.8817841970012523e-016 4.4408920985006262e-016 -0.018000000000001362 -1.9428902930940236e-015 1.7486012637846212e-015 1 0.022499999999999968 -5.5511151231257827e-017 -5.5511151231257827e-017 1 I I #
-135 coedge $-1 $160 $109 $144 $161 forward $137 $-1 #
-136 coedge $-1 $109 $160 $111 $141 forward $137 $-1 #
-137 loop $-1 $-1 $135 $146 #
-138 vertex $-1 $110 $162 #
-139 ellipse-curve $-1 -3.9968028886505635e-015 6.6613381477509392e-016 -0.01300000000001035 -1.9428902930940236e-015 1.7486012637846212e-015 1 0.022499999999999961 -5.5511151231257827e-017 -5.5511151231257827e-017 1 I I #
-140 coedge $-1 $163 $111 $164 $165 reversed $81 $-1 #
-141 edge $-1 $166 0.03827283515555191 $112 0.050409339976961842 $136 $167 forward 7 unknown #
-142 point $-1 0.015198684153569619 0.016590660023037884 -0.013000000000000581 #
-143 point $-1 -0.020000000000004854 0.067000000000001059 -2.4043267377038546e-015 #
-144 coedge $-1 $118 $168 $135 $161 reversed $81 $-1 #
-145 intcurve-curve $-1 forward { exactcur full nubs 3 open 9 
	1.6258348159242626e-016 3 0.0019548219427506009 2 0.0029322329141258253 2 0.0039096438855010492 2 0.0058644658282515144 2 
	0.0078192877710019804 2 0.0097741097137524439 2 0.011728931656502911 2 0.015638575542003836 3 
	-0.020000000000004559 0.010307764064045072 -2.4771851236948805e-015 
	-0.020000000000002238 0.010307764064042962 -0.00066378143212549381 
	-0.019967105540014338 0.010372206855557592 -0.0013135143190138483 
	-0.019873328285138096 0.010550133532160472 -0.0022701274742526999 
	-0.019834634833510639 0.010622925951444845 -0.0025860085336018128 
	-0.019742872759999509 0.010792509899511998 -0.0032123440502298366 
	-0.019689567147287337 0.010889715350035745 -0.0035239660887430649 
	-0.019510267041531075 0.011209785875604616 -0.004442864586744439 
	-0.019366192215867412 0.011458705237693184 -0.0050301083136649917 
	-0.019034282497737139 0.012001975523329295 -0.0061682639685299405 
	-0.018846377340406319 0.012296474208282393 -0.0067190805270853707 
	-0.018428301873389809 0.01291460053099408 -0.0077929244863310237 
	-0.018197072820876781 0.013239638100789014 -0.0083178626385359243 
	-0.017697581849934287 0.013900254420442432 -0.0093335895981514518 
	-0.017429551012780847 0.014235738924464364 -0.0098244546369384983 
	-0.016570413568737667 0.015246423813175702 -0.011254244703307919 
	-0.015924814403449002 0.015925452954310693 -0.012151059667527265 
	-0.015198684153572284 0.016590660023041659 -0.013000000000006798 
	0 
	null_surface 
	null_surface 
	nullbs 
	nullbs 
	I I 
	0 
	7 0.0019548219427506009 0.0029322329141258253 0.0039096438855010492 0.0058644658282515144 0.0078192877710019804 0.0097741097137524439 0.011728931656502911 
	0 
	F 1 F 0 } I I #
-146 face $-1 $169 $137 $4 $-1 $170 reversed single #
-147 loop $-1 $-1 $171 $122 #
-148 plane-surface $-1 -1.3322676295501878e-015 2.2204460492503131e-016 0.017999999999999114 -2.4980018054066093e-015 -1.7486012637846111e-015 -1 -0.99999999999999867 2.2759572004815709e-015 2.4980018054066022e-015 forward_v I I I I #
-149 coedge $-1 $171 $171 $126 $150 reversed $147 $-1 #
-150 edge $-1 $153 6.5379800339037012e-014 $155 3.1415926535897278 $126 $172 forward 7 unknown #
-151 coedge $-1 $129 $127 $131 $157 forward $123 $-1 #
-152 coedge $-1 $127 $129 $171 $173 forward $123 $-1 #
-153 vertex $-1 $150 $174 #
-154 straight-curve $-1 -0.022500000000003965 1.609823385706477e-015 -0.081639610306791524 -1.9428902930940236e-015 1.7486012637846212e-015 1 I I #
-155 vertex $-1 $130 $175 #
-156 straight-curve $-1 0.022499999999995971 1.4988010832439613e-015 -0.081639610306791635 -1.9428902930940236e-015 1.7486012637846212e-015 1 I I #
-157 edge $-1 $133 -3.1415926535898486 $132 -1.1033973639718571e-031 $151 $176 forward 7 unknown #
-158 point $-1 0.02249999999999908 3.8857805861880479e-016 -0.018000000000001418 #
-159 point $-1 -0.022500000000000887 1.7486012637846216e-015 -0.018000000000001404 #
-160 coedge $-1 $136 $135 $177 $178 reversed $137 $-1 #
-161 edge $-1 $138 -0.0504093399769594 $179 -0.038272835155553686 $135 $180 forward 7 unknown #
-162 point $-1 -0.015198684153572284 0.016590660023041659 -0.013000000000006798 #
-163 coedge $-1 $168 $140 $181 $182 forward $81 $-1 #
-164 coedge $-1 $177 $183 $140 $165 forward $184 $-1 #
-165 edge $-1 $185 4.6252171756379013e-007 $166 0.01208643976346906 $164 $186 forward 7 unknown #
-166 vertex $-1 $178 $187 #
-167 straight-curve $-1 0.015198684153569619 0.066999999999999726 -0.013000000000000581 5.7731597280507974e-015 -1 -1.2767564783189263e-015 I I #
-168 coedge $-1 $144 $163 $188 $189 reversed $81 $-1 #
-169 face $-1 $190 $191 $4 $-1 $192 reversed single #
-170 plane-surface $-1 -0.022500000000002629 3.3306690738754696e-015 -0.013000000000009462 2.4980018054066093e-015 1.7486012637846111e-015 1 0.99999999999999867 -2.2759572004815709e-015 -2.4980018054066022e-015 forward_v I I I I #
-171 coedge $-1 $149 $149 $152 $173 reversed $147 $-1 #
-172 ellipse-curve $-1 -1.3322676295501878e-015 2.2204460492503131e-016 0.017999999999999114 1.9428902930940236e-015 -1.7486012637846212e-015 -1 -0.022499999999999968 5.5511151231257827e-017 5.620504062164851e-017 1 I I #
-173 edge $-1 $155 -3.1415926535898584 $153 6.5379800339037012e-014 $152 $193 forward 7 unknown #
-174 point $-1 -0.022500000000001331 1.7486012637846216e-015 0.017999999999999069 #
-175 point $-1 0.022499999999998667 1.6375789613221059e-015 0.017999999999999159 #
-176 ellipse-curve $-1 -8.8817841970012523e-016 4.4408920985006262e-016 -0.018000000000001362 -1.9428902930940236e-015 1.7486012637846212e-015 1 0.022499999999999968 -5.5511151231257827e-017 -5.5511151231257827e-017 1 I I #
-177 coedge $-1 $188 $164 $160 $178 forward $184 $-1 #
-178 edge $-1 $166 1.0841639957212537 $179 2.057428657868515 $177 $194 forward 7 unknown #
-179 vertex $-1 $189 $195 #
-180 straight-curve $-1 -0.015198684153574504 0.067000000000001059 -0.013000000000000581 -5.7731597280507974e-015 1 1.2767564783189263e-015 I I #
-181 coedge $-1 $196 $196 $163 $182 reversed $191 $-1 #
-182 edge $-1 $185 0.086566188426299137 $197 0.10463875980383262 $163 $198 forward 7 unknown #
-183 coedge $-1 $164 $188 $196 $199 reversed $184 $-1 #
-184 loop $-1 $-1 $188 $190 #
-185 vertex $-1 $182 $200 #
-186 intcurve-curve $-1 forward { exactcur full nubs 3 open 11 
	4.6252171756379013e-007 3 0.0030219568321553942 2 0.0037773304097648637 2 0.0045327039873743324 2 0.0060434511425932844 2 
	0.0067988247202027596 2 0.0075541982978122348 2 0.0090649454530311764 2 0.010575692608250118 2 0.011331066185859589 2 
	0.01208643976346906 3 
	0.0087177978870758288 0.036472592449674712 -0.018000000000003138 
	0.0096170303277143578 0.036257654981717596 -0.017564481851614397 
	0.010451170553209146 0.035965850419015483 -0.017077134337496296 
	0.011408373343094818 0.035459188844091161 -0.01642870918115942 
	0.011595518514433202 0.035350674163831808 -0.016297087948667799 
	0.011960999312588058 0.035117639467639766 -0.016030771056609827 
	0.012140078173961698 0.034992512285494742 -0.015895478281911152 
	0.012656566789113304 0.034595792856094737 -0.015492005313555851 
	0.012973929445160104 0.034303058470978282 -0.015225911075276148 
	0.013410465429831849 0.033815921014914235 -0.014839043779344314 
	0.013549376967351772 0.033645510000346018 -0.014712146698035652 
	0.013813887465559178 0.033287195068996828 -0.014464072378026445 
	0.013940023812267685 0.033098304075435264 -0.014342347353886904 
	0.014291911689902103 0.032513000733239344 -0.013994642770458962 
	0.014492826923963715 0.032097056439265442 -0.013784727214287716 
	0.014828096644927607 0.031207063710327831 -0.013423423054831213 
	0.014962591645103955 0.030729182133404087 -0.01327178779723296 
	0.015100488862077049 0.029995587235151611 -0.013114118771174032 
	0.015136277327396294 0.029747075970996517 -0.01307266346407494 
	0.015185455028315859 0.029241032579118476 -0.013015505251806676 
	0.015198684153566969 0.028982571436697829 -0.013000000000001365 
	0.015198684153566067 0.028727164844447817 -0.013000000000002357 
	0 
	null_surface 
	null_surface 
	nullbs 
	nullbs 
	I I 
	0 
	9 0.0030219568321553942 0.0037773304097648637 0.0045327039873743324 0.0060434511425932844 0.0067988247202027596 0.0075541982978122348 0.0090649454530311764 0.010575692608250118 0.011331066185859589 
	0 
	F 1 F 0 } I I #
-187 point $-1 0.015198684153566067 0.028727164844447817 -0.013000000000002357 #
-188 coedge $-1 $183 $177 $168 $189 forward $184 $-1 #
-189 edge $-1 $179 0.010395394481575115 $197 0.022579261856497744 $188 $201 forward 7 unknown #
-190 face $-1 $-1 $184 $4 $-1 $202 reversed single #
-191 loop $-1 $-1 $196 $169 #
-192 cone-surface $-1 -1.3322676295501878e-015 2.2204460492503131e-016 0.017999999999999114 -1.9428902930940236e-015 1.7486012637846212e-015 1 0.03749999999999995 -8.3266726846886741e-017 -9.3675067702747583e-017 1 I I 0 1 1 forward I I I I #
-193 ellipse-curve $-1 -1.3322676295501878e-015 2.2204460492503131e-016 0.017999999999999114 1.9428902930940236e-015 -1.7486012637846212e-015 -1 -0.022499999999999968 5.5511151231257827e-017 5.620504062164851e-017 1 I I #
-194 ellipse-curve $-1 -3.9968028886505635e-015 -2.2204460492503131e-016 -0.01300000000000591 -1.9428902930940236e-015 1.7486012637846212e-015 1 0.032499999999999959 -8.3266726846886741e-017 -7.9797279894933126e-017 1 I I #
-195 point $-1 -0.015198684153572728 0.028727164844447373 -0.013000000000002357 #
-196 coedge $-1 $181 $181 $183 $199 forward $191 $-1 #
-197 vertex $-1 $189 $203 #
-198 intcurve-curve $-1 forward { exactcur full nubs 3 open 10 
	0.086566188426299137 3 0.091084331270682495 2 0.092213866981778345 2 0.093343402692874181 2 0.095602474115065866 2 
	0.097861545537257552 2 0.10012061695944924 2 0.10237968838164092 2 0.10350922409273677 2 0.10463875980383262 3 
	0.0087177978870758288 0.036472592449674712 -0.018000000000003138 
	0.0073908739851294165 0.03678975812427468 -0.018642658577153151 
	0.0059934389709101017 0.037047824744804003 -0.019140961561922548 
	0.0041476121169451525 0.03727178025049388 -0.019568876340780014 
	0.0037732005544341466 0.037311575458569057 -0.019644507091462982 
	0.0030260748402604148 0.037379587700851036 -0.019773380397688001 
	0.0026518950750022466 0.037407999678662429 -0.019826995861697852 
	0.0015275248894495953 0.037476400807743226 -0.019955849199328017 
	0.00077550846370236356 0.037499570619496825 -0.019999194911241767 
	-0.00073341147395315851 0.037500417566125571 -0.020000782936800257 
	-0.0014903144646223399 0.037478097441040442 -0.01995903544216452 
	-0.0030091846991949773 0.037386810942493076 -0.019787090246703436 
	-0.0037569869271131063 0.037318620466422175 -0.019658334199432373 
	-0.0052220216415940456 0.03714195571401821 -0.019320857751192279 
	-0.005940736831853673 0.037033380282112144 -0.019111956357487969 
	-0.0069987174091258614 0.036842860325081134 -0.018739203881336236 
	-0.0073480214465784155 0.036774740314136412 -0.018605027672988078 
	-0.0080399310201679543 0.0366296936042671 -0.018316658622220774 
	-0.0083825932762434524 0.036552714147964155 -0.018162347002677104 
	-0.0087177978870833783 0.036472592449673602 -0.018000000000001362 
	0 
	null_surface 
	null_surface 
	nullbs 
	nullbs 
	I I 
	0 
	8 0.091084331270682495 0.092213866981778345 0.093343402692874181 0.095602474115065866 0.097861545537257552 0.10012061695944924 0.10237968838164092 0.10350922409273677 
	0 
	F 1 F 0 } I I #
-199 edge $-1 $185 1.3361750960129761 $197 1.8054175575769782 $196 $204 forward 7 unknown #
-200 point $-1 0.0087177978870758288 0.036472592449674712 -0.018000000000003138 #
-201 intcurve-curve $-1 forward { exactcur full nubs 3 open 10 
	0.010395394481575115 3 0.011918377903440398 2 0.012679869614373038 2 0.013441361325305679 2 0.014964344747171036 2 
	0.016487328169036392 2 0.018010311590901749 2 0.018771803301834408 2 0.019533295012767071 2 0.022579261856497744 3 
	-0.015198684153572728 0.028727164844447373 -0.013000000000002357 
	-0.015198684153576027 0.029235983291921785 -0.01300000000000168 
	-0.015146498039840887 0.029750443944962818 -0.013061509159541747 
	-0.015008871339071661 0.030483169891314582 -0.013218874279842138 
	-0.014952994764500521 0.030722493870049078 -0.013282227546390593 
	-0.014821997475256605 0.031192088573211652 -0.013428254237419071 
	-0.014746375390045193 0.031423583550955092 -0.013511466862419337 
	-0.014493802977644049 0.032095280728975911 -0.013783721228977329 
	-0.01429295302673728 0.03251054679654139 -0.013993513783840512 
	-0.013827836219853937 0.033285620704437496 -0.01445329995952295 
	-0.01356071339354134 0.033647743081667875 -0.014705764825892698 
	-0.012976382259369338 0.034300828894562763 -0.015223861872565567 
	-0.012658707776580513 0.034593851892372046 -0.015490223350588701 
	-0.012143665814174746 0.034989902812563339 -0.015892729661697004 
	-0.011964826875840105 0.035115064676466523 -0.016027923185589911 
	-0.011598407150019131 0.035348964192005644 -0.016295040822114533 
	-0.011410833474754677 0.035457817597472741 -0.016427007333765224 
	-0.010451719642741501 0.035965834168219246 -0.017076902676457791 
	-0.0096167985106257702 0.036257710391393777 -0.017564594125759288 
	-0.0087177978870833783 0.036472592449673602 -0.018000000000001362 
	0 
	null_surface 
	null_surface 
	nullbs 
	nullbs 
	I I 
	0 
	8 0.011918377903440398 0.012679869614373038 0.013441361325305679 0.014964344747171036 0.016487328169036392 0.018010311590901749 0.018771803301834408 0.019533295012767071 
	0 
	F 1 F 0 } I I #
-202 torus-surface $-1 -8.8817841970012523e-016 4.4408920985006262e-016 -0.018000000000001362 -1.9428902930940236e-015 1.7486012637846212e-015 1 0.032500000000000001 0.0049999999999999923 1 -2.2204460492503087e-015 1.9428902930940275e-015 forward_v I I I I #
-203 point $-1 -0.0087177978870833783 0.036472592449673602 -0.018000000000001362 #
-204 ellipse-curve $-1 -8.8817841970012523e-016 4.4408920985006262e-016 -0.018000000000001362 -1.9428902930940236e-015 1.7486012637846212e-015 1 0.03749999999999995 -8.3266726846886741e-017 -9.7144514654701197e-017 1 I I #
End-of-ACIS-data 