solid flr2
   facet normal -1.000000e+000 -1.268826e-016 0.000000e+000
      outer loop
         vertex 0.000000e+000 1.125000e+000 1.000000e-001
         vertex 0.000000e+000 2.000000e+000 1.000000e-001
         vertex 0.000000e+000 1.125000e+000 0.000000e+000
      endloop
   endfacet
   facet normal -1.000000e+000 -1.268826e-016 0.000000e+000
      outer loop
         vertex 0.000000e+000 1.125000e+000 0.000000e+000
         vertex 0.000000e+000 2.000000e+000 1.000000e-001
         vertex 0.000000e+000 2.000000e+000 0.000000e+000
      endloop
   endfacet
   facet normal 0.000000e+000 -1.000000e+000 0.000000e+000
      outer loop
         vertex 2.000000e-001 1.125000e+000 1.000000e-001
         vertex 0.000000e+000 1.125000e+000 1.000000e-001
         vertex 2.000000e-001 1.125000e+000 0.000000e+000
      endloop
   endfacet
   facet normal 0.000000e+000 -1.000000e+000 0.000000e+000
      outer loop
         vertex 2.000000e-001 1.125000e+000 0.000000e+000
         vertex 0.000000e+000 1.125000e+000 1.000000e-001
         vertex 0.000000e+000 1.125000e+000 0.000000e+000
      endloop
   endfacet
   facet normal -1.000000e+000 -4.440892e-016 0.000000e+000
      outer loop
         vertex 2.000000e-001 8.750000e-001 1.000000e-001
         vertex 2.000000e-001 1.125000e+000 1.000000e-001
         vertex 2.000000e-001 8.750000e-001 0.000000e+000
      endloop
   endfacet
   facet normal -1.000000e+000 -4.440892e-016 0.000000e+000
      outer loop
         vertex 2.000000e-001 8.750000e-001 0.000000e+000
         vertex 2.000000e-001 1.125000e+000 1.000000e-001
         vertex 2.000000e-001 1.125000e+000 0.000000e+000
      endloop
   endfacet
   facet normal 0.000000e+000 1.000000e+000 0.000000e+000
      outer loop
         vertex 0.000000e+000 8.750000e-001 1.000000e-001
         vertex 2.000000e-001 8.750000e-001 1.000000e-001
         vertex 0.000000e+000 8.750000e-001 0.000000e+000
      endloop
   endfacet
   facet normal 0.000000e+000 1.000000e+000 0.000000e+000
      outer loop
         vertex 0.000000e+000 8.750000e-001 0.000000e+000
         vertex 2.000000e-001 8.750000e-001 1.000000e-001
         vertex 2.000000e-001 8.750000e-001 0.000000e+000
      endloop
   endfacet
   facet normal -1.000000e+000 -6.344132e-017 0.000000e+000
      outer loop
         vertex 0.000000e+000 0.000000e+000 1.000000e-001
         vertex 0.000000e+000 8.750000e-001 1.000000e-001
         vertex 0.000000e+000 0.000000e+000 0.000000e+000
      endloop
   endfacet
   facet normal -1.000000e+000 -6.344132e-017 0.000000e+000
      outer loop
         vertex 0.000000e+000 0.000000e+000 0.000000e+000
         vertex 0.000000e+000 8.750000e-001 1.000000e-001
         vertex 0.000000e+000 8.750000e-001 0.000000e+000
      endloop
   endfacet
   facet normal 1.110223e-016 -1.000000e+000 0.000000e+000
      outer loop
         vertex 1.000000e+000 0.000000e+000 1.000000e-001
         vertex 0.000000e+000 0.000000e+000 1.000000e-001
         vertex 1.000000e+000 0.000000e+000 0.000000e+000
      endloop
   endfacet
   facet normal 1.110223e-016 -1.000000e+000 0.000000e+000
      outer loop
         vertex 1.000000e+000 0.000000e+000 0.000000e+000
         vertex 0.000000e+000 0.000000e+000 1.000000e-001
         vertex 0.000000e+000 0.000000e+000 0.000000e+000
      endloop
   endfacet
   facet normal 1.000000e+000 1.665335e-016 0.000000e+000
      outer loop
         vertex 1.000000e+000 2.000000e+000 1.000000e-001
         vertex 1.000000e+000 0.000000e+000 1.000000e-001
         vertex 1.000000e+000 2.000000e+000 0.000000e+000
      endloop
   endfacet
   facet normal 1.000000e+000 1.665335e-016 0.000000e+000
      outer loop
         vertex 1.000000e+000 2.000000e+000 0.000000e+000
         vertex 1.000000e+000 0.000000e+000 1.000000e-001
         vertex 1.000000e+000 0.000000e+000 0.000000e+000
      endloop
   endfacet
   facet normal 0.000000e+000 1.000000e+000 0.000000e+000
      outer loop
         vertex 0.000000e+000 2.000000e+000 1.000000e-001
         vertex 1.000000e+000 2.000000e+000 1.000000e-001
         vertex 0.000000e+000 2.000000e+000 0.000000e+000
      endloop
   endfacet
   facet normal 0.000000e+000 1.000000e+000 0.000000e+000
      outer loop
         vertex 0.000000e+000 2.000000e+000 0.000000e+000
         vertex 1.000000e+000 2.000000e+000 1.000000e-001
         vertex 1.000000e+000 2.000000e+000 0.000000e+000
      endloop
   endfacet
   facet normal 0.000000e+000 0.000000e+000 1.000000e+000
      outer loop
         vertex 0.000000e+000 8.750000e-001 1.000000e-001
         vertex 0.000000e+000 0.000000e+000 1.000000e-001
         vertex 2.000000e-001 8.750000e-001 1.000000e-001
      endloop
   endfacet
   facet normal 0.000000e+000 0.000000e+000 1.000000e+000
      outer loop
         vertex 2.000000e-001 8.750000e-001 1.000000e-001
         vertex 0.000000e+000 0.000000e+000 1.000000e-001
         vertex 1.000000e+000 0.000000e+000 1.000000e-001
      endloop
   endfacet
   facet normal 0.000000e+000 0.000000e+000 1.000000e+000
      outer loop
         vertex 2.000000e-001 8.750000e-001 1.000000e-001
         vertex 1.000000e+000 0.000000e+000 1.000000e-001
         vertex 2.000000e-001 1.125000e+000 1.000000e-001
      endloop
   endfacet
   facet normal 0.000000e+000 0.000000e+000 1.000000e+000
      outer loop
         vertex 2.000000e-001 1.125000e+000 1.000000e-001
         vertex 1.000000e+000 0.000000e+000 1.000000e-001
         vertex 1.000000e+000 2.000000e+000 1.000000e-001
      endloop
   endfacet
   facet normal 0.000000e+000 0.000000e+000 1.000000e+000
      outer loop
         vertex 2.000000e-001 1.125000e+000 1.000000e-001
         vertex 1.000000e+000 2.000000e+000 1.000000e-001
         vertex 0.000000e+000 1.125000e+000 1.000000e-001
      endloop
   endfacet
   facet normal 0.000000e+000 0.000000e+000 1.000000e+000
      outer loop
         vertex 0.000000e+000 1.125000e+000 1.000000e-001
         vertex 1.000000e+000 2.000000e+000 1.000000e-001
         vertex 0.000000e+000 2.000000e+000 1.000000e-001
      endloop
   endfacet
   facet normal 0.000000e+000 0.000000e+000 -1.000000e+000
      outer loop
         vertex 0.000000e+000 1.125000e+000 0.000000e+000
         vertex 0.000000e+000 2.000000e+000 0.000000e+000
         vertex 2.000000e-001 1.125000e+000 0.000000e+000
      endloop
   endfacet
   facet normal 0.000000e+000 0.000000e+000 -1.000000e+000
      outer loop
         vertex 2.000000e-001 1.125000e+000 0.000000e+000
         vertex 0.000000e+000 2.000000e+000 0.000000e+000
         vertex 1.000000e+000 2.000000e+000 0.000000e+000
      endloop
   endfacet
   facet normal 0.000000e+000 0.000000e+000 -1.000000e+000
      outer loop
         vertex 2.000000e-001 1.125000e+000 0.000000e+000
         vertex 1.000000e+000 2.000000e+000 0.000000e+000
         vertex 2.000000e-001 8.750000e-001 0.000000e+000
      endloop
   endfacet
   facet normal 0.000000e+000 0.000000e+000 -1.000000e+000
      outer loop
         vertex 2.000000e-001 8.750000e-001 0.000000e+000
         vertex 1.000000e+000 2.000000e+000 0.000000e+000
         vertex 1.000000e+000 0.000000e+000 0.000000e+000
      endloop
   endfacet
   facet normal 0.000000e+000 0.000000e+000 -1.000000e+000
      outer loop
         vertex 2.000000e-001 8.750000e-001 0.000000e+000
         vertex 1.000000e+000 0.000000e+000 0.000000e+000
         vertex 0.000000e+000 8.750000e-001 0.000000e+000
      endloop
   endfacet
   facet normal 0.000000e+000 0.000000e+000 -1.000000e+000
      outer loop
         vertex 0.000000e+000 8.750000e-001 0.000000e+000
         vertex 1.000000e+000 0.000000e+000 0.000000e+000
         vertex 0.000000e+000 0.000000e+000 0.000000e+000
      endloop
   endfacet
endsolid