solid stl file generated from AC3D
 facet normal 0.730164 0.683272 0.000000
  outer loop
   vertex 0.441673 0.272500 0.775000
   vertex 0.255000 0.471984 0.140000
   vertex 0.255000 0.471984 0.775000
  endloop
 endfacet
 facet normal 0.730164 0.683272 0.000000
  outer loop
   vertex 0.255000 0.471984 0.140000
   vertex 0.441673 0.272500 0.775000
   vertex 0.441673 0.272500 0.140000
  endloop
 endfacet
 facet normal 0.275275 0.961365 0.000000
  outer loop
   vertex 0.255000 0.471984 0.140000
   vertex -0.000000 0.545000 0.775000
   vertex 0.255000 0.471984 0.775000
  endloop
 endfacet
 facet normal 0.275275 0.961365 0.000000
  outer loop
   vertex -0.000000 0.545000 0.775000
   vertex 0.255000 0.471984 0.140000
   vertex -0.000000 0.545000 0.140000
  endloop
 endfacet
 facet normal -0.275275 0.961365 0.000000
  outer loop
   vertex -0.000000 0.545000 0.140000
   vertex -0.255000 0.471984 0.775000
   vertex -0.000000 0.545000 0.775000
  endloop
 endfacet
 facet normal -0.275275 0.961365 0.000000
  outer loop
   vertex -0.255000 0.471984 0.775000
   vertex -0.000000 0.545000 0.140000
   vertex -0.255000 0.471984 0.140000
  endloop
 endfacet
 facet normal -0.730164 0.683272 0.000000
  outer loop
   vertex -0.441673 0.272500 0.140000
   vertex -0.255000 0.471984 0.775000
   vertex -0.255000 0.471984 0.140000
  endloop
 endfacet
 facet normal -0.730164 0.683272 0.000000
  outer loop
   vertex -0.255000 0.471984 0.775000
   vertex -0.441673 0.272500 0.140000
   vertex -0.441673 0.272500 0.775000
  endloop
 endfacet
 facet normal -0.969973 0.243212 0.000000
  outer loop
   vertex -0.510000 0.000000 0.140000
   vertex -0.441673 0.272500 0.775000
   vertex -0.441673 0.272500 0.140000
  endloop
 endfacet
 facet normal -0.969973 0.243212 0.000000
  outer loop
   vertex -0.441673 0.272500 0.775000
   vertex -0.510000 0.000000 0.140000
   vertex -0.510000 0.000000 0.775000
  endloop
 endfacet
 facet normal -0.969973 -0.243212 0.000000
  outer loop
   vertex -0.441673 -0.272500 0.140000
   vertex -0.510000 0.000000 0.775000
   vertex -0.510000 0.000000 0.140000
  endloop
 endfacet
 facet normal -0.969973 -0.243212 0.000000
  outer loop
   vertex -0.510000 0.000000 0.775000
   vertex -0.441673 -0.272500 0.140000
   vertex -0.441673 -0.272500 0.775000
  endloop
 endfacet
 facet normal -0.730164 -0.683272 0.000000
  outer loop
   vertex -0.255000 -0.471984 0.140000
   vertex -0.441673 -0.272500 0.775000
   vertex -0.441673 -0.272500 0.140000
  endloop
 endfacet
 facet normal -0.730164 -0.683272 0.000000
  outer loop
   vertex -0.441673 -0.272500 0.775000
   vertex -0.255000 -0.471984 0.140000
   vertex -0.255000 -0.471984 0.775000
  endloop
 endfacet
 facet normal -0.275276 -0.961365 0.000000
  outer loop
   vertex -0.255000 -0.471984 0.140000
   vertex -0.000000 -0.545000 0.775000
   vertex -0.255000 -0.471984 0.775000
  endloop
 endfacet
 facet normal -0.275276 -0.961365 0.000000
  outer loop
   vertex -0.000000 -0.545000 0.775000
   vertex -0.255000 -0.471984 0.140000
   vertex -0.000000 -0.545000 0.140000
  endloop
 endfacet
 facet normal 0.275275 -0.961366 0.000000
  outer loop
   vertex -0.000000 -0.545000 0.140000
   vertex 0.255000 -0.471984 0.775000
   vertex -0.000000 -0.545000 0.775000
  endloop
 endfacet
 facet normal 0.275275 -0.961366 0.000000
  outer loop
   vertex 0.255000 -0.471984 0.775000
   vertex -0.000000 -0.545000 0.140000
   vertex 0.255000 -0.471984 0.140000
  endloop
 endfacet
 facet normal 0.730163 -0.683273 0.000000
  outer loop
   vertex 0.255000 -0.471984 0.775000
   vertex 0.441673 -0.272500 0.140000
   vertex 0.441673 -0.272500 0.775000
  endloop
 endfacet
 facet normal 0.730163 -0.683273 0.000000
  outer loop
   vertex 0.441673 -0.272500 0.140000
   vertex 0.255000 -0.471984 0.775000
   vertex 0.255000 -0.471984 0.140000
  endloop
 endfacet
 facet normal 0.969973 -0.243213 0.000000
  outer loop
   vertex 0.441673 -0.272500 0.775000
   vertex 0.510000 -0.000000 0.140000
   vertex 0.510000 -0.000000 0.775000
  endloop
 endfacet
 facet normal 0.969973 -0.243213 0.000000
  outer loop
   vertex 0.510000 -0.000000 0.140000
   vertex 0.441673 -0.272500 0.775000
   vertex 0.441673 -0.272500 0.140000
  endloop
 endfacet
 facet normal 0.969973 0.243212 0.000000
  outer loop
   vertex 0.510000 -0.000000 0.775000
   vertex 0.441673 0.272500 0.140000
   vertex 0.441673 0.272500 0.775000
  endloop
 endfacet
 facet normal 0.969973 0.243212 0.000000
  outer loop
   vertex 0.441673 0.272500 0.140000
   vertex 0.510000 -0.000000 0.775000
   vertex 0.510000 -0.000000 0.140000
  endloop
 endfacet
 facet normal 0.000000 0.000000 -1.000000
  outer loop
   vertex -0.000000 -0.000000 0.140000
   vertex 0.255000 0.471984 0.140000
   vertex 0.441673 0.272500 0.140000
  endloop
 endfacet
 facet normal 0.000000 0.000000 -1.000000
  outer loop
   vertex -0.000000 -0.000000 0.140000
   vertex -0.000000 0.545000 0.140000
   vertex 0.255000 0.471984 0.140000
  endloop
 endfacet
 facet normal 0.000000 0.000000 -1.000000
  outer loop
   vertex -0.000000 -0.000000 0.140000
   vertex -0.255000 0.471984 0.140000
   vertex -0.000000 0.545000 0.140000
  endloop
 endfacet
 facet normal 0.000000 0.000000 -1.000000
  outer loop
   vertex -0.000000 -0.000000 0.140000
   vertex -0.441673 0.272500 0.140000
   vertex -0.255000 0.471984 0.140000
  endloop
 endfacet
 facet normal 0.000000 0.000000 -1.000000
  outer loop
   vertex -0.000000 -0.000000 0.140000
   vertex -0.510000 0.000000 0.140000
   vertex -0.441673 0.272500 0.140000
  endloop
 endfacet
 facet normal 0.000000 0.000000 -1.000000
  outer loop
   vertex -0.000000 -0.000000 0.140000
   vertex -0.441673 -0.272500 0.140000
   vertex -0.510000 0.000000 0.140000
  endloop
 endfacet
 facet normal 0.000000 0.000000 -1.000000
  outer loop
   vertex -0.000000 -0.000000 0.140000
   vertex -0.255000 -0.471984 0.140000
   vertex -0.441673 -0.272500 0.140000
  endloop
 endfacet
 facet normal 0.000000 0.000000 -1.000000
  outer loop
   vertex -0.000000 -0.000000 0.140000
   vertex -0.000000 -0.545000 0.140000
   vertex -0.255000 -0.471984 0.140000
  endloop
 endfacet
 facet normal 0.000000 0.000000 -1.000000
  outer loop
   vertex -0.000000 -0.000000 0.140000
   vertex 0.255000 -0.471984 0.140000
   vertex -0.000000 -0.545000 0.140000
  endloop
 endfacet
 facet normal 0.000000 0.000000 -1.000000
  outer loop
   vertex -0.000000 -0.000000 0.140000
   vertex 0.441673 -0.272500 0.140000
   vertex 0.255000 -0.471984 0.140000
  endloop
 endfacet
 facet normal 0.000000 0.000000 -1.000000
  outer loop
   vertex -0.000000 -0.000000 0.140000
   vertex 0.510000 -0.000000 0.140000
   vertex 0.441673 -0.272500 0.140000
  endloop
 endfacet
 facet normal 0.000000 0.000000 -1.000000
  outer loop
   vertex -0.000000 -0.000000 0.140000
   vertex 0.441673 0.272500 0.140000
   vertex 0.510000 -0.000000 0.140000
  endloop
 endfacet
 facet normal 0.000000 0.000000 1.000000
  outer loop
   vertex -0.000000 -0.000000 0.775000
   vertex 0.441673 0.272500 0.775000
   vertex 0.255000 0.471984 0.775000
  endloop
 endfacet
 facet normal 0.000000 0.000000 1.000000
  outer loop
   vertex -0.000000 -0.000000 0.775000
   vertex 0.255000 0.471984 0.775000
   vertex -0.000000 0.545000 0.775000
  endloop
 endfacet
 facet normal 0.000000 0.000000 1.000000
  outer loop
   vertex -0.000000 -0.000000 0.775000
   vertex -0.000000 0.545000 0.775000
   vertex -0.255000 0.471984 0.775000
  endloop
 endfacet
 facet normal 0.000000 0.000000 1.000000
  outer loop
   vertex -0.000000 -0.000000 0.775000
   vertex -0.255000 0.471984 0.775000
   vertex -0.441673 0.272500 0.775000
  endloop
 endfacet
 facet normal 0.000000 0.000000 1.000000
  outer loop
   vertex -0.000000 -0.000000 0.775000
   vertex -0.441673 0.272500 0.775000
   vertex -0.510000 0.000000 0.775000
  endloop
 endfacet
 facet normal 0.000000 0.000000 1.000000
  outer loop
   vertex -0.000000 -0.000000 0.775000
   vertex -0.510000 0.000000 0.775000
   vertex -0.441673 -0.272500 0.775000
  endloop
 endfacet
 facet normal 0.000000 0.000000 1.000000
  outer loop
   vertex -0.000000 -0.000000 0.775000
   vertex -0.441673 -0.272500 0.775000
   vertex -0.255000 -0.471984 0.775000
  endloop
 endfacet
 facet normal 0.000000 0.000000 1.000000
  outer loop
   vertex -0.000000 -0.000000 0.775000
   vertex -0.255000 -0.471984 0.775000
   vertex -0.000000 -0.545000 0.775000
  endloop
 endfacet
 facet normal 0.000000 0.000000 1.000000
  outer loop
   vertex -0.000000 -0.000000 0.775000
   vertex -0.000000 -0.545000 0.775000
   vertex 0.255000 -0.471984 0.775000
  endloop
 endfacet
 facet normal 0.000000 0.000000 1.000000
  outer loop
   vertex -0.000000 -0.000000 0.775000
   vertex 0.255000 -0.471984 0.775000
   vertex 0.441673 -0.272500 0.775000
  endloop
 endfacet
 facet normal 0.000000 0.000000 1.000000
  outer loop
   vertex -0.000000 -0.000000 0.775000
   vertex 0.441673 -0.272500 0.775000
   vertex 0.510000 -0.000000 0.775000
  endloop
 endfacet
 facet normal 0.000000 0.000000 1.000000
  outer loop
   vertex -0.000000 -0.000000 0.775000
   vertex 0.510000 -0.000000 0.775000
   vertex 0.441673 0.272500 0.775000
  endloop
 endfacet
 facet normal 0.000000 1.000000 0.000000
  outer loop
   vertex 0.322500 0.695000 0.790000
   vertex -0.322500 0.695000 0.860000
   vertex 0.322500 0.695000 0.860000
  endloop
 endfacet
 facet normal 0.000000 1.000000 0.000000
  outer loop
   vertex -0.322500 0.695000 0.860000
   vertex 0.322500 0.695000 0.790000
   vertex -0.322500 0.695000 0.790000
  endloop
 endfacet
 facet normal -0.907098 0.420919 0.000000
  outer loop
   vertex -0.645000 -0.000000 0.790000
   vertex -0.322500 0.695000 0.860000
   vertex -0.322500 0.695000 0.790000
  endloop
 endfacet
 facet normal -0.907098 0.420919 0.000000
  outer loop
   vertex -0.322500 0.695000 0.860000
   vertex -0.645000 -0.000000 0.790000
   vertex -0.645000 -0.000000 0.860000
  endloop
 endfacet
 facet normal -0.907098 -0.420920 0.000000
  outer loop
   vertex -0.322500 -0.695000 0.790000
   vertex -0.645000 -0.000000 0.860000
   vertex -0.645000 -0.000000 0.790000
  endloop
 endfacet
 facet normal -0.907098 -0.420920 0.000000
  outer loop
   vertex -0.645000 -0.000000 0.860000
   vertex -0.322500 -0.695000 0.790000
   vertex -0.322500 -0.695000 0.860000
  endloop
 endfacet
 facet normal 0.000000 -1.000000 0.000000
  outer loop
   vertex -0.322500 -0.695000 0.790000
   vertex 0.322500 -0.695000 0.860000
   vertex -0.322500 -0.695000 0.860000
  endloop
 endfacet
 facet normal 0.000000 -1.000000 0.000000
  outer loop
   vertex 0.322500 -0.695000 0.860000
   vertex -0.322500 -0.695000 0.790000
   vertex 0.322500 -0.695000 0.790000
  endloop
 endfacet
 facet normal 0.907098 -0.420919 0.000000
  outer loop
   vertex 0.322500 -0.695000 0.860000
   vertex 0.645000 -0.000000 0.790000
   vertex 0.645000 -0.000000 0.860000
  endloop
 endfacet
 facet normal 0.907098 -0.420919 0.000000
  outer loop
   vertex 0.645000 -0.000000 0.790000
   vertex 0.322500 -0.695000 0.860000
   vertex 0.322500 -0.695000 0.790000
  endloop
 endfacet
 facet normal 0.907098 0.420919 0.000000
  outer loop
   vertex 0.645000 -0.000000 0.860000
   vertex 0.322500 0.695000 0.790000
   vertex 0.322500 0.695000 0.860000
  endloop
 endfacet
 facet normal 0.907098 0.420919 0.000000
  outer loop
   vertex 0.322500 0.695000 0.790000
   vertex 0.645000 -0.000000 0.860000
   vertex 0.645000 -0.000000 0.790000
  endloop
 endfacet
 facet normal 0.000000 0.000000 -1.000000
  outer loop
   vertex 0.000000 0.000000 0.790000
   vertex -0.322500 0.695000 0.790000
   vertex 0.322500 0.695000 0.790000
  endloop
 endfacet
 facet normal 0.000000 0.000000 -1.000000
  outer loop
   vertex 0.000000 0.000000 0.790000
   vertex -0.645000 -0.000000 0.790000
   vertex -0.322500 0.695000 0.790000
  endloop
 endfacet
 facet normal 0.000000 0.000000 -1.000000
  outer loop
   vertex 0.000000 0.000000 0.790000
   vertex -0.322500 -0.695000 0.790000
   vertex -0.645000 -0.000000 0.790000
  endloop
 endfacet
 facet normal 0.000000 0.000000 -1.000000
  outer loop
   vertex 0.000000 0.000000 0.790000
   vertex 0.322500 -0.695000 0.790000
   vertex -0.322500 -0.695000 0.790000
  endloop
 endfacet
 facet normal 0.000000 0.000000 -1.000000
  outer loop
   vertex 0.000000 0.000000 0.790000
   vertex 0.645000 -0.000000 0.790000
   vertex 0.322500 -0.695000 0.790000
  endloop
 endfacet
 facet normal 0.000000 0.000000 -1.000000
  outer loop
   vertex 0.000000 0.000000 0.790000
   vertex 0.322500 0.695000 0.790000
   vertex 0.645000 -0.000000 0.790000
  endloop
 endfacet
 facet normal 0.000000 0.000000 1.000000
  outer loop
   vertex 0.000000 0.000000 0.860000
   vertex 0.322500 0.695000 0.860000
   vertex -0.322500 0.695000 0.860000
  endloop
 endfacet
 facet normal 0.000000 0.000000 1.000000
  outer loop
   vertex 0.000000 0.000000 0.860000
   vertex -0.322500 0.695000 0.860000
   vertex -0.645000 -0.000000 0.860000
  endloop
 endfacet
 facet normal 0.000000 0.000000 1.000000
  outer loop
   vertex 0.000000 0.000000 0.860000
   vertex -0.645000 -0.000000 0.860000
   vertex -0.322500 -0.695000 0.860000
  endloop
 endfacet
 facet normal 0.000000 0.000000 1.000000
  outer loop
   vertex 0.000000 0.000000 0.860000
   vertex -0.322500 -0.695000 0.860000
   vertex 0.322500 -0.695000 0.860000
  endloop
 endfacet
 facet normal 0.000000 0.000000 1.000000
  outer loop
   vertex 0.000000 0.000000 0.860000
   vertex 0.322500 -0.695000 0.860000
   vertex 0.645000 -0.000000 0.860000
  endloop
 endfacet
 facet normal 0.000000 0.000000 1.000000
  outer loop
   vertex 0.000000 0.000000 0.860000
   vertex 0.645000 -0.000000 0.860000
   vertex 0.322500 0.695000 0.860000
  endloop
 endfacet
endsolid
