solid stl file generated from AC3D
 facet normal 1.000000 0.000000 0.000000
  outer loop
   vertex 0.000596 -0.006133 0.001194
   vertex 0.000596 0.006133 -0.001194
   vertex 0.000596 0.006133 0.001194
  endloop
 endfacet
 facet normal 1.000000 0.000000 0.000000
  outer loop
   vertex 0.000596 0.006133 -0.001194
   vertex 0.000596 -0.006133 0.001194
   vertex 0.000596 -0.006133 -0.001194
  endloop
 endfacet
 facet normal -1.000000 0.000000 0.000000
  outer loop
   vertex -0.000596 -0.006133 -0.001194
   vertex -0.000596 0.006133 0.001194
   vertex -0.000596 0.006133 -0.001194
  endloop
 endfacet
 facet normal -1.000000 0.000000 0.000000
  outer loop
   vertex -0.000596 0.006133 0.001194
   vertex -0.000596 -0.006133 -0.001194
   vertex -0.000596 -0.006133 0.001194
  endloop
 endfacet
 facet normal 0.000000 0.000000 -1.000000
  outer loop
   vertex -0.000596 -0.006133 -0.001194
   vertex 0.000596 0.006133 -0.001194
   vertex 0.000596 -0.006133 -0.001194
  endloop
 endfacet
 facet normal 0.000000 0.000000 -1.000000
  outer loop
   vertex 0.000596 0.006133 -0.001194
   vertex -0.000596 -0.006133 -0.001194
   vertex -0.000596 0.006133 -0.001194
  endloop
 endfacet
 facet normal 0.000000 0.000000 1.000000
  outer loop
   vertex -0.000596 0.006133 0.001194
   vertex 0.000596 -0.006133 0.001194
   vertex 0.000596 0.006133 0.001194
  endloop
 endfacet
 facet normal 0.000000 0.000000 1.000000
  outer loop
   vertex 0.000596 -0.006133 0.001194
   vertex -0.000596 0.006133 0.001194
   vertex -0.000596 -0.006133 0.001194
  endloop
 endfacet
 facet normal 0.000000 1.000000 0.000000
  outer loop
   vertex 0.000596 0.006133 -0.001194
   vertex -0.000596 0.006133 0.001194
   vertex 0.000596 0.006133 0.001194
  endloop
 endfacet
 facet normal 0.000000 1.000000 0.000000
  outer loop
   vertex -0.000596 0.006133 0.001194
   vertex 0.000596 0.006133 -0.001194
   vertex -0.000596 0.006133 -0.001194
  endloop
 endfacet
 facet normal 0.000000 -1.000000 0.000000
  outer loop
   vertex -0.000596 -0.006133 -0.001194
   vertex 0.000596 -0.006133 0.001194
   vertex -0.000596 -0.006133 0.001194
  endloop
 endfacet
 facet normal 0.000000 -1.000000 0.000000
  outer loop
   vertex 0.000596 -0.006133 0.001194
   vertex -0.000596 -0.006133 -0.001194
   vertex 0.000596 -0.006133 -0.001194
  endloop
 endfacet
endsolid
