solid ascii
  facet normal 1.614870e-016 1.000000e+000 8.605755e-033
    outer loop
      vertex   5.500000e-002 6.500000e-002 -3.000000e+000
      vertex   -5.500000e-002 6.500000e-002 -3.000000e+000
      vertex   5.500000e-002 6.500000e-002 3.053113e-018
    endloop
  endfacet
  facet normal 1.614870e-016 1.000000e+000 9.083853e-033
    outer loop
      vertex   5.500000e-002 6.500000e-002 3.053113e-018
      vertex   -5.500000e-002 6.500000e-002 -3.000000e+000
      vertex   -5.500000e-002 6.500000e-002 -3.053113e-018
    endloop
  endfacet
  facet normal -1.000000e+000 2.732857e-016 -5.625130e-017
    outer loop
      vertex   -5.500000e-002 6.500000e-002 -3.000000e+000
      vertex   -5.500000e-002 -6.500000e-002 -3.000000e+000
      vertex   -5.500000e-002 6.500000e-002 -3.053113e-018
    endloop
  endfacet
  facet normal -1.000000e+000 2.732857e-016 -5.625130e-017
    outer loop
      vertex   -5.500000e-002 6.500000e-002 -3.053113e-018
      vertex   -5.500000e-002 -6.500000e-002 -3.000000e+000
      vertex   -5.500000e-002 -6.500000e-002 -3.053113e-018
    endloop
  endfacet
  facet normal -1.614870e-016 -1.000000e+000 -8.605755e-033
    outer loop
      vertex   -5.500000e-002 -6.500000e-002 -3.000000e+000
      vertex   5.500000e-002 -6.500000e-002 -3.000000e+000
      vertex   -5.500000e-002 -6.500000e-002 -3.053113e-018
    endloop
  endfacet
  facet normal -1.614870e-016 -1.000000e+000 -9.083853e-033
    outer loop
      vertex   -5.500000e-002 -6.500000e-002 -3.053113e-018
      vertex   5.500000e-002 -6.500000e-002 -3.000000e+000
      vertex   5.500000e-002 -6.500000e-002 3.053113e-018
    endloop
  endfacet
  facet normal 1.000000e+000 -2.732857e-016 5.625130e-017
    outer loop
      vertex   5.500000e-002 -6.500000e-002 -3.000000e+000
      vertex   5.500000e-002 6.500000e-002 -3.000000e+000
      vertex   5.500000e-002 -6.500000e-002 3.053113e-018
    endloop
  endfacet
  facet normal 1.000000e+000 -2.732857e-016 5.625130e-017
    outer loop
      vertex   5.500000e-002 -6.500000e-002 3.053113e-018
      vertex   5.500000e-002 6.500000e-002 -3.000000e+000
      vertex   5.500000e-002 6.500000e-002 3.053113e-018
    endloop
  endfacet
  facet normal 0.000000e+000 0.000000e+000 -1.000000e+000
    outer loop
      vertex   -5.500000e-002 6.500000e-002 -3.000000e+000
      vertex   5.500000e-002 6.500000e-002 -3.000000e+000
      vertex   -5.500000e-002 -6.500000e-002 -3.000000e+000
    endloop
  endfacet
  facet normal 0.000000e+000 0.000000e+000 -1.000000e+000
    outer loop
      vertex   -5.500000e-002 -6.500000e-002 -3.000000e+000
      vertex   5.500000e-002 6.500000e-002 -3.000000e+000
      vertex   5.500000e-002 -6.500000e-002 -3.000000e+000
    endloop
  endfacet
  facet normal -5.551115e-017 2.758255e-032 1.000000e+000
    outer loop
      vertex   5.500000e-002 6.500000e-002 3.053113e-018
      vertex   -5.500000e-002 6.500000e-002 -3.053113e-018
      vertex   5.500000e-002 -6.500000e-002 3.053113e-018
    endloop
  endfacet
  facet normal -5.551115e-017 3.034080e-032 1.000000e+000
    outer loop
      vertex   5.500000e-002 -6.500000e-002 3.053113e-018
      vertex   -5.500000e-002 6.500000e-002 -3.053113e-018
      vertex   -5.500000e-002 -6.500000e-002 -3.053113e-018
    endloop
  endfacet
  facet normal 0.000000e+000 1.000000e+000 0.000000e+000
    outer loop
      vertex   -7.160000e-001 6.500000e-002 7.710000e-001
      vertex   -5.821173e-001 6.500000e-002 7.592868e-001
      vertex   -7.160000e-001 6.500000e-002 6.610000e-001
    endloop
  endfacet
  facet normal 0.000000e+000 1.000000e+000 0.000000e+000
    outer loop
      vertex   -7.160000e-001 6.500000e-002 6.610000e-001
      vertex   -5.821173e-001 6.500000e-002 7.592868e-001
      vertex   -6.012186e-001 6.500000e-002 6.509579e-001
    endloop
  endfacet
  facet normal 0.000000e+000 1.000000e+000 0.000000e+000
    outer loop
      vertex   -6.012186e-001 6.500000e-002 6.509579e-001
      vertex   -5.821173e-001 6.500000e-002 7.592868e-001
      vertex   -4.523025e-001 6.500000e-002 7.245030e-001
    endloop
  endfacet
  facet normal 0.000000e+000 1.000000e+000 0.000000e+000
    outer loop
      vertex   -4.899247e-001 6.500000e-002 6.211368e-001
      vertex   -4.523025e-001 6.500000e-002 7.245030e-001
      vertex   -3.305000e-001 6.500000e-002 6.677056e-001
    endloop
  endfacet
  facet normal 0.000000e+000 1.000000e+000 0.000000e+000
    outer loop
      vertex   -3.855000e-001 6.500000e-002 5.724428e-001
      vertex   -3.305000e-001 6.500000e-002 6.677056e-001
      vertex   -2.204108e-001 6.500000e-002 5.906203e-001
    endloop
  endfacet
  facet normal 0.000000e+000 1.000000e+000 0.000000e+000
    outer loop
      vertex   -2.911174e-001 6.500000e-002 5.063554e-001
      vertex   -2.204108e-001 6.500000e-002 5.906203e-001
      vertex   -1.253797e-001 6.500000e-002 4.955892e-001
    endloop
  endfacet
  facet normal 0.000000e+000 1.000000e+000 0.000000e+000
    outer loop
      vertex   -2.096446e-001 6.500000e-002 4.248826e-001
      vertex   -1.253797e-001 6.500000e-002 4.955892e-001
      vertex   -4.829441e-002 6.500000e-002 3.855000e-001
    endloop
  endfacet
  facet normal 0.000000e+000 1.000000e+000 0.000000e+000
    outer loop
      vertex   -1.435572e-001 6.500000e-002 3.305000e-001
      vertex   -4.829441e-002 6.500000e-002 3.855000e-001
      vertex   8.503011e-003 6.500000e-002 2.636975e-001
    endloop
  endfacet
  facet normal 0.000000e+000 1.000000e+000 0.000000e+000
    outer loop
      vertex   -9.486318e-002 6.500000e-002 2.260753e-001
      vertex   8.503011e-003 6.500000e-002 2.636975e-001
      vertex   4.328678e-002 6.500000e-002 1.338827e-001
    endloop
  endfacet
  facet normal 0.000000e+000 1.000000e+000 0.000000e+000
    outer loop
      vertex   -6.504208e-002 6.500000e-002 1.147814e-001
      vertex   4.328678e-002 6.500000e-002 1.338827e-001
      vertex   5.500000e-002 6.500000e-002 0.000000e+000
    endloop
  endfacet
  facet normal 0.000000e+000 1.000000e+000 0.000000e+000
    outer loop
      vertex   -5.500000e-002 6.500000e-002 0.000000e+000
      vertex   -6.504208e-002 6.500000e-002 1.147814e-001
      vertex   5.500000e-002 6.500000e-002 0.000000e+000
    endloop
  endfacet
  facet normal 0.000000e+000 1.000000e+000 0.000000e+000
    outer loop
      vertex   -6.504208e-002 6.500000e-002 1.147814e-001
      vertex   -9.486318e-002 6.500000e-002 2.260753e-001
      vertex   4.328678e-002 6.500000e-002 1.338827e-001
    endloop
  endfacet
  facet normal 0.000000e+000 1.000000e+000 0.000000e+000
    outer loop
      vertex   -9.486318e-002 6.500000e-002 2.260753e-001
      vertex   -1.435572e-001 6.500000e-002 3.305000e-001
      vertex   8.503011e-003 6.500000e-002 2.636975e-001
    endloop
  endfacet
  facet normal 0.000000e+000 1.000000e+000 0.000000e+000
    outer loop
      vertex   -1.435572e-001 6.500000e-002 3.305000e-001
      vertex   -2.096446e-001 6.500000e-002 4.248826e-001
      vertex   -4.829441e-002 6.500000e-002 3.855000e-001
    endloop
  endfacet
  facet normal 0.000000e+000 1.000000e+000 0.000000e+000
    outer loop
      vertex   -2.096446e-001 6.500000e-002 4.248826e-001
      vertex   -2.911174e-001 6.500000e-002 5.063554e-001
      vertex   -1.253797e-001 6.500000e-002 4.955892e-001
    endloop
  endfacet
  facet normal 0.000000e+000 1.000000e+000 0.000000e+000
    outer loop
      vertex   -2.911174e-001 6.500000e-002 5.063554e-001
      vertex   -3.855000e-001 6.500000e-002 5.724428e-001
      vertex   -2.204108e-001 6.500000e-002 5.906203e-001
    endloop
  endfacet
  facet normal 0.000000e+000 1.000000e+000 0.000000e+000
    outer loop
      vertex   -3.855000e-001 6.500000e-002 5.724428e-001
      vertex   -4.899247e-001 6.500000e-002 6.211368e-001
      vertex   -3.305000e-001 6.500000e-002 6.677056e-001
    endloop
  endfacet
  facet normal 0.000000e+000 1.000000e+000 0.000000e+000
    outer loop
      vertex   -4.899247e-001 6.500000e-002 6.211368e-001
      vertex   -6.012186e-001 6.500000e-002 6.509579e-001
      vertex   -4.523025e-001 6.500000e-002 7.245030e-001
    endloop
  endfacet
  facet normal 8.715574e-002 0.000000e+000 9.961947e-001
    outer loop
      vertex   -7.160000e-001 6.500000e-002 7.710000e-001
      vertex   -7.160000e-001 -6.500000e-002 7.710000e-001
      vertex   -5.821173e-001 6.500000e-002 7.592868e-001
    endloop
  endfacet
  facet normal 8.715574e-002 0.000000e+000 9.961947e-001
    outer loop
      vertex   -5.821173e-001 6.500000e-002 7.592868e-001
      vertex   -7.160000e-001 -6.500000e-002 7.710000e-001
      vertex   -5.821173e-001 -6.500000e-002 7.592868e-001
    endloop
  endfacet
  facet normal 2.588190e-001 0.000000e+000 9.659258e-001
    outer loop
      vertex   -4.523025e-001 6.500000e-002 7.245030e-001
      vertex   -5.821173e-001 -6.500000e-002 7.592868e-001
      vertex   -4.523025e-001 -6.500000e-002 7.245030e-001
    endloop
  endfacet
  facet normal 4.226183e-001 0.000000e+000 9.063078e-001
    outer loop
      vertex   -3.305000e-001 6.500000e-002 6.677056e-001
      vertex   -4.523025e-001 -6.500000e-002 7.245030e-001
      vertex   -3.305000e-001 -6.500000e-002 6.677056e-001
    endloop
  endfacet
  facet normal 5.735764e-001 0.000000e+000 8.191520e-001
    outer loop
      vertex   -2.204108e-001 6.500000e-002 5.906203e-001
      vertex   -3.305000e-001 -6.500000e-002 6.677056e-001
      vertex   -2.204108e-001 -6.500000e-002 5.906203e-001
    endloop
  endfacet
  facet normal 7.071068e-001 0.000000e+000 7.071068e-001
    outer loop
      vertex   -1.253797e-001 6.500000e-002 4.955892e-001
      vertex   -2.204108e-001 -6.500000e-002 5.906203e-001
      vertex   -1.253797e-001 -6.500000e-002 4.955892e-001
    endloop
  endfacet
  facet normal 8.191520e-001 0.000000e+000 5.735764e-001
    outer loop
      vertex   -4.829441e-002 6.500000e-002 3.855000e-001
      vertex   -1.253797e-001 -6.500000e-002 4.955892e-001
      vertex   -4.829441e-002 -6.500000e-002 3.855000e-001
    endloop
  endfacet
  facet normal 9.063078e-001 0.000000e+000 4.226183e-001
    outer loop
      vertex   8.503011e-003 6.500000e-002 2.636975e-001
      vertex   -4.829441e-002 -6.500000e-002 3.855000e-001
      vertex   8.503011e-003 -6.500000e-002 2.636975e-001
    endloop
  endfacet
  facet normal 9.659258e-001 0.000000e+000 2.588190e-001
    outer loop
      vertex   4.328678e-002 6.500000e-002 1.338827e-001
      vertex   8.503011e-003 -6.500000e-002 2.636975e-001
      vertex   4.328678e-002 -6.500000e-002 1.338827e-001
    endloop
  endfacet
  facet normal 9.961947e-001 0.000000e+000 8.715574e-002
    outer loop
      vertex   5.500000e-002 6.500000e-002 0.000000e+000
      vertex   4.328678e-002 -6.500000e-002 1.338827e-001
      vertex   5.500000e-002 -6.500000e-002 0.000000e+000
    endloop
  endfacet
  facet normal 9.961947e-001 0.000000e+000 8.715574e-002
    outer loop
      vertex   5.500000e-002 6.500000e-002 0.000000e+000
      vertex   4.328678e-002 6.500000e-002 1.338827e-001
      vertex   4.328678e-002 -6.500000e-002 1.338827e-001
    endloop
  endfacet
  facet normal 9.659258e-001 0.000000e+000 2.588190e-001
    outer loop
      vertex   4.328678e-002 6.500000e-002 1.338827e-001
      vertex   8.503011e-003 6.500000e-002 2.636975e-001
      vertex   8.503011e-003 -6.500000e-002 2.636975e-001
    endloop
  endfacet
  facet normal 9.063078e-001 0.000000e+000 4.226183e-001
    outer loop
      vertex   8.503011e-003 6.500000e-002 2.636975e-001
      vertex   -4.829441e-002 6.500000e-002 3.855000e-001
      vertex   -4.829441e-002 -6.500000e-002 3.855000e-001
    endloop
  endfacet
  facet normal 8.191520e-001 0.000000e+000 5.735764e-001
    outer loop
      vertex   -4.829441e-002 6.500000e-002 3.855000e-001
      vertex   -1.253797e-001 6.500000e-002 4.955892e-001
      vertex   -1.253797e-001 -6.500000e-002 4.955892e-001
    endloop
  endfacet
  facet normal 7.071068e-001 0.000000e+000 7.071068e-001
    outer loop
      vertex   -1.253797e-001 6.500000e-002 4.955892e-001
      vertex   -2.204108e-001 6.500000e-002 5.906203e-001
      vertex   -2.204108e-001 -6.500000e-002 5.906203e-001
    endloop
  endfacet
  facet normal 5.735764e-001 0.000000e+000 8.191520e-001
    outer loop
      vertex   -2.204108e-001 6.500000e-002 5.906203e-001
      vertex   -3.305000e-001 6.500000e-002 6.677056e-001
      vertex   -3.305000e-001 -6.500000e-002 6.677056e-001
    endloop
  endfacet
  facet normal 4.226183e-001 0.000000e+000 9.063078e-001
    outer loop
      vertex   -3.305000e-001 6.500000e-002 6.677056e-001
      vertex   -4.523025e-001 6.500000e-002 7.245030e-001
      vertex   -4.523025e-001 -6.500000e-002 7.245030e-001
    endloop
  endfacet
  facet normal 2.588190e-001 0.000000e+000 9.659258e-001
    outer loop
      vertex   -4.523025e-001 6.500000e-002 7.245030e-001
      vertex   -5.821173e-001 6.500000e-002 7.592868e-001
      vertex   -5.821173e-001 -6.500000e-002 7.592868e-001
    endloop
  endfacet
  facet normal 0.000000e+000 -1.000000e+000 0.000000e+000
    outer loop
      vertex   -7.160000e-001 -6.500000e-002 7.710000e-001
      vertex   -7.160000e-001 -6.500000e-002 6.610000e-001
      vertex   -5.821173e-001 -6.500000e-002 7.592868e-001
    endloop
  endfacet
  facet normal 0.000000e+000 -1.000000e+000 0.000000e+000
    outer loop
      vertex   -5.821173e-001 -6.500000e-002 7.592868e-001
      vertex   -7.160000e-001 -6.500000e-002 6.610000e-001
      vertex   -6.012186e-001 -6.500000e-002 6.509579e-001
    endloop
  endfacet
  facet normal 0.000000e+000 -1.000000e+000 0.000000e+000
    outer loop
      vertex   -4.523025e-001 -6.500000e-002 7.245030e-001
      vertex   -6.012186e-001 -6.500000e-002 6.509579e-001
      vertex   -4.899247e-001 -6.500000e-002 6.211368e-001
    endloop
  endfacet
  facet normal 0.000000e+000 -1.000000e+000 0.000000e+000
    outer loop
      vertex   -3.305000e-001 -6.500000e-002 6.677056e-001
      vertex   -4.899247e-001 -6.500000e-002 6.211368e-001
      vertex   -3.855000e-001 -6.500000e-002 5.724428e-001
    endloop
  endfacet
  facet normal 0.000000e+000 -1.000000e+000 0.000000e+000
    outer loop
      vertex   -2.204108e-001 -6.500000e-002 5.906203e-001
      vertex   -3.855000e-001 -6.500000e-002 5.724428e-001
      vertex   -2.911174e-001 -6.500000e-002 5.063554e-001
    endloop
  endfacet
  facet normal 0.000000e+000 -1.000000e+000 0.000000e+000
    outer loop
      vertex   -1.253797e-001 -6.500000e-002 4.955892e-001
      vertex   -2.911174e-001 -6.500000e-002 5.063554e-001
      vertex   -2.096446e-001 -6.500000e-002 4.248826e-001
    endloop
  endfacet
  facet normal 0.000000e+000 -1.000000e+000 0.000000e+000
    outer loop
      vertex   -4.829441e-002 -6.500000e-002 3.855000e-001
      vertex   -2.096446e-001 -6.500000e-002 4.248826e-001
      vertex   -1.435572e-001 -6.500000e-002 3.305000e-001
    endloop
  endfacet
  facet normal 0.000000e+000 -1.000000e+000 0.000000e+000
    outer loop
      vertex   8.503011e-003 -6.500000e-002 2.636975e-001
      vertex   -1.435572e-001 -6.500000e-002 3.305000e-001
      vertex   -9.486318e-002 -6.500000e-002 2.260753e-001
    endloop
  endfacet
  facet normal 0.000000e+000 -1.000000e+000 0.000000e+000
    outer loop
      vertex   4.328678e-002 -6.500000e-002 1.338827e-001
      vertex   -9.486318e-002 -6.500000e-002 2.260753e-001
      vertex   -6.504208e-002 -6.500000e-002 1.147814e-001
    endloop
  endfacet
  facet normal 0.000000e+000 -1.000000e+000 0.000000e+000
    outer loop
      vertex   5.500000e-002 -6.500000e-002 0.000000e+000
      vertex   -6.504208e-002 -6.500000e-002 1.147814e-001
      vertex   -5.500000e-002 -6.500000e-002 0.000000e+000
    endloop
  endfacet
  facet normal 0.000000e+000 -1.000000e+000 0.000000e+000
    outer loop
      vertex   5.500000e-002 -6.500000e-002 0.000000e+000
      vertex   4.328678e-002 -6.500000e-002 1.338827e-001
      vertex   -6.504208e-002 -6.500000e-002 1.147814e-001
    endloop
  endfacet
  facet normal 0.000000e+000 -1.000000e+000 0.000000e+000
    outer loop
      vertex   4.328678e-002 -6.500000e-002 1.338827e-001
      vertex   8.503011e-003 -6.500000e-002 2.636975e-001
      vertex   -9.486318e-002 -6.500000e-002 2.260753e-001
    endloop
  endfacet
  facet normal 0.000000e+000 -1.000000e+000 0.000000e+000
    outer loop
      vertex   8.503011e-003 -6.500000e-002 2.636975e-001
      vertex   -4.829441e-002 -6.500000e-002 3.855000e-001
      vertex   -1.435572e-001 -6.500000e-002 3.305000e-001
    endloop
  endfacet
  facet normal 0.000000e+000 -1.000000e+000 0.000000e+000
    outer loop
      vertex   -4.829441e-002 -6.500000e-002 3.855000e-001
      vertex   -1.253797e-001 -6.500000e-002 4.955892e-001
      vertex   -2.096446e-001 -6.500000e-002 4.248826e-001
    endloop
  endfacet
  facet normal 0.000000e+000 -1.000000e+000 0.000000e+000
    outer loop
      vertex   -1.253797e-001 -6.500000e-002 4.955892e-001
      vertex   -2.204108e-001 -6.500000e-002 5.906203e-001
      vertex   -2.911174e-001 -6.500000e-002 5.063554e-001
    endloop
  endfacet
  facet normal 0.000000e+000 -1.000000e+000 0.000000e+000
    outer loop
      vertex   -2.204108e-001 -6.500000e-002 5.906203e-001
      vertex   -3.305000e-001 -6.500000e-002 6.677056e-001
      vertex   -3.855000e-001 -6.500000e-002 5.724428e-001
    endloop
  endfacet
  facet normal 0.000000e+000 -1.000000e+000 0.000000e+000
    outer loop
      vertex   -3.305000e-001 -6.500000e-002 6.677056e-001
      vertex   -4.523025e-001 -6.500000e-002 7.245030e-001
      vertex   -4.899247e-001 -6.500000e-002 6.211368e-001
    endloop
  endfacet
  facet normal 0.000000e+000 -1.000000e+000 0.000000e+000
    outer loop
      vertex   -4.523025e-001 -6.500000e-002 7.245030e-001
      vertex   -5.821173e-001 -6.500000e-002 7.592868e-001
      vertex   -6.012186e-001 -6.500000e-002 6.509579e-001
    endloop
  endfacet
  facet normal -8.715574e-002 0.000000e+000 -9.961947e-001
    outer loop
      vertex   -7.160000e-001 -6.500000e-002 6.610000e-001
      vertex   -7.160000e-001 6.500000e-002 6.610000e-001
      vertex   -6.012186e-001 -6.500000e-002 6.509579e-001
    endloop
  endfacet
  facet normal -8.715574e-002 0.000000e+000 -9.961947e-001
    outer loop
      vertex   -6.012186e-001 -6.500000e-002 6.509579e-001
      vertex   -7.160000e-001 6.500000e-002 6.610000e-001
      vertex   -6.012186e-001 6.500000e-002 6.509579e-001
    endloop
  endfacet
  facet normal -2.588190e-001 0.000000e+000 -9.659258e-001
    outer loop
      vertex   -4.899247e-001 -6.500000e-002 6.211368e-001
      vertex   -6.012186e-001 6.500000e-002 6.509579e-001
      vertex   -4.899247e-001 6.500000e-002 6.211368e-001
    endloop
  endfacet
  facet normal -4.226183e-001 0.000000e+000 -9.063078e-001
    outer loop
      vertex   -3.855000e-001 -6.500000e-002 5.724428e-001
      vertex   -4.899247e-001 6.500000e-002 6.211368e-001
      vertex   -3.855000e-001 6.500000e-002 5.724428e-001
    endloop
  endfacet
  facet normal -5.735764e-001 0.000000e+000 -8.191520e-001
    outer loop
      vertex   -2.911174e-001 -6.500000e-002 5.063554e-001
      vertex   -3.855000e-001 6.500000e-002 5.724428e-001
      vertex   -2.911174e-001 6.500000e-002 5.063554e-001
    endloop
  endfacet
  facet normal -7.071068e-001 0.000000e+000 -7.071068e-001
    outer loop
      vertex   -2.096446e-001 -6.500000e-002 4.248826e-001
      vertex   -2.911174e-001 6.500000e-002 5.063554e-001
      vertex   -2.096446e-001 6.500000e-002 4.248826e-001
    endloop
  endfacet
  facet normal -8.191520e-001 0.000000e+000 -5.735764e-001
    outer loop
      vertex   -1.435572e-001 -6.500000e-002 3.305000e-001
      vertex   -2.096446e-001 6.500000e-002 4.248826e-001
      vertex   -1.435572e-001 6.500000e-002 3.305000e-001
    endloop
  endfacet
  facet normal -9.063078e-001 0.000000e+000 -4.226183e-001
    outer loop
      vertex   -9.486318e-002 -6.500000e-002 2.260753e-001
      vertex   -1.435572e-001 6.500000e-002 3.305000e-001
      vertex   -9.486318e-002 6.500000e-002 2.260753e-001
    endloop
  endfacet
  facet normal -9.659258e-001 0.000000e+000 -2.588190e-001
    outer loop
      vertex   -6.504208e-002 -6.500000e-002 1.147814e-001
      vertex   -9.486318e-002 6.500000e-002 2.260753e-001
      vertex   -6.504208e-002 6.500000e-002 1.147814e-001
    endloop
  endfacet
  facet normal -9.961947e-001 0.000000e+000 -8.715574e-002
    outer loop
      vertex   -5.500000e-002 -6.500000e-002 0.000000e+000
      vertex   -6.504208e-002 6.500000e-002 1.147814e-001
      vertex   -5.500000e-002 6.500000e-002 0.000000e+000
    endloop
  endfacet
  facet normal -9.961947e-001 0.000000e+000 -8.715574e-002
    outer loop
      vertex   -5.500000e-002 -6.500000e-002 0.000000e+000
      vertex   -6.504208e-002 -6.500000e-002 1.147814e-001
      vertex   -6.504208e-002 6.500000e-002 1.147814e-001
    endloop
  endfacet
  facet normal -9.659258e-001 0.000000e+000 -2.588190e-001
    outer loop
      vertex   -6.504208e-002 -6.500000e-002 1.147814e-001
      vertex   -9.486318e-002 -6.500000e-002 2.260753e-001
      vertex   -9.486318e-002 6.500000e-002 2.260753e-001
    endloop
  endfacet
  facet normal -9.063078e-001 0.000000e+000 -4.226183e-001
    outer loop
      vertex   -9.486318e-002 -6.500000e-002 2.260753e-001
      vertex   -1.435572e-001 -6.500000e-002 3.305000e-001
      vertex   -1.435572e-001 6.500000e-002 3.305000e-001
    endloop
  endfacet
  facet normal -8.191520e-001 0.000000e+000 -5.735764e-001
    outer loop
      vertex   -1.435572e-001 -6.500000e-002 3.305000e-001
      vertex   -2.096446e-001 -6.500000e-002 4.248826e-001
      vertex   -2.096446e-001 6.500000e-002 4.248826e-001
    endloop
  endfacet
  facet normal -7.071068e-001 0.000000e+000 -7.071068e-001
    outer loop
      vertex   -2.096446e-001 -6.500000e-002 4.248826e-001
      vertex   -2.911174e-001 -6.500000e-002 5.063554e-001
      vertex   -2.911174e-001 6.500000e-002 5.063554e-001
    endloop
  endfacet
  facet normal -5.735764e-001 0.000000e+000 -8.191520e-001
    outer loop
      vertex   -2.911174e-001 -6.500000e-002 5.063554e-001
      vertex   -3.855000e-001 -6.500000e-002 5.724428e-001
      vertex   -3.855000e-001 6.500000e-002 5.724428e-001
    endloop
  endfacet
  facet normal -4.226183e-001 0.000000e+000 -9.063078e-001
    outer loop
      vertex   -3.855000e-001 -6.500000e-002 5.724428e-001
      vertex   -4.899247e-001 -6.500000e-002 6.211368e-001
      vertex   -4.899247e-001 6.500000e-002 6.211368e-001
    endloop
  endfacet
  facet normal -2.588190e-001 0.000000e+000 -9.659258e-001
    outer loop
      vertex   -4.899247e-001 -6.500000e-002 6.211368e-001
      vertex   -6.012186e-001 -6.500000e-002 6.509579e-001
      vertex   -6.012186e-001 6.500000e-002 6.509579e-001
    endloop
  endfacet
  facet normal -1.000000e+000 0.000000e+000 -3.875688e-015
    outer loop
      vertex   -7.160000e-001 6.500000e-002 7.710000e-001
      vertex   -7.160000e-001 6.500000e-002 6.610000e-001
      vertex   -7.160000e-001 -6.500000e-002 7.710000e-001
    endloop
  endfacet
  facet normal -1.000000e+000 0.000000e+000 -3.875688e-015
    outer loop
      vertex   -7.160000e-001 -6.500000e-002 7.710000e-001
      vertex   -7.160000e-001 6.500000e-002 6.610000e-001
      vertex   -7.160000e-001 -6.500000e-002 6.610000e-001
    endloop
  endfacet
  facet normal 0.000000e+000 0.000000e+000 -1.000000e+000
    outer loop
      vertex   -5.500000e-002 6.500000e-002 0.000000e+000
      vertex   5.500000e-002 6.500000e-002 0.000000e+000
      vertex   -5.500000e-002 -6.500000e-002 0.000000e+000
    endloop
  endfacet
  facet normal 0.000000e+000 0.000000e+000 -1.000000e+000
    outer loop
      vertex   -5.500000e-002 -6.500000e-002 0.000000e+000
      vertex   5.500000e-002 6.500000e-002 0.000000e+000
      vertex   5.500000e-002 -6.500000e-002 0.000000e+000
    endloop
  endfacet
endsolid
