solid stl file generated from AC3D
 facet normal 0.000000 -1.000000 0.000000
  outer loop
   vertex -0.040211 -0.055641 -0.005425
   vertex 0.040211 -0.055641 0.005425
   vertex -0.040211 -0.055641 0.005425
  endloop
 endfacet
 facet normal 0.000000 -1.000000 0.000000
  outer loop
   vertex 0.040211 -0.055641 0.005425
   vertex -0.040211 -0.055641 -0.005425
   vertex 0.040211 -0.055641 -0.005425
  endloop
 endfacet
 facet normal 0.000000 1.000000 0.000000
  outer loop
   vertex 0.040211 0.055641 -0.005425
   vertex -0.040211 0.055641 0.005425
   vertex 0.040211 0.055641 0.005425
  endloop
 endfacet
 facet normal 0.000000 1.000000 0.000000
  outer loop
   vertex -0.040211 0.055641 0.005425
   vertex 0.040211 0.055641 -0.005425
   vertex -0.040211 0.055641 -0.005425
  endloop
 endfacet
 facet normal 0.000000 0.000000 1.000000
  outer loop
   vertex -0.040211 0.055641 0.005425
   vertex 0.040211 -0.055641 0.005425
   vertex 0.040211 0.055641 0.005425
  endloop
 endfacet
 facet normal 0.000000 0.000000 1.000000
  outer loop
   vertex 0.040211 -0.055641 0.005425
   vertex -0.040211 0.055641 0.005425
   vertex -0.040211 -0.055641 0.005425
  endloop
 endfacet
 facet normal 0.000000 0.000000 -1.000000
  outer loop
   vertex -0.040211 -0.055641 -0.005425
   vertex 0.040211 0.055641 -0.005425
   vertex 0.040211 -0.055641 -0.005425
  endloop
 endfacet
 facet normal 0.000000 0.000000 -1.000000
  outer loop
   vertex 0.040211 0.055641 -0.005425
   vertex -0.040211 -0.055641 -0.005425
   vertex -0.040211 0.055641 -0.005425
  endloop
 endfacet
 facet normal -1.000000 0.000000 0.000000
  outer loop
   vertex -0.040211 -0.055641 -0.005425
   vertex -0.040211 0.055641 0.005425
   vertex -0.040211 0.055641 -0.005425
  endloop
 endfacet
 facet normal -1.000000 0.000000 0.000000
  outer loop
   vertex -0.040211 0.055641 0.005425
   vertex -0.040211 -0.055641 -0.005425
   vertex -0.040211 -0.055641 0.005425
  endloop
 endfacet
 facet normal 1.000000 0.000000 0.000000
  outer loop
   vertex 0.040211 -0.055641 0.005425
   vertex 0.040211 0.055641 -0.005425
   vertex 0.040211 0.055641 0.005425
  endloop
 endfacet
 facet normal 1.000000 0.000000 0.000000
  outer loop
   vertex 0.040211 0.055641 -0.005425
   vertex 0.040211 -0.055641 0.005425
   vertex 0.040211 -0.055641 -0.005425
  endloop
 endfacet
endsolid
