solid stl file generated from AC3D
 facet normal 0.000000 -1.000000 0.000000
  outer loop
   vertex -0.410000 -0.090000 -0.050000
   vertex 0.410000 -0.090000 0.130000
   vertex -0.410000 -0.090000 0.130000
  endloop
 endfacet
 facet normal 0.000000 -1.000000 0.000000
  outer loop
   vertex 0.410000 -0.090000 0.130000
   vertex -0.410000 -0.090000 -0.050000
   vertex 0.410000 -0.090000 -0.050000
  endloop
 endfacet
 facet normal 0.000000 1.000000 0.000000
  outer loop
   vertex 0.410000 0.172146 -0.050000
   vertex -0.410000 0.172146 0.130000
   vertex 0.410000 0.172146 0.130000
  endloop
 endfacet
 facet normal 0.000000 1.000000 0.000000
  outer loop
   vertex -0.410000 0.172146 0.130000
   vertex 0.410000 0.172146 -0.050000
   vertex -0.410000 0.172146 -0.050000
  endloop
 endfacet
 facet normal 0.000000 0.000000 1.000000
  outer loop
   vertex -0.410000 0.172146 0.130000
   vertex 0.410000 -0.090000 0.130000
   vertex 0.410000 0.172146 0.130000
  endloop
 endfacet
 facet normal 0.000000 0.000000 1.000000
  outer loop
   vertex 0.410000 -0.090000 0.130000
   vertex -0.410000 0.172146 0.130000
   vertex -0.410000 -0.090000 0.130000
  endloop
 endfacet
 facet normal 0.000000 0.000000 -1.000000
  outer loop
   vertex -0.410000 -0.090000 -0.050000
   vertex 0.410000 0.172146 -0.050000
   vertex 0.410000 -0.090000 -0.050000
  endloop
 endfacet
 facet normal 0.000000 0.000000 -1.000000
  outer loop
   vertex 0.410000 0.172146 -0.050000
   vertex -0.410000 -0.090000 -0.050000
   vertex -0.410000 0.172146 -0.050000
  endloop
 endfacet
 facet normal -1.000000 0.000000 0.000000
  outer loop
   vertex -0.410000 -0.090000 -0.050000
   vertex -0.410000 0.172146 0.130000
   vertex -0.410000 0.172146 -0.050000
  endloop
 endfacet
 facet normal -1.000000 0.000000 0.000000
  outer loop
   vertex -0.410000 0.172146 0.130000
   vertex -0.410000 -0.090000 -0.050000
   vertex -0.410000 -0.090000 0.130000
  endloop
 endfacet
 facet normal 1.000000 0.000000 0.000000
  outer loop
   vertex 0.410000 -0.090000 0.130000
   vertex 0.410000 0.172146 -0.050000
   vertex 0.410000 0.172146 0.130000
  endloop
 endfacet
 facet normal 1.000000 0.000000 0.000000
  outer loop
   vertex 0.410000 0.172146 -0.050000
   vertex 0.410000 -0.090000 0.130000
   vertex 0.410000 -0.090000 -0.050000
  endloop
 endfacet
endsolid
