solid stl file generated from AC3D
 facet normal -0.525889 -0.322490 0.787046
  outer loop
   vertex -0.031820 0.113516 0.076820
   vertex -0.052914 0.089574 0.052914
   vertex -0.028637 0.089574 0.069136
  endloop
 endfacet
 facet normal -0.525889 -0.322490 0.787046
  outer loop
   vertex -0.052914 0.089574 0.052914
   vertex -0.031820 0.113516 0.076820
   vertex -0.058795 0.113516 0.058795
  endloop
 endfacet
 facet normal -0.545469 0.189836 0.816349
  outer loop
   vertex -0.058695 0.219609 0.048895
   vertex -0.033680 0.193629 0.071652
   vertex -0.031720 0.219609 0.066920
  endloop
 endfacet
 facet normal -0.545469 0.189836 0.816349
  outer loop
   vertex -0.033680 0.193629 0.071652
   vertex -0.058695 0.219609 0.048895
   vertex -0.062317 0.193629 0.052517
  endloop
 endfacet
 facet normal -0.006641 0.999929 0.009939
  outer loop
   vertex -0.033680 0.193629 0.071652
   vertex -0.062417 0.193530 0.062417
   vertex -0.033780 0.193530 0.081551
  endloop
 endfacet
 facet normal -0.006641 0.999929 0.009939
  outer loop
   vertex -0.062417 0.193530 0.062417
   vertex -0.033680 0.193629 0.071652
   vertex -0.062317 0.193629 0.052517
  endloop
 endfacet
 facet normal 0.990550 -0.136878 0.008636
  outer loop
   vertex -0.058795 0.219510 0.058795
   vertex -0.062317 0.193629 0.052517
   vertex -0.058695 0.219609 0.048895
  endloop
 endfacet
 facet normal 0.990550 -0.136878 0.008636
  outer loop
   vertex -0.062317 0.193629 0.052517
   vertex -0.058795 0.219510 0.058795
   vertex -0.062417 0.193530 0.062417
  endloop
 endfacet
 facet normal 0.006629 -0.999929 -0.009921
  outer loop
   vertex -0.058795 0.219510 0.058795
   vertex -0.031720 0.219609 0.066920
   vertex -0.031820 0.219510 0.076820
  endloop
 endfacet
 facet normal 0.006629 -0.999929 -0.009921
  outer loop
   vertex -0.031720 0.219609 0.066920
   vertex -0.058795 0.219510 0.058795
   vertex -0.058695 0.219609 0.048895
  endloop
 endfacet
 facet normal -0.997249 0.073532 -0.009339
  outer loop
   vertex -0.033680 0.193629 0.071652
   vertex -0.031820 0.219510 0.076820
   vertex -0.031720 0.219609 0.066920
  endloop
 endfacet
 facet normal -0.997249 0.073532 -0.009339
  outer loop
   vertex -0.031820 0.219510 0.076820
   vertex -0.033680 0.193629 0.071652
   vertex -0.033780 0.193530 0.081551
  endloop
 endfacet
 facet normal 0.545469 0.189836 0.816349
  outer loop
   vertex 0.058895 0.219609 0.048895
   vertex 0.033880 0.193629 0.071652
   vertex 0.062517 0.193629 0.052517
  endloop
 endfacet
 facet normal 0.545469 0.189836 0.816349
  outer loop
   vertex 0.033880 0.193629 0.071652
   vertex 0.058895 0.219609 0.048895
   vertex 0.031920 0.219609 0.066920
  endloop
 endfacet
 facet normal 0.006731 0.999927 0.010074
  outer loop
   vertex 0.062417 0.193530 0.062417
   vertex 0.033880 0.193629 0.071652
   vertex 0.033780 0.193530 0.081551
  endloop
 endfacet
 facet normal 0.006731 0.999927 0.010074
  outer loop
   vertex 0.033880 0.193629 0.071652
   vertex 0.062417 0.193530 0.062417
   vertex 0.062517 0.193629 0.052517
  endloop
 endfacet
 facet normal 0.996958 0.077186 0.010843
  outer loop
   vertex 0.031820 0.219510 0.076820
   vertex 0.033880 0.193629 0.071652
   vertex 0.031920 0.219609 0.066920
  endloop
 endfacet
 facet normal 0.996958 0.077186 0.010843
  outer loop
   vertex 0.033880 0.193629 0.071652
   vertex 0.031820 0.219510 0.076820
   vertex 0.033780 0.193530 0.081551
  endloop
 endfacet
 facet normal -0.006719 -0.999927 -0.010055
  outer loop
   vertex 0.031920 0.219609 0.066920
   vertex 0.058795 0.219510 0.058795
   vertex 0.031820 0.219510 0.076820
  endloop
 endfacet
 facet normal -0.006719 -0.999927 -0.010055
  outer loop
   vertex 0.058795 0.219510 0.058795
   vertex 0.031920 0.219609 0.066920
   vertex 0.058895 0.219609 0.048895
  endloop
 endfacet
 facet normal -0.990141 -0.139613 -0.011396
  outer loop
   vertex 0.062517 0.193629 0.052517
   vertex 0.058795 0.219510 0.058795
   vertex 0.058895 0.219609 0.048895
  endloop
 endfacet
 facet normal -0.990141 -0.139613 -0.011396
  outer loop
   vertex 0.058795 0.219510 0.058795
   vertex 0.062517 0.193629 0.052517
   vertex 0.062417 0.193530 0.062417
  endloop
 endfacet
 facet normal 0.149769 0.988272 -0.029790
  outer loop
   vertex -0.000000 0.305000 -0.000000
   vertex 0.017558 0.302339 -0.000000
   vertex 0.016222 0.302339 -0.006719
  endloop
 endfacet
 facet normal 0.126968 0.988272 -0.084836
  outer loop
   vertex -0.000000 0.305000 -0.000000
   vertex 0.016222 0.302339 -0.006719
   vertex 0.012416 0.302339 -0.012416
  endloop
 endfacet
 facet normal 0.084837 0.988272 -0.126968
  outer loop
   vertex -0.000000 0.305000 -0.000000
   vertex 0.012416 0.302339 -0.012416
   vertex 0.006719 0.302339 -0.016222
  endloop
 endfacet
 facet normal 0.029790 0.988272 -0.149769
  outer loop
   vertex -0.000000 0.305000 -0.000000
   vertex 0.006719 0.302339 -0.016222
   vertex 0.000000 0.302339 -0.017558
  endloop
 endfacet
 facet normal -0.029790 0.988272 -0.149769
  outer loop
   vertex -0.000000 0.305000 -0.000000
   vertex 0.000000 0.302339 -0.017558
   vertex -0.006719 0.302339 -0.016222
  endloop
 endfacet
 facet normal -0.084837 0.988272 -0.126968
  outer loop
   vertex -0.000000 0.305000 -0.000000
   vertex -0.006719 0.302339 -0.016222
   vertex -0.012416 0.302339 -0.012416
  endloop
 endfacet
 facet normal -0.126968 0.988272 -0.084837
  outer loop
   vertex -0.000000 0.305000 -0.000000
   vertex -0.012416 0.302339 -0.012416
   vertex -0.016222 0.302339 -0.006719
  endloop
 endfacet
 facet normal -0.149769 0.988272 -0.029790
  outer loop
   vertex -0.000000 0.305000 -0.000000
   vertex -0.016222 0.302339 -0.006719
   vertex -0.017558 0.302339 -0.000000
  endloop
 endfacet
 facet normal -0.149769 0.988272 0.029790
  outer loop
   vertex -0.000000 0.305000 -0.000000
   vertex -0.017558 0.302339 -0.000000
   vertex -0.016222 0.302339 0.006719
  endloop
 endfacet
 facet normal -0.126968 0.988272 0.084837
  outer loop
   vertex -0.000000 0.305000 -0.000000
   vertex -0.016222 0.302339 0.006719
   vertex -0.012416 0.302339 0.012415
  endloop
 endfacet
 facet normal -0.084837 0.988272 0.126968
  outer loop
   vertex -0.000000 0.305000 -0.000000
   vertex -0.012416 0.302339 0.012415
   vertex -0.006719 0.302339 0.016222
  endloop
 endfacet
 facet normal -0.029790 0.988272 0.149769
  outer loop
   vertex -0.000000 0.305000 -0.000000
   vertex -0.006719 0.302339 0.016222
   vertex 0.000000 0.302339 0.017558
  endloop
 endfacet
 facet normal 0.029790 0.988272 0.149769
  outer loop
   vertex -0.000000 0.305000 -0.000000
   vertex 0.000000 0.302339 0.017558
   vertex 0.006719 0.302339 0.016222
  endloop
 endfacet
 facet normal 0.084837 0.988272 0.126968
  outer loop
   vertex -0.000000 0.305000 -0.000000
   vertex 0.006719 0.302339 0.016222
   vertex 0.012416 0.302339 0.012415
  endloop
 endfacet
 facet normal 0.126968 0.988272 0.084836
  outer loop
   vertex -0.000000 0.305000 -0.000000
   vertex 0.012416 0.302339 0.012415
   vertex 0.016222 0.302339 0.006719
  endloop
 endfacet
 facet normal 0.149769 0.988272 0.029790
  outer loop
   vertex -0.000000 0.305000 -0.000000
   vertex 0.016222 0.302339 0.006719
   vertex 0.017558 0.302339 -0.000000
  endloop
 endfacet
 facet normal 0.149769 -0.988272 -0.029790
  outer loop
   vertex -0.000000 0.028026 -0.000000
   vertex 0.016222 0.030687 -0.006719
   vertex 0.017558 0.030687 -0.000000
  endloop
 endfacet
 facet normal 0.126968 -0.988272 -0.084836
  outer loop
   vertex -0.000000 0.028026 -0.000000
   vertex 0.012416 0.030687 -0.012416
   vertex 0.016222 0.030687 -0.006719
  endloop
 endfacet
 facet normal 0.084837 -0.988272 -0.126968
  outer loop
   vertex -0.000000 0.028026 -0.000000
   vertex 0.006719 0.030687 -0.016222
   vertex 0.012416 0.030687 -0.012416
  endloop
 endfacet
 facet normal 0.029790 -0.988272 -0.149769
  outer loop
   vertex -0.000000 0.028026 -0.000000
   vertex 0.000000 0.030687 -0.017558
   vertex 0.006719 0.030687 -0.016222
  endloop
 endfacet
 facet normal -0.029790 -0.988272 -0.149769
  outer loop
   vertex -0.000000 0.028026 -0.000000
   vertex -0.006719 0.030687 -0.016222
   vertex 0.000000 0.030687 -0.017558
  endloop
 endfacet
 facet normal -0.084837 -0.988272 -0.126968
  outer loop
   vertex -0.000000 0.028026 -0.000000
   vertex -0.012416 0.030687 -0.012416
   vertex -0.006719 0.030687 -0.016222
  endloop
 endfacet
 facet normal -0.126968 -0.988272 -0.084837
  outer loop
   vertex -0.000000 0.028026 -0.000000
   vertex -0.016222 0.030687 -0.006719
   vertex -0.012416 0.030687 -0.012416
  endloop
 endfacet
 facet normal -0.149769 -0.988272 -0.029790
  outer loop
   vertex -0.000000 0.028026 -0.000000
   vertex -0.017558 0.030687 -0.000000
   vertex -0.016222 0.030687 -0.006719
  endloop
 endfacet
 facet normal -0.149769 -0.988272 0.029790
  outer loop
   vertex -0.000000 0.028026 -0.000000
   vertex -0.016222 0.030687 0.006719
   vertex -0.017558 0.030687 -0.000000
  endloop
 endfacet
 facet normal -0.126968 -0.988272 0.084837
  outer loop
   vertex -0.000000 0.028026 -0.000000
   vertex -0.012416 0.030687 0.012415
   vertex -0.016222 0.030687 0.006719
  endloop
 endfacet
 facet normal -0.084837 -0.988272 0.126968
  outer loop
   vertex -0.000000 0.028026 -0.000000
   vertex -0.006719 0.030687 0.016222
   vertex -0.012416 0.030687 0.012415
  endloop
 endfacet
 facet normal -0.029790 -0.988272 0.149769
  outer loop
   vertex -0.000000 0.028026 -0.000000
   vertex 0.000000 0.030687 0.017558
   vertex -0.006719 0.030687 0.016222
  endloop
 endfacet
 facet normal 0.029790 -0.988272 0.149769
  outer loop
   vertex -0.000000 0.028026 -0.000000
   vertex 0.006719 0.030687 0.016222
   vertex 0.000000 0.030687 0.017558
  endloop
 endfacet
 facet normal 0.084837 -0.988272 0.126968
  outer loop
   vertex -0.000000 0.028026 -0.000000
   vertex 0.012416 0.030687 0.012415
   vertex 0.006719 0.030687 0.016222
  endloop
 endfacet
 facet normal 0.126968 -0.988272 0.084836
  outer loop
   vertex -0.000000 0.028026 -0.000000
   vertex 0.016222 0.030687 0.006719
   vertex 0.012416 0.030687 0.012415
  endloop
 endfacet
 facet normal 0.149769 -0.988272 0.029790
  outer loop
   vertex -0.000000 0.028026 -0.000000
   vertex 0.017558 0.030687 -0.000000
   vertex 0.016222 0.030687 0.006719
  endloop
 endfacet
 facet normal 0.421485 0.902952 -0.083837
  outer loop
   vertex 0.034442 0.294458 -0.000000
   vertex 0.016222 0.302339 -0.006719
   vertex 0.017558 0.302339 -0.000000
  endloop
 endfacet
 facet normal 0.421485 0.902952 -0.083837
  outer loop
   vertex 0.016222 0.302339 -0.006719
   vertex 0.034442 0.294458 -0.000000
   vertex 0.031820 0.294458 -0.013180
  endloop
 endfacet
 facet normal 0.357320 0.902951 -0.238751
  outer loop
   vertex 0.031820 0.294458 -0.013180
   vertex 0.012416 0.302339 -0.012416
   vertex 0.016222 0.302339 -0.006719
  endloop
 endfacet
 facet normal 0.357320 0.902951 -0.238751
  outer loop
   vertex 0.012416 0.302339 -0.012416
   vertex 0.031820 0.294458 -0.013180
   vertex 0.024354 0.294458 -0.024354
  endloop
 endfacet
 facet normal 0.238751 0.902951 -0.357320
  outer loop
   vertex 0.024354 0.294458 -0.024354
   vertex 0.006719 0.302339 -0.016222
   vertex 0.012416 0.302339 -0.012416
  endloop
 endfacet
 facet normal 0.238751 0.902951 -0.357320
  outer loop
   vertex 0.006719 0.302339 -0.016222
   vertex 0.024354 0.294458 -0.024354
   vertex 0.013180 0.294458 -0.031820
  endloop
 endfacet
 facet normal 0.083837 0.902952 -0.421485
  outer loop
   vertex 0.013180 0.294458 -0.031820
   vertex 0.000000 0.302339 -0.017558
   vertex 0.006719 0.302339 -0.016222
  endloop
 endfacet
 facet normal 0.083837 0.902952 -0.421485
  outer loop
   vertex 0.000000 0.302339 -0.017558
   vertex 0.013180 0.294458 -0.031820
   vertex 0.000000 0.294458 -0.034442
  endloop
 endfacet
 facet normal -0.083837 0.902952 -0.421485
  outer loop
   vertex 0.000000 0.302339 -0.017558
   vertex -0.013180 0.294458 -0.031820
   vertex -0.006719 0.302339 -0.016222
  endloop
 endfacet
 facet normal -0.083837 0.902952 -0.421485
  outer loop
   vertex -0.013180 0.294458 -0.031820
   vertex 0.000000 0.302339 -0.017558
   vertex 0.000000 0.294458 -0.034442
  endloop
 endfacet
 facet normal -0.238751 0.902951 -0.357320
  outer loop
   vertex -0.006719 0.302339 -0.016222
   vertex -0.024354 0.294458 -0.024354
   vertex -0.012416 0.302339 -0.012416
  endloop
 endfacet
 facet normal -0.238751 0.902951 -0.357320
  outer loop
   vertex -0.024354 0.294458 -0.024354
   vertex -0.006719 0.302339 -0.016222
   vertex -0.013180 0.294458 -0.031820
  endloop
 endfacet
 facet normal -0.357320 0.902951 -0.238751
  outer loop
   vertex -0.012416 0.302339 -0.012416
   vertex -0.031820 0.294458 -0.013180
   vertex -0.016222 0.302339 -0.006719
  endloop
 endfacet
 facet normal -0.357320 0.902951 -0.238751
  outer loop
   vertex -0.031820 0.294458 -0.013180
   vertex -0.012416 0.302339 -0.012416
   vertex -0.024354 0.294458 -0.024354
  endloop
 endfacet
 facet normal -0.421485 0.902952 -0.083837
  outer loop
   vertex -0.016222 0.302339 -0.006719
   vertex -0.034442 0.294458 -0.000000
   vertex -0.017558 0.302339 -0.000000
  endloop
 endfacet
 facet normal -0.421485 0.902952 -0.083837
  outer loop
   vertex -0.034442 0.294458 -0.000000
   vertex -0.016222 0.302339 -0.006719
   vertex -0.031820 0.294458 -0.013180
  endloop
 endfacet
 facet normal -0.421485 0.902952 0.083837
  outer loop
   vertex -0.017558 0.302339 -0.000000
   vertex -0.031820 0.294458 0.013180
   vertex -0.016222 0.302339 0.006719
  endloop
 endfacet
 facet normal -0.421485 0.902952 0.083837
  outer loop
   vertex -0.031820 0.294458 0.013180
   vertex -0.017558 0.302339 -0.000000
   vertex -0.034442 0.294458 -0.000000
  endloop
 endfacet
 facet normal -0.357320 0.902951 0.238751
  outer loop
   vertex -0.012416 0.302339 0.012415
   vertex -0.031820 0.294458 0.013180
   vertex -0.024354 0.294458 0.024354
  endloop
 endfacet
 facet normal -0.357320 0.902951 0.238751
  outer loop
   vertex -0.031820 0.294458 0.013180
   vertex -0.012416 0.302339 0.012415
   vertex -0.016222 0.302339 0.006719
  endloop
 endfacet
 facet normal -0.238751 0.902951 0.357320
  outer loop
   vertex -0.006719 0.302339 0.016222
   vertex -0.024354 0.294458 0.024354
   vertex -0.013180 0.294458 0.031820
  endloop
 endfacet
 facet normal -0.238751 0.902951 0.357320
  outer loop
   vertex -0.024354 0.294458 0.024354
   vertex -0.006719 0.302339 0.016222
   vertex -0.012416 0.302339 0.012415
  endloop
 endfacet
 facet normal -0.083837 0.902952 0.421485
  outer loop
   vertex 0.000000 0.302339 0.017558
   vertex -0.013180 0.294458 0.031820
   vertex 0.000000 0.294458 0.034441
  endloop
 endfacet
 facet normal -0.083837 0.902952 0.421485
  outer loop
   vertex -0.013180 0.294458 0.031820
   vertex 0.000000 0.302339 0.017558
   vertex -0.006719 0.302339 0.016222
  endloop
 endfacet
 facet normal 0.083837 0.902952 0.421485
  outer loop
   vertex 0.013180 0.294458 0.031820
   vertex 0.000000 0.302339 0.017558
   vertex 0.000000 0.294458 0.034441
  endloop
 endfacet
 facet normal 0.083837 0.902952 0.421485
  outer loop
   vertex 0.000000 0.302339 0.017558
   vertex 0.013180 0.294458 0.031820
   vertex 0.006719 0.302339 0.016222
  endloop
 endfacet
 facet normal 0.238751 0.902951 0.357320
  outer loop
   vertex 0.024354 0.294458 0.024354
   vertex 0.006719 0.302339 0.016222
   vertex 0.013180 0.294458 0.031820
  endloop
 endfacet
 facet normal 0.238751 0.902951 0.357320
  outer loop
   vertex 0.006719 0.302339 0.016222
   vertex 0.024354 0.294458 0.024354
   vertex 0.012416 0.302339 0.012415
  endloop
 endfacet
 facet normal 0.357320 0.902951 0.238751
  outer loop
   vertex 0.031820 0.294458 0.013180
   vertex 0.012416 0.302339 0.012415
   vertex 0.024354 0.294458 0.024354
  endloop
 endfacet
 facet normal 0.357320 0.902951 0.238751
  outer loop
   vertex 0.012416 0.302339 0.012415
   vertex 0.031820 0.294458 0.013180
   vertex 0.016222 0.302339 0.006719
  endloop
 endfacet
 facet normal 0.421485 0.902952 0.083837
  outer loop
   vertex 0.034442 0.294458 -0.000000
   vertex 0.016222 0.302339 0.006719
   vertex 0.031820 0.294458 0.013180
  endloop
 endfacet
 facet normal 0.421485 0.902952 0.083837
  outer loop
   vertex 0.016222 0.302339 0.006719
   vertex 0.034442 0.294458 -0.000000
   vertex 0.017558 0.302339 -0.000000
  endloop
 endfacet
 facet normal 0.630200 0.766247 -0.125354
  outer loop
   vertex 0.050001 0.281661 -0.000000
   vertex 0.031820 0.294458 -0.013180
   vertex 0.034442 0.294458 -0.000000
  endloop
 endfacet
 facet normal 0.630200 0.766247 -0.125354
  outer loop
   vertex 0.031820 0.294458 -0.013180
   vertex 0.050001 0.281661 -0.000000
   vertex 0.046195 0.281661 -0.019135
  endloop
 endfacet
 facet normal 0.534256 0.766248 -0.356980
  outer loop
   vertex 0.046195 0.281661 -0.019135
   vertex 0.024354 0.294458 -0.024354
   vertex 0.031820 0.294458 -0.013180
  endloop
 endfacet
 facet normal 0.534256 0.766248 -0.356980
  outer loop
   vertex 0.024354 0.294458 -0.024354
   vertex 0.046195 0.281661 -0.019135
   vertex 0.035356 0.281661 -0.035356
  endloop
 endfacet
 facet normal 0.356981 0.766248 -0.534256
  outer loop
   vertex 0.035356 0.281661 -0.035356
   vertex 0.013180 0.294458 -0.031820
   vertex 0.024354 0.294458 -0.024354
  endloop
 endfacet
 facet normal 0.356981 0.766248 -0.534256
  outer loop
   vertex 0.013180 0.294458 -0.031820
   vertex 0.035356 0.281661 -0.035356
   vertex 0.019135 0.281661 -0.046195
  endloop
 endfacet
 facet normal 0.125354 0.766247 -0.630200
  outer loop
   vertex 0.019135 0.281661 -0.046195
   vertex 0.000000 0.294458 -0.034442
   vertex 0.013180 0.294458 -0.031820
  endloop
 endfacet
 facet normal 0.125354 0.766247 -0.630200
  outer loop
   vertex 0.000000 0.294458 -0.034442
   vertex 0.019135 0.281661 -0.046195
   vertex 0.000000 0.281661 -0.050001
  endloop
 endfacet
 facet normal -0.125354 0.766247 -0.630200
  outer loop
   vertex 0.000000 0.294458 -0.034442
   vertex -0.019135 0.281661 -0.046195
   vertex -0.013180 0.294458 -0.031820
  endloop
 endfacet
 facet normal -0.125354 0.766247 -0.630200
  outer loop
   vertex -0.019135 0.281661 -0.046195
   vertex 0.000000 0.294458 -0.034442
   vertex 0.000000 0.281661 -0.050001
  endloop
 endfacet
 facet normal -0.356980 0.766248 -0.534256
  outer loop
   vertex -0.013180 0.294458 -0.031820
   vertex -0.035356 0.281661 -0.035356
   vertex -0.024354 0.294458 -0.024354
  endloop
 endfacet
 facet normal -0.356980 0.766248 -0.534256
  outer loop
   vertex -0.035356 0.281661 -0.035356
   vertex -0.013180 0.294458 -0.031820
   vertex -0.019135 0.281661 -0.046195
  endloop
 endfacet
 facet normal -0.534256 0.766248 -0.356980
  outer loop
   vertex -0.024354 0.294458 -0.024354
   vertex -0.046195 0.281661 -0.019135
   vertex -0.031820 0.294458 -0.013180
  endloop
 endfacet
 facet normal -0.534256 0.766248 -0.356980
  outer loop
   vertex -0.046195 0.281661 -0.019135
   vertex -0.024354 0.294458 -0.024354
   vertex -0.035356 0.281661 -0.035356
  endloop
 endfacet
 facet normal -0.630200 0.766247 -0.125354
  outer loop
   vertex -0.031820 0.294458 -0.013180
   vertex -0.050001 0.281661 -0.000000
   vertex -0.034442 0.294458 -0.000000
  endloop
 endfacet
 facet normal -0.630200 0.766247 -0.125354
  outer loop
   vertex -0.050001 0.281661 -0.000000
   vertex -0.031820 0.294458 -0.013180
   vertex -0.046195 0.281661 -0.019135
  endloop
 endfacet
 facet normal -0.630200 0.766247 0.125354
  outer loop
   vertex -0.034442 0.294458 -0.000000
   vertex -0.046195 0.281661 0.019135
   vertex -0.031820 0.294458 0.013180
  endloop
 endfacet
 facet normal -0.630200 0.766247 0.125354
  outer loop
   vertex -0.046195 0.281661 0.019135
   vertex -0.034442 0.294458 -0.000000
   vertex -0.050001 0.281661 -0.000000
  endloop
 endfacet
 facet normal -0.534256 0.766248 0.356980
  outer loop
   vertex -0.024354 0.294458 0.024354
   vertex -0.046195 0.281661 0.019135
   vertex -0.035356 0.281661 0.035356
  endloop
 endfacet
 facet normal -0.534256 0.766248 0.356980
  outer loop
   vertex -0.046195 0.281661 0.019135
   vertex -0.024354 0.294458 0.024354
   vertex -0.031820 0.294458 0.013180
  endloop
 endfacet
 facet normal -0.356980 0.766248 0.534256
  outer loop
   vertex -0.013180 0.294458 0.031820
   vertex -0.035356 0.281661 0.035356
   vertex -0.019135 0.281661 0.046195
  endloop
 endfacet
 facet normal -0.356980 0.766248 0.534256
  outer loop
   vertex -0.035356 0.281661 0.035356
   vertex -0.013180 0.294458 0.031820
   vertex -0.024354 0.294458 0.024354
  endloop
 endfacet
 facet normal -0.125354 0.766247 0.630200
  outer loop
   vertex 0.000000 0.294458 0.034441
   vertex -0.019135 0.281661 0.046195
   vertex 0.000000 0.281661 0.050001
  endloop
 endfacet
 facet normal -0.125354 0.766247 0.630200
  outer loop
   vertex -0.019135 0.281661 0.046195
   vertex 0.000000 0.294458 0.034441
   vertex -0.013180 0.294458 0.031820
  endloop
 endfacet
 facet normal 0.125354 0.766247 0.630200
  outer loop
   vertex 0.019135 0.281661 0.046195
   vertex 0.000000 0.294458 0.034441
   vertex 0.000000 0.281661 0.050001
  endloop
 endfacet
 facet normal 0.125354 0.766247 0.630200
  outer loop
   vertex 0.000000 0.294458 0.034441
   vertex 0.019135 0.281661 0.046195
   vertex 0.013180 0.294458 0.031820
  endloop
 endfacet
 facet normal 0.356980 0.766248 0.534256
  outer loop
   vertex 0.035356 0.281661 0.035356
   vertex 0.013180 0.294458 0.031820
   vertex 0.019135 0.281661 0.046195
  endloop
 endfacet
 facet normal 0.356980 0.766248 0.534256
  outer loop
   vertex 0.013180 0.294458 0.031820
   vertex 0.035356 0.281661 0.035356
   vertex 0.024354 0.294458 0.024354
  endloop
 endfacet
 facet normal 0.534256 0.766248 0.356980
  outer loop
   vertex 0.046195 0.281661 0.019135
   vertex 0.024354 0.294458 0.024354
   vertex 0.035356 0.281661 0.035356
  endloop
 endfacet
 facet normal 0.534256 0.766248 0.356980
  outer loop
   vertex 0.024354 0.294458 0.024354
   vertex 0.046195 0.281661 0.019135
   vertex 0.031820 0.294458 0.013180
  endloop
 endfacet
 facet normal 0.630200 0.766247 0.125354
  outer loop
   vertex 0.050001 0.281661 -0.000000
   vertex 0.031820 0.294458 0.013180
   vertex 0.046195 0.281661 0.019135
  endloop
 endfacet
 facet normal 0.630200 0.766247 0.125354
  outer loop
   vertex 0.031820 0.294458 0.013180
   vertex 0.050001 0.281661 -0.000000
   vertex 0.034442 0.294458 -0.000000
  endloop
 endfacet
 facet normal 0.774608 0.613386 -0.154078
  outer loop
   vertex 0.063640 0.264438 -0.000000
   vertex 0.046195 0.281661 -0.019135
   vertex 0.050001 0.281661 -0.000000
  endloop
 endfacet
 facet normal 0.774608 0.613386 -0.154078
  outer loop
   vertex 0.046195 0.281661 -0.019135
   vertex 0.063640 0.264438 -0.000000
   vertex 0.058795 0.264438 -0.024354
  endloop
 endfacet
 facet normal 0.656682 0.613385 -0.438780
  outer loop
   vertex 0.058795 0.264438 -0.024354
   vertex 0.035356 0.281661 -0.035356
   vertex 0.046195 0.281661 -0.019135
  endloop
 endfacet
 facet normal 0.656682 0.613385 -0.438780
  outer loop
   vertex 0.035356 0.281661 -0.035356
   vertex 0.058795 0.264438 -0.024354
   vertex 0.045000 0.264438 -0.045000
  endloop
 endfacet
 facet normal 0.438780 0.613385 -0.656682
  outer loop
   vertex 0.024354 0.264438 -0.058795
   vertex 0.035356 0.281661 -0.035356
   vertex 0.045000 0.264438 -0.045000
  endloop
 endfacet
 facet normal 0.438780 0.613385 -0.656682
  outer loop
   vertex 0.035356 0.281661 -0.035356
   vertex 0.024354 0.264438 -0.058795
   vertex 0.019135 0.281661 -0.046195
  endloop
 endfacet
 facet normal 0.154078 0.613386 -0.774608
  outer loop
   vertex 0.000000 0.264438 -0.063640
   vertex 0.019135 0.281661 -0.046195
   vertex 0.024354 0.264438 -0.058795
  endloop
 endfacet
 facet normal 0.154078 0.613386 -0.774608
  outer loop
   vertex 0.019135 0.281661 -0.046195
   vertex 0.000000 0.264438 -0.063640
   vertex 0.000000 0.281661 -0.050001
  endloop
 endfacet
 facet normal -0.154078 0.613386 -0.774608
  outer loop
   vertex 0.000000 0.264438 -0.063640
   vertex -0.019135 0.281661 -0.046195
   vertex 0.000000 0.281661 -0.050001
  endloop
 endfacet
 facet normal -0.154078 0.613386 -0.774608
  outer loop
   vertex -0.019135 0.281661 -0.046195
   vertex 0.000000 0.264438 -0.063640
   vertex -0.024354 0.264438 -0.058795
  endloop
 endfacet
 facet normal -0.438780 0.613385 -0.656682
  outer loop
   vertex -0.024354 0.264438 -0.058795
   vertex -0.035356 0.281661 -0.035356
   vertex -0.019135 0.281661 -0.046195
  endloop
 endfacet
 facet normal -0.438780 0.613385 -0.656682
  outer loop
   vertex -0.035356 0.281661 -0.035356
   vertex -0.024354 0.264438 -0.058795
   vertex -0.045000 0.264438 -0.045000
  endloop
 endfacet
 facet normal -0.656682 0.613385 -0.438780
  outer loop
   vertex -0.045000 0.264438 -0.045000
   vertex -0.046195 0.281661 -0.019135
   vertex -0.035356 0.281661 -0.035356
  endloop
 endfacet
 facet normal -0.656682 0.613385 -0.438780
  outer loop
   vertex -0.046195 0.281661 -0.019135
   vertex -0.045000 0.264438 -0.045000
   vertex -0.058795 0.264438 -0.024354
  endloop
 endfacet
 facet normal -0.774608 0.613386 -0.154078
  outer loop
   vertex -0.058795 0.264438 -0.024354
   vertex -0.050001 0.281661 -0.000000
   vertex -0.046195 0.281661 -0.019135
  endloop
 endfacet
 facet normal -0.774608 0.613386 -0.154078
  outer loop
   vertex -0.050001 0.281661 -0.000000
   vertex -0.058795 0.264438 -0.024354
   vertex -0.063640 0.264438 -0.000000
  endloop
 endfacet
 facet normal -0.774608 0.613386 0.154078
  outer loop
   vertex -0.063640 0.264438 -0.000000
   vertex -0.046195 0.281661 0.019135
   vertex -0.050001 0.281661 -0.000000
  endloop
 endfacet
 facet normal -0.774608 0.613386 0.154078
  outer loop
   vertex -0.046195 0.281661 0.019135
   vertex -0.063640 0.264438 -0.000000
   vertex -0.058795 0.264438 0.024354
  endloop
 endfacet
 facet normal -0.656682 0.613385 0.438780
  outer loop
   vertex -0.058795 0.264438 0.024354
   vertex -0.035356 0.281661 0.035356
   vertex -0.046195 0.281661 0.019135
  endloop
 endfacet
 facet normal -0.656682 0.613385 0.438780
  outer loop
   vertex -0.035356 0.281661 0.035356
   vertex -0.058795 0.264438 0.024354
   vertex -0.045000 0.264438 0.045000
  endloop
 endfacet
 facet normal -0.438780 0.613385 0.656682
  outer loop
   vertex -0.035356 0.281661 0.035356
   vertex -0.024354 0.264438 0.058795
   vertex -0.019135 0.281661 0.046195
  endloop
 endfacet
 facet normal -0.438780 0.613385 0.656682
  outer loop
   vertex -0.024354 0.264438 0.058795
   vertex -0.035356 0.281661 0.035356
   vertex -0.045000 0.264438 0.045000
  endloop
 endfacet
 facet normal -0.154078 0.613386 0.774608
  outer loop
   vertex -0.019135 0.281661 0.046195
   vertex 0.000000 0.264438 0.063640
   vertex 0.000000 0.281661 0.050001
  endloop
 endfacet
 facet normal -0.154078 0.613386 0.774608
  outer loop
   vertex 0.000000 0.264438 0.063640
   vertex -0.019135 0.281661 0.046195
   vertex -0.024354 0.264438 0.058795
  endloop
 endfacet
 facet normal 0.154078 0.613386 0.774608
  outer loop
   vertex 0.000000 0.281661 0.050001
   vertex 0.024354 0.264438 0.058795
   vertex 0.019135 0.281661 0.046195
  endloop
 endfacet
 facet normal 0.154078 0.613386 0.774608
  outer loop
   vertex 0.024354 0.264438 0.058795
   vertex 0.000000 0.281661 0.050001
   vertex 0.000000 0.264438 0.063640
  endloop
 endfacet
 facet normal 0.438780 0.613385 0.656682
  outer loop
   vertex 0.035356 0.281661 0.035356
   vertex 0.024354 0.264438 0.058795
   vertex 0.045000 0.264438 0.045000
  endloop
 endfacet
 facet normal 0.438780 0.613385 0.656682
  outer loop
   vertex 0.024354 0.264438 0.058795
   vertex 0.035356 0.281661 0.035356
   vertex 0.019135 0.281661 0.046195
  endloop
 endfacet
 facet normal 0.656682 0.613385 0.438780
  outer loop
   vertex 0.045000 0.264438 0.045000
   vertex 0.046195 0.281661 0.019135
   vertex 0.035356 0.281661 0.035356
  endloop
 endfacet
 facet normal 0.656682 0.613385 0.438780
  outer loop
   vertex 0.046195 0.281661 0.019135
   vertex 0.045000 0.264438 0.045000
   vertex 0.058795 0.264438 0.024354
  endloop
 endfacet
 facet normal 0.774608 0.613386 0.154078
  outer loop
   vertex 0.058795 0.264438 0.024354
   vertex 0.050001 0.281661 -0.000000
   vertex 0.046195 0.281661 0.019135
  endloop
 endfacet
 facet normal 0.774608 0.613386 0.154078
  outer loop
   vertex 0.050001 0.281661 -0.000000
   vertex 0.058795 0.264438 0.024354
   vertex 0.063640 0.264438 -0.000000
  endloop
 endfacet
 facet normal 0.869065 0.463512 -0.172869
  outer loop
   vertex 0.074832 0.243452 -0.000000
   vertex 0.058795 0.264438 -0.024354
   vertex 0.063640 0.264438 -0.000000
  endloop
 endfacet
 facet normal 0.869065 0.463512 -0.172869
  outer loop
   vertex 0.058795 0.264438 -0.024354
   vertex 0.074832 0.243452 -0.000000
   vertex 0.069136 0.243452 -0.028637
  endloop
 endfacet
 facet normal 0.736759 0.463511 -0.492285
  outer loop
   vertex 0.069136 0.243452 -0.028637
   vertex 0.045000 0.264438 -0.045000
   vertex 0.058795 0.264438 -0.024354
  endloop
 endfacet
 facet normal 0.736759 0.463511 -0.492285
  outer loop
   vertex 0.045000 0.264438 -0.045000
   vertex 0.069136 0.243452 -0.028637
   vertex 0.052914 0.243452 -0.052914
  endloop
 endfacet
 facet normal 0.492285 0.463511 -0.736759
  outer loop
   vertex 0.028637 0.243452 -0.069136
   vertex 0.045000 0.264438 -0.045000
   vertex 0.052914 0.243452 -0.052914
  endloop
 endfacet
 facet normal 0.492285 0.463511 -0.736759
  outer loop
   vertex 0.045000 0.264438 -0.045000
   vertex 0.028637 0.243452 -0.069136
   vertex 0.024354 0.264438 -0.058795
  endloop
 endfacet
 facet normal 0.172869 0.463512 -0.869065
  outer loop
   vertex 0.000000 0.243452 -0.074832
   vertex 0.024354 0.264438 -0.058795
   vertex 0.028637 0.243452 -0.069136
  endloop
 endfacet
 facet normal 0.172869 0.463512 -0.869065
  outer loop
   vertex 0.024354 0.264438 -0.058795
   vertex 0.000000 0.243452 -0.074832
   vertex 0.000000 0.264438 -0.063640
  endloop
 endfacet
 facet normal -0.172869 0.463511 -0.869065
  outer loop
   vertex 0.000000 0.243452 -0.074832
   vertex -0.024354 0.264438 -0.058795
   vertex 0.000000 0.264438 -0.063640
  endloop
 endfacet
 facet normal -0.172869 0.463511 -0.869065
  outer loop
   vertex -0.024354 0.264438 -0.058795
   vertex 0.000000 0.243452 -0.074832
   vertex -0.028637 0.243452 -0.069136
  endloop
 endfacet
 facet normal -0.492285 0.463510 -0.736759
  outer loop
   vertex -0.028637 0.243452 -0.069136
   vertex -0.045000 0.264438 -0.045000
   vertex -0.024354 0.264438 -0.058795
  endloop
 endfacet
 facet normal -0.492285 0.463510 -0.736759
  outer loop
   vertex -0.045000 0.264438 -0.045000
   vertex -0.028637 0.243452 -0.069136
   vertex -0.052914 0.243452 -0.052914
  endloop
 endfacet
 facet normal -0.736759 0.463511 -0.492284
  outer loop
   vertex -0.052914 0.243452 -0.052914
   vertex -0.058795 0.264438 -0.024354
   vertex -0.045000 0.264438 -0.045000
  endloop
 endfacet
 facet normal -0.736759 0.463511 -0.492284
  outer loop
   vertex -0.058795 0.264438 -0.024354
   vertex -0.052914 0.243452 -0.052914
   vertex -0.069136 0.243452 -0.028637
  endloop
 endfacet
 facet normal -0.869065 0.463512 -0.172869
  outer loop
   vertex -0.069136 0.243452 -0.028637
   vertex -0.063640 0.264438 -0.000000
   vertex -0.058795 0.264438 -0.024354
  endloop
 endfacet
 facet normal -0.869065 0.463512 -0.172869
  outer loop
   vertex -0.063640 0.264438 -0.000000
   vertex -0.069136 0.243452 -0.028637
   vertex -0.074832 0.243452 -0.000000
  endloop
 endfacet
 facet normal -0.869065 0.463512 0.172869
  outer loop
   vertex -0.074832 0.243452 -0.000000
   vertex -0.058795 0.264438 0.024354
   vertex -0.063640 0.264438 -0.000000
  endloop
 endfacet
 facet normal -0.869065 0.463512 0.172869
  outer loop
   vertex -0.058795 0.264438 0.024354
   vertex -0.074832 0.243452 -0.000000
   vertex -0.069136 0.243452 0.028637
  endloop
 endfacet
 facet normal -0.736759 0.463511 0.492285
  outer loop
   vertex -0.069136 0.243452 0.028637
   vertex -0.045000 0.264438 0.045000
   vertex -0.058795 0.264438 0.024354
  endloop
 endfacet
 facet normal -0.736759 0.463511 0.492285
  outer loop
   vertex -0.045000 0.264438 0.045000
   vertex -0.069136 0.243452 0.028637
   vertex -0.052914 0.243452 0.052914
  endloop
 endfacet
 facet normal -0.492285 0.463511 0.736759
  outer loop
   vertex -0.045000 0.264438 0.045000
   vertex -0.028637 0.243452 0.069136
   vertex -0.024354 0.264438 0.058795
  endloop
 endfacet
 facet normal -0.492285 0.463511 0.736759
  outer loop
   vertex -0.028637 0.243452 0.069136
   vertex -0.045000 0.264438 0.045000
   vertex -0.052914 0.243452 0.052914
  endloop
 endfacet
 facet normal -0.172869 0.463512 0.869065
  outer loop
   vertex -0.024354 0.264438 0.058795
   vertex 0.000000 0.243452 0.074832
   vertex 0.000000 0.264438 0.063640
  endloop
 endfacet
 facet normal -0.172869 0.463512 0.869065
  outer loop
   vertex 0.000000 0.243452 0.074832
   vertex -0.024354 0.264438 0.058795
   vertex -0.028637 0.243452 0.069136
  endloop
 endfacet
 facet normal 0.172869 0.463512 0.869065
  outer loop
   vertex 0.000000 0.264438 0.063640
   vertex 0.028637 0.243452 0.069136
   vertex 0.024354 0.264438 0.058795
  endloop
 endfacet
 facet normal 0.172869 0.463512 0.869065
  outer loop
   vertex 0.028637 0.243452 0.069136
   vertex 0.000000 0.264438 0.063640
   vertex 0.000000 0.243452 0.074832
  endloop
 endfacet
 facet normal 0.492285 0.463511 0.736759
  outer loop
   vertex 0.045000 0.264438 0.045000
   vertex 0.028637 0.243452 0.069136
   vertex 0.052914 0.243452 0.052914
  endloop
 endfacet
 facet normal 0.492285 0.463511 0.736759
  outer loop
   vertex 0.028637 0.243452 0.069136
   vertex 0.045000 0.264438 0.045000
   vertex 0.024354 0.264438 0.058795
  endloop
 endfacet
 facet normal 0.736759 0.463511 0.492285
  outer loop
   vertex 0.052914 0.243452 0.052914
   vertex 0.058795 0.264438 0.024354
   vertex 0.045000 0.264438 0.045000
  endloop
 endfacet
 facet normal 0.736759 0.463511 0.492285
  outer loop
   vertex 0.058795 0.264438 0.024354
   vertex 0.052914 0.243452 0.052914
   vertex 0.069136 0.243452 0.028637
  endloop
 endfacet
 facet normal 0.869065 0.463512 0.172869
  outer loop
   vertex 0.069136 0.243452 0.028637
   vertex 0.063640 0.264438 -0.000000
   vertex 0.058795 0.264438 0.024354
  endloop
 endfacet
 facet normal 0.869065 0.463512 0.172869
  outer loop
   vertex 0.063640 0.264438 -0.000000
   vertex 0.069136 0.243452 0.028637
   vertex 0.074832 0.243452 -0.000000
  endloop
 endfacet
 facet normal 0.928384 0.322492 -0.184668
  outer loop
   vertex 0.083149 0.219510 -0.000000
   vertex 0.069136 0.243452 -0.028637
   vertex 0.074832 0.243452 -0.000000
  endloop
 endfacet
 facet normal 0.928384 0.322492 -0.184668
  outer loop
   vertex 0.069136 0.243452 -0.028637
   vertex 0.083149 0.219510 -0.000000
   vertex 0.076820 0.219510 -0.031820
  endloop
 endfacet
 facet normal 0.787045 0.322493 -0.525888
  outer loop
   vertex 0.076820 0.219510 -0.031820
   vertex 0.052914 0.243452 -0.052914
   vertex 0.069136 0.243452 -0.028637
  endloop
 endfacet
 facet normal 0.787045 0.322493 -0.525888
  outer loop
   vertex 0.052914 0.243452 -0.052914
   vertex 0.076820 0.219510 -0.031820
   vertex 0.058795 0.219510 -0.058795
  endloop
 endfacet
 facet normal 0.525888 0.322492 -0.787046
  outer loop
   vertex 0.031820 0.219510 -0.076820
   vertex 0.052914 0.243452 -0.052914
   vertex 0.058795 0.219510 -0.058795
  endloop
 endfacet
 facet normal 0.525888 0.322492 -0.787046
  outer loop
   vertex 0.052914 0.243452 -0.052914
   vertex 0.031820 0.219510 -0.076820
   vertex 0.028637 0.243452 -0.069136
  endloop
 endfacet
 facet normal 0.184668 0.322493 -0.928384
  outer loop
   vertex 0.000000 0.219510 -0.083149
   vertex 0.028637 0.243452 -0.069136
   vertex 0.031820 0.219510 -0.076820
  endloop
 endfacet
 facet normal 0.184668 0.322493 -0.928384
  outer loop
   vertex 0.028637 0.243452 -0.069136
   vertex 0.000000 0.219510 -0.083149
   vertex 0.000000 0.243452 -0.074832
  endloop
 endfacet
 facet normal -0.184668 0.322493 -0.928383
  outer loop
   vertex 0.000000 0.219510 -0.083149
   vertex -0.028637 0.243452 -0.069136
   vertex 0.000000 0.243452 -0.074832
  endloop
 endfacet
 facet normal -0.184668 0.322493 -0.928383
  outer loop
   vertex -0.028637 0.243452 -0.069136
   vertex 0.000000 0.219510 -0.083149
   vertex -0.031820 0.219510 -0.076820
  endloop
 endfacet
 facet normal -0.525886 0.322492 -0.787047
  outer loop
   vertex -0.031820 0.219510 -0.076820
   vertex -0.052914 0.243452 -0.052914
   vertex -0.028637 0.243452 -0.069136
  endloop
 endfacet
 facet normal -0.525886 0.322492 -0.787047
  outer loop
   vertex -0.052914 0.243452 -0.052914
   vertex -0.031820 0.219510 -0.076820
   vertex -0.058795 0.219510 -0.058795
  endloop
 endfacet
 facet normal -0.787046 0.322491 -0.525888
  outer loop
   vertex -0.058795 0.219510 -0.058795
   vertex -0.069136 0.243452 -0.028637
   vertex -0.052914 0.243452 -0.052914
  endloop
 endfacet
 facet normal -0.787046 0.322491 -0.525888
  outer loop
   vertex -0.069136 0.243452 -0.028637
   vertex -0.058795 0.219510 -0.058795
   vertex -0.076820 0.219510 -0.031820
  endloop
 endfacet
 facet normal -0.928384 0.322493 -0.184668
  outer loop
   vertex -0.076820 0.219510 -0.031820
   vertex -0.074832 0.243452 -0.000000
   vertex -0.069136 0.243452 -0.028637
  endloop
 endfacet
 facet normal -0.928384 0.322493 -0.184668
  outer loop
   vertex -0.074832 0.243452 -0.000000
   vertex -0.076820 0.219510 -0.031820
   vertex -0.083149 0.219510 -0.000000
  endloop
 endfacet
 facet normal -0.928384 0.322493 0.184668
  outer loop
   vertex -0.083149 0.219510 -0.000000
   vertex -0.069136 0.243452 0.028637
   vertex -0.074832 0.243452 -0.000000
  endloop
 endfacet
 facet normal -0.928384 0.322493 0.184668
  outer loop
   vertex -0.069136 0.243452 0.028637
   vertex -0.083149 0.219510 -0.000000
   vertex -0.076820 0.219510 0.031820
  endloop
 endfacet
 facet normal -0.787046 0.322491 0.525888
  outer loop
   vertex -0.076820 0.219510 0.031820
   vertex -0.052914 0.243452 0.052914
   vertex -0.069136 0.243452 0.028637
  endloop
 endfacet
 facet normal -0.787046 0.322491 0.525888
  outer loop
   vertex -0.052914 0.243452 0.052914
   vertex -0.076820 0.219510 0.031820
   vertex -0.058795 0.219510 0.058795
  endloop
 endfacet
 facet normal -0.525888 0.322491 0.787046
  outer loop
   vertex -0.052914 0.243452 0.052914
   vertex -0.031820 0.219510 0.076820
   vertex -0.028637 0.243452 0.069136
  endloop
 endfacet
 facet normal -0.525888 0.322491 0.787046
  outer loop
   vertex -0.031820 0.219510 0.076820
   vertex -0.052914 0.243452 0.052914
   vertex -0.058795 0.219510 0.058795
  endloop
 endfacet
 facet normal -0.184668 0.322493 0.928384
  outer loop
   vertex -0.028637 0.243452 0.069136
   vertex -0.000000 0.219510 0.083149
   vertex 0.000000 0.243452 0.074832
  endloop
 endfacet
 facet normal -0.184668 0.322493 0.928384
  outer loop
   vertex -0.000000 0.219510 0.083149
   vertex -0.028637 0.243452 0.069136
   vertex -0.031820 0.219510 0.076820
  endloop
 endfacet
 facet normal 0.184668 0.322492 0.928384
  outer loop
   vertex 0.000000 0.243452 0.074832
   vertex 0.031820 0.219510 0.076820
   vertex 0.028637 0.243452 0.069136
  endloop
 endfacet
 facet normal 0.184668 0.322492 0.928384
  outer loop
   vertex 0.031820 0.219510 0.076820
   vertex 0.000000 0.243452 0.074832
   vertex -0.000000 0.219510 0.083149
  endloop
 endfacet
 facet normal 0.525888 0.322491 0.787046
  outer loop
   vertex 0.052914 0.243452 0.052914
   vertex 0.031820 0.219510 0.076820
   vertex 0.058795 0.219510 0.058795
  endloop
 endfacet
 facet normal 0.525888 0.322491 0.787046
  outer loop
   vertex 0.031820 0.219510 0.076820
   vertex 0.052914 0.243452 0.052914
   vertex 0.028637 0.243452 0.069136
  endloop
 endfacet
 facet normal 0.787046 0.322491 0.525888
  outer loop
   vertex 0.058795 0.219510 0.058795
   vertex 0.069136 0.243452 0.028637
   vertex 0.052914 0.243452 0.052914
  endloop
 endfacet
 facet normal 0.787046 0.322491 0.525888
  outer loop
   vertex 0.069136 0.243452 0.028637
   vertex 0.058795 0.219510 0.058795
   vertex 0.076820 0.219510 0.031820
  endloop
 endfacet
 facet normal 0.928384 0.322493 0.184668
  outer loop
   vertex 0.076820 0.219510 0.031820
   vertex 0.074832 0.243452 -0.000000
   vertex 0.069136 0.243452 0.028637
  endloop
 endfacet
 facet normal 0.928384 0.322493 0.184668
  outer loop
   vertex 0.074832 0.243452 -0.000000
   vertex 0.076820 0.219510 0.031820
   vertex 0.083149 0.219510 -0.000000
  endloop
 endfacet
 facet normal 0.962951 0.189834 -0.191544
  outer loop
   vertex 0.088271 0.193530 -0.000000
   vertex 0.076820 0.219510 -0.031820
   vertex 0.083149 0.219510 -0.000000
  endloop
 endfacet
 facet normal 0.962951 0.189834 -0.191544
  outer loop
   vertex 0.076820 0.219510 -0.031820
   vertex 0.088271 0.193530 -0.000000
   vertex 0.081551 0.193530 -0.033780
  endloop
 endfacet
 facet normal 0.816351 0.189833 -0.545467
  outer loop
   vertex 0.081551 0.193530 -0.033780
   vertex 0.058795 0.219510 -0.058795
   vertex 0.076820 0.219510 -0.031820
  endloop
 endfacet
 facet normal 0.816351 0.189833 -0.545467
  outer loop
   vertex 0.058795 0.219510 -0.058795
   vertex 0.081551 0.193530 -0.033780
   vertex 0.062417 0.193530 -0.062417
  endloop
 endfacet
 facet normal 0.545467 0.189834 -0.816351
  outer loop
   vertex 0.033780 0.193530 -0.081551
   vertex 0.058795 0.219510 -0.058795
   vertex 0.062417 0.193530 -0.062417
  endloop
 endfacet
 facet normal 0.545467 0.189834 -0.816351
  outer loop
   vertex 0.058795 0.219510 -0.058795
   vertex 0.033780 0.193530 -0.081551
   vertex 0.031820 0.219510 -0.076820
  endloop
 endfacet
 facet normal 0.191544 0.189834 -0.962951
  outer loop
   vertex 0.000000 0.193530 -0.088271
   vertex 0.031820 0.219510 -0.076820
   vertex 0.033780 0.193530 -0.081551
  endloop
 endfacet
 facet normal 0.191544 0.189834 -0.962951
  outer loop
   vertex 0.031820 0.219510 -0.076820
   vertex 0.000000 0.193530 -0.088271
   vertex 0.000000 0.219510 -0.083149
  endloop
 endfacet
 facet normal -0.191544 0.189834 -0.962951
  outer loop
   vertex 0.000000 0.193530 -0.088271
   vertex -0.031820 0.219510 -0.076820
   vertex 0.000000 0.219510 -0.083149
  endloop
 endfacet
 facet normal -0.191544 0.189834 -0.962951
  outer loop
   vertex -0.031820 0.219510 -0.076820
   vertex 0.000000 0.193530 -0.088271
   vertex -0.033780 0.193530 -0.081551
  endloop
 endfacet
 facet normal -0.545469 0.189835 -0.816350
  outer loop
   vertex -0.033780 0.193530 -0.081551
   vertex -0.058795 0.219510 -0.058795
   vertex -0.031820 0.219510 -0.076820
  endloop
 endfacet
 facet normal -0.545469 0.189835 -0.816350
  outer loop
   vertex -0.058795 0.219510 -0.058795
   vertex -0.033780 0.193530 -0.081551
   vertex -0.062417 0.193530 -0.062417
  endloop
 endfacet
 facet normal -0.816350 0.189835 -0.545469
  outer loop
   vertex -0.062417 0.193530 -0.062417
   vertex -0.076820 0.219510 -0.031820
   vertex -0.058795 0.219510 -0.058795
  endloop
 endfacet
 facet normal -0.816350 0.189835 -0.545469
  outer loop
   vertex -0.076820 0.219510 -0.031820
   vertex -0.062417 0.193530 -0.062417
   vertex -0.081551 0.193530 -0.033780
  endloop
 endfacet
 facet normal -0.962951 0.189834 -0.191544
  outer loop
   vertex -0.081551 0.193530 -0.033780
   vertex -0.083149 0.219510 -0.000000
   vertex -0.076820 0.219510 -0.031820
  endloop
 endfacet
 facet normal -0.962951 0.189834 -0.191544
  outer loop
   vertex -0.083149 0.219510 -0.000000
   vertex -0.081551 0.193530 -0.033780
   vertex -0.088271 0.193530 -0.000000
  endloop
 endfacet
 facet normal -0.962951 0.189834 0.191544
  outer loop
   vertex -0.088271 0.193530 -0.000000
   vertex -0.076820 0.219510 0.031820
   vertex -0.083149 0.219510 -0.000000
  endloop
 endfacet
 facet normal -0.962951 0.189834 0.191544
  outer loop
   vertex -0.076820 0.219510 0.031820
   vertex -0.088271 0.193530 -0.000000
   vertex -0.081551 0.193530 0.033780
  endloop
 endfacet
 facet normal -0.816350 0.189835 0.545469
  outer loop
   vertex -0.081551 0.193530 0.033780
   vertex -0.058795 0.219510 0.058795
   vertex -0.076820 0.219510 0.031820
  endloop
 endfacet
 facet normal -0.816350 0.189835 0.545469
  outer loop
   vertex -0.058795 0.219510 0.058795
   vertex -0.081551 0.193530 0.033780
   vertex -0.062417 0.193530 0.062417
  endloop
 endfacet
 facet normal -0.191544 0.189834 0.962951
  outer loop
   vertex -0.031820 0.219510 0.076820
   vertex -0.000000 0.193530 0.088271
   vertex -0.000000 0.219510 0.083149
  endloop
 endfacet
 facet normal -0.191544 0.189834 0.962951
  outer loop
   vertex -0.000000 0.193530 0.088271
   vertex -0.031820 0.219510 0.076820
   vertex -0.033780 0.193530 0.081551
  endloop
 endfacet
 facet normal 0.191544 0.189834 0.962951
  outer loop
   vertex -0.000000 0.219510 0.083149
   vertex 0.033780 0.193530 0.081551
   vertex 0.031820 0.219510 0.076820
  endloop
 endfacet
 facet normal 0.191544 0.189834 0.962951
  outer loop
   vertex 0.033780 0.193530 0.081551
   vertex -0.000000 0.219510 0.083149
   vertex -0.000000 0.193530 0.088271
  endloop
 endfacet
 facet normal 0.816350 0.189835 0.545469
  outer loop
   vertex 0.062417 0.193530 0.062417
   vertex 0.076820 0.219510 0.031820
   vertex 0.058795 0.219510 0.058795
  endloop
 endfacet
 facet normal 0.816350 0.189835 0.545469
  outer loop
   vertex 0.076820 0.219510 0.031820
   vertex 0.062417 0.193530 0.062417
   vertex 0.081551 0.193530 0.033780
  endloop
 endfacet
 facet normal 0.962951 0.189834 0.191544
  outer loop
   vertex 0.081551 0.193530 0.033780
   vertex 0.083149 0.219510 -0.000000
   vertex 0.076820 0.219510 0.031820
  endloop
 endfacet
 facet normal 0.962951 0.189834 0.191544
  outer loop
   vertex 0.083149 0.219510 -0.000000
   vertex 0.081551 0.193530 0.033780
   vertex 0.088271 0.193530 -0.000000
  endloop
 endfacet
 facet normal 0.978858 0.062654 -0.194707
  outer loop
   vertex 0.090000 0.166513 -0.000000
   vertex 0.081551 0.193530 -0.033780
   vertex 0.088271 0.193530 -0.000000
  endloop
 endfacet
 facet normal 0.978858 0.062654 -0.194707
  outer loop
   vertex 0.081551 0.193530 -0.033780
   vertex 0.090000 0.166513 -0.000000
   vertex 0.083149 0.166513 -0.034442
  endloop
 endfacet
 facet normal 0.829836 0.062655 -0.554479
  outer loop
   vertex 0.083149 0.166513 -0.034442
   vertex 0.062417 0.193530 -0.062417
   vertex 0.081551 0.193530 -0.033780
  endloop
 endfacet
 facet normal 0.829836 0.062655 -0.554479
  outer loop
   vertex 0.062417 0.193530 -0.062417
   vertex 0.083149 0.166513 -0.034442
   vertex 0.063640 0.166513 -0.063640
  endloop
 endfacet
 facet normal 0.554479 0.062655 -0.829836
  outer loop
   vertex 0.034442 0.166513 -0.083149
   vertex 0.062417 0.193530 -0.062417
   vertex 0.063640 0.166513 -0.063640
  endloop
 endfacet
 facet normal 0.554479 0.062655 -0.829836
  outer loop
   vertex 0.062417 0.193530 -0.062417
   vertex 0.034442 0.166513 -0.083149
   vertex 0.033780 0.193530 -0.081551
  endloop
 endfacet
 facet normal 0.194707 0.062654 -0.978858
  outer loop
   vertex 0.000000 0.166513 -0.090000
   vertex 0.033780 0.193530 -0.081551
   vertex 0.034442 0.166513 -0.083149
  endloop
 endfacet
 facet normal 0.194707 0.062654 -0.978858
  outer loop
   vertex 0.033780 0.193530 -0.081551
   vertex 0.000000 0.166513 -0.090000
   vertex 0.000000 0.193530 -0.088271
  endloop
 endfacet
 facet normal -0.194707 0.062654 -0.978858
  outer loop
   vertex 0.000000 0.166513 -0.090000
   vertex -0.033780 0.193530 -0.081551
   vertex 0.000000 0.193530 -0.088271
  endloop
 endfacet
 facet normal -0.194707 0.062654 -0.978858
  outer loop
   vertex -0.033780 0.193530 -0.081551
   vertex 0.000000 0.166513 -0.090000
   vertex -0.034442 0.166513 -0.083149
  endloop
 endfacet
 facet normal -0.554479 0.062655 -0.829836
  outer loop
   vertex -0.034442 0.166513 -0.083149
   vertex -0.062417 0.193530 -0.062417
   vertex -0.033780 0.193530 -0.081551
  endloop
 endfacet
 facet normal -0.554479 0.062655 -0.829836
  outer loop
   vertex -0.062417 0.193530 -0.062417
   vertex -0.034442 0.166513 -0.083149
   vertex -0.063640 0.166513 -0.063640
  endloop
 endfacet
 facet normal -0.829836 0.062655 -0.554479
  outer loop
   vertex -0.063640 0.166513 -0.063640
   vertex -0.081551 0.193530 -0.033780
   vertex -0.062417 0.193530 -0.062417
  endloop
 endfacet
 facet normal -0.829836 0.062655 -0.554479
  outer loop
   vertex -0.081551 0.193530 -0.033780
   vertex -0.063640 0.166513 -0.063640
   vertex -0.083149 0.166513 -0.034442
  endloop
 endfacet
 facet normal -0.978858 0.062654 -0.194707
  outer loop
   vertex -0.083149 0.166513 -0.034442
   vertex -0.088271 0.193530 -0.000000
   vertex -0.081551 0.193530 -0.033780
  endloop
 endfacet
 facet normal -0.978858 0.062654 -0.194707
  outer loop
   vertex -0.088271 0.193530 -0.000000
   vertex -0.083149 0.166513 -0.034442
   vertex -0.090000 0.166513 -0.000000
  endloop
 endfacet
 facet normal -0.978858 0.062654 0.194707
  outer loop
   vertex -0.090000 0.166513 -0.000000
   vertex -0.081551 0.193530 0.033780
   vertex -0.088271 0.193530 -0.000000
  endloop
 endfacet
 facet normal -0.978858 0.062654 0.194707
  outer loop
   vertex -0.081551 0.193530 0.033780
   vertex -0.090000 0.166513 -0.000000
   vertex -0.083149 0.166513 0.034441
  endloop
 endfacet
 facet normal -0.829836 0.062655 0.554479
  outer loop
   vertex -0.083149 0.166513 0.034441
   vertex -0.062417 0.193530 0.062417
   vertex -0.081551 0.193530 0.033780
  endloop
 endfacet
 facet normal -0.829836 0.062655 0.554479
  outer loop
   vertex -0.062417 0.193530 0.062417
   vertex -0.083149 0.166513 0.034441
   vertex -0.063640 0.166513 0.063640
  endloop
 endfacet
 facet normal -0.554479 0.062655 0.829836
  outer loop
   vertex -0.062417 0.193530 0.062417
   vertex -0.034442 0.166513 0.083149
   vertex -0.033780 0.193530 0.081551
  endloop
 endfacet
 facet normal -0.554479 0.062655 0.829836
  outer loop
   vertex -0.034442 0.166513 0.083149
   vertex -0.062417 0.193530 0.062417
   vertex -0.063640 0.166513 0.063640
  endloop
 endfacet
 facet normal -0.194707 0.062654 0.978858
  outer loop
   vertex -0.033780 0.193530 0.081551
   vertex -0.000000 0.166513 0.090000
   vertex -0.000000 0.193530 0.088271
  endloop
 endfacet
 facet normal -0.194707 0.062654 0.978858
  outer loop
   vertex -0.000000 0.166513 0.090000
   vertex -0.033780 0.193530 0.081551
   vertex -0.034442 0.166513 0.083149
  endloop
 endfacet
 facet normal 0.194707 0.062654 0.978858
  outer loop
   vertex 0.033780 0.193530 0.081551
   vertex -0.000000 0.166513 0.090000
   vertex 0.034442 0.166513 0.083149
  endloop
 endfacet
 facet normal 0.194707 0.062654 0.978858
  outer loop
   vertex -0.000000 0.166513 0.090000
   vertex 0.033780 0.193530 0.081551
   vertex -0.000000 0.193530 0.088271
  endloop
 endfacet
 facet normal 0.554479 0.062655 0.829836
  outer loop
   vertex 0.062417 0.193530 0.062417
   vertex 0.034442 0.166513 0.083149
   vertex 0.063640 0.166513 0.063640
  endloop
 endfacet
 facet normal 0.554479 0.062655 0.829836
  outer loop
   vertex 0.034442 0.166513 0.083149
   vertex 0.062417 0.193530 0.062417
   vertex 0.033780 0.193530 0.081551
  endloop
 endfacet
 facet normal 0.829836 0.062655 0.554479
  outer loop
   vertex 0.063640 0.166513 0.063640
   vertex 0.081551 0.193530 0.033780
   vertex 0.062417 0.193530 0.062417
  endloop
 endfacet
 facet normal 0.829836 0.062655 0.554479
  outer loop
   vertex 0.081551 0.193530 0.033780
   vertex 0.063640 0.166513 0.063640
   vertex 0.083149 0.166513 0.034441
  endloop
 endfacet
 facet normal 0.978858 0.062654 0.194707
  outer loop
   vertex 0.083149 0.166513 0.034441
   vertex 0.088271 0.193530 -0.000000
   vertex 0.081551 0.193530 0.033780
  endloop
 endfacet
 facet normal 0.978858 0.062654 0.194707
  outer loop
   vertex 0.088271 0.193530 -0.000000
   vertex 0.083149 0.166513 0.034441
   vertex 0.090000 0.166513 -0.000000
  endloop
 endfacet
 facet normal 0.978859 -0.062654 -0.194706
  outer loop
   vertex 0.088271 0.139495 -0.000000
   vertex 0.083149 0.166513 -0.034442
   vertex 0.090000 0.166513 -0.000000
  endloop
 endfacet
 facet normal 0.978859 -0.062654 -0.194706
  outer loop
   vertex 0.083149 0.166513 -0.034442
   vertex 0.088271 0.139495 -0.000000
   vertex 0.081551 0.139495 -0.033780
  endloop
 endfacet
 facet normal 0.829835 -0.062655 -0.554480
  outer loop
   vertex 0.081551 0.139495 -0.033780
   vertex 0.063640 0.166513 -0.063640
   vertex 0.083149 0.166513 -0.034442
  endloop
 endfacet
 facet normal 0.829835 -0.062655 -0.554480
  outer loop
   vertex 0.063640 0.166513 -0.063640
   vertex 0.081551 0.139495 -0.033780
   vertex 0.062417 0.139495 -0.062417
  endloop
 endfacet
 facet normal 0.554480 -0.062655 -0.829835
  outer loop
   vertex 0.062417 0.139495 -0.062417
   vertex 0.034442 0.166513 -0.083149
   vertex 0.063640 0.166513 -0.063640
  endloop
 endfacet
 facet normal 0.554480 -0.062655 -0.829835
  outer loop
   vertex 0.034442 0.166513 -0.083149
   vertex 0.062417 0.139495 -0.062417
   vertex 0.033780 0.139495 -0.081551
  endloop
 endfacet
 facet normal 0.194706 -0.062654 -0.978859
  outer loop
   vertex 0.000000 0.139495 -0.088271
   vertex 0.034442 0.166513 -0.083149
   vertex 0.033780 0.139495 -0.081551
  endloop
 endfacet
 facet normal 0.194706 -0.062654 -0.978859
  outer loop
   vertex 0.034442 0.166513 -0.083149
   vertex 0.000000 0.139495 -0.088271
   vertex 0.000000 0.166513 -0.090000
  endloop
 endfacet
 facet normal -0.194706 -0.062654 -0.978859
  outer loop
   vertex -0.033780 0.139495 -0.081551
   vertex 0.000000 0.166513 -0.090000
   vertex 0.000000 0.139495 -0.088271
  endloop
 endfacet
 facet normal -0.194706 -0.062654 -0.978859
  outer loop
   vertex 0.000000 0.166513 -0.090000
   vertex -0.033780 0.139495 -0.081551
   vertex -0.034442 0.166513 -0.083149
  endloop
 endfacet
 facet normal -0.554480 -0.062655 -0.829835
  outer loop
   vertex -0.062417 0.139495 -0.062417
   vertex -0.034442 0.166513 -0.083149
   vertex -0.033780 0.139495 -0.081551
  endloop
 endfacet
 facet normal -0.554480 -0.062655 -0.829835
  outer loop
   vertex -0.034442 0.166513 -0.083149
   vertex -0.062417 0.139495 -0.062417
   vertex -0.063640 0.166513 -0.063640
  endloop
 endfacet
 facet normal -0.829835 -0.062655 -0.554480
  outer loop
   vertex -0.062417 0.139495 -0.062417
   vertex -0.083149 0.166513 -0.034442
   vertex -0.063640 0.166513 -0.063640
  endloop
 endfacet
 facet normal -0.829835 -0.062655 -0.554480
  outer loop
   vertex -0.083149 0.166513 -0.034442
   vertex -0.062417 0.139495 -0.062417
   vertex -0.081551 0.139495 -0.033780
  endloop
 endfacet
 facet normal -0.978859 -0.062654 -0.194706
  outer loop
   vertex -0.081551 0.139495 -0.033780
   vertex -0.090000 0.166513 -0.000000
   vertex -0.083149 0.166513 -0.034442
  endloop
 endfacet
 facet normal -0.978859 -0.062654 -0.194706
  outer loop
   vertex -0.090000 0.166513 -0.000000
   vertex -0.081551 0.139495 -0.033780
   vertex -0.088271 0.139495 -0.000000
  endloop
 endfacet
 facet normal -0.978859 -0.062654 0.194706
  outer loop
   vertex -0.088271 0.139495 -0.000000
   vertex -0.083149 0.166513 0.034441
   vertex -0.090000 0.166513 -0.000000
  endloop
 endfacet
 facet normal -0.978859 -0.062654 0.194706
  outer loop
   vertex -0.083149 0.166513 0.034441
   vertex -0.088271 0.139495 -0.000000
   vertex -0.081551 0.139495 0.033780
  endloop
 endfacet
 facet normal -0.829835 -0.062655 0.554480
  outer loop
   vertex -0.081551 0.139495 0.033780
   vertex -0.063640 0.166513 0.063640
   vertex -0.083149 0.166513 0.034441
  endloop
 endfacet
 facet normal -0.829835 -0.062655 0.554480
  outer loop
   vertex -0.063640 0.166513 0.063640
   vertex -0.081551 0.139495 0.033780
   vertex -0.062417 0.139495 0.062417
  endloop
 endfacet
 facet normal -0.554480 -0.062655 0.829835
  outer loop
   vertex -0.034442 0.166513 0.083149
   vertex -0.062417 0.139495 0.062417
   vertex -0.033780 0.139495 0.081551
  endloop
 endfacet
 facet normal -0.554480 -0.062655 0.829835
  outer loop
   vertex -0.062417 0.139495 0.062417
   vertex -0.034442 0.166513 0.083149
   vertex -0.063640 0.166513 0.063640
  endloop
 endfacet
 facet normal -0.194706 -0.062654 0.978859
  outer loop
   vertex -0.000000 0.166513 0.090000
   vertex -0.033780 0.139495 0.081551
   vertex -0.000000 0.139495 0.088271
  endloop
 endfacet
 facet normal -0.194706 -0.062654 0.978859
  outer loop
   vertex -0.033780 0.139495 0.081551
   vertex -0.000000 0.166513 0.090000
   vertex -0.034442 0.166513 0.083149
  endloop
 endfacet
 facet normal 0.194706 -0.062654 0.978859
  outer loop
   vertex -0.000000 0.166513 0.090000
   vertex 0.033780 0.139495 0.081551
   vertex 0.034442 0.166513 0.083149
  endloop
 endfacet
 facet normal 0.194706 -0.062654 0.978859
  outer loop
   vertex 0.033780 0.139495 0.081551
   vertex -0.000000 0.166513 0.090000
   vertex -0.000000 0.139495 0.088271
  endloop
 endfacet
 facet normal 0.554480 -0.062655 0.829835
  outer loop
   vertex 0.034442 0.166513 0.083149
   vertex 0.062417 0.139495 0.062417
   vertex 0.063640 0.166513 0.063640
  endloop
 endfacet
 facet normal 0.554480 -0.062655 0.829835
  outer loop
   vertex 0.062417 0.139495 0.062417
   vertex 0.034442 0.166513 0.083149
   vertex 0.033780 0.139495 0.081551
  endloop
 endfacet
 facet normal 0.829835 -0.062655 0.554480
  outer loop
   vertex 0.062417 0.139495 0.062417
   vertex 0.083149 0.166513 0.034441
   vertex 0.063640 0.166513 0.063640
  endloop
 endfacet
 facet normal 0.829835 -0.062655 0.554480
  outer loop
   vertex 0.083149 0.166513 0.034441
   vertex 0.062417 0.139495 0.062417
   vertex 0.081551 0.139495 0.033780
  endloop
 endfacet
 facet normal 0.978859 -0.062654 0.194706
  outer loop
   vertex 0.081551 0.139495 0.033780
   vertex 0.090000 0.166513 -0.000000
   vertex 0.083149 0.166513 0.034441
  endloop
 endfacet
 facet normal 0.978859 -0.062654 0.194706
  outer loop
   vertex 0.090000 0.166513 -0.000000
   vertex 0.081551 0.139495 0.033780
   vertex 0.088271 0.139495 -0.000000
  endloop
 endfacet
 facet normal 0.962951 -0.189835 -0.191543
  outer loop
   vertex 0.083149 0.113516 -0.000000
   vertex 0.081551 0.139495 -0.033780
   vertex 0.088271 0.139495 -0.000000
  endloop
 endfacet
 facet normal 0.962951 -0.189835 -0.191543
  outer loop
   vertex 0.081551 0.139495 -0.033780
   vertex 0.083149 0.113516 -0.000000
   vertex 0.076820 0.113516 -0.031820
  endloop
 endfacet
 facet normal 0.816350 -0.189835 -0.545468
  outer loop
   vertex 0.076820 0.113516 -0.031820
   vertex 0.062417 0.139495 -0.062417
   vertex 0.081551 0.139495 -0.033780
  endloop
 endfacet
 facet normal 0.816350 -0.189835 -0.545468
  outer loop
   vertex 0.062417 0.139495 -0.062417
   vertex 0.076820 0.113516 -0.031820
   vertex 0.058795 0.113516 -0.058795
  endloop
 endfacet
 facet normal 0.545468 -0.189835 -0.816350
  outer loop
   vertex 0.058795 0.113516 -0.058795
   vertex 0.033780 0.139495 -0.081551
   vertex 0.062417 0.139495 -0.062417
  endloop
 endfacet
 facet normal 0.545468 -0.189835 -0.816350
  outer loop
   vertex 0.033780 0.139495 -0.081551
   vertex 0.058795 0.113516 -0.058795
   vertex 0.031820 0.113516 -0.076820
  endloop
 endfacet
 facet normal 0.191543 -0.189835 -0.962951
  outer loop
   vertex 0.000000 0.113516 -0.083149
   vertex 0.033780 0.139495 -0.081551
   vertex 0.031820 0.113516 -0.076820
  endloop
 endfacet
 facet normal 0.191543 -0.189835 -0.962951
  outer loop
   vertex 0.033780 0.139495 -0.081551
   vertex 0.000000 0.113516 -0.083149
   vertex 0.000000 0.139495 -0.088271
  endloop
 endfacet
 facet normal -0.191543 -0.189835 -0.962951
  outer loop
   vertex -0.031820 0.113516 -0.076820
   vertex 0.000000 0.139495 -0.088271
   vertex 0.000000 0.113516 -0.083149
  endloop
 endfacet
 facet normal -0.191543 -0.189835 -0.962951
  outer loop
   vertex 0.000000 0.139495 -0.088271
   vertex -0.031820 0.113516 -0.076820
   vertex -0.033780 0.139495 -0.081551
  endloop
 endfacet
 facet normal -0.545467 -0.189836 -0.816350
  outer loop
   vertex -0.058795 0.113516 -0.058795
   vertex -0.033780 0.139495 -0.081551
   vertex -0.031820 0.113516 -0.076820
  endloop
 endfacet
 facet normal -0.545467 -0.189836 -0.816350
  outer loop
   vertex -0.033780 0.139495 -0.081551
   vertex -0.058795 0.113516 -0.058795
   vertex -0.062417 0.139495 -0.062417
  endloop
 endfacet
 facet normal -0.816350 -0.189836 -0.545468
  outer loop
   vertex -0.058795 0.113516 -0.058795
   vertex -0.081551 0.139495 -0.033780
   vertex -0.062417 0.139495 -0.062417
  endloop
 endfacet
 facet normal -0.816350 -0.189836 -0.545468
  outer loop
   vertex -0.081551 0.139495 -0.033780
   vertex -0.058795 0.113516 -0.058795
   vertex -0.076820 0.113516 -0.031820
  endloop
 endfacet
 facet normal -0.962951 -0.189835 -0.191543
  outer loop
   vertex -0.076820 0.113516 -0.031820
   vertex -0.088271 0.139495 -0.000000
   vertex -0.081551 0.139495 -0.033780
  endloop
 endfacet
 facet normal -0.962951 -0.189835 -0.191543
  outer loop
   vertex -0.088271 0.139495 -0.000000
   vertex -0.076820 0.113516 -0.031820
   vertex -0.083149 0.113516 -0.000000
  endloop
 endfacet
 facet normal -0.962951 -0.189835 0.191543
  outer loop
   vertex -0.083149 0.113516 -0.000000
   vertex -0.081551 0.139495 0.033780
   vertex -0.088271 0.139495 -0.000000
  endloop
 endfacet
 facet normal -0.962951 -0.189835 0.191543
  outer loop
   vertex -0.081551 0.139495 0.033780
   vertex -0.083149 0.113516 -0.000000
   vertex -0.076820 0.113516 0.031820
  endloop
 endfacet
 facet normal -0.816350 -0.189836 0.545468
  outer loop
   vertex -0.076820 0.113516 0.031820
   vertex -0.062417 0.139495 0.062417
   vertex -0.081551 0.139495 0.033780
  endloop
 endfacet
 facet normal -0.816350 -0.189836 0.545468
  outer loop
   vertex -0.062417 0.139495 0.062417
   vertex -0.076820 0.113516 0.031820
   vertex -0.058795 0.113516 0.058795
  endloop
 endfacet
 facet normal -0.545468 -0.189836 0.816350
  outer loop
   vertex -0.033780 0.139495 0.081551
   vertex -0.058795 0.113516 0.058795
   vertex -0.031820 0.113516 0.076820
  endloop
 endfacet
 facet normal -0.545468 -0.189836 0.816350
  outer loop
   vertex -0.058795 0.113516 0.058795
   vertex -0.033780 0.139495 0.081551
   vertex -0.062417 0.139495 0.062417
  endloop
 endfacet
 facet normal -0.191543 -0.189835 0.962951
  outer loop
   vertex -0.000000 0.139495 0.088271
   vertex -0.031820 0.113516 0.076820
   vertex -0.000000 0.113516 0.083149
  endloop
 endfacet
 facet normal -0.191543 -0.189835 0.962951
  outer loop
   vertex -0.031820 0.113516 0.076820
   vertex -0.000000 0.139495 0.088271
   vertex -0.033780 0.139495 0.081551
  endloop
 endfacet
 facet normal 0.191543 -0.189835 0.962951
  outer loop
   vertex -0.000000 0.139495 0.088271
   vertex 0.031820 0.113516 0.076820
   vertex 0.033780 0.139495 0.081551
  endloop
 endfacet
 facet normal 0.191543 -0.189835 0.962951
  outer loop
   vertex 0.031820 0.113516 0.076820
   vertex -0.000000 0.139495 0.088271
   vertex -0.000000 0.113516 0.083149
  endloop
 endfacet
 facet normal 0.545468 -0.189836 0.816350
  outer loop
   vertex 0.033780 0.139495 0.081551
   vertex 0.058795 0.113516 0.058795
   vertex 0.062417 0.139495 0.062417
  endloop
 endfacet
 facet normal 0.545468 -0.189836 0.816350
  outer loop
   vertex 0.058795 0.113516 0.058795
   vertex 0.033780 0.139495 0.081551
   vertex 0.031820 0.113516 0.076820
  endloop
 endfacet
 facet normal 0.816350 -0.189836 0.545468
  outer loop
   vertex 0.058795 0.113516 0.058795
   vertex 0.081551 0.139495 0.033780
   vertex 0.062417 0.139495 0.062417
  endloop
 endfacet
 facet normal 0.816350 -0.189836 0.545468
  outer loop
   vertex 0.081551 0.139495 0.033780
   vertex 0.058795 0.113516 0.058795
   vertex 0.076820 0.113516 0.031820
  endloop
 endfacet
 facet normal 0.962951 -0.189835 0.191543
  outer loop
   vertex 0.076820 0.113516 0.031820
   vertex 0.088271 0.139495 -0.000000
   vertex 0.081551 0.139495 0.033780
  endloop
 endfacet
 facet normal 0.962951 -0.189835 0.191543
  outer loop
   vertex 0.088271 0.139495 -0.000000
   vertex 0.076820 0.113516 0.031820
   vertex 0.083149 0.113516 -0.000000
  endloop
 endfacet
 facet normal 0.928384 -0.322491 -0.184669
  outer loop
   vertex 0.074832 0.089574 -0.000000
   vertex 0.076820 0.113516 -0.031820
   vertex 0.083149 0.113516 -0.000000
  endloop
 endfacet
 facet normal 0.928384 -0.322491 -0.184669
  outer loop
   vertex 0.076820 0.113516 -0.031820
   vertex 0.074832 0.089574 -0.000000
   vertex 0.069136 0.089574 -0.028637
  endloop
 endfacet
 facet normal 0.787047 -0.322491 -0.525886
  outer loop
   vertex 0.069136 0.089574 -0.028637
   vertex 0.058795 0.113516 -0.058795
   vertex 0.076820 0.113516 -0.031820
  endloop
 endfacet
 facet normal 0.787047 -0.322491 -0.525886
  outer loop
   vertex 0.058795 0.113516 -0.058795
   vertex 0.069136 0.089574 -0.028637
   vertex 0.052914 0.089574 -0.052914
  endloop
 endfacet
 facet normal 0.525887 -0.322491 -0.787047
  outer loop
   vertex 0.052914 0.089574 -0.052914
   vertex 0.031820 0.113516 -0.076820
   vertex 0.058795 0.113516 -0.058795
  endloop
 endfacet
 facet normal 0.525887 -0.322491 -0.787047
  outer loop
   vertex 0.031820 0.113516 -0.076820
   vertex 0.052914 0.089574 -0.052914
   vertex 0.028637 0.089574 -0.069136
  endloop
 endfacet
 facet normal 0.184669 -0.322491 -0.928384
  outer loop
   vertex 0.000000 0.089574 -0.074832
   vertex 0.031820 0.113516 -0.076820
   vertex 0.028637 0.089574 -0.069136
  endloop
 endfacet
 facet normal 0.184669 -0.322491 -0.928384
  outer loop
   vertex 0.031820 0.113516 -0.076820
   vertex 0.000000 0.089574 -0.074832
   vertex 0.000000 0.113516 -0.083149
  endloop
 endfacet
 facet normal -0.184669 -0.322491 -0.928384
  outer loop
   vertex -0.028637 0.089574 -0.069136
   vertex 0.000000 0.113516 -0.083149
   vertex 0.000000 0.089574 -0.074832
  endloop
 endfacet
 facet normal -0.184669 -0.322491 -0.928384
  outer loop
   vertex 0.000000 0.113516 -0.083149
   vertex -0.028637 0.089574 -0.069136
   vertex -0.031820 0.113516 -0.076820
  endloop
 endfacet
 facet normal -0.525888 -0.322491 -0.787046
  outer loop
   vertex -0.052914 0.089574 -0.052914
   vertex -0.031820 0.113516 -0.076820
   vertex -0.028637 0.089574 -0.069136
  endloop
 endfacet
 facet normal -0.525888 -0.322491 -0.787046
  outer loop
   vertex -0.031820 0.113516 -0.076820
   vertex -0.052914 0.089574 -0.052914
   vertex -0.058795 0.113516 -0.058795
  endloop
 endfacet
 facet normal -0.787046 -0.322490 -0.525889
  outer loop
   vertex -0.052914 0.089574 -0.052914
   vertex -0.076820 0.113516 -0.031820
   vertex -0.058795 0.113516 -0.058795
  endloop
 endfacet
 facet normal -0.787046 -0.322490 -0.525889
  outer loop
   vertex -0.076820 0.113516 -0.031820
   vertex -0.052914 0.089574 -0.052914
   vertex -0.069136 0.089574 -0.028637
  endloop
 endfacet
 facet normal -0.928384 -0.322491 -0.184669
  outer loop
   vertex -0.069136 0.089574 -0.028637
   vertex -0.083149 0.113516 -0.000000
   vertex -0.076820 0.113516 -0.031820
  endloop
 endfacet
 facet normal -0.928384 -0.322491 -0.184669
  outer loop
   vertex -0.083149 0.113516 -0.000000
   vertex -0.069136 0.089574 -0.028637
   vertex -0.074832 0.089574 -0.000000
  endloop
 endfacet
 facet normal -0.928384 -0.322491 0.184668
  outer loop
   vertex -0.074832 0.089574 -0.000000
   vertex -0.076820 0.113516 0.031820
   vertex -0.083149 0.113516 -0.000000
  endloop
 endfacet
 facet normal -0.928384 -0.322491 0.184668
  outer loop
   vertex -0.076820 0.113516 0.031820
   vertex -0.074832 0.089574 -0.000000
   vertex -0.069136 0.089574 0.028637
  endloop
 endfacet
 facet normal -0.787046 -0.322490 0.525889
  outer loop
   vertex -0.069136 0.089574 0.028637
   vertex -0.058795 0.113516 0.058795
   vertex -0.076820 0.113516 0.031820
  endloop
 endfacet
 facet normal -0.787046 -0.322490 0.525889
  outer loop
   vertex -0.058795 0.113516 0.058795
   vertex -0.069136 0.089574 0.028637
   vertex -0.052914 0.089574 0.052914
  endloop
 endfacet
 facet normal -0.184669 -0.322491 0.928384
  outer loop
   vertex -0.000000 0.113516 0.083149
   vertex -0.028637 0.089574 0.069136
   vertex 0.000000 0.089574 0.074832
  endloop
 endfacet
 facet normal -0.184669 -0.322491 0.928384
  outer loop
   vertex -0.028637 0.089574 0.069136
   vertex -0.000000 0.113516 0.083149
   vertex -0.031820 0.113516 0.076820
  endloop
 endfacet
 facet normal 0.184668 -0.322491 0.928384
  outer loop
   vertex 0.031820 0.113516 0.076820
   vertex 0.000000 0.089574 0.074832
   vertex 0.028637 0.089574 0.069136
  endloop
 endfacet
 facet normal 0.184668 -0.322491 0.928384
  outer loop
   vertex 0.000000 0.089574 0.074832
   vertex 0.031820 0.113516 0.076820
   vertex -0.000000 0.113516 0.083149
  endloop
 endfacet
 facet normal 0.525889 -0.322490 0.787046
  outer loop
   vertex 0.031820 0.113516 0.076820
   vertex 0.052914 0.089574 0.052914
   vertex 0.058795 0.113516 0.058795
  endloop
 endfacet
 facet normal 0.525889 -0.322490 0.787046
  outer loop
   vertex 0.052914 0.089574 0.052914
   vertex 0.031820 0.113516 0.076820
   vertex 0.028637 0.089574 0.069136
  endloop
 endfacet
 facet normal 0.787046 -0.322490 0.525889
  outer loop
   vertex 0.052914 0.089574 0.052914
   vertex 0.076820 0.113516 0.031820
   vertex 0.058795 0.113516 0.058795
  endloop
 endfacet
 facet normal 0.787046 -0.322490 0.525889
  outer loop
   vertex 0.076820 0.113516 0.031820
   vertex 0.052914 0.089574 0.052914
   vertex 0.069136 0.089574 0.028637
  endloop
 endfacet
 facet normal 0.928384 -0.322491 0.184669
  outer loop
   vertex 0.069136 0.089574 0.028637
   vertex 0.083149 0.113516 -0.000000
   vertex 0.076820 0.113516 0.031820
  endloop
 endfacet
 facet normal 0.928384 -0.322491 0.184669
  outer loop
   vertex 0.083149 0.113516 -0.000000
   vertex 0.069136 0.089574 0.028637
   vertex 0.074832 0.089574 -0.000000
  endloop
 endfacet
 facet normal 0.869065 -0.463511 -0.172869
  outer loop
   vertex 0.063640 0.068588 -0.000000
   vertex 0.069136 0.089574 -0.028637
   vertex 0.074832 0.089574 -0.000000
  endloop
 endfacet
 facet normal 0.869065 -0.463511 -0.172869
  outer loop
   vertex 0.069136 0.089574 -0.028637
   vertex 0.063640 0.068588 -0.000000
   vertex 0.058795 0.068588 -0.024354
  endloop
 endfacet
 facet normal 0.736758 -0.463510 -0.492287
  outer loop
   vertex 0.058795 0.068588 -0.024354
   vertex 0.052914 0.089574 -0.052914
   vertex 0.069136 0.089574 -0.028637
  endloop
 endfacet
 facet normal 0.736758 -0.463510 -0.492287
  outer loop
   vertex 0.052914 0.089574 -0.052914
   vertex 0.058795 0.068588 -0.024354
   vertex 0.045000 0.068588 -0.045000
  endloop
 endfacet
 facet normal 0.492287 -0.463510 -0.736758
  outer loop
   vertex 0.045000 0.068588 -0.045000
   vertex 0.028637 0.089574 -0.069136
   vertex 0.052914 0.089574 -0.052914
  endloop
 endfacet
 facet normal 0.492287 -0.463510 -0.736758
  outer loop
   vertex 0.028637 0.089574 -0.069136
   vertex 0.045000 0.068588 -0.045000
   vertex 0.024354 0.068588 -0.058795
  endloop
 endfacet
 facet normal 0.172869 -0.463510 -0.869065
  outer loop
   vertex 0.000000 0.068588 -0.063640
   vertex 0.028637 0.089574 -0.069136
   vertex 0.024354 0.068588 -0.058795
  endloop
 endfacet
 facet normal 0.172869 -0.463510 -0.869065
  outer loop
   vertex 0.028637 0.089574 -0.069136
   vertex 0.000000 0.068588 -0.063640
   vertex 0.000000 0.089574 -0.074832
  endloop
 endfacet
 facet normal -0.172869 -0.463510 -0.869065
  outer loop
   vertex -0.024354 0.068588 -0.058795
   vertex 0.000000 0.089574 -0.074832
   vertex 0.000000 0.068588 -0.063640
  endloop
 endfacet
 facet normal -0.172869 -0.463510 -0.869065
  outer loop
   vertex 0.000000 0.089574 -0.074832
   vertex -0.024354 0.068588 -0.058795
   vertex -0.028637 0.089574 -0.069136
  endloop
 endfacet
 facet normal -0.492286 -0.463509 -0.736759
  outer loop
   vertex -0.045000 0.068588 -0.045000
   vertex -0.028637 0.089574 -0.069136
   vertex -0.024354 0.068588 -0.058795
  endloop
 endfacet
 facet normal -0.492286 -0.463509 -0.736759
  outer loop
   vertex -0.028637 0.089574 -0.069136
   vertex -0.045000 0.068588 -0.045000
   vertex -0.052914 0.089574 -0.052914
  endloop
 endfacet
 facet normal -0.736758 -0.463510 -0.492287
  outer loop
   vertex -0.045000 0.068588 -0.045000
   vertex -0.069136 0.089574 -0.028637
   vertex -0.052914 0.089574 -0.052914
  endloop
 endfacet
 facet normal -0.736758 -0.463510 -0.492287
  outer loop
   vertex -0.069136 0.089574 -0.028637
   vertex -0.045000 0.068588 -0.045000
   vertex -0.058795 0.068588 -0.024354
  endloop
 endfacet
 facet normal -0.869065 -0.463511 -0.172869
  outer loop
   vertex -0.058795 0.068588 -0.024354
   vertex -0.074832 0.089574 -0.000000
   vertex -0.069136 0.089574 -0.028637
  endloop
 endfacet
 facet normal -0.869065 -0.463511 -0.172869
  outer loop
   vertex -0.074832 0.089574 -0.000000
   vertex -0.058795 0.068588 -0.024354
   vertex -0.063640 0.068588 -0.000000
  endloop
 endfacet
 facet normal -0.869065 -0.463511 0.172868
  outer loop
   vertex -0.063640 0.068588 -0.000000
   vertex -0.069136 0.089574 0.028637
   vertex -0.074832 0.089574 -0.000000
  endloop
 endfacet
 facet normal -0.869065 -0.463511 0.172868
  outer loop
   vertex -0.069136 0.089574 0.028637
   vertex -0.063640 0.068588 -0.000000
   vertex -0.058795 0.068588 0.024354
  endloop
 endfacet
 facet normal -0.736758 -0.463510 0.492287
  outer loop
   vertex -0.058795 0.068588 0.024354
   vertex -0.052914 0.089574 0.052914
   vertex -0.069136 0.089574 0.028637
  endloop
 endfacet
 facet normal -0.736758 -0.463510 0.492287
  outer loop
   vertex -0.052914 0.089574 0.052914
   vertex -0.058795 0.068588 0.024354
   vertex -0.045000 0.068588 0.045000
  endloop
 endfacet
 facet normal -0.492287 -0.463510 0.736758
  outer loop
   vertex -0.028637 0.089574 0.069136
   vertex -0.045000 0.068588 0.045000
   vertex -0.024354 0.068588 0.058795
  endloop
 endfacet
 facet normal -0.492287 -0.463510 0.736758
  outer loop
   vertex -0.045000 0.068588 0.045000
   vertex -0.028637 0.089574 0.069136
   vertex -0.052914 0.089574 0.052914
  endloop
 endfacet
 facet normal -0.172869 -0.463511 0.869065
  outer loop
   vertex 0.000000 0.089574 0.074832
   vertex -0.024354 0.068588 0.058795
   vertex 0.000000 0.068588 0.063640
  endloop
 endfacet
 facet normal -0.172869 -0.463511 0.869065
  outer loop
   vertex -0.024354 0.068588 0.058795
   vertex 0.000000 0.089574 0.074832
   vertex -0.028637 0.089574 0.069136
  endloop
 endfacet
 facet normal 0.172869 -0.463511 0.869065
  outer loop
   vertex 0.000000 0.089574 0.074832
   vertex 0.024354 0.068588 0.058795
   vertex 0.028637 0.089574 0.069136
  endloop
 endfacet
 facet normal 0.172869 -0.463511 0.869065
  outer loop
   vertex 0.024354 0.068588 0.058795
   vertex 0.000000 0.089574 0.074832
   vertex 0.000000 0.068588 0.063640
  endloop
 endfacet
 facet normal 0.492287 -0.463510 0.736758
  outer loop
   vertex 0.028637 0.089574 0.069136
   vertex 0.045000 0.068588 0.045000
   vertex 0.052914 0.089574 0.052914
  endloop
 endfacet
 facet normal 0.492287 -0.463510 0.736758
  outer loop
   vertex 0.045000 0.068588 0.045000
   vertex 0.028637 0.089574 0.069136
   vertex 0.024354 0.068588 0.058795
  endloop
 endfacet
 facet normal 0.736758 -0.463510 0.492287
  outer loop
   vertex 0.045000 0.068588 0.045000
   vertex 0.069136 0.089574 0.028637
   vertex 0.052914 0.089574 0.052914
  endloop
 endfacet
 facet normal 0.736758 -0.463510 0.492287
  outer loop
   vertex 0.069136 0.089574 0.028637
   vertex 0.045000 0.068588 0.045000
   vertex 0.058795 0.068588 0.024354
  endloop
 endfacet
 facet normal 0.869065 -0.463511 0.172869
  outer loop
   vertex 0.058795 0.068588 0.024354
   vertex 0.074832 0.089574 -0.000000
   vertex 0.069136 0.089574 0.028637
  endloop
 endfacet
 facet normal 0.869065 -0.463511 0.172869
  outer loop
   vertex 0.074832 0.089574 -0.000000
   vertex 0.058795 0.068588 0.024354
   vertex 0.063640 0.068588 -0.000000
  endloop
 endfacet
 facet normal 0.774609 -0.613385 -0.154080
  outer loop
   vertex 0.050001 0.051365 -0.000000
   vertex 0.058795 0.068588 -0.024354
   vertex 0.063640 0.068588 -0.000000
  endloop
 endfacet
 facet normal 0.774609 -0.613385 -0.154080
  outer loop
   vertex 0.058795 0.068588 -0.024354
   vertex 0.050001 0.051365 -0.000000
   vertex 0.046195 0.051365 -0.019135
  endloop
 endfacet
 facet normal 0.656683 -0.613384 -0.438780
  outer loop
   vertex 0.046195 0.051365 -0.019135
   vertex 0.045000 0.068588 -0.045000
   vertex 0.058795 0.068588 -0.024354
  endloop
 endfacet
 facet normal 0.656683 -0.613384 -0.438780
  outer loop
   vertex 0.045000 0.068588 -0.045000
   vertex 0.046195 0.051365 -0.019135
   vertex 0.035356 0.051365 -0.035356
  endloop
 endfacet
 facet normal 0.438780 -0.613384 -0.656683
  outer loop
   vertex 0.035356 0.051365 -0.035356
   vertex 0.024354 0.068588 -0.058795
   vertex 0.045000 0.068588 -0.045000
  endloop
 endfacet
 facet normal 0.438780 -0.613384 -0.656683
  outer loop
   vertex 0.024354 0.068588 -0.058795
   vertex 0.035356 0.051365 -0.035356
   vertex 0.019135 0.051365 -0.046195
  endloop
 endfacet
 facet normal 0.154080 -0.613385 -0.774609
  outer loop
   vertex 0.000000 0.051365 -0.050001
   vertex 0.024354 0.068588 -0.058795
   vertex 0.019135 0.051365 -0.046195
  endloop
 endfacet
 facet normal 0.154080 -0.613385 -0.774609
  outer loop
   vertex 0.024354 0.068588 -0.058795
   vertex 0.000000 0.051365 -0.050001
   vertex 0.000000 0.068588 -0.063640
  endloop
 endfacet
 facet normal -0.154080 -0.613385 -0.774609
  outer loop
   vertex -0.019135 0.051365 -0.046195
   vertex 0.000000 0.068588 -0.063640
   vertex 0.000000 0.051365 -0.050001
  endloop
 endfacet
 facet normal -0.154080 -0.613385 -0.774609
  outer loop
   vertex 0.000000 0.068588 -0.063640
   vertex -0.019135 0.051365 -0.046195
   vertex -0.024354 0.068588 -0.058795
  endloop
 endfacet
 facet normal -0.438780 -0.613384 -0.656683
  outer loop
   vertex -0.035356 0.051365 -0.035356
   vertex -0.024354 0.068588 -0.058795
   vertex -0.019135 0.051365 -0.046195
  endloop
 endfacet
 facet normal -0.438780 -0.613384 -0.656683
  outer loop
   vertex -0.024354 0.068588 -0.058795
   vertex -0.035356 0.051365 -0.035356
   vertex -0.045000 0.068588 -0.045000
  endloop
 endfacet
 facet normal -0.656683 -0.613384 -0.438780
  outer loop
   vertex -0.035356 0.051365 -0.035356
   vertex -0.058795 0.068588 -0.024354
   vertex -0.045000 0.068588 -0.045000
  endloop
 endfacet
 facet normal -0.656683 -0.613384 -0.438780
  outer loop
   vertex -0.058795 0.068588 -0.024354
   vertex -0.035356 0.051365 -0.035356
   vertex -0.046195 0.051365 -0.019135
  endloop
 endfacet
 facet normal -0.774609 -0.613385 -0.154080
  outer loop
   vertex -0.046195 0.051365 -0.019135
   vertex -0.063640 0.068588 -0.000000
   vertex -0.058795 0.068588 -0.024354
  endloop
 endfacet
 facet normal -0.774609 -0.613385 -0.154080
  outer loop
   vertex -0.063640 0.068588 -0.000000
   vertex -0.046195 0.051365 -0.019135
   vertex -0.050001 0.051365 -0.000000
  endloop
 endfacet
 facet normal -0.774609 -0.613385 0.154080
  outer loop
   vertex -0.050001 0.051365 -0.000000
   vertex -0.058795 0.068588 0.024354
   vertex -0.063640 0.068588 -0.000000
  endloop
 endfacet
 facet normal -0.774609 -0.613385 0.154080
  outer loop
   vertex -0.058795 0.068588 0.024354
   vertex -0.050001 0.051365 -0.000000
   vertex -0.046195 0.051365 0.019135
  endloop
 endfacet
 facet normal -0.656683 -0.613384 0.438780
  outer loop
   vertex -0.046195 0.051365 0.019135
   vertex -0.045000 0.068588 0.045000
   vertex -0.058795 0.068588 0.024354
  endloop
 endfacet
 facet normal -0.656683 -0.613384 0.438780
  outer loop
   vertex -0.045000 0.068588 0.045000
   vertex -0.046195 0.051365 0.019135
   vertex -0.035356 0.051365 0.035356
  endloop
 endfacet
 facet normal -0.438780 -0.613384 0.656683
  outer loop
   vertex -0.024354 0.068588 0.058795
   vertex -0.035356 0.051365 0.035356
   vertex -0.019135 0.051365 0.046195
  endloop
 endfacet
 facet normal -0.438780 -0.613384 0.656683
  outer loop
   vertex -0.035356 0.051365 0.035356
   vertex -0.024354 0.068588 0.058795
   vertex -0.045000 0.068588 0.045000
  endloop
 endfacet
 facet normal -0.154080 -0.613385 0.774609
  outer loop
   vertex 0.000000 0.068588 0.063640
   vertex -0.019135 0.051365 0.046195
   vertex 0.000000 0.051365 0.050001
  endloop
 endfacet
 facet normal -0.154080 -0.613385 0.774609
  outer loop
   vertex -0.019135 0.051365 0.046195
   vertex 0.000000 0.068588 0.063640
   vertex -0.024354 0.068588 0.058795
  endloop
 endfacet
 facet normal 0.154080 -0.613385 0.774609
  outer loop
   vertex 0.000000 0.068588 0.063640
   vertex 0.019135 0.051365 0.046195
   vertex 0.024354 0.068588 0.058795
  endloop
 endfacet
 facet normal 0.154080 -0.613385 0.774609
  outer loop
   vertex 0.019135 0.051365 0.046195
   vertex 0.000000 0.068588 0.063640
   vertex 0.000000 0.051365 0.050001
  endloop
 endfacet
 facet normal 0.438780 -0.613384 0.656683
  outer loop
   vertex 0.024354 0.068588 0.058795
   vertex 0.035356 0.051365 0.035356
   vertex 0.045000 0.068588 0.045000
  endloop
 endfacet
 facet normal 0.438780 -0.613384 0.656683
  outer loop
   vertex 0.035356 0.051365 0.035356
   vertex 0.024354 0.068588 0.058795
   vertex 0.019135 0.051365 0.046195
  endloop
 endfacet
 facet normal 0.656683 -0.613384 0.438780
  outer loop
   vertex 0.035356 0.051365 0.035356
   vertex 0.058795 0.068588 0.024354
   vertex 0.045000 0.068588 0.045000
  endloop
 endfacet
 facet normal 0.656683 -0.613384 0.438780
  outer loop
   vertex 0.058795 0.068588 0.024354
   vertex 0.035356 0.051365 0.035356
   vertex 0.046195 0.051365 0.019135
  endloop
 endfacet
 facet normal 0.774609 -0.613385 0.154080
  outer loop
   vertex 0.046195 0.051365 0.019135
   vertex 0.063640 0.068588 -0.000000
   vertex 0.058795 0.068588 0.024354
  endloop
 endfacet
 facet normal 0.774609 -0.613385 0.154080
  outer loop
   vertex 0.063640 0.068588 -0.000000
   vertex 0.046195 0.051365 0.019135
   vertex 0.050001 0.051365 -0.000000
  endloop
 endfacet
 facet normal 0.630200 -0.766247 -0.125354
  outer loop
   vertex 0.031820 0.038568 -0.013180
   vertex 0.050001 0.051365 -0.000000
   vertex 0.034442 0.038568 -0.000000
  endloop
 endfacet
 facet normal 0.630200 -0.766247 -0.125354
  outer loop
   vertex 0.050001 0.051365 -0.000000
   vertex 0.031820 0.038568 -0.013180
   vertex 0.046195 0.051365 -0.019135
  endloop
 endfacet
 facet normal 0.534257 -0.766248 -0.356978
  outer loop
   vertex 0.024354 0.038568 -0.024354
   vertex 0.046195 0.051365 -0.019135
   vertex 0.031820 0.038568 -0.013180
  endloop
 endfacet
 facet normal 0.534257 -0.766248 -0.356978
  outer loop
   vertex 0.046195 0.051365 -0.019135
   vertex 0.024354 0.038568 -0.024354
   vertex 0.035356 0.051365 -0.035356
  endloop
 endfacet
 facet normal 0.356978 -0.766248 -0.534257
  outer loop
   vertex 0.013180 0.038568 -0.031820
   vertex 0.035356 0.051365 -0.035356
   vertex 0.024354 0.038568 -0.024354
  endloop
 endfacet
 facet normal 0.356978 -0.766248 -0.534257
  outer loop
   vertex 0.035356 0.051365 -0.035356
   vertex 0.013180 0.038568 -0.031820
   vertex 0.019135 0.051365 -0.046195
  endloop
 endfacet
 facet normal 0.125354 -0.766247 -0.630200
  outer loop
   vertex 0.000000 0.038568 -0.034442
   vertex 0.019135 0.051365 -0.046195
   vertex 0.013180 0.038568 -0.031820
  endloop
 endfacet
 facet normal 0.125354 -0.766247 -0.630200
  outer loop
   vertex 0.019135 0.051365 -0.046195
   vertex 0.000000 0.038568 -0.034442
   vertex 0.000000 0.051365 -0.050001
  endloop
 endfacet
 facet normal -0.125354 -0.766247 -0.630200
  outer loop
   vertex -0.019135 0.051365 -0.046195
   vertex 0.000000 0.038568 -0.034442
   vertex -0.013180 0.038568 -0.031820
  endloop
 endfacet
 facet normal -0.125354 -0.766247 -0.630200
  outer loop
   vertex 0.000000 0.038568 -0.034442
   vertex -0.019135 0.051365 -0.046195
   vertex 0.000000 0.051365 -0.050001
  endloop
 endfacet
 facet normal -0.356978 -0.766248 -0.534257
  outer loop
   vertex -0.035356 0.051365 -0.035356
   vertex -0.013180 0.038568 -0.031820
   vertex -0.024354 0.038568 -0.024354
  endloop
 endfacet
 facet normal -0.356978 -0.766248 -0.534257
  outer loop
   vertex -0.013180 0.038568 -0.031820
   vertex -0.035356 0.051365 -0.035356
   vertex -0.019135 0.051365 -0.046195
  endloop
 endfacet
 facet normal -0.534257 -0.766248 -0.356978
  outer loop
   vertex -0.046195 0.051365 -0.019135
   vertex -0.024354 0.038568 -0.024354
   vertex -0.031820 0.038568 -0.013180
  endloop
 endfacet
 facet normal -0.534257 -0.766248 -0.356978
  outer loop
   vertex -0.024354 0.038568 -0.024354
   vertex -0.046195 0.051365 -0.019135
   vertex -0.035356 0.051365 -0.035356
  endloop
 endfacet
 facet normal -0.630200 -0.766247 -0.125354
  outer loop
   vertex -0.050001 0.051365 -0.000000
   vertex -0.031820 0.038568 -0.013180
   vertex -0.034442 0.038568 -0.000000
  endloop
 endfacet
 facet normal -0.630200 -0.766247 -0.125354
  outer loop
   vertex -0.031820 0.038568 -0.013180
   vertex -0.050001 0.051365 -0.000000
   vertex -0.046195 0.051365 -0.019135
  endloop
 endfacet
 facet normal -0.630200 -0.766247 0.125354
  outer loop
   vertex -0.050001 0.051365 -0.000000
   vertex -0.031820 0.038568 0.013180
   vertex -0.046195 0.051365 0.019135
  endloop
 endfacet
 facet normal -0.630200 -0.766247 0.125354
  outer loop
   vertex -0.031820 0.038568 0.013180
   vertex -0.050001 0.051365 -0.000000
   vertex -0.034442 0.038568 -0.000000
  endloop
 endfacet
 facet normal -0.534257 -0.766248 0.356978
  outer loop
   vertex -0.046195 0.051365 0.019135
   vertex -0.024354 0.038568 0.024354
   vertex -0.035356 0.051365 0.035356
  endloop
 endfacet
 facet normal -0.534257 -0.766248 0.356978
  outer loop
   vertex -0.024354 0.038568 0.024354
   vertex -0.046195 0.051365 0.019135
   vertex -0.031820 0.038568 0.013180
  endloop
 endfacet
 facet normal -0.356978 -0.766248 0.534257
  outer loop
   vertex -0.035356 0.051365 0.035356
   vertex -0.013180 0.038568 0.031820
   vertex -0.019135 0.051365 0.046195
  endloop
 endfacet
 facet normal -0.356978 -0.766248 0.534257
  outer loop
   vertex -0.013180 0.038568 0.031820
   vertex -0.035356 0.051365 0.035356
   vertex -0.024354 0.038568 0.024354
  endloop
 endfacet
 facet normal -0.125354 -0.766247 0.630200
  outer loop
   vertex -0.019135 0.051365 0.046195
   vertex 0.000000 0.038568 0.034441
   vertex 0.000000 0.051365 0.050001
  endloop
 endfacet
 facet normal -0.125354 -0.766247 0.630200
  outer loop
   vertex 0.000000 0.038568 0.034441
   vertex -0.019135 0.051365 0.046195
   vertex -0.013180 0.038568 0.031820
  endloop
 endfacet
 facet normal 0.125354 -0.766247 0.630200
  outer loop
   vertex 0.000000 0.038568 0.034441
   vertex 0.019135 0.051365 0.046195
   vertex 0.000000 0.051365 0.050001
  endloop
 endfacet
 facet normal 0.125354 -0.766247 0.630200
  outer loop
   vertex 0.019135 0.051365 0.046195
   vertex 0.000000 0.038568 0.034441
   vertex 0.013180 0.038568 0.031820
  endloop
 endfacet
 facet normal 0.356978 -0.766248 0.534257
  outer loop
   vertex 0.013180 0.038568 0.031820
   vertex 0.035356 0.051365 0.035356
   vertex 0.019135 0.051365 0.046195
  endloop
 endfacet
 facet normal 0.356978 -0.766248 0.534257
  outer loop
   vertex 0.035356 0.051365 0.035356
   vertex 0.013180 0.038568 0.031820
   vertex 0.024354 0.038568 0.024354
  endloop
 endfacet
 facet normal 0.534257 -0.766248 0.356978
  outer loop
   vertex 0.024354 0.038568 0.024354
   vertex 0.046195 0.051365 0.019135
   vertex 0.035356 0.051365 0.035356
  endloop
 endfacet
 facet normal 0.534257 -0.766248 0.356978
  outer loop
   vertex 0.046195 0.051365 0.019135
   vertex 0.024354 0.038568 0.024354
   vertex 0.031820 0.038568 0.013180
  endloop
 endfacet
 facet normal 0.630200 -0.766247 0.125354
  outer loop
   vertex 0.034442 0.038568 -0.000000
   vertex 0.046195 0.051365 0.019135
   vertex 0.031820 0.038568 0.013180
  endloop
 endfacet
 facet normal 0.630200 -0.766247 0.125354
  outer loop
   vertex 0.046195 0.051365 0.019135
   vertex 0.034442 0.038568 -0.000000
   vertex 0.050001 0.051365 -0.000000
  endloop
 endfacet
 facet normal 0.421485 -0.902952 -0.083838
  outer loop
   vertex 0.016222 0.030687 -0.006719
   vertex 0.034442 0.038568 -0.000000
   vertex 0.017558 0.030687 -0.000000
  endloop
 endfacet
 facet normal 0.421485 -0.902952 -0.083838
  outer loop
   vertex 0.034442 0.038568 -0.000000
   vertex 0.016222 0.030687 -0.006719
   vertex 0.031820 0.038568 -0.013180
  endloop
 endfacet
 facet normal 0.357318 -0.902951 -0.238753
  outer loop
   vertex 0.012416 0.030687 -0.012416
   vertex 0.031820 0.038568 -0.013180
   vertex 0.016222 0.030687 -0.006719
  endloop
 endfacet
 facet normal 0.357318 -0.902951 -0.238753
  outer loop
   vertex 0.031820 0.038568 -0.013180
   vertex 0.012416 0.030687 -0.012416
   vertex 0.024354 0.038568 -0.024354
  endloop
 endfacet
 facet normal 0.238754 -0.902951 -0.357318
  outer loop
   vertex 0.006719 0.030687 -0.016222
   vertex 0.024354 0.038568 -0.024354
   vertex 0.012416 0.030687 -0.012416
  endloop
 endfacet
 facet normal 0.238754 -0.902951 -0.357318
  outer loop
   vertex 0.024354 0.038568 -0.024354
   vertex 0.006719 0.030687 -0.016222
   vertex 0.013180 0.038568 -0.031820
  endloop
 endfacet
 facet normal 0.083838 -0.902952 -0.421485
  outer loop
   vertex 0.000000 0.030687 -0.017558
   vertex 0.013180 0.038568 -0.031820
   vertex 0.006719 0.030687 -0.016222
  endloop
 endfacet
 facet normal 0.083838 -0.902952 -0.421485
  outer loop
   vertex 0.013180 0.038568 -0.031820
   vertex 0.000000 0.030687 -0.017558
   vertex 0.000000 0.038568 -0.034442
  endloop
 endfacet
 facet normal -0.083838 -0.902952 -0.421485
  outer loop
   vertex -0.013180 0.038568 -0.031820
   vertex 0.000000 0.030687 -0.017558
   vertex -0.006719 0.030687 -0.016222
  endloop
 endfacet
 facet normal -0.083838 -0.902952 -0.421485
  outer loop
   vertex 0.000000 0.030687 -0.017558
   vertex -0.013180 0.038568 -0.031820
   vertex 0.000000 0.038568 -0.034442
  endloop
 endfacet
 facet normal -0.238753 -0.902951 -0.357318
  outer loop
   vertex -0.024354 0.038568 -0.024354
   vertex -0.006719 0.030687 -0.016222
   vertex -0.012416 0.030687 -0.012416
  endloop
 endfacet
 facet normal -0.238753 -0.902951 -0.357318
  outer loop
   vertex -0.006719 0.030687 -0.016222
   vertex -0.024354 0.038568 -0.024354
   vertex -0.013180 0.038568 -0.031820
  endloop
 endfacet
 facet normal -0.357318 -0.902951 -0.238753
  outer loop
   vertex -0.031820 0.038568 -0.013180
   vertex -0.012416 0.030687 -0.012416
   vertex -0.016222 0.030687 -0.006719
  endloop
 endfacet
 facet normal -0.357318 -0.902951 -0.238753
  outer loop
   vertex -0.012416 0.030687 -0.012416
   vertex -0.031820 0.038568 -0.013180
   vertex -0.024354 0.038568 -0.024354
  endloop
 endfacet
 facet normal -0.421485 -0.902952 -0.083838
  outer loop
   vertex -0.034442 0.038568 -0.000000
   vertex -0.016222 0.030687 -0.006719
   vertex -0.017558 0.030687 -0.000000
  endloop
 endfacet
 facet normal -0.421485 -0.902952 -0.083838
  outer loop
   vertex -0.016222 0.030687 -0.006719
   vertex -0.034442 0.038568 -0.000000
   vertex -0.031820 0.038568 -0.013180
  endloop
 endfacet
 facet normal -0.421485 -0.902952 0.083838
  outer loop
   vertex -0.034442 0.038568 -0.000000
   vertex -0.016222 0.030687 0.006719
   vertex -0.031820 0.038568 0.013180
  endloop
 endfacet
 facet normal -0.421485 -0.902952 0.083838
  outer loop
   vertex -0.016222 0.030687 0.006719
   vertex -0.034442 0.038568 -0.000000
   vertex -0.017558 0.030687 -0.000000
  endloop
 endfacet
 facet normal -0.357318 -0.902951 0.238753
  outer loop
   vertex -0.031820 0.038568 0.013180
   vertex -0.012416 0.030687 0.012415
   vertex -0.024354 0.038568 0.024354
  endloop
 endfacet
 facet normal -0.357318 -0.902951 0.238753
  outer loop
   vertex -0.012416 0.030687 0.012415
   vertex -0.031820 0.038568 0.013180
   vertex -0.016222 0.030687 0.006719
  endloop
 endfacet
 facet normal -0.238753 -0.902951 0.357318
  outer loop
   vertex -0.024354 0.038568 0.024354
   vertex -0.006719 0.030687 0.016222
   vertex -0.013180 0.038568 0.031820
  endloop
 endfacet
 facet normal -0.238753 -0.902951 0.357318
  outer loop
   vertex -0.006719 0.030687 0.016222
   vertex -0.024354 0.038568 0.024354
   vertex -0.012416 0.030687 0.012415
  endloop
 endfacet
 facet normal -0.083838 -0.902952 0.421485
  outer loop
   vertex -0.013180 0.038568 0.031820
   vertex 0.000000 0.030687 0.017558
   vertex 0.000000 0.038568 0.034441
  endloop
 endfacet
 facet normal -0.083838 -0.902952 0.421485
  outer loop
   vertex 0.000000 0.030687 0.017558
   vertex -0.013180 0.038568 0.031820
   vertex -0.006719 0.030687 0.016222
  endloop
 endfacet
 facet normal 0.083838 -0.902952 0.421485
  outer loop
   vertex 0.000000 0.030687 0.017558
   vertex 0.013180 0.038568 0.031820
   vertex 0.000000 0.038568 0.034441
  endloop
 endfacet
 facet normal 0.083838 -0.902952 0.421485
  outer loop
   vertex 0.013180 0.038568 0.031820
   vertex 0.000000 0.030687 0.017558
   vertex 0.006719 0.030687 0.016222
  endloop
 endfacet
 facet normal 0.238753 -0.902951 0.357318
  outer loop
   vertex 0.006719 0.030687 0.016222
   vertex 0.024354 0.038568 0.024354
   vertex 0.013180 0.038568 0.031820
  endloop
 endfacet
 facet normal 0.238753 -0.902951 0.357318
  outer loop
   vertex 0.024354 0.038568 0.024354
   vertex 0.006719 0.030687 0.016222
   vertex 0.012416 0.030687 0.012415
  endloop
 endfacet
 facet normal 0.357318 -0.902951 0.238753
  outer loop
   vertex 0.012416 0.030687 0.012415
   vertex 0.031820 0.038568 0.013180
   vertex 0.024354 0.038568 0.024354
  endloop
 endfacet
 facet normal 0.357318 -0.902951 0.238753
  outer loop
   vertex 0.031820 0.038568 0.013180
   vertex 0.012416 0.030687 0.012415
   vertex 0.016222 0.030687 0.006719
  endloop
 endfacet
 facet normal 0.421485 -0.902952 0.083838
  outer loop
   vertex 0.017558 0.030687 -0.000000
   vertex 0.031820 0.038568 0.013180
   vertex 0.016222 0.030687 0.006719
  endloop
 endfacet
 facet normal 0.421485 -0.902952 0.083838
  outer loop
   vertex 0.031820 0.038568 0.013180
   vertex 0.017558 0.030687 -0.000000
   vertex 0.034442 0.038568 -0.000000
  endloop
 endfacet
endsolid
