solid stl file generated from AC3D
 facet normal 0.000000 1.000000 0.000000
  outer loop
   vertex -0.000061 -0.303911 0.189425
   vertex 0.031369 -0.303911 0.189425
   vertex 0.030298 -0.303911 0.181994
  endloop
 endfacet
 facet normal 0.000000 1.000000 0.000000
  outer loop
   vertex -0.000061 -0.303911 0.189425
   vertex 0.030298 -0.303911 0.196856
   vertex 0.031369 -0.303911 0.189425
  endloop
 endfacet
 facet normal 0.000000 1.000000 0.000000
  outer loop
   vertex -0.000061 -0.303911 0.189425
   vertex 0.027158 -0.303911 0.203781
   vertex 0.030298 -0.303911 0.196856
  endloop
 endfacet
 facet normal 0.000000 1.000000 0.000000
  outer loop
   vertex -0.000061 -0.303911 0.189425
   vertex 0.022163 -0.303911 0.209727
   vertex 0.027158 -0.303911 0.203781
  endloop
 endfacet
 facet normal 0.000000 1.000000 0.000000
  outer loop
   vertex -0.000061 -0.303911 0.189425
   vertex 0.015654 -0.303911 0.214290
   vertex 0.022163 -0.303911 0.209727
  endloop
 endfacet
 facet normal 0.000000 1.000000 0.000000
  outer loop
   vertex -0.000061 -0.303911 0.189425
   vertex 0.008074 -0.303911 0.217158
   vertex 0.015654 -0.303911 0.214290
  endloop
 endfacet
 facet normal 0.000000 1.000000 0.000000
  outer loop
   vertex -0.000061 -0.303911 0.189425
   vertex -0.000061 -0.303911 0.218137
   vertex 0.008074 -0.303911 0.217158
  endloop
 endfacet
 facet normal 0.000000 1.000000 0.000000
  outer loop
   vertex -0.000061 -0.303911 0.189425
   vertex -0.008195 -0.303911 0.217158
   vertex -0.000061 -0.303911 0.218137
  endloop
 endfacet
 facet normal 0.000000 1.000000 0.000000
  outer loop
   vertex -0.000061 -0.303911 0.189425
   vertex -0.015775 -0.303911 0.214290
   vertex -0.008195 -0.303911 0.217158
  endloop
 endfacet
 facet normal 0.000000 1.000000 0.000000
  outer loop
   vertex -0.000061 -0.303911 0.189425
   vertex -0.022285 -0.303911 0.209727
   vertex -0.015775 -0.303911 0.214290
  endloop
 endfacet
 facet normal 0.000000 1.000000 0.000000
  outer loop
   vertex -0.000061 -0.303911 0.189425
   vertex -0.027279 -0.303911 0.203781
   vertex -0.022285 -0.303911 0.209727
  endloop
 endfacet
 facet normal 0.000000 1.000000 0.000000
  outer loop
   vertex -0.000061 -0.303911 0.189425
   vertex -0.030419 -0.303911 0.196856
   vertex -0.027279 -0.303911 0.203781
  endloop
 endfacet
 facet normal 0.000000 1.000000 0.000000
  outer loop
   vertex -0.000061 -0.303911 0.189425
   vertex -0.031490 -0.303911 0.189425
   vertex -0.030419 -0.303911 0.196856
  endloop
 endfacet
 facet normal 0.000000 1.000000 0.000000
  outer loop
   vertex -0.000061 -0.303911 0.189425
   vertex -0.030419 -0.303911 0.181994
   vertex -0.031490 -0.303911 0.189425
  endloop
 endfacet
 facet normal 0.000000 1.000000 0.000000
  outer loop
   vertex -0.000061 -0.303911 0.189425
   vertex -0.027279 -0.303911 0.175069
   vertex -0.030419 -0.303911 0.181994
  endloop
 endfacet
 facet normal 0.000000 1.000000 0.000000
  outer loop
   vertex -0.000061 -0.303911 0.189425
   vertex -0.022285 -0.303911 0.169123
   vertex -0.027279 -0.303911 0.175069
  endloop
 endfacet
 facet normal 0.000000 1.000000 0.000000
  outer loop
   vertex -0.000061 -0.303911 0.189425
   vertex -0.015775 -0.303911 0.164560
   vertex -0.022285 -0.303911 0.169123
  endloop
 endfacet
 facet normal -0.000013 1.000000 0.000008
  outer loop
   vertex -0.000061 -0.303911 0.189425
   vertex -0.008195 -0.303911 0.161692
   vertex -0.015775 -0.303911 0.164560
  endloop
 endfacet
 facet normal 0.000000 1.000000 0.000004
  outer loop
   vertex -0.000061 -0.303911 0.189425
   vertex -0.000061 -0.303911 0.160713
   vertex -0.008195 -0.303911 0.161692
  endloop
 endfacet
 facet normal -0.000000 1.000000 0.000004
  outer loop
   vertex -0.000061 -0.303911 0.189425
   vertex 0.008074 -0.303911 0.161692
   vertex -0.000061 -0.303911 0.160713
  endloop
 endfacet
 facet normal 0.000013 1.000000 0.000008
  outer loop
   vertex -0.000061 -0.303911 0.189425
   vertex 0.015654 -0.303911 0.164560
   vertex 0.008074 -0.303911 0.161692
  endloop
 endfacet
 facet normal 0.000000 1.000000 0.000000
  outer loop
   vertex -0.000061 -0.303911 0.189425
   vertex 0.022163 -0.303911 0.169123
   vertex 0.015654 -0.303911 0.164560
  endloop
 endfacet
 facet normal 0.000000 1.000000 0.000000
  outer loop
   vertex -0.000061 -0.303911 0.189425
   vertex 0.027158 -0.303911 0.175069
   vertex 0.022163 -0.303911 0.169123
  endloop
 endfacet
 facet normal 0.000000 1.000000 0.000000
  outer loop
   vertex -0.000061 -0.303911 0.189425
   vertex 0.030298 -0.303911 0.181994
   vertex 0.027158 -0.303911 0.175069
  endloop
 endfacet
 facet normal 0.000000 -1.000000 0.000000
  outer loop
   vertex -0.000061 -0.339857 0.189425
   vertex 0.024226 -0.339857 0.183480
   vertex 0.025083 -0.339857 0.189425
  endloop
 endfacet
 facet normal 0.000000 -1.000000 0.000000
  outer loop
   vertex -0.000061 -0.339857 0.189425
   vertex 0.025083 -0.339857 0.189425
   vertex 0.024226 -0.339857 0.195370
  endloop
 endfacet
 facet normal 0.000000 -1.000000 0.000000
  outer loop
   vertex -0.000061 -0.339857 0.189425
   vertex 0.024226 -0.339857 0.195370
   vertex 0.021714 -0.339857 0.200910
  endloop
 endfacet
 facet normal 0.000000 -1.000000 0.000000
  outer loop
   vertex -0.000061 -0.339857 0.189425
   vertex 0.021714 -0.339857 0.200910
   vertex 0.017718 -0.339857 0.205667
  endloop
 endfacet
 facet normal 0.000000 -1.000000 0.000000
  outer loop
   vertex -0.000061 -0.339857 0.189425
   vertex 0.017718 -0.339857 0.205667
   vertex 0.012511 -0.339857 0.209317
  endloop
 endfacet
 facet normal 0.000000 -1.000000 0.000000
  outer loop
   vertex -0.000061 -0.339857 0.189425
   vertex 0.012511 -0.339857 0.209317
   vertex 0.006447 -0.339857 0.211612
  endloop
 endfacet
 facet normal 0.000000 -1.000000 0.000000
  outer loop
   vertex -0.000061 -0.339857 0.189425
   vertex 0.006447 -0.339857 0.211612
   vertex -0.000061 -0.339857 0.212394
  endloop
 endfacet
 facet normal 0.000000 -1.000000 0.000000
  outer loop
   vertex -0.000061 -0.339857 0.189425
   vertex -0.000061 -0.339857 0.212394
   vertex -0.006568 -0.339857 0.211612
  endloop
 endfacet
 facet normal 0.000000 -1.000000 0.000000
  outer loop
   vertex -0.000061 -0.339857 0.189425
   vertex -0.006568 -0.339857 0.211612
   vertex -0.012632 -0.339857 0.209317
  endloop
 endfacet
 facet normal 0.000000 -1.000000 0.000000
  outer loop
   vertex -0.000061 -0.339857 0.189425
   vertex -0.012632 -0.339857 0.209317
   vertex -0.017840 -0.339857 0.205667
  endloop
 endfacet
 facet normal 0.000000 -1.000000 0.000000
  outer loop
   vertex -0.000061 -0.339857 0.189425
   vertex -0.017840 -0.339857 0.205667
   vertex -0.021836 -0.339857 0.200910
  endloop
 endfacet
 facet normal 0.000000 -1.000000 0.000000
  outer loop
   vertex -0.000061 -0.339857 0.189425
   vertex -0.021836 -0.339857 0.200910
   vertex -0.024347 -0.339857 0.195370
  endloop
 endfacet
 facet normal 0.000000 -1.000000 0.000000
  outer loop
   vertex -0.000061 -0.339857 0.189425
   vertex -0.024347 -0.339857 0.195370
   vertex -0.025204 -0.339857 0.189425
  endloop
 endfacet
 facet normal 0.000000 -1.000000 0.000000
  outer loop
   vertex -0.000061 -0.339857 0.189425
   vertex -0.025204 -0.339857 0.189425
   vertex -0.024347 -0.339857 0.183480
  endloop
 endfacet
 facet normal 0.000000 -1.000000 0.000000
  outer loop
   vertex -0.000061 -0.339857 0.189425
   vertex -0.024347 -0.339857 0.183480
   vertex -0.021836 -0.339857 0.177940
  endloop
 endfacet
 facet normal 0.000000 -1.000000 0.000000
  outer loop
   vertex -0.000061 -0.339857 0.189425
   vertex -0.021836 -0.339857 0.177940
   vertex -0.017840 -0.339857 0.173183
  endloop
 endfacet
 facet normal 0.000000 -1.000000 0.000000
  outer loop
   vertex -0.000061 -0.339857 0.189425
   vertex -0.017840 -0.339857 0.173183
   vertex -0.012632 -0.339857 0.169533
  endloop
 endfacet
 facet normal 0.000000 -1.000000 0.000000
  outer loop
   vertex -0.000061 -0.339857 0.189425
   vertex -0.012632 -0.339857 0.169533
   vertex -0.006568 -0.339857 0.167238
  endloop
 endfacet
 facet normal 0.000000 -1.000000 0.000000
  outer loop
   vertex -0.000061 -0.339857 0.189425
   vertex -0.006568 -0.339857 0.167238
   vertex -0.000061 -0.339857 0.166456
  endloop
 endfacet
 facet normal 0.000000 -1.000000 0.000000
  outer loop
   vertex -0.000061 -0.339857 0.189425
   vertex -0.000061 -0.339857 0.166456
   vertex 0.006447 -0.339857 0.167238
  endloop
 endfacet
 facet normal 0.000000 -1.000000 0.000000
  outer loop
   vertex -0.000061 -0.339857 0.189425
   vertex 0.006447 -0.339857 0.167238
   vertex 0.012511 -0.339857 0.169533
  endloop
 endfacet
 facet normal 0.000000 -1.000000 0.000000
  outer loop
   vertex -0.000061 -0.339857 0.189425
   vertex 0.012511 -0.339857 0.169533
   vertex 0.017718 -0.339857 0.173183
  endloop
 endfacet
 facet normal 0.000000 -1.000000 0.000000
  outer loop
   vertex -0.000061 -0.339857 0.189425
   vertex 0.017718 -0.339857 0.173183
   vertex 0.021714 -0.339857 0.177940
  endloop
 endfacet
 facet normal 0.000000 -1.000000 0.000000
  outer loop
   vertex -0.000061 -0.339857 0.189425
   vertex 0.021714 -0.339857 0.177940
   vertex 0.024226 -0.339857 0.183480
  endloop
 endfacet
 facet normal 0.975274 -0.170550 -0.140547
  outer loop
   vertex 0.025083 -0.339857 0.189425
   vertex 0.030298 -0.303911 0.181994
   vertex 0.031369 -0.303911 0.189425
  endloop
 endfacet
 facet normal 0.975274 -0.170550 -0.140547
  outer loop
   vertex 0.030298 -0.303911 0.181994
   vertex 0.025083 -0.339857 0.189425
   vertex 0.024226 -0.339857 0.183480
  endloop
 endfacet
 facet normal 0.975274 -0.170550 0.140547
  outer loop
   vertex 0.024226 -0.339857 0.195370
   vertex 0.031369 -0.303911 0.189425
   vertex 0.030298 -0.303911 0.196856
  endloop
 endfacet
 facet normal 0.975274 -0.170550 0.140547
  outer loop
   vertex 0.031369 -0.303911 0.189425
   vertex 0.024226 -0.339857 0.195370
   vertex 0.025083 -0.339857 0.189425
  endloop
 endfacet
 facet normal 0.897733 -0.168470 0.407054
  outer loop
   vertex 0.021714 -0.339857 0.200910
   vertex 0.030298 -0.303911 0.196856
   vertex 0.027158 -0.303911 0.203781
  endloop
 endfacet
 facet normal 0.897733 -0.168470 0.407054
  outer loop
   vertex 0.030298 -0.303911 0.196856
   vertex 0.021714 -0.339857 0.200910
   vertex 0.024226 -0.339857 0.195370
  endloop
 endfacet
 facet normal 0.755222 -0.165043 0.634350
  outer loop
   vertex 0.017718 -0.339857 0.205667
   vertex 0.027158 -0.303911 0.203781
   vertex 0.022163 -0.303911 0.209727
  endloop
 endfacet
 facet normal 0.755222 -0.165043 0.634350
  outer loop
   vertex 0.027158 -0.303911 0.203781
   vertex 0.017718 -0.339857 0.205667
   vertex 0.021714 -0.339857 0.200910
  endloop
 endfacet
 facet normal 0.566479 -0.161335 0.808129
  outer loop
   vertex 0.015654 -0.303911 0.214290
   vertex 0.017718 -0.339857 0.205667
   vertex 0.022163 -0.303911 0.209727
  endloop
 endfacet
 facet normal 0.566479 -0.161335 0.808129
  outer loop
   vertex 0.017718 -0.339857 0.205667
   vertex 0.015654 -0.303911 0.214290
   vertex 0.012511 -0.339857 0.209317
  endloop
 endfacet
 facet normal 0.349454 -0.158318 0.923481
  outer loop
   vertex 0.008074 -0.303911 0.217158
   vertex 0.012511 -0.339857 0.209317
   vertex 0.015654 -0.303911 0.214290
  endloop
 endfacet
 facet normal 0.349454 -0.158318 0.923481
  outer loop
   vertex 0.012511 -0.339857 0.209317
   vertex 0.008074 -0.303911 0.217158
   vertex 0.006447 -0.339857 0.211612
  endloop
 endfacet
 facet normal 0.117920 -0.156651 0.980589
  outer loop
   vertex -0.000061 -0.303911 0.218137
   vertex 0.006447 -0.339857 0.211612
   vertex 0.008074 -0.303911 0.217158
  endloop
 endfacet
 facet normal 0.117920 -0.156651 0.980589
  outer loop
   vertex 0.006447 -0.339857 0.211612
   vertex -0.000061 -0.303911 0.218137
   vertex -0.000061 -0.339857 0.212394
  endloop
 endfacet
 facet normal -0.117920 -0.156651 0.980589
  outer loop
   vertex -0.000061 -0.303911 0.218137
   vertex -0.006568 -0.339857 0.211612
   vertex -0.000061 -0.339857 0.212394
  endloop
 endfacet
 facet normal -0.117920 -0.156651 0.980589
  outer loop
   vertex -0.006568 -0.339857 0.211612
   vertex -0.000061 -0.303911 0.218137
   vertex -0.008195 -0.303911 0.217158
  endloop
 endfacet
 facet normal -0.349455 -0.158318 0.923481
  outer loop
   vertex -0.008195 -0.303911 0.217158
   vertex -0.012632 -0.339857 0.209317
   vertex -0.006568 -0.339857 0.211612
  endloop
 endfacet
 facet normal -0.349455 -0.158318 0.923481
  outer loop
   vertex -0.012632 -0.339857 0.209317
   vertex -0.008195 -0.303911 0.217158
   vertex -0.015775 -0.303911 0.214290
  endloop
 endfacet
 facet normal -0.566479 -0.161335 0.808129
  outer loop
   vertex -0.015775 -0.303911 0.214290
   vertex -0.017840 -0.339857 0.205667
   vertex -0.012632 -0.339857 0.209317
  endloop
 endfacet
 facet normal -0.566479 -0.161335 0.808129
  outer loop
   vertex -0.017840 -0.339857 0.205667
   vertex -0.015775 -0.303911 0.214290
   vertex -0.022285 -0.303911 0.209727
  endloop
 endfacet
 facet normal -0.755222 -0.165044 0.634350
  outer loop
   vertex -0.021836 -0.339857 0.200910
   vertex -0.022285 -0.303911 0.209727
   vertex -0.027279 -0.303911 0.203781
  endloop
 endfacet
 facet normal -0.755222 -0.165044 0.634350
  outer loop
   vertex -0.022285 -0.303911 0.209727
   vertex -0.021836 -0.339857 0.200910
   vertex -0.017840 -0.339857 0.205667
  endloop
 endfacet
 facet normal -0.897734 -0.168471 0.407051
  outer loop
   vertex -0.024347 -0.339857 0.195370
   vertex -0.027279 -0.303911 0.203781
   vertex -0.030419 -0.303911 0.196856
  endloop
 endfacet
 facet normal -0.897734 -0.168471 0.407051
  outer loop
   vertex -0.027279 -0.303911 0.203781
   vertex -0.024347 -0.339857 0.195370
   vertex -0.021836 -0.339857 0.200910
  endloop
 endfacet
 facet normal -0.975274 -0.170549 0.140547
  outer loop
   vertex -0.025204 -0.339857 0.189425
   vertex -0.030419 -0.303911 0.196856
   vertex -0.031490 -0.303911 0.189425
  endloop
 endfacet
 facet normal -0.975274 -0.170549 0.140547
  outer loop
   vertex -0.030419 -0.303911 0.196856
   vertex -0.025204 -0.339857 0.189425
   vertex -0.024347 -0.339857 0.195370
  endloop
 endfacet
 facet normal -0.975274 -0.170548 -0.140546
  outer loop
   vertex -0.024347 -0.339857 0.183480
   vertex -0.031490 -0.303911 0.189425
   vertex -0.030419 -0.303911 0.181994
  endloop
 endfacet
 facet normal -0.975274 -0.170548 -0.140546
  outer loop
   vertex -0.031490 -0.303911 0.189425
   vertex -0.024347 -0.339857 0.183480
   vertex -0.025204 -0.339857 0.189425
  endloop
 endfacet
 facet normal -0.897736 -0.168471 -0.407049
  outer loop
   vertex -0.021836 -0.339857 0.177940
   vertex -0.030419 -0.303911 0.181994
   vertex -0.027279 -0.303911 0.175069
  endloop
 endfacet
 facet normal -0.897736 -0.168471 -0.407049
  outer loop
   vertex -0.030419 -0.303911 0.181994
   vertex -0.021836 -0.339857 0.177940
   vertex -0.024347 -0.339857 0.183480
  endloop
 endfacet
 facet normal -0.755217 -0.165043 -0.634357
  outer loop
   vertex -0.017840 -0.339857 0.173183
   vertex -0.027279 -0.303911 0.175069
   vertex -0.022285 -0.303911 0.169123
  endloop
 endfacet
 facet normal -0.755217 -0.165043 -0.634357
  outer loop
   vertex -0.027279 -0.303911 0.175069
   vertex -0.017840 -0.339857 0.173183
   vertex -0.021836 -0.339857 0.177940
  endloop
 endfacet
 facet normal -0.566488 -0.161335 -0.808123
  outer loop
   vertex -0.017840 -0.339857 0.173183
   vertex -0.015775 -0.303911 0.164560
   vertex -0.012632 -0.339857 0.169533
  endloop
 endfacet
 facet normal -0.566488 -0.161335 -0.808123
  outer loop
   vertex -0.015775 -0.303911 0.164560
   vertex -0.017840 -0.339857 0.173183
   vertex -0.022285 -0.303911 0.169123
  endloop
 endfacet
 facet normal -0.349441 -0.158318 -0.923486
  outer loop
   vertex -0.012632 -0.339857 0.169533
   vertex -0.008195 -0.303911 0.161692
   vertex -0.006568 -0.339857 0.167238
  endloop
 endfacet
 facet normal -0.349441 -0.158318 -0.923486
  outer loop
   vertex -0.008195 -0.303911 0.161692
   vertex -0.012632 -0.339857 0.169533
   vertex -0.015775 -0.303911 0.164560
  endloop
 endfacet
 facet normal -0.117932 -0.156650 -0.980588
  outer loop
   vertex -0.006568 -0.339857 0.167238
   vertex -0.000061 -0.303911 0.160713
   vertex -0.000061 -0.339857 0.166456
  endloop
 endfacet
 facet normal -0.117932 -0.156650 -0.980588
  outer loop
   vertex -0.000061 -0.303911 0.160713
   vertex -0.006568 -0.339857 0.167238
   vertex -0.008195 -0.303911 0.161692
  endloop
 endfacet
 facet normal 0.117932 -0.156650 -0.980588
  outer loop
   vertex -0.000061 -0.339857 0.166456
   vertex 0.008074 -0.303911 0.161692
   vertex 0.006447 -0.339857 0.167238
  endloop
 endfacet
 facet normal 0.117932 -0.156650 -0.980588
  outer loop
   vertex 0.008074 -0.303911 0.161692
   vertex -0.000061 -0.339857 0.166456
   vertex -0.000061 -0.303911 0.160713
  endloop
 endfacet
 facet normal 0.349441 -0.158318 -0.923486
  outer loop
   vertex 0.012511 -0.339857 0.169533
   vertex 0.008074 -0.303911 0.161692
   vertex 0.015654 -0.303911 0.164560
  endloop
 endfacet
 facet normal 0.349441 -0.158318 -0.923486
  outer loop
   vertex 0.008074 -0.303911 0.161692
   vertex 0.012511 -0.339857 0.169533
   vertex 0.006447 -0.339857 0.167238
  endloop
 endfacet
 facet normal 0.566488 -0.161335 -0.808123
  outer loop
   vertex 0.017718 -0.339857 0.173183
   vertex 0.015654 -0.303911 0.164560
   vertex 0.022163 -0.303911 0.169123
  endloop
 endfacet
 facet normal 0.566488 -0.161335 -0.808123
  outer loop
   vertex 0.015654 -0.303911 0.164560
   vertex 0.017718 -0.339857 0.173183
   vertex 0.012511 -0.339857 0.169533
  endloop
 endfacet
 facet normal 0.755217 -0.165043 -0.634357
  outer loop
   vertex 0.021714 -0.339857 0.177940
   vertex 0.022163 -0.303911 0.169123
   vertex 0.027158 -0.303911 0.175069
  endloop
 endfacet
 facet normal 0.755217 -0.165043 -0.634357
  outer loop
   vertex 0.022163 -0.303911 0.169123
   vertex 0.021714 -0.339857 0.177940
   vertex 0.017718 -0.339857 0.173183
  endloop
 endfacet
 facet normal 0.897736 -0.168471 -0.407049
  outer loop
   vertex 0.024226 -0.339857 0.183480
   vertex 0.027158 -0.303911 0.175069
   vertex 0.030298 -0.303911 0.181994
  endloop
 endfacet
 facet normal 0.897736 -0.168471 -0.407049
  outer loop
   vertex 0.027158 -0.303911 0.175069
   vertex 0.024226 -0.339857 0.183480
   vertex 0.021714 -0.339857 0.177940
  endloop
 endfacet
 facet normal 0.000000 -0.866028 0.499996
  outer loop
   vertex -0.000349 -0.094575 0.188607
   vertex 0.034085 -0.094575 0.188607
   vertex 0.032911 -0.090251 0.196097
  endloop
 endfacet
 facet normal 0.000000 -0.865999 0.500045
  outer loop
   vertex -0.000349 -0.094575 0.188607
   vertex 0.032911 -0.098899 0.181118
   vertex 0.034085 -0.094575 0.188607
  endloop
 endfacet
 facet normal -0.000022 -0.866042 0.499971
  outer loop
   vertex -0.000349 -0.094575 0.188607
   vertex 0.029471 -0.102929 0.174138
   vertex 0.032911 -0.098899 0.181118
  endloop
 endfacet
 facet normal 0.000003 -0.866019 0.500010
  outer loop
   vertex -0.000349 -0.094575 0.188607
   vertex 0.023999 -0.106389 0.168145
   vertex 0.029471 -0.102929 0.174138
  endloop
 endfacet
 facet normal -0.000002 -0.866022 0.500006
  outer loop
   vertex -0.000349 -0.094575 0.188607
   vertex 0.016868 -0.109044 0.163546
   vertex 0.023999 -0.106389 0.168145
  endloop
 endfacet
 facet normal 0.000001 -0.866021 0.500007
  outer loop
   vertex -0.000349 -0.094575 0.188607
   vertex 0.008563 -0.110713 0.160655
   vertex 0.016868 -0.109044 0.163546
  endloop
 endfacet
 facet normal -0.000018 -0.866024 0.500003
  outer loop
   vertex -0.000349 -0.094575 0.188607
   vertex -0.000349 -0.111282 0.159669
   vertex 0.008563 -0.110713 0.160655
  endloop
 endfacet
 facet normal 0.000018 -0.866024 0.500003
  outer loop
   vertex -0.000349 -0.094575 0.188607
   vertex -0.009261 -0.110713 0.160655
   vertex -0.000349 -0.111282 0.159669
  endloop
 endfacet
 facet normal -0.000001 -0.866021 0.500007
  outer loop
   vertex -0.000349 -0.094575 0.188607
   vertex -0.017565 -0.109044 0.163546
   vertex -0.009261 -0.110713 0.160655
  endloop
 endfacet
 facet normal 0.000002 -0.866022 0.500006
  outer loop
   vertex -0.000349 -0.094575 0.188607
   vertex -0.024697 -0.106389 0.168145
   vertex -0.017565 -0.109044 0.163546
  endloop
 endfacet
 facet normal -0.000003 -0.866019 0.500010
  outer loop
   vertex -0.000349 -0.094575 0.188607
   vertex -0.030169 -0.102929 0.174138
   vertex -0.024697 -0.106389 0.168145
  endloop
 endfacet
 facet normal 0.000017 -0.866038 0.499979
  outer loop
   vertex -0.000349 -0.094575 0.188607
   vertex -0.033609 -0.098899 0.181118
   vertex -0.030169 -0.102929 0.174138
  endloop
 endfacet
 facet normal 0.000000 -0.866005 0.500036
  outer loop
   vertex -0.000349 -0.094575 0.188607
   vertex -0.034782 -0.094575 0.188607
   vertex -0.033609 -0.098899 0.181118
  endloop
 endfacet
 facet normal 0.000000 -0.866028 0.499996
  outer loop
   vertex -0.000349 -0.094575 0.188607
   vertex -0.033609 -0.090251 0.196097
   vertex -0.034782 -0.094575 0.188607
  endloop
 endfacet
 facet normal -0.000007 -0.866040 0.499974
  outer loop
   vertex -0.000349 -0.094575 0.188607
   vertex -0.030169 -0.086221 0.203077
   vertex -0.033609 -0.090251 0.196097
  endloop
 endfacet
 facet normal 0.000014 -0.866022 0.500006
  outer loop
   vertex -0.000349 -0.094575 0.188607
   vertex -0.024697 -0.082761 0.209070
   vertex -0.030169 -0.086221 0.203077
  endloop
 endfacet
 facet normal 0.000000 -0.866029 0.499994
  outer loop
   vertex -0.000349 -0.094575 0.188607
   vertex -0.017565 -0.080106 0.213669
   vertex -0.024697 -0.082761 0.209070
  endloop
 endfacet
 facet normal 0.000001 -0.866029 0.499994
  outer loop
   vertex -0.000349 -0.094575 0.188607
   vertex -0.009261 -0.078436 0.216560
   vertex -0.017565 -0.080106 0.213669
  endloop
 endfacet
 facet normal 0.000004 -0.866028 0.499995
  outer loop
   vertex -0.000349 -0.094575 0.188607
   vertex -0.000349 -0.077867 0.217546
   vertex -0.009261 -0.078436 0.216560
  endloop
 endfacet
 facet normal -0.000004 -0.866028 0.499995
  outer loop
   vertex -0.000349 -0.094575 0.188607
   vertex 0.008563 -0.078436 0.216560
   vertex -0.000349 -0.077867 0.217546
  endloop
 endfacet
 facet normal -0.000001 -0.866029 0.499994
  outer loop
   vertex -0.000349 -0.094575 0.188607
   vertex 0.016868 -0.080106 0.213669
   vertex 0.008563 -0.078436 0.216560
  endloop
 endfacet
 facet normal -0.000000 -0.866029 0.499994
  outer loop
   vertex -0.000349 -0.094575 0.188607
   vertex 0.023999 -0.082761 0.209070
   vertex 0.016868 -0.080106 0.213669
  endloop
 endfacet
 facet normal -0.000014 -0.866022 0.500006
  outer loop
   vertex -0.000349 -0.094575 0.188607
   vertex 0.029472 -0.086221 0.203077
   vertex 0.023999 -0.082761 0.209070
  endloop
 endfacet
 facet normal 0.000007 -0.866040 0.499974
  outer loop
   vertex -0.000349 -0.094575 0.188607
   vertex 0.032911 -0.090251 0.196097
   vertex 0.029472 -0.086221 0.203077
  endloop
 endfacet
 facet normal 0.000000 0.000000 -1.000000
  outer loop
   vertex -0.000349 0.006312 0.004919
   vertex 0.032911 0.014960 0.004919
   vertex 0.034085 0.006312 0.004919
  endloop
 endfacet
 facet normal 0.000000 0.000011 -1.000000
  outer loop
   vertex -0.000349 0.006312 0.004919
   vertex 0.034085 0.006312 0.004919
   vertex 0.032911 -0.002337 0.004919
  endloop
 endfacet
 facet normal -0.000005 -0.000010 -1.000000
  outer loop
   vertex -0.000349 0.006312 0.004919
   vertex 0.032911 -0.002337 0.004919
   vertex 0.029471 -0.010396 0.004919
  endloop
 endfacet
 facet normal 0.000005 0.000010 -1.000000
  outer loop
   vertex -0.000349 0.006312 0.004919
   vertex 0.029471 -0.010396 0.004919
   vertex 0.023999 -0.017317 0.004919
  endloop
 endfacet
 facet normal -0.000002 0.000002 -1.000000
  outer loop
   vertex -0.000349 0.006312 0.004919
   vertex 0.023999 -0.017317 0.004919
   vertex 0.016868 -0.022627 0.004919
  endloop
 endfacet
 facet normal -0.000010 -0.000003 -1.000000
  outer loop
   vertex -0.000349 0.006312 0.004919
   vertex 0.016868 -0.022627 0.004919
   vertex 0.008563 -0.025965 0.004919
  endloop
 endfacet
 facet normal 0.000000 0.000000 -1.000000
  outer loop
   vertex -0.000349 0.006312 0.004919
   vertex 0.008563 -0.025965 0.004919
   vertex -0.000349 -0.027104 0.004919
  endloop
 endfacet
 facet normal 0.000000 0.000000 -1.000000
  outer loop
   vertex -0.000349 0.006312 0.004919
   vertex -0.000349 -0.027104 0.004919
   vertex -0.009261 -0.025965 0.004919
  endloop
 endfacet
 facet normal 0.000010 -0.000003 -1.000000
  outer loop
   vertex -0.000349 0.006312 0.004919
   vertex -0.009261 -0.025965 0.004919
   vertex -0.017565 -0.022627 0.004919
  endloop
 endfacet
 facet normal -0.000008 0.000008 -1.000000
  outer loop
   vertex -0.000349 0.006312 0.004919
   vertex -0.017565 -0.022627 0.004919
   vertex -0.024697 -0.017317 0.004919
  endloop
 endfacet
 facet normal 0.000000 0.000000 -1.000000
  outer loop
   vertex -0.000349 0.006312 0.004919
   vertex -0.024697 -0.017317 0.004919
   vertex -0.030169 -0.010396 0.004919
  endloop
 endfacet
 facet normal 0.000000 0.000000 -1.000000
  outer loop
   vertex -0.000349 0.006312 0.004919
   vertex -0.030169 -0.010396 0.004919
   vertex -0.033609 -0.002337 0.004919
  endloop
 endfacet
 facet normal 0.000000 0.000000 -1.000000
  outer loop
   vertex -0.000349 0.006312 0.004919
   vertex -0.033609 -0.002337 0.004919
   vertex -0.034782 0.006312 0.004919
  endloop
 endfacet
 facet normal 0.000000 0.000000 -1.000000
  outer loop
   vertex -0.000349 0.006312 0.004919
   vertex -0.034782 0.006312 0.004919
   vertex -0.033609 0.014960 0.004919
  endloop
 endfacet
 facet normal 0.000000 0.000000 -1.000000
  outer loop
   vertex -0.000349 0.006312 0.004919
   vertex -0.033609 0.014960 0.004919
   vertex -0.030169 0.023019 0.004919
  endloop
 endfacet
 facet normal -0.000005 -0.000010 -1.000000
  outer loop
   vertex -0.000349 0.006312 0.004919
   vertex -0.030169 0.023019 0.004919
   vertex -0.024697 0.029940 0.004919
  endloop
 endfacet
 facet normal 0.000009 0.000006 -1.000000
  outer loop
   vertex -0.000349 0.006312 0.004919
   vertex -0.024697 0.029940 0.004919
   vertex -0.017565 0.035250 0.004919
  endloop
 endfacet
 facet normal 0.000010 0.000006 -1.000000
  outer loop
   vertex -0.000349 0.006312 0.004919
   vertex -0.017565 0.035250 0.004919
   vertex -0.009261 0.038588 0.004919
  endloop
 endfacet
 facet normal -0.000012 0.000000 -1.000000
  outer loop
   vertex -0.000349 0.006312 0.004919
   vertex -0.009261 0.038588 0.004919
   vertex -0.000349 0.039727 0.004919
  endloop
 endfacet
 facet normal 0.000012 0.000000 -1.000000
  outer loop
   vertex -0.000349 0.006312 0.004919
   vertex -0.000349 0.039727 0.004919
   vertex 0.008563 0.038588 0.004919
  endloop
 endfacet
 facet normal -0.000010 0.000006 -1.000000
  outer loop
   vertex -0.000349 0.006312 0.004919
   vertex 0.008563 0.038588 0.004919
   vertex 0.016868 0.035250 0.004919
  endloop
 endfacet
 facet normal -0.000009 0.000006 -1.000000
  outer loop
   vertex -0.000349 0.006312 0.004919
   vertex 0.016868 0.035250 0.004919
   vertex 0.023999 0.029940 0.004919
  endloop
 endfacet
 facet normal 0.000005 -0.000010 -1.000000
  outer loop
   vertex -0.000349 0.006312 0.004919
   vertex 0.023999 0.029940 0.004919
   vertex 0.029472 0.023019 0.004919
  endloop
 endfacet
 facet normal 0.000000 0.000000 -1.000000
  outer loop
   vertex -0.000349 0.006312 0.004919
   vertex 0.029472 0.023019 0.004919
   vertex 0.032911 0.014960 0.004919
  endloop
 endfacet
 facet normal 0.987655 0.137264 0.075466
  outer loop
   vertex 0.032911 -0.090251 0.196097
   vertex 0.034085 0.006312 0.004919
   vertex 0.032911 0.014960 0.004919
  endloop
 endfacet
 facet normal 0.987655 0.137264 0.075466
  outer loop
   vertex 0.034085 0.006312 0.004919
   vertex 0.032911 -0.090251 0.196097
   vertex 0.034085 -0.094575 0.188607
  endloop
 endfacet
 facet normal 0.987641 -0.137411 -0.075389
  outer loop
   vertex 0.034085 -0.094575 0.188607
   vertex 0.032911 -0.002337 0.004919
   vertex 0.034085 0.006312 0.004919
  endloop
 endfacet
 facet normal 0.987641 -0.137411 -0.075389
  outer loop
   vertex 0.032911 -0.002337 0.004919
   vertex 0.034085 -0.094575 0.188607
   vertex 0.032911 -0.098899 0.181118
  endloop
 endfacet
 facet normal 0.894590 -0.391995 -0.214592
  outer loop
   vertex 0.032911 -0.098899 0.181118
   vertex 0.029471 -0.010396 0.004919
   vertex 0.032911 -0.002337 0.004919
  endloop
 endfacet
 facet normal 0.894590 -0.391995 -0.214592
  outer loop
   vertex 0.029471 -0.010396 0.004919
   vertex 0.032911 -0.098899 0.181118
   vertex 0.029471 -0.102929 0.174138
  endloop
 endfacet
 facet normal 0.733763 -0.596243 -0.325709
  outer loop
   vertex 0.029471 -0.102929 0.174138
   vertex 0.023999 -0.017317 0.004919
   vertex 0.029471 -0.010396 0.004919
  endloop
 endfacet
 facet normal 0.733763 -0.596243 -0.325709
  outer loop
   vertex 0.023999 -0.017317 0.004919
   vertex 0.029471 -0.102929 0.174138
   vertex 0.023999 -0.106389 0.168145
  endloop
 endfacet
 facet normal 0.536422 -0.740965 -0.404008
  outer loop
   vertex 0.016868 -0.022627 0.004919
   vertex 0.023999 -0.106389 0.168145
   vertex 0.016868 -0.109044 0.163546
  endloop
 endfacet
 facet normal 0.536422 -0.740965 -0.404008
  outer loop
   vertex 0.023999 -0.106389 0.168145
   vertex 0.016868 -0.022627 0.004919
   vertex 0.023999 -0.017317 0.004919
  endloop
 endfacet
 facet normal 0.324425 -0.830751 -0.452328
  outer loop
   vertex 0.008563 -0.025965 0.004919
   vertex 0.016868 -0.109044 0.163546
   vertex 0.008563 -0.110713 0.160655
  endloop
 endfacet
 facet normal 0.324425 -0.830751 -0.452328
  outer loop
   vertex 0.016868 -0.109044 0.163546
   vertex 0.008563 -0.025965 0.004919
   vertex 0.016868 -0.022627 0.004919
  endloop
 endfacet
 facet normal 0.108346 -0.873235 -0.475101
  outer loop
   vertex -0.000349 -0.027104 0.004919
   vertex 0.008563 -0.110713 0.160655
   vertex -0.000349 -0.111282 0.159669
  endloop
 endfacet
 facet normal 0.108346 -0.873235 -0.475101
  outer loop
   vertex 0.008563 -0.110713 0.160655
   vertex -0.000349 -0.027104 0.004919
   vertex 0.008563 -0.025965 0.004919
  endloop
 endfacet
 facet normal -0.108346 -0.873235 -0.475101
  outer loop
   vertex -0.009261 -0.025965 0.004919
   vertex -0.000349 -0.111282 0.159669
   vertex -0.009261 -0.110713 0.160655
  endloop
 endfacet
 facet normal -0.108346 -0.873235 -0.475101
  outer loop
   vertex -0.000349 -0.111282 0.159669
   vertex -0.009261 -0.025965 0.004919
   vertex -0.000349 -0.027104 0.004919
  endloop
 endfacet
 facet normal -0.324426 -0.830751 -0.452328
  outer loop
   vertex -0.017565 -0.109044 0.163546
   vertex -0.009261 -0.025965 0.004919
   vertex -0.009261 -0.110713 0.160655
  endloop
 endfacet
 facet normal -0.324426 -0.830751 -0.452328
  outer loop
   vertex -0.009261 -0.025965 0.004919
   vertex -0.017565 -0.109044 0.163546
   vertex -0.017565 -0.022627 0.004919
  endloop
 endfacet
 facet normal -0.536417 -0.740968 -0.404009
  outer loop
   vertex -0.024697 -0.017317 0.004919
   vertex -0.017565 -0.109044 0.163546
   vertex -0.024697 -0.106389 0.168145
  endloop
 endfacet
 facet normal -0.536417 -0.740968 -0.404009
  outer loop
   vertex -0.017565 -0.109044 0.163546
   vertex -0.024697 -0.017317 0.004919
   vertex -0.017565 -0.022627 0.004919
  endloop
 endfacet
 facet normal -0.733763 -0.596243 -0.325709
  outer loop
   vertex -0.024697 -0.017317 0.004919
   vertex -0.030169 -0.102929 0.174138
   vertex -0.030169 -0.010396 0.004919
  endloop
 endfacet
 facet normal -0.733763 -0.596243 -0.325709
  outer loop
   vertex -0.030169 -0.102929 0.174138
   vertex -0.024697 -0.017317 0.004919
   vertex -0.024697 -0.106389 0.168145
  endloop
 endfacet
 facet normal -0.894597 -0.391981 -0.214584
  outer loop
   vertex -0.030169 -0.010396 0.004919
   vertex -0.033609 -0.098899 0.181118
   vertex -0.033609 -0.002337 0.004919
  endloop
 endfacet
 facet normal -0.894597 -0.391981 -0.214584
  outer loop
   vertex -0.033609 -0.098899 0.181118
   vertex -0.030169 -0.010396 0.004919
   vertex -0.030169 -0.102929 0.174138
  endloop
 endfacet
 facet normal -0.987641 -0.137413 -0.075390
  outer loop
   vertex -0.033609 -0.002337 0.004919
   vertex -0.034782 -0.094575 0.188607
   vertex -0.034782 0.006312 0.004919
  endloop
 endfacet
 facet normal -0.987641 -0.137413 -0.075390
  outer loop
   vertex -0.034782 -0.094575 0.188607
   vertex -0.033609 -0.002337 0.004919
   vertex -0.033609 -0.098899 0.181118
  endloop
 endfacet
 facet normal -0.987656 0.137264 0.075466
  outer loop
   vertex -0.034782 0.006312 0.004919
   vertex -0.033609 -0.090251 0.196097
   vertex -0.033609 0.014960 0.004919
  endloop
 endfacet
 facet normal -0.987656 0.137264 0.075466
  outer loop
   vertex -0.033609 -0.090251 0.196097
   vertex -0.034782 0.006312 0.004919
   vertex -0.034782 -0.094575 0.188607
  endloop
 endfacet
 facet normal -0.894873 0.390940 0.215334
  outer loop
   vertex -0.033609 0.014960 0.004919
   vertex -0.030169 -0.086221 0.203077
   vertex -0.030169 0.023019 0.004919
  endloop
 endfacet
 facet normal -0.894873 0.390940 0.215334
  outer loop
   vertex -0.030169 -0.086221 0.203077
   vertex -0.033609 0.014960 0.004919
   vertex -0.033609 -0.090251 0.196097
  endloop
 endfacet
 facet normal -0.734609 0.594086 0.327737
  outer loop
   vertex -0.030169 0.023019 0.004919
   vertex -0.024697 -0.082761 0.209070
   vertex -0.024697 0.029940 0.004919
  endloop
 endfacet
 facet normal -0.734609 0.594086 0.327737
  outer loop
   vertex -0.024697 -0.082761 0.209070
   vertex -0.030169 0.023019 0.004919
   vertex -0.030169 -0.086221 0.203077
  endloop
 endfacet
 facet normal -0.537683 0.738053 0.407645
  outer loop
   vertex -0.017565 0.035250 0.004919
   vertex -0.024697 -0.082761 0.209070
   vertex -0.017565 -0.080106 0.213669
  endloop
 endfacet
 facet normal -0.537683 0.738053 0.407645
  outer loop
   vertex -0.024697 -0.082761 0.209070
   vertex -0.017565 0.035250 0.004919
   vertex -0.024697 0.029940 0.004919
  endloop
 endfacet
 facet normal -0.325554 0.827513 0.457425
  outer loop
   vertex -0.009261 0.038588 0.004919
   vertex -0.017565 -0.080106 0.213669
   vertex -0.009261 -0.078436 0.216560
  endloop
 endfacet
 facet normal -0.325554 0.827513 0.457425
  outer loop
   vertex -0.017565 -0.080106 0.213669
   vertex -0.009261 0.038588 0.004919
   vertex -0.017565 0.035250 0.004919
  endloop
 endfacet
 facet normal -0.108793 0.869912 0.481058
  outer loop
   vertex -0.000349 -0.077867 0.217546
   vertex -0.009261 0.038588 0.004919
   vertex -0.009261 -0.078436 0.216560
  endloop
 endfacet
 facet normal -0.108793 0.869912 0.481058
  outer loop
   vertex -0.009261 0.038588 0.004919
   vertex -0.000349 -0.077867 0.217546
   vertex -0.000349 0.039727 0.004919
  endloop
 endfacet
 facet normal 0.108793 0.869912 0.481058
  outer loop
   vertex 0.008563 0.038588 0.004919
   vertex -0.000349 -0.077867 0.217546
   vertex 0.008563 -0.078436 0.216560
  endloop
 endfacet
 facet normal 0.108793 0.869912 0.481058
  outer loop
   vertex -0.000349 -0.077867 0.217546
   vertex 0.008563 0.038588 0.004919
   vertex -0.000349 0.039727 0.004919
  endloop
 endfacet
 facet normal 0.325554 0.827513 0.457425
  outer loop
   vertex 0.016868 -0.080106 0.213669
   vertex 0.008563 0.038588 0.004919
   vertex 0.008563 -0.078436 0.216560
  endloop
 endfacet
 facet normal 0.325554 0.827513 0.457425
  outer loop
   vertex 0.008563 0.038588 0.004919
   vertex 0.016868 -0.080106 0.213669
   vertex 0.016868 0.035250 0.004919
  endloop
 endfacet
 facet normal 0.537689 0.738050 0.407643
  outer loop
   vertex 0.023999 -0.082761 0.209070
   vertex 0.016868 0.035250 0.004919
   vertex 0.016868 -0.080106 0.213669
  endloop
 endfacet
 facet normal 0.537689 0.738050 0.407643
  outer loop
   vertex 0.016868 0.035250 0.004919
   vertex 0.023999 -0.082761 0.209070
   vertex 0.023999 0.029940 0.004919
  endloop
 endfacet
 facet normal 0.734597 0.594098 0.327743
  outer loop
   vertex 0.023999 -0.082761 0.209070
   vertex 0.029472 0.023019 0.004919
   vertex 0.023999 0.029940 0.004919
  endloop
 endfacet
 facet normal 0.734597 0.594098 0.327743
  outer loop
   vertex 0.029472 0.023019 0.004919
   vertex 0.023999 -0.082761 0.209070
   vertex 0.029472 -0.086221 0.203077
  endloop
 endfacet
 facet normal 0.894878 0.390931 0.215329
  outer loop
   vertex 0.029472 -0.086221 0.203077
   vertex 0.032911 0.014960 0.004919
   vertex 0.029472 0.023019 0.004919
  endloop
 endfacet
 facet normal 0.894878 0.390931 0.215329
  outer loop
   vertex 0.032911 0.014960 0.004919
   vertex 0.029472 -0.086221 0.203077
   vertex 0.032911 -0.090251 0.196097
  endloop
 endfacet
 facet normal 0.895845 0.004875 -0.444340
  outer loop
   vertex 0.032873 -0.256008 0.180135
   vertex 0.029433 -0.103203 0.174315
   vertex 0.032873 -0.099173 0.181294
  endloop
 endfacet
 facet normal 0.895845 0.004875 -0.444340
  outer loop
   vertex 0.029433 -0.103203 0.174315
   vertex 0.032873 -0.256008 0.180135
   vertex 0.029433 -0.256008 0.172076
  endloop
 endfacet
 facet normal 0.734937 0.012127 -0.678027
  outer loop
   vertex 0.029433 -0.256008 0.172076
   vertex 0.023961 -0.106663 0.168321
   vertex 0.029433 -0.103203 0.174315
  endloop
 endfacet
 facet normal 0.734937 0.012127 -0.678027
  outer loop
   vertex 0.023961 -0.106663 0.168321
   vertex 0.029433 -0.256008 0.172076
   vertex 0.023961 -0.256008 0.165156
  endloop
 endfacet
 facet normal 0.536560 0.020070 -0.843623
  outer loop
   vertex 0.016829 -0.256008 0.159845
   vertex 0.023961 -0.106663 0.168321
   vertex 0.023961 -0.256008 0.165156
  endloop
 endfacet
 facet normal 0.536560 0.020070 -0.843623
  outer loop
   vertex 0.023961 -0.106663 0.168321
   vertex 0.016829 -0.256008 0.159845
   vertex 0.016829 -0.109318 0.163723
  endloop
 endfacet
 facet normal 0.323877 0.026589 -0.945725
  outer loop
   vertex 0.008525 -0.256008 0.156507
   vertex 0.016829 -0.109318 0.163723
   vertex 0.016829 -0.256008 0.159845
  endloop
 endfacet
 facet normal 0.323877 0.026589 -0.945725
  outer loop
   vertex 0.016829 -0.109318 0.163723
   vertex 0.008525 -0.256008 0.156507
   vertex 0.008525 -0.110988 0.160832
  endloop
 endfacet
 facet normal 0.108022 0.030212 -0.993689
  outer loop
   vertex -0.000387 -0.256008 0.155369
   vertex 0.008525 -0.110988 0.160832
   vertex 0.008525 -0.256008 0.156507
  endloop
 endfacet
 facet normal 0.108022 0.030212 -0.993689
  outer loop
   vertex 0.008525 -0.110988 0.160832
   vertex -0.000387 -0.256008 0.155369
   vertex -0.000387 -0.111557 0.159845
  endloop
 endfacet
 facet normal -0.108022 0.030212 -0.993689
  outer loop
   vertex -0.009299 -0.256008 0.156507
   vertex -0.000387 -0.111557 0.159845
   vertex -0.000387 -0.256008 0.155369
  endloop
 endfacet
 facet normal -0.108022 0.030212 -0.993689
  outer loop
   vertex -0.000387 -0.111557 0.159845
   vertex -0.009299 -0.256008 0.156507
   vertex -0.009299 -0.110988 0.160832
  endloop
 endfacet
 facet normal -0.323877 0.026589 -0.945725
  outer loop
   vertex -0.017604 -0.256008 0.159845
   vertex -0.009299 -0.110988 0.160832
   vertex -0.009299 -0.256008 0.156507
  endloop
 endfacet
 facet normal -0.323877 0.026589 -0.945725
  outer loop
   vertex -0.009299 -0.110988 0.160832
   vertex -0.017604 -0.256008 0.159845
   vertex -0.017604 -0.109318 0.163723
  endloop
 endfacet
 facet normal -0.536555 0.020070 -0.843627
  outer loop
   vertex -0.024735 -0.256008 0.165156
   vertex -0.017604 -0.109318 0.163723
   vertex -0.017604 -0.256008 0.159845
  endloop
 endfacet
 facet normal -0.536555 0.020070 -0.843627
  outer loop
   vertex -0.017604 -0.109318 0.163723
   vertex -0.024735 -0.256008 0.165156
   vertex -0.024735 -0.106663 0.168321
  endloop
 endfacet
 facet normal -0.734949 0.012126 -0.678014
  outer loop
   vertex -0.024735 -0.256008 0.165156
   vertex -0.030207 -0.103203 0.174315
   vertex -0.024735 -0.106663 0.168321
  endloop
 endfacet
 facet normal -0.734949 0.012126 -0.678014
  outer loop
   vertex -0.030207 -0.103203 0.174315
   vertex -0.024735 -0.256008 0.165156
   vertex -0.030207 -0.256008 0.172076
  endloop
 endfacet
 facet normal -0.895844 0.004875 -0.444342
  outer loop
   vertex -0.030207 -0.256008 0.172076
   vertex -0.033647 -0.099173 0.181294
   vertex -0.030207 -0.103203 0.174315
  endloop
 endfacet
 facet normal -0.895844 0.004875 -0.444342
  outer loop
   vertex -0.033647 -0.099173 0.181294
   vertex -0.030207 -0.256008 0.172076
   vertex -0.033647 -0.256008 0.180135
  endloop
 endfacet
 facet normal -0.987899 0.000565 -0.155095
  outer loop
   vertex -0.033647 -0.256008 0.180135
   vertex -0.034821 -0.094849 0.188784
   vertex -0.033647 -0.099173 0.181294
  endloop
 endfacet
 facet normal -0.987899 0.000565 -0.155095
  outer loop
   vertex -0.034821 -0.094849 0.188784
   vertex -0.033647 -0.256008 0.180135
   vertex -0.034821 -0.256008 0.188784
  endloop
 endfacet
 facet normal -0.988000 0.000548 0.154455
  outer loop
   vertex -0.034821 -0.256008 0.188784
   vertex -0.033647 -0.090525 0.196274
   vertex -0.034821 -0.094849 0.188784
  endloop
 endfacet
 facet normal -0.988000 0.000548 0.154455
  outer loop
   vertex -0.033647 -0.090525 0.196274
   vertex -0.034821 -0.256008 0.188784
   vertex -0.033647 -0.256008 0.197433
  endloop
 endfacet
 facet normal -0.897983 0.004462 0.440008
  outer loop
   vertex -0.033647 -0.256008 0.197433
   vertex -0.030208 -0.086495 0.203253
   vertex -0.033647 -0.090525 0.196274
  endloop
 endfacet
 facet normal -0.897983 0.004462 0.440008
  outer loop
   vertex -0.030208 -0.086495 0.203253
   vertex -0.033647 -0.256008 0.197433
   vertex -0.030208 -0.256008 0.205492
  endloop
 endfacet
 facet normal -0.741488 0.010586 0.670883
  outer loop
   vertex -0.030208 -0.256008 0.205492
   vertex -0.024735 -0.083035 0.209247
   vertex -0.030208 -0.086495 0.203253
  endloop
 endfacet
 facet normal -0.741488 0.010586 0.670883
  outer loop
   vertex -0.024735 -0.083035 0.209247
   vertex -0.030208 -0.256008 0.205492
   vertex -0.024735 -0.256008 0.212412
  endloop
 endfacet
 facet normal -0.546325 0.016918 0.837403
  outer loop
   vertex -0.024735 -0.083035 0.209247
   vertex -0.017604 -0.256008 0.217723
   vertex -0.017604 -0.080380 0.213846
  endloop
 endfacet
 facet normal -0.546325 0.016918 0.837403
  outer loop
   vertex -0.017604 -0.256008 0.217723
   vertex -0.024735 -0.083035 0.209247
   vertex -0.024735 -0.256008 0.212412
  endloop
 endfacet
 facet normal -0.332610 0.021909 0.942810
  outer loop
   vertex -0.017604 -0.080380 0.213846
   vertex -0.009299 -0.256008 0.221061
   vertex -0.009299 -0.078711 0.216737
  endloop
 endfacet
 facet normal -0.332610 0.021909 0.942810
  outer loop
   vertex -0.009299 -0.256008 0.221061
   vertex -0.017604 -0.080380 0.213846
   vertex -0.017604 -0.256008 0.217723
  endloop
 endfacet
 facet normal -0.111489 0.024618 0.993461
  outer loop
   vertex -0.009299 -0.078711 0.216737
   vertex -0.000387 -0.256008 0.222199
   vertex -0.000387 -0.078141 0.217723
  endloop
 endfacet
 facet normal -0.111489 0.024618 0.993461
  outer loop
   vertex -0.000387 -0.256008 0.222199
   vertex -0.009299 -0.078711 0.216737
   vertex -0.009299 -0.256008 0.221061
  endloop
 endfacet
 facet normal 0.111489 0.024618 0.993461
  outer loop
   vertex -0.000387 -0.078141 0.217723
   vertex 0.008525 -0.256008 0.221061
   vertex 0.008525 -0.078711 0.216737
  endloop
 endfacet
 facet normal 0.111489 0.024618 0.993461
  outer loop
   vertex 0.008525 -0.256008 0.221061
   vertex -0.000387 -0.078141 0.217723
   vertex -0.000387 -0.256008 0.222199
  endloop
 endfacet
 facet normal 0.332609 0.021909 0.942810
  outer loop
   vertex 0.008525 -0.078711 0.216737
   vertex 0.016829 -0.256008 0.217723
   vertex 0.016829 -0.080380 0.213846
  endloop
 endfacet
 facet normal 0.332609 0.021909 0.942810
  outer loop
   vertex 0.016829 -0.256008 0.217723
   vertex 0.008525 -0.078711 0.216737
   vertex 0.008525 -0.256008 0.221061
  endloop
 endfacet
 facet normal 0.546330 0.016918 0.837399
  outer loop
   vertex 0.016829 -0.080380 0.213846
   vertex 0.023961 -0.256008 0.212412
   vertex 0.023961 -0.083035 0.209247
  endloop
 endfacet
 facet normal 0.546330 0.016918 0.837399
  outer loop
   vertex 0.023961 -0.256008 0.212412
   vertex 0.016829 -0.080380 0.213846
   vertex 0.016829 -0.256008 0.217723
  endloop
 endfacet
 facet normal 0.741482 0.010586 0.670889
  outer loop
   vertex 0.023961 -0.256008 0.212412
   vertex 0.029433 -0.086495 0.203253
   vertex 0.023961 -0.083035 0.209247
  endloop
 endfacet
 facet normal 0.741482 0.010586 0.670889
  outer loop
   vertex 0.029433 -0.086495 0.203253
   vertex 0.023961 -0.256008 0.212412
   vertex 0.029433 -0.256008 0.205492
  endloop
 endfacet
 facet normal 0.897980 0.004462 0.440014
  outer loop
   vertex 0.029433 -0.256008 0.205492
   vertex 0.032873 -0.090525 0.196274
   vertex 0.029433 -0.086495 0.203253
  endloop
 endfacet
 facet normal 0.897980 0.004462 0.440014
  outer loop
   vertex 0.032873 -0.090525 0.196274
   vertex 0.029433 -0.256008 0.205492
   vertex 0.032873 -0.256008 0.197433
  endloop
 endfacet
 facet normal 0.988000 0.000548 0.154455
  outer loop
   vertex 0.032873 -0.256008 0.197433
   vertex 0.034046 -0.094849 0.188784
   vertex 0.032873 -0.090525 0.196274
  endloop
 endfacet
 facet normal 0.988000 0.000548 0.154455
  outer loop
   vertex 0.034046 -0.094849 0.188784
   vertex 0.032873 -0.256008 0.197433
   vertex 0.034046 -0.256008 0.188784
  endloop
 endfacet
 facet normal 0.987901 0.000565 -0.155082
  outer loop
   vertex 0.034046 -0.256008 0.188784
   vertex 0.032873 -0.099173 0.181294
   vertex 0.034046 -0.094849 0.188784
  endloop
 endfacet
 facet normal 0.987901 0.000565 -0.155082
  outer loop
   vertex 0.032873 -0.099173 0.181294
   vertex 0.034046 -0.256008 0.188784
   vertex 0.032873 -0.256008 0.180135
  endloop
 endfacet
 facet normal 0.000000 -1.000000 0.000000
  outer loop
   vertex -0.000387 -0.256008 0.188784
   vertex 0.029433 -0.256008 0.172076
   vertex 0.032873 -0.256008 0.180135
  endloop
 endfacet
 facet normal 0.000000 -1.000000 0.000000
  outer loop
   vertex -0.000387 -0.256008 0.188784
   vertex 0.023961 -0.256008 0.165156
   vertex 0.029433 -0.256008 0.172076
  endloop
 endfacet
 facet normal 0.000000 -1.000000 0.000000
  outer loop
   vertex -0.000387 -0.256008 0.188784
   vertex 0.016829 -0.256008 0.159845
   vertex 0.023961 -0.256008 0.165156
  endloop
 endfacet
 facet normal 0.000000 -1.000000 0.000000
  outer loop
   vertex -0.000387 -0.256008 0.188784
   vertex 0.008525 -0.256008 0.156507
   vertex 0.016829 -0.256008 0.159845
  endloop
 endfacet
 facet normal 0.000000 -1.000000 0.000000
  outer loop
   vertex -0.000387 -0.256008 0.188784
   vertex -0.000387 -0.256008 0.155369
   vertex 0.008525 -0.256008 0.156507
  endloop
 endfacet
 facet normal 0.000000 -1.000000 0.000000
  outer loop
   vertex -0.000387 -0.256008 0.188784
   vertex -0.009299 -0.256008 0.156507
   vertex -0.000387 -0.256008 0.155369
  endloop
 endfacet
 facet normal 0.000000 -1.000000 0.000000
  outer loop
   vertex -0.000387 -0.256008 0.188784
   vertex -0.017604 -0.256008 0.159845
   vertex -0.009299 -0.256008 0.156507
  endloop
 endfacet
 facet normal 0.000000 -1.000000 0.000000
  outer loop
   vertex -0.000387 -0.256008 0.188784
   vertex -0.024735 -0.256008 0.165156
   vertex -0.017604 -0.256008 0.159845
  endloop
 endfacet
 facet normal 0.000000 -1.000000 0.000000
  outer loop
   vertex -0.000387 -0.256008 0.188784
   vertex -0.030207 -0.256008 0.172076
   vertex -0.024735 -0.256008 0.165156
  endloop
 endfacet
 facet normal 0.000000 -1.000000 0.000000
  outer loop
   vertex -0.000387 -0.256008 0.188784
   vertex -0.033647 -0.256008 0.180135
   vertex -0.030207 -0.256008 0.172076
  endloop
 endfacet
 facet normal 0.000000 -1.000000 0.000000
  outer loop
   vertex -0.000387 -0.256008 0.188784
   vertex -0.034821 -0.256008 0.188784
   vertex -0.033647 -0.256008 0.180135
  endloop
 endfacet
 facet normal 0.000000 -1.000000 0.000000
  outer loop
   vertex -0.000387 -0.256008 0.188784
   vertex -0.033647 -0.256008 0.197433
   vertex -0.034821 -0.256008 0.188784
  endloop
 endfacet
 facet normal 0.000000 -1.000000 0.000000
  outer loop
   vertex -0.000387 -0.256008 0.188784
   vertex -0.030208 -0.256008 0.205492
   vertex -0.033647 -0.256008 0.197433
  endloop
 endfacet
 facet normal 0.000000 -1.000000 0.000000
  outer loop
   vertex -0.000387 -0.256008 0.188784
   vertex -0.024735 -0.256008 0.212412
   vertex -0.030208 -0.256008 0.205492
  endloop
 endfacet
 facet normal 0.000000 -1.000000 0.000000
  outer loop
   vertex -0.000387 -0.256008 0.188784
   vertex -0.017604 -0.256008 0.217723
   vertex -0.024735 -0.256008 0.212412
  endloop
 endfacet
 facet normal 0.000000 -1.000000 0.000000
  outer loop
   vertex -0.000387 -0.256008 0.188784
   vertex -0.009299 -0.256008 0.221061
   vertex -0.017604 -0.256008 0.217723
  endloop
 endfacet
 facet normal 0.000000 -1.000000 0.000000
  outer loop
   vertex -0.000387 -0.256008 0.188784
   vertex -0.000387 -0.256008 0.222199
   vertex -0.009299 -0.256008 0.221061
  endloop
 endfacet
 facet normal 0.000000 -1.000000 0.000000
  outer loop
   vertex -0.000387 -0.256008 0.188784
   vertex 0.008525 -0.256008 0.221061
   vertex -0.000387 -0.256008 0.222199
  endloop
 endfacet
 facet normal 0.000000 -1.000000 0.000000
  outer loop
   vertex -0.000387 -0.256008 0.188784
   vertex 0.016829 -0.256008 0.217723
   vertex 0.008525 -0.256008 0.221061
  endloop
 endfacet
 facet normal 0.000000 -1.000000 0.000000
  outer loop
   vertex -0.000387 -0.256008 0.188784
   vertex 0.023961 -0.256008 0.212412
   vertex 0.016829 -0.256008 0.217723
  endloop
 endfacet
 facet normal 0.000000 -1.000000 0.000000
  outer loop
   vertex -0.000387 -0.256008 0.188784
   vertex 0.029433 -0.256008 0.205492
   vertex 0.023961 -0.256008 0.212412
  endloop
 endfacet
 facet normal 0.000000 -1.000000 0.000000
  outer loop
   vertex -0.000387 -0.256008 0.188784
   vertex 0.032873 -0.256008 0.197433
   vertex 0.029433 -0.256008 0.205492
  endloop
 endfacet
 facet normal 0.000000 -1.000000 0.000000
  outer loop
   vertex -0.000387 -0.256008 0.188784
   vertex 0.034046 -0.256008 0.188784
   vertex 0.032873 -0.256008 0.197433
  endloop
 endfacet
 facet normal 0.000000 -1.000000 0.000000
  outer loop
   vertex -0.000387 -0.256008 0.188784
   vertex 0.032873 -0.256008 0.180135
   vertex 0.034046 -0.256008 0.188784
  endloop
 endfacet
 facet normal 0.000003 0.866030 -0.499993
  outer loop
   vertex -0.000387 -0.094849 0.188784
   vertex 0.032873 -0.099173 0.181294
   vertex 0.029433 -0.103203 0.174315
  endloop
 endfacet
 facet normal -0.000002 0.866026 -0.500000
  outer loop
   vertex -0.000387 -0.094849 0.188784
   vertex 0.029433 -0.103203 0.174315
   vertex 0.023961 -0.106663 0.168321
  endloop
 endfacet
 facet normal -0.000006 0.866023 -0.500004
  outer loop
   vertex -0.000387 -0.094849 0.188784
   vertex 0.023961 -0.106663 0.168321
   vertex 0.016829 -0.109318 0.163723
  endloop
 endfacet
 facet normal 0.000001 0.866026 -0.500000
  outer loop
   vertex -0.000387 -0.094849 0.188784
   vertex 0.016829 -0.109318 0.163723
   vertex 0.008525 -0.110988 0.160832
  endloop
 endfacet
 facet normal 0.000003 0.866026 -0.499999
  outer loop
   vertex -0.000387 -0.094849 0.188784
   vertex 0.008525 -0.110988 0.160832
   vertex -0.000387 -0.111557 0.159845
  endloop
 endfacet
 facet normal -0.000003 0.866026 -0.499999
  outer loop
   vertex -0.000387 -0.094849 0.188784
   vertex -0.000387 -0.111557 0.159845
   vertex -0.009299 -0.110988 0.160832
  endloop
 endfacet
 facet normal -0.000001 0.866026 -0.500000
  outer loop
   vertex -0.000387 -0.094849 0.188784
   vertex -0.009299 -0.110988 0.160832
   vertex -0.017604 -0.109318 0.163723
  endloop
 endfacet
 facet normal 0.000006 0.866023 -0.500004
  outer loop
   vertex -0.000387 -0.094849 0.188784
   vertex -0.017604 -0.109318 0.163723
   vertex -0.024735 -0.106663 0.168321
  endloop
 endfacet
 facet normal 0.000002 0.866026 -0.500000
  outer loop
   vertex -0.000387 -0.094849 0.188784
   vertex -0.024735 -0.106663 0.168321
   vertex -0.030207 -0.103203 0.174315
  endloop
 endfacet
 facet normal -0.000002 0.866029 -0.499994
  outer loop
   vertex -0.000387 -0.094849 0.188784
   vertex -0.030207 -0.103203 0.174315
   vertex -0.033647 -0.099173 0.181294
  endloop
 endfacet
 facet normal 0.000000 0.866025 -0.500000
  outer loop
   vertex -0.000387 -0.094849 0.188784
   vertex -0.033647 -0.099173 0.181294
   vertex -0.034821 -0.094849 0.188784
  endloop
 endfacet
 facet normal 0.000000 0.866024 -0.500003
  outer loop
   vertex -0.000387 -0.094849 0.188784
   vertex -0.034821 -0.094849 0.188784
   vertex -0.033647 -0.090525 0.196274
  endloop
 endfacet
 facet normal -0.000000 0.866023 -0.500004
  outer loop
   vertex -0.000387 -0.094849 0.188784
   vertex -0.033647 -0.090525 0.196274
   vertex -0.030208 -0.086495 0.203253
  endloop
 endfacet
 facet normal 0.000006 0.866029 -0.499994
  outer loop
   vertex -0.000387 -0.094849 0.188784
   vertex -0.030208 -0.086495 0.203253
   vertex -0.024735 -0.083035 0.209247
  endloop
 endfacet
 facet normal 0.000012 0.866032 -0.499988
  outer loop
   vertex -0.000387 -0.094849 0.188784
   vertex -0.024735 -0.083035 0.209247
   vertex -0.017604 -0.080380 0.213846
  endloop
 endfacet
 facet normal 0.000007 0.866031 -0.499991
  outer loop
   vertex -0.000387 -0.094849 0.188784
   vertex -0.017604 -0.080380 0.213846
   vertex -0.009299 -0.078711 0.216737
  endloop
 endfacet
 facet normal -0.000069 0.866020 -0.500009
  outer loop
   vertex -0.000387 -0.094849 0.188784
   vertex -0.009299 -0.078711 0.216737
   vertex -0.000387 -0.078141 0.217723
  endloop
 endfacet
 facet normal 0.000069 0.866020 -0.500009
  outer loop
   vertex -0.000387 -0.094849 0.188784
   vertex -0.000387 -0.078141 0.217723
   vertex 0.008525 -0.078711 0.216737
  endloop
 endfacet
 facet normal -0.000007 0.866031 -0.499991
  outer loop
   vertex -0.000387 -0.094849 0.188784
   vertex 0.008525 -0.078711 0.216737
   vertex 0.016829 -0.080380 0.213846
  endloop
 endfacet
 facet normal -0.000012 0.866032 -0.499988
  outer loop
   vertex -0.000387 -0.094849 0.188784
   vertex 0.016829 -0.080380 0.213846
   vertex 0.023961 -0.083035 0.209247
  endloop
 endfacet
 facet normal -0.000002 0.866027 -0.499998
  outer loop
   vertex -0.000387 -0.094849 0.188784
   vertex 0.023961 -0.083035 0.209247
   vertex 0.029433 -0.086495 0.203253
  endloop
 endfacet
 facet normal -0.000000 0.866026 -0.500000
  outer loop
   vertex -0.000387 -0.094849 0.188784
   vertex 0.029433 -0.086495 0.203253
   vertex 0.032873 -0.090525 0.196274
  endloop
 endfacet
 facet normal 0.000000 0.866024 -0.500003
  outer loop
   vertex -0.000387 -0.094849 0.188784
   vertex 0.032873 -0.090525 0.196274
   vertex 0.034046 -0.094849 0.188784
  endloop
 endfacet
 facet normal 0.000000 0.866025 -0.500000
  outer loop
   vertex -0.000387 -0.094849 0.188784
   vertex 0.034046 -0.094849 0.188784
   vertex 0.032873 -0.099173 0.181294
  endloop
 endfacet
 facet normal 0.918817 0.394684 0.000000
  outer loop
   vertex 0.066729 0.020207 0.018416
   vertex 0.059731 0.036498 0.003094
   vertex 0.059731 0.036498 0.018416
  endloop
 endfacet
 facet normal 0.918817 0.394684 0.000000
  outer loop
   vertex 0.059731 0.036498 0.003094
   vertex 0.066729 0.020207 0.018416
   vertex 0.066729 0.020207 0.003094
  endloop
 endfacet
 facet normal 0.782490 0.622663 0.000000
  outer loop
   vertex 0.059731 0.036498 0.018416
   vertex 0.048599 0.050487 0.003094
   vertex 0.048599 0.050487 0.018416
  endloop
 endfacet
 facet normal 0.782490 0.622663 0.000000
  outer loop
   vertex 0.048599 0.050487 0.003094
   vertex 0.059731 0.036498 0.018416
   vertex 0.059731 0.036498 0.003094
  endloop
 endfacet
 facet normal 0.594805 0.803870 0.000000
  outer loop
   vertex 0.048599 0.050487 0.003094
   vertex 0.034091 0.061222 0.018416
   vertex 0.048599 0.050487 0.018416
  endloop
 endfacet
 facet normal 0.594805 0.803870 0.000000
  outer loop
   vertex 0.034091 0.061222 0.018416
   vertex 0.048599 0.050487 0.003094
   vertex 0.034091 0.061222 0.003094
  endloop
 endfacet
 facet normal 0.370923 0.928664 0.000000
  outer loop
   vertex 0.034091 0.061222 0.003094
   vertex 0.017197 0.067970 0.018416
   vertex 0.034091 0.061222 0.018416
  endloop
 endfacet
 facet normal 0.370923 0.928664 0.000000
  outer loop
   vertex 0.017197 0.067970 0.018416
   vertex 0.034091 0.061222 0.003094
   vertex 0.017197 0.067970 0.003094
  endloop
 endfacet
 facet normal 0.125939 0.992038 0.000000
  outer loop
   vertex 0.017197 0.067970 0.003094
   vertex -0.000933 0.070271 0.018416
   vertex 0.017197 0.067970 0.018416
  endloop
 endfacet
 facet normal 0.125939 0.992038 0.000000
  outer loop
   vertex -0.000933 0.070271 0.018416
   vertex 0.017197 0.067970 0.003094
   vertex -0.000933 0.070271 0.003094
  endloop
 endfacet
 facet normal -0.125939 0.992038 0.000000
  outer loop
   vertex -0.000933 0.070271 0.003094
   vertex -0.019063 0.067970 0.018416
   vertex -0.000933 0.070271 0.018416
  endloop
 endfacet
 facet normal -0.125939 0.992038 0.000000
  outer loop
   vertex -0.019063 0.067970 0.018416
   vertex -0.000933 0.070271 0.003094
   vertex -0.019063 0.067970 0.003094
  endloop
 endfacet
 facet normal -0.370921 0.928664 0.000000
  outer loop
   vertex -0.019063 0.067970 0.003094
   vertex -0.035958 0.061222 0.018416
   vertex -0.019063 0.067970 0.018416
  endloop
 endfacet
 facet normal -0.370921 0.928664 0.000000
  outer loop
   vertex -0.035958 0.061222 0.018416
   vertex -0.019063 0.067970 0.003094
   vertex -0.035958 0.061222 0.003094
  endloop
 endfacet
 facet normal -0.594805 0.803870 0.000000
  outer loop
   vertex -0.035958 0.061222 0.003094
   vertex -0.050466 0.050487 0.018416
   vertex -0.035958 0.061222 0.018416
  endloop
 endfacet
 facet normal -0.594805 0.803870 0.000000
  outer loop
   vertex -0.050466 0.050487 0.018416
   vertex -0.035958 0.061222 0.003094
   vertex -0.050466 0.050487 0.003094
  endloop
 endfacet
 facet normal -0.782487 0.622667 0.000000
  outer loop
   vertex -0.061598 0.036498 0.003094
   vertex -0.050466 0.050487 0.018416
   vertex -0.050466 0.050487 0.003094
  endloop
 endfacet
 facet normal -0.782487 0.622667 0.000000
  outer loop
   vertex -0.050466 0.050487 0.018416
   vertex -0.061598 0.036498 0.003094
   vertex -0.061598 0.036498 0.018416
  endloop
 endfacet
 facet normal -0.918818 0.394682 0.000000
  outer loop
   vertex -0.068596 0.020207 0.003094
   vertex -0.061598 0.036498 0.018416
   vertex -0.061598 0.036498 0.003094
  endloop
 endfacet
 facet normal -0.918818 0.394682 0.000000
  outer loop
   vertex -0.061598 0.036498 0.018416
   vertex -0.068596 0.020207 0.003094
   vertex -0.068596 0.020207 0.018416
  endloop
 endfacet
 facet normal -0.990808 0.135275 0.000000
  outer loop
   vertex -0.070983 0.002724 0.003094
   vertex -0.068596 0.020207 0.018416
   vertex -0.068596 0.020207 0.003094
  endloop
 endfacet
 facet normal -0.990808 0.135275 0.000000
  outer loop
   vertex -0.068596 0.020207 0.018416
   vertex -0.070983 0.002724 0.003094
   vertex -0.070983 0.002724 0.018416
  endloop
 endfacet
 facet normal -0.990808 -0.135275 0.000000
  outer loop
   vertex -0.068596 -0.014759 0.003094
   vertex -0.070983 0.002724 0.018416
   vertex -0.070983 0.002724 0.003094
  endloop
 endfacet
 facet normal -0.990808 -0.135275 0.000000
  outer loop
   vertex -0.070983 0.002724 0.018416
   vertex -0.068596 -0.014759 0.003094
   vertex -0.068596 -0.014759 0.018416
  endloop
 endfacet
 facet normal -0.918818 -0.394682 0.000000
  outer loop
   vertex -0.061598 -0.031050 0.003094
   vertex -0.068596 -0.014759 0.018416
   vertex -0.068596 -0.014759 0.003094
  endloop
 endfacet
 facet normal -0.918818 -0.394682 0.000000
  outer loop
   vertex -0.068596 -0.014759 0.018416
   vertex -0.061598 -0.031050 0.003094
   vertex -0.061598 -0.031050 0.018416
  endloop
 endfacet
 facet normal -0.782490 -0.622664 0.000000
  outer loop
   vertex -0.050466 -0.045039 0.003094
   vertex -0.061598 -0.031050 0.018416
   vertex -0.061598 -0.031050 0.003094
  endloop
 endfacet
 facet normal -0.782490 -0.622664 0.000000
  outer loop
   vertex -0.061598 -0.031050 0.018416
   vertex -0.050466 -0.045039 0.003094
   vertex -0.050466 -0.045039 0.018416
  endloop
 endfacet
 facet normal -0.594818 -0.803860 0.000000
  outer loop
   vertex -0.050466 -0.045039 0.003094
   vertex -0.035958 -0.055774 0.018416
   vertex -0.050466 -0.045039 0.018416
  endloop
 endfacet
 facet normal -0.594818 -0.803860 0.000000
  outer loop
   vertex -0.035958 -0.055774 0.018416
   vertex -0.050466 -0.045039 0.003094
   vertex -0.035958 -0.055774 0.003094
  endloop
 endfacet
 facet normal -0.370926 -0.928662 0.000000
  outer loop
   vertex -0.035958 -0.055774 0.003094
   vertex -0.019063 -0.062522 0.018416
   vertex -0.035958 -0.055774 0.018416
  endloop
 endfacet
 facet normal -0.370926 -0.928662 0.000000
  outer loop
   vertex -0.019063 -0.062522 0.018416
   vertex -0.035958 -0.055774 0.003094
   vertex -0.019063 -0.062522 0.003094
  endloop
 endfacet
 facet normal -0.125907 -0.992042 0.000000
  outer loop
   vertex -0.019063 -0.062522 0.003094
   vertex -0.000933 -0.064823 0.018416
   vertex -0.019063 -0.062522 0.018416
  endloop
 endfacet
 facet normal -0.125907 -0.992042 0.000000
  outer loop
   vertex -0.000933 -0.064823 0.018416
   vertex -0.019063 -0.062522 0.003094
   vertex -0.000933 -0.064823 0.003094
  endloop
 endfacet
 facet normal 0.125907 -0.992042 0.000000
  outer loop
   vertex -0.000933 -0.064823 0.003094
   vertex 0.017197 -0.062522 0.018416
   vertex -0.000933 -0.064823 0.018416
  endloop
 endfacet
 facet normal 0.125907 -0.992042 0.000000
  outer loop
   vertex 0.017197 -0.062522 0.018416
   vertex -0.000933 -0.064823 0.003094
   vertex 0.017197 -0.062522 0.003094
  endloop
 endfacet
 facet normal 0.370924 -0.928663 0.000000
  outer loop
   vertex 0.017197 -0.062522 0.003094
   vertex 0.034091 -0.055774 0.018416
   vertex 0.017197 -0.062522 0.018416
  endloop
 endfacet
 facet normal 0.370924 -0.928663 0.000000
  outer loop
   vertex 0.034091 -0.055774 0.018416
   vertex 0.017197 -0.062522 0.003094
   vertex 0.034091 -0.055774 0.003094
  endloop
 endfacet
 facet normal 0.594817 -0.803861 0.000000
  outer loop
   vertex 0.034091 -0.055774 0.003094
   vertex 0.048599 -0.045039 0.018416
   vertex 0.034091 -0.055774 0.018416
  endloop
 endfacet
 facet normal 0.594817 -0.803861 0.000000
  outer loop
   vertex 0.048599 -0.045039 0.018416
   vertex 0.034091 -0.055774 0.003094
   vertex 0.048599 -0.045039 0.003094
  endloop
 endfacet
 facet normal 0.782490 -0.622664 0.000000
  outer loop
   vertex 0.048599 -0.045039 0.018416
   vertex 0.059731 -0.031050 0.003094
   vertex 0.059731 -0.031050 0.018416
  endloop
 endfacet
 facet normal 0.782490 -0.622664 0.000000
  outer loop
   vertex 0.059731 -0.031050 0.003094
   vertex 0.048599 -0.045039 0.018416
   vertex 0.048599 -0.045039 0.003094
  endloop
 endfacet
 facet normal 0.918817 -0.394684 0.000000
  outer loop
   vertex 0.059731 -0.031050 0.018416
   vertex 0.066729 -0.014759 0.003094
   vertex 0.066729 -0.014759 0.018416
  endloop
 endfacet
 facet normal 0.918817 -0.394684 0.000000
  outer loop
   vertex 0.066729 -0.014759 0.003094
   vertex 0.059731 -0.031050 0.018416
   vertex 0.059731 -0.031050 0.003094
  endloop
 endfacet
 facet normal 0.990808 -0.135276 0.000000
  outer loop
   vertex 0.066729 -0.014759 0.018416
   vertex 0.069116 0.002724 0.003094
   vertex 0.069116 0.002724 0.018416
  endloop
 endfacet
 facet normal 0.990808 -0.135276 0.000000
  outer loop
   vertex 0.069116 0.002724 0.003094
   vertex 0.066729 -0.014759 0.018416
   vertex 0.066729 -0.014759 0.003094
  endloop
 endfacet
 facet normal 0.990808 0.135275 0.000000
  outer loop
   vertex 0.069116 0.002724 0.018416
   vertex 0.066729 0.020207 0.003094
   vertex 0.066729 0.020207 0.018416
  endloop
 endfacet
 facet normal 0.990808 0.135275 0.000000
  outer loop
   vertex 0.066729 0.020207 0.003094
   vertex 0.069116 0.002724 0.018416
   vertex 0.069116 0.002724 0.003094
  endloop
 endfacet
 facet normal 0.000000 0.000000 -1.000000
  outer loop
   vertex -0.000933 0.002724 0.003094
   vertex 0.059731 0.036498 0.003094
   vertex 0.066729 0.020207 0.003094
  endloop
 endfacet
 facet normal 0.000000 0.000000 -1.000000
  outer loop
   vertex -0.000933 0.002724 0.003094
   vertex 0.048599 0.050487 0.003094
   vertex 0.059731 0.036498 0.003094
  endloop
 endfacet
 facet normal 0.000000 0.000000 -1.000000
  outer loop
   vertex -0.000933 0.002724 0.003094
   vertex 0.034091 0.061222 0.003094
   vertex 0.048599 0.050487 0.003094
  endloop
 endfacet
 facet normal 0.000000 0.000000 -1.000000
  outer loop
   vertex -0.000933 0.002724 0.003094
   vertex 0.017197 0.067970 0.003094
   vertex 0.034091 0.061222 0.003094
  endloop
 endfacet
 facet normal 0.000000 0.000000 -1.000000
  outer loop
   vertex -0.000933 0.002724 0.003094
   vertex -0.000933 0.070271 0.003094
   vertex 0.017197 0.067970 0.003094
  endloop
 endfacet
 facet normal 0.000000 0.000000 -1.000000
  outer loop
   vertex -0.000933 0.002724 0.003094
   vertex -0.019063 0.067970 0.003094
   vertex -0.000933 0.070271 0.003094
  endloop
 endfacet
 facet normal 0.000000 0.000000 -1.000000
  outer loop
   vertex -0.000933 0.002724 0.003094
   vertex -0.035958 0.061222 0.003094
   vertex -0.019063 0.067970 0.003094
  endloop
 endfacet
 facet normal 0.000000 0.000000 -1.000000
  outer loop
   vertex -0.000933 0.002724 0.003094
   vertex -0.050466 0.050487 0.003094
   vertex -0.035958 0.061222 0.003094
  endloop
 endfacet
 facet normal 0.000000 0.000000 -1.000000
  outer loop
   vertex -0.000933 0.002724 0.003094
   vertex -0.061598 0.036498 0.003094
   vertex -0.050466 0.050487 0.003094
  endloop
 endfacet
 facet normal 0.000000 0.000000 -1.000000
  outer loop
   vertex -0.000933 0.002724 0.003094
   vertex -0.068596 0.020207 0.003094
   vertex -0.061598 0.036498 0.003094
  endloop
 endfacet
 facet normal 0.000000 0.000000 -1.000000
  outer loop
   vertex -0.000933 0.002724 0.003094
   vertex -0.070983 0.002724 0.003094
   vertex -0.068596 0.020207 0.003094
  endloop
 endfacet
 facet normal 0.000000 0.000000 -1.000000
  outer loop
   vertex -0.000933 0.002724 0.003094
   vertex -0.068596 -0.014759 0.003094
   vertex -0.070983 0.002724 0.003094
  endloop
 endfacet
 facet normal 0.000000 0.000000 -1.000000
  outer loop
   vertex -0.000933 0.002724 0.003094
   vertex -0.061598 -0.031050 0.003094
   vertex -0.068596 -0.014759 0.003094
  endloop
 endfacet
 facet normal 0.000000 0.000000 -1.000000
  outer loop
   vertex -0.000933 0.002724 0.003094
   vertex -0.050466 -0.045039 0.003094
   vertex -0.061598 -0.031050 0.003094
  endloop
 endfacet
 facet normal 0.000000 0.000000 -1.000000
  outer loop
   vertex -0.000933 0.002724 0.003094
   vertex -0.035958 -0.055774 0.003094
   vertex -0.050466 -0.045039 0.003094
  endloop
 endfacet
 facet normal 0.000000 0.000000 -1.000000
  outer loop
   vertex -0.000933 0.002724 0.003094
   vertex -0.019063 -0.062522 0.003094
   vertex -0.035958 -0.055774 0.003094
  endloop
 endfacet
 facet normal 0.000000 0.000000 -1.000000
  outer loop
   vertex -0.000933 0.002724 0.003094
   vertex -0.000933 -0.064823 0.003094
   vertex -0.019063 -0.062522 0.003094
  endloop
 endfacet
 facet normal 0.000000 0.000000 -1.000000
  outer loop
   vertex -0.000933 0.002724 0.003094
   vertex 0.017197 -0.062522 0.003094
   vertex -0.000933 -0.064823 0.003094
  endloop
 endfacet
 facet normal 0.000000 0.000000 -1.000000
  outer loop
   vertex -0.000933 0.002724 0.003094
   vertex 0.034091 -0.055774 0.003094
   vertex 0.017197 -0.062522 0.003094
  endloop
 endfacet
 facet normal 0.000000 0.000000 -1.000000
  outer loop
   vertex -0.000933 0.002724 0.003094
   vertex 0.048599 -0.045039 0.003094
   vertex 0.034091 -0.055774 0.003094
  endloop
 endfacet
 facet normal 0.000000 0.000000 -1.000000
  outer loop
   vertex -0.000933 0.002724 0.003094
   vertex 0.059731 -0.031050 0.003094
   vertex 0.048599 -0.045039 0.003094
  endloop
 endfacet
 facet normal 0.000000 0.000000 -1.000000
  outer loop
   vertex -0.000933 0.002724 0.003094
   vertex 0.066729 -0.014759 0.003094
   vertex 0.059731 -0.031050 0.003094
  endloop
 endfacet
 facet normal 0.000000 0.000000 -1.000000
  outer loop
   vertex -0.000933 0.002724 0.003094
   vertex 0.069116 0.002724 0.003094
   vertex 0.066729 -0.014759 0.003094
  endloop
 endfacet
 facet normal 0.000000 0.000000 -1.000000
  outer loop
   vertex -0.000933 0.002724 0.003094
   vertex 0.066729 0.020207 0.003094
   vertex 0.069116 0.002724 0.003094
  endloop
 endfacet
 facet normal 0.000000 0.000000 1.000000
  outer loop
   vertex -0.000933 0.002724 0.018416
   vertex 0.066729 0.020207 0.018416
   vertex 0.059731 0.036498 0.018416
  endloop
 endfacet
 facet normal 0.000000 0.000000 1.000000
  outer loop
   vertex -0.000933 0.002724 0.018416
   vertex 0.059731 0.036498 0.018416
   vertex 0.048599 0.050487 0.018416
  endloop
 endfacet
 facet normal 0.000000 0.000000 1.000000
  outer loop
   vertex -0.000933 0.002724 0.018416
   vertex 0.048599 0.050487 0.018416
   vertex 0.034091 0.061222 0.018416
  endloop
 endfacet
 facet normal 0.000000 0.000000 1.000000
  outer loop
   vertex -0.000933 0.002724 0.018416
   vertex 0.034091 0.061222 0.018416
   vertex 0.017197 0.067970 0.018416
  endloop
 endfacet
 facet normal 0.000000 0.000000 1.000000
  outer loop
   vertex -0.000933 0.002724 0.018416
   vertex 0.017197 0.067970 0.018416
   vertex -0.000933 0.070271 0.018416
  endloop
 endfacet
 facet normal 0.000000 0.000000 1.000000
  outer loop
   vertex -0.000933 0.002724 0.018416
   vertex -0.000933 0.070271 0.018416
   vertex -0.019063 0.067970 0.018416
  endloop
 endfacet
 facet normal 0.000000 0.000000 1.000000
  outer loop
   vertex -0.000933 0.002724 0.018416
   vertex -0.019063 0.067970 0.018416
   vertex -0.035958 0.061222 0.018416
  endloop
 endfacet
 facet normal 0.000000 0.000000 1.000000
  outer loop
   vertex -0.000933 0.002724 0.018416
   vertex -0.035958 0.061222 0.018416
   vertex -0.050466 0.050487 0.018416
  endloop
 endfacet
 facet normal 0.000000 0.000000 1.000000
  outer loop
   vertex -0.000933 0.002724 0.018416
   vertex -0.050466 0.050487 0.018416
   vertex -0.061598 0.036498 0.018416
  endloop
 endfacet
 facet normal 0.000000 0.000000 1.000000
  outer loop
   vertex -0.000933 0.002724 0.018416
   vertex -0.061598 0.036498 0.018416
   vertex -0.068596 0.020207 0.018416
  endloop
 endfacet
 facet normal 0.000000 0.000000 1.000000
  outer loop
   vertex -0.000933 0.002724 0.018416
   vertex -0.068596 0.020207 0.018416
   vertex -0.070983 0.002724 0.018416
  endloop
 endfacet
 facet normal 0.000000 0.000000 1.000000
  outer loop
   vertex -0.000933 0.002724 0.018416
   vertex -0.070983 0.002724 0.018416
   vertex -0.068596 -0.014759 0.018416
  endloop
 endfacet
 facet normal 0.000000 0.000000 1.000000
  outer loop
   vertex -0.000933 0.002724 0.018416
   vertex -0.068596 -0.014759 0.018416
   vertex -0.061598 -0.031050 0.018416
  endloop
 endfacet
 facet normal 0.000000 0.000000 1.000000
  outer loop
   vertex -0.000933 0.002724 0.018416
   vertex -0.061598 -0.031050 0.018416
   vertex -0.050466 -0.045039 0.018416
  endloop
 endfacet
 facet normal 0.000000 0.000000 1.000000
  outer loop
   vertex -0.000933 0.002724 0.018416
   vertex -0.050466 -0.045039 0.018416
   vertex -0.035958 -0.055774 0.018416
  endloop
 endfacet
 facet normal 0.000000 0.000000 1.000000
  outer loop
   vertex -0.000933 0.002724 0.018416
   vertex -0.035958 -0.055774 0.018416
   vertex -0.019063 -0.062522 0.018416
  endloop
 endfacet
 facet normal 0.000000 0.000000 1.000000
  outer loop
   vertex -0.000933 0.002724 0.018416
   vertex -0.019063 -0.062522 0.018416
   vertex -0.000933 -0.064823 0.018416
  endloop
 endfacet
 facet normal 0.000000 0.000000 1.000000
  outer loop
   vertex -0.000933 0.002724 0.018416
   vertex -0.000933 -0.064823 0.018416
   vertex 0.017197 -0.062522 0.018416
  endloop
 endfacet
 facet normal 0.000000 0.000000 1.000000
  outer loop
   vertex -0.000933 0.002724 0.018416
   vertex 0.017197 -0.062522 0.018416
   vertex 0.034091 -0.055774 0.018416
  endloop
 endfacet
 facet normal 0.000000 0.000000 1.000000
  outer loop
   vertex -0.000933 0.002724 0.018416
   vertex 0.034091 -0.055774 0.018416
   vertex 0.048599 -0.045039 0.018416
  endloop
 endfacet
 facet normal 0.000000 0.000000 1.000000
  outer loop
   vertex -0.000933 0.002724 0.018416
   vertex 0.048599 -0.045039 0.018416
   vertex 0.059731 -0.031050 0.018416
  endloop
 endfacet
 facet normal 0.000000 0.000000 1.000000
  outer loop
   vertex -0.000933 0.002724 0.018416
   vertex 0.059731 -0.031050 0.018416
   vertex 0.066729 -0.014759 0.018416
  endloop
 endfacet
 facet normal 0.000000 0.000000 1.000000
  outer loop
   vertex -0.000933 0.002724 0.018416
   vertex 0.066729 -0.014759 0.018416
   vertex 0.069116 0.002724 0.018416
  endloop
 endfacet
 facet normal 0.000000 0.000000 1.000000
  outer loop
   vertex -0.000933 0.002724 0.018416
   vertex 0.069116 0.002724 0.018416
   vertex 0.066729 0.020207 0.018416
  endloop
 endfacet
 facet normal 0.922004 0.000000 -0.387179
  outer loop
   vertex 0.028313 -0.303333 0.181465
   vertex 0.025327 -0.244515 0.174354
   vertex 0.028313 -0.244515 0.181465
  endloop
 endfacet
 facet normal 0.922004 0.000000 -0.387179
  outer loop
   vertex 0.025327 -0.244515 0.174354
   vertex 0.028313 -0.303333 0.181465
   vertex 0.025327 -0.303333 0.174354
  endloop
 endfacet
 facet normal 0.789298 0.000000 -0.614010
  outer loop
   vertex 0.025327 -0.303333 0.174354
   vertex 0.020578 -0.244515 0.168248
   vertex 0.025327 -0.244515 0.174354
  endloop
 endfacet
 facet normal 0.789298 0.000000 -0.614010
  outer loop
   vertex 0.020578 -0.244515 0.168248
   vertex 0.025327 -0.303333 0.174354
   vertex 0.020578 -0.303333 0.168248
  endloop
 endfacet
 facet normal 0.603501 0.000000 -0.797362
  outer loop
   vertex 0.014387 -0.303333 0.163563
   vertex 0.020578 -0.244515 0.168248
   vertex 0.020578 -0.303333 0.168248
  endloop
 endfacet
 facet normal 0.603501 0.000000 -0.797362
  outer loop
   vertex 0.020578 -0.244515 0.168248
   vertex 0.014387 -0.303333 0.163563
   vertex 0.014387 -0.244515 0.163563
  endloop
 endfacet
 facet normal 0.378216 0.000000 -0.925717
  outer loop
   vertex 0.007179 -0.303333 0.160618
   vertex 0.014387 -0.244515 0.163563
   vertex 0.014387 -0.303333 0.163563
  endloop
 endfacet
 facet normal 0.378216 0.000000 -0.925717
  outer loop
   vertex 0.014387 -0.244515 0.163563
   vertex 0.007179 -0.303333 0.160618
   vertex 0.007179 -0.244515 0.160618
  endloop
 endfacet
 facet normal 0.128781 0.000000 -0.991673
  outer loop
   vertex -0.000557 -0.303333 0.159613
   vertex 0.007179 -0.244515 0.160618
   vertex 0.007179 -0.303333 0.160618
  endloop
 endfacet
 facet normal 0.128781 0.000000 -0.991673
  outer loop
   vertex 0.007179 -0.244515 0.160618
   vertex -0.000557 -0.303333 0.159613
   vertex -0.000557 -0.244515 0.159613
  endloop
 endfacet
 facet normal -0.128781 0.000000 -0.991673
  outer loop
   vertex -0.008293 -0.303333 0.160618
   vertex -0.000557 -0.244515 0.159613
   vertex -0.000557 -0.303333 0.159613
  endloop
 endfacet
 facet normal -0.128781 0.000000 -0.991673
  outer loop
   vertex -0.000557 -0.244515 0.159613
   vertex -0.008293 -0.303333 0.160618
   vertex -0.008293 -0.244515 0.160618
  endloop
 endfacet
 facet normal -0.378216 0.000000 -0.925717
  outer loop
   vertex -0.015502 -0.303333 0.163563
   vertex -0.008293 -0.244515 0.160618
   vertex -0.008293 -0.303333 0.160618
  endloop
 endfacet
 facet normal -0.378216 0.000000 -0.925717
  outer loop
   vertex -0.008293 -0.244515 0.160618
   vertex -0.015502 -0.303333 0.163563
   vertex -0.015502 -0.244515 0.163563
  endloop
 endfacet
 facet normal -0.603501 0.000000 -0.797362
  outer loop
   vertex -0.021692 -0.303333 0.168248
   vertex -0.015502 -0.244515 0.163563
   vertex -0.015502 -0.303333 0.163563
  endloop
 endfacet
 facet normal -0.603501 0.000000 -0.797362
  outer loop
   vertex -0.015502 -0.244515 0.163563
   vertex -0.021692 -0.303333 0.168248
   vertex -0.021692 -0.244515 0.168248
  endloop
 endfacet
 facet normal -0.789298 0.000000 -0.614010
  outer loop
   vertex -0.021692 -0.303333 0.168248
   vertex -0.026442 -0.244515 0.174354
   vertex -0.021692 -0.244515 0.168248
  endloop
 endfacet
 facet normal -0.789298 0.000000 -0.614010
  outer loop
   vertex -0.026442 -0.244515 0.174354
   vertex -0.021692 -0.303333 0.168248
   vertex -0.026442 -0.303333 0.174354
  endloop
 endfacet
 facet normal -0.922004 0.000000 -0.387179
  outer loop
   vertex -0.026442 -0.303333 0.174354
   vertex -0.029428 -0.244515 0.181465
   vertex -0.026442 -0.244515 0.174354
  endloop
 endfacet
 facet normal -0.922004 0.000000 -0.387179
  outer loop
   vertex -0.029428 -0.244515 0.181465
   vertex -0.026442 -0.303333 0.174354
   vertex -0.029428 -0.303333 0.181465
  endloop
 endfacet
 facet normal -0.991209 0.000000 -0.132305
  outer loop
   vertex -0.029428 -0.303333 0.181465
   vertex -0.030446 -0.244515 0.189095
   vertex -0.029428 -0.244515 0.181465
  endloop
 endfacet
 facet normal -0.991209 0.000000 -0.132305
  outer loop
   vertex -0.030446 -0.244515 0.189095
   vertex -0.029428 -0.303333 0.181465
   vertex -0.030446 -0.303333 0.189095
  endloop
 endfacet
 facet normal -0.991209 0.000000 0.132306
  outer loop
   vertex -0.030446 -0.303333 0.189095
   vertex -0.029428 -0.244515 0.196725
   vertex -0.030446 -0.244515 0.189095
  endloop
 endfacet
 facet normal -0.991209 0.000000 0.132306
  outer loop
   vertex -0.029428 -0.244515 0.196725
   vertex -0.030446 -0.303333 0.189095
   vertex -0.029428 -0.303333 0.196725
  endloop
 endfacet
 facet normal -0.922006 -0.000000 0.387177
  outer loop
   vertex -0.029428 -0.303333 0.196725
   vertex -0.026442 -0.244515 0.203836
   vertex -0.029428 -0.244515 0.196725
  endloop
 endfacet
 facet normal -0.922006 -0.000000 0.387177
  outer loop
   vertex -0.026442 -0.244515 0.203836
   vertex -0.029428 -0.303333 0.196725
   vertex -0.026442 -0.303333 0.203836
  endloop
 endfacet
 facet normal -0.789298 -0.000001 0.614010
  outer loop
   vertex -0.026442 -0.303333 0.203836
   vertex -0.021692 -0.244515 0.209942
   vertex -0.026442 -0.244515 0.203836
  endloop
 endfacet
 facet normal -0.789298 -0.000001 0.614010
  outer loop
   vertex -0.021692 -0.244515 0.209942
   vertex -0.026442 -0.303333 0.203836
   vertex -0.021692 -0.303333 0.209942
  endloop
 endfacet
 facet normal -0.603494 0.000000 0.797367
  outer loop
   vertex -0.021692 -0.244515 0.209942
   vertex -0.015502 -0.303333 0.214627
   vertex -0.015502 -0.244515 0.214627
  endloop
 endfacet
 facet normal -0.603494 0.000000 0.797367
  outer loop
   vertex -0.015502 -0.303333 0.214627
   vertex -0.021692 -0.244515 0.209942
   vertex -0.021692 -0.303333 0.209942
  endloop
 endfacet
 facet normal -0.378226 0.000000 0.925713
  outer loop
   vertex -0.015502 -0.244515 0.214627
   vertex -0.008293 -0.303333 0.217572
   vertex -0.008293 -0.244515 0.217572
  endloop
 endfacet
 facet normal -0.378226 0.000000 0.925713
  outer loop
   vertex -0.008293 -0.303333 0.217572
   vertex -0.015502 -0.244515 0.214627
   vertex -0.015502 -0.303333 0.214627
  endloop
 endfacet
 facet normal -0.128768 0.000000 0.991675
  outer loop
   vertex -0.008293 -0.244515 0.217572
   vertex -0.000557 -0.303333 0.218577
   vertex -0.000557 -0.244515 0.218577
  endloop
 endfacet
 facet normal -0.128768 0.000000 0.991675
  outer loop
   vertex -0.000557 -0.303333 0.218577
   vertex -0.008293 -0.244515 0.217572
   vertex -0.008293 -0.303333 0.217572
  endloop
 endfacet
 facet normal 0.128768 0.000000 0.991675
  outer loop
   vertex -0.000557 -0.244515 0.218577
   vertex 0.007179 -0.303333 0.217572
   vertex 0.007179 -0.244515 0.217572
  endloop
 endfacet
 facet normal 0.128768 0.000000 0.991675
  outer loop
   vertex 0.007179 -0.303333 0.217572
   vertex -0.000557 -0.244515 0.218577
   vertex -0.000557 -0.303333 0.218577
  endloop
 endfacet
 facet normal 0.378226 0.000000 0.925713
  outer loop
   vertex 0.007179 -0.244515 0.217572
   vertex 0.014387 -0.303333 0.214627
   vertex 0.014387 -0.244515 0.214627
  endloop
 endfacet
 facet normal 0.378226 0.000000 0.925713
  outer loop
   vertex 0.014387 -0.303333 0.214627
   vertex 0.007179 -0.244515 0.217572
   vertex 0.007179 -0.303333 0.217572
  endloop
 endfacet
 facet normal 0.603494 0.000000 0.797367
  outer loop
   vertex 0.014387 -0.244515 0.214627
   vertex 0.020578 -0.303333 0.209942
   vertex 0.020578 -0.244515 0.209942
  endloop
 endfacet
 facet normal 0.603494 0.000000 0.797367
  outer loop
   vertex 0.020578 -0.303333 0.209942
   vertex 0.014387 -0.244515 0.214627
   vertex 0.014387 -0.303333 0.214627
  endloop
 endfacet
 facet normal 0.789298 0.000000 0.614010
  outer loop
   vertex 0.020578 -0.303333 0.209942
   vertex 0.025327 -0.244515 0.203836
   vertex 0.020578 -0.244515 0.209942
  endloop
 endfacet
 facet normal 0.789298 0.000000 0.614010
  outer loop
   vertex 0.025327 -0.244515 0.203836
   vertex 0.020578 -0.303333 0.209942
   vertex 0.025327 -0.303333 0.203836
  endloop
 endfacet
 facet normal 0.922004 0.000000 0.387179
  outer loop
   vertex 0.025327 -0.303333 0.203836
   vertex 0.028313 -0.244515 0.196725
   vertex 0.025327 -0.244515 0.203836
  endloop
 endfacet
 facet normal 0.922004 0.000000 0.387179
  outer loop
   vertex 0.028313 -0.244515 0.196725
   vertex 0.025327 -0.303333 0.203836
   vertex 0.028313 -0.303333 0.196725
  endloop
 endfacet
 facet normal 0.991209 0.000000 0.132305
  outer loop
   vertex 0.028313 -0.303333 0.196725
   vertex 0.029332 -0.244515 0.189095
   vertex 0.028313 -0.244515 0.196725
  endloop
 endfacet
 facet normal 0.991209 0.000000 0.132305
  outer loop
   vertex 0.029332 -0.244515 0.189095
   vertex 0.028313 -0.303333 0.196725
   vertex 0.029332 -0.303333 0.189095
  endloop
 endfacet
 facet normal 0.991209 0.000000 -0.132305
  outer loop
   vertex 0.029332 -0.303333 0.189095
   vertex 0.028313 -0.244515 0.181465
   vertex 0.029332 -0.244515 0.189095
  endloop
 endfacet
 facet normal 0.991209 0.000000 -0.132305
  outer loop
   vertex 0.028313 -0.244515 0.181465
   vertex 0.029332 -0.303333 0.189095
   vertex 0.028313 -0.303333 0.181465
  endloop
 endfacet
 facet normal 0.000000 -1.000000 0.000000
  outer loop
   vertex -0.000557 -0.303333 0.189095
   vertex 0.025327 -0.303333 0.174354
   vertex 0.028313 -0.303333 0.181465
  endloop
 endfacet
 facet normal 0.000000 -1.000000 0.000000
  outer loop
   vertex -0.000557 -0.303333 0.189095
   vertex 0.020578 -0.303333 0.168248
   vertex 0.025327 -0.303333 0.174354
  endloop
 endfacet
 facet normal -0.000008 -1.000000 -0.000008
  outer loop
   vertex -0.000557 -0.303333 0.189095
   vertex 0.014387 -0.303333 0.163563
   vertex 0.020578 -0.303333 0.168248
  endloop
 endfacet
 facet normal 0.000001 -1.000000 -0.000003
  outer loop
   vertex -0.000557 -0.303333 0.189095
   vertex 0.007179 -0.303333 0.160618
   vertex 0.014387 -0.303333 0.163563
  endloop
 endfacet
 facet normal 0.000000 -1.000000 -0.000003
  outer loop
   vertex -0.000557 -0.303333 0.189095
   vertex -0.000557 -0.303333 0.159613
   vertex 0.007179 -0.303333 0.160618
  endloop
 endfacet
 facet normal -0.000000 -1.000000 -0.000003
  outer loop
   vertex -0.000557 -0.303333 0.189095
   vertex -0.008293 -0.303333 0.160618
   vertex -0.000557 -0.303333 0.159613
  endloop
 endfacet
 facet normal -0.000001 -1.000000 -0.000003
  outer loop
   vertex -0.000557 -0.303333 0.189095
   vertex -0.015502 -0.303333 0.163563
   vertex -0.008293 -0.303333 0.160618
  endloop
 endfacet
 facet normal 0.000008 -1.000000 -0.000008
  outer loop
   vertex -0.000557 -0.303333 0.189095
   vertex -0.021692 -0.303333 0.168248
   vertex -0.015502 -0.303333 0.163563
  endloop
 endfacet
 facet normal 0.000000 -1.000000 0.000000
  outer loop
   vertex -0.000557 -0.303333 0.189095
   vertex -0.026442 -0.303333 0.174354
   vertex -0.021692 -0.303333 0.168248
  endloop
 endfacet
 facet normal 0.000000 -1.000000 0.000000
  outer loop
   vertex -0.000557 -0.303333 0.189095
   vertex -0.029428 -0.303333 0.181465
   vertex -0.026442 -0.303333 0.174354
  endloop
 endfacet
 facet normal 0.000000 -1.000000 0.000000
  outer loop
   vertex -0.000557 -0.303333 0.189095
   vertex -0.030446 -0.303333 0.189095
   vertex -0.029428 -0.303333 0.181465
  endloop
 endfacet
 facet normal 0.000000 -1.000000 0.000000
  outer loop
   vertex -0.000557 -0.303333 0.189095
   vertex -0.029428 -0.303333 0.196725
   vertex -0.030446 -0.303333 0.189095
  endloop
 endfacet
 facet normal 0.000000 -1.000000 0.000000
  outer loop
   vertex -0.000557 -0.303333 0.189095
   vertex -0.026442 -0.303333 0.203836
   vertex -0.029428 -0.303333 0.196725
  endloop
 endfacet
 facet normal 0.000000 -1.000000 0.000000
  outer loop
   vertex -0.000557 -0.303333 0.189095
   vertex -0.021692 -0.303333 0.209942
   vertex -0.026442 -0.303333 0.203836
  endloop
 endfacet
 facet normal 0.000000 -1.000000 0.000000
  outer loop
   vertex -0.000557 -0.303333 0.189095
   vertex -0.015502 -0.303333 0.214627
   vertex -0.021692 -0.303333 0.209942
  endloop
 endfacet
 facet normal 0.000000 -1.000000 0.000000
  outer loop
   vertex -0.000557 -0.303333 0.189095
   vertex -0.008293 -0.303333 0.217572
   vertex -0.015502 -0.303333 0.214627
  endloop
 endfacet
 facet normal 0.000000 -1.000000 0.000000
  outer loop
   vertex -0.000557 -0.303333 0.189095
   vertex -0.000557 -0.303333 0.218577
   vertex -0.008293 -0.303333 0.217572
  endloop
 endfacet
 facet normal 0.000000 -1.000000 0.000000
  outer loop
   vertex -0.000557 -0.303333 0.189095
   vertex 0.007179 -0.303333 0.217572
   vertex -0.000557 -0.303333 0.218577
  endloop
 endfacet
 facet normal 0.000000 -1.000000 0.000000
  outer loop
   vertex -0.000557 -0.303333 0.189095
   vertex 0.014387 -0.303333 0.214627
   vertex 0.007179 -0.303333 0.217572
  endloop
 endfacet
 facet normal 0.000000 -1.000000 0.000000
  outer loop
   vertex -0.000557 -0.303333 0.189095
   vertex 0.020578 -0.303333 0.209942
   vertex 0.014387 -0.303333 0.214627
  endloop
 endfacet
 facet normal 0.000000 -1.000000 0.000000
  outer loop
   vertex -0.000557 -0.303333 0.189095
   vertex 0.025327 -0.303333 0.203836
   vertex 0.020578 -0.303333 0.209942
  endloop
 endfacet
 facet normal 0.000000 -1.000000 0.000000
  outer loop
   vertex -0.000557 -0.303333 0.189095
   vertex 0.028313 -0.303333 0.196725
   vertex 0.025327 -0.303333 0.203836
  endloop
 endfacet
 facet normal 0.000000 -1.000000 0.000000
  outer loop
   vertex -0.000557 -0.303333 0.189095
   vertex 0.029332 -0.303333 0.189095
   vertex 0.028313 -0.303333 0.196725
  endloop
 endfacet
 facet normal 0.000000 -1.000000 0.000000
  outer loop
   vertex -0.000557 -0.303333 0.189095
   vertex 0.028313 -0.303333 0.181465
   vertex 0.029332 -0.303333 0.189095
  endloop
 endfacet
 facet normal 0.000000 1.000000 0.000000
  outer loop
   vertex -0.000557 -0.244515 0.189095
   vertex 0.028313 -0.244515 0.181465
   vertex 0.025327 -0.244515 0.174354
  endloop
 endfacet
 facet normal 0.000000 1.000000 0.000000
  outer loop
   vertex -0.000557 -0.244515 0.189095
   vertex 0.025327 -0.244515 0.174354
   vertex 0.020578 -0.244515 0.168248
  endloop
 endfacet
 facet normal 0.000000 1.000000 0.000000
  outer loop
   vertex -0.000557 -0.244515 0.189095
   vertex 0.020578 -0.244515 0.168248
   vertex 0.014387 -0.244515 0.163563
  endloop
 endfacet
 facet normal 0.000000 1.000000 0.000000
  outer loop
   vertex -0.000557 -0.244515 0.189095
   vertex 0.014387 -0.244515 0.163563
   vertex 0.007179 -0.244515 0.160618
  endloop
 endfacet
 facet normal 0.000000 1.000000 0.000000
  outer loop
   vertex -0.000557 -0.244515 0.189095
   vertex 0.007179 -0.244515 0.160618
   vertex -0.000557 -0.244515 0.159613
  endloop
 endfacet
 facet normal 0.000000 1.000000 0.000000
  outer loop
   vertex -0.000557 -0.244515 0.189095
   vertex -0.000557 -0.244515 0.159613
   vertex -0.008293 -0.244515 0.160618
  endloop
 endfacet
 facet normal 0.000000 1.000000 0.000000
  outer loop
   vertex -0.000557 -0.244515 0.189095
   vertex -0.008293 -0.244515 0.160618
   vertex -0.015502 -0.244515 0.163563
  endloop
 endfacet
 facet normal 0.000000 1.000000 0.000000
  outer loop
   vertex -0.000557 -0.244515 0.189095
   vertex -0.015502 -0.244515 0.163563
   vertex -0.021692 -0.244515 0.168248
  endloop
 endfacet
 facet normal 0.000000 1.000000 0.000000
  outer loop
   vertex -0.000557 -0.244515 0.189095
   vertex -0.021692 -0.244515 0.168248
   vertex -0.026442 -0.244515 0.174354
  endloop
 endfacet
 facet normal 0.000000 1.000000 0.000000
  outer loop
   vertex -0.000557 -0.244515 0.189095
   vertex -0.026442 -0.244515 0.174354
   vertex -0.029428 -0.244515 0.181465
  endloop
 endfacet
 facet normal 0.000000 1.000000 0.000000
  outer loop
   vertex -0.000557 -0.244515 0.189095
   vertex -0.029428 -0.244515 0.181465
   vertex -0.030446 -0.244515 0.189095
  endloop
 endfacet
 facet normal 0.000000 1.000000 0.000000
  outer loop
   vertex -0.000557 -0.244515 0.189095
   vertex -0.030446 -0.244515 0.189095
   vertex -0.029428 -0.244515 0.196725
  endloop
 endfacet
 facet normal 0.000000 1.000000 0.000000
  outer loop
   vertex -0.000557 -0.244515 0.189095
   vertex -0.029428 -0.244515 0.196725
   vertex -0.026442 -0.244515 0.203836
  endloop
 endfacet
 facet normal 0.000000 1.000000 0.000000
  outer loop
   vertex -0.000557 -0.244515 0.189095
   vertex -0.026442 -0.244515 0.203836
   vertex -0.021692 -0.244515 0.209942
  endloop
 endfacet
 facet normal 0.000000 1.000000 0.000000
  outer loop
   vertex -0.000557 -0.244515 0.189095
   vertex -0.021692 -0.244515 0.209942
   vertex -0.015502 -0.244515 0.214627
  endloop
 endfacet
 facet normal 0.000000 1.000000 0.000000
  outer loop
   vertex -0.000557 -0.244515 0.189095
   vertex -0.015502 -0.244515 0.214627
   vertex -0.008293 -0.244515 0.217572
  endloop
 endfacet
 facet normal 0.000000 1.000000 0.000000
  outer loop
   vertex -0.000557 -0.244515 0.189095
   vertex -0.008293 -0.244515 0.217572
   vertex -0.000557 -0.244515 0.218577
  endloop
 endfacet
 facet normal 0.000000 1.000000 0.000000
  outer loop
   vertex -0.000557 -0.244515 0.189095
   vertex -0.000557 -0.244515 0.218577
   vertex 0.007179 -0.244515 0.217572
  endloop
 endfacet
 facet normal 0.000000 1.000000 0.000000
  outer loop
   vertex -0.000557 -0.244515 0.189095
   vertex 0.007179 -0.244515 0.217572
   vertex 0.014387 -0.244515 0.214627
  endloop
 endfacet
 facet normal 0.000000 1.000000 0.000000
  outer loop
   vertex -0.000557 -0.244515 0.189095
   vertex 0.014387 -0.244515 0.214627
   vertex 0.020578 -0.244515 0.209942
  endloop
 endfacet
 facet normal 0.000000 1.000000 0.000000
  outer loop
   vertex -0.000557 -0.244515 0.189095
   vertex 0.020578 -0.244515 0.209942
   vertex 0.025327 -0.244515 0.203836
  endloop
 endfacet
 facet normal 0.000000 1.000000 0.000000
  outer loop
   vertex -0.000557 -0.244515 0.189095
   vertex 0.025327 -0.244515 0.203836
   vertex 0.028313 -0.244515 0.196725
  endloop
 endfacet
 facet normal 0.000000 1.000000 0.000000
  outer loop
   vertex -0.000557 -0.244515 0.189095
   vertex 0.028313 -0.244515 0.196725
   vertex 0.029332 -0.244515 0.189095
  endloop
 endfacet
 facet normal 0.000000 1.000000 0.000000
  outer loop
   vertex -0.000557 -0.244515 0.189095
   vertex 0.029332 -0.244515 0.189095
   vertex 0.028313 -0.244515 0.181465
  endloop
 endfacet
endsolid
