solid ascii
  facet normal -9.961947e-001 8.715574e-002 0.000000e+000
    outer loop
      vertex   -2.500000e-002 2.450000e-002 0.000000e+000
      vertex   -2.500000e-002 2.450000e-002 5.000000e-001
      vertex   -2.499240e-002 2.458682e-002 0.000000e+000
    endloop
  endfacet
  facet normal -9.961947e-001 8.715574e-002 0.000000e+000
    outer loop
      vertex   -2.499240e-002 2.458682e-002 0.000000e+000
      vertex   -2.500000e-002 2.450000e-002 5.000000e-001
      vertex   -2.499240e-002 2.458682e-002 5.000000e-001
    endloop
  endfacet
  facet normal -9.659258e-001 2.588190e-001 0.000000e+000
    outer loop
      vertex   -2.496985e-002 2.467101e-002 0.000000e+000
      vertex   -2.499240e-002 2.458682e-002 5.000000e-001
      vertex   -2.496985e-002 2.467101e-002 5.000000e-001
    endloop
  endfacet
  facet normal -9.063078e-001 4.226183e-001 3.755272e-018
    outer loop
      vertex   -2.493301e-002 2.475000e-002 0.000000e+000
      vertex   -2.496985e-002 2.467101e-002 5.000000e-001
      vertex   -2.493301e-002 2.475000e-002 5.000000e-001
    endloop
  endfacet
  facet normal -8.191520e-001 5.735764e-001 0.000000e+000
    outer loop
      vertex   -2.488302e-002 2.482139e-002 0.000000e+000
      vertex   -2.493301e-002 2.475000e-002 5.000000e-001
      vertex   -2.488302e-002 2.482139e-002 5.000000e-001
    endloop
  endfacet
  facet normal -7.071068e-001 7.071068e-001 0.000000e+000
    outer loop
      vertex   -2.482139e-002 2.488302e-002 0.000000e+000
      vertex   -2.488302e-002 2.482139e-002 5.000000e-001
      vertex   -2.482139e-002 2.488302e-002 5.000000e-001
    endloop
  endfacet
  facet normal -5.735764e-001 8.191520e-001 -5.100328e-018
    outer loop
      vertex   -2.475000e-002 2.493301e-002 0.000000e+000
      vertex   -2.482139e-002 2.488302e-002 5.000000e-001
      vertex   -2.475000e-002 2.493301e-002 5.000000e-001
    endloop
  endfacet
  facet normal -4.226183e-001 9.063078e-001 0.000000e+000
    outer loop
      vertex   -2.467101e-002 2.496985e-002 0.000000e+000
      vertex   -2.475000e-002 2.493301e-002 5.000000e-001
      vertex   -2.467101e-002 2.496985e-002 5.000000e-001
    endloop
  endfacet
  facet normal -2.588190e-001 9.659258e-001 0.000000e+000
    outer loop
      vertex   -2.458682e-002 2.499240e-002 0.000000e+000
      vertex   -2.467101e-002 2.496985e-002 5.000000e-001
      vertex   -2.458682e-002 2.499240e-002 5.000000e-001
    endloop
  endfacet
  facet normal -8.715574e-002 9.961947e-001 0.000000e+000
    outer loop
      vertex   -2.450000e-002 2.500000e-002 0.000000e+000
      vertex   -2.458682e-002 2.499240e-002 5.000000e-001
      vertex   -2.450000e-002 2.500000e-002 5.000000e-001
    endloop
  endfacet
  facet normal -8.715574e-002 9.961947e-001 0.000000e+000
    outer loop
      vertex   -2.450000e-002 2.500000e-002 0.000000e+000
      vertex   -2.458682e-002 2.499240e-002 0.000000e+000
      vertex   -2.458682e-002 2.499240e-002 5.000000e-001
    endloop
  endfacet
  facet normal -2.588190e-001 9.659258e-001 0.000000e+000
    outer loop
      vertex   -2.458682e-002 2.499240e-002 0.000000e+000
      vertex   -2.467101e-002 2.496985e-002 0.000000e+000
      vertex   -2.467101e-002 2.496985e-002 5.000000e-001
    endloop
  endfacet
  facet normal -4.226183e-001 9.063078e-001 -3.753604e-018
    outer loop
      vertex   -2.467101e-002 2.496985e-002 0.000000e+000
      vertex   -2.475000e-002 2.493301e-002 0.000000e+000
      vertex   -2.475000e-002 2.493301e-002 5.000000e-001
    endloop
  endfacet
  facet normal -5.735764e-001 8.191520e-001 0.000000e+000
    outer loop
      vertex   -2.475000e-002 2.493301e-002 0.000000e+000
      vertex   -2.482139e-002 2.488302e-002 0.000000e+000
      vertex   -2.482139e-002 2.488302e-002 5.000000e-001
    endloop
  endfacet
  facet normal -7.071068e-001 7.071068e-001 0.000000e+000
    outer loop
      vertex   -2.482139e-002 2.488302e-002 0.000000e+000
      vertex   -2.488302e-002 2.482139e-002 0.000000e+000
      vertex   -2.488302e-002 2.482139e-002 5.000000e-001
    endloop
  endfacet
  facet normal -8.191520e-001 5.735764e-001 5.094382e-018
    outer loop
      vertex   -2.488302e-002 2.482139e-002 0.000000e+000
      vertex   -2.493301e-002 2.475000e-002 0.000000e+000
      vertex   -2.493301e-002 2.475000e-002 5.000000e-001
    endloop
  endfacet
  facet normal -9.063078e-001 4.226183e-001 0.000000e+000
    outer loop
      vertex   -2.493301e-002 2.475000e-002 0.000000e+000
      vertex   -2.496985e-002 2.467101e-002 0.000000e+000
      vertex   -2.496985e-002 2.467101e-002 5.000000e-001
    endloop
  endfacet
  facet normal -9.659258e-001 2.588190e-001 0.000000e+000
    outer loop
      vertex   -2.496985e-002 2.467101e-002 0.000000e+000
      vertex   -2.499240e-002 2.458682e-002 0.000000e+000
      vertex   -2.499240e-002 2.458682e-002 5.000000e-001
    endloop
  endfacet
  facet normal 0.000000e+000 1.000000e+000 0.000000e+000
    outer loop
      vertex   -2.450000e-002 2.500000e-002 5.000000e-001
      vertex   2.450000e-002 2.500000e-002 5.000000e-001
      vertex   -2.450000e-002 2.500000e-002 0.000000e+000
    endloop
  endfacet
  facet normal 0.000000e+000 1.000000e+000 0.000000e+000
    outer loop
      vertex   -2.450000e-002 2.500000e-002 0.000000e+000
      vertex   2.450000e-002 2.500000e-002 5.000000e-001
      vertex   2.450000e-002 2.500000e-002 0.000000e+000
    endloop
  endfacet
  facet normal 8.715574e-002 9.961947e-001 0.000000e+000
    outer loop
      vertex   2.450000e-002 2.500000e-002 0.000000e+000
      vertex   2.450000e-002 2.500000e-002 5.000000e-001
      vertex   2.458682e-002 2.499240e-002 0.000000e+000
    endloop
  endfacet
  facet normal 8.715574e-002 9.961947e-001 0.000000e+000
    outer loop
      vertex   2.458682e-002 2.499240e-002 0.000000e+000
      vertex   2.450000e-002 2.500000e-002 5.000000e-001
      vertex   2.458682e-002 2.499240e-002 5.000000e-001
    endloop
  endfacet
  facet normal 2.588190e-001 9.659258e-001 0.000000e+000
    outer loop
      vertex   2.467101e-002 2.496985e-002 0.000000e+000
      vertex   2.458682e-002 2.499240e-002 5.000000e-001
      vertex   2.467101e-002 2.496985e-002 5.000000e-001
    endloop
  endfacet
  facet normal 4.226183e-001 9.063078e-001 3.755272e-018
    outer loop
      vertex   2.475000e-002 2.493301e-002 0.000000e+000
      vertex   2.467101e-002 2.496985e-002 5.000000e-001
      vertex   2.475000e-002 2.493301e-002 5.000000e-001
    endloop
  endfacet
  facet normal 5.735764e-001 8.191520e-001 0.000000e+000
    outer loop
      vertex   2.482139e-002 2.488302e-002 0.000000e+000
      vertex   2.475000e-002 2.493301e-002 5.000000e-001
      vertex   2.482139e-002 2.488302e-002 5.000000e-001
    endloop
  endfacet
  facet normal 7.071068e-001 7.071068e-001 0.000000e+000
    outer loop
      vertex   2.488302e-002 2.482139e-002 0.000000e+000
      vertex   2.482139e-002 2.488302e-002 5.000000e-001
      vertex   2.488302e-002 2.482139e-002 5.000000e-001
    endloop
  endfacet
  facet normal 8.191520e-001 5.735764e-001 0.000000e+000
    outer loop
      vertex   2.493301e-002 2.475000e-002 0.000000e+000
      vertex   2.488302e-002 2.482139e-002 5.000000e-001
      vertex   2.493301e-002 2.475000e-002 5.000000e-001
    endloop
  endfacet
  facet normal 9.063078e-001 4.226183e-001 0.000000e+000
    outer loop
      vertex   2.496985e-002 2.467101e-002 0.000000e+000
      vertex   2.493301e-002 2.475000e-002 5.000000e-001
      vertex   2.496985e-002 2.467101e-002 5.000000e-001
    endloop
  endfacet
  facet normal 9.659258e-001 2.588190e-001 0.000000e+000
    outer loop
      vertex   2.499240e-002 2.458682e-002 0.000000e+000
      vertex   2.496985e-002 2.467101e-002 5.000000e-001
      vertex   2.499240e-002 2.458682e-002 5.000000e-001
    endloop
  endfacet
  facet normal 9.961947e-001 8.715574e-002 0.000000e+000
    outer loop
      vertex   2.500000e-002 2.450000e-002 0.000000e+000
      vertex   2.499240e-002 2.458682e-002 5.000000e-001
      vertex   2.500000e-002 2.450000e-002 5.000000e-001
    endloop
  endfacet
  facet normal 9.961947e-001 8.715574e-002 0.000000e+000
    outer loop
      vertex   2.500000e-002 2.450000e-002 0.000000e+000
      vertex   2.499240e-002 2.458682e-002 0.000000e+000
      vertex   2.499240e-002 2.458682e-002 5.000000e-001
    endloop
  endfacet
  facet normal 9.659258e-001 2.588190e-001 0.000000e+000
    outer loop
      vertex   2.499240e-002 2.458682e-002 0.000000e+000
      vertex   2.496985e-002 2.467101e-002 0.000000e+000
      vertex   2.496985e-002 2.467101e-002 5.000000e-001
    endloop
  endfacet
  facet normal 9.063078e-001 4.226183e-001 0.000000e+000
    outer loop
      vertex   2.496985e-002 2.467101e-002 0.000000e+000
      vertex   2.493301e-002 2.475000e-002 0.000000e+000
      vertex   2.493301e-002 2.475000e-002 5.000000e-001
    endloop
  endfacet
  facet normal 8.191520e-001 5.735764e-001 0.000000e+000
    outer loop
      vertex   2.493301e-002 2.475000e-002 0.000000e+000
      vertex   2.488302e-002 2.482139e-002 0.000000e+000
      vertex   2.488302e-002 2.482139e-002 5.000000e-001
    endloop
  endfacet
  facet normal 7.071068e-001 7.071068e-001 0.000000e+000
    outer loop
      vertex   2.488302e-002 2.482139e-002 0.000000e+000
      vertex   2.482139e-002 2.488302e-002 0.000000e+000
      vertex   2.482139e-002 2.488302e-002 5.000000e-001
    endloop
  endfacet
  facet normal 5.735764e-001 8.191520e-001 5.094382e-018
    outer loop
      vertex   2.482139e-002 2.488302e-002 0.000000e+000
      vertex   2.475000e-002 2.493301e-002 0.000000e+000
      vertex   2.475000e-002 2.493301e-002 5.000000e-001
    endloop
  endfacet
  facet normal 4.226183e-001 9.063078e-001 0.000000e+000
    outer loop
      vertex   2.475000e-002 2.493301e-002 0.000000e+000
      vertex   2.467101e-002 2.496985e-002 0.000000e+000
      vertex   2.467101e-002 2.496985e-002 5.000000e-001
    endloop
  endfacet
  facet normal 2.588190e-001 9.659258e-001 0.000000e+000
    outer loop
      vertex   2.467101e-002 2.496985e-002 0.000000e+000
      vertex   2.458682e-002 2.499240e-002 0.000000e+000
      vertex   2.458682e-002 2.499240e-002 5.000000e-001
    endloop
  endfacet
  facet normal 1.000000e+000 1.812609e-016 0.000000e+000
    outer loop
      vertex   2.500000e-002 2.450000e-002 5.000000e-001
      vertex   2.500000e-002 -2.450000e-002 5.000000e-001
      vertex   2.500000e-002 2.450000e-002 0.000000e+000
    endloop
  endfacet
  facet normal 1.000000e+000 1.812609e-016 0.000000e+000
    outer loop
      vertex   2.500000e-002 2.450000e-002 0.000000e+000
      vertex   2.500000e-002 -2.450000e-002 5.000000e-001
      vertex   2.500000e-002 -2.450000e-002 0.000000e+000
    endloop
  endfacet
  facet normal 9.961947e-001 -8.715574e-002 0.000000e+000
    outer loop
      vertex   2.500000e-002 -2.450000e-002 0.000000e+000
      vertex   2.500000e-002 -2.450000e-002 5.000000e-001
      vertex   2.499240e-002 -2.458682e-002 0.000000e+000
    endloop
  endfacet
  facet normal 9.961947e-001 -8.715574e-002 0.000000e+000
    outer loop
      vertex   2.499240e-002 -2.458682e-002 0.000000e+000
      vertex   2.500000e-002 -2.450000e-002 5.000000e-001
      vertex   2.499240e-002 -2.458682e-002 5.000000e-001
    endloop
  endfacet
  facet normal 9.659258e-001 -2.588190e-001 0.000000e+000
    outer loop
      vertex   2.496985e-002 -2.467101e-002 0.000000e+000
      vertex   2.499240e-002 -2.458682e-002 5.000000e-001
      vertex   2.496985e-002 -2.467101e-002 5.000000e-001
    endloop
  endfacet
  facet normal 9.063078e-001 -4.226183e-001 3.755272e-018
    outer loop
      vertex   2.493301e-002 -2.475000e-002 0.000000e+000
      vertex   2.496985e-002 -2.467101e-002 5.000000e-001
      vertex   2.493301e-002 -2.475000e-002 5.000000e-001
    endloop
  endfacet
  facet normal 8.191520e-001 -5.735764e-001 0.000000e+000
    outer loop
      vertex   2.488302e-002 -2.482139e-002 0.000000e+000
      vertex   2.493301e-002 -2.475000e-002 5.000000e-001
      vertex   2.488302e-002 -2.482139e-002 5.000000e-001
    endloop
  endfacet
  facet normal 7.071068e-001 -7.071068e-001 0.000000e+000
    outer loop
      vertex   2.482139e-002 -2.488302e-002 0.000000e+000
      vertex   2.488302e-002 -2.482139e-002 5.000000e-001
      vertex   2.482139e-002 -2.488302e-002 5.000000e-001
    endloop
  endfacet
  facet normal 5.735764e-001 -8.191520e-001 0.000000e+000
    outer loop
      vertex   2.475000e-002 -2.493301e-002 0.000000e+000
      vertex   2.482139e-002 -2.488302e-002 5.000000e-001
      vertex   2.475000e-002 -2.493301e-002 5.000000e-001
    endloop
  endfacet
  facet normal 4.226183e-001 -9.063078e-001 0.000000e+000
    outer loop
      vertex   2.467101e-002 -2.496985e-002 0.000000e+000
      vertex   2.475000e-002 -2.493301e-002 5.000000e-001
      vertex   2.467101e-002 -2.496985e-002 5.000000e-001
    endloop
  endfacet
  facet normal 2.588190e-001 -9.659258e-001 0.000000e+000
    outer loop
      vertex   2.458682e-002 -2.499240e-002 0.000000e+000
      vertex   2.467101e-002 -2.496985e-002 5.000000e-001
      vertex   2.458682e-002 -2.499240e-002 5.000000e-001
    endloop
  endfacet
  facet normal 8.715574e-002 -9.961947e-001 0.000000e+000
    outer loop
      vertex   2.450000e-002 -2.500000e-002 0.000000e+000
      vertex   2.458682e-002 -2.499240e-002 5.000000e-001
      vertex   2.450000e-002 -2.500000e-002 5.000000e-001
    endloop
  endfacet
  facet normal 8.715574e-002 -9.961947e-001 0.000000e+000
    outer loop
      vertex   2.450000e-002 -2.500000e-002 0.000000e+000
      vertex   2.458682e-002 -2.499240e-002 0.000000e+000
      vertex   2.458682e-002 -2.499240e-002 5.000000e-001
    endloop
  endfacet
  facet normal 2.588190e-001 -9.659258e-001 0.000000e+000
    outer loop
      vertex   2.458682e-002 -2.499240e-002 0.000000e+000
      vertex   2.467101e-002 -2.496985e-002 0.000000e+000
      vertex   2.467101e-002 -2.496985e-002 5.000000e-001
    endloop
  endfacet
  facet normal 4.226183e-001 -9.063078e-001 0.000000e+000
    outer loop
      vertex   2.467101e-002 -2.496985e-002 0.000000e+000
      vertex   2.475000e-002 -2.493301e-002 0.000000e+000
      vertex   2.475000e-002 -2.493301e-002 5.000000e-001
    endloop
  endfacet
  facet normal 5.735764e-001 -8.191520e-001 0.000000e+000
    outer loop
      vertex   2.475000e-002 -2.493301e-002 0.000000e+000
      vertex   2.482139e-002 -2.488302e-002 0.000000e+000
      vertex   2.482139e-002 -2.488302e-002 5.000000e-001
    endloop
  endfacet
  facet normal 7.071068e-001 -7.071068e-001 0.000000e+000
    outer loop
      vertex   2.482139e-002 -2.488302e-002 0.000000e+000
      vertex   2.488302e-002 -2.482139e-002 0.000000e+000
      vertex   2.488302e-002 -2.482139e-002 5.000000e-001
    endloop
  endfacet
  facet normal 8.191520e-001 -5.735764e-001 5.094382e-018
    outer loop
      vertex   2.488302e-002 -2.482139e-002 0.000000e+000
      vertex   2.493301e-002 -2.475000e-002 0.000000e+000
      vertex   2.493301e-002 -2.475000e-002 5.000000e-001
    endloop
  endfacet
  facet normal 9.063078e-001 -4.226183e-001 0.000000e+000
    outer loop
      vertex   2.493301e-002 -2.475000e-002 0.000000e+000
      vertex   2.496985e-002 -2.467101e-002 0.000000e+000
      vertex   2.496985e-002 -2.467101e-002 5.000000e-001
    endloop
  endfacet
  facet normal 9.659258e-001 -2.588190e-001 0.000000e+000
    outer loop
      vertex   2.496985e-002 -2.467101e-002 0.000000e+000
      vertex   2.499240e-002 -2.458682e-002 0.000000e+000
      vertex   2.499240e-002 -2.458682e-002 5.000000e-001
    endloop
  endfacet
  facet normal -1.812609e-016 -1.000000e+000 0.000000e+000
    outer loop
      vertex   2.450000e-002 -2.500000e-002 5.000000e-001
      vertex   -2.450000e-002 -2.500000e-002 5.000000e-001
      vertex   2.450000e-002 -2.500000e-002 0.000000e+000
    endloop
  endfacet
  facet normal -1.812609e-016 -1.000000e+000 0.000000e+000
    outer loop
      vertex   2.450000e-002 -2.500000e-002 0.000000e+000
      vertex   -2.450000e-002 -2.500000e-002 5.000000e-001
      vertex   -2.450000e-002 -2.500000e-002 0.000000e+000
    endloop
  endfacet
  facet normal -8.715574e-002 -9.961947e-001 0.000000e+000
    outer loop
      vertex   -2.450000e-002 -2.500000e-002 0.000000e+000
      vertex   -2.450000e-002 -2.500000e-002 5.000000e-001
      vertex   -2.458682e-002 -2.499240e-002 0.000000e+000
    endloop
  endfacet
  facet normal -8.715574e-002 -9.961947e-001 0.000000e+000
    outer loop
      vertex   -2.458682e-002 -2.499240e-002 0.000000e+000
      vertex   -2.450000e-002 -2.500000e-002 5.000000e-001
      vertex   -2.458682e-002 -2.499240e-002 5.000000e-001
    endloop
  endfacet
  facet normal -2.588190e-001 -9.659258e-001 0.000000e+000
    outer loop
      vertex   -2.467101e-002 -2.496985e-002 0.000000e+000
      vertex   -2.458682e-002 -2.499240e-002 5.000000e-001
      vertex   -2.467101e-002 -2.496985e-002 5.000000e-001
    endloop
  endfacet
  facet normal -4.226183e-001 -9.063078e-001 3.755272e-018
    outer loop
      vertex   -2.475000e-002 -2.493301e-002 0.000000e+000
      vertex   -2.467101e-002 -2.496985e-002 5.000000e-001
      vertex   -2.475000e-002 -2.493301e-002 5.000000e-001
    endloop
  endfacet
  facet normal -5.735764e-001 -8.191520e-001 0.000000e+000
    outer loop
      vertex   -2.482139e-002 -2.488302e-002 0.000000e+000
      vertex   -2.475000e-002 -2.493301e-002 5.000000e-001
      vertex   -2.482139e-002 -2.488302e-002 5.000000e-001
    endloop
  endfacet
  facet normal -7.071068e-001 -7.071068e-001 0.000000e+000
    outer loop
      vertex   -2.488302e-002 -2.482139e-002 0.000000e+000
      vertex   -2.482139e-002 -2.488302e-002 5.000000e-001
      vertex   -2.488302e-002 -2.482139e-002 5.000000e-001
    endloop
  endfacet
  facet normal -8.191520e-001 -5.735764e-001 -5.100328e-018
    outer loop
      vertex   -2.493301e-002 -2.475000e-002 0.000000e+000
      vertex   -2.488302e-002 -2.482139e-002 5.000000e-001
      vertex   -2.493301e-002 -2.475000e-002 5.000000e-001
    endloop
  endfacet
  facet normal -9.063078e-001 -4.226183e-001 0.000000e+000
    outer loop
      vertex   -2.496985e-002 -2.467101e-002 0.000000e+000
      vertex   -2.493301e-002 -2.475000e-002 5.000000e-001
      vertex   -2.496985e-002 -2.467101e-002 5.000000e-001
    endloop
  endfacet
  facet normal -9.659258e-001 -2.588190e-001 0.000000e+000
    outer loop
      vertex   -2.499240e-002 -2.458682e-002 0.000000e+000
      vertex   -2.496985e-002 -2.467101e-002 5.000000e-001
      vertex   -2.499240e-002 -2.458682e-002 5.000000e-001
    endloop
  endfacet
  facet normal -9.961947e-001 -8.715574e-002 0.000000e+000
    outer loop
      vertex   -2.500000e-002 -2.450000e-002 0.000000e+000
      vertex   -2.499240e-002 -2.458682e-002 5.000000e-001
      vertex   -2.500000e-002 -2.450000e-002 5.000000e-001
    endloop
  endfacet
  facet normal -9.961947e-001 -8.715574e-002 0.000000e+000
    outer loop
      vertex   -2.500000e-002 -2.450000e-002 0.000000e+000
      vertex   -2.499240e-002 -2.458682e-002 0.000000e+000
      vertex   -2.499240e-002 -2.458682e-002 5.000000e-001
    endloop
  endfacet
  facet normal -9.659258e-001 -2.588190e-001 0.000000e+000
    outer loop
      vertex   -2.499240e-002 -2.458682e-002 0.000000e+000
      vertex   -2.496985e-002 -2.467101e-002 0.000000e+000
      vertex   -2.496985e-002 -2.467101e-002 5.000000e-001
    endloop
  endfacet
  facet normal -9.063078e-001 -4.226183e-001 -3.753604e-018
    outer loop
      vertex   -2.496985e-002 -2.467101e-002 0.000000e+000
      vertex   -2.493301e-002 -2.475000e-002 0.000000e+000
      vertex   -2.493301e-002 -2.475000e-002 5.000000e-001
    endloop
  endfacet
  facet normal -8.191520e-001 -5.735764e-001 0.000000e+000
    outer loop
      vertex   -2.493301e-002 -2.475000e-002 0.000000e+000
      vertex   -2.488302e-002 -2.482139e-002 0.000000e+000
      vertex   -2.488302e-002 -2.482139e-002 5.000000e-001
    endloop
  endfacet
  facet normal -7.071068e-001 -7.071068e-001 0.000000e+000
    outer loop
      vertex   -2.488302e-002 -2.482139e-002 0.000000e+000
      vertex   -2.482139e-002 -2.488302e-002 0.000000e+000
      vertex   -2.482139e-002 -2.488302e-002 5.000000e-001
    endloop
  endfacet
  facet normal -5.735764e-001 -8.191520e-001 5.094382e-018
    outer loop
      vertex   -2.482139e-002 -2.488302e-002 0.000000e+000
      vertex   -2.475000e-002 -2.493301e-002 0.000000e+000
      vertex   -2.475000e-002 -2.493301e-002 5.000000e-001
    endloop
  endfacet
  facet normal -4.226183e-001 -9.063078e-001 0.000000e+000
    outer loop
      vertex   -2.475000e-002 -2.493301e-002 0.000000e+000
      vertex   -2.467101e-002 -2.496985e-002 0.000000e+000
      vertex   -2.467101e-002 -2.496985e-002 5.000000e-001
    endloop
  endfacet
  facet normal -2.588190e-001 -9.659258e-001 0.000000e+000
    outer loop
      vertex   -2.467101e-002 -2.496985e-002 0.000000e+000
      vertex   -2.458682e-002 -2.499240e-002 0.000000e+000
      vertex   -2.458682e-002 -2.499240e-002 5.000000e-001
    endloop
  endfacet
  facet normal -1.000000e+000 0.000000e+000 0.000000e+000
    outer loop
      vertex   -2.500000e-002 -2.450000e-002 5.000000e-001
      vertex   -2.500000e-002 2.450000e-002 5.000000e-001
      vertex   -2.500000e-002 -2.450000e-002 0.000000e+000
    endloop
  endfacet
  facet normal -1.000000e+000 0.000000e+000 0.000000e+000
    outer loop
      vertex   -2.500000e-002 -2.450000e-002 0.000000e+000
      vertex   -2.500000e-002 2.450000e-002 5.000000e-001
      vertex   -2.500000e-002 2.450000e-002 0.000000e+000
    endloop
  endfacet
  facet normal 0.000000e+000 0.000000e+000 1.000000e+000
    outer loop
      vertex   2.450000e-002 2.500000e-002 5.000000e-001
      vertex   -2.450000e-002 2.500000e-002 5.000000e-001
      vertex   2.458682e-002 2.499240e-002 5.000000e-001
    endloop
  endfacet
  facet normal 0.000000e+000 0.000000e+000 1.000000e+000
    outer loop
      vertex   2.458682e-002 2.499240e-002 5.000000e-001
      vertex   -2.450000e-002 2.500000e-002 5.000000e-001
      vertex   -2.458682e-002 2.499240e-002 5.000000e-001
    endloop
  endfacet
  facet normal 0.000000e+000 0.000000e+000 1.000000e+000
    outer loop
      vertex   2.467101e-002 2.496985e-002 5.000000e-001
      vertex   -2.458682e-002 2.499240e-002 5.000000e-001
      vertex   -2.467101e-002 2.496985e-002 5.000000e-001
    endloop
  endfacet
  facet normal 0.000000e+000 0.000000e+000 1.000000e+000
    outer loop
      vertex   2.475000e-002 2.493301e-002 5.000000e-001
      vertex   -2.467101e-002 2.496985e-002 5.000000e-001
      vertex   -2.475000e-002 2.493301e-002 5.000000e-001
    endloop
  endfacet
  facet normal 0.000000e+000 0.000000e+000 1.000000e+000
    outer loop
      vertex   2.482139e-002 2.488302e-002 5.000000e-001
      vertex   -2.475000e-002 2.493301e-002 5.000000e-001
      vertex   -2.482139e-002 2.488302e-002 5.000000e-001
    endloop
  endfacet
  facet normal 0.000000e+000 0.000000e+000 1.000000e+000
    outer loop
      vertex   2.488302e-002 2.482139e-002 5.000000e-001
      vertex   -2.482139e-002 2.488302e-002 5.000000e-001
      vertex   -2.488302e-002 2.482139e-002 5.000000e-001
    endloop
  endfacet
  facet normal 0.000000e+000 0.000000e+000 1.000000e+000
    outer loop
      vertex   2.493301e-002 2.475000e-002 5.000000e-001
      vertex   -2.488302e-002 2.482139e-002 5.000000e-001
      vertex   -2.493301e-002 2.475000e-002 5.000000e-001
    endloop
  endfacet
  facet normal 0.000000e+000 0.000000e+000 1.000000e+000
    outer loop
      vertex   2.496985e-002 2.467101e-002 5.000000e-001
      vertex   -2.493301e-002 2.475000e-002 5.000000e-001
      vertex   -2.496985e-002 2.467101e-002 5.000000e-001
    endloop
  endfacet
  facet normal 0.000000e+000 0.000000e+000 1.000000e+000
    outer loop
      vertex   2.499240e-002 2.458682e-002 5.000000e-001
      vertex   -2.496985e-002 2.467101e-002 5.000000e-001
      vertex   -2.499240e-002 2.458682e-002 5.000000e-001
    endloop
  endfacet
  facet normal 0.000000e+000 0.000000e+000 1.000000e+000
    outer loop
      vertex   2.500000e-002 2.450000e-002 5.000000e-001
      vertex   -2.499240e-002 2.458682e-002 5.000000e-001
      vertex   -2.500000e-002 2.450000e-002 5.000000e-001
    endloop
  endfacet
  facet normal 0.000000e+000 0.000000e+000 1.000000e+000
    outer loop
      vertex   2.500000e-002 -2.450000e-002 5.000000e-001
      vertex   -2.500000e-002 2.450000e-002 5.000000e-001
      vertex   -2.500000e-002 -2.450000e-002 5.000000e-001
    endloop
  endfacet
  facet normal 0.000000e+000 0.000000e+000 1.000000e+000
    outer loop
      vertex   2.499240e-002 -2.458682e-002 5.000000e-001
      vertex   -2.500000e-002 -2.450000e-002 5.000000e-001
      vertex   -2.499240e-002 -2.458682e-002 5.000000e-001
    endloop
  endfacet
  facet normal 0.000000e+000 0.000000e+000 1.000000e+000
    outer loop
      vertex   2.496985e-002 -2.467101e-002 5.000000e-001
      vertex   -2.499240e-002 -2.458682e-002 5.000000e-001
      vertex   -2.496985e-002 -2.467101e-002 5.000000e-001
    endloop
  endfacet
  facet normal 0.000000e+000 0.000000e+000 1.000000e+000
    outer loop
      vertex   2.493301e-002 -2.475000e-002 5.000000e-001
      vertex   -2.496985e-002 -2.467101e-002 5.000000e-001
      vertex   -2.493301e-002 -2.475000e-002 5.000000e-001
    endloop
  endfacet
  facet normal 0.000000e+000 0.000000e+000 1.000000e+000
    outer loop
      vertex   2.488302e-002 -2.482139e-002 5.000000e-001
      vertex   -2.493301e-002 -2.475000e-002 5.000000e-001
      vertex   -2.488302e-002 -2.482139e-002 5.000000e-001
    endloop
  endfacet
  facet normal 0.000000e+000 0.000000e+000 1.000000e+000
    outer loop
      vertex   2.482139e-002 -2.488302e-002 5.000000e-001
      vertex   -2.488302e-002 -2.482139e-002 5.000000e-001
      vertex   -2.482139e-002 -2.488302e-002 5.000000e-001
    endloop
  endfacet
  facet normal 0.000000e+000 0.000000e+000 1.000000e+000
    outer loop
      vertex   2.475000e-002 -2.493301e-002 5.000000e-001
      vertex   -2.482139e-002 -2.488302e-002 5.000000e-001
      vertex   -2.475000e-002 -2.493301e-002 5.000000e-001
    endloop
  endfacet
  facet normal 0.000000e+000 0.000000e+000 1.000000e+000
    outer loop
      vertex   2.467101e-002 -2.496985e-002 5.000000e-001
      vertex   -2.475000e-002 -2.493301e-002 5.000000e-001
      vertex   -2.467101e-002 -2.496985e-002 5.000000e-001
    endloop
  endfacet
  facet normal 0.000000e+000 0.000000e+000 1.000000e+000
    outer loop
      vertex   2.458682e-002 -2.499240e-002 5.000000e-001
      vertex   -2.467101e-002 -2.496985e-002 5.000000e-001
      vertex   -2.458682e-002 -2.499240e-002 5.000000e-001
    endloop
  endfacet
  facet normal 0.000000e+000 0.000000e+000 1.000000e+000
    outer loop
      vertex   2.450000e-002 -2.500000e-002 5.000000e-001
      vertex   -2.458682e-002 -2.499240e-002 5.000000e-001
      vertex   -2.450000e-002 -2.500000e-002 5.000000e-001
    endloop
  endfacet
  facet normal 0.000000e+000 0.000000e+000 1.000000e+000
    outer loop
      vertex   2.450000e-002 -2.500000e-002 5.000000e-001
      vertex   2.458682e-002 -2.499240e-002 5.000000e-001
      vertex   -2.458682e-002 -2.499240e-002 5.000000e-001
    endloop
  endfacet
  facet normal 0.000000e+000 0.000000e+000 1.000000e+000
    outer loop
      vertex   2.458682e-002 -2.499240e-002 5.000000e-001
      vertex   2.467101e-002 -2.496985e-002 5.000000e-001
      vertex   -2.467101e-002 -2.496985e-002 5.000000e-001
    endloop
  endfacet
  facet normal 0.000000e+000 0.000000e+000 1.000000e+000
    outer loop
      vertex   2.467101e-002 -2.496985e-002 5.000000e-001
      vertex   2.475000e-002 -2.493301e-002 5.000000e-001
      vertex   -2.475000e-002 -2.493301e-002 5.000000e-001
    endloop
  endfacet
  facet normal 0.000000e+000 0.000000e+000 1.000000e+000
    outer loop
      vertex   2.475000e-002 -2.493301e-002 5.000000e-001
      vertex   2.482139e-002 -2.488302e-002 5.000000e-001
      vertex   -2.482139e-002 -2.488302e-002 5.000000e-001
    endloop
  endfacet
  facet normal 0.000000e+000 0.000000e+000 1.000000e+000
    outer loop
      vertex   2.482139e-002 -2.488302e-002 5.000000e-001
      vertex   2.488302e-002 -2.482139e-002 5.000000e-001
      vertex   -2.488302e-002 -2.482139e-002 5.000000e-001
    endloop
  endfacet
  facet normal 0.000000e+000 0.000000e+000 1.000000e+000
    outer loop
      vertex   2.488302e-002 -2.482139e-002 5.000000e-001
      vertex   2.493301e-002 -2.475000e-002 5.000000e-001
      vertex   -2.493301e-002 -2.475000e-002 5.000000e-001
    endloop
  endfacet
  facet normal 0.000000e+000 0.000000e+000 1.000000e+000
    outer loop
      vertex   2.493301e-002 -2.475000e-002 5.000000e-001
      vertex   2.496985e-002 -2.467101e-002 5.000000e-001
      vertex   -2.496985e-002 -2.467101e-002 5.000000e-001
    endloop
  endfacet
  facet normal 0.000000e+000 0.000000e+000 1.000000e+000
    outer loop
      vertex   2.496985e-002 -2.467101e-002 5.000000e-001
      vertex   2.499240e-002 -2.458682e-002 5.000000e-001
      vertex   -2.499240e-002 -2.458682e-002 5.000000e-001
    endloop
  endfacet
  facet normal 0.000000e+000 0.000000e+000 1.000000e+000
    outer loop
      vertex   2.499240e-002 -2.458682e-002 5.000000e-001
      vertex   2.500000e-002 -2.450000e-002 5.000000e-001
      vertex   -2.500000e-002 -2.450000e-002 5.000000e-001
    endloop
  endfacet
  facet normal 0.000000e+000 0.000000e+000 1.000000e+000
    outer loop
      vertex   2.500000e-002 -2.450000e-002 5.000000e-001
      vertex   2.500000e-002 2.450000e-002 5.000000e-001
      vertex   -2.500000e-002 2.450000e-002 5.000000e-001
    endloop
  endfacet
  facet normal 0.000000e+000 0.000000e+000 1.000000e+000
    outer loop
      vertex   2.500000e-002 2.450000e-002 5.000000e-001
      vertex   2.499240e-002 2.458682e-002 5.000000e-001
      vertex   -2.499240e-002 2.458682e-002 5.000000e-001
    endloop
  endfacet
  facet normal 0.000000e+000 0.000000e+000 1.000000e+000
    outer loop
      vertex   2.499240e-002 2.458682e-002 5.000000e-001
      vertex   2.496985e-002 2.467101e-002 5.000000e-001
      vertex   -2.496985e-002 2.467101e-002 5.000000e-001
    endloop
  endfacet
  facet normal 0.000000e+000 0.000000e+000 1.000000e+000
    outer loop
      vertex   2.496985e-002 2.467101e-002 5.000000e-001
      vertex   2.493301e-002 2.475000e-002 5.000000e-001
      vertex   -2.493301e-002 2.475000e-002 5.000000e-001
    endloop
  endfacet
  facet normal 0.000000e+000 0.000000e+000 1.000000e+000
    outer loop
      vertex   2.493301e-002 2.475000e-002 5.000000e-001
      vertex   2.488302e-002 2.482139e-002 5.000000e-001
      vertex   -2.488302e-002 2.482139e-002 5.000000e-001
    endloop
  endfacet
  facet normal 0.000000e+000 0.000000e+000 1.000000e+000
    outer loop
      vertex   2.488302e-002 2.482139e-002 5.000000e-001
      vertex   2.482139e-002 2.488302e-002 5.000000e-001
      vertex   -2.482139e-002 2.488302e-002 5.000000e-001
    endloop
  endfacet
  facet normal 0.000000e+000 0.000000e+000 1.000000e+000
    outer loop
      vertex   2.482139e-002 2.488302e-002 5.000000e-001
      vertex   2.475000e-002 2.493301e-002 5.000000e-001
      vertex   -2.475000e-002 2.493301e-002 5.000000e-001
    endloop
  endfacet
  facet normal 0.000000e+000 0.000000e+000 1.000000e+000
    outer loop
      vertex   2.475000e-002 2.493301e-002 5.000000e-001
      vertex   2.467101e-002 2.496985e-002 5.000000e-001
      vertex   -2.467101e-002 2.496985e-002 5.000000e-001
    endloop
  endfacet
  facet normal 0.000000e+000 0.000000e+000 1.000000e+000
    outer loop
      vertex   2.467101e-002 2.496985e-002 5.000000e-001
      vertex   2.458682e-002 2.499240e-002 5.000000e-001
      vertex   -2.458682e-002 2.499240e-002 5.000000e-001
    endloop
  endfacet
  facet normal 0.000000e+000 0.000000e+000 -1.000000e+000
    outer loop
      vertex   -2.450000e-002 2.500000e-002 0.000000e+000
      vertex   2.450000e-002 2.500000e-002 0.000000e+000
      vertex   -2.458682e-002 2.499240e-002 0.000000e+000
    endloop
  endfacet
  facet normal 0.000000e+000 0.000000e+000 -1.000000e+000
    outer loop
      vertex   -2.458682e-002 2.499240e-002 0.000000e+000
      vertex   2.450000e-002 2.500000e-002 0.000000e+000
      vertex   2.458682e-002 2.499240e-002 0.000000e+000
    endloop
  endfacet
  facet normal 0.000000e+000 0.000000e+000 -1.000000e+000
    outer loop
      vertex   -2.467101e-002 2.496985e-002 0.000000e+000
      vertex   2.458682e-002 2.499240e-002 0.000000e+000
      vertex   2.467101e-002 2.496985e-002 0.000000e+000
    endloop
  endfacet
  facet normal 0.000000e+000 0.000000e+000 -1.000000e+000
    outer loop
      vertex   -2.475000e-002 2.493301e-002 0.000000e+000
      vertex   2.467101e-002 2.496985e-002 0.000000e+000
      vertex   2.475000e-002 2.493301e-002 0.000000e+000
    endloop
  endfacet
  facet normal 0.000000e+000 0.000000e+000 -1.000000e+000
    outer loop
      vertex   -2.482139e-002 2.488302e-002 0.000000e+000
      vertex   2.475000e-002 2.493301e-002 0.000000e+000
      vertex   2.482139e-002 2.488302e-002 0.000000e+000
    endloop
  endfacet
  facet normal 0.000000e+000 0.000000e+000 -1.000000e+000
    outer loop
      vertex   -2.488302e-002 2.482139e-002 0.000000e+000
      vertex   2.482139e-002 2.488302e-002 0.000000e+000
      vertex   2.488302e-002 2.482139e-002 0.000000e+000
    endloop
  endfacet
  facet normal 0.000000e+000 0.000000e+000 -1.000000e+000
    outer loop
      vertex   -2.493301e-002 2.475000e-002 0.000000e+000
      vertex   2.488302e-002 2.482139e-002 0.000000e+000
      vertex   2.493301e-002 2.475000e-002 0.000000e+000
    endloop
  endfacet
  facet normal 0.000000e+000 0.000000e+000 -1.000000e+000
    outer loop
      vertex   -2.496985e-002 2.467101e-002 0.000000e+000
      vertex   2.493301e-002 2.475000e-002 0.000000e+000
      vertex   2.496985e-002 2.467101e-002 0.000000e+000
    endloop
  endfacet
  facet normal 0.000000e+000 0.000000e+000 -1.000000e+000
    outer loop
      vertex   -2.499240e-002 2.458682e-002 0.000000e+000
      vertex   2.496985e-002 2.467101e-002 0.000000e+000
      vertex   2.499240e-002 2.458682e-002 0.000000e+000
    endloop
  endfacet
  facet normal 0.000000e+000 0.000000e+000 -1.000000e+000
    outer loop
      vertex   -2.500000e-002 2.450000e-002 0.000000e+000
      vertex   2.499240e-002 2.458682e-002 0.000000e+000
      vertex   2.500000e-002 2.450000e-002 0.000000e+000
    endloop
  endfacet
  facet normal 0.000000e+000 0.000000e+000 -1.000000e+000
    outer loop
      vertex   -2.500000e-002 -2.450000e-002 0.000000e+000
      vertex   2.500000e-002 2.450000e-002 0.000000e+000
      vertex   2.500000e-002 -2.450000e-002 0.000000e+000
    endloop
  endfacet
  facet normal 0.000000e+000 0.000000e+000 -1.000000e+000
    outer loop
      vertex   -2.499240e-002 -2.458682e-002 0.000000e+000
      vertex   2.500000e-002 -2.450000e-002 0.000000e+000
      vertex   2.499240e-002 -2.458682e-002 0.000000e+000
    endloop
  endfacet
  facet normal 0.000000e+000 0.000000e+000 -1.000000e+000
    outer loop
      vertex   -2.496985e-002 -2.467101e-002 0.000000e+000
      vertex   2.499240e-002 -2.458682e-002 0.000000e+000
      vertex   2.496985e-002 -2.467101e-002 0.000000e+000
    endloop
  endfacet
  facet normal 0.000000e+000 0.000000e+000 -1.000000e+000
    outer loop
      vertex   -2.493301e-002 -2.475000e-002 0.000000e+000
      vertex   2.496985e-002 -2.467101e-002 0.000000e+000
      vertex   2.493301e-002 -2.475000e-002 0.000000e+000
    endloop
  endfacet
  facet normal 0.000000e+000 0.000000e+000 -1.000000e+000
    outer loop
      vertex   -2.488302e-002 -2.482139e-002 0.000000e+000
      vertex   2.493301e-002 -2.475000e-002 0.000000e+000
      vertex   2.488302e-002 -2.482139e-002 0.000000e+000
    endloop
  endfacet
  facet normal 0.000000e+000 0.000000e+000 -1.000000e+000
    outer loop
      vertex   -2.482139e-002 -2.488302e-002 0.000000e+000
      vertex   2.488302e-002 -2.482139e-002 0.000000e+000
      vertex   2.482139e-002 -2.488302e-002 0.000000e+000
    endloop
  endfacet
  facet normal 0.000000e+000 0.000000e+000 -1.000000e+000
    outer loop
      vertex   -2.475000e-002 -2.493301e-002 0.000000e+000
      vertex   2.482139e-002 -2.488302e-002 0.000000e+000
      vertex   2.475000e-002 -2.493301e-002 0.000000e+000
    endloop
  endfacet
  facet normal 0.000000e+000 0.000000e+000 -1.000000e+000
    outer loop
      vertex   -2.467101e-002 -2.496985e-002 0.000000e+000
      vertex   2.475000e-002 -2.493301e-002 0.000000e+000
      vertex   2.467101e-002 -2.496985e-002 0.000000e+000
    endloop
  endfacet
  facet normal 0.000000e+000 0.000000e+000 -1.000000e+000
    outer loop
      vertex   -2.458682e-002 -2.499240e-002 0.000000e+000
      vertex   2.467101e-002 -2.496985e-002 0.000000e+000
      vertex   2.458682e-002 -2.499240e-002 0.000000e+000
    endloop
  endfacet
  facet normal 0.000000e+000 0.000000e+000 -1.000000e+000
    outer loop
      vertex   -2.450000e-002 -2.500000e-002 0.000000e+000
      vertex   2.458682e-002 -2.499240e-002 0.000000e+000
      vertex   2.450000e-002 -2.500000e-002 0.000000e+000
    endloop
  endfacet
  facet normal 0.000000e+000 0.000000e+000 -1.000000e+000
    outer loop
      vertex   -2.450000e-002 -2.500000e-002 0.000000e+000
      vertex   -2.458682e-002 -2.499240e-002 0.000000e+000
      vertex   2.458682e-002 -2.499240e-002 0.000000e+000
    endloop
  endfacet
  facet normal 0.000000e+000 0.000000e+000 -1.000000e+000
    outer loop
      vertex   -2.500000e-002 2.450000e-002 0.000000e+000
      vertex   -2.499240e-002 2.458682e-002 0.000000e+000
      vertex   2.499240e-002 2.458682e-002 0.000000e+000
    endloop
  endfacet
  facet normal 0.000000e+000 0.000000e+000 -1.000000e+000
    outer loop
      vertex   -2.499240e-002 2.458682e-002 0.000000e+000
      vertex   -2.496985e-002 2.467101e-002 0.000000e+000
      vertex   2.496985e-002 2.467101e-002 0.000000e+000
    endloop
  endfacet
  facet normal 0.000000e+000 0.000000e+000 -1.000000e+000
    outer loop
      vertex   -2.496985e-002 2.467101e-002 0.000000e+000
      vertex   -2.493301e-002 2.475000e-002 0.000000e+000
      vertex   2.493301e-002 2.475000e-002 0.000000e+000
    endloop
  endfacet
  facet normal 0.000000e+000 0.000000e+000 -1.000000e+000
    outer loop
      vertex   -2.493301e-002 2.475000e-002 0.000000e+000
      vertex   -2.488302e-002 2.482139e-002 0.000000e+000
      vertex   2.488302e-002 2.482139e-002 0.000000e+000
    endloop
  endfacet
  facet normal 0.000000e+000 0.000000e+000 -1.000000e+000
    outer loop
      vertex   -2.488302e-002 2.482139e-002 0.000000e+000
      vertex   -2.482139e-002 2.488302e-002 0.000000e+000
      vertex   2.482139e-002 2.488302e-002 0.000000e+000
    endloop
  endfacet
  facet normal 0.000000e+000 0.000000e+000 -1.000000e+000
    outer loop
      vertex   -2.482139e-002 2.488302e-002 0.000000e+000
      vertex   -2.475000e-002 2.493301e-002 0.000000e+000
      vertex   2.475000e-002 2.493301e-002 0.000000e+000
    endloop
  endfacet
  facet normal 0.000000e+000 0.000000e+000 -1.000000e+000
    outer loop
      vertex   -2.475000e-002 2.493301e-002 0.000000e+000
      vertex   -2.467101e-002 2.496985e-002 0.000000e+000
      vertex   2.467101e-002 2.496985e-002 0.000000e+000
    endloop
  endfacet
  facet normal 0.000000e+000 0.000000e+000 -1.000000e+000
    outer loop
      vertex   -2.467101e-002 2.496985e-002 0.000000e+000
      vertex   -2.458682e-002 2.499240e-002 0.000000e+000
      vertex   2.458682e-002 2.499240e-002 0.000000e+000
    endloop
  endfacet
  facet normal 0.000000e+000 0.000000e+000 -1.000000e+000
    outer loop
      vertex   -2.458682e-002 -2.499240e-002 0.000000e+000
      vertex   -2.467101e-002 -2.496985e-002 0.000000e+000
      vertex   2.467101e-002 -2.496985e-002 0.000000e+000
    endloop
  endfacet
  facet normal 0.000000e+000 0.000000e+000 -1.000000e+000
    outer loop
      vertex   -2.467101e-002 -2.496985e-002 0.000000e+000
      vertex   -2.475000e-002 -2.493301e-002 0.000000e+000
      vertex   2.475000e-002 -2.493301e-002 0.000000e+000
    endloop
  endfacet
  facet normal 0.000000e+000 0.000000e+000 -1.000000e+000
    outer loop
      vertex   -2.475000e-002 -2.493301e-002 0.000000e+000
      vertex   -2.482139e-002 -2.488302e-002 0.000000e+000
      vertex   2.482139e-002 -2.488302e-002 0.000000e+000
    endloop
  endfacet
  facet normal 0.000000e+000 0.000000e+000 -1.000000e+000
    outer loop
      vertex   -2.482139e-002 -2.488302e-002 0.000000e+000
      vertex   -2.488302e-002 -2.482139e-002 0.000000e+000
      vertex   2.488302e-002 -2.482139e-002 0.000000e+000
    endloop
  endfacet
  facet normal 0.000000e+000 0.000000e+000 -1.000000e+000
    outer loop
      vertex   -2.488302e-002 -2.482139e-002 0.000000e+000
      vertex   -2.493301e-002 -2.475000e-002 0.000000e+000
      vertex   2.493301e-002 -2.475000e-002 0.000000e+000
    endloop
  endfacet
  facet normal 0.000000e+000 0.000000e+000 -1.000000e+000
    outer loop
      vertex   -2.493301e-002 -2.475000e-002 0.000000e+000
      vertex   -2.496985e-002 -2.467101e-002 0.000000e+000
      vertex   2.496985e-002 -2.467101e-002 0.000000e+000
    endloop
  endfacet
  facet normal 0.000000e+000 0.000000e+000 -1.000000e+000
    outer loop
      vertex   -2.496985e-002 -2.467101e-002 0.000000e+000
      vertex   -2.499240e-002 -2.458682e-002 0.000000e+000
      vertex   2.499240e-002 -2.458682e-002 0.000000e+000
    endloop
  endfacet
  facet normal 0.000000e+000 0.000000e+000 -1.000000e+000
    outer loop
      vertex   -2.499240e-002 -2.458682e-002 0.000000e+000
      vertex   -2.500000e-002 -2.450000e-002 0.000000e+000
      vertex   2.500000e-002 -2.450000e-002 0.000000e+000
    endloop
  endfacet
  facet normal 0.000000e+000 0.000000e+000 -1.000000e+000
    outer loop
      vertex   2.500000e-002 2.450000e-002 0.000000e+000
      vertex   -2.500000e-002 -2.450000e-002 0.000000e+000
      vertex   -2.500000e-002 2.450000e-002 0.000000e+000
    endloop
  endfacet
endsolid
