solid ascii
  facet normal -7.071068e-001 7.071068e-001 0.000000e+000
    outer loop
      vertex   -4.846299e-002 1.170000e-001 0.000000e+000
      vertex   -1.170000e-001 4.846299e-002 0.000000e+000
      vertex   -4.846299e-002 1.170000e-001 1.985000e-001
    endloop
  endfacet
  facet normal -7.071068e-001 7.071068e-001 0.000000e+000
    outer loop
      vertex   -4.846299e-002 1.170000e-001 1.985000e-001
      vertex   -1.170000e-001 4.846299e-002 0.000000e+000
      vertex   -1.170000e-001 4.846299e-002 1.985000e-001
    endloop
  endfacet
  facet normal -4.295377e-016 1.000000e+000 0.000000e+000
    outer loop
      vertex   4.846299e-002 1.170000e-001 0.000000e+000
      vertex   -4.846299e-002 1.170000e-001 0.000000e+000
      vertex   4.846299e-002 1.170000e-001 1.985000e-001
    endloop
  endfacet
  facet normal -4.295377e-016 1.000000e+000 0.000000e+000
    outer loop
      vertex   4.846299e-002 1.170000e-001 1.985000e-001
      vertex   -4.846299e-002 1.170000e-001 0.000000e+000
      vertex   -4.846299e-002 1.170000e-001 1.985000e-001
    endloop
  endfacet
  facet normal 0.000000e+000 0.000000e+000 -1.000000e+000
    outer loop
      vertex   -4.846299e-002 -1.170000e-001 0.000000e+000
      vertex   -4.846299e-002 1.170000e-001 0.000000e+000
      vertex   4.846299e-002 -1.170000e-001 0.000000e+000
    endloop
  endfacet
  facet normal 0.000000e+000 0.000000e+000 -1.000000e+000
    outer loop
      vertex   -4.846299e-002 -1.170000e-001 0.000000e+000
      vertex   -1.170000e-001 4.846299e-002 0.000000e+000
      vertex   -4.846299e-002 1.170000e-001 0.000000e+000
    endloop
  endfacet
  facet normal 0.000000e+000 0.000000e+000 -1.000000e+000
    outer loop
      vertex   -4.846299e-002 -1.170000e-001 0.000000e+000
      vertex   -1.170000e-001 -4.846299e-002 0.000000e+000
      vertex   -1.170000e-001 4.846299e-002 0.000000e+000
    endloop
  endfacet
  facet normal 0.000000e+000 0.000000e+000 -1.000000e+000
    outer loop
      vertex   -4.846299e-002 1.170000e-001 0.000000e+000
      vertex   4.846299e-002 1.170000e-001 0.000000e+000
      vertex   4.846299e-002 -1.170000e-001 0.000000e+000
    endloop
  endfacet
  facet normal 0.000000e+000 0.000000e+000 -1.000000e+000
    outer loop
      vertex   4.846299e-002 -1.170000e-001 0.000000e+000
      vertex   4.846299e-002 1.170000e-001 0.000000e+000
      vertex   1.170000e-001 4.846299e-002 0.000000e+000
    endloop
  endfacet
  facet normal 0.000000e+000 0.000000e+000 -1.000000e+000
    outer loop
      vertex   1.170000e-001 -4.846299e-002 0.000000e+000
      vertex   4.846299e-002 -1.170000e-001 0.000000e+000
      vertex   1.170000e-001 4.846299e-002 0.000000e+000
    endloop
  endfacet
  facet normal -1.000000e+000 -1.431792e-016 0.000000e+000
    outer loop
      vertex   -1.170000e-001 4.846299e-002 0.000000e+000
      vertex   -1.170000e-001 -4.846299e-002 0.000000e+000
      vertex   -1.170000e-001 4.846299e-002 1.985000e-001
    endloop
  endfacet
  facet normal -1.000000e+000 -1.431792e-016 0.000000e+000
    outer loop
      vertex   -1.170000e-001 4.846299e-002 1.985000e-001
      vertex   -1.170000e-001 -4.846299e-002 0.000000e+000
      vertex   -1.170000e-001 -4.846299e-002 1.985000e-001
    endloop
  endfacet
  facet normal 0.000000e+000 0.000000e+000 1.000000e+000
    outer loop
      vertex   4.846299e-002 -1.170000e-001 1.985000e-001
      vertex   -4.846299e-002 1.170000e-001 1.985000e-001
      vertex   -4.846299e-002 -1.170000e-001 1.985000e-001
    endloop
  endfacet
  facet normal 0.000000e+000 0.000000e+000 1.000000e+000
    outer loop
      vertex   4.846299e-002 -1.170000e-001 1.985000e-001
      vertex   4.846299e-002 1.170000e-001 1.985000e-001
      vertex   -4.846299e-002 1.170000e-001 1.985000e-001
    endloop
  endfacet
  facet normal 0.000000e+000 0.000000e+000 1.000000e+000
    outer loop
      vertex   4.846299e-002 -1.170000e-001 1.985000e-001
      vertex   1.170000e-001 4.846299e-002 1.985000e-001
      vertex   4.846299e-002 1.170000e-001 1.985000e-001
    endloop
  endfacet
  facet normal 0.000000e+000 0.000000e+000 1.000000e+000
    outer loop
      vertex   4.846299e-002 -1.170000e-001 1.985000e-001
      vertex   1.170000e-001 -4.846299e-002 1.985000e-001
      vertex   1.170000e-001 4.846299e-002 1.985000e-001
    endloop
  endfacet
  facet normal 0.000000e+000 0.000000e+000 1.000000e+000
    outer loop
      vertex   -4.846299e-002 1.170000e-001 1.985000e-001
      vertex   -1.170000e-001 4.846299e-002 1.985000e-001
      vertex   -4.846299e-002 -1.170000e-001 1.985000e-001
    endloop
  endfacet
  facet normal 0.000000e+000 0.000000e+000 1.000000e+000
    outer loop
      vertex   -4.846299e-002 -1.170000e-001 1.985000e-001
      vertex   -1.170000e-001 4.846299e-002 1.985000e-001
      vertex   -1.170000e-001 -4.846299e-002 1.985000e-001
    endloop
  endfacet
  facet normal 7.071068e-001 7.071068e-001 0.000000e+000
    outer loop
      vertex   1.170000e-001 4.846299e-002 0.000000e+000
      vertex   4.846299e-002 1.170000e-001 0.000000e+000
      vertex   1.170000e-001 4.846299e-002 1.985000e-001
    endloop
  endfacet
  facet normal 7.071068e-001 7.071068e-001 0.000000e+000
    outer loop
      vertex   1.170000e-001 4.846299e-002 1.985000e-001
      vertex   4.846299e-002 1.170000e-001 0.000000e+000
      vertex   4.846299e-002 1.170000e-001 1.985000e-001
    endloop
  endfacet
  facet normal 1.000000e+000 1.431792e-016 0.000000e+000
    outer loop
      vertex   1.170000e-001 -4.846299e-002 0.000000e+000
      vertex   1.170000e-001 4.846299e-002 0.000000e+000
      vertex   1.170000e-001 -4.846299e-002 1.985000e-001
    endloop
  endfacet
  facet normal 1.000000e+000 1.431792e-016 0.000000e+000
    outer loop
      vertex   1.170000e-001 -4.846299e-002 1.985000e-001
      vertex   1.170000e-001 4.846299e-002 0.000000e+000
      vertex   1.170000e-001 4.846299e-002 1.985000e-001
    endloop
  endfacet
  facet normal -7.071068e-001 -7.071068e-001 0.000000e+000
    outer loop
      vertex   -1.170000e-001 -4.846299e-002 0.000000e+000
      vertex   -4.846299e-002 -1.170000e-001 0.000000e+000
      vertex   -1.170000e-001 -4.846299e-002 1.985000e-001
    endloop
  endfacet
  facet normal -7.071068e-001 -7.071068e-001 0.000000e+000
    outer loop
      vertex   -1.170000e-001 -4.846299e-002 1.985000e-001
      vertex   -4.846299e-002 -1.170000e-001 0.000000e+000
      vertex   -4.846299e-002 -1.170000e-001 1.985000e-001
    endloop
  endfacet
  facet normal 7.071068e-001 -7.071068e-001 0.000000e+000
    outer loop
      vertex   4.846299e-002 -1.170000e-001 0.000000e+000
      vertex   1.170000e-001 -4.846299e-002 0.000000e+000
      vertex   4.846299e-002 -1.170000e-001 1.985000e-001
    endloop
  endfacet
  facet normal 7.071068e-001 -7.071068e-001 0.000000e+000
    outer loop
      vertex   4.846299e-002 -1.170000e-001 1.985000e-001
      vertex   1.170000e-001 -4.846299e-002 0.000000e+000
      vertex   1.170000e-001 -4.846299e-002 1.985000e-001
    endloop
  endfacet
  facet normal 4.295377e-016 -1.000000e+000 0.000000e+000
    outer loop
      vertex   -4.846299e-002 -1.170000e-001 0.000000e+000
      vertex   4.846299e-002 -1.170000e-001 0.000000e+000
      vertex   -4.846299e-002 -1.170000e-001 1.985000e-001
    endloop
  endfacet
  facet normal 4.295377e-016 -1.000000e+000 0.000000e+000
    outer loop
      vertex   -4.846299e-002 -1.170000e-001 1.985000e-001
      vertex   4.846299e-002 -1.170000e-001 0.000000e+000
      vertex   4.846299e-002 -1.170000e-001 1.985000e-001
    endloop
  endfacet
endsolid
