solid stl file generated from AC3D
 facet normal 0.000000 -1.000000 0.000000
  outer loop
   vertex -0.482500 -0.380000 0.000000
   vertex 0.482500 -0.380000 0.840000
   vertex -0.482500 -0.380000 0.840000
  endloop
 endfacet
 facet normal 0.000000 -1.000000 0.000000
  outer loop
   vertex 0.482500 -0.380000 0.840000
   vertex -0.482500 -0.380000 0.000000
   vertex 0.482500 -0.380000 0.000000
  endloop
 endfacet
 facet normal 0.000000 1.000000 0.000000
  outer loop
   vertex 0.482500 0.380000 0.000000
   vertex -0.482500 0.380000 0.840000
   vertex 0.482500 0.380000 0.840000
  endloop
 endfacet
 facet normal 0.000000 1.000000 0.000000
  outer loop
   vertex -0.482500 0.380000 0.840000
   vertex 0.482500 0.380000 0.000000
   vertex -0.482500 0.380000 0.000000
  endloop
 endfacet
 facet normal 0.000000 0.000000 1.000000
  outer loop
   vertex -0.482500 0.380000 0.840000
   vertex 0.482500 -0.380000 0.840000
   vertex 0.482500 0.380000 0.840000
  endloop
 endfacet
 facet normal 0.000000 0.000000 1.000000
  outer loop
   vertex 0.482500 -0.380000 0.840000
   vertex -0.482500 0.380000 0.840000
   vertex -0.482500 -0.380000 0.840000
  endloop
 endfacet
 facet normal 0.000000 0.000000 -1.000000
  outer loop
   vertex -0.482500 -0.380000 0.000000
   vertex 0.482500 0.380000 0.000000
   vertex 0.482500 -0.380000 0.000000
  endloop
 endfacet
 facet normal 0.000000 0.000000 -1.000000
  outer loop
   vertex 0.482500 0.380000 0.000000
   vertex -0.482500 -0.380000 0.000000
   vertex -0.482500 0.380000 0.000000
  endloop
 endfacet
 facet normal -1.000000 0.000000 0.000000
  outer loop
   vertex -0.482500 -0.380000 0.000000
   vertex -0.482500 0.380000 0.840000
   vertex -0.482500 0.380000 0.000000
  endloop
 endfacet
 facet normal -1.000000 0.000000 0.000000
  outer loop
   vertex -0.482500 0.380000 0.840000
   vertex -0.482500 -0.380000 0.000000
   vertex -0.482500 -0.380000 0.840000
  endloop
 endfacet
 facet normal 1.000000 0.000000 0.000000
  outer loop
   vertex 0.482500 -0.380000 0.840000
   vertex 0.482500 0.380000 0.000000
   vertex 0.482500 0.380000 0.840000
  endloop
 endfacet
 facet normal 1.000000 0.000000 0.000000
  outer loop
   vertex 0.482500 0.380000 0.000000
   vertex 0.482500 -0.380000 0.840000
   vertex 0.482500 -0.380000 0.000000
  endloop
 endfacet
 facet normal 0.000000 -1.000000 0.000000
  outer loop
   vertex -0.502500 -0.400000 0.840000
   vertex 0.502500 -0.400000 0.850000
   vertex -0.502500 -0.400000 0.850000
  endloop
 endfacet
 facet normal 0.000000 -1.000000 0.000000
  outer loop
   vertex 0.502500 -0.400000 0.850000
   vertex -0.502500 -0.400000 0.840000
   vertex 0.502500 -0.400000 0.840000
  endloop
 endfacet
 facet normal 0.000000 1.000000 0.000000
  outer loop
   vertex 0.502500 0.400000 0.840000
   vertex -0.502500 0.400000 0.850000
   vertex 0.502500 0.400000 0.850000
  endloop
 endfacet
 facet normal 0.000000 1.000000 0.000000
  outer loop
   vertex -0.502500 0.400000 0.850000
   vertex 0.502500 0.400000 0.840000
   vertex -0.502500 0.400000 0.840000
  endloop
 endfacet
 facet normal 0.000000 0.000000 1.000000
  outer loop
   vertex -0.502500 0.400000 0.850000
   vertex 0.502500 -0.400000 0.850000
   vertex 0.502500 0.400000 0.850000
  endloop
 endfacet
 facet normal 0.000000 0.000000 1.000000
  outer loop
   vertex 0.502500 -0.400000 0.850000
   vertex -0.502500 0.400000 0.850000
   vertex -0.502500 -0.400000 0.850000
  endloop
 endfacet
 facet normal 0.000000 0.000000 -1.000000
  outer loop
   vertex -0.502500 -0.400000 0.840000
   vertex 0.502500 0.400000 0.840000
   vertex 0.502500 -0.400000 0.840000
  endloop
 endfacet
 facet normal 0.000000 0.000000 -1.000000
  outer loop
   vertex 0.502500 0.400000 0.840000
   vertex -0.502500 -0.400000 0.840000
   vertex -0.502500 0.400000 0.840000
  endloop
 endfacet
 facet normal -1.000000 0.000000 0.000000
  outer loop
   vertex -0.502500 -0.400000 0.840000
   vertex -0.502500 0.400000 0.850000
   vertex -0.502500 0.400000 0.840000
  endloop
 endfacet
 facet normal -1.000000 0.000000 0.000000
  outer loop
   vertex -0.502500 0.400000 0.850000
   vertex -0.502500 -0.400000 0.840000
   vertex -0.502500 -0.400000 0.850000
  endloop
 endfacet
 facet normal 1.000000 0.000000 0.000000
  outer loop
   vertex 0.502500 -0.400000 0.850000
   vertex 0.502500 0.400000 0.840000
   vertex 0.502500 0.400000 0.850000
  endloop
 endfacet
 facet normal 1.000000 0.000000 0.000000
  outer loop
   vertex 0.502500 0.400000 0.840000
   vertex 0.502500 -0.400000 0.850000
   vertex 0.502500 -0.400000 0.840000
  endloop
 endfacet
endsolid
