solid stl file generated from AC3D
 facet normal 0.000000 -1.000000 0.000000
  outer loop
   vertex 0.015000 -0.004500 0.000000
   vertex 0.015000 -0.004500 0.010500
   vertex -0.015000 -0.004500 0.010500
  endloop
 endfacet
 facet normal 0.000000 -1.000000 0.000000
  outer loop
   vertex -0.015000 -0.004500 0.010500
   vertex -0.015000 -0.004500 0.000000
   vertex 0.015000 -0.004500 0.000000
  endloop
 endfacet
 facet normal 1.000000 0.000000 0.000000
  outer loop
   vertex 0.015000 0.004500 0.000000
   vertex 0.015000 0.004500 0.010500
   vertex 0.015000 -0.004500 0.010500
  endloop
 endfacet
 facet normal 1.000000 0.000000 0.000000
  outer loop
   vertex 0.015000 -0.004500 0.010500
   vertex 0.015000 -0.004500 0.000000
   vertex 0.015000 0.004500 0.000000
  endloop
 endfacet
 facet normal 0.000000 0.000000 -1.000000
  outer loop
   vertex -0.015000 -0.004500 0.000000
   vertex -0.015000 0.004500 0.000000
   vertex 0.015000 0.004500 0.000000
  endloop
 endfacet
 facet normal 0.000000 0.000000 -1.000000
  outer loop
   vertex -0.015000 -0.004500 0.000000
   vertex 0.015000 0.004500 0.000000
   vertex 0.015000 -0.004500 0.000000
  endloop
 endfacet
 facet normal 0.000000 0.000000 1.000000
  outer loop
   vertex 0.015000 0.004500 0.010500
   vertex -0.015000 0.004500 0.010500
   vertex -0.015000 -0.004500 0.010500
  endloop
 endfacet
 facet normal 0.000000 0.000000 1.000000
  outer loop
   vertex -0.015000 -0.004500 0.010500
   vertex 0.015000 -0.004500 0.010500
   vertex 0.015000 0.004500 0.010500
  endloop
 endfacet
 facet normal 0.000000 1.000000 0.000000
  outer loop
   vertex 0.015000 0.004500 0.010500
   vertex 0.015000 0.004500 0.000000
   vertex -0.015000 0.004500 0.000000
  endloop
 endfacet
 facet normal 0.000000 1.000000 0.000000
  outer loop
   vertex -0.015000 0.004500 0.000000
   vertex -0.015000 0.004500 0.010500
   vertex 0.015000 0.004500 0.010500
  endloop
 endfacet
 facet normal -1.000000 0.000000 0.000000
  outer loop
   vertex -0.015000 -0.004500 0.010500
   vertex -0.015000 0.004500 0.010500
   vertex -0.015000 0.004500 0.000000
  endloop
 endfacet
 facet normal -1.000000 0.000000 0.000000
  outer loop
   vertex -0.015000 0.004500 0.000000
   vertex -0.015000 -0.004500 0.000000
   vertex -0.015000 -0.004500 0.010500
  endloop
 endfacet
endsolid
