solid ascii
 facet normal 0.232091 0.971071 0.056164
  outer loop
   vertex -0.009080 -0.029666 -0.011940
   vertex -0.004260 -0.030818 -0.011940
   vertex 0.000593 -0.019307 -0.231020
  endloop
 endfacet
 facet normal 0.974895 -0.221443 0.023283
  outer loop
   vertex -0.029350 0.010022 -0.011940
   vertex -0.030440 0.005223 -0.011940
   vertex -0.026627 0.001123 -0.210590
  endloop
 endfacet
 facet normal 0.000214 -0.707176 0.707038
  outer loop
   vertex -0.014537 -0.011813 -0.223520
   vertex -0.018877 -0.013594 -0.225300
   vertex 0.000593 -0.019307 -0.231020
  endloop
 endfacet
 facet normal -0.000194 0.706189 -0.708023
  outer loop
   vertex 0.016463 0.014011 -0.197700
   vertex 0.020803 0.013180 -0.198530
   vertex 0.020123 0.011406 -0.200300
  endloop
 endfacet
 facet normal -0.363674 0.930153 0.050569
  outer loop
   vertex 0.020803 -0.011813 -0.223520
   vertex 0.000593 -0.019307 -0.231020
   vertex 0.000620 -0.031207 -0.011940
  endloop
 endfacet
 facet normal 0.762713 -0.645427 0.041146
  outer loop
   vertex -0.021660 0.022565 -0.011940
   vertex -0.024830 0.018819 -0.011940
   vertex -0.018877 0.014011 -0.197700
  endloop
 endfacet
 facet normal -0.000351 -0.707807 0.706406
  outer loop
   vertex -0.001667 -0.016550 -0.228260
   vertex 0.000593 -0.015633 -0.227340
   vertex -0.014537 -0.011813 -0.223520
  endloop
 endfacet
 facet normal 0.000000 -0.708267 0.705944
  outer loop
   vertex 0.001943 0.016294 -0.195410
   vertex -0.000687 0.016294 -0.195410
   vertex 0.016463 0.014011 -0.197700
  endloop
 endfacet
 facet normal -0.078071 0.993435 0.083614
  outer loop
   vertex 0.000620 -0.031207 -0.011940
   vertex 0.005570 -0.030818 -0.011940
   vertex 0.020803 -0.011813 -0.223520
  endloop
 endfacet
 facet normal 0.000114 -0.705919 0.708292
  outer loop
   vertex -0.016377 -0.010519 -0.222230
   vertex -0.014537 -0.011813 -0.223520
   vertex 0.016463 -0.013594 -0.225300
  endloop
 endfacet
 facet normal -0.000029 -0.707171 0.707043
  outer loop
   vertex 0.000593 -0.015633 -0.227340
   vertex 0.016463 -0.013594 -0.225300
   vertex -0.014537 -0.011813 -0.223520
  endloop
 endfacet
 facet normal -0.000039 -0.707134 0.707079
  outer loop
   vertex 0.016463 -0.013594 -0.225300
   vertex 0.000593 -0.015633 -0.227340
   vertex 0.003223 -0.017473 -0.229180
  endloop
 endfacet
 facet normal 0.296257 0.953458 0.056123
  outer loop
   vertex 0.000593 -0.019307 -0.231020
   vertex -0.018877 -0.013594 -0.225300
   vertex -0.013660 -0.027774 -0.011940
  endloop
 endfacet
 facet normal 0.381103 -0.922546 0.060572
  outer loop
   vertex -0.009080 0.030255 -0.011940
   vertex -0.013660 0.028363 -0.011940
   vertex -0.018877 0.014011 -0.197700
  endloop
 endfacet
 facet normal 0.001373 -0.709238 0.704967
  outer loop
   vertex 0.003223 -0.017473 -0.229180
   vertex 0.000593 -0.019307 -0.231020
   vertex 0.020803 -0.011813 -0.223520
  endloop
 endfacet
 facet normal -0.000084 -0.706917 0.707297
  outer loop
   vertex -0.014537 0.013180 -0.198530
   vertex -0.001667 0.018802 -0.192910
   vertex -0.018877 0.014011 -0.197700
  endloop
 endfacet
 facet normal -0.922312 -0.381447 0.061950
  outer loop
   vertex 0.030590 0.010022 -0.011940
   vertex 0.028700 0.014592 -0.011940
   vertex 0.016463 0.014011 -0.197700
  endloop
 endfacet
 facet normal -0.231880 0.970190 0.070452
  outer loop
   vertex 0.005570 -0.030818 -0.011940
   vertex 0.010390 -0.029666 -0.011940
   vertex 0.020803 -0.011813 -0.223520
  endloop
 endfacet
 facet normal -0.381137 0.922628 0.059093
  outer loop
   vertex 0.010390 -0.029666 -0.011940
   vertex 0.014970 -0.027774 -0.011940
   vertex 0.020803 -0.011813 -0.223520
  endloop
 endfacet
 facet normal 0.235408 -0.969201 0.072335
  outer loop
   vertex -0.018877 0.014011 -0.197700
   vertex 0.001943 0.019476 -0.192230
   vertex -0.009080 0.030255 -0.011940
  endloop
 endfacet
 facet normal -0.000777 -0.706122 0.708090
  outer loop
   vertex -0.014537 0.013180 -0.198530
   vertex -0.000687 0.016294 -0.195410
   vertex -0.001667 0.018802 -0.192910
  endloop
 endfacet
 facet normal 0.002315 0.707952 -0.706257
  outer loop
   vertex 0.020123 0.011406 -0.200300
   vertex 0.028183 0.000206 -0.211500
   vertex 0.016463 0.014011 -0.197700
  endloop
 endfacet
 facet normal 0.995998 -0.086893 0.020911
  outer loop
   vertex -0.030440 0.005223 -0.011940
   vertex -0.030870 0.000294 -0.011940
   vertex -0.026627 0.001123 -0.210590
  endloop
 endfacet
 facet normal 0.918529 0.393929 0.033524
  outer loop
   vertex -0.029350 -0.009433 -0.011940
   vertex -0.027390 -0.014003 -0.011940
   vertex -0.026627 0.001123 -0.210590
  endloop
 endfacet
 facet normal -0.755145 -0.653141 0.056242
  outer loop
   vertex 0.026140 0.018819 -0.011940
   vertex 0.022900 0.022565 -0.011940
   vertex 0.016463 0.014011 -0.197700
  endloop
 endfacet
 facet normal 0.000587 0.706199 -0.708013
  outer loop
   vertex 0.020803 -0.011813 -0.223520
   vertex 0.016463 -0.013594 -0.225300
   vertex 0.003223 -0.017473 -0.229180
  endloop
 endfacet
 facet normal -0.971742 -0.234896 0.023275
  outer loop
   vertex 0.031750 0.005223 -0.011940
   vertex 0.030590 0.010022 -0.011940
   vertex 0.028183 0.000206 -0.211500
  endloop
 endfacet
 facet normal 0.000291 -0.706585 0.707628
  outer loop
   vertex -0.022107 -0.000711 -0.212420
   vertex 0.016463 -0.013594 -0.225300
   vertex 0.017623 -0.010519 -0.222230
  endloop
 endfacet
 facet normal -0.000127 -0.707211 0.707002
  outer loop
   vertex -0.016377 -0.010519 -0.222230
   vertex 0.016463 -0.013594 -0.225300
   vertex -0.022107 -0.000711 -0.212420
  endloop
 endfacet
 facet normal 0.000692 -0.706972 0.707241
  outer loop
   vertex -0.022107 -0.000711 -0.212420
   vertex -0.024367 -0.001634 -0.213340
   vertex -0.016377 -0.010519 -0.222230
  endloop
 endfacet
 facet normal 0.231852 -0.970070 0.072170
  outer loop
   vertex -0.004260 0.031407 -0.011940
   vertex -0.009080 0.030255 -0.011940
   vertex 0.001943 0.019476 -0.192230
  endloop
 endfacet
 facet normal -0.000217 -0.710254 0.703946
  outer loop
   vertex -0.024367 0.002046 -0.209660
   vertex -0.022107 0.001123 -0.210590
   vertex 0.028183 0.000206 -0.211500
  endloop
 endfacet
 facet normal -0.853926 -0.517167 0.057869
  outer loop
   vertex 0.028700 0.014592 -0.011940
   vertex 0.026140 0.018819 -0.011940
   vertex 0.016463 0.014011 -0.197700
  endloop
 endfacet
 facet normal 0.854729 -0.517653 0.038380
  outer loop
   vertex -0.024830 0.018819 -0.011940
   vertex -0.027390 0.014592 -0.011940
   vertex -0.026627 0.001123 -0.210590
  endloop
 endfacet
 facet normal -0.000131 -0.707901 0.706312
  outer loop
   vertex 0.023363 -0.000711 -0.212420
   vertex 0.028183 0.000206 -0.211500
   vertex -0.022107 0.001123 -0.210590
  endloop
 endfacet
 facet normal -0.002776 -0.706323 0.707884
  outer loop
   vertex -0.018877 0.011406 -0.200300
   vertex -0.018877 0.014011 -0.197700
   vertex -0.026627 0.001123 -0.210590
  endloop
 endfacet
 facet normal -0.000692 -0.706972 0.707242
  outer loop
   vertex 0.017623 -0.010519 -0.222230
   vertex 0.025623 -0.001634 -0.213340
   vertex 0.023363 -0.000711 -0.212420
  endloop
 endfacet
 facet normal -0.522406 -0.850476 0.061508
  outer loop
   vertex 0.019180 0.025777 -0.011940
   vertex 0.014970 0.028363 -0.011940
   vertex 0.016463 0.014011 -0.197700
  endloop
 endfacet
 facet normal -0.000762 -0.706940 0.707273
  outer loop
   vertex 0.017623 -0.010519 -0.222230
   vertex 0.020803 -0.011813 -0.223520
   vertex 0.025623 -0.001634 -0.213340
  endloop
 endfacet
 facet normal -0.652460 -0.755646 0.057404
  outer loop
   vertex 0.022900 0.022565 -0.011940
   vertex 0.019180 0.025777 -0.011940
   vertex 0.016463 0.014011 -0.197700
  endloop
 endfacet
 facet normal 0.646059 0.762322 0.038375
  outer loop
   vertex -0.021660 -0.021976 -0.011940
   vertex -0.017870 -0.025188 -0.011940
   vertex -0.018877 -0.013594 -0.225300
  endloop
 endfacet
 facet normal 0.522714 -0.850977 0.051065
  outer loop
   vertex -0.013660 0.028363 -0.011940
   vertex -0.017870 0.025777 -0.011940
   vertex -0.018877 0.014011 -0.197700
  endloop
 endfacet
 facet normal -0.867873 0.495367 0.037520
  outer loop
   vertex 0.028183 0.000206 -0.211500
   vertex 0.020803 -0.011813 -0.223520
   vertex 0.028700 -0.014003 -0.011940
  endloop
 endfacet
 facet normal -0.854330 0.518394 0.037253
  outer loop
   vertex 0.026140 -0.018222 -0.011940
   vertex 0.028700 -0.014003 -0.011940
   vertex 0.020803 -0.011813 -0.223520
  endloop
 endfacet
 facet normal -0.756461 0.652883 0.038858
  outer loop
   vertex 0.022900 -0.021976 -0.011940
   vertex 0.026140 -0.018222 -0.011940
   vertex 0.020803 -0.011813 -0.223520
  endloop
 endfacet
 facet normal 0.381105 0.922553 0.060449
  outer loop
   vertex -0.013660 -0.027774 -0.011940
   vertex -0.009080 -0.029666 -0.011940
   vertex 0.000593 -0.019307 -0.231020
  endloop
 endfacet
 facet normal 0.000593 -0.706771 0.707442
  outer loop
   vertex -0.016377 -0.010519 -0.222230
   vertex -0.026627 0.001123 -0.210590
   vertex -0.018877 -0.013594 -0.225300
  endloop
 endfacet
 facet normal 0.003273 0.701159 -0.712998
  outer loop
   vertex 0.001943 0.019476 -0.192230
   vertex -0.018877 0.014011 -0.197700
   vertex -0.001667 0.018802 -0.192910
  endloop
 endfacet
 facet normal 0.918619 -0.393986 0.030241
  outer loop
   vertex -0.027390 0.014592 -0.011940
   vertex -0.029350 0.010022 -0.011940
   vertex -0.026627 0.001123 -0.210590
  endloop
 endfacet
 facet normal 0.854397 0.518435 0.035084
  outer loop
   vertex -0.027390 -0.014003 -0.011940
   vertex -0.024830 -0.018222 -0.011940
   vertex -0.018877 -0.013594 -0.225300
  endloop
 endfacet
 facet normal -0.652938 0.756202 0.042795
  outer loop
   vertex 0.019180 -0.025188 -0.011940
   vertex 0.022900 -0.021976 -0.011940
   vertex 0.020803 -0.011813 -0.223520
  endloop
 endfacet
 facet normal -0.522748 0.851032 0.049788
  outer loop
   vertex 0.014970 -0.027774 -0.011940
   vertex 0.019180 -0.025188 -0.011940
   vertex 0.020803 -0.011813 -0.223520
  endloop
 endfacet
 facet normal 0.000459 -0.706809 0.707404
  outer loop
   vertex 0.001943 0.016294 -0.195410
   vertex 0.016463 0.014011 -0.197700
   vertex 0.001943 0.019476 -0.192230
  endloop
 endfacet
 facet normal -0.328144 -0.942020 0.070142
  outer loop
   vertex 0.001943 0.019476 -0.192230
   vertex 0.016463 0.014011 -0.197700
   vertex 0.014970 0.028363 -0.011940
  endloop
 endfacet
 facet normal -0.000176 -0.707569 0.706644
  outer loop
   vertex -0.014537 -0.011813 -0.223520
   vertex 0.000593 -0.019307 -0.231020
   vertex -0.001667 -0.016550 -0.228260
  endloop
 endfacet
 facet normal 0.000444 -0.706274 0.707939
  outer loop
   vertex 0.017623 -0.010519 -0.222230
   vertex -0.022107 0.001123 -0.210590
   vertex -0.022107 -0.000711 -0.212420
  endloop
 endfacet
 facet normal -0.000071 -0.707153 0.707060
  outer loop
   vertex 0.023363 -0.000711 -0.212420
   vertex -0.022107 0.001123 -0.210590
   vertex 0.017623 -0.010519 -0.222230
  endloop
 endfacet
 facet normal 0.645888 -0.762119 0.044769
  outer loop
   vertex -0.017870 0.025777 -0.011940
   vertex -0.021660 0.022565 -0.011940
   vertex -0.018877 0.014011 -0.197700
  endloop
 endfacet
 facet normal -0.923689 0.381999 0.029592
  outer loop
   vertex 0.028700 -0.014003 -0.011940
   vertex 0.030590 -0.009433 -0.011940
   vertex 0.028183 0.000206 -0.211500
  endloop
 endfacet
 facet normal 0.522895 0.851271 0.043790
  outer loop
   vertex -0.017870 -0.025188 -0.011940
   vertex -0.013660 -0.027774 -0.011940
   vertex -0.018877 -0.013594 -0.225300
  endloop
 endfacet
 facet normal 0.763564 0.644768 0.035290
  outer loop
   vertex -0.024830 -0.018222 -0.011940
   vertex -0.021660 -0.021976 -0.011940
   vertex -0.018877 -0.013594 -0.225300
  endloop
 endfacet
 facet normal -0.000135 -0.707088 0.707125
  outer loop
   vertex 0.020803 -0.011813 -0.223520
   vertex 0.028183 0.000206 -0.211500
   vertex 0.025623 -0.001634 -0.213340
  endloop
 endfacet
 facet normal -0.380786 -0.921781 0.072948
  outer loop
   vertex 0.014970 0.028363 -0.011940
   vertex 0.010390 0.030255 -0.011940
   vertex 0.001943 0.019476 -0.192230
  endloop
 endfacet
 facet normal 0.000576 -0.706107 0.708104
  outer loop
   vertex 0.015793 0.012226 -0.199480
   vertex 0.016463 0.014011 -0.197700
   vertex -0.000687 0.016294 -0.195410
  endloop
 endfacet
 facet normal -0.740598 -0.670639 0.041920
  outer loop
   vertex 0.016463 0.014011 -0.197700
   vertex 0.028183 0.000206 -0.211500
   vertex 0.030590 0.010022 -0.011940
  endloop
 endfacet
 facet normal 0.000011 -0.707251 0.706962
  outer loop
   vertex -0.015217 0.011406 -0.200300
   vertex 0.015793 0.012226 -0.199480
   vertex -0.000687 0.016294 -0.195410
  endloop
 endfacet
 facet normal 0.995983 0.086895 0.021636
  outer loop
   vertex -0.030870 0.000294 -0.011940
   vertex -0.030440 -0.004634 -0.011940
   vertex -0.026627 0.001123 -0.210590
  endloop
 endfacet
 facet normal 0.974852 0.221434 0.025130
  outer loop
   vertex -0.030440 -0.004634 -0.011940
   vertex -0.029350 -0.009433 -0.011940
   vertex -0.026627 0.001123 -0.210590
  endloop
 endfacet
 facet normal -0.997002 0.074842 0.019636
  outer loop
   vertex 0.031750 -0.004634 -0.011940
   vertex 0.032120 0.000294 -0.011940
   vertex 0.028183 0.000206 -0.211500
  endloop
 endfacet
 facet normal -0.971746 0.234898 0.023067
  outer loop
   vertex 0.030590 -0.009433 -0.011940
   vertex 0.031750 -0.004634 -0.011940
   vertex 0.028183 0.000206 -0.211500
  endloop
 endfacet
 facet normal -0.003112 -0.706196 0.708009
  outer loop
   vertex -0.026627 0.001123 -0.210590
   vertex -0.024367 0.002046 -0.209660
   vertex -0.018877 0.011406 -0.200300
  endloop
 endfacet
 facet normal 0.079345 0.995380 0.054057
  outer loop
   vertex -0.004260 -0.030818 -0.011940
   vertex 0.000620 -0.031207 -0.011940
   vertex 0.000593 -0.019307 -0.231020
  endloop
 endfacet
 facet normal -0.027088 0.694746 -0.718745
  outer loop
   vertex -0.024367 -0.001634 -0.213340
   vertex -0.026627 0.001123 -0.210590
   vertex -0.016377 -0.010519 -0.222230
  endloop
 endfacet
 facet normal -0.231906 -0.970297 0.068873
  outer loop
   vertex 0.010390 0.030255 -0.011940
   vertex 0.005570 0.031407 -0.011940
   vertex 0.001943 0.019476 -0.192230
  endloop
 endfacet
 facet normal -0.997001 -0.074838 0.019702
  outer loop
   vertex 0.032120 0.000294 -0.011940
   vertex 0.031750 0.005223 -0.011940
   vertex 0.028183 0.000206 -0.211500
  endloop
 endfacet
 facet normal 0.000000 -0.707036 0.707177
  outer loop
   vertex 0.020123 0.011406 -0.200300
   vertex 0.015793 0.012226 -0.199480
   vertex -0.015217 0.011406 -0.200300
  endloop
 endfacet
 facet normal -0.000836 -0.705991 0.708220
  outer loop
   vertex -0.000687 0.016294 -0.195410
   vertex -0.014537 0.013180 -0.198530
   vertex -0.015217 0.011406 -0.200300
  endloop
 endfacet
 facet normal 0.000000 -0.707113 0.707101
  outer loop
   vertex -0.024367 0.002046 -0.209660
   vertex -0.015217 0.011406 -0.200300
   vertex -0.018877 0.011406 -0.200300
  endloop
 endfacet
 facet normal 0.898880 0.436654 0.036702
  outer loop
   vertex -0.018877 -0.013594 -0.225300
   vertex -0.026627 0.001123 -0.210590
   vertex -0.027390 -0.014003 -0.011940
  endloop
 endfacet
 facet normal 0.000000 -0.707121 0.707092
  outer loop
   vertex -0.015217 0.011406 -0.200300
   vertex 0.028183 0.000206 -0.211500
   vertex 0.020123 0.011406 -0.200300
  endloop
 endfacet
 facet normal -0.078166 -0.994660 0.067393
  outer loop
   vertex 0.005570 0.031407 -0.011940
   vertex 0.000620 0.031796 -0.011940
   vertex 0.001943 0.019476 -0.192230
  endloop
 endfacet
 facet normal 0.079274 -0.994494 0.068537
  outer loop
   vertex 0.000620 0.031796 -0.011940
   vertex -0.004260 0.031407 -0.011940
   vertex 0.001943 0.019476 -0.192230
  endloop
 endfacet
 facet normal 0.837658 -0.544658 0.040940
  outer loop
   vertex -0.026627 0.001123 -0.210590
   vertex -0.018877 0.014011 -0.197700
   vertex -0.024830 0.018819 -0.011940
  endloop
 endfacet
 facet normal 0.000003 -0.707114 0.707099
  outer loop
   vertex -0.015217 0.011406 -0.200300
   vertex -0.024367 0.002046 -0.209660
   vertex 0.028183 0.000206 -0.211500
  endloop
 endfacet
 facet normal 0.000000 0.000000 1.000000
  outer loop
   vertex 0.038167 0.035960 -0.002587
   vertex 0.046555 -0.024894 -0.002587
   vertex 0.051919 0.013349 -0.002587
  endloop
 endfacet
 facet normal 0.000000 0.000000 1.000000
  outer loop
   vertex 0.046555 -0.024894 -0.002587
   vertex -0.013153 -0.048425 -0.002587
   vertex 0.014350 -0.048425 -0.002587
  endloop
 endfacet
 facet normal 0.000000 -0.000060 1.000000
  outer loop
   vertex 0.014350 -0.048425 -0.002587
   vertex -0.013153 -0.048425 -0.002587
   vertex 0.000598 -0.050082 -0.002587
  endloop
 endfacet
 facet normal 0.000000 0.000000 1.000000
  outer loop
   vertex 0.038167 0.035960 -0.002587
   vertex 0.027131 0.043922 -0.002587
   vertex 0.014350 0.049014 -0.002587
  endloop
 endfacet
 facet normal 0.000000 0.000000 1.000000
  outer loop
   vertex -0.036971 -0.035371 -0.002587
   vertex -0.025935 -0.043333 -0.002587
   vertex -0.013153 -0.048425 -0.002587
  endloop
 endfacet
 facet normal 0.000000 0.000000 1.000000
  outer loop
   vertex -0.045358 0.025483 -0.002587
   vertex -0.052468 0.000294 -0.002587
   vertex -0.036971 0.035960 -0.002587
  endloop
 endfacet
 facet normal 0.000000 0.000000 1.000000
  outer loop
   vertex -0.013153 -0.048425 -0.002587
   vertex 0.046555 -0.024894 -0.002587
   vertex 0.014350 0.049014 -0.002587
  endloop
 endfacet
 facet normal 0.000000 0.000000 1.000000
  outer loop
   vertex 0.014350 0.049014 -0.002587
   vertex -0.036971 -0.035371 -0.002587
   vertex -0.013153 -0.048425 -0.002587
  endloop
 endfacet
 facet normal 0.000000 0.000000 1.000000
  outer loop
   vertex 0.014350 0.049014 -0.002587
   vertex 0.046555 -0.024894 -0.002587
   vertex 0.038167 0.035960 -0.002587
  endloop
 endfacet
 facet normal 0.000000 0.000000 1.000000
  outer loop
   vertex 0.014350 0.049014 -0.002587
   vertex 0.000598 0.050671 -0.002587
   vertex -0.036971 0.035960 -0.002587
  endloop
 endfacet
 facet normal 0.000000 0.000000 1.000000
  outer loop
   vertex 0.046555 -0.024894 -0.002587
   vertex 0.014350 -0.048425 -0.002587
   vertex 0.027131 -0.043333 -0.002587
  endloop
 endfacet
 facet normal 0.000000 0.000000 1.000000
  outer loop
   vertex -0.052468 0.000294 -0.002587
   vertex -0.045358 -0.024894 -0.002587
   vertex -0.036971 -0.035371 -0.002587
  endloop
 endfacet
 facet normal 0.000000 0.000000 1.000000
  outer loop
   vertex -0.036971 -0.035371 -0.002587
   vertex -0.036971 0.035960 -0.002587
   vertex -0.052468 0.000294 -0.002587
  endloop
 endfacet
 facet normal 0.000000 0.000000 1.000000
  outer loop
   vertex 0.027131 -0.043333 -0.002587
   vertex 0.038168 -0.035371 -0.002587
   vertex 0.046555 -0.024894 -0.002587
  endloop
 endfacet
 facet normal 0.000000 0.000000 1.000000
  outer loop
   vertex -0.036971 0.035960 -0.002587
   vertex -0.013153 0.049014 -0.002587
   vertex -0.025935 0.043922 -0.002587
  endloop
 endfacet
 facet normal 0.000000 0.000000 1.000000
  outer loop
   vertex -0.036971 0.035960 -0.002587
   vertex -0.036971 -0.035371 -0.002587
   vertex 0.014350 0.049014 -0.002587
  endloop
 endfacet
 facet normal 0.000000 0.000000 1.000000
  outer loop
   vertex -0.036971 0.035960 -0.002587
   vertex 0.000598 0.050671 -0.002587
   vertex -0.013153 0.049014 -0.002587
  endloop
 endfacet
endsolid
