solid stl file generated from AC3D
 facet normal 0.891007 0.453990 0.000000
  outer loop
   vertex 0.141707 0.046044 0.150000
   vertex 0.120544 0.087580 -0.150000
   vertex 0.120544 0.087580 0.150000
  endloop
 endfacet
 facet normal 0.891007 0.453990 0.000000
  outer loop
   vertex 0.120544 0.087580 -0.150000
   vertex 0.141707 0.046044 0.150000
   vertex 0.141707 0.046044 -0.150000
  endloop
 endfacet
 facet normal 0.707107 0.707107 0.000000
  outer loop
   vertex 0.120544 0.087580 0.150000
   vertex 0.087580 0.120544 -0.150000
   vertex 0.087580 0.120544 0.150000
  endloop
 endfacet
 facet normal 0.707107 0.707107 0.000000
  outer loop
   vertex 0.087580 0.120544 -0.150000
   vertex 0.120544 0.087580 0.150000
   vertex 0.120544 0.087580 -0.150000
  endloop
 endfacet
 facet normal 0.453990 0.891007 0.000000
  outer loop
   vertex 0.087580 0.120544 -0.150000
   vertex 0.046044 0.141707 0.150000
   vertex 0.087580 0.120544 0.150000
  endloop
 endfacet
 facet normal 0.453990 0.891007 0.000000
  outer loop
   vertex 0.046044 0.141707 0.150000
   vertex 0.087580 0.120544 -0.150000
   vertex 0.046044 0.141707 -0.150000
  endloop
 endfacet
 facet normal 0.156435 0.987688 0.000000
  outer loop
   vertex 0.046044 0.141707 -0.150000
   vertex -0.000000 0.149000 0.150000
   vertex 0.046044 0.141707 0.150000
  endloop
 endfacet
 facet normal 0.156435 0.987688 0.000000
  outer loop
   vertex -0.000000 0.149000 0.150000
   vertex 0.046044 0.141707 -0.150000
   vertex -0.000000 0.149000 -0.150000
  endloop
 endfacet
 facet normal -0.156435 0.987688 0.000000
  outer loop
   vertex -0.000000 0.149000 -0.150000
   vertex -0.046044 0.141707 0.150000
   vertex -0.000000 0.149000 0.150000
  endloop
 endfacet
 facet normal -0.156435 0.987688 0.000000
  outer loop
   vertex -0.046044 0.141707 0.150000
   vertex -0.000000 0.149000 -0.150000
   vertex -0.046044 0.141707 -0.150000
  endloop
 endfacet
 facet normal -0.453990 0.891007 0.000000
  outer loop
   vertex -0.046044 0.141707 -0.150000
   vertex -0.087580 0.120544 0.150000
   vertex -0.046044 0.141707 0.150000
  endloop
 endfacet
 facet normal -0.453990 0.891007 0.000000
  outer loop
   vertex -0.087580 0.120544 0.150000
   vertex -0.046044 0.141707 -0.150000
   vertex -0.087580 0.120544 -0.150000
  endloop
 endfacet
 facet normal -0.707107 0.707107 0.000000
  outer loop
   vertex -0.120544 0.087580 -0.150000
   vertex -0.087580 0.120544 0.150000
   vertex -0.087580 0.120544 -0.150000
  endloop
 endfacet
 facet normal -0.707107 0.707107 0.000000
  outer loop
   vertex -0.087580 0.120544 0.150000
   vertex -0.120544 0.087580 -0.150000
   vertex -0.120544 0.087580 0.150000
  endloop
 endfacet
 facet normal -0.891007 0.453990 0.000000
  outer loop
   vertex -0.141707 0.046043 -0.150000
   vertex -0.120544 0.087580 0.150000
   vertex -0.120544 0.087580 -0.150000
  endloop
 endfacet
 facet normal -0.891007 0.453990 0.000000
  outer loop
   vertex -0.120544 0.087580 0.150000
   vertex -0.141707 0.046043 -0.150000
   vertex -0.141707 0.046043 0.150000
  endloop
 endfacet
 facet normal -0.987688 0.156435 0.000000
  outer loop
   vertex -0.149000 -0.000000 -0.150000
   vertex -0.141707 0.046043 0.150000
   vertex -0.141707 0.046043 -0.150000
  endloop
 endfacet
 facet normal -0.987688 0.156435 0.000000
  outer loop
   vertex -0.141707 0.046043 0.150000
   vertex -0.149000 -0.000000 -0.150000
   vertex -0.149000 -0.000000 0.150000
  endloop
 endfacet
 facet normal -0.987688 -0.156435 0.000000
  outer loop
   vertex -0.141707 -0.046044 -0.150000
   vertex -0.149000 -0.000000 0.150000
   vertex -0.149000 -0.000000 -0.150000
  endloop
 endfacet
 facet normal -0.987688 -0.156435 0.000000
  outer loop
   vertex -0.149000 -0.000000 0.150000
   vertex -0.141707 -0.046044 -0.150000
   vertex -0.141707 -0.046044 0.150000
  endloop
 endfacet
 facet normal -0.891006 -0.453991 0.000000
  outer loop
   vertex -0.120543 -0.087580 -0.150000
   vertex -0.141707 -0.046044 0.150000
   vertex -0.141707 -0.046044 -0.150000
  endloop
 endfacet
 facet normal -0.891006 -0.453991 0.000000
  outer loop
   vertex -0.141707 -0.046044 0.150000
   vertex -0.120543 -0.087580 -0.150000
   vertex -0.120543 -0.087580 0.150000
  endloop
 endfacet
 facet normal -0.707106 -0.707107 0.000000
  outer loop
   vertex -0.120543 -0.087580 -0.150000
   vertex -0.087580 -0.120544 0.150000
   vertex -0.120543 -0.087580 0.150000
  endloop
 endfacet
 facet normal -0.707106 -0.707107 0.000000
  outer loop
   vertex -0.087580 -0.120544 0.150000
   vertex -0.120543 -0.087580 -0.150000
   vertex -0.087580 -0.120544 -0.150000
  endloop
 endfacet
 facet normal -0.453990 -0.891007 0.000000
  outer loop
   vertex -0.087580 -0.120544 -0.150000
   vertex -0.046043 -0.141707 0.150000
   vertex -0.087580 -0.120544 0.150000
  endloop
 endfacet
 facet normal -0.453990 -0.891007 0.000000
  outer loop
   vertex -0.046043 -0.141707 0.150000
   vertex -0.087580 -0.120544 -0.150000
   vertex -0.046043 -0.141707 -0.150000
  endloop
 endfacet
 facet normal -0.156434 -0.987688 0.000000
  outer loop
   vertex -0.046043 -0.141707 -0.150000
   vertex 0.000000 -0.149000 0.150000
   vertex -0.046043 -0.141707 0.150000
  endloop
 endfacet
 facet normal -0.156434 -0.987688 0.000000
  outer loop
   vertex 0.000000 -0.149000 0.150000
   vertex -0.046043 -0.141707 -0.150000
   vertex 0.000000 -0.149000 -0.150000
  endloop
 endfacet
 facet normal 0.156435 -0.987688 0.000000
  outer loop
   vertex 0.000000 -0.149000 -0.150000
   vertex 0.046044 -0.141707 0.150000
   vertex 0.000000 -0.149000 0.150000
  endloop
 endfacet
 facet normal 0.156435 -0.987688 0.000000
  outer loop
   vertex 0.046044 -0.141707 0.150000
   vertex 0.000000 -0.149000 -0.150000
   vertex 0.046044 -0.141707 -0.150000
  endloop
 endfacet
 facet normal 0.453991 -0.891006 0.000000
  outer loop
   vertex 0.046044 -0.141707 -0.150000
   vertex 0.087580 -0.120543 0.150000
   vertex 0.046044 -0.141707 0.150000
  endloop
 endfacet
 facet normal 0.453991 -0.891006 0.000000
  outer loop
   vertex 0.087580 -0.120543 0.150000
   vertex 0.046044 -0.141707 -0.150000
   vertex 0.087580 -0.120543 -0.150000
  endloop
 endfacet
 facet normal 0.707108 -0.707106 0.000000
  outer loop
   vertex 0.087580 -0.120543 0.150000
   vertex 0.120544 -0.087580 -0.150000
   vertex 0.120544 -0.087580 0.150000
  endloop
 endfacet
 facet normal 0.707108 -0.707106 0.000000
  outer loop
   vertex 0.120544 -0.087580 -0.150000
   vertex 0.087580 -0.120543 0.150000
   vertex 0.087580 -0.120543 -0.150000
  endloop
 endfacet
 facet normal 0.891007 -0.453989 0.000000
  outer loop
   vertex 0.120544 -0.087580 0.150000
   vertex 0.141707 -0.046043 -0.150000
   vertex 0.141707 -0.046043 0.150000
  endloop
 endfacet
 facet normal 0.891007 -0.453989 0.000000
  outer loop
   vertex 0.141707 -0.046043 -0.150000
   vertex 0.120544 -0.087580 0.150000
   vertex 0.120544 -0.087580 -0.150000
  endloop
 endfacet
 facet normal 0.987688 -0.156434 0.000000
  outer loop
   vertex 0.141707 -0.046043 0.150000
   vertex 0.149000 0.000000 -0.150000
   vertex 0.149000 0.000000 0.150000
  endloop
 endfacet
 facet normal 0.987688 -0.156434 0.000000
  outer loop
   vertex 0.149000 0.000000 -0.150000
   vertex 0.141707 -0.046043 0.150000
   vertex 0.141707 -0.046043 -0.150000
  endloop
 endfacet
 facet normal 0.987688 0.156436 0.000000
  outer loop
   vertex 0.149000 0.000000 0.150000
   vertex 0.141707 0.046044 -0.150000
   vertex 0.141707 0.046044 0.150000
  endloop
 endfacet
 facet normal 0.987688 0.156436 0.000000
  outer loop
   vertex 0.141707 0.046044 -0.150000
   vertex 0.149000 0.000000 0.150000
   vertex 0.149000 0.000000 -0.150000
  endloop
 endfacet
 facet normal 0.000000 0.000000 -1.000000
  outer loop
   vertex 0.000000 0.000000 -0.150000
   vertex 0.120544 0.087580 -0.150000
   vertex 0.141707 0.046044 -0.150000
  endloop
 endfacet
 facet normal 0.000000 0.000000 -1.000000
  outer loop
   vertex 0.000000 0.000000 -0.150000
   vertex 0.087580 0.120544 -0.150000
   vertex 0.120544 0.087580 -0.150000
  endloop
 endfacet
 facet normal 0.000000 0.000000 -1.000000
  outer loop
   vertex 0.000000 0.000000 -0.150000
   vertex 0.046044 0.141707 -0.150000
   vertex 0.087580 0.120544 -0.150000
  endloop
 endfacet
 facet normal 0.000000 0.000000 -1.000000
  outer loop
   vertex 0.000000 0.000000 -0.150000
   vertex -0.000000 0.149000 -0.150000
   vertex 0.046044 0.141707 -0.150000
  endloop
 endfacet
 facet normal 0.000000 0.000000 -1.000000
  outer loop
   vertex 0.000000 0.000000 -0.150000
   vertex -0.046044 0.141707 -0.150000
   vertex -0.000000 0.149000 -0.150000
  endloop
 endfacet
 facet normal 0.000000 0.000000 -1.000000
  outer loop
   vertex 0.000000 0.000000 -0.150000
   vertex -0.087580 0.120544 -0.150000
   vertex -0.046044 0.141707 -0.150000
  endloop
 endfacet
 facet normal 0.000000 0.000000 -1.000000
  outer loop
   vertex 0.000000 0.000000 -0.150000
   vertex -0.120544 0.087580 -0.150000
   vertex -0.087580 0.120544 -0.150000
  endloop
 endfacet
 facet normal 0.000000 0.000000 -1.000000
  outer loop
   vertex 0.000000 0.000000 -0.150000
   vertex -0.141707 0.046043 -0.150000
   vertex -0.120544 0.087580 -0.150000
  endloop
 endfacet
 facet normal 0.000000 0.000000 -1.000000
  outer loop
   vertex 0.000000 0.000000 -0.150000
   vertex -0.149000 -0.000000 -0.150000
   vertex -0.141707 0.046043 -0.150000
  endloop
 endfacet
 facet normal 0.000000 0.000000 -1.000000
  outer loop
   vertex 0.000000 0.000000 -0.150000
   vertex -0.141707 -0.046044 -0.150000
   vertex -0.149000 -0.000000 -0.150000
  endloop
 endfacet
 facet normal 0.000000 0.000000 -1.000000
  outer loop
   vertex 0.000000 0.000000 -0.150000
   vertex -0.120543 -0.087580 -0.150000
   vertex -0.141707 -0.046044 -0.150000
  endloop
 endfacet
 facet normal 0.000000 0.000000 -1.000000
  outer loop
   vertex 0.000000 0.000000 -0.150000
   vertex -0.087580 -0.120544 -0.150000
   vertex -0.120543 -0.087580 -0.150000
  endloop
 endfacet
 facet normal 0.000000 0.000000 -1.000000
  outer loop
   vertex 0.000000 0.000000 -0.150000
   vertex -0.046043 -0.141707 -0.150000
   vertex -0.087580 -0.120544 -0.150000
  endloop
 endfacet
 facet normal 0.000000 0.000000 -1.000000
  outer loop
   vertex 0.000000 0.000000 -0.150000
   vertex 0.000000 -0.149000 -0.150000
   vertex -0.046043 -0.141707 -0.150000
  endloop
 endfacet
 facet normal 0.000000 0.000000 -1.000000
  outer loop
   vertex 0.000000 0.000000 -0.150000
   vertex 0.046044 -0.141707 -0.150000
   vertex 0.000000 -0.149000 -0.150000
  endloop
 endfacet
 facet normal 0.000000 0.000000 -1.000000
  outer loop
   vertex 0.000000 0.000000 -0.150000
   vertex 0.087580 -0.120543 -0.150000
   vertex 0.046044 -0.141707 -0.150000
  endloop
 endfacet
 facet normal 0.000000 0.000000 -1.000000
  outer loop
   vertex 0.000000 0.000000 -0.150000
   vertex 0.120544 -0.087580 -0.150000
   vertex 0.087580 -0.120543 -0.150000
  endloop
 endfacet
 facet normal 0.000000 0.000000 -1.000000
  outer loop
   vertex 0.000000 0.000000 -0.150000
   vertex 0.141707 -0.046043 -0.150000
   vertex 0.120544 -0.087580 -0.150000
  endloop
 endfacet
 facet normal 0.000000 0.000000 -1.000000
  outer loop
   vertex 0.000000 0.000000 -0.150000
   vertex 0.149000 0.000000 -0.150000
   vertex 0.141707 -0.046043 -0.150000
  endloop
 endfacet
 facet normal 0.000000 0.000000 -1.000000
  outer loop
   vertex 0.000000 0.000000 -0.150000
   vertex 0.141707 0.046044 -0.150000
   vertex 0.149000 0.000000 -0.150000
  endloop
 endfacet
 facet normal 0.000000 0.000000 1.000000
  outer loop
   vertex 0.000000 0.000000 0.150000
   vertex 0.141707 0.046044 0.150000
   vertex 0.120544 0.087580 0.150000
  endloop
 endfacet
 facet normal 0.000000 0.000000 1.000000
  outer loop
   vertex 0.000000 0.000000 0.150000
   vertex 0.120544 0.087580 0.150000
   vertex 0.087580 0.120544 0.150000
  endloop
 endfacet
 facet normal 0.000000 0.000000 1.000000
  outer loop
   vertex 0.000000 0.000000 0.150000
   vertex 0.087580 0.120544 0.150000
   vertex 0.046044 0.141707 0.150000
  endloop
 endfacet
 facet normal 0.000000 0.000000 1.000000
  outer loop
   vertex 0.000000 0.000000 0.150000
   vertex 0.046044 0.141707 0.150000
   vertex -0.000000 0.149000 0.150000
  endloop
 endfacet
 facet normal 0.000000 0.000000 1.000000
  outer loop
   vertex 0.000000 0.000000 0.150000
   vertex -0.000000 0.149000 0.150000
   vertex -0.046044 0.141707 0.150000
  endloop
 endfacet
 facet normal 0.000000 0.000000 1.000000
  outer loop
   vertex 0.000000 0.000000 0.150000
   vertex -0.046044 0.141707 0.150000
   vertex -0.087580 0.120544 0.150000
  endloop
 endfacet
 facet normal 0.000000 0.000000 1.000000
  outer loop
   vertex 0.000000 0.000000 0.150000
   vertex -0.087580 0.120544 0.150000
   vertex -0.120544 0.087580 0.150000
  endloop
 endfacet
 facet normal 0.000000 0.000000 1.000000
  outer loop
   vertex 0.000000 0.000000 0.150000
   vertex -0.120544 0.087580 0.150000
   vertex -0.141707 0.046043 0.150000
  endloop
 endfacet
 facet normal 0.000000 0.000000 1.000000
  outer loop
   vertex 0.000000 0.000000 0.150000
   vertex -0.141707 0.046043 0.150000
   vertex -0.149000 -0.000000 0.150000
  endloop
 endfacet
 facet normal 0.000000 0.000000 1.000000
  outer loop
   vertex 0.000000 0.000000 0.150000
   vertex -0.149000 -0.000000 0.150000
   vertex -0.141707 -0.046044 0.150000
  endloop
 endfacet
 facet normal 0.000000 0.000000 1.000000
  outer loop
   vertex 0.000000 0.000000 0.150000
   vertex -0.141707 -0.046044 0.150000
   vertex -0.120543 -0.087580 0.150000
  endloop
 endfacet
 facet normal 0.000000 0.000000 1.000000
  outer loop
   vertex 0.000000 0.000000 0.150000
   vertex -0.120543 -0.087580 0.150000
   vertex -0.087580 -0.120544 0.150000
  endloop
 endfacet
 facet normal 0.000000 0.000000 1.000000
  outer loop
   vertex 0.000000 0.000000 0.150000
   vertex -0.087580 -0.120544 0.150000
   vertex -0.046043 -0.141707 0.150000
  endloop
 endfacet
 facet normal 0.000000 0.000000 1.000000
  outer loop
   vertex 0.000000 0.000000 0.150000
   vertex -0.046043 -0.141707 0.150000
   vertex 0.000000 -0.149000 0.150000
  endloop
 endfacet
 facet normal 0.000000 0.000000 1.000000
  outer loop
   vertex 0.000000 0.000000 0.150000
   vertex 0.000000 -0.149000 0.150000
   vertex 0.046044 -0.141707 0.150000
  endloop
 endfacet
 facet normal 0.000000 0.000000 1.000000
  outer loop
   vertex 0.000000 0.000000 0.150000
   vertex 0.046044 -0.141707 0.150000
   vertex 0.087580 -0.120543 0.150000
  endloop
 endfacet
 facet normal 0.000000 0.000000 1.000000
  outer loop
   vertex 0.000000 0.000000 0.150000
   vertex 0.087580 -0.120543 0.150000
   vertex 0.120544 -0.087580 0.150000
  endloop
 endfacet
 facet normal 0.000000 0.000000 1.000000
  outer loop
   vertex 0.000000 0.000000 0.150000
   vertex 0.120544 -0.087580 0.150000
   vertex 0.141707 -0.046043 0.150000
  endloop
 endfacet
 facet normal 0.000000 0.000000 1.000000
  outer loop
   vertex 0.000000 0.000000 0.150000
   vertex 0.141707 -0.046043 0.150000
   vertex 0.149000 0.000000 0.150000
  endloop
 endfacet
 facet normal 0.000000 0.000000 1.000000
  outer loop
   vertex 0.000000 0.000000 0.150000
   vertex 0.149000 0.000000 0.150000
   vertex 0.141707 0.046044 0.150000
  endloop
 endfacet
endsolid
