solid stl file generated from AC3D
 facet normal -1.000000 0.000000 0.000000
  outer loop
   vertex -0.106283 0.011687 -0.000222
   vertex -0.106283 -0.082918 -0.000222
   vertex -0.106283 -0.079086 0.027401
  endloop
 endfacet
 facet normal -1.000000 0.000000 0.000000
  outer loop
   vertex -0.106283 0.011687 -0.000222
   vertex -0.106283 -0.079086 -0.027844
   vertex -0.106283 -0.082918 -0.000222
  endloop
 endfacet
 facet normal -1.000000 0.000000 0.000000
  outer loop
   vertex -0.106283 0.011687 -0.000222
   vertex -0.106283 -0.067900 -0.053229
   vertex -0.106283 -0.079086 -0.027844
  endloop
 endfacet
 facet normal -1.000000 0.000000 0.000000
  outer loop
   vertex -0.106283 0.011687 -0.000222
   vertex -0.106283 -0.050266 -0.074320
   vertex -0.106283 -0.067900 -0.053229
  endloop
 endfacet
 facet normal -1.000000 0.000000 0.000000
  outer loop
   vertex -0.106283 0.011687 -0.000222
   vertex -0.106283 -0.027614 -0.089407
   vertex -0.106283 -0.050266 -0.074320
  endloop
 endfacet
 facet normal -1.000000 0.000000 0.000000
  outer loop
   vertex -0.106283 0.011687 -0.000222
   vertex -0.106283 -0.001777 -0.097269
   vertex -0.106283 -0.027614 -0.089407
  endloop
 endfacet
 facet normal -1.000000 0.000000 0.000000
  outer loop
   vertex -0.106283 0.011687 -0.000222
   vertex -0.106283 0.025151 -0.097269
   vertex -0.106283 -0.001777 -0.097269
  endloop
 endfacet
 facet normal -1.000000 0.000000 0.000000
  outer loop
   vertex -0.106283 0.011687 -0.000222
   vertex -0.106283 0.050987 -0.089407
   vertex -0.106283 0.025151 -0.097269
  endloop
 endfacet
 facet normal -1.000000 0.000000 0.000000
  outer loop
   vertex -0.106283 0.011687 -0.000222
   vertex -0.106283 0.073640 -0.074320
   vertex -0.106283 0.050987 -0.089407
  endloop
 endfacet
 facet normal -1.000000 0.000000 0.000000
  outer loop
   vertex -0.106283 0.011687 -0.000222
   vertex -0.106283 0.091274 -0.053229
   vertex -0.106283 0.073640 -0.074320
  endloop
 endfacet
 facet normal -1.000000 0.000000 0.000000
  outer loop
   vertex -0.106283 0.011687 -0.000222
   vertex -0.106283 0.102460 -0.027844
   vertex -0.106283 0.091274 -0.053229
  endloop
 endfacet
 facet normal -1.000000 0.000000 0.000000
  outer loop
   vertex -0.106283 0.011687 -0.000222
   vertex -0.106283 0.106292 -0.000222
   vertex -0.106283 0.102460 -0.027844
  endloop
 endfacet
 facet normal -1.000000 0.000000 0.000000
  outer loop
   vertex -0.106283 0.011687 -0.000222
   vertex -0.106283 0.102460 0.027401
   vertex -0.106283 0.106292 -0.000222
  endloop
 endfacet
 facet normal -1.000000 0.000000 0.000000
  outer loop
   vertex -0.106283 0.011687 -0.000222
   vertex -0.106283 0.091274 0.052786
   vertex -0.106283 0.102460 0.027401
  endloop
 endfacet
 facet normal -1.000000 0.000000 0.000000
  outer loop
   vertex -0.106283 0.011687 -0.000222
   vertex -0.106283 0.073640 0.073877
   vertex -0.106283 0.091274 0.052786
  endloop
 endfacet
 facet normal -1.000000 0.000000 0.000000
  outer loop
   vertex -0.106283 0.011687 -0.000222
   vertex -0.106283 0.050987 0.088964
   vertex -0.106283 0.073640 0.073877
  endloop
 endfacet
 facet normal -1.000000 0.000000 0.000000
  outer loop
   vertex -0.106283 0.011687 -0.000222
   vertex -0.106283 0.025151 0.096826
   vertex -0.106283 0.050987 0.088964
  endloop
 endfacet
 facet normal -1.000000 0.000000 0.000000
  outer loop
   vertex -0.106283 0.011687 -0.000222
   vertex -0.106283 -0.001777 0.096826
   vertex -0.106283 0.025151 0.096826
  endloop
 endfacet
 facet normal -1.000000 0.000000 0.000000
  outer loop
   vertex -0.106283 0.011687 -0.000222
   vertex -0.106283 -0.027614 0.088964
   vertex -0.106283 -0.001777 0.096826
  endloop
 endfacet
 facet normal -1.000000 0.000000 0.000000
  outer loop
   vertex -0.106283 0.011687 -0.000222
   vertex -0.106283 -0.050266 0.073877
   vertex -0.106283 -0.027614 0.088964
  endloop
 endfacet
 facet normal -1.000000 0.000000 0.000000
  outer loop
   vertex -0.106283 0.011687 -0.000222
   vertex -0.106283 -0.067900 0.052786
   vertex -0.106283 -0.050266 0.073877
  endloop
 endfacet
 facet normal -1.000000 0.000000 0.000000
  outer loop
   vertex -0.106283 0.011687 -0.000222
   vertex -0.106283 -0.079086 0.027401
   vertex -0.106283 -0.067900 0.052786
  endloop
 endfacet
 facet normal 1.000000 0.000000 0.000000
  outer loop
   vertex 0.032508 0.011687 -0.000222
   vertex 0.032508 -0.079086 0.027401
   vertex 0.032508 -0.082918 -0.000222
  endloop
 endfacet
 facet normal 1.000000 0.000000 0.000000
  outer loop
   vertex 0.032508 0.011687 -0.000222
   vertex 0.032508 -0.082918 -0.000222
   vertex 0.032508 -0.079086 -0.027844
  endloop
 endfacet
 facet normal 1.000000 0.000000 0.000000
  outer loop
   vertex 0.032508 0.011687 -0.000222
   vertex 0.032508 -0.079086 -0.027844
   vertex 0.032508 -0.067900 -0.053229
  endloop
 endfacet
 facet normal 1.000000 0.000000 0.000000
  outer loop
   vertex 0.032508 0.011687 -0.000222
   vertex 0.032508 -0.067900 -0.053229
   vertex 0.032508 -0.050266 -0.074320
  endloop
 endfacet
 facet normal 1.000000 0.000000 0.000000
  outer loop
   vertex 0.032508 0.011687 -0.000222
   vertex 0.032508 -0.050266 -0.074320
   vertex 0.032508 -0.027614 -0.089407
  endloop
 endfacet
 facet normal 1.000000 0.000000 0.000000
  outer loop
   vertex 0.032508 0.011687 -0.000222
   vertex 0.032508 -0.027614 -0.089407
   vertex 0.032508 -0.001777 -0.097269
  endloop
 endfacet
 facet normal 1.000000 0.000000 0.000000
  outer loop
   vertex 0.032508 0.011687 -0.000222
   vertex 0.032508 -0.001777 -0.097269
   vertex 0.032508 0.025151 -0.097269
  endloop
 endfacet
 facet normal 1.000000 0.000000 0.000000
  outer loop
   vertex 0.032508 0.011687 -0.000222
   vertex 0.032508 0.025151 -0.097269
   vertex 0.032508 0.050987 -0.089407
  endloop
 endfacet
 facet normal 1.000000 0.000000 0.000000
  outer loop
   vertex 0.032508 0.011687 -0.000222
   vertex 0.032508 0.050987 -0.089407
   vertex 0.032508 0.073640 -0.074320
  endloop
 endfacet
 facet normal 1.000000 0.000000 0.000000
  outer loop
   vertex 0.032508 0.011687 -0.000222
   vertex 0.032508 0.073640 -0.074320
   vertex 0.032508 0.091274 -0.053229
  endloop
 endfacet
 facet normal 1.000000 0.000000 0.000000
  outer loop
   vertex 0.032508 0.011687 -0.000222
   vertex 0.032508 0.091274 -0.053229
   vertex 0.032508 0.102460 -0.027844
  endloop
 endfacet
 facet normal 1.000000 0.000000 0.000000
  outer loop
   vertex 0.032508 0.011687 -0.000222
   vertex 0.032508 0.102460 -0.027844
   vertex 0.032508 0.106292 -0.000222
  endloop
 endfacet
 facet normal 1.000000 0.000000 0.000000
  outer loop
   vertex 0.032508 0.011687 -0.000222
   vertex 0.032508 0.106292 -0.000222
   vertex 0.032508 0.102460 0.027401
  endloop
 endfacet
 facet normal 1.000000 0.000000 0.000000
  outer loop
   vertex 0.032508 0.011687 -0.000222
   vertex 0.032508 0.102460 0.027401
   vertex 0.032508 0.091274 0.052786
  endloop
 endfacet
 facet normal 1.000000 0.000000 0.000000
  outer loop
   vertex 0.032508 0.011687 -0.000222
   vertex 0.032508 0.091274 0.052786
   vertex 0.032508 0.073640 0.073877
  endloop
 endfacet
 facet normal 1.000000 0.000000 0.000000
  outer loop
   vertex 0.032508 0.011687 -0.000222
   vertex 0.032508 0.073640 0.073877
   vertex 0.032508 0.050987 0.088964
  endloop
 endfacet
 facet normal 1.000000 0.000000 0.000000
  outer loop
   vertex 0.032508 0.011687 -0.000222
   vertex 0.032508 0.050987 0.088964
   vertex 0.032508 0.025151 0.096826
  endloop
 endfacet
 facet normal 1.000000 0.000000 0.000000
  outer loop
   vertex 0.032508 0.011687 -0.000222
   vertex 0.032508 0.025151 0.096826
   vertex 0.032508 -0.001777 0.096826
  endloop
 endfacet
 facet normal 1.000000 0.000000 0.000000
  outer loop
   vertex 0.032508 0.011687 -0.000222
   vertex 0.032508 -0.001777 0.096826
   vertex 0.032508 -0.027614 0.088964
  endloop
 endfacet
 facet normal 1.000000 0.000000 0.000000
  outer loop
   vertex 0.032508 0.011687 -0.000222
   vertex 0.032508 -0.027614 0.088964
   vertex 0.032508 -0.050266 0.073877
  endloop
 endfacet
 facet normal 1.000000 0.000000 0.000000
  outer loop
   vertex 0.032508 0.011687 -0.000222
   vertex 0.032508 -0.050266 0.073877
   vertex 0.032508 -0.067900 0.052786
  endloop
 endfacet
 facet normal 1.000000 0.000000 0.000000
  outer loop
   vertex 0.032508 0.011687 -0.000222
   vertex 0.032508 -0.067900 0.052786
   vertex 0.032508 -0.079086 0.027401
  endloop
 endfacet
 facet normal 0.000000 -0.990513 0.137415
  outer loop
   vertex -0.106283 -0.082918 -0.000222
   vertex 0.032508 -0.079086 0.027401
   vertex -0.106283 -0.079086 0.027401
  endloop
 endfacet
 facet normal 0.000000 -0.990513 0.137415
  outer loop
   vertex 0.032508 -0.079086 0.027401
   vertex -0.106283 -0.082918 -0.000222
   vertex 0.032508 -0.082918 -0.000222
  endloop
 endfacet
 facet normal 0.000000 -0.990513 -0.137418
  outer loop
   vertex -0.106283 -0.079086 -0.027844
   vertex 0.032508 -0.082918 -0.000222
   vertex -0.106283 -0.082918 -0.000222
  endloop
 endfacet
 facet normal 0.000000 -0.990513 -0.137418
  outer loop
   vertex 0.032508 -0.082918 -0.000222
   vertex -0.106283 -0.079086 -0.027844
   vertex 0.032508 -0.079086 -0.027844
  endloop
 endfacet
 facet normal 0.000000 -0.915093 -0.403244
  outer loop
   vertex -0.106283 -0.067900 -0.053229
   vertex 0.032508 -0.079086 -0.027844
   vertex -0.106283 -0.079086 -0.027844
  endloop
 endfacet
 facet normal 0.000000 -0.915093 -0.403244
  outer loop
   vertex 0.032508 -0.079086 -0.027844
   vertex -0.106283 -0.067900 -0.053229
   vertex 0.032508 -0.067900 -0.053229
  endloop
 endfacet
 facet normal 0.000000 -0.767177 -0.641436
  outer loop
   vertex -0.106283 -0.050266 -0.074320
   vertex 0.032508 -0.067900 -0.053229
   vertex -0.106283 -0.067900 -0.053229
  endloop
 endfacet
 facet normal 0.000000 -0.767177 -0.641436
  outer loop
   vertex 0.032508 -0.067900 -0.053229
   vertex -0.106283 -0.050266 -0.074320
   vertex 0.032508 -0.050266 -0.074320
  endloop
 endfacet
 facet normal -0.000000 -0.554333 -0.832295
  outer loop
   vertex -0.106283 -0.050266 -0.074320
   vertex 0.032508 -0.027614 -0.089407
   vertex 0.032508 -0.050266 -0.074320
  endloop
 endfacet
 facet normal -0.000000 -0.554333 -0.832295
  outer loop
   vertex 0.032508 -0.027614 -0.089407
   vertex -0.106283 -0.050266 -0.074320
   vertex -0.106283 -0.027614 -0.089407
  endloop
 endfacet
 facet normal -0.000000 -0.291125 -0.956685
  outer loop
   vertex -0.106283 -0.027614 -0.089407
   vertex 0.032508 -0.001777 -0.097269
   vertex 0.032508 -0.027614 -0.089407
  endloop
 endfacet
 facet normal -0.000000 -0.291125 -0.956685
  outer loop
   vertex 0.032508 -0.001777 -0.097269
   vertex -0.106283 -0.027614 -0.089407
   vertex -0.106283 -0.001777 -0.097269
  endloop
 endfacet
 facet normal 0.000000 0.000000 -1.000000
  outer loop
   vertex -0.106283 -0.001777 -0.097269
   vertex 0.032508 0.025151 -0.097269
   vertex 0.032508 -0.001777 -0.097269
  endloop
 endfacet
 facet normal 0.000000 0.000000 -1.000000
  outer loop
   vertex 0.032508 0.025151 -0.097269
   vertex -0.106283 -0.001777 -0.097269
   vertex -0.106283 0.025151 -0.097269
  endloop
 endfacet
 facet normal 0.000000 0.291126 -0.956685
  outer loop
   vertex -0.106283 0.025151 -0.097269
   vertex 0.032508 0.050987 -0.089407
   vertex 0.032508 0.025151 -0.097269
  endloop
 endfacet
 facet normal 0.000000 0.291126 -0.956685
  outer loop
   vertex 0.032508 0.050987 -0.089407
   vertex -0.106283 0.025151 -0.097269
   vertex -0.106283 0.050987 -0.089407
  endloop
 endfacet
 facet normal 0.000000 0.554336 -0.832293
  outer loop
   vertex -0.106283 0.050987 -0.089407
   vertex 0.032508 0.073640 -0.074320
   vertex 0.032508 0.050987 -0.089407
  endloop
 endfacet
 facet normal 0.000000 0.554336 -0.832293
  outer loop
   vertex 0.032508 0.073640 -0.074320
   vertex -0.106283 0.050987 -0.089407
   vertex -0.106283 0.073640 -0.074320
  endloop
 endfacet
 facet normal 0.000000 0.767177 -0.641435
  outer loop
   vertex 0.032508 0.073640 -0.074320
   vertex -0.106283 0.091274 -0.053229
   vertex 0.032508 0.091274 -0.053229
  endloop
 endfacet
 facet normal 0.000000 0.767177 -0.641435
  outer loop
   vertex -0.106283 0.091274 -0.053229
   vertex 0.032508 0.073640 -0.074320
   vertex -0.106283 0.073640 -0.074320
  endloop
 endfacet
 facet normal 0.000000 0.915093 -0.403242
  outer loop
   vertex 0.032508 0.091274 -0.053229
   vertex -0.106283 0.102460 -0.027844
   vertex 0.032508 0.102460 -0.027844
  endloop
 endfacet
 facet normal 0.000000 0.915093 -0.403242
  outer loop
   vertex -0.106283 0.102460 -0.027844
   vertex 0.032508 0.091274 -0.053229
   vertex -0.106283 0.091274 -0.053229
  endloop
 endfacet
 facet normal 0.000000 0.990513 -0.137417
  outer loop
   vertex 0.032508 0.102460 -0.027844
   vertex -0.106283 0.106292 -0.000222
   vertex 0.032508 0.106292 -0.000222
  endloop
 endfacet
 facet normal 0.000000 0.990513 -0.137417
  outer loop
   vertex -0.106283 0.106292 -0.000222
   vertex 0.032508 0.102460 -0.027844
   vertex -0.106283 0.102460 -0.027844
  endloop
 endfacet
 facet normal 0.000000 0.990513 0.137417
  outer loop
   vertex 0.032508 0.106292 -0.000222
   vertex -0.106283 0.102460 0.027401
   vertex 0.032508 0.102460 0.027401
  endloop
 endfacet
 facet normal 0.000000 0.990513 0.137417
  outer loop
   vertex -0.106283 0.102460 0.027401
   vertex 0.032508 0.106292 -0.000222
   vertex -0.106283 0.106292 -0.000222
  endloop
 endfacet
 facet normal 0.000000 0.915093 0.403243
  outer loop
   vertex 0.032508 0.102460 0.027401
   vertex -0.106283 0.091274 0.052786
   vertex 0.032508 0.091274 0.052786
  endloop
 endfacet
 facet normal 0.000000 0.915093 0.403243
  outer loop
   vertex -0.106283 0.091274 0.052786
   vertex 0.032508 0.102460 0.027401
   vertex -0.106283 0.102460 0.027401
  endloop
 endfacet
 facet normal 0.000000 0.767177 0.641436
  outer loop
   vertex 0.032508 0.091274 0.052786
   vertex -0.106283 0.073640 0.073877
   vertex 0.032508 0.073640 0.073877
  endloop
 endfacet
 facet normal 0.000000 0.767177 0.641436
  outer loop
   vertex -0.106283 0.073640 0.073877
   vertex 0.032508 0.091274 0.052786
   vertex -0.106283 0.091274 0.052786
  endloop
 endfacet
 facet normal 0.000000 0.554335 0.832294
  outer loop
   vertex -0.106283 0.073640 0.073877
   vertex 0.032508 0.050987 0.088964
   vertex 0.032508 0.073640 0.073877
  endloop
 endfacet
 facet normal 0.000000 0.554335 0.832294
  outer loop
   vertex 0.032508 0.050987 0.088964
   vertex -0.106283 0.073640 0.073877
   vertex -0.106283 0.050987 0.088964
  endloop
 endfacet
 facet normal 0.000000 0.291125 0.956685
  outer loop
   vertex -0.106283 0.050987 0.088964
   vertex 0.032508 0.025151 0.096826
   vertex 0.032508 0.050987 0.088964
  endloop
 endfacet
 facet normal 0.000000 0.291125 0.956685
  outer loop
   vertex 0.032508 0.025151 0.096826
   vertex -0.106283 0.050987 0.088964
   vertex -0.106283 0.025151 0.096826
  endloop
 endfacet
 facet normal 0.000000 0.000000 1.000000
  outer loop
   vertex -0.106283 0.025151 0.096826
   vertex 0.032508 -0.001777 0.096826
   vertex 0.032508 0.025151 0.096826
  endloop
 endfacet
 facet normal 0.000000 0.000000 1.000000
  outer loop
   vertex 0.032508 -0.001777 0.096826
   vertex -0.106283 0.025151 0.096826
   vertex -0.106283 -0.001777 0.096826
  endloop
 endfacet
 facet normal -0.000000 -0.291123 0.956686
  outer loop
   vertex -0.106283 -0.001777 0.096826
   vertex 0.032508 -0.027614 0.088964
   vertex 0.032508 -0.001777 0.096826
  endloop
 endfacet
 facet normal -0.000000 -0.291123 0.956686
  outer loop
   vertex 0.032508 -0.027614 0.088964
   vertex -0.106283 -0.001777 0.096826
   vertex -0.106283 -0.027614 0.088964
  endloop
 endfacet
 facet normal -0.000000 -0.554335 0.832293
  outer loop
   vertex -0.106283 -0.027614 0.088964
   vertex 0.032508 -0.050266 0.073877
   vertex 0.032508 -0.027614 0.088964
  endloop
 endfacet
 facet normal -0.000000 -0.554335 0.832293
  outer loop
   vertex 0.032508 -0.050266 0.073877
   vertex -0.106283 -0.027614 0.088964
   vertex -0.106283 -0.050266 0.073877
  endloop
 endfacet
 facet normal -0.000000 -0.767177 0.641435
  outer loop
   vertex -0.106283 -0.067900 0.052786
   vertex 0.032508 -0.050266 0.073877
   vertex -0.106283 -0.050266 0.073877
  endloop
 endfacet
 facet normal -0.000000 -0.767177 0.641435
  outer loop
   vertex 0.032508 -0.050266 0.073877
   vertex -0.106283 -0.067900 0.052786
   vertex 0.032508 -0.067900 0.052786
  endloop
 endfacet
 facet normal 0.000000 -0.915093 0.403244
  outer loop
   vertex -0.106283 -0.079086 0.027401
   vertex 0.032508 -0.067900 0.052786
   vertex -0.106283 -0.067900 0.052786
  endloop
 endfacet
 facet normal 0.000000 -0.915093 0.403244
  outer loop
   vertex 0.032508 -0.067900 0.052786
   vertex -0.106283 -0.079086 0.027401
   vertex 0.032508 -0.079086 0.027401
  endloop
 endfacet
 facet normal 0.891398 0.000000 0.453221
  outer loop
   vertex 0.067334 0.057548 0.036839
   vertex 0.076328 0.196339 0.019149
   vertex 0.067334 0.196339 0.036839
  endloop
 endfacet
 facet normal 0.891398 0.000000 0.453221
  outer loop
   vertex 0.076328 0.196339 0.019149
   vertex 0.067334 0.057548 0.036839
   vertex 0.076328 0.057548 0.019149
  endloop
 endfacet
 facet normal 0.719695 0.000000 0.694290
  outer loop
   vertex 0.053155 0.057548 0.051536
   vertex 0.067334 0.196339 0.036839
   vertex 0.053155 0.196339 0.051536
  endloop
 endfacet
 facet normal 0.719695 0.000000 0.694290
  outer loop
   vertex 0.067334 0.196339 0.036839
   vertex 0.053155 0.057548 0.051536
   vertex 0.067334 0.057548 0.036839
  endloop
 endfacet
 facet normal 0.499932 0.000000 0.866064
  outer loop
   vertex 0.034941 0.196339 0.062050
   vertex 0.053155 0.057548 0.051536
   vertex 0.053155 0.196339 0.051536
  endloop
 endfacet
 facet normal 0.499932 0.000000 0.866064
  outer loop
   vertex 0.053155 0.057548 0.051536
   vertex 0.034941 0.196339 0.062050
   vertex 0.034941 0.057548 0.062050
  endloop
 endfacet
 facet normal 0.255018 0.000000 0.966936
  outer loop
   vertex 0.014167 0.196339 0.067529
   vertex 0.034941 0.057548 0.062050
   vertex 0.034941 0.196339 0.062050
  endloop
 endfacet
 facet normal 0.255018 0.000000 0.966936
  outer loop
   vertex 0.034941 0.057548 0.062050
   vertex 0.014167 0.196339 0.067529
   vertex 0.014167 0.057548 0.067529
  endloop
 endfacet
 facet normal 0.000000 0.000000 1.000000
  outer loop
   vertex -0.007484 0.196339 0.067529
   vertex 0.014167 0.057548 0.067529
   vertex 0.014167 0.196339 0.067529
  endloop
 endfacet
 facet normal 0.000000 0.000000 1.000000
  outer loop
   vertex 0.014167 0.057548 0.067529
   vertex -0.007484 0.196339 0.067529
   vertex -0.007484 0.057548 0.067529
  endloop
 endfacet
 facet normal -0.255019 0.000000 0.966936
  outer loop
   vertex -0.028258 0.196339 0.062050
   vertex -0.007484 0.057548 0.067529
   vertex -0.007484 0.196339 0.067529
  endloop
 endfacet
 facet normal -0.255019 0.000000 0.966936
  outer loop
   vertex -0.007484 0.057548 0.067529
   vertex -0.028258 0.196339 0.062050
   vertex -0.028258 0.057548 0.062050
  endloop
 endfacet
 facet normal -0.499932 0.000000 0.866065
  outer loop
   vertex -0.046472 0.196339 0.051536
   vertex -0.028258 0.057548 0.062050
   vertex -0.028258 0.196339 0.062050
  endloop
 endfacet
 facet normal -0.499932 0.000000 0.866065
  outer loop
   vertex -0.028258 0.057548 0.062050
   vertex -0.046472 0.196339 0.051536
   vertex -0.046472 0.057548 0.051536
  endloop
 endfacet
 facet normal -0.719695 0.000000 0.694291
  outer loop
   vertex -0.060651 0.057548 0.036839
   vertex -0.046472 0.196339 0.051536
   vertex -0.060651 0.196339 0.036839
  endloop
 endfacet
 facet normal -0.719695 0.000000 0.694291
  outer loop
   vertex -0.046472 0.196339 0.051536
   vertex -0.060651 0.057548 0.036839
   vertex -0.046472 0.057548 0.051536
  endloop
 endfacet
 facet normal -0.891399 0.000000 0.453220
  outer loop
   vertex -0.069645 0.057548 0.019149
   vertex -0.060651 0.196339 0.036839
   vertex -0.069645 0.196339 0.019149
  endloop
 endfacet
 facet normal -0.891399 0.000000 0.453220
  outer loop
   vertex -0.060651 0.196339 0.036839
   vertex -0.069645 0.057548 0.019149
   vertex -0.060651 0.057548 0.036839
  endloop
 endfacet
 facet normal -0.987430 0.000000 0.158060
  outer loop
   vertex -0.072726 0.057548 -0.000100
   vertex -0.069645 0.196339 0.019149
   vertex -0.072726 0.196339 -0.000100
  endloop
 endfacet
 facet normal -0.987430 0.000000 0.158060
  outer loop
   vertex -0.069645 0.196339 0.019149
   vertex -0.072726 0.057548 -0.000100
   vertex -0.069645 0.057548 0.019149
  endloop
 endfacet
 facet normal -0.987430 0.000000 -0.158060
  outer loop
   vertex -0.069645 0.057548 -0.019350
   vertex -0.072726 0.196339 -0.000100
   vertex -0.069645 0.196339 -0.019350
  endloop
 endfacet
 facet normal -0.987430 0.000000 -0.158060
  outer loop
   vertex -0.072726 0.196339 -0.000100
   vertex -0.069645 0.057548 -0.019350
   vertex -0.072726 0.057548 -0.000100
  endloop
 endfacet
 facet normal -0.891399 0.000000 -0.453219
  outer loop
   vertex -0.060651 0.057548 -0.037039
   vertex -0.069645 0.196339 -0.019350
   vertex -0.060651 0.196339 -0.037039
  endloop
 endfacet
 facet normal -0.891399 0.000000 -0.453219
  outer loop
   vertex -0.069645 0.196339 -0.019350
   vertex -0.060651 0.057548 -0.037039
   vertex -0.069645 0.057548 -0.019350
  endloop
 endfacet
 facet normal -0.719695 0.000000 -0.694290
  outer loop
   vertex -0.046472 0.057548 -0.051737
   vertex -0.060651 0.196339 -0.037039
   vertex -0.046472 0.196339 -0.051737
  endloop
 endfacet
 facet normal -0.719695 0.000000 -0.694290
  outer loop
   vertex -0.060651 0.196339 -0.037039
   vertex -0.046472 0.057548 -0.051737
   vertex -0.060651 0.057548 -0.037039
  endloop
 endfacet
 facet normal -0.499933 0.000000 -0.866064
  outer loop
   vertex -0.046472 0.057548 -0.051737
   vertex -0.028258 0.196339 -0.062251
   vertex -0.028258 0.057548 -0.062251
  endloop
 endfacet
 facet normal -0.499933 0.000000 -0.866064
  outer loop
   vertex -0.028258 0.196339 -0.062251
   vertex -0.046472 0.057548 -0.051737
   vertex -0.046472 0.196339 -0.051737
  endloop
 endfacet
 facet normal -0.255020 0.000000 -0.966936
  outer loop
   vertex -0.028258 0.057548 -0.062251
   vertex -0.007484 0.196339 -0.067730
   vertex -0.007484 0.057548 -0.067730
  endloop
 endfacet
 facet normal -0.255020 0.000000 -0.966936
  outer loop
   vertex -0.007484 0.196339 -0.067730
   vertex -0.028258 0.057548 -0.062251
   vertex -0.028258 0.196339 -0.062251
  endloop
 endfacet
 facet normal 0.000000 0.000000 -1.000000
  outer loop
   vertex -0.007484 0.057548 -0.067730
   vertex 0.014167 0.196339 -0.067730
   vertex 0.014167 0.057548 -0.067730
  endloop
 endfacet
 facet normal 0.000000 0.000000 -1.000000
  outer loop
   vertex 0.014167 0.196339 -0.067730
   vertex -0.007484 0.057548 -0.067730
   vertex -0.007484 0.196339 -0.067730
  endloop
 endfacet
 facet normal 0.255019 0.000000 -0.966936
  outer loop
   vertex 0.014167 0.057548 -0.067730
   vertex 0.034941 0.196339 -0.062251
   vertex 0.034941 0.057548 -0.062251
  endloop
 endfacet
 facet normal 0.255019 0.000000 -0.966936
  outer loop
   vertex 0.034941 0.196339 -0.062251
   vertex 0.014167 0.057548 -0.067730
   vertex 0.014167 0.196339 -0.067730
  endloop
 endfacet
 facet normal 0.499930 0.000000 -0.866066
  outer loop
   vertex 0.034941 0.057548 -0.062251
   vertex 0.053155 0.196339 -0.051737
   vertex 0.053155 0.057548 -0.051737
  endloop
 endfacet
 facet normal 0.499930 0.000000 -0.866066
  outer loop
   vertex 0.053155 0.196339 -0.051737
   vertex 0.034941 0.057548 -0.062251
   vertex 0.034941 0.196339 -0.062251
  endloop
 endfacet
 facet normal 0.719695 0.000000 -0.694291
  outer loop
   vertex 0.067334 0.057548 -0.037040
   vertex 0.053155 0.196339 -0.051737
   vertex 0.067334 0.196339 -0.037040
  endloop
 endfacet
 facet normal 0.719695 0.000000 -0.694291
  outer loop
   vertex 0.053155 0.196339 -0.051737
   vertex 0.067334 0.057548 -0.037040
   vertex 0.053155 0.057548 -0.051737
  endloop
 endfacet
 facet normal 0.891398 0.000000 -0.453221
  outer loop
   vertex 0.076328 0.057548 -0.019350
   vertex 0.067334 0.196339 -0.037040
   vertex 0.076328 0.196339 -0.019350
  endloop
 endfacet
 facet normal 0.891398 0.000000 -0.453221
  outer loop
   vertex 0.067334 0.196339 -0.037040
   vertex 0.076328 0.057548 -0.019350
   vertex 0.067334 0.057548 -0.037040
  endloop
 endfacet
 facet normal 0.987429 0.000000 -0.158060
  outer loop
   vertex 0.079409 0.057548 -0.000100
   vertex 0.076328 0.196339 -0.019350
   vertex 0.079409 0.196339 -0.000100
  endloop
 endfacet
 facet normal 0.987429 0.000000 -0.158060
  outer loop
   vertex 0.076328 0.196339 -0.019350
   vertex 0.079409 0.057548 -0.000100
   vertex 0.076328 0.057548 -0.019350
  endloop
 endfacet
 facet normal 0.987430 0.000000 0.158058
  outer loop
   vertex 0.076328 0.057548 0.019149
   vertex 0.079409 0.196339 -0.000100
   vertex 0.076328 0.196339 0.019149
  endloop
 endfacet
 facet normal 0.987430 0.000000 0.158058
  outer loop
   vertex 0.079409 0.196339 -0.000100
   vertex 0.076328 0.057548 0.019149
   vertex 0.079409 0.057548 -0.000100
  endloop
 endfacet
 facet normal 0.000000 1.000000 0.000000
  outer loop
   vertex 0.003341 0.196339 -0.000100
   vertex 0.067334 0.196339 0.036839
   vertex 0.076328 0.196339 0.019149
  endloop
 endfacet
 facet normal 0.000000 1.000000 0.000000
  outer loop
   vertex 0.003341 0.196339 -0.000100
   vertex 0.053155 0.196339 0.051536
   vertex 0.067334 0.196339 0.036839
  endloop
 endfacet
 facet normal 0.000000 1.000000 0.000000
  outer loop
   vertex 0.003341 0.196339 -0.000100
   vertex 0.034941 0.196339 0.062050
   vertex 0.053155 0.196339 0.051536
  endloop
 endfacet
 facet normal 0.000000 1.000000 0.000000
  outer loop
   vertex 0.003341 0.196339 -0.000100
   vertex 0.014167 0.196339 0.067529
   vertex 0.034941 0.196339 0.062050
  endloop
 endfacet
 facet normal 0.000000 1.000000 0.000000
  outer loop
   vertex 0.003341 0.196339 -0.000100
   vertex -0.007484 0.196339 0.067529
   vertex 0.014167 0.196339 0.067529
  endloop
 endfacet
 facet normal 0.000000 1.000000 0.000000
  outer loop
   vertex 0.003341 0.196339 -0.000100
   vertex -0.028258 0.196339 0.062050
   vertex -0.007484 0.196339 0.067529
  endloop
 endfacet
 facet normal 0.000000 1.000000 0.000000
  outer loop
   vertex 0.003341 0.196339 -0.000100
   vertex -0.046472 0.196339 0.051536
   vertex -0.028258 0.196339 0.062050
  endloop
 endfacet
 facet normal 0.000000 1.000000 0.000000
  outer loop
   vertex 0.003341 0.196339 -0.000100
   vertex -0.060651 0.196339 0.036839
   vertex -0.046472 0.196339 0.051536
  endloop
 endfacet
 facet normal 0.000000 1.000000 0.000000
  outer loop
   vertex 0.003341 0.196339 -0.000100
   vertex -0.069645 0.196339 0.019149
   vertex -0.060651 0.196339 0.036839
  endloop
 endfacet
 facet normal 0.000000 1.000000 0.000000
  outer loop
   vertex 0.003341 0.196339 -0.000100
   vertex -0.072726 0.196339 -0.000100
   vertex -0.069645 0.196339 0.019149
  endloop
 endfacet
 facet normal 0.000000 1.000000 0.000000
  outer loop
   vertex 0.003341 0.196339 -0.000100
   vertex -0.069645 0.196339 -0.019350
   vertex -0.072726 0.196339 -0.000100
  endloop
 endfacet
 facet normal 0.000000 1.000000 0.000000
  outer loop
   vertex 0.003341 0.196339 -0.000100
   vertex -0.060651 0.196339 -0.037039
   vertex -0.069645 0.196339 -0.019350
  endloop
 endfacet
 facet normal 0.000000 1.000000 0.000000
  outer loop
   vertex 0.003341 0.196339 -0.000100
   vertex -0.046472 0.196339 -0.051737
   vertex -0.060651 0.196339 -0.037039
  endloop
 endfacet
 facet normal 0.000000 1.000000 0.000000
  outer loop
   vertex 0.003341 0.196339 -0.000100
   vertex -0.028258 0.196339 -0.062251
   vertex -0.046472 0.196339 -0.051737
  endloop
 endfacet
 facet normal 0.000000 1.000000 0.000000
  outer loop
   vertex 0.003341 0.196339 -0.000100
   vertex -0.007484 0.196339 -0.067730
   vertex -0.028258 0.196339 -0.062251
  endloop
 endfacet
 facet normal 0.000000 1.000000 0.000000
  outer loop
   vertex 0.003341 0.196339 -0.000100
   vertex 0.014167 0.196339 -0.067730
   vertex -0.007484 0.196339 -0.067730
  endloop
 endfacet
 facet normal 0.000000 1.000000 0.000000
  outer loop
   vertex 0.003341 0.196339 -0.000100
   vertex 0.034941 0.196339 -0.062251
   vertex 0.014167 0.196339 -0.067730
  endloop
 endfacet
 facet normal 0.000000 1.000000 0.000000
  outer loop
   vertex 0.003341 0.196339 -0.000100
   vertex 0.053155 0.196339 -0.051737
   vertex 0.034941 0.196339 -0.062251
  endloop
 endfacet
 facet normal 0.000000 1.000000 0.000000
  outer loop
   vertex 0.003341 0.196339 -0.000100
   vertex 0.067334 0.196339 -0.037040
   vertex 0.053155 0.196339 -0.051737
  endloop
 endfacet
 facet normal 0.000000 1.000000 0.000000
  outer loop
   vertex 0.003341 0.196339 -0.000100
   vertex 0.076328 0.196339 -0.019350
   vertex 0.067334 0.196339 -0.037040
  endloop
 endfacet
 facet normal 0.000000 1.000000 0.000000
  outer loop
   vertex 0.003341 0.196339 -0.000100
   vertex 0.079409 0.196339 -0.000100
   vertex 0.076328 0.196339 -0.019350
  endloop
 endfacet
 facet normal 0.000000 1.000000 0.000000
  outer loop
   vertex 0.003341 0.196339 -0.000100
   vertex 0.076328 0.196339 0.019149
   vertex 0.079409 0.196339 -0.000100
  endloop
 endfacet
 facet normal 0.000000 -1.000000 0.000000
  outer loop
   vertex 0.003341 0.057548 -0.000100
   vertex 0.076328 0.057548 0.019149
   vertex 0.067334 0.057548 0.036839
  endloop
 endfacet
 facet normal 0.000000 -1.000000 0.000000
  outer loop
   vertex 0.003341 0.057548 -0.000100
   vertex 0.067334 0.057548 0.036839
   vertex 0.053155 0.057548 0.051536
  endloop
 endfacet
 facet normal 0.000000 -1.000000 0.000000
  outer loop
   vertex 0.003341 0.057548 -0.000100
   vertex 0.053155 0.057548 0.051536
   vertex 0.034941 0.057548 0.062050
  endloop
 endfacet
 facet normal 0.000000 -1.000000 0.000000
  outer loop
   vertex 0.003341 0.057548 -0.000100
   vertex 0.034941 0.057548 0.062050
   vertex 0.014167 0.057548 0.067529
  endloop
 endfacet
 facet normal 0.000000 -1.000000 0.000000
  outer loop
   vertex 0.003341 0.057548 -0.000100
   vertex 0.014167 0.057548 0.067529
   vertex -0.007484 0.057548 0.067529
  endloop
 endfacet
 facet normal 0.000000 -1.000000 0.000000
  outer loop
   vertex 0.003341 0.057548 -0.000100
   vertex -0.007484 0.057548 0.067529
   vertex -0.028258 0.057548 0.062050
  endloop
 endfacet
 facet normal 0.000000 -1.000000 0.000000
  outer loop
   vertex 0.003341 0.057548 -0.000100
   vertex -0.028258 0.057548 0.062050
   vertex -0.046472 0.057548 0.051536
  endloop
 endfacet
 facet normal 0.000000 -1.000000 0.000000
  outer loop
   vertex 0.003341 0.057548 -0.000100
   vertex -0.046472 0.057548 0.051536
   vertex -0.060651 0.057548 0.036839
  endloop
 endfacet
 facet normal 0.000000 -1.000000 0.000000
  outer loop
   vertex 0.003341 0.057548 -0.000100
   vertex -0.060651 0.057548 0.036839
   vertex -0.069645 0.057548 0.019149
  endloop
 endfacet
 facet normal 0.000000 -1.000000 0.000000
  outer loop
   vertex 0.003341 0.057548 -0.000100
   vertex -0.069645 0.057548 0.019149
   vertex -0.072726 0.057548 -0.000100
  endloop
 endfacet
 facet normal 0.000000 -1.000000 0.000000
  outer loop
   vertex 0.003341 0.057548 -0.000100
   vertex -0.072726 0.057548 -0.000100
   vertex -0.069645 0.057548 -0.019350
  endloop
 endfacet
 facet normal 0.000000 -1.000000 0.000000
  outer loop
   vertex 0.003341 0.057548 -0.000100
   vertex -0.069645 0.057548 -0.019350
   vertex -0.060651 0.057548 -0.037039
  endloop
 endfacet
 facet normal 0.000000 -1.000000 0.000000
  outer loop
   vertex 0.003341 0.057548 -0.000100
   vertex -0.060651 0.057548 -0.037039
   vertex -0.046472 0.057548 -0.051737
  endloop
 endfacet
 facet normal 0.000000 -1.000000 0.000000
  outer loop
   vertex 0.003341 0.057548 -0.000100
   vertex -0.046472 0.057548 -0.051737
   vertex -0.028258 0.057548 -0.062251
  endloop
 endfacet
 facet normal 0.000000 -1.000000 0.000000
  outer loop
   vertex 0.003341 0.057548 -0.000100
   vertex -0.028258 0.057548 -0.062251
   vertex -0.007484 0.057548 -0.067730
  endloop
 endfacet
 facet normal 0.000000 -1.000000 0.000000
  outer loop
   vertex 0.003341 0.057548 -0.000100
   vertex -0.007484 0.057548 -0.067730
   vertex 0.014167 0.057548 -0.067730
  endloop
 endfacet
 facet normal 0.000000 -1.000000 0.000000
  outer loop
   vertex 0.003341 0.057548 -0.000100
   vertex 0.014167 0.057548 -0.067730
   vertex 0.034941 0.057548 -0.062251
  endloop
 endfacet
 facet normal 0.000000 -1.000000 0.000000
  outer loop
   vertex 0.003341 0.057548 -0.000100
   vertex 0.034941 0.057548 -0.062251
   vertex 0.053155 0.057548 -0.051737
  endloop
 endfacet
 facet normal 0.000000 -1.000000 0.000000
  outer loop
   vertex 0.003341 0.057548 -0.000100
   vertex 0.053155 0.057548 -0.051737
   vertex 0.067334 0.057548 -0.037040
  endloop
 endfacet
 facet normal 0.000000 -1.000000 0.000000
  outer loop
   vertex 0.003341 0.057548 -0.000100
   vertex 0.067334 0.057548 -0.037040
   vertex 0.076328 0.057548 -0.019350
  endloop
 endfacet
 facet normal 0.000000 -1.000000 0.000000
  outer loop
   vertex 0.003341 0.057548 -0.000100
   vertex 0.076328 0.057548 -0.019350
   vertex 0.079409 0.057548 -0.000100
  endloop
 endfacet
 facet normal 0.000000 -1.000000 0.000000
  outer loop
   vertex 0.003341 0.057548 -0.000100
   vertex 0.079409 0.057548 -0.000100
   vertex 0.076328 0.057548 0.019149
  endloop
 endfacet
endsolid
