solid stl file generated from AC3D
 facet normal 0.000000 1.000000 0.000000
  outer loop
   vertex 0.003168 0.096412 0.000894
   vertex 0.003168 0.096412 0.063725
   vertex 0.020601 0.096412 0.061180
  endloop
 endfacet
 facet normal 0.000000 1.000000 0.000000
  outer loop
   vertex 0.003168 0.096412 0.000894
   vertex -0.014265 0.096412 0.061180
   vertex 0.003168 0.096412 0.063725
  endloop
 endfacet
 facet normal 0.000000 1.000000 0.000000
  outer loop
   vertex 0.003168 0.096412 0.000894
   vertex -0.030285 0.096412 0.053751
   vertex -0.014265 0.096412 0.061180
  endloop
 endfacet
 facet normal 0.000000 1.000000 0.000000
  outer loop
   vertex 0.003168 0.096412 0.000894
   vertex -0.043596 0.096412 0.042040
   vertex -0.030285 0.096412 0.053751
  endloop
 endfacet
 facet normal 0.000000 1.000000 0.000000
  outer loop
   vertex 0.003168 0.096412 0.000894
   vertex -0.053118 0.096412 0.026995
   vertex -0.043596 0.096412 0.042040
  endloop
 endfacet
 facet normal 0.000000 1.000000 0.000000
  outer loop
   vertex 0.003168 0.096412 0.000894
   vertex -0.058079 0.096412 0.009836
   vertex -0.053118 0.096412 0.026995
  endloop
 endfacet
 facet normal 0.000000 1.000000 0.000000
  outer loop
   vertex 0.003168 0.096412 0.000894
   vertex -0.058079 0.096412 -0.008048
   vertex -0.058079 0.096412 0.009836
  endloop
 endfacet
 facet normal 0.000000 1.000000 0.000000
  outer loop
   vertex 0.003168 0.096412 0.000894
   vertex -0.053118 0.096412 -0.025207
   vertex -0.058079 0.096412 -0.008048
  endloop
 endfacet
 facet normal 0.000000 1.000000 0.000000
  outer loop
   vertex 0.003168 0.096412 0.000894
   vertex -0.043596 0.096412 -0.040252
   vertex -0.053118 0.096412 -0.025207
  endloop
 endfacet
 facet normal 0.000000 1.000000 0.000000
  outer loop
   vertex 0.003168 0.096412 0.000894
   vertex -0.030285 0.096412 -0.051963
   vertex -0.043596 0.096412 -0.040252
  endloop
 endfacet
 facet normal 0.000000 1.000000 0.000000
  outer loop
   vertex 0.003168 0.096412 0.000894
   vertex -0.014265 0.096412 -0.059392
   vertex -0.030285 0.096412 -0.051963
  endloop
 endfacet
 facet normal 0.000000 1.000000 0.000000
  outer loop
   vertex 0.003168 0.096412 0.000894
   vertex 0.003168 0.096412 -0.061937
   vertex -0.014265 0.096412 -0.059392
  endloop
 endfacet
 facet normal 0.000000 1.000000 0.000000
  outer loop
   vertex 0.003168 0.096412 0.000894
   vertex 0.020601 0.096412 -0.059392
   vertex 0.003168 0.096412 -0.061937
  endloop
 endfacet
 facet normal 0.000000 1.000000 0.000000
  outer loop
   vertex 0.003168 0.096412 0.000894
   vertex 0.036621 0.096412 -0.051963
   vertex 0.020601 0.096412 -0.059392
  endloop
 endfacet
 facet normal 0.000000 1.000000 0.000000
  outer loop
   vertex 0.003168 0.096412 0.000894
   vertex 0.049932 0.096412 -0.040252
   vertex 0.036621 0.096412 -0.051963
  endloop
 endfacet
 facet normal 0.000000 1.000000 0.000000
  outer loop
   vertex 0.003168 0.096412 0.000894
   vertex 0.059453 0.096412 -0.025207
   vertex 0.049932 0.096412 -0.040252
  endloop
 endfacet
 facet normal 0.000000 1.000000 0.000000
  outer loop
   vertex 0.003168 0.096412 0.000894
   vertex 0.064415 0.096412 -0.008048
   vertex 0.059453 0.096412 -0.025207
  endloop
 endfacet
 facet normal 0.000000 1.000000 0.000000
  outer loop
   vertex 0.003168 0.096412 0.000894
   vertex 0.064415 0.096412 0.009836
   vertex 0.064415 0.096412 -0.008048
  endloop
 endfacet
 facet normal 0.000000 1.000000 0.000000
  outer loop
   vertex 0.003168 0.096412 0.000894
   vertex 0.059453 0.096412 0.026995
   vertex 0.064415 0.096412 0.009836
  endloop
 endfacet
 facet normal 0.000000 1.000000 0.000000
  outer loop
   vertex 0.003168 0.096412 0.000894
   vertex 0.049932 0.096412 0.042040
   vertex 0.059453 0.096412 0.026995
  endloop
 endfacet
 facet normal 0.000000 1.000000 0.000000
  outer loop
   vertex 0.003168 0.096412 0.000894
   vertex 0.036621 0.096412 0.053751
   vertex 0.049932 0.096412 0.042040
  endloop
 endfacet
 facet normal 0.000000 1.000000 0.000000
  outer loop
   vertex 0.003168 0.096412 0.000894
   vertex 0.020601 0.096412 0.061180
   vertex 0.036621 0.096412 0.053751
  endloop
 endfacet
 facet normal 0.000000 -1.000000 0.000000
  outer loop
   vertex 0.003168 -0.012355 0.000894
   vertex 0.020601 -0.012355 0.061180
   vertex 0.003168 -0.012355 0.063725
  endloop
 endfacet
 facet normal 0.000000 -1.000000 0.000000
  outer loop
   vertex 0.003168 -0.012355 0.000894
   vertex 0.003168 -0.012355 0.063725
   vertex -0.014265 -0.012355 0.061180
  endloop
 endfacet
 facet normal 0.000000 -1.000000 0.000000
  outer loop
   vertex 0.003168 -0.012355 0.000894
   vertex -0.014265 -0.012355 0.061180
   vertex -0.030286 -0.012355 0.053751
  endloop
 endfacet
 facet normal 0.000000 -1.000000 0.000000
  outer loop
   vertex 0.003168 -0.012355 0.000894
   vertex -0.030286 -0.012355 0.053751
   vertex -0.043596 -0.012355 0.042040
  endloop
 endfacet
 facet normal 0.000000 -1.000000 0.000000
  outer loop
   vertex 0.003168 -0.012355 0.000894
   vertex -0.043596 -0.012355 0.042040
   vertex -0.053118 -0.012355 0.026995
  endloop
 endfacet
 facet normal 0.000000 -1.000000 0.000000
  outer loop
   vertex 0.003168 -0.012355 0.000894
   vertex -0.053118 -0.012355 0.026995
   vertex -0.058079 -0.012355 0.009836
  endloop
 endfacet
 facet normal 0.000000 -1.000000 0.000000
  outer loop
   vertex 0.003168 -0.012355 0.000894
   vertex -0.058079 -0.012355 0.009836
   vertex -0.058079 -0.012355 -0.008048
  endloop
 endfacet
 facet normal 0.000000 -1.000000 0.000000
  outer loop
   vertex 0.003168 -0.012355 0.000894
   vertex -0.058079 -0.012355 -0.008048
   vertex -0.053118 -0.012355 -0.025207
  endloop
 endfacet
 facet normal 0.000000 -1.000000 0.000000
  outer loop
   vertex 0.003168 -0.012355 0.000894
   vertex -0.053118 -0.012355 -0.025207
   vertex -0.043596 -0.012355 -0.040252
  endloop
 endfacet
 facet normal 0.000000 -1.000000 0.000000
  outer loop
   vertex 0.003168 -0.012355 0.000894
   vertex -0.043596 -0.012355 -0.040252
   vertex -0.030285 -0.012355 -0.051963
  endloop
 endfacet
 facet normal 0.000000 -1.000000 0.000000
  outer loop
   vertex 0.003168 -0.012355 0.000894
   vertex -0.030285 -0.012355 -0.051963
   vertex -0.014265 -0.012355 -0.059392
  endloop
 endfacet
 facet normal 0.000000 -1.000000 0.000000
  outer loop
   vertex 0.003168 -0.012355 0.000894
   vertex -0.014265 -0.012355 -0.059392
   vertex 0.003168 -0.012355 -0.061937
  endloop
 endfacet
 facet normal 0.000000 -1.000000 0.000000
  outer loop
   vertex 0.003168 -0.012355 0.000894
   vertex 0.003168 -0.012355 -0.061937
   vertex 0.020601 -0.012355 -0.059392
  endloop
 endfacet
 facet normal 0.000000 -1.000000 0.000000
  outer loop
   vertex 0.003168 -0.012355 0.000894
   vertex 0.020601 -0.012355 -0.059392
   vertex 0.036621 -0.012355 -0.051963
  endloop
 endfacet
 facet normal -0.000000 -1.000000 -0.000000
  outer loop
   vertex 0.003168 -0.012355 0.000894
   vertex 0.036621 -0.012355 -0.051963
   vertex 0.049932 -0.012355 -0.040252
  endloop
 endfacet
 facet normal -0.000000 -1.000000 0.000000
  outer loop
   vertex 0.003168 -0.012355 0.000894
   vertex 0.049932 -0.012355 -0.040252
   vertex 0.059453 -0.012355 -0.025207
  endloop
 endfacet
 facet normal -0.000000 -1.000000 0.000000
  outer loop
   vertex 0.003168 -0.012355 0.000894
   vertex 0.059453 -0.012355 -0.025207
   vertex 0.064415 -0.012355 -0.008048
  endloop
 endfacet
 facet normal -0.000000 -1.000000 0.000000
  outer loop
   vertex 0.003168 -0.012355 0.000894
   vertex 0.064415 -0.012355 -0.008048
   vertex 0.064415 -0.012355 0.009836
  endloop
 endfacet
 facet normal -0.000000 -1.000000 -0.000000
  outer loop
   vertex 0.003168 -0.012355 0.000894
   vertex 0.064415 -0.012355 0.009836
   vertex 0.059453 -0.012355 0.026995
  endloop
 endfacet
 facet normal -0.000000 -1.000000 -0.000000
  outer loop
   vertex 0.003168 -0.012355 0.000894
   vertex 0.059453 -0.012355 0.026995
   vertex 0.049932 -0.012355 0.042040
  endloop
 endfacet
 facet normal -0.000000 -1.000000 0.000000
  outer loop
   vertex 0.003168 -0.012355 0.000894
   vertex 0.049932 -0.012355 0.042040
   vertex 0.036621 -0.012355 0.053751
  endloop
 endfacet
 facet normal 0.000000 -1.000000 0.000000
  outer loop
   vertex 0.003168 -0.012355 0.000894
   vertex 0.036621 -0.012355 0.053751
   vertex 0.020601 -0.012355 0.061180
  endloop
 endfacet
 facet normal 0.144463 -0.000000 0.989510
  outer loop
   vertex 0.003168 0.096412 0.063725
   vertex 0.020601 -0.012355 0.061180
   vertex 0.020601 0.096412 0.061180
  endloop
 endfacet
 facet normal 0.144463 -0.000000 0.989510
  outer loop
   vertex 0.020601 -0.012355 0.061180
   vertex 0.003168 0.096412 0.063725
   vertex 0.003168 -0.012355 0.063725
  endloop
 endfacet
 facet normal -0.144465 0.000000 0.989510
  outer loop
   vertex -0.014265 0.096412 0.061180
   vertex 0.003168 -0.012355 0.063725
   vertex 0.003168 0.096412 0.063725
  endloop
 endfacet
 facet normal -0.144465 0.000000 0.989510
  outer loop
   vertex 0.003168 -0.012355 0.063725
   vertex -0.014265 0.096412 0.061180
   vertex -0.014265 -0.012355 0.061180
  endloop
 endfacet
 facet normal -0.420695 0.000000 0.907202
  outer loop
   vertex -0.030285 0.096412 0.053751
   vertex -0.014265 -0.012355 0.061180
   vertex -0.014265 0.096412 0.061180
  endloop
 endfacet
 facet normal -0.420695 0.000000 0.907202
  outer loop
   vertex -0.014265 -0.012355 0.061180
   vertex -0.030285 0.096412 0.053751
   vertex -0.030286 -0.012355 0.053751
  endloop
 endfacet
 facet normal -0.660573 0.000000 0.750762
  outer loop
   vertex -0.043596 0.096412 0.042040
   vertex -0.030286 -0.012355 0.053751
   vertex -0.030285 0.096412 0.053751
  endloop
 endfacet
 facet normal -0.660573 0.000000 0.750762
  outer loop
   vertex -0.030286 -0.012355 0.053751
   vertex -0.043596 0.096412 0.042040
   vertex -0.043596 -0.012355 0.042040
  endloop
 endfacet
 facet normal -0.844984 0.000000 0.534791
  outer loop
   vertex -0.053118 -0.012355 0.026995
   vertex -0.043596 0.096412 0.042040
   vertex -0.053118 0.096412 0.026995
  endloop
 endfacet
 facet normal -0.844984 0.000000 0.534791
  outer loop
   vertex -0.043596 0.096412 0.042040
   vertex -0.053118 -0.012355 0.026995
   vertex -0.043596 -0.012355 0.042040
  endloop
 endfacet
 facet normal -0.960643 0.000000 0.277786
  outer loop
   vertex -0.058079 -0.012355 0.009836
   vertex -0.053118 0.096412 0.026995
   vertex -0.058079 0.096412 0.009836
  endloop
 endfacet
 facet normal -0.960643 0.000000 0.277786
  outer loop
   vertex -0.053118 0.096412 0.026995
   vertex -0.058079 -0.012355 0.009836
   vertex -0.053118 -0.012355 0.026995
  endloop
 endfacet
 facet normal -1.000000 0.000000 0.000000
  outer loop
   vertex -0.058079 -0.012355 -0.008048
   vertex -0.058079 0.096412 0.009836
   vertex -0.058079 0.096412 -0.008048
  endloop
 endfacet
 facet normal -1.000000 0.000000 0.000000
  outer loop
   vertex -0.058079 0.096412 0.009836
   vertex -0.058079 -0.012355 -0.008048
   vertex -0.058079 -0.012355 0.009836
  endloop
 endfacet
 facet normal -0.960642 0.000000 -0.277788
  outer loop
   vertex -0.053118 -0.012355 -0.025207
   vertex -0.058079 0.096412 -0.008048
   vertex -0.053118 0.096412 -0.025207
  endloop
 endfacet
 facet normal -0.960642 0.000000 -0.277788
  outer loop
   vertex -0.058079 0.096412 -0.008048
   vertex -0.053118 -0.012355 -0.025207
   vertex -0.058079 -0.012355 -0.008048
  endloop
 endfacet
 facet normal -0.844984 0.000000 -0.534792
  outer loop
   vertex -0.043596 -0.012355 -0.040252
   vertex -0.053118 0.096412 -0.025207
   vertex -0.043596 0.096412 -0.040252
  endloop
 endfacet
 facet normal -0.844984 0.000000 -0.534792
  outer loop
   vertex -0.053118 0.096412 -0.025207
   vertex -0.043596 -0.012355 -0.040252
   vertex -0.053118 -0.012355 -0.025207
  endloop
 endfacet
 facet normal -0.660571 0.000000 -0.750763
  outer loop
   vertex -0.030285 -0.012355 -0.051963
   vertex -0.043596 0.096412 -0.040252
   vertex -0.030285 0.096412 -0.051963
  endloop
 endfacet
 facet normal -0.660571 0.000000 -0.750763
  outer loop
   vertex -0.043596 0.096412 -0.040252
   vertex -0.030285 -0.012355 -0.051963
   vertex -0.043596 -0.012355 -0.040252
  endloop
 endfacet
 facet normal -0.420694 0.000000 -0.907202
  outer loop
   vertex -0.014265 -0.012355 -0.059392
   vertex -0.030285 0.096412 -0.051963
   vertex -0.014265 0.096412 -0.059392
  endloop
 endfacet
 facet normal -0.420694 0.000000 -0.907202
  outer loop
   vertex -0.030285 0.096412 -0.051963
   vertex -0.014265 -0.012355 -0.059392
   vertex -0.030285 -0.012355 -0.051963
  endloop
 endfacet
 facet normal -0.144464 0.000000 -0.989510
  outer loop
   vertex 0.003168 -0.012355 -0.061937
   vertex -0.014265 0.096412 -0.059392
   vertex 0.003168 0.096412 -0.061937
  endloop
 endfacet
 facet normal -0.144464 0.000000 -0.989510
  outer loop
   vertex -0.014265 0.096412 -0.059392
   vertex 0.003168 -0.012355 -0.061937
   vertex -0.014265 -0.012355 -0.059392
  endloop
 endfacet
 facet normal 0.144464 -0.000000 -0.989510
  outer loop
   vertex 0.003168 -0.012355 -0.061937
   vertex 0.020601 0.096412 -0.059392
   vertex 0.020601 -0.012355 -0.059392
  endloop
 endfacet
 facet normal 0.144464 -0.000000 -0.989510
  outer loop
   vertex 0.020601 0.096412 -0.059392
   vertex 0.003168 -0.012355 -0.061937
   vertex 0.003168 0.096412 -0.061937
  endloop
 endfacet
 facet normal 0.420694 -0.000000 -0.907203
  outer loop
   vertex 0.020601 -0.012355 -0.059392
   vertex 0.036621 0.096412 -0.051963
   vertex 0.036621 -0.012355 -0.051963
  endloop
 endfacet
 facet normal 0.420694 -0.000000 -0.907203
  outer loop
   vertex 0.036621 0.096412 -0.051963
   vertex 0.020601 -0.012355 -0.059392
   vertex 0.020601 0.096412 -0.059392
  endloop
 endfacet
 facet normal 0.660572 -0.000000 -0.750763
  outer loop
   vertex 0.036621 -0.012355 -0.051963
   vertex 0.049932 0.096412 -0.040252
   vertex 0.049932 -0.012355 -0.040252
  endloop
 endfacet
 facet normal 0.660572 -0.000000 -0.750763
  outer loop
   vertex 0.049932 0.096412 -0.040252
   vertex 0.036621 -0.012355 -0.051963
   vertex 0.036621 0.096412 -0.051963
  endloop
 endfacet
 facet normal 0.844984 -0.000000 -0.534792
  outer loop
   vertex 0.059453 -0.012355 -0.025207
   vertex 0.049932 0.096412 -0.040252
   vertex 0.059453 0.096412 -0.025207
  endloop
 endfacet
 facet normal 0.844984 -0.000000 -0.534792
  outer loop
   vertex 0.049932 0.096412 -0.040252
   vertex 0.059453 -0.012355 -0.025207
   vertex 0.049932 -0.012355 -0.040252
  endloop
 endfacet
 facet normal 0.960643 0.000000 -0.277787
  outer loop
   vertex 0.064415 -0.012355 -0.008048
   vertex 0.059453 0.096412 -0.025207
   vertex 0.064415 0.096412 -0.008048
  endloop
 endfacet
 facet normal 0.960643 0.000000 -0.277787
  outer loop
   vertex 0.059453 0.096412 -0.025207
   vertex 0.064415 -0.012355 -0.008048
   vertex 0.059453 -0.012355 -0.025207
  endloop
 endfacet
 facet normal 1.000000 0.000000 0.000000
  outer loop
   vertex 0.064415 -0.012355 0.009836
   vertex 0.064415 0.096412 -0.008048
   vertex 0.064415 0.096412 0.009836
  endloop
 endfacet
 facet normal 1.000000 0.000000 0.000000
  outer loop
   vertex 0.064415 0.096412 -0.008048
   vertex 0.064415 -0.012355 0.009836
   vertex 0.064415 -0.012355 -0.008048
  endloop
 endfacet
 facet normal 0.960643 0.000000 0.277787
  outer loop
   vertex 0.059453 -0.012355 0.026995
   vertex 0.064415 0.096412 0.009836
   vertex 0.059453 0.096412 0.026995
  endloop
 endfacet
 facet normal 0.960643 0.000000 0.277787
  outer loop
   vertex 0.064415 0.096412 0.009836
   vertex 0.059453 -0.012355 0.026995
   vertex 0.064415 -0.012355 0.009836
  endloop
 endfacet
 facet normal 0.844984 -0.000000 0.534791
  outer loop
   vertex 0.049932 -0.012355 0.042040
   vertex 0.059453 0.096412 0.026995
   vertex 0.049932 0.096412 0.042040
  endloop
 endfacet
 facet normal 0.844984 -0.000000 0.534791
  outer loop
   vertex 0.059453 0.096412 0.026995
   vertex 0.049932 -0.012355 0.042040
   vertex 0.059453 -0.012355 0.026995
  endloop
 endfacet
 facet normal 0.660571 -0.000000 0.750764
  outer loop
   vertex 0.036621 0.096412 0.053751
   vertex 0.049932 -0.012355 0.042040
   vertex 0.049932 0.096412 0.042040
  endloop
 endfacet
 facet normal 0.660571 -0.000000 0.750764
  outer loop
   vertex 0.049932 -0.012355 0.042040
   vertex 0.036621 0.096412 0.053751
   vertex 0.036621 -0.012355 0.053751
  endloop
 endfacet
 facet normal 0.420695 -0.000000 0.907202
  outer loop
   vertex 0.020601 0.096412 0.061180
   vertex 0.036621 -0.012355 0.053751
   vertex 0.036621 0.096412 0.053751
  endloop
 endfacet
 facet normal 0.420695 -0.000000 0.907202
  outer loop
   vertex 0.036621 -0.012355 0.053751
   vertex 0.020601 0.096412 0.061180
   vertex 0.020601 -0.012355 0.061180
  endloop
 endfacet
 facet normal 0.000000 0.420695 0.907202
  outer loop
   vertex -0.020064 0.148345 0.053751
   vertex 0.089759 0.132325 0.061180
   vertex 0.089759 0.148345 0.053751
  endloop
 endfacet
 facet normal 0.000000 0.420695 0.907202
  outer loop
   vertex 0.089759 0.132325 0.061180
   vertex -0.020064 0.148345 0.053751
   vertex -0.020064 0.132325 0.061180
  endloop
 endfacet
 facet normal 0.000000 0.660571 0.750763
  outer loop
   vertex -0.020064 0.161655 0.042040
   vertex 0.089759 0.148345 0.053751
   vertex 0.089759 0.161655 0.042040
  endloop
 endfacet
 facet normal 0.000000 0.660571 0.750763
  outer loop
   vertex 0.089759 0.148345 0.053751
   vertex -0.020064 0.161655 0.042040
   vertex -0.020064 0.148345 0.053751
  endloop
 endfacet
 facet normal 0.000000 0.844984 0.534791
  outer loop
   vertex 0.089759 0.171177 0.026995
   vertex -0.020064 0.161655 0.042040
   vertex 0.089759 0.161655 0.042040
  endloop
 endfacet
 facet normal 0.000000 0.844984 0.534791
  outer loop
   vertex -0.020064 0.161655 0.042040
   vertex 0.089759 0.171177 0.026995
   vertex -0.020064 0.171177 0.026995
  endloop
 endfacet
 facet normal 0.000000 0.960643 0.277787
  outer loop
   vertex 0.089759 0.176139 0.009836
   vertex -0.020064 0.171177 0.026995
   vertex 0.089759 0.171177 0.026995
  endloop
 endfacet
 facet normal 0.000000 0.960643 0.277787
  outer loop
   vertex -0.020064 0.171177 0.026995
   vertex 0.089759 0.176139 0.009836
   vertex -0.020064 0.176139 0.009836
  endloop
 endfacet
 facet normal 0.000000 1.000000 0.000000
  outer loop
   vertex 0.089759 0.176139 -0.008048
   vertex -0.020064 0.176139 0.009836
   vertex 0.089759 0.176139 0.009836
  endloop
 endfacet
 facet normal 0.000000 1.000000 0.000000
  outer loop
   vertex -0.020064 0.176139 0.009836
   vertex 0.089759 0.176139 -0.008048
   vertex -0.020064 0.176139 -0.008048
  endloop
 endfacet
 facet normal 0.000000 0.960643 -0.277787
  outer loop
   vertex 0.089759 0.171177 -0.025207
   vertex -0.020064 0.176139 -0.008048
   vertex 0.089759 0.176139 -0.008048
  endloop
 endfacet
 facet normal 0.000000 0.960643 -0.277787
  outer loop
   vertex -0.020064 0.176139 -0.008048
   vertex 0.089759 0.171177 -0.025207
   vertex -0.020064 0.171177 -0.025207
  endloop
 endfacet
 facet normal 0.000000 0.844983 -0.534793
  outer loop
   vertex 0.089759 0.161655 -0.040252
   vertex -0.020064 0.171177 -0.025207
   vertex 0.089759 0.171177 -0.025207
  endloop
 endfacet
 facet normal 0.000000 0.844983 -0.534793
  outer loop
   vertex -0.020064 0.171177 -0.025207
   vertex 0.089759 0.161655 -0.040252
   vertex -0.020064 0.161655 -0.040252
  endloop
 endfacet
 facet normal 0.000000 0.660572 -0.750763
  outer loop
   vertex -0.020064 0.148345 -0.051963
   vertex 0.089759 0.161655 -0.040252
   vertex 0.089759 0.148345 -0.051963
  endloop
 endfacet
 facet normal 0.000000 0.660572 -0.750763
  outer loop
   vertex 0.089759 0.161655 -0.040252
   vertex -0.020064 0.148345 -0.051963
   vertex -0.020064 0.161655 -0.040252
  endloop
 endfacet
 facet normal 0.000000 0.420694 -0.907202
  outer loop
   vertex -0.020064 0.132325 -0.059392
   vertex 0.089759 0.148345 -0.051963
   vertex 0.089759 0.132325 -0.059392
  endloop
 endfacet
 facet normal 0.000000 0.420694 -0.907202
  outer loop
   vertex 0.089759 0.148345 -0.051963
   vertex -0.020064 0.132325 -0.059392
   vertex -0.020064 0.148345 -0.051963
  endloop
 endfacet
 facet normal 0.000000 0.144464 -0.989510
  outer loop
   vertex -0.020064 0.114892 -0.061937
   vertex 0.089759 0.132325 -0.059392
   vertex 0.089759 0.114892 -0.061937
  endloop
 endfacet
 facet normal 0.000000 0.144464 -0.989510
  outer loop
   vertex 0.089759 0.132325 -0.059392
   vertex -0.020064 0.114892 -0.061937
   vertex -0.020064 0.132325 -0.059392
  endloop
 endfacet
 facet normal 0.000000 -0.144464 -0.989510
  outer loop
   vertex -0.020064 0.097459 -0.059392
   vertex 0.089759 0.114892 -0.061937
   vertex 0.089759 0.097459 -0.059392
  endloop
 endfacet
 facet normal 0.000000 -0.144464 -0.989510
  outer loop
   vertex 0.089759 0.114892 -0.061937
   vertex -0.020064 0.097459 -0.059392
   vertex -0.020064 0.114892 -0.061937
  endloop
 endfacet
 facet normal 0.000000 -0.420694 -0.907202
  outer loop
   vertex -0.020064 0.081438 -0.051963
   vertex 0.089759 0.097459 -0.059392
   vertex 0.089759 0.081438 -0.051963
  endloop
 endfacet
 facet normal 0.000000 -0.420694 -0.907202
  outer loop
   vertex 0.089759 0.097459 -0.059392
   vertex -0.020064 0.081438 -0.051963
   vertex -0.020064 0.097459 -0.059392
  endloop
 endfacet
 facet normal 0.000000 -0.660571 -0.750763
  outer loop
   vertex -0.020064 0.068128 -0.040252
   vertex 0.089759 0.081438 -0.051963
   vertex 0.089759 0.068128 -0.040252
  endloop
 endfacet
 facet normal 0.000000 -0.660571 -0.750763
  outer loop
   vertex 0.089759 0.081438 -0.051963
   vertex -0.020064 0.068128 -0.040252
   vertex -0.020064 0.081438 -0.051963
  endloop
 endfacet
 facet normal 0.000000 -0.844984 -0.534792
  outer loop
   vertex -0.020064 0.068128 -0.040252
   vertex 0.089759 0.058606 -0.025207
   vertex -0.020064 0.058606 -0.025207
  endloop
 endfacet
 facet normal 0.000000 -0.844984 -0.534792
  outer loop
   vertex 0.089759 0.058606 -0.025207
   vertex -0.020064 0.068128 -0.040252
   vertex 0.089759 0.068128 -0.040252
  endloop
 endfacet
 facet normal 0.000000 -0.960643 -0.277788
  outer loop
   vertex -0.020064 0.058606 -0.025207
   vertex 0.089759 0.053644 -0.008048
   vertex -0.020064 0.053644 -0.008048
  endloop
 endfacet
 facet normal 0.000000 -0.960643 -0.277788
  outer loop
   vertex 0.089759 0.053644 -0.008048
   vertex -0.020064 0.058606 -0.025207
   vertex 0.089759 0.058606 -0.025207
  endloop
 endfacet
 facet normal 0.000000 -1.000000 0.000000
  outer loop
   vertex -0.020064 0.053644 -0.008048
   vertex 0.089759 0.053644 0.009836
   vertex -0.020064 0.053644 0.009836
  endloop
 endfacet
 facet normal 0.000000 -1.000000 0.000000
  outer loop
   vertex 0.089759 0.053644 0.009836
   vertex -0.020064 0.053644 -0.008048
   vertex 0.089759 0.053644 -0.008048
  endloop
 endfacet
 facet normal 0.000000 -0.960643 0.277786
  outer loop
   vertex -0.020064 0.053644 0.009836
   vertex 0.089759 0.058606 0.026995
   vertex -0.020064 0.058606 0.026995
  endloop
 endfacet
 facet normal 0.000000 -0.960643 0.277786
  outer loop
   vertex 0.089759 0.058606 0.026995
   vertex -0.020064 0.053644 0.009836
   vertex 0.089759 0.053644 0.009836
  endloop
 endfacet
 facet normal 0.000000 -0.844984 0.534791
  outer loop
   vertex -0.020064 0.058606 0.026995
   vertex 0.089759 0.068128 0.042040
   vertex -0.020064 0.068128 0.042040
  endloop
 endfacet
 facet normal 0.000000 -0.844984 0.534791
  outer loop
   vertex 0.089759 0.068128 0.042040
   vertex -0.020064 0.058606 0.026995
   vertex 0.089759 0.058606 0.026995
  endloop
 endfacet
 facet normal 0.000000 -0.660573 0.750762
  outer loop
   vertex -0.020064 0.081438 0.053751
   vertex 0.089759 0.068128 0.042040
   vertex 0.089759 0.081438 0.053751
  endloop
 endfacet
 facet normal 0.000000 -0.660573 0.750762
  outer loop
   vertex 0.089759 0.068128 0.042040
   vertex -0.020064 0.081438 0.053751
   vertex -0.020064 0.068128 0.042040
  endloop
 endfacet
 facet normal 0.000000 -0.420695 0.907202
  outer loop
   vertex -0.020064 0.097459 0.061180
   vertex 0.089759 0.081438 0.053751
   vertex 0.089759 0.097459 0.061180
  endloop
 endfacet
 facet normal 0.000000 -0.420695 0.907202
  outer loop
   vertex 0.089759 0.081438 0.053751
   vertex -0.020064 0.097459 0.061180
   vertex -0.020064 0.081438 0.053751
  endloop
 endfacet
 facet normal 0.000000 -0.144465 0.989510
  outer loop
   vertex -0.020064 0.114892 0.063725
   vertex 0.089759 0.097459 0.061180
   vertex 0.089759 0.114892 0.063725
  endloop
 endfacet
 facet normal 0.000000 -0.144465 0.989510
  outer loop
   vertex 0.089759 0.097459 0.061180
   vertex -0.020064 0.114892 0.063725
   vertex -0.020064 0.097459 0.061180
  endloop
 endfacet
 facet normal 0.000000 0.144463 0.989510
  outer loop
   vertex -0.020064 0.132325 0.061180
   vertex 0.089759 0.114892 0.063725
   vertex 0.089759 0.132325 0.061180
  endloop
 endfacet
 facet normal 0.000000 0.144463 0.989510
  outer loop
   vertex 0.089759 0.114892 0.063725
   vertex -0.020064 0.132325 0.061180
   vertex -0.020064 0.114892 0.063725
  endloop
 endfacet
 facet normal 1.000000 0.000000 0.000000
  outer loop
   vertex 0.089759 0.114892 0.000894
   vertex 0.089759 0.148345 0.053751
   vertex 0.089759 0.132325 0.061180
  endloop
 endfacet
 facet normal 1.000000 0.000000 0.000000
  outer loop
   vertex 0.089759 0.114892 0.000894
   vertex 0.089759 0.161655 0.042040
   vertex 0.089759 0.148345 0.053751
  endloop
 endfacet
 facet normal 1.000000 0.000000 0.000000
  outer loop
   vertex 0.089759 0.114892 0.000894
   vertex 0.089759 0.171177 0.026995
   vertex 0.089759 0.161655 0.042040
  endloop
 endfacet
 facet normal 1.000000 0.000000 0.000000
  outer loop
   vertex 0.089759 0.114892 0.000894
   vertex 0.089759 0.176139 0.009836
   vertex 0.089759 0.171177 0.026995
  endloop
 endfacet
 facet normal 1.000000 0.000000 0.000000
  outer loop
   vertex 0.089759 0.114892 0.000894
   vertex 0.089759 0.176139 -0.008048
   vertex 0.089759 0.176139 0.009836
  endloop
 endfacet
 facet normal 1.000000 0.000000 0.000000
  outer loop
   vertex 0.089759 0.114892 0.000894
   vertex 0.089759 0.171177 -0.025207
   vertex 0.089759 0.176139 -0.008048
  endloop
 endfacet
 facet normal 1.000000 0.000000 0.000000
  outer loop
   vertex 0.089759 0.114892 0.000894
   vertex 0.089759 0.161655 -0.040252
   vertex 0.089759 0.171177 -0.025207
  endloop
 endfacet
 facet normal 1.000000 0.000000 0.000000
  outer loop
   vertex 0.089759 0.114892 0.000894
   vertex 0.089759 0.148345 -0.051963
   vertex 0.089759 0.161655 -0.040252
  endloop
 endfacet
 facet normal 1.000000 0.000000 0.000000
  outer loop
   vertex 0.089759 0.114892 0.000894
   vertex 0.089759 0.132325 -0.059392
   vertex 0.089759 0.148345 -0.051963
  endloop
 endfacet
 facet normal 1.000000 0.000000 0.000000
  outer loop
   vertex 0.089759 0.114892 0.000894
   vertex 0.089759 0.114892 -0.061937
   vertex 0.089759 0.132325 -0.059392
  endloop
 endfacet
 facet normal 1.000000 0.000000 0.000000
  outer loop
   vertex 0.089759 0.114892 0.000894
   vertex 0.089759 0.097459 -0.059392
   vertex 0.089759 0.114892 -0.061937
  endloop
 endfacet
 facet normal 1.000000 0.000000 0.000000
  outer loop
   vertex 0.089759 0.114892 0.000894
   vertex 0.089759 0.081438 -0.051963
   vertex 0.089759 0.097459 -0.059392
  endloop
 endfacet
 facet normal 1.000000 0.000000 0.000000
  outer loop
   vertex 0.089759 0.114892 0.000894
   vertex 0.089759 0.068128 -0.040252
   vertex 0.089759 0.081438 -0.051963
  endloop
 endfacet
 facet normal 1.000000 0.000000 0.000000
  outer loop
   vertex 0.089759 0.114892 0.000894
   vertex 0.089759 0.058606 -0.025207
   vertex 0.089759 0.068128 -0.040252
  endloop
 endfacet
 facet normal 1.000000 0.000000 0.000000
  outer loop
   vertex 0.089759 0.114892 0.000894
   vertex 0.089759 0.053644 -0.008048
   vertex 0.089759 0.058606 -0.025207
  endloop
 endfacet
 facet normal 1.000000 0.000000 0.000000
  outer loop
   vertex 0.089759 0.114892 0.000894
   vertex 0.089759 0.053644 0.009836
   vertex 0.089759 0.053644 -0.008048
  endloop
 endfacet
 facet normal 1.000000 0.000000 0.000000
  outer loop
   vertex 0.089759 0.114892 0.000894
   vertex 0.089759 0.058606 0.026995
   vertex 0.089759 0.053644 0.009836
  endloop
 endfacet
 facet normal 1.000000 0.000000 0.000000
  outer loop
   vertex 0.089759 0.114892 0.000894
   vertex 0.089759 0.068128 0.042040
   vertex 0.089759 0.058606 0.026995
  endloop
 endfacet
 facet normal 1.000000 0.000000 0.000000
  outer loop
   vertex 0.089759 0.114892 0.000894
   vertex 0.089759 0.081438 0.053751
   vertex 0.089759 0.068128 0.042040
  endloop
 endfacet
 facet normal 1.000000 0.000000 0.000000
  outer loop
   vertex 0.089759 0.114892 0.000894
   vertex 0.089759 0.097459 0.061180
   vertex 0.089759 0.081438 0.053751
  endloop
 endfacet
 facet normal 1.000000 0.000000 0.000000
  outer loop
   vertex 0.089759 0.114892 0.000894
   vertex 0.089759 0.114892 0.063725
   vertex 0.089759 0.097459 0.061180
  endloop
 endfacet
 facet normal 1.000000 0.000000 0.000000
  outer loop
   vertex 0.089759 0.114892 0.000894
   vertex 0.089759 0.132325 0.061180
   vertex 0.089759 0.114892 0.063725
  endloop
 endfacet
 facet normal -1.000000 0.000000 0.000000
  outer loop
   vertex -0.020064 0.114892 0.000894
   vertex -0.020064 0.132325 0.061180
   vertex -0.020064 0.148345 0.053751
  endloop
 endfacet
 facet normal -1.000000 0.000000 0.000000
  outer loop
   vertex -0.020064 0.114892 0.000894
   vertex -0.020064 0.148345 0.053751
   vertex -0.020064 0.161655 0.042040
  endloop
 endfacet
 facet normal -1.000000 0.000000 0.000000
  outer loop
   vertex -0.020064 0.114892 0.000894
   vertex -0.020064 0.161655 0.042040
   vertex -0.020064 0.171177 0.026995
  endloop
 endfacet
 facet normal -1.000000 0.000000 0.000000
  outer loop
   vertex -0.020064 0.114892 0.000894
   vertex -0.020064 0.171177 0.026995
   vertex -0.020064 0.176139 0.009836
  endloop
 endfacet
 facet normal -1.000000 0.000000 0.000000
  outer loop
   vertex -0.020064 0.114892 0.000894
   vertex -0.020064 0.176139 0.009836
   vertex -0.020064 0.176139 -0.008048
  endloop
 endfacet
 facet normal -1.000000 0.000000 0.000000
  outer loop
   vertex -0.020064 0.114892 0.000894
   vertex -0.020064 0.176139 -0.008048
   vertex -0.020064 0.171177 -0.025207
  endloop
 endfacet
 facet normal -1.000000 0.000000 0.000000
  outer loop
   vertex -0.020064 0.114892 0.000894
   vertex -0.020064 0.171177 -0.025207
   vertex -0.020064 0.161655 -0.040252
  endloop
 endfacet
 facet normal -1.000000 0.000000 0.000000
  outer loop
   vertex -0.020064 0.114892 0.000894
   vertex -0.020064 0.161655 -0.040252
   vertex -0.020064 0.148345 -0.051963
  endloop
 endfacet
 facet normal -1.000000 0.000000 0.000000
  outer loop
   vertex -0.020064 0.114892 0.000894
   vertex -0.020064 0.148345 -0.051963
   vertex -0.020064 0.132325 -0.059392
  endloop
 endfacet
 facet normal -1.000000 0.000000 0.000000
  outer loop
   vertex -0.020064 0.114892 0.000894
   vertex -0.020064 0.132325 -0.059392
   vertex -0.020064 0.114892 -0.061937
  endloop
 endfacet
 facet normal -1.000000 0.000000 0.000000
  outer loop
   vertex -0.020064 0.114892 0.000894
   vertex -0.020064 0.114892 -0.061937
   vertex -0.020064 0.097459 -0.059392
  endloop
 endfacet
 facet normal -1.000000 0.000000 0.000000
  outer loop
   vertex -0.020064 0.114892 0.000894
   vertex -0.020064 0.097459 -0.059392
   vertex -0.020064 0.081438 -0.051963
  endloop
 endfacet
 facet normal -1.000000 0.000000 0.000000
  outer loop
   vertex -0.020064 0.114892 0.000894
   vertex -0.020064 0.081438 -0.051963
   vertex -0.020064 0.068128 -0.040252
  endloop
 endfacet
 facet normal -1.000000 0.000000 0.000000
  outer loop
   vertex -0.020064 0.114892 0.000894
   vertex -0.020064 0.068128 -0.040252
   vertex -0.020064 0.058606 -0.025207
  endloop
 endfacet
 facet normal -1.000000 0.000000 0.000000
  outer loop
   vertex -0.020064 0.114892 0.000894
   vertex -0.020064 0.058606 -0.025207
   vertex -0.020064 0.053644 -0.008048
  endloop
 endfacet
 facet normal -1.000000 0.000000 0.000000
  outer loop
   vertex -0.020064 0.114892 0.000894
   vertex -0.020064 0.053644 -0.008048
   vertex -0.020064 0.053644 0.009836
  endloop
 endfacet
 facet normal -1.000000 0.000000 0.000000
  outer loop
   vertex -0.020064 0.114892 0.000894
   vertex -0.020064 0.053644 0.009836
   vertex -0.020064 0.058606 0.026995
  endloop
 endfacet
 facet normal -1.000000 0.000000 0.000000
  outer loop
   vertex -0.020064 0.114892 0.000894
   vertex -0.020064 0.058606 0.026995
   vertex -0.020064 0.068128 0.042040
  endloop
 endfacet
 facet normal -1.000000 0.000000 0.000000
  outer loop
   vertex -0.020064 0.114892 0.000894
   vertex -0.020064 0.068128 0.042040
   vertex -0.020064 0.081438 0.053751
  endloop
 endfacet
 facet normal -1.000000 0.000000 0.000000
  outer loop
   vertex -0.020064 0.114892 0.000894
   vertex -0.020064 0.081438 0.053751
   vertex -0.020064 0.097459 0.061180
  endloop
 endfacet
 facet normal -1.000000 0.000000 0.000000
  outer loop
   vertex -0.020064 0.114892 0.000894
   vertex -0.020064 0.097459 0.061180
   vertex -0.020064 0.114892 0.063725
  endloop
 endfacet
 facet normal -1.000000 0.000000 0.000000
  outer loop
   vertex -0.020064 0.114892 0.000894
   vertex -0.020064 0.114892 0.063725
   vertex -0.020064 0.132325 0.061180
  endloop
 endfacet
endsolid
