solid stl file generated from AC3D
 facet normal 0.000000 1.000000 0.000000
  outer loop
   vertex 0.003409 0.105366 -0.000000
   vertex 0.003409 0.105366 0.087868
   vertex 0.027772 0.105366 0.084309
  endloop
 endfacet
 facet normal 0.000000 1.000000 0.000000
  outer loop
   vertex 0.003409 0.105366 -0.000000
   vertex -0.020955 0.105366 0.084309
   vertex 0.003409 0.105366 0.087868
  endloop
 endfacet
 facet normal 0.000000 1.000000 0.000000
  outer loop
   vertex 0.003409 0.105366 -0.000000
   vertex -0.043344 0.105366 0.073920
   vertex -0.020955 0.105366 0.084309
  endloop
 endfacet
 facet normal 0.000000 1.000000 0.000000
  outer loop
   vertex 0.003409 0.105366 -0.000000
   vertex -0.061946 0.105366 0.057542
   vertex -0.043344 0.105366 0.073920
  endloop
 endfacet
 facet normal 0.000000 1.000000 0.000000
  outer loop
   vertex 0.003409 0.105366 -0.000000
   vertex -0.075253 0.105366 0.036502
   vertex -0.061946 0.105366 0.057542
  endloop
 endfacet
 facet normal 0.000000 1.000000 0.000000
  outer loop
   vertex 0.003409 0.105366 -0.000000
   vertex -0.082187 0.105366 0.012505
   vertex -0.075253 0.105366 0.036502
  endloop
 endfacet
 facet normal 0.000000 1.000000 0.000000
  outer loop
   vertex 0.003409 0.105366 -0.000000
   vertex -0.082187 0.105366 -0.012505
   vertex -0.082187 0.105366 0.012505
  endloop
 endfacet
 facet normal 0.000000 1.000000 0.000000
  outer loop
   vertex 0.003409 0.105366 -0.000000
   vertex -0.075253 0.105366 -0.036502
   vertex -0.082187 0.105366 -0.012505
  endloop
 endfacet
 facet normal 0.000000 1.000000 0.000000
  outer loop
   vertex 0.003409 0.105366 -0.000000
   vertex -0.061946 0.105366 -0.057542
   vertex -0.075253 0.105366 -0.036502
  endloop
 endfacet
 facet normal 0.000000 1.000000 0.000000
  outer loop
   vertex 0.003409 0.105366 -0.000000
   vertex -0.043344 0.105366 -0.073920
   vertex -0.061946 0.105366 -0.057542
  endloop
 endfacet
 facet normal 0.000000 1.000000 0.000000
  outer loop
   vertex 0.003409 0.105366 -0.000000
   vertex -0.020954 0.105366 -0.084309
   vertex -0.043344 0.105366 -0.073920
  endloop
 endfacet
 facet normal 0.000000 1.000000 0.000000
  outer loop
   vertex 0.003409 0.105366 -0.000000
   vertex 0.003409 0.105366 -0.087868
   vertex -0.020954 0.105366 -0.084309
  endloop
 endfacet
 facet normal 0.000000 1.000000 0.000000
  outer loop
   vertex 0.003409 0.105366 -0.000000
   vertex 0.027772 0.105366 -0.084309
   vertex 0.003409 0.105366 -0.087868
  endloop
 endfacet
 facet normal 0.000000 1.000000 0.000000
  outer loop
   vertex 0.003409 0.105366 -0.000000
   vertex 0.050161 0.105366 -0.073920
   vertex 0.027772 0.105366 -0.084309
  endloop
 endfacet
 facet normal 0.000000 1.000000 0.000000
  outer loop
   vertex 0.003409 0.105366 -0.000000
   vertex 0.068763 0.105366 -0.057542
   vertex 0.050161 0.105366 -0.073920
  endloop
 endfacet
 facet normal 0.000000 1.000000 0.000000
  outer loop
   vertex 0.003409 0.105366 -0.000000
   vertex 0.082070 0.105366 -0.036502
   vertex 0.068763 0.105366 -0.057542
  endloop
 endfacet
 facet normal 0.000000 1.000000 0.000001
  outer loop
   vertex 0.003409 0.105366 -0.000000
   vertex 0.089005 0.105366 -0.012505
   vertex 0.082070 0.105366 -0.036502
  endloop
 endfacet
 facet normal 0.000000 1.000000 0.000000
  outer loop
   vertex 0.003409 0.105366 -0.000000
   vertex 0.089005 0.105366 0.012505
   vertex 0.089005 0.105366 -0.012505
  endloop
 endfacet
 facet normal 0.000000 1.000000 -0.000001
  outer loop
   vertex 0.003409 0.105366 -0.000000
   vertex 0.082070 0.105366 0.036502
   vertex 0.089005 0.105366 0.012505
  endloop
 endfacet
 facet normal 0.000000 1.000000 0.000000
  outer loop
   vertex 0.003409 0.105366 -0.000000
   vertex 0.068763 0.105366 0.057542
   vertex 0.082070 0.105366 0.036502
  endloop
 endfacet
 facet normal 0.000000 1.000000 0.000000
  outer loop
   vertex 0.003409 0.105366 -0.000000
   vertex 0.050161 0.105366 0.073920
   vertex 0.068763 0.105366 0.057542
  endloop
 endfacet
 facet normal 0.000000 1.000000 0.000000
  outer loop
   vertex 0.003409 0.105366 -0.000000
   vertex 0.027772 0.105366 0.084309
   vertex 0.050161 0.105366 0.073920
  endloop
 endfacet
 facet normal 0.000000 -1.000000 0.000000
  outer loop
   vertex 0.003409 -0.015832 -0.000000
   vertex 0.027772 -0.015832 0.084309
   vertex 0.003409 -0.015832 0.087868
  endloop
 endfacet
 facet normal 0.000000 -1.000000 0.000000
  outer loop
   vertex 0.003409 -0.015832 -0.000000
   vertex 0.003409 -0.015832 0.087868
   vertex -0.020955 -0.015832 0.084309
  endloop
 endfacet
 facet normal 0.000000 -1.000000 0.000000
  outer loop
   vertex 0.003409 -0.015832 -0.000000
   vertex -0.020955 -0.015832 0.084309
   vertex -0.043344 -0.015832 0.073920
  endloop
 endfacet
 facet normal 0.000000 -1.000000 0.000000
  outer loop
   vertex 0.003409 -0.015832 -0.000000
   vertex -0.043344 -0.015832 0.073920
   vertex -0.061946 -0.015832 0.057542
  endloop
 endfacet
 facet normal 0.000000 -1.000000 0.000000
  outer loop
   vertex 0.003409 -0.015832 -0.000000
   vertex -0.061946 -0.015832 0.057542
   vertex -0.075253 -0.015832 0.036502
  endloop
 endfacet
 facet normal 0.000000 -1.000000 0.000000
  outer loop
   vertex 0.003409 -0.015832 -0.000000
   vertex -0.075253 -0.015832 0.036502
   vertex -0.082187 -0.015832 0.012505
  endloop
 endfacet
 facet normal 0.000000 -1.000000 0.000000
  outer loop
   vertex 0.003409 -0.015832 -0.000000
   vertex -0.082187 -0.015832 0.012505
   vertex -0.082187 -0.015832 -0.012505
  endloop
 endfacet
 facet normal 0.000000 -1.000000 0.000000
  outer loop
   vertex 0.003409 -0.015832 -0.000000
   vertex -0.082187 -0.015832 -0.012505
   vertex -0.075253 -0.015832 -0.036502
  endloop
 endfacet
 facet normal 0.000000 -1.000000 0.000000
  outer loop
   vertex 0.003409 -0.015832 -0.000000
   vertex -0.075253 -0.015832 -0.036502
   vertex -0.061946 -0.015832 -0.057542
  endloop
 endfacet
 facet normal 0.000000 -1.000000 0.000000
  outer loop
   vertex 0.003409 -0.015832 -0.000000
   vertex -0.061946 -0.015832 -0.057542
   vertex -0.043344 -0.015832 -0.073920
  endloop
 endfacet
 facet normal 0.000000 -1.000000 0.000000
  outer loop
   vertex 0.003409 -0.015832 -0.000000
   vertex -0.043344 -0.015832 -0.073920
   vertex -0.020954 -0.015832 -0.084309
  endloop
 endfacet
 facet normal 0.000000 -1.000000 0.000000
  outer loop
   vertex 0.003409 -0.015832 -0.000000
   vertex -0.020954 -0.015832 -0.084309
   vertex 0.003409 -0.015832 -0.087868
  endloop
 endfacet
 facet normal 0.000000 -1.000000 0.000000
  outer loop
   vertex 0.003409 -0.015832 -0.000000
   vertex 0.003409 -0.015832 -0.087868
   vertex 0.027772 -0.015832 -0.084309
  endloop
 endfacet
 facet normal 0.000000 -1.000000 0.000000
  outer loop
   vertex 0.003409 -0.015832 -0.000000
   vertex 0.027772 -0.015832 -0.084309
   vertex 0.050161 -0.015832 -0.073920
  endloop
 endfacet
 facet normal 0.000000 -1.000000 0.000000
  outer loop
   vertex 0.003409 -0.015832 -0.000000
   vertex 0.050161 -0.015832 -0.073920
   vertex 0.068763 -0.015832 -0.057542
  endloop
 endfacet
 facet normal 0.000000 -1.000000 0.000000
  outer loop
   vertex 0.003409 -0.015832 -0.000000
   vertex 0.068763 -0.015832 -0.057542
   vertex 0.082070 -0.015832 -0.036502
  endloop
 endfacet
 facet normal -0.000000 -1.000000 -0.000001
  outer loop
   vertex 0.003409 -0.015832 -0.000000
   vertex 0.082070 -0.015832 -0.036502
   vertex 0.089005 -0.015832 -0.012505
  endloop
 endfacet
 facet normal -0.000000 -1.000000 0.000000
  outer loop
   vertex 0.003409 -0.015832 -0.000000
   vertex 0.089005 -0.015832 -0.012505
   vertex 0.089005 -0.015832 0.012505
  endloop
 endfacet
 facet normal -0.000000 -1.000000 0.000001
  outer loop
   vertex 0.003409 -0.015832 -0.000000
   vertex 0.089005 -0.015832 0.012505
   vertex 0.082070 -0.015832 0.036502
  endloop
 endfacet
 facet normal 0.000000 -1.000000 0.000000
  outer loop
   vertex 0.003409 -0.015832 -0.000000
   vertex 0.082070 -0.015832 0.036502
   vertex 0.068763 -0.015832 0.057542
  endloop
 endfacet
 facet normal 0.000000 -1.000000 0.000000
  outer loop
   vertex 0.003409 -0.015832 -0.000000
   vertex 0.068763 -0.015832 0.057542
   vertex 0.050161 -0.015832 0.073920
  endloop
 endfacet
 facet normal 0.000000 -1.000000 0.000000
  outer loop
   vertex 0.003409 -0.015832 -0.000000
   vertex 0.050161 -0.015832 0.073920
   vertex 0.027772 -0.015832 0.084309
  endloop
 endfacet
 facet normal 0.144558 -0.000000 0.989496
  outer loop
   vertex 0.003409 0.105366 0.087868
   vertex 0.027772 -0.015832 0.084309
   vertex 0.027772 0.105366 0.084309
  endloop
 endfacet
 facet normal 0.144558 -0.000000 0.989496
  outer loop
   vertex 0.027772 -0.015832 0.084309
   vertex 0.003409 0.105366 0.087868
   vertex 0.003409 -0.015832 0.087868
  endloop
 endfacet
 facet normal -0.144560 0.000000 0.989496
  outer loop
   vertex -0.020955 0.105366 0.084309
   vertex 0.003409 -0.015832 0.087868
   vertex 0.003409 0.105366 0.087868
  endloop
 endfacet
 facet normal -0.144560 0.000000 0.989496
  outer loop
   vertex 0.003409 -0.015832 0.087868
   vertex -0.020955 0.105366 0.084309
   vertex -0.020955 -0.015832 0.084309
  endloop
 endfacet
 facet normal -0.420927 0.000000 0.907095
  outer loop
   vertex -0.043344 0.105366 0.073920
   vertex -0.020955 -0.015832 0.084309
   vertex -0.020955 0.105366 0.084309
  endloop
 endfacet
 facet normal -0.420927 0.000000 0.907095
  outer loop
   vertex -0.020955 -0.015832 0.084309
   vertex -0.043344 0.105366 0.073920
   vertex -0.043344 -0.015832 0.073920
  endloop
 endfacet
 facet normal -0.660821 0.000000 0.750543
  outer loop
   vertex -0.061946 0.105366 0.057542
   vertex -0.043344 -0.015832 0.073920
   vertex -0.043344 0.105366 0.073920
  endloop
 endfacet
 facet normal -0.660821 0.000000 0.750543
  outer loop
   vertex -0.043344 -0.015832 0.073920
   vertex -0.061946 0.105366 0.057542
   vertex -0.061946 -0.015832 0.057542
  endloop
 endfacet
 facet normal -0.845146 0.000000 0.534536
  outer loop
   vertex -0.075253 -0.015832 0.036502
   vertex -0.061946 0.105366 0.057542
   vertex -0.075253 0.105366 0.036502
  endloop
 endfacet
 facet normal -0.845146 0.000000 0.534536
  outer loop
   vertex -0.061946 0.105366 0.057542
   vertex -0.075253 -0.015832 0.036502
   vertex -0.061946 -0.015832 0.057542
  endloop
 endfacet
 facet normal -0.960693 0.000000 0.277615
  outer loop
   vertex -0.082187 -0.015832 0.012505
   vertex -0.075253 0.105366 0.036502
   vertex -0.082187 0.105366 0.012505
  endloop
 endfacet
 facet normal -0.960693 0.000000 0.277615
  outer loop
   vertex -0.075253 0.105366 0.036502
   vertex -0.082187 -0.015832 0.012505
   vertex -0.075253 -0.015832 0.036502
  endloop
 endfacet
 facet normal -1.000000 0.000000 -0.000001
  outer loop
   vertex -0.082187 -0.015832 -0.012505
   vertex -0.082187 0.105366 0.012505
   vertex -0.082187 0.105366 -0.012505
  endloop
 endfacet
 facet normal -1.000000 0.000000 -0.000001
  outer loop
   vertex -0.082187 0.105366 0.012505
   vertex -0.082187 -0.015832 -0.012505
   vertex -0.082187 -0.015832 0.012505
  endloop
 endfacet
 facet normal -0.960692 0.000000 -0.277616
  outer loop
   vertex -0.075253 -0.015832 -0.036502
   vertex -0.082187 0.105366 -0.012505
   vertex -0.075253 0.105366 -0.036502
  endloop
 endfacet
 facet normal -0.960692 0.000000 -0.277616
  outer loop
   vertex -0.082187 0.105366 -0.012505
   vertex -0.075253 -0.015832 -0.036502
   vertex -0.082187 -0.015832 -0.012505
  endloop
 endfacet
 facet normal -0.845145 0.000000 -0.534537
  outer loop
   vertex -0.061946 -0.015832 -0.057542
   vertex -0.075253 0.105366 -0.036502
   vertex -0.061946 0.105366 -0.057542
  endloop
 endfacet
 facet normal -0.845145 0.000000 -0.534537
  outer loop
   vertex -0.075253 0.105366 -0.036502
   vertex -0.061946 -0.015832 -0.057542
   vertex -0.075253 -0.015832 -0.036502
  endloop
 endfacet
 facet normal -0.660820 0.000000 -0.750544
  outer loop
   vertex -0.061946 -0.015832 -0.057542
   vertex -0.043344 0.105366 -0.073920
   vertex -0.043344 -0.015832 -0.073920
  endloop
 endfacet
 facet normal -0.660820 0.000000 -0.750544
  outer loop
   vertex -0.043344 0.105366 -0.073920
   vertex -0.061946 -0.015832 -0.057542
   vertex -0.061946 0.105366 -0.057542
  endloop
 endfacet
 facet normal -0.420926 0.000000 -0.907095
  outer loop
   vertex -0.020954 -0.015832 -0.084309
   vertex -0.043344 0.105366 -0.073920
   vertex -0.020954 0.105366 -0.084309
  endloop
 endfacet
 facet normal -0.420926 0.000000 -0.907095
  outer loop
   vertex -0.043344 0.105366 -0.073920
   vertex -0.020954 -0.015832 -0.084309
   vertex -0.043344 -0.015832 -0.073920
  endloop
 endfacet
 facet normal -0.144559 0.000000 -0.989496
  outer loop
   vertex 0.003409 -0.015832 -0.087868
   vertex -0.020954 0.105366 -0.084309
   vertex 0.003409 0.105366 -0.087868
  endloop
 endfacet
 facet normal -0.144559 0.000000 -0.989496
  outer loop
   vertex -0.020954 0.105366 -0.084309
   vertex 0.003409 -0.015832 -0.087868
   vertex -0.020954 -0.015832 -0.084309
  endloop
 endfacet
 facet normal 0.144559 -0.000000 -0.989496
  outer loop
   vertex 0.027772 -0.015832 -0.084309
   vertex 0.003409 0.105366 -0.087868
   vertex 0.027772 0.105366 -0.084309
  endloop
 endfacet
 facet normal 0.144559 -0.000000 -0.989496
  outer loop
   vertex 0.003409 0.105366 -0.087868
   vertex 0.027772 -0.015832 -0.084309
   vertex 0.003409 -0.015832 -0.087868
  endloop
 endfacet
 facet normal 0.420926 -0.000000 -0.907095
  outer loop
   vertex 0.050161 -0.015832 -0.073920
   vertex 0.027772 0.105366 -0.084309
   vertex 0.050161 0.105366 -0.073920
  endloop
 endfacet
 facet normal 0.420926 -0.000000 -0.907095
  outer loop
   vertex 0.027772 0.105366 -0.084309
   vertex 0.050161 -0.015832 -0.073920
   vertex 0.027772 -0.015832 -0.084309
  endloop
 endfacet
 facet normal 0.660821 -0.000000 -0.750544
  outer loop
   vertex 0.068763 -0.015832 -0.057542
   vertex 0.050161 0.105366 -0.073920
   vertex 0.068763 0.105366 -0.057542
  endloop
 endfacet
 facet normal 0.660821 -0.000000 -0.750544
  outer loop
   vertex 0.050161 0.105366 -0.073920
   vertex 0.068763 -0.015832 -0.057542
   vertex 0.050161 -0.015832 -0.073920
  endloop
 endfacet
 facet normal 0.845145 0.000000 -0.534536
  outer loop
   vertex 0.082070 -0.015832 -0.036502
   vertex 0.068763 0.105366 -0.057542
   vertex 0.082070 0.105366 -0.036502
  endloop
 endfacet
 facet normal 0.845145 0.000000 -0.534536
  outer loop
   vertex 0.068763 0.105366 -0.057542
   vertex 0.082070 -0.015832 -0.036502
   vertex 0.068763 -0.015832 -0.057542
  endloop
 endfacet
 facet normal 0.960692 0.000000 -0.277615
  outer loop
   vertex 0.089005 0.105366 -0.012505
   vertex 0.082070 -0.015832 -0.036502
   vertex 0.082070 0.105366 -0.036502
  endloop
 endfacet
 facet normal 0.960692 0.000000 -0.277615
  outer loop
   vertex 0.082070 -0.015832 -0.036502
   vertex 0.089005 0.105366 -0.012505
   vertex 0.089005 -0.015832 -0.012505
  endloop
 endfacet
 facet normal 1.000000 0.000000 0.000000
  outer loop
   vertex 0.089005 -0.015832 0.012505
   vertex 0.089005 0.105366 -0.012505
   vertex 0.089005 0.105366 0.012505
  endloop
 endfacet
 facet normal 1.000000 0.000000 0.000000
  outer loop
   vertex 0.089005 0.105366 -0.012505
   vertex 0.089005 -0.015832 0.012505
   vertex 0.089005 -0.015832 -0.012505
  endloop
 endfacet
 facet normal 0.960692 0.000000 0.277615
  outer loop
   vertex 0.082070 -0.015832 0.036502
   vertex 0.089005 0.105366 0.012505
   vertex 0.082070 0.105366 0.036502
  endloop
 endfacet
 facet normal 0.960692 0.000000 0.277615
  outer loop
   vertex 0.089005 0.105366 0.012505
   vertex 0.082070 -0.015832 0.036502
   vertex 0.089005 -0.015832 0.012505
  endloop
 endfacet
 facet normal 0.845145 0.000000 0.534536
  outer loop
   vertex 0.068763 -0.015832 0.057542
   vertex 0.082070 0.105366 0.036502
   vertex 0.068763 0.105366 0.057542
  endloop
 endfacet
 facet normal 0.845145 0.000000 0.534536
  outer loop
   vertex 0.082070 0.105366 0.036502
   vertex 0.068763 -0.015832 0.057542
   vertex 0.082070 -0.015832 0.036502
  endloop
 endfacet
 facet normal 0.660821 -0.000000 0.750544
  outer loop
   vertex 0.050161 0.105366 0.073920
   vertex 0.068763 -0.015832 0.057542
   vertex 0.068763 0.105366 0.057542
  endloop
 endfacet
 facet normal 0.660821 -0.000000 0.750544
  outer loop
   vertex 0.068763 -0.015832 0.057542
   vertex 0.050161 0.105366 0.073920
   vertex 0.050161 -0.015832 0.073920
  endloop
 endfacet
 facet normal 0.420926 -0.000000 0.907095
  outer loop
   vertex 0.027772 0.105366 0.084309
   vertex 0.050161 -0.015832 0.073920
   vertex 0.050161 0.105366 0.073920
  endloop
 endfacet
 facet normal 0.420926 -0.000000 0.907095
  outer loop
   vertex 0.050161 -0.015832 0.073920
   vertex 0.027772 0.105366 0.084309
   vertex 0.027772 -0.015832 0.084309
  endloop
 endfacet
 facet normal 0.000000 0.420926 0.907095
  outer loop
   vertex -0.028785 0.213096 0.073920
   vertex 0.120440 0.190707 0.084309
   vertex 0.120440 0.213096 0.073920
  endloop
 endfacet
 facet normal 0.000000 0.420926 0.907095
  outer loop
   vertex 0.120440 0.190707 0.084309
   vertex -0.028785 0.213096 0.073920
   vertex -0.028785 0.190707 0.084309
  endloop
 endfacet
 facet normal 0.000000 0.660821 0.750544
  outer loop
   vertex -0.028785 0.231698 0.057542
   vertex 0.120440 0.213096 0.073920
   vertex 0.120440 0.231698 0.057542
  endloop
 endfacet
 facet normal 0.000000 0.660821 0.750544
  outer loop
   vertex 0.120440 0.213096 0.073920
   vertex -0.028785 0.231698 0.057542
   vertex -0.028785 0.213096 0.073920
  endloop
 endfacet
 facet normal 0.000000 0.845145 0.534536
  outer loop
   vertex 0.120440 0.245005 0.036502
   vertex -0.028785 0.231698 0.057542
   vertex 0.120440 0.231698 0.057542
  endloop
 endfacet
 facet normal 0.000000 0.845145 0.534536
  outer loop
   vertex -0.028785 0.231698 0.057542
   vertex 0.120440 0.245005 0.036502
   vertex -0.028785 0.245005 0.036502
  endloop
 endfacet
 facet normal 0.000000 0.960692 0.277615
  outer loop
   vertex 0.120440 0.251940 0.012505
   vertex -0.028785 0.245005 0.036502
   vertex 0.120440 0.245005 0.036502
  endloop
 endfacet
 facet normal 0.000000 0.960692 0.277615
  outer loop
   vertex -0.028785 0.245005 0.036502
   vertex 0.120440 0.251940 0.012505
   vertex -0.028785 0.251940 0.012505
  endloop
 endfacet
 facet normal 0.000000 1.000000 0.000000
  outer loop
   vertex 0.120440 0.251940 -0.012505
   vertex -0.028785 0.251940 0.012505
   vertex 0.120440 0.251940 0.012505
  endloop
 endfacet
 facet normal 0.000000 1.000000 0.000000
  outer loop
   vertex -0.028785 0.251940 0.012505
   vertex 0.120440 0.251940 -0.012505
   vertex -0.028785 0.251940 -0.012505
  endloop
 endfacet
 facet normal 0.000000 0.960692 -0.277615
  outer loop
   vertex 0.120440 0.245005 -0.036502
   vertex -0.028785 0.251940 -0.012505
   vertex 0.120440 0.251940 -0.012505
  endloop
 endfacet
 facet normal 0.000000 0.960692 -0.277615
  outer loop
   vertex -0.028785 0.251940 -0.012505
   vertex 0.120440 0.245005 -0.036502
   vertex -0.028785 0.245005 -0.036502
  endloop
 endfacet
 facet normal 0.000000 0.845145 -0.534536
  outer loop
   vertex 0.120440 0.231698 -0.057542
   vertex -0.028785 0.245005 -0.036502
   vertex 0.120440 0.245005 -0.036502
  endloop
 endfacet
 facet normal 0.000000 0.845145 -0.534536
  outer loop
   vertex -0.028785 0.245005 -0.036502
   vertex 0.120440 0.231698 -0.057542
   vertex -0.028785 0.231698 -0.057542
  endloop
 endfacet
 facet normal 0.000000 0.660821 -0.750544
  outer loop
   vertex -0.028785 0.213096 -0.073920
   vertex 0.120440 0.231698 -0.057542
   vertex 0.120440 0.213096 -0.073920
  endloop
 endfacet
 facet normal 0.000000 0.660821 -0.750544
  outer loop
   vertex 0.120440 0.231698 -0.057542
   vertex -0.028785 0.213096 -0.073920
   vertex -0.028785 0.231698 -0.057542
  endloop
 endfacet
 facet normal 0.000000 0.420926 -0.907095
  outer loop
   vertex -0.028785 0.190707 -0.084309
   vertex 0.120440 0.213096 -0.073920
   vertex 0.120440 0.190707 -0.084309
  endloop
 endfacet
 facet normal 0.000000 0.420926 -0.907095
  outer loop
   vertex 0.120440 0.213096 -0.073920
   vertex -0.028785 0.190707 -0.084309
   vertex -0.028785 0.213096 -0.073920
  endloop
 endfacet
 facet normal 0.000000 0.144559 -0.989496
  outer loop
   vertex -0.028785 0.166344 -0.087868
   vertex 0.120440 0.190707 -0.084309
   vertex 0.120440 0.166344 -0.087868
  endloop
 endfacet
 facet normal 0.000000 0.144559 -0.989496
  outer loop
   vertex 0.120440 0.190707 -0.084309
   vertex -0.028785 0.166344 -0.087868
   vertex -0.028785 0.190707 -0.084309
  endloop
 endfacet
 facet normal 0.000000 -0.144559 -0.989496
  outer loop
   vertex -0.028785 0.141981 -0.084309
   vertex 0.120440 0.166344 -0.087868
   vertex 0.120440 0.141981 -0.084309
  endloop
 endfacet
 facet normal 0.000000 -0.144559 -0.989496
  outer loop
   vertex 0.120440 0.166344 -0.087868
   vertex -0.028785 0.141981 -0.084309
   vertex -0.028785 0.166344 -0.087868
  endloop
 endfacet
 facet normal 0.000000 -0.420926 -0.907095
  outer loop
   vertex -0.028785 0.119591 -0.073920
   vertex 0.120440 0.141981 -0.084309
   vertex 0.120440 0.119591 -0.073920
  endloop
 endfacet
 facet normal 0.000000 -0.420926 -0.907095
  outer loop
   vertex 0.120440 0.141981 -0.084309
   vertex -0.028785 0.119591 -0.073920
   vertex -0.028785 0.141981 -0.084309
  endloop
 endfacet
 facet normal 0.000000 -0.660820 -0.750544
  outer loop
   vertex -0.028785 0.100989 -0.057542
   vertex 0.120440 0.119591 -0.073920
   vertex 0.120440 0.100989 -0.057542
  endloop
 endfacet
 facet normal 0.000000 -0.660820 -0.750544
  outer loop
   vertex 0.120440 0.119591 -0.073920
   vertex -0.028785 0.100989 -0.057542
   vertex -0.028785 0.119591 -0.073920
  endloop
 endfacet
 facet normal 0.000000 -0.845145 -0.534537
  outer loop
   vertex -0.028785 0.100989 -0.057542
   vertex 0.120440 0.087682 -0.036502
   vertex -0.028785 0.087682 -0.036502
  endloop
 endfacet
 facet normal 0.000000 -0.845145 -0.534537
  outer loop
   vertex 0.120440 0.087682 -0.036502
   vertex -0.028785 0.100989 -0.057542
   vertex 0.120440 0.100989 -0.057542
  endloop
 endfacet
 facet normal 0.000000 -0.960692 -0.277616
  outer loop
   vertex -0.028785 0.087682 -0.036502
   vertex 0.120440 0.080748 -0.012505
   vertex -0.028785 0.080748 -0.012505
  endloop
 endfacet
 facet normal 0.000000 -0.960692 -0.277616
  outer loop
   vertex 0.120440 0.080748 -0.012505
   vertex -0.028785 0.087682 -0.036502
   vertex 0.120440 0.087682 -0.036502
  endloop
 endfacet
 facet normal 0.000000 -1.000000 -0.000001
  outer loop
   vertex -0.028785 0.080748 -0.012505
   vertex 0.120440 0.080748 0.012505
   vertex -0.028785 0.080748 0.012505
  endloop
 endfacet
 facet normal 0.000000 -1.000000 -0.000001
  outer loop
   vertex 0.120440 0.080748 0.012505
   vertex -0.028785 0.080748 -0.012505
   vertex 0.120440 0.080748 -0.012505
  endloop
 endfacet
 facet normal 0.000000 -0.960693 0.277615
  outer loop
   vertex -0.028785 0.080748 0.012505
   vertex 0.120440 0.087682 0.036502
   vertex -0.028785 0.087682 0.036502
  endloop
 endfacet
 facet normal 0.000000 -0.960693 0.277615
  outer loop
   vertex 0.120440 0.087682 0.036502
   vertex -0.028785 0.080748 0.012505
   vertex 0.120440 0.080748 0.012505
  endloop
 endfacet
 facet normal 0.000000 -0.845146 0.534536
  outer loop
   vertex -0.028785 0.087682 0.036502
   vertex 0.120440 0.100989 0.057542
   vertex -0.028785 0.100989 0.057542
  endloop
 endfacet
 facet normal 0.000000 -0.845146 0.534536
  outer loop
   vertex 0.120440 0.100989 0.057542
   vertex -0.028785 0.087682 0.036502
   vertex 0.120440 0.087682 0.036502
  endloop
 endfacet
 facet normal 0.000000 -0.660822 0.750543
  outer loop
   vertex -0.028785 0.119591 0.073920
   vertex 0.120440 0.100989 0.057542
   vertex 0.120440 0.119591 0.073920
  endloop
 endfacet
 facet normal 0.000000 -0.660822 0.750543
  outer loop
   vertex 0.120440 0.100989 0.057542
   vertex -0.028785 0.119591 0.073920
   vertex -0.028785 0.100989 0.057542
  endloop
 endfacet
 facet normal 0.000000 -0.420927 0.907095
  outer loop
   vertex -0.028785 0.141981 0.084309
   vertex 0.120440 0.119591 0.073920
   vertex 0.120440 0.141981 0.084309
  endloop
 endfacet
 facet normal 0.000000 -0.420927 0.907095
  outer loop
   vertex 0.120440 0.119591 0.073920
   vertex -0.028785 0.141981 0.084309
   vertex -0.028785 0.119591 0.073920
  endloop
 endfacet
 facet normal 0.000000 -0.144560 0.989496
  outer loop
   vertex -0.028785 0.166344 0.087868
   vertex 0.120440 0.141981 0.084309
   vertex 0.120440 0.166344 0.087868
  endloop
 endfacet
 facet normal 0.000000 -0.144560 0.989496
  outer loop
   vertex 0.120440 0.141981 0.084309
   vertex -0.028785 0.166344 0.087868
   vertex -0.028785 0.141981 0.084309
  endloop
 endfacet
 facet normal 0.000000 0.144558 0.989496
  outer loop
   vertex -0.028785 0.190707 0.084309
   vertex 0.120440 0.166344 0.087868
   vertex 0.120440 0.190707 0.084309
  endloop
 endfacet
 facet normal 0.000000 0.144558 0.989496
  outer loop
   vertex 0.120440 0.166344 0.087868
   vertex -0.028785 0.190707 0.084309
   vertex -0.028785 0.166344 0.087868
  endloop
 endfacet
 facet normal 1.000000 0.000000 0.000000
  outer loop
   vertex 0.120440 0.166344 -0.000000
   vertex 0.120440 0.213096 0.073920
   vertex 0.120440 0.190707 0.084309
  endloop
 endfacet
 facet normal 1.000000 0.000000 0.000000
  outer loop
   vertex 0.120440 0.166344 -0.000000
   vertex 0.120440 0.231698 0.057542
   vertex 0.120440 0.213096 0.073920
  endloop
 endfacet
 facet normal 1.000000 0.000000 0.000000
  outer loop
   vertex 0.120440 0.166344 -0.000000
   vertex 0.120440 0.245005 0.036502
   vertex 0.120440 0.231698 0.057542
  endloop
 endfacet
 facet normal 1.000000 0.000000 0.000000
  outer loop
   vertex 0.120440 0.166344 -0.000000
   vertex 0.120440 0.251940 0.012505
   vertex 0.120440 0.245005 0.036502
  endloop
 endfacet
 facet normal 1.000000 0.000000 0.000000
  outer loop
   vertex 0.120440 0.166344 -0.000000
   vertex 0.120440 0.251940 -0.012505
   vertex 0.120440 0.251940 0.012505
  endloop
 endfacet
 facet normal 1.000000 0.000000 0.000000
  outer loop
   vertex 0.120440 0.166344 -0.000000
   vertex 0.120440 0.245005 -0.036502
   vertex 0.120440 0.251940 -0.012505
  endloop
 endfacet
 facet normal 1.000000 0.000000 0.000000
  outer loop
   vertex 0.120440 0.166344 -0.000000
   vertex 0.120440 0.231698 -0.057542
   vertex 0.120440 0.245005 -0.036502
  endloop
 endfacet
 facet normal 1.000000 0.000000 0.000000
  outer loop
   vertex 0.120440 0.166344 -0.000000
   vertex 0.120440 0.213096 -0.073920
   vertex 0.120440 0.231698 -0.057542
  endloop
 endfacet
 facet normal 1.000000 0.000000 0.000000
  outer loop
   vertex 0.120440 0.166344 -0.000000
   vertex 0.120440 0.190707 -0.084309
   vertex 0.120440 0.213096 -0.073920
  endloop
 endfacet
 facet normal 1.000000 0.000000 0.000000
  outer loop
   vertex 0.120440 0.166344 -0.000000
   vertex 0.120440 0.166344 -0.087868
   vertex 0.120440 0.190707 -0.084309
  endloop
 endfacet
 facet normal 1.000000 0.000000 0.000000
  outer loop
   vertex 0.120440 0.166344 -0.000000
   vertex 0.120440 0.141981 -0.084309
   vertex 0.120440 0.166344 -0.087868
  endloop
 endfacet
 facet normal 1.000000 0.000000 0.000000
  outer loop
   vertex 0.120440 0.166344 -0.000000
   vertex 0.120440 0.119591 -0.073920
   vertex 0.120440 0.141981 -0.084309
  endloop
 endfacet
 facet normal 1.000000 0.000000 0.000000
  outer loop
   vertex 0.120440 0.166344 -0.000000
   vertex 0.120440 0.100989 -0.057542
   vertex 0.120440 0.119591 -0.073920
  endloop
 endfacet
 facet normal 1.000000 0.000000 0.000000
  outer loop
   vertex 0.120440 0.166344 -0.000000
   vertex 0.120440 0.087682 -0.036502
   vertex 0.120440 0.100989 -0.057542
  endloop
 endfacet
 facet normal 1.000000 0.000000 0.000000
  outer loop
   vertex 0.120440 0.166344 -0.000000
   vertex 0.120440 0.080748 -0.012505
   vertex 0.120440 0.087682 -0.036502
  endloop
 endfacet
 facet normal 1.000000 0.000000 0.000000
  outer loop
   vertex 0.120440 0.166344 -0.000000
   vertex 0.120440 0.080748 0.012505
   vertex 0.120440 0.080748 -0.012505
  endloop
 endfacet
 facet normal 1.000000 0.000000 0.000000
  outer loop
   vertex 0.120440 0.166344 -0.000000
   vertex 0.120440 0.087682 0.036502
   vertex 0.120440 0.080748 0.012505
  endloop
 endfacet
 facet normal 1.000000 0.000000 0.000000
  outer loop
   vertex 0.120440 0.166344 -0.000000
   vertex 0.120440 0.100989 0.057542
   vertex 0.120440 0.087682 0.036502
  endloop
 endfacet
 facet normal 1.000000 0.000000 0.000000
  outer loop
   vertex 0.120440 0.166344 -0.000000
   vertex 0.120440 0.119591 0.073920
   vertex 0.120440 0.100989 0.057542
  endloop
 endfacet
 facet normal 1.000000 0.000000 0.000000
  outer loop
   vertex 0.120440 0.166344 -0.000000
   vertex 0.120440 0.141981 0.084309
   vertex 0.120440 0.119591 0.073920
  endloop
 endfacet
 facet normal 1.000000 0.000000 0.000000
  outer loop
   vertex 0.120440 0.166344 -0.000000
   vertex 0.120440 0.166344 0.087868
   vertex 0.120440 0.141981 0.084309
  endloop
 endfacet
 facet normal 1.000000 0.000000 0.000000
  outer loop
   vertex 0.120440 0.166344 -0.000000
   vertex 0.120440 0.190707 0.084309
   vertex 0.120440 0.166344 0.087868
  endloop
 endfacet
 facet normal -1.000000 0.000000 0.000000
  outer loop
   vertex -0.028785 0.166344 -0.000000
   vertex -0.028785 0.190707 0.084309
   vertex -0.028785 0.213096 0.073920
  endloop
 endfacet
 facet normal -1.000000 0.000000 0.000000
  outer loop
   vertex -0.028785 0.166344 -0.000000
   vertex -0.028785 0.213096 0.073920
   vertex -0.028785 0.231698 0.057542
  endloop
 endfacet
 facet normal -1.000000 0.000000 0.000000
  outer loop
   vertex -0.028785 0.166344 -0.000000
   vertex -0.028785 0.231698 0.057542
   vertex -0.028785 0.245005 0.036502
  endloop
 endfacet
 facet normal -1.000000 0.000000 0.000000
  outer loop
   vertex -0.028785 0.166344 -0.000000
   vertex -0.028785 0.245005 0.036502
   vertex -0.028785 0.251940 0.012505
  endloop
 endfacet
 facet normal -1.000000 0.000000 0.000000
  outer loop
   vertex -0.028785 0.166344 -0.000000
   vertex -0.028785 0.251940 0.012505
   vertex -0.028785 0.251940 -0.012505
  endloop
 endfacet
 facet normal -1.000000 0.000000 0.000000
  outer loop
   vertex -0.028785 0.166344 -0.000000
   vertex -0.028785 0.251940 -0.012505
   vertex -0.028785 0.245005 -0.036502
  endloop
 endfacet
 facet normal -1.000000 0.000000 0.000000
  outer loop
   vertex -0.028785 0.166344 -0.000000
   vertex -0.028785 0.245005 -0.036502
   vertex -0.028785 0.231698 -0.057542
  endloop
 endfacet
 facet normal -1.000000 0.000000 0.000000
  outer loop
   vertex -0.028785 0.166344 -0.000000
   vertex -0.028785 0.231698 -0.057542
   vertex -0.028785 0.213096 -0.073920
  endloop
 endfacet
 facet normal -1.000000 0.000000 0.000000
  outer loop
   vertex -0.028785 0.166344 -0.000000
   vertex -0.028785 0.213096 -0.073920
   vertex -0.028785 0.190707 -0.084309
  endloop
 endfacet
 facet normal -1.000000 0.000000 0.000000
  outer loop
   vertex -0.028785 0.166344 -0.000000
   vertex -0.028785 0.190707 -0.084309
   vertex -0.028785 0.166344 -0.087868
  endloop
 endfacet
 facet normal -1.000000 0.000000 0.000000
  outer loop
   vertex -0.028785 0.166344 -0.000000
   vertex -0.028785 0.166344 -0.087868
   vertex -0.028785 0.141981 -0.084309
  endloop
 endfacet
 facet normal -1.000000 0.000000 0.000000
  outer loop
   vertex -0.028785 0.166344 -0.000000
   vertex -0.028785 0.141981 -0.084309
   vertex -0.028785 0.119591 -0.073920
  endloop
 endfacet
 facet normal -1.000000 0.000000 0.000000
  outer loop
   vertex -0.028785 0.166344 -0.000000
   vertex -0.028785 0.119591 -0.073920
   vertex -0.028785 0.100989 -0.057542
  endloop
 endfacet
 facet normal -1.000000 0.000000 0.000000
  outer loop
   vertex -0.028785 0.166344 -0.000000
   vertex -0.028785 0.100989 -0.057542
   vertex -0.028785 0.087682 -0.036502
  endloop
 endfacet
 facet normal -1.000000 0.000000 0.000000
  outer loop
   vertex -0.028785 0.166344 -0.000000
   vertex -0.028785 0.087682 -0.036502
   vertex -0.028785 0.080748 -0.012505
  endloop
 endfacet
 facet normal -1.000000 0.000000 0.000000
  outer loop
   vertex -0.028785 0.166344 -0.000000
   vertex -0.028785 0.080748 -0.012505
   vertex -0.028785 0.080748 0.012505
  endloop
 endfacet
 facet normal -1.000000 0.000000 0.000000
  outer loop
   vertex -0.028785 0.166344 -0.000000
   vertex -0.028785 0.080748 0.012505
   vertex -0.028785 0.087682 0.036502
  endloop
 endfacet
 facet normal -1.000000 0.000000 0.000000
  outer loop
   vertex -0.028785 0.166344 -0.000000
   vertex -0.028785 0.087682 0.036502
   vertex -0.028785 0.100989 0.057542
  endloop
 endfacet
 facet normal -1.000000 0.000000 0.000000
  outer loop
   vertex -0.028785 0.166344 -0.000000
   vertex -0.028785 0.100989 0.057542
   vertex -0.028785 0.119591 0.073920
  endloop
 endfacet
 facet normal -1.000000 0.000000 0.000000
  outer loop
   vertex -0.028785 0.166344 -0.000000
   vertex -0.028785 0.119591 0.073920
   vertex -0.028785 0.141981 0.084309
  endloop
 endfacet
 facet normal -1.000000 0.000000 0.000000
  outer loop
   vertex -0.028785 0.166344 -0.000000
   vertex -0.028785 0.141981 0.084309
   vertex -0.028785 0.166344 0.087868
  endloop
 endfacet
 facet normal -1.000000 0.000000 0.000000
  outer loop
   vertex -0.028785 0.166344 -0.000000
   vertex -0.028785 0.166344 0.087868
   vertex -0.028785 0.190707 0.084309
  endloop
 endfacet
endsolid
