solid ascii
  facet normal 0.000000e+000 -1.000000e+000 0.000000e+000
    outer loop
      vertex   -1.550000e-001 -9.000000e-002 -5.000000e+000
      vertex   1.550000e-001 -9.000000e-002 -5.000000e+000
      vertex   -1.550000e-001 -9.000000e-002 0.000000e+000
    endloop
  endfacet
  facet normal 0.000000e+000 -1.000000e+000 0.000000e+000
    outer loop
      vertex   -1.550000e-001 -9.000000e-002 0.000000e+000
      vertex   1.550000e-001 -9.000000e-002 -5.000000e+000
      vertex   1.550000e-001 -9.000000e-002 0.000000e+000
    endloop
  endfacet
  facet normal 1.000000e+000 0.000000e+000 0.000000e+000
    outer loop
      vertex   1.550000e-001 -9.000000e-002 -5.000000e+000
      vertex   1.550000e-001 9.000000e-002 -5.000000e+000
      vertex   1.550000e-001 -9.000000e-002 0.000000e+000
    endloop
  endfacet
  facet normal 1.000000e+000 0.000000e+000 0.000000e+000
    outer loop
      vertex   1.550000e-001 -9.000000e-002 0.000000e+000
      vertex   1.550000e-001 9.000000e-002 -5.000000e+000
      vertex   1.550000e-001 9.000000e-002 0.000000e+000
    endloop
  endfacet
  facet normal 0.000000e+000 1.000000e+000 0.000000e+000
    outer loop
      vertex   1.550000e-001 9.000000e-002 -5.000000e+000
      vertex   -1.550000e-001 9.000000e-002 -5.000000e+000
      vertex   1.550000e-001 9.000000e-002 0.000000e+000
    endloop
  endfacet
  facet normal 0.000000e+000 1.000000e+000 0.000000e+000
    outer loop
      vertex   1.550000e-001 9.000000e-002 0.000000e+000
      vertex   -1.550000e-001 9.000000e-002 -5.000000e+000
      vertex   -1.550000e-001 9.000000e-002 0.000000e+000
    endloop
  endfacet
  facet normal -1.000000e+000 0.000000e+000 0.000000e+000
    outer loop
      vertex   -1.550000e-001 9.000000e-002 -5.000000e+000
      vertex   -1.550000e-001 -9.000000e-002 -5.000000e+000
      vertex   -1.550000e-001 9.000000e-002 0.000000e+000
    endloop
  endfacet
  facet normal -1.000000e+000 0.000000e+000 0.000000e+000
    outer loop
      vertex   -1.550000e-001 9.000000e-002 0.000000e+000
      vertex   -1.550000e-001 -9.000000e-002 -5.000000e+000
      vertex   -1.550000e-001 -9.000000e-002 0.000000e+000
    endloop
  endfacet
  facet normal 0.000000e+000 0.000000e+000 -1.000000e+000
    outer loop
      vertex   1.550000e-001 -9.000000e-002 -5.000000e+000
      vertex   -1.550000e-001 -9.000000e-002 -5.000000e+000
      vertex   1.550000e-001 9.000000e-002 -5.000000e+000
    endloop
  endfacet
  facet normal 0.000000e+000 0.000000e+000 -1.000000e+000
    outer loop
      vertex   1.550000e-001 9.000000e-002 -5.000000e+000
      vertex   -1.550000e-001 -9.000000e-002 -5.000000e+000
      vertex   -1.550000e-001 9.000000e-002 -5.000000e+000
    endloop
  endfacet
  facet normal 0.000000e+000 0.000000e+000 1.000000e+000
    outer loop
      vertex   -1.550000e-001 -9.000000e-002 0.000000e+000
      vertex   1.550000e-001 -9.000000e-002 0.000000e+000
      vertex   -1.550000e-001 9.000000e-002 0.000000e+000
    endloop
  endfacet
  facet normal 0.000000e+000 0.000000e+000 1.000000e+000
    outer loop
      vertex   -1.550000e-001 9.000000e-002 0.000000e+000
      vertex   1.550000e-001 -9.000000e-002 0.000000e+000
      vertex   1.550000e-001 9.000000e-002 0.000000e+000
    endloop
  endfacet
endsolid
