solid stl file generated from AC3D
 facet normal -0.918906 0.392494 0.039489
  outer loop
   vertex -0.052745 0.033305 -0.000583
   vertex -0.061250 0.013395 -0.000607
   vertex -0.060073 0.013136 0.029376
  endloop
 endfacet
 facet normal -0.955738 0.291850 -0.037275
  outer loop
   vertex -0.052745 0.033305 -0.000583
   vertex -0.060073 0.013136 0.029376
   vertex -0.054501 0.030055 0.018994
  endloop
 endfacet
 facet normal -0.296356 0.707160 0.641949
  outer loop
   vertex -0.021079 0.047610 0.055161
   vertex -0.029867 0.036859 0.062948
   vertex -0.012062 0.045426 0.061731
  endloop
 endfacet
 facet normal 0.638296 -0.683236 0.354637
  outer loop
   vertex 0.038971 -0.079262 0.199963
   vertex 0.049340 -0.063757 0.211170
   vertex 0.034298 -0.077029 0.212674
  endloop
 endfacet
 facet normal -0.996405 0.074786 0.039789
  outer loop
   vertex -0.061250 0.013395 -0.000607
   vertex -0.062696 -0.005896 -0.000560
   vertex -0.060073 0.013136 0.029376
  endloop
 endfacet
 facet normal 0.000000 1.000000 0.000000
  outer loop
   vertex -0.037415 -0.050772 0.141095
   vertex -0.046076 -0.050772 0.149366
   vertex -0.031746 -0.050772 0.137181
  endloop
 endfacet
 facet normal 0.382166 0.381652 0.841600
  outer loop
   vertex 0.021452 0.019150 0.078223
   vertex 0.032982 -0.029767 0.095170
   vertex 0.028873 0.027760 0.070949
  endloop
 endfacet
 facet normal -0.996111 0.080306 0.036254
  outer loop
   vertex -0.062696 -0.005896 -0.000560
   vertex -0.061209 -0.005706 0.039894
   vertex -0.060073 0.013136 0.029376
  endloop
 endfacet
 facet normal -0.976485 -0.214307 0.023447
  outer loop
   vertex -0.062696 -0.005896 -0.000560
   vertex -0.058791 -0.023691 -0.000582
   vertex -0.056963 -0.025467 0.059333
  endloop
 endfacet
 facet normal -0.983874 -0.174995 0.037001
  outer loop
   vertex -0.062696 -0.005896 -0.000560
   vertex -0.056963 -0.025467 0.059333
   vertex -0.061209 -0.005706 0.039894
  endloop
 endfacet
 facet normal 0.000000 -1.000000 0.000000
  outer loop
   vertex 0.043001 -0.050772 0.146629
   vertex -0.000076 -0.050772 0.128607
   vertex 0.030384 -0.050772 0.136851
  endloop
 endfacet
 facet normal 0.976315 -0.215127 0.022988
  outer loop
   vertex 0.062543 -0.005902 -0.000560
   vertex 0.056817 -0.025489 0.059319
   vertex 0.058621 -0.023704 -0.000583
  endloop
 endfacet
 facet normal -0.131756 0.000000 -0.991282
  outer loop
   vertex -0.000076 -0.050772 0.128607
   vertex -0.015844 -0.044416 0.130703
   vertex -0.000076 -0.044416 0.128607
  endloop
 endfacet
 facet normal 0.925206 0.000000 -0.379464
  outer loop
   vertex 0.058769 -0.050772 0.174211
   vertex 0.052682 -0.050772 0.159371
   vertex 0.052682 -0.044416 0.159371
  endloop
 endfacet
 facet normal 0.763102 0.557992 0.326067
  outer loop
   vertex 0.053390 0.027376 0.036973
   vertex 0.039509 0.040102 0.047681
   vertex 0.051856 0.019102 0.054722
  endloop
 endfacet
 facet normal -0.905308 0.394590 0.157213
  outer loop
   vertex -0.054501 0.030055 0.018994
   vertex -0.060073 0.013136 0.029376
   vertex -0.052358 0.022979 0.049094
  endloop
 endfacet
 facet normal 0.386019 0.000000 -0.922491
  outer loop
   vertex 0.030384 -0.050772 0.136851
   vertex 0.015692 -0.044416 0.130703
   vertex 0.030384 -0.044416 0.136851
  endloop
 endfacet
 facet normal -0.141629 -0.965368 -0.219102
  outer loop
   vertex -0.012243 -0.066795 0.042577
   vertex -0.004835 -0.092893 0.152780
   vertex -0.022479 -0.090345 0.152957
  endloop
 endfacet
 facet normal 0.038742 0.812131 0.582187
  outer loop
   vertex -0.004846 -0.046201 0.114891
   vertex -0.014802 -0.049796 0.120568
   vertex 0.023989 -0.051011 0.119682
  endloop
 endfacet
 facet normal 0.259223 0.909680 0.324476
  outer loop
   vertex 0.014083 -0.046204 0.114120
   vertex 0.023989 -0.051011 0.119682
   vertex 0.032539 -0.053092 0.118686
  endloop
 endfacet
 facet normal 0.933679 0.123244 0.336235
  outer loop
   vertex 0.056817 -0.025489 0.059319
   vertex 0.048241 -0.038043 0.087735
   vertex 0.045944 -0.056103 0.100734
  endloop
 endfacet
 facet normal 0.975966 -0.188051 -0.110125
  outer loop
   vertex 0.050313 -0.050772 0.155135
   vertex 0.046624 -0.074666 0.163242
   vertex 0.046948 -0.067601 0.154047
  endloop
 endfacet
 facet normal -0.963645 0.172165 0.204322
  outer loop
   vertex -0.060073 0.013136 0.029376
   vertex -0.061209 -0.005706 0.039894
   vertex -0.054874 0.010373 0.056222
  endloop
 endfacet
 facet normal 0.664073 0.483532 0.570266
  outer loop
   vertex 0.037964 0.028985 0.063897
   vertex 0.043957 0.013851 0.069751
   vertex 0.045979 0.028383 0.055074
  endloop
 endfacet
 facet normal 0.984100 -0.040237 0.173000
  outer loop
   vertex 0.061041 -0.005714 0.039890
   vertex 0.057701 -0.006348 0.058746
   vertex 0.056817 -0.025489 0.059319
  endloop
 endfacet
 facet normal 0.625903 0.752945 0.203269
  outer loop
   vertex 0.039398 0.047575 0.018941
   vertex 0.030453 0.047590 0.046426
   vertex 0.047620 0.038123 0.028637
  endloop
 endfacet
 facet normal -0.612508 0.000000 0.790465
  outer loop
   vertex -0.043153 -0.050772 0.233645
   vertex -0.030536 -0.050772 0.243422
   vertex -0.030536 -0.044416 0.243422
  endloop
 endfacet
 facet normal 0.760628 -0.632920 -0.144419
  outer loop
   vertex 0.047954 -0.042282 0.030346
   vertex 0.044331 -0.065176 0.111597
   vertex 0.041325 -0.064317 0.092000
  endloop
 endfacet
 facet normal -0.385961 0.000000 0.922515
  outer loop
   vertex -0.030536 -0.050772 0.243422
   vertex -0.015844 -0.044416 0.249569
   vertex -0.030536 -0.044416 0.243422
  endloop
 endfacet
 facet normal 0.760819 -0.647248 -0.047156
  outer loop
   vertex 0.047954 -0.042282 0.030346
   vertex 0.040013 -0.052414 0.041289
   vertex 0.039612 -0.049844 -0.000451
  endloop
 endfacet
 facet normal 0.646907 -0.757511 0.087688
  outer loop
   vertex 0.043416 -0.079746 0.162993
   vertex 0.048659 -0.071991 0.191300
   vertex 0.038971 -0.079262 0.199963
  endloop
 endfacet
 facet normal -0.253517 0.631087 0.733116
  outer loop
   vertex -0.029867 0.036859 0.062948
   vertex -0.013616 0.030720 0.073852
   vertex -0.012062 0.045426 0.061731
  endloop
 endfacet
 facet normal 0.564537 0.654720 0.502633
  outer loop
   vertex 0.029572 0.036936 0.062967
   vertex 0.037964 0.028985 0.063897
   vertex 0.039509 0.040102 0.047681
  endloop
 endfacet
 facet normal 0.619177 -0.412675 0.668071
  outer loop
   vertex 0.047900 -0.050772 0.227683
   vertex 0.033301 -0.050772 0.241214
   vertex 0.037129 -0.058354 0.232983
  endloop
 endfacet
 facet normal 0.856268 0.287739 0.428965
  outer loop
   vertex 0.048950 0.011048 0.065925
   vertex 0.052952 -0.006428 0.069659
   vertex 0.051856 0.019102 0.054722
  endloop
 endfacet
 facet normal 0.386019 0.000000 -0.922491
  outer loop
   vertex 0.030384 -0.050772 0.136851
   vertex 0.015692 -0.050772 0.130703
   vertex 0.015692 -0.044416 0.130703
  endloop
 endfacet
 facet normal -0.037126 0.527963 0.848455
  outer loop
   vertex -0.013616 0.030720 0.073852
   vertex -0.004941 0.023625 0.078647
   vertex 0.004039 0.037526 0.070390
  endloop
 endfacet
 facet normal -0.928710 0.304781 0.211204
  outer loop
   vertex -0.060073 0.013136 0.029376
   vertex -0.054874 0.010373 0.056222
   vertex -0.052358 0.022979 0.049094
  endloop
 endfacet
 facet normal 0.612589 0.000000 -0.790402
  outer loop
   vertex 0.043001 -0.050772 0.146629
   vertex 0.030384 -0.050772 0.136851
   vertex 0.030384 -0.044416 0.136851
  endloop
 endfacet
 facet normal -0.228303 -0.860396 0.455628
  outer loop
   vertex -0.024615 -0.086625 0.202434
   vertex -0.004403 -0.088604 0.208823
   vertex -0.029249 -0.077495 0.217352
  endloop
 endfacet
 facet normal 0.891220 -0.445390 -0.085757
  outer loop
   vertex 0.047954 -0.042282 0.030346
   vertex 0.057715 -0.024610 0.039997
   vertex 0.044331 -0.065176 0.111597
  endloop
 endfacet
 facet normal 0.348792 -0.937075 0.015316
  outer loop
   vertex 0.021499 -0.060201 -0.000404
   vertex 0.029792 -0.056769 0.020710
   vertex 0.013617 -0.062797 0.020267
  endloop
 endfacet
 facet normal -0.692529 0.721390 0.000645
  outer loop
   vertex 0.058621 -0.023704 -0.000583
   vertex 0.056817 -0.025489 0.059319
   vertex 0.057715 -0.024610 0.039997
  endloop
 endfacet
 facet normal -0.128865 0.990946 -0.037670
  outer loop
   vertex -0.021651 0.058262 -0.000675
   vertex -0.004687 0.061235 0.019522
   vertex 0.004572 0.061675 -0.000596
  endloop
 endfacet
 facet normal 0.776611 0.420666 0.468952
  outer loop
   vertex 0.041598 -0.039658 0.097149
   vertex 0.041082 -0.050878 0.108069
   vertex 0.044964 -0.059317 0.109211
  endloop
 endfacet
 facet normal 0.348937 -0.925557 -0.146926
  outer loop
   vertex 0.013617 -0.062797 0.020267
   vertex 0.029792 -0.056769 0.020710
   vertex 0.029747 -0.060125 0.041746
  endloop
 endfacet
 facet normal 0.446458 -0.838855 0.311444
  outer loop
   vertex 0.023362 -0.083440 0.211086
   vertex 0.038971 -0.079262 0.199963
   vertex 0.034298 -0.077029 0.212674
  endloop
 endfacet
 facet normal -0.991617 0.000000 -0.129216
  outer loop
   vertex -0.058921 -0.050772 0.174211
   vertex -0.060996 -0.044416 0.190136
   vertex -0.058921 -0.044416 0.174211
  endloop
 endfacet
 facet normal -0.101705 -0.991918 -0.075864
  outer loop
   vertex -0.022479 -0.090345 0.152957
   vertex 0.004763 -0.094632 0.172492
   vertex -0.014358 -0.093403 0.182061
  endloop
 endfacet
 facet normal 0.117813 -0.986207 0.116259
  outer loop
   vertex 0.004763 -0.094632 0.172492
   vertex 0.023166 -0.091321 0.181935
   vertex 0.004456 -0.091359 0.200567
  endloop
 endfacet
 facet normal -0.018144 0.721615 0.692056
  outer loop
   vertex -0.012062 0.045426 0.061731
   vertex 0.004039 0.037526 0.070390
   vertex -0.004517 0.050191 0.056960
  endloop
 endfacet
 facet normal 0.925686 0.305875 0.222587
  outer loop
   vertex 0.053390 0.027376 0.036973
   vertex 0.051856 0.019102 0.054722
   vertex 0.059927 0.013123 0.029375
  endloop
 endfacet
 facet normal 0.742662 -0.639274 -0.199452
  outer loop
   vertex 0.038610 -0.081474 0.143173
   vertex 0.029747 -0.060125 0.041746
   vertex 0.044170 -0.074948 0.142957
  endloop
 endfacet
 facet normal -0.141246 0.477173 0.867384
  outer loop
   vertex -0.033121 -0.029769 0.095174
   vertex -0.004978 -0.033074 0.101575
   vertex -0.004909 -0.019484 0.094110
  endloop
 endfacet
 facet normal 0.407040 0.369501 0.835337
  outer loop
   vertex 0.028873 0.027760 0.070949
   vertex 0.041603 -0.018616 0.085260
   vertex 0.043957 0.013851 0.069751
  endloop
 endfacet
 facet normal 0.000000 1.000000 0.000000
  outer loop
   vertex -0.029532 -0.050772 0.243589
   vertex -0.014164 -0.050772 0.249603
   vertex 0.004728 -0.050772 0.251068
  endloop
 endfacet
 facet normal -0.505684 -0.844096 0.178285
  outer loop
   vertex -0.044124 -0.077025 0.192548
   vertex -0.034509 -0.087063 0.172297
   vertex -0.024615 -0.086625 0.202434
  endloop
 endfacet
 facet normal 0.176863 -0.912422 0.369059
  outer loop
   vertex 0.004456 -0.091359 0.200567
   vertex 0.023362 -0.083440 0.211086
   vertex 0.013554 -0.081904 0.219583
  endloop
 endfacet
 facet normal -0.259406 0.623438 0.737586
  outer loop
   vertex -0.029867 0.036859 0.062948
   vertex -0.029124 0.027731 0.070925
   vertex -0.013616 0.030720 0.073852
  endloop
 endfacet
 facet normal 0.049037 0.742061 0.668536
  outer loop
   vertex -0.004517 0.050191 0.056960
   vertex 0.004039 0.037526 0.070390
   vertex 0.013566 0.040878 0.065971
  endloop
 endfacet
 facet normal 0.198419 -0.490903 0.848318
  outer loop
   vertex 0.004728 -0.050772 0.251068
   vertex 0.020188 -0.059048 0.242663
   vertex 0.022377 -0.050772 0.246940
  endloop
 endfacet
 facet normal 0.409599 -0.616277 0.672630
  outer loop
   vertex 0.022323 -0.072906 0.228666
   vertex 0.037129 -0.058354 0.232983
   vertex 0.020188 -0.059048 0.242663
  endloop
 endfacet
 facet normal -0.796308 0.000000 0.604891
  outer loop
   vertex -0.052834 -0.050772 0.220900
   vertex -0.043153 -0.044416 0.233645
   vertex -0.052834 -0.044416 0.220900
  endloop
 endfacet
 facet normal 0.127766 0.971914 0.197631
  outer loop
   vertex -0.004687 0.061235 0.019522
   vertex 0.020780 0.052557 0.045735
   vertex 0.021304 0.057904 0.019103
  endloop
 endfacet
 facet normal -0.069300 -0.739641 0.669424
  outer loop
   vertex -0.014157 -0.074187 0.230615
   vertex 0.004686 -0.075314 0.231321
   vertex -0.004813 -0.065617 0.241051
  endloop
 endfacet
 facet normal -0.742204 0.435949 0.509001
  outer loop
   vertex -0.052358 0.022979 0.049094
   vertex -0.054874 0.010373 0.056222
   vertex -0.045328 0.009130 0.071206
  endloop
 endfacet
 facet normal 0.495212 0.868530 0.020511
  outer loop
   vertex 0.021481 0.058254 -0.000675
   vertex 0.039398 0.047575 0.018941
   vertex 0.039652 0.047894 -0.000714
  endloop
 endfacet
 facet normal 0.198346 0.979946 0.019118
  outer loop
   vertex 0.004572 0.061675 -0.000596
   vertex 0.021304 0.057904 0.019103
   vertex 0.021481 0.058254 -0.000675
  endloop
 endfacet
 facet normal 0.449385 0.373737 0.811402
  outer loop
   vertex 0.028873 0.027760 0.070949
   vertex 0.032982 -0.029767 0.095170
   vertex 0.041603 -0.018616 0.085260
  endloop
 endfacet
 facet normal -0.963706 0.199318 0.177605
  outer loop
   vertex -0.054874 0.010373 0.056222
   vertex -0.061209 -0.005706 0.039894
   vertex -0.057860 -0.006329 0.058763
  endloop
 endfacet
 facet normal -0.893836 0.219308 0.391102
  outer loop
   vertex -0.054874 0.010373 0.056222
   vertex -0.057860 -0.006329 0.058763
   vertex -0.053110 -0.006422 0.069670
  endloop
 endfacet
 facet normal 0.448053 0.533790 0.717159
  outer loop
   vertex 0.032982 -0.029767 0.095170
   vertex 0.032208 -0.042859 0.105398
   vertex 0.041598 -0.039658 0.097149
  endloop
 endfacet
 facet normal -0.984020 -0.040972 0.173279
  outer loop
   vertex -0.061209 -0.005706 0.039894
   vertex -0.056963 -0.025467 0.059333
   vertex -0.057860 -0.006329 0.058763
  endloop
 endfacet
 facet normal -0.600203 0.665751 0.443320
  outer loop
   vertex -0.041213 -0.050869 0.108080
   vertex -0.046030 -0.048611 0.098168
   vertex -0.041756 -0.059558 0.120393
  endloop
 endfacet
 facet normal 0.843779 -0.528262 -0.094743
  outer loop
   vertex 0.044170 -0.074948 0.142957
   vertex 0.046624 -0.074666 0.163242
   vertex 0.043416 -0.079746 0.162993
  endloop
 endfacet
 facet normal 0.402498 -0.888071 -0.222095
  outer loop
   vertex 0.020032 -0.064869 0.043107
   vertex 0.029747 -0.060125 0.041746
   vertex 0.038610 -0.081474 0.143173
  endloop
 endfacet
 facet normal 0.565015 0.733901 0.377023
  outer loop
   vertex 0.020780 0.052557 0.045735
   vertex 0.020948 0.047592 0.055149
   vertex 0.029572 0.036936 0.062967
  endloop
 endfacet
 facet normal -0.796308 0.000000 0.604891
  outer loop
   vertex -0.052834 -0.050772 0.220900
   vertex -0.043153 -0.050772 0.233645
   vertex -0.043153 -0.044416 0.233645
  endloop
 endfacet
 facet normal 0.131756 0.000000 -0.991282
  outer loop
   vertex 0.015692 -0.050772 0.130703
   vertex -0.000076 -0.044416 0.128607
   vertex 0.015692 -0.044416 0.130703
  endloop
 endfacet
 facet normal 0.446507 -0.838795 0.311536
  outer loop
   vertex 0.030461 -0.087203 0.190779
   vertex 0.038971 -0.079262 0.199963
   vertex 0.023362 -0.083440 0.211086
  endloop
 endfacet
 facet normal -0.780549 0.338719 0.525368
  outer loop
   vertex -0.054874 0.010373 0.056222
   vertex -0.053110 -0.006422 0.069670
   vertex -0.045328 0.009130 0.071206
  endloop
 endfacet
 facet normal 0.582773 -0.787649 -0.199959
  outer loop
   vertex 0.029747 -0.060125 0.041746
   vertex 0.040013 -0.052414 0.041289
   vertex 0.041325 -0.064317 0.092000
  endloop
 endfacet
 facet normal 0.195680 -0.784576 0.588345
  outer loop
   vertex 0.013554 -0.081904 0.219583
   vertex 0.022323 -0.072906 0.228666
   vertex 0.004686 -0.075314 0.231321
  endloop
 endfacet
 facet normal -0.426843 0.869810 0.247459
  outer loop
   vertex -0.032822 0.052237 0.019480
   vertex -0.012038 0.054751 0.046493
   vertex -0.021573 0.057865 0.019100
  endloop
 endfacet
 facet normal 0.342617 0.462113 0.817964
  outer loop
   vertex 0.041603 -0.018616 0.085260
   vertex 0.032982 -0.029767 0.095170
   vertex 0.041598 -0.039658 0.097149
  endloop
 endfacet
 facet normal 0.198374 -0.590590 0.782209
  outer loop
   vertex -0.004813 -0.065617 0.241051
   vertex 0.004686 -0.075314 0.231321
   vertex 0.022323 -0.072906 0.228666
  endloop
 endfacet
 facet normal 0.956779 0.137065 0.256491
  outer loop
   vertex 0.057715 -0.024610 0.039997
   vertex 0.045944 -0.056103 0.100734
   vertex 0.044331 -0.065176 0.111597
  endloop
 endfacet
 facet normal 0.429472 -0.555862 0.711738
  outer loop
   vertex 0.020188 -0.059048 0.242663
   vertex 0.037129 -0.058354 0.232983
   vertex 0.033301 -0.050772 0.241214
  endloop
 endfacet
 facet normal 0.844568 -0.284343 -0.453711
  outer loop
   vertex 0.050313 -0.050772 0.155135
   vertex 0.056142 -0.050772 0.165985
   vertex 0.046624 -0.074666 0.163242
  endloop
 endfacet
 facet normal -0.654694 -0.753303 0.062532
  outer loop
   vertex -0.040108 -0.083000 0.162610
   vertex -0.034509 -0.087063 0.172297
   vertex -0.044124 -0.077025 0.192548
  endloop
 endfacet
 facet normal 0.821497 -0.570189 -0.005223
  outer loop
   vertex 0.046624 -0.074666 0.163242
   vertex 0.055024 -0.062741 0.182687
   vertex 0.048659 -0.071991 0.191300
  endloop
 endfacet
 facet normal -0.458174 -0.569648 0.682333
  outer loop
   vertex -0.039408 -0.050772 0.236724
   vertex -0.036311 -0.067479 0.224855
   vertex -0.020184 -0.059052 0.242720
  endloop
 endfacet
 facet normal 0.590547 0.712229 0.379452
  outer loop
   vertex 0.038502 -0.055211 0.117025
   vertex 0.044072 -0.067645 0.131696
   vertex 0.041613 -0.059578 0.120381
  endloop
 endfacet
 facet normal 0.230778 -0.943650 -0.237203
  outer loop
   vertex 0.004726 -0.065410 0.030368
   vertex 0.020032 -0.064869 0.043107
   vertex 0.022095 -0.087206 0.133975
  endloop
 endfacet
 facet normal 0.373915 0.637973 0.673185
  outer loop
   vertex 0.032208 -0.042859 0.105398
   vertex 0.041082 -0.050878 0.108069
   vertex 0.041598 -0.039658 0.097149
  endloop
 endfacet
 facet normal 0.664972 -0.723096 -0.186933
  outer loop
   vertex 0.047954 -0.042282 0.030346
   vertex 0.041325 -0.064317 0.092000
   vertex 0.040013 -0.052414 0.041289
  endloop
 endfacet
 facet normal -0.456846 -0.888709 0.038580
  outer loop
   vertex -0.044124 -0.077025 0.192548
   vertex -0.024615 -0.086625 0.202434
   vertex -0.039023 -0.079324 0.200006
  endloop
 endfacet
 facet normal 0.552392 -0.826304 0.109933
  outer loop
   vertex 0.034354 -0.087060 0.172297
   vertex 0.040468 -0.082959 0.172398
   vertex 0.030461 -0.087203 0.190779
  endloop
 endfacet
 facet normal 0.914373 0.400741 -0.057692
  outer loop
   vertex 0.044072 -0.067645 0.131696
   vertex 0.037271 -0.050772 0.141099
   vertex 0.044911 -0.067914 0.143124
  endloop
 endfacet
 facet normal -0.920038 0.368637 -0.132801
  outer loop
   vertex -0.040839 -0.061595 0.131124
   vertex -0.044796 -0.067601 0.141868
   vertex -0.041363 -0.058120 0.144401
  endloop
 endfacet
 facet normal -0.177174 -0.947277 0.266976
  outer loop
   vertex -0.022840 -0.090143 0.191128
   vertex -0.004403 -0.088604 0.208823
   vertex -0.024615 -0.086625 0.202434
  endloop
 endfacet
 facet normal 0.000000 1.000000 0.000000
  outer loop
   vertex 0.056142 -0.050772 0.165985
   vertex 0.059683 -0.050772 0.201751
   vertex 0.060502 -0.050772 0.183056
  endloop
 endfacet
 facet normal -0.131884 0.000000 0.991265
  outer loop
   vertex -0.015844 -0.050772 0.249569
   vertex -0.000076 -0.044416 0.251667
   vertex -0.015844 -0.044416 0.249569
  endloop
 endfacet
 facet normal -0.496342 0.867911 0.019363
  outer loop
   vertex -0.039777 0.047897 -0.000714
   vertex -0.021573 0.057865 0.019100
   vertex -0.021651 0.058262 -0.000675
  endloop
 endfacet
 facet normal -0.950931 0.309267 -0.009131
  outer loop
   vertex -0.038620 -0.055189 0.117046
   vertex -0.040839 -0.061595 0.131124
   vertex -0.037415 -0.050772 0.141095
  endloop
 endfacet
 facet normal 0.423667 -0.899053 -0.110505
  outer loop
   vertex 0.022315 -0.090356 0.152957
   vertex 0.038610 -0.081474 0.143173
   vertex 0.034354 -0.087060 0.172297
  endloop
 endfacet
 facet normal -0.032821 0.999306 0.017632
  outer loop
   vertex 0.023989 -0.051011 0.119682
   vertex 0.056142 -0.050772 0.165985
   vertex 0.050313 -0.050772 0.155135
  endloop
 endfacet
 facet normal 0.860899 0.432293 0.268282
  outer loop
   vertex 0.041082 -0.050878 0.108069
   vertex 0.041613 -0.059578 0.120381
   vertex 0.044964 -0.059317 0.109211
  endloop
 endfacet
 facet normal 0.495794 0.868214 0.019807
  outer loop
   vertex 0.021481 0.058254 -0.000675
   vertex 0.021304 0.057904 0.019103
   vertex 0.039398 0.047575 0.018941
  endloop
 endfacet
 facet normal -0.082253 -0.971013 -0.224430
  outer loop
   vertex -0.012243 -0.066795 0.042577
   vertex 0.004726 -0.065410 0.030368
   vertex -0.004835 -0.092893 0.152780
  endloop
 endfacet
 facet normal -0.131884 0.000000 0.991265
  outer loop
   vertex -0.015844 -0.050772 0.249569
   vertex -0.000076 -0.050772 0.251667
   vertex -0.000076 -0.044416 0.251667
  endloop
 endfacet
 facet normal -0.919757 -0.345333 -0.186525
  outer loop
   vertex -0.056295 -0.050772 0.165987
   vertex -0.046777 -0.074634 0.163231
   vertex -0.055185 -0.062734 0.182660
  endloop
 endfacet
 facet normal -0.888578 -0.398691 -0.226882
  outer loop
   vertex -0.056295 -0.050772 0.165987
   vertex -0.055185 -0.062734 0.182660
   vertex -0.060654 -0.050772 0.183056
  endloop
 endfacet
 facet normal 0.996436 0.012012 0.083488
  outer loop
   vertex 0.062546 0.003943 -0.000566
   vertex 0.059927 0.013123 0.029375
   vertex 0.057701 -0.006348 0.058746
  endloop
 endfacet
 facet normal 0.438361 0.879513 0.185194
  outer loop
   vertex 0.021304 0.057904 0.019103
   vertex 0.020780 0.052557 0.045735
   vertex 0.030453 0.047590 0.046426
  endloop
 endfacet
 facet normal -0.386018 0.000000 -0.922491
  outer loop
   vertex -0.015844 -0.050772 0.130703
   vertex -0.030536 -0.050772 0.136851
   vertex -0.030536 -0.044416 0.136851
  endloop
 endfacet
 facet normal -0.128753 -0.991501 -0.018681
  outer loop
   vertex -0.021631 -0.060193 -0.000404
   vertex 0.004578 -0.063595 -0.000465
   vertex -0.021779 -0.060566 0.020415
  endloop
 endfacet
 facet normal 0.488373 -0.870685 -0.058296
  outer loop
   vertex 0.029792 -0.056769 0.020710
   vertex 0.039612 -0.049844 -0.000451
   vertex 0.040013 -0.052414 0.041289
  endloop
 endfacet
 facet normal 0.240505 -0.940623 0.239555
  outer loop
   vertex 0.004456 -0.091359 0.200567
   vertex 0.023166 -0.091321 0.181935
   vertex 0.030461 -0.087203 0.190779
  endloop
 endfacet
 facet normal -0.906911 -0.416662 0.062483
  outer loop
   vertex -0.060654 -0.050772 0.183056
   vertex -0.055185 -0.062734 0.182660
   vertex -0.054546 -0.061399 0.200849
  endloop
 endfacet
 facet normal -0.893219 -0.447918 0.039115
  outer loop
   vertex -0.060654 -0.050772 0.183056
   vertex -0.054546 -0.061399 0.200849
   vertex -0.059835 -0.050772 0.201751
  endloop
 endfacet
 facet normal 0.428858 -0.874952 -0.224812
  outer loop
   vertex 0.022095 -0.087206 0.133975
   vertex 0.020032 -0.064869 0.043107
   vertex 0.038610 -0.081474 0.143173
  endloop
 endfacet
 facet normal 0.850409 -0.503529 -0.152522
  outer loop
   vertex 0.041325 -0.064317 0.092000
   vertex 0.044331 -0.065176 0.111597
   vertex 0.044170 -0.074948 0.142957
  endloop
 endfacet
 facet normal 0.000000 -1.000000 0.000000
  outer loop
   vertex -0.015844 -0.050772 0.130703
   vertex -0.000076 -0.050772 0.128607
   vertex -0.030536 -0.050772 0.136851
  endloop
 endfacet
 facet normal 0.385961 0.000000 0.922515
  outer loop
   vertex 0.015692 -0.050772 0.249569
   vertex 0.030384 -0.044416 0.243422
   vertex 0.015692 -0.044416 0.249569
  endloop
 endfacet
 facet normal 0.991617 0.000000 -0.129216
  outer loop
   vertex 0.060844 -0.050772 0.190136
   vertex 0.058769 -0.044416 0.174211
   vertex 0.060844 -0.044416 0.190136
  endloop
 endfacet
 facet normal 0.196018 -0.979849 -0.038388
  outer loop
   vertex 0.004763 -0.094632 0.172492
   vertex 0.022315 -0.090356 0.152957
   vertex 0.023166 -0.091321 0.181935
  endloop
 endfacet
 facet normal -0.186109 0.844747 0.501764
  outer loop
   vertex -0.012038 0.054751 0.046493
   vertex -0.021079 0.047610 0.055161
   vertex -0.004517 0.050191 0.056960
  endloop
 endfacet
 facet normal -0.925197 0.000000 0.379486
  outer loop
   vertex -0.058921 -0.050772 0.206061
   vertex -0.052834 -0.050772 0.220900
   vertex -0.052834 -0.044416 0.220900
  endloop
 endfacet
 facet normal 0.385961 0.000000 0.922515
  outer loop
   vertex 0.015692 -0.050772 0.249569
   vertex 0.030384 -0.050772 0.243422
   vertex 0.030384 -0.044416 0.243422
  endloop
 endfacet
 facet normal -0.925206 0.000000 -0.379464
  outer loop
   vertex -0.052834 -0.050772 0.159371
   vertex -0.058921 -0.050772 0.174211
   vertex -0.058921 -0.044416 0.174211
  endloop
 endfacet
 facet normal 0.000000 -1.000000 0.000000
  outer loop
   vertex -0.030536 -0.050772 0.136851
   vertex -0.000076 -0.050772 0.128607
   vertex -0.043153 -0.050772 0.146629
  endloop
 endfacet
 facet normal 0.991617 0.000000 -0.129216
  outer loop
   vertex 0.060844 -0.050772 0.190136
   vertex 0.058769 -0.050772 0.174211
   vertex 0.058769 -0.044416 0.174211
  endloop
 endfacet
 facet normal -0.840010 -0.444525 0.311096
  outer loop
   vertex -0.059835 -0.050772 0.201751
   vertex -0.054546 -0.061399 0.200849
   vertex -0.049489 -0.063744 0.211152
  endloop
 endfacet
 facet normal -0.839492 -0.460264 0.288809
  outer loop
   vertex -0.059835 -0.050772 0.201751
   vertex -0.049489 -0.063744 0.211152
   vertex -0.054319 -0.050772 0.217785
  endloop
 endfacet
 facet normal 0.051859 0.728209 0.683391
  outer loop
   vertex -0.004978 -0.033074 0.101575
   vertex 0.014083 -0.046204 0.114120
   vertex 0.032982 -0.029767 0.095170
  endloop
 endfacet
 facet normal 0.863480 -0.504356 -0.005162
  outer loop
   vertex 0.058621 -0.023704 -0.000583
   vertex 0.047954 -0.042282 0.030346
   vertex 0.048253 -0.041454 -0.000519
  endloop
 endfacet
 facet normal 0.975616 0.218464 0.021122
  outer loop
   vertex 0.058649 0.021737 -0.000678
   vertex 0.058253 0.021576 0.019279
   vertex 0.059927 0.013123 0.029375
  endloop
 endfacet
 facet normal 0.092859 -0.982075 -0.164033
  outer loop
   vertex -0.004835 -0.092893 0.152780
   vertex 0.022095 -0.087206 0.133975
   vertex 0.022315 -0.090356 0.152957
  endloop
 endfacet
 facet normal 0.190793 0.532359 0.824737
  outer loop
   vertex 0.004039 0.037526 0.070390
   vertex 0.021452 0.019150 0.078223
   vertex 0.028873 0.027760 0.070949
  endloop
 endfacet
 facet normal 0.839919 -0.459414 0.288920
  outer loop
   vertex 0.059683 -0.050772 0.201751
   vertex 0.054166 -0.050772 0.217791
   vertex 0.049340 -0.063757 0.211170
  endloop
 endfacet
 facet normal -0.197084 0.968162 0.154340
  outer loop
   vertex -0.021573 0.057865 0.019100
   vertex -0.004323 0.058285 0.038496
   vertex -0.004687 0.061235 0.019522
  endloop
 endfacet
 facet normal 0.136601 -0.693474 0.707414
  outer loop
   vertex -0.004813 -0.065617 0.241051
   vertex 0.022323 -0.072906 0.228666
   vertex 0.020188 -0.059048 0.242663
  endloop
 endfacet
 facet normal 0.261658 0.584541 0.768015
  outer loop
   vertex 0.032982 -0.029767 0.095170
   vertex 0.014083 -0.046204 0.114120
   vertex 0.032208 -0.042859 0.105398
  endloop
 endfacet
 facet normal -0.723611 0.688440 0.049379
  outer loop
   vertex -0.052745 0.033305 -0.000583
   vertex -0.054501 0.030055 0.018994
   vertex -0.046608 0.037004 0.037789
  endloop
 endfacet
 facet normal -0.712268 0.700371 0.046415
  outer loop
   vertex -0.052745 0.033305 -0.000583
   vertex -0.046608 0.037004 0.037789
   vertex -0.032822 0.052237 0.019480
  endloop
 endfacet
 facet normal -0.742116 0.660574 0.113607
  outer loop
   vertex -0.052745 0.033305 -0.000583
   vertex -0.032822 0.052237 0.019480
   vertex -0.039777 0.047897 -0.000714
  endloop
 endfacet
 facet normal -0.862519 -0.505990 -0.005884
  outer loop
   vertex -0.058791 -0.023691 -0.000582
   vertex -0.048293 -0.041588 -0.000524
   vertex -0.048111 -0.042257 0.030351
  endloop
 endfacet
 facet normal -0.123141 -0.964943 0.231778
  outer loop
   vertex -0.014358 -0.093403 0.182061
   vertex 0.004456 -0.091359 0.200567
   vertex -0.022840 -0.090143 0.191128
  endloop
 endfacet
 facet normal -0.696395 -0.717568 -0.011448
  outer loop
   vertex -0.048293 -0.041588 -0.000524
   vertex -0.039792 -0.049839 -0.000449
   vertex -0.048111 -0.042257 0.030351
  endloop
 endfacet
 facet normal -0.852703 0.491745 0.176308
  outer loop
   vertex -0.046608 0.037004 0.037789
   vertex -0.054501 0.030055 0.018994
   vertex -0.052358 0.022979 0.049094
  endloop
 endfacet
 facet normal 0.937515 0.253049 0.238813
  outer loop
   vertex 0.059927 0.013123 0.029375
   vertex 0.051856 0.019102 0.054722
   vertex 0.057701 -0.006348 0.058746
  endloop
 endfacet
 facet normal 0.294829 0.708800 0.640842
  outer loop
   vertex 0.020948 0.047592 0.055149
   vertex 0.013566 0.040878 0.065971
   vertex 0.029572 0.036936 0.062967
  endloop
 endfacet
 facet normal 0.615302 0.303000 0.727732
  outer loop
   vertex 0.043957 0.013851 0.069751
   vertex 0.041603 -0.018616 0.085260
   vertex 0.048241 -0.038043 0.087735
  endloop
 endfacet
 facet normal 0.000000 1.000000 0.000000
  outer loop
   vertex -0.054319 -0.050772 0.217785
   vertex -0.039408 -0.050772 0.236724
   vertex -0.029532 -0.050772 0.243589
  endloop
 endfacet
 facet normal -0.785517 -0.609664 -0.106175
  outer loop
   vertex -0.043790 -0.073237 0.133106
   vertex -0.038779 -0.081446 0.143176
   vertex -0.046777 -0.074634 0.163231
  endloop
 endfacet
 facet normal -0.925206 0.000000 -0.379464
  outer loop
   vertex -0.052834 -0.050772 0.159371
   vertex -0.058921 -0.044416 0.174211
   vertex -0.052834 -0.044416 0.159371
  endloop
 endfacet
 facet normal 0.123426 0.803343 0.582585
  outer loop
   vertex -0.004517 0.050191 0.056960
   vertex 0.013566 0.040878 0.065971
   vertex 0.020948 0.047592 0.055149
  endloop
 endfacet
 facet normal -0.065626 -0.528813 0.846197
  outer loop
   vertex -0.014164 -0.050772 0.249603
   vertex -0.004813 -0.065617 0.241051
   vertex 0.004728 -0.050772 0.251068
  endloop
 endfacet
 facet normal -0.363248 -0.905681 -0.218616
  outer loop
   vertex -0.038779 -0.081446 0.143176
   vertex -0.030485 -0.057857 0.031671
   vertex -0.022479 -0.090345 0.152957
  endloop
 endfacet
 facet normal 0.517380 0.706608 0.482725
  outer loop
   vertex 0.030453 0.047590 0.046426
   vertex 0.029572 0.036936 0.062967
   vertex 0.039509 0.040102 0.047681
  endloop
 endfacet
 facet normal 0.612508 0.000000 0.790465
  outer loop
   vertex 0.030384 -0.050772 0.243422
   vertex 0.043001 -0.044416 0.233645
   vertex 0.030384 -0.044416 0.243422
  endloop
 endfacet
 facet normal 0.686243 0.494457 0.533464
  outer loop
   vertex 0.051856 0.019102 0.054722
   vertex 0.043957 0.013851 0.069751
   vertex 0.048950 0.011048 0.065925
  endloop
 endfacet
 facet normal -0.238051 0.952264 0.191117
  outer loop
   vertex -0.021573 0.057865 0.019100
   vertex -0.012038 0.054751 0.046493
   vertex -0.004323 0.058285 0.038496
  endloop
 endfacet
 facet normal -0.462423 -0.880767 -0.102056
  outer loop
   vertex -0.038779 -0.081446 0.143176
   vertex -0.034509 -0.087063 0.172297
   vertex -0.040108 -0.083000 0.162610
  endloop
 endfacet
 facet normal -0.386018 0.000000 -0.922491
  outer loop
   vertex -0.015844 -0.050772 0.130703
   vertex -0.030536 -0.044416 0.136851
   vertex -0.015844 -0.044416 0.130703
  endloop
 endfacet
 facet normal -0.318566 -0.946947 0.042503
  outer loop
   vertex -0.034509 -0.087063 0.172297
   vertex -0.014358 -0.093403 0.182061
   vertex -0.022840 -0.090143 0.191128
  endloop
 endfacet
 facet normal 0.128004 0.988501 0.080503
  outer loop
   vertex 0.004572 0.061675 -0.000596
   vertex -0.004687 0.061235 0.019522
   vertex 0.021304 0.057904 0.019103
  endloop
 endfacet
 facet normal -0.645046 -0.743678 -0.175666
  outer loop
   vertex -0.030485 -0.057857 0.031671
   vertex -0.044715 -0.060101 0.093419
   vertex -0.048111 -0.042257 0.030351
  endloop
 endfacet
 facet normal -0.773504 0.558566 0.299492
  outer loop
   vertex -0.046608 0.037004 0.037789
   vertex -0.052358 0.022979 0.049094
   vertex -0.046239 0.028259 0.055049
  endloop
 endfacet
 facet normal 0.602840 -0.627385 0.492923
  outer loop
   vertex 0.034298 -0.077029 0.212674
   vertex 0.049340 -0.063757 0.211170
   vertex 0.037129 -0.058354 0.232983
  endloop
 endfacet
 facet normal 0.499956 -0.671080 0.547444
  outer loop
   vertex 0.034298 -0.077029 0.212674
   vertex 0.037129 -0.058354 0.232983
   vertex 0.022323 -0.072906 0.228666
  endloop
 endfacet
 facet normal -0.729121 0.604107 0.321617
  outer loop
   vertex -0.046608 0.037004 0.037789
   vertex -0.046239 0.028259 0.055049
   vertex -0.039655 0.040124 0.047691
  endloop
 endfacet
 facet normal 0.925197 0.000000 0.379486
  outer loop
   vertex 0.052682 -0.050772 0.220900
   vertex 0.058769 -0.044416 0.206061
   vertex 0.052682 -0.044416 0.220900
  endloop
 endfacet
 facet normal -0.796238 0.000000 -0.604984
  outer loop
   vertex -0.043153 -0.050772 0.146629
   vertex -0.052834 -0.044416 0.159371
   vertex -0.043153 -0.044416 0.146629
  endloop
 endfacet
 facet normal 0.000000 1.000000 0.000000
  outer loop
   vertex 0.033301 -0.050772 0.241214
   vertex 0.004728 -0.050772 0.251068
   vertex 0.022377 -0.050772 0.246940
  endloop
 endfacet
 facet normal -0.897289 0.417094 -0.144585
  outer loop
   vertex -0.037415 -0.050772 0.141095
   vertex -0.040839 -0.061595 0.131124
   vertex -0.041363 -0.058120 0.144401
  endloop
 endfacet
 facet normal -0.925197 0.000000 0.379486
  outer loop
   vertex -0.058921 -0.050772 0.206061
   vertex -0.052834 -0.044416 0.220900
   vertex -0.058921 -0.044416 0.206061
  endloop
 endfacet
 facet normal 0.290842 0.943457 -0.159060
  outer loop
   vertex 0.032539 -0.053092 0.118686
   vertex 0.037271 -0.050772 0.141099
   vertex 0.038502 -0.055211 0.117025
  endloop
 endfacet
 facet normal 0.786023 0.334823 0.519674
  outer loop
   vertex 0.041603 -0.018616 0.085260
   vertex 0.045892 -0.048654 0.098126
   vertex 0.048241 -0.038043 0.087735
  endloop
 endfacet
 facet normal 0.324584 -0.944968 -0.041001
  outer loop
   vertex 0.022315 -0.090356 0.152957
   vertex 0.034354 -0.087060 0.172297
   vertex 0.023166 -0.091321 0.181935
  endloop
 endfacet
 facet normal -0.198034 0.969406 -0.145035
  outer loop
   vertex -0.038620 -0.055189 0.117046
   vertex -0.031746 -0.050772 0.137181
   vertex -0.014802 -0.049796 0.120568
  endloop
 endfacet
 facet normal -0.203186 -0.659636 0.723599
  outer loop
   vertex -0.020184 -0.059052 0.242720
   vertex -0.014157 -0.074187 0.230615
   vertex -0.004813 -0.065617 0.241051
  endloop
 endfacet
 facet normal 0.401519 -0.502070 0.765969
  outer loop
   vertex 0.020188 -0.059048 0.242663
   vertex 0.033301 -0.050772 0.241214
   vertex 0.022377 -0.050772 0.246940
  endloop
 endfacet
 facet normal -0.337714 0.868391 0.363107
  outer loop
   vertex -0.030753 0.047513 0.046397
   vertex -0.021079 0.047610 0.055161
   vertex -0.012038 0.054751 0.046493
  endloop
 endfacet
 facet normal -0.950374 -0.310478 0.019800
  outer loop
   vertex -0.056963 -0.025467 0.059333
   vertex -0.058791 -0.023691 -0.000582
   vertex -0.046105 -0.056062 0.100759
  endloop
 endfacet
 facet normal -0.385961 0.000000 0.922515
  outer loop
   vertex -0.030536 -0.050772 0.243422
   vertex -0.015844 -0.050772 0.249569
   vertex -0.015844 -0.044416 0.249569
  endloop
 endfacet
 facet normal -0.728140 -0.668812 -0.150010
  outer loop
   vertex -0.058791 -0.023691 -0.000582
   vertex -0.048111 -0.042257 0.030351
   vertex -0.044715 -0.060101 0.093419
  endloop
 endfacet
 facet normal -0.940317 -0.340179 0.009054
  outer loop
   vertex -0.058791 -0.023691 -0.000582
   vertex -0.044715 -0.060101 0.093419
   vertex -0.046105 -0.056062 0.100759
  endloop
 endfacet
 facet normal 0.999004 0.040875 0.017896
  outer loop
   vertex 0.044331 -0.065176 0.111597
   vertex 0.044072 -0.067645 0.131696
   vertex 0.044170 -0.074948 0.142957
  endloop
 endfacet
 facet normal 0.680391 0.298784 0.669176
  outer loop
   vertex 0.048950 0.011048 0.065925
   vertex 0.043957 0.013851 0.069751
   vertex 0.052952 -0.006428 0.069659
  endloop
 endfacet
 facet normal -0.792049 0.371442 0.484448
  outer loop
   vertex -0.046239 0.028259 0.055049
   vertex -0.052358 0.022979 0.049094
   vertex -0.045328 0.009130 0.071206
  endloop
 endfacet
 facet normal -0.319641 -0.947343 -0.019247
  outer loop
   vertex -0.021631 -0.060193 -0.000404
   vertex -0.021779 -0.060566 0.020415
   vertex -0.030485 -0.057857 0.031671
  endloop
 endfacet
 facet normal -0.647314 0.473597 0.597236
  outer loop
   vertex -0.046239 0.028259 0.055049
   vertex -0.045328 0.009130 0.071206
   vertex -0.037994 0.019062 0.071279
  endloop
 endfacet
 facet normal -0.683219 0.429544 0.590511
  outer loop
   vertex -0.046239 0.028259 0.055049
   vertex -0.037994 0.019062 0.071279
   vertex -0.038132 0.028985 0.063901
  endloop
 endfacet
 facet normal -0.938109 0.316656 0.140290
  outer loop
   vertex -0.041756 -0.059558 0.120393
   vertex -0.044226 -0.067383 0.121542
   vertex -0.040839 -0.061595 0.131124
  endloop
 endfacet
 facet normal -0.594656 0.635471 0.492505
  outer loop
   vertex -0.046239 0.028259 0.055049
   vertex -0.038132 0.028985 0.063901
   vertex -0.039655 0.040124 0.047691
  endloop
 endfacet
 facet normal 0.612589 0.000000 -0.790402
  outer loop
   vertex 0.043001 -0.050772 0.146629
   vertex 0.030384 -0.044416 0.136851
   vertex 0.043001 -0.044416 0.146629
  endloop
 endfacet
 facet normal 0.486687 0.723202 0.490015
  outer loop
   vertex 0.041082 -0.050878 0.108069
   vertex 0.038502 -0.055211 0.117025
   vertex 0.041613 -0.059578 0.120381
  endloop
 endfacet
 facet normal 0.592255 -0.795882 -0.125721
  outer loop
   vertex 0.029792 -0.056769 0.020710
   vertex 0.040013 -0.052414 0.041289
   vertex 0.029747 -0.060125 0.041746
  endloop
 endfacet
 facet normal -0.119802 0.977516 -0.173522
  outer loop
   vertex -0.038620 -0.055189 0.117046
   vertex -0.037415 -0.050772 0.141095
   vertex -0.031746 -0.050772 0.137181
  endloop
 endfacet
 facet normal 0.131884 -0.000000 0.991265
  outer loop
   vertex -0.000076 -0.050772 0.251667
   vertex 0.015692 -0.044416 0.249569
   vertex -0.000076 -0.044416 0.251667
  endloop
 endfacet
 facet normal 0.000000 1.000000 0.000000
  outer loop
   vertex 0.030384 -0.044416 0.136851
   vertex 0.015692 -0.044416 0.130703
   vertex -0.000076 -0.044416 0.128607
  endloop
 endfacet
 facet normal 0.775388 0.581550 0.246118
  outer loop
   vertex 0.044964 -0.059317 0.109211
   vertex 0.041613 -0.059578 0.120381
   vertex 0.044072 -0.067645 0.131696
  endloop
 endfacet
 facet normal 0.872751 -0.475345 0.111144
  outer loop
   vertex 0.043416 -0.079746 0.162993
   vertex 0.038971 -0.079262 0.199963
   vertex 0.040468 -0.082959 0.172398
  endloop
 endfacet
 facet normal 0.973524 0.133769 -0.185358
  outer loop
   vertex 0.044815 -0.058670 0.149293
   vertex 0.046948 -0.067601 0.154047
   vertex 0.044911 -0.067914 0.143124
  endloop
 endfacet
 facet normal -0.665102 -0.510473 0.545029
  outer loop
   vertex -0.042959 -0.067743 0.216496
   vertex -0.036311 -0.067479 0.224855
   vertex -0.039408 -0.050772 0.236724
  endloop
 endfacet
 facet normal -0.152683 -0.563771 0.811696
  outer loop
   vertex -0.014164 -0.050772 0.249603
   vertex -0.020184 -0.059052 0.242720
   vertex -0.004813 -0.065617 0.241051
  endloop
 endfacet
 facet normal 0.065156 0.336957 0.939263
  outer loop
   vertex -0.004941 0.023625 0.078647
   vertex -0.004909 -0.019484 0.094110
   vertex 0.032982 -0.029767 0.095170
  endloop
 endfacet
 facet normal -0.186455 0.826702 0.530848
  outer loop
   vertex -0.021079 0.047610 0.055161
   vertex -0.012062 0.045426 0.061731
   vertex -0.004517 0.050191 0.056960
  endloop
 endfacet
 facet normal 0.728643 -0.506054 0.461507
  outer loop
   vertex 0.049340 -0.063757 0.211170
   vertex 0.054166 -0.050772 0.217791
   vertex 0.047900 -0.050772 0.227683
  endloop
 endfacet
 facet normal -0.668134 0.265724 0.694973
  outer loop
   vertex -0.053110 -0.006422 0.069670
   vertex -0.041738 -0.018615 0.085266
   vertex -0.045328 0.009130 0.071206
  endloop
 endfacet
 facet normal 0.188849 0.869969 0.455510
  outer loop
   vertex 0.003982 0.055631 0.046828
   vertex 0.020948 0.047592 0.055149
   vertex 0.020780 0.052557 0.045735
  endloop
 endfacet
 facet normal 0.991859 -0.102764 -0.075199
  outer loop
   vertex 0.044072 -0.067645 0.131696
   vertex 0.044911 -0.067914 0.143124
   vertex 0.044170 -0.074948 0.142957
  endloop
 endfacet
 facet normal 0.495555 -0.866913 -0.053729
  outer loop
   vertex 0.021499 -0.060201 -0.000404
   vertex 0.039612 -0.049844 -0.000451
   vertex 0.029792 -0.056769 0.020710
  endloop
 endfacet
 facet normal -0.096751 0.639138 0.762982
  outer loop
   vertex -0.012062 0.045426 0.061731
   vertex -0.013616 0.030720 0.073852
   vertex 0.004039 0.037526 0.070390
  endloop
 endfacet
 facet normal -0.796238 0.000000 -0.604984
  outer loop
   vertex -0.043153 -0.050772 0.146629
   vertex -0.052834 -0.050772 0.159371
   vertex -0.052834 -0.044416 0.159371
  endloop
 endfacet
 facet normal 0.976625 0.214034 0.019810
  outer loop
   vertex 0.058649 0.021737 -0.000678
   vertex 0.059927 0.013123 0.029375
   vertex 0.062546 0.003943 -0.000566
  endloop
 endfacet
 facet normal -0.973263 -0.038887 0.226377
  outer loop
   vertex -0.056963 -0.025467 0.059333
   vertex -0.046105 -0.056062 0.100759
   vertex -0.057860 -0.006329 0.058763
  endloop
 endfacet
 facet normal 0.649033 -0.569473 0.504437
  outer loop
   vertex 0.049340 -0.063757 0.211170
   vertex 0.047900 -0.050772 0.227683
   vertex 0.037129 -0.058354 0.232983
  endloop
 endfacet
 facet normal -0.154038 0.702870 0.694440
  outer loop
   vertex -0.032344 -0.042857 0.105407
   vertex -0.004846 -0.046201 0.114891
   vertex -0.004978 -0.033074 0.101575
  endloop
 endfacet
 facet normal 0.732536 -0.006407 -0.680698
  outer loop
   vertex 0.037271 -0.050772 0.141099
   vertex 0.050313 -0.050772 0.155135
   vertex 0.044815 -0.058670 0.149293
  endloop
 endfacet
 facet normal -0.258792 0.729398 0.633250
  outer loop
   vertex -0.032344 -0.042857 0.105407
   vertex -0.038620 -0.055189 0.117046
   vertex -0.014802 -0.049796 0.120568
  endloop
 endfacet
 facet normal -0.707843 -0.646339 0.284964
  outer loop
   vertex -0.044124 -0.077025 0.192548
   vertex -0.039023 -0.079324 0.200006
   vertex -0.042959 -0.067743 0.216496
  endloop
 endfacet
 facet normal 0.639777 0.377984 0.669189
  outer loop
   vertex 0.041603 -0.018616 0.085260
   vertex 0.041598 -0.039658 0.097149
   vertex 0.045892 -0.048654 0.098126
  endloop
 endfacet
 facet normal 0.926166 0.350289 0.139694
  outer loop
   vertex 0.058253 0.021576 0.019279
   vertex 0.053390 0.027376 0.036973
   vertex 0.059927 0.013123 0.029375
  endloop
 endfacet
 facet normal -0.316324 -0.921359 -0.225913
  outer loop
   vertex -0.030485 -0.057857 0.031671
   vertex -0.012243 -0.066795 0.042577
   vertex -0.022479 -0.090345 0.152957
  endloop
 endfacet
 facet normal 0.408036 -0.891786 -0.195511
  outer loop
   vertex 0.013617 -0.062797 0.020267
   vertex 0.029747 -0.060125 0.041746
   vertex 0.020032 -0.064869 0.043107
  endloop
 endfacet
 facet normal -0.913811 0.077884 0.398601
  outer loop
   vertex -0.053110 -0.006422 0.069670
   vertex -0.057860 -0.006329 0.058763
   vertex -0.045379 -0.041092 0.094169
  endloop
 endfacet
 facet normal -0.107398 0.608401 0.786330
  outer loop
   vertex -0.033121 -0.029769 0.095174
   vertex -0.032344 -0.042857 0.105407
   vertex -0.004978 -0.033074 0.101575
  endloop
 endfacet
 facet normal -0.673720 0.320336 0.665947
  outer loop
   vertex -0.053110 -0.006422 0.069670
   vertex -0.045379 -0.041092 0.094169
   vertex -0.041770 -0.039652 0.097128
  endloop
 endfacet
 facet normal -0.554608 0.409338 0.724467
  outer loop
   vertex -0.053110 -0.006422 0.069670
   vertex -0.041770 -0.039652 0.097128
   vertex -0.041738 -0.018615 0.085266
  endloop
 endfacet
 facet normal -0.784385 0.281383 0.552778
  outer loop
   vertex -0.057860 -0.006329 0.058763
   vertex -0.046105 -0.056062 0.100759
   vertex -0.045379 -0.041092 0.094169
  endloop
 endfacet
 facet normal -0.612589 0.000000 -0.790402
  outer loop
   vertex -0.030536 -0.050772 0.136851
   vertex -0.043153 -0.044416 0.146629
   vertex -0.030536 -0.044416 0.136851
  endloop
 endfacet
 facet normal 0.000000 1.000000 0.000000
  outer loop
   vertex 0.043001 -0.044416 0.146629
   vertex 0.030384 -0.044416 0.136851
   vertex -0.000076 -0.044416 0.128607
  endloop
 endfacet
 facet normal -0.228911 0.272355 0.934571
  outer loop
   vertex -0.029124 0.027731 0.070925
   vertex -0.037994 0.019062 0.071279
   vertex -0.013616 0.030720 0.073852
  endloop
 endfacet
 facet normal -0.423974 -0.898825 -0.111177
  outer loop
   vertex -0.038779 -0.081446 0.143176
   vertex -0.022479 -0.090345 0.152957
   vertex -0.034509 -0.087063 0.172297
  endloop
 endfacet
 facet normal -0.058473 0.899132 0.433754
  outer loop
   vertex -0.012038 0.054751 0.046493
   vertex -0.004517 0.050191 0.056960
   vertex 0.003982 0.055631 0.046828
  endloop
 endfacet
 facet normal 0.025670 0.778512 0.627105
  outer loop
   vertex -0.004846 -0.046201 0.114891
   vertex 0.023989 -0.051011 0.119682
   vertex 0.014083 -0.046204 0.114120
  endloop
 endfacet
 facet normal 0.922546 0.385153 -0.023807
  outer loop
   vertex 0.038502 -0.055211 0.117025
   vertex 0.037271 -0.050772 0.141099
   vertex 0.044072 -0.067645 0.131696
  endloop
 endfacet
 facet normal -0.053270 0.883249 0.465868
  outer loop
   vertex -0.032344 -0.042857 0.105407
   vertex -0.014802 -0.049796 0.120568
   vertex -0.004846 -0.046201 0.114891
  endloop
 endfacet
 facet normal 0.796308 0.000000 0.604891
  outer loop
   vertex 0.043001 -0.050772 0.233645
   vertex 0.052682 -0.050772 0.220900
   vertex 0.052682 -0.044416 0.220900
  endloop
 endfacet
 facet normal 0.612508 0.000000 0.790465
  outer loop
   vertex 0.030384 -0.050772 0.243422
   vertex 0.043001 -0.050772 0.233645
   vertex 0.043001 -0.044416 0.233645
  endloop
 endfacet
 facet normal 0.611795 0.770147 0.180500
  outer loop
   vertex 0.030453 0.047590 0.046426
   vertex 0.039509 0.040102 0.047681
   vertex 0.047620 0.038123 0.028637
  endloop
 endfacet
 facet normal 0.196636 -0.979301 -0.048007
  outer loop
   vertex 0.004578 -0.063595 -0.000465
   vertex 0.021499 -0.060201 -0.000404
   vertex 0.013617 -0.062797 0.020267
  endloop
 endfacet
 facet normal 0.497553 0.477211 0.724369
  outer loop
   vertex 0.028873 0.027760 0.070949
   vertex 0.043957 0.013851 0.069751
   vertex 0.037964 0.028985 0.063897
  endloop
 endfacet
 facet normal 0.888233 -0.399478 -0.226847
  outer loop
   vertex 0.056142 -0.050772 0.165985
   vertex 0.060502 -0.050772 0.183056
   vertex 0.055024 -0.062741 0.182687
  endloop
 endfacet
 facet normal -0.916617 -0.122981 -0.380380
  outer loop
   vertex -0.045379 -0.041092 0.094169
   vertex -0.046105 -0.056062 0.100759
   vertex -0.046030 -0.048611 0.098168
  endloop
 endfacet
 facet normal -0.991617 0.000000 -0.129216
  outer loop
   vertex -0.058921 -0.050772 0.174211
   vertex -0.060996 -0.050772 0.190136
   vertex -0.060996 -0.044416 0.190136
  endloop
 endfacet
 facet normal -0.820601 0.322080 0.472100
  outer loop
   vertex -0.045379 -0.041092 0.094169
   vertex -0.046030 -0.048611 0.098168
   vertex -0.041213 -0.050869 0.108080
  endloop
 endfacet
 facet normal -0.657974 0.509117 0.554861
  outer loop
   vertex -0.045379 -0.041092 0.094169
   vertex -0.041213 -0.050869 0.108080
   vertex -0.041770 -0.039652 0.097128
  endloop
 endfacet
 facet normal -0.448182 0.533940 0.716967
  outer loop
   vertex -0.033121 -0.029769 0.095174
   vertex -0.041770 -0.039652 0.097128
   vertex -0.032344 -0.042857 0.105407
  endloop
 endfacet
 facet normal 0.092744 0.463527 0.881216
  outer loop
   vertex 0.004039 0.037526 0.070390
   vertex -0.004941 0.023625 0.078647
   vertex 0.021452 0.019150 0.078223
  endloop
 endfacet
 facet normal -0.967775 -0.247346 -0.047232
  outer loop
   vertex -0.046105 -0.056062 0.100759
   vertex -0.044715 -0.060101 0.093419
   vertex -0.044226 -0.067383 0.121542
  endloop
 endfacet
 facet normal 0.961029 -0.036147 0.274075
  outer loop
   vertex 0.057701 -0.006348 0.058746
   vertex 0.048241 -0.038043 0.087735
   vertex 0.056817 -0.025489 0.059319
  endloop
 endfacet
 facet normal -0.325329 -0.864739 -0.382606
  outer loop
   vertex -0.031746 -0.050772 0.137181
   vertex -0.046076 -0.050772 0.149366
   vertex -0.014802 -0.049796 0.120568
  endloop
 endfacet
 facet normal 0.490512 0.856779 0.159149
  outer loop
   vertex 0.021304 0.057904 0.019103
   vertex 0.030453 0.047590 0.046426
   vertex 0.039398 0.047575 0.018941
  endloop
 endfacet
 facet normal -0.991780 0.050882 0.117400
  outer loop
   vertex -0.046030 -0.048611 0.098168
   vertex -0.046105 -0.056062 0.100759
   vertex -0.044226 -0.067383 0.121542
  endloop
 endfacet
 facet normal -0.070302 -0.818715 0.569880
  outer loop
   vertex -0.013721 -0.081904 0.219582
   vertex 0.004686 -0.075314 0.231321
   vertex -0.014157 -0.074187 0.230615
  endloop
 endfacet
 facet normal 0.883718 0.264033 0.386432
  outer loop
   vertex 0.051856 0.019102 0.054722
   vertex 0.052952 -0.006428 0.069659
   vertex 0.057701 -0.006348 0.058746
  endloop
 endfacet
 facet normal -0.458761 0.735769 0.498178
  outer loop
   vertex -0.030753 0.047513 0.046397
   vertex -0.029867 0.036859 0.062948
   vertex -0.021079 0.047610 0.055161
  endloop
 endfacet
 facet normal 0.162574 0.975446 0.148576
  outer loop
   vertex -0.004687 0.061235 0.019522
   vertex -0.004323 0.058285 0.038496
   vertex 0.003982 0.055631 0.046828
  endloop
 endfacet
 facet normal -0.291661 -0.956331 -0.019117
  outer loop
   vertex -0.034509 -0.087063 0.172297
   vertex -0.022479 -0.090345 0.152957
   vertex -0.014358 -0.093403 0.182061
  endloop
 endfacet
 facet normal -0.355117 0.915723 0.187998
  outer loop
   vertex -0.032822 0.052237 0.019480
   vertex -0.030753 0.047513 0.046397
   vertex -0.012038 0.054751 0.046493
  endloop
 endfacet
 facet normal -0.781537 -0.615355 -0.102654
  outer loop
   vertex -0.046777 -0.074634 0.163231
   vertex -0.038779 -0.081446 0.143176
   vertex -0.040108 -0.083000 0.162610
  endloop
 endfacet
 facet normal -0.370038 -0.665655 0.648055
  outer loop
   vertex -0.020184 -0.059052 0.242720
   vertex -0.036311 -0.067479 0.224855
   vertex -0.014157 -0.074187 0.230615
  endloop
 endfacet
 facet normal 0.386451 -0.780899 0.490766
  outer loop
   vertex 0.022323 -0.072906 0.228666
   vertex 0.023362 -0.083440 0.211086
   vertex 0.034298 -0.077029 0.212674
  endloop
 endfacet
 facet normal 0.144415 0.785701 0.601513
  outer loop
   vertex 0.014083 -0.046204 0.114120
   vertex 0.032539 -0.053092 0.118686
   vertex 0.032208 -0.042859 0.105398
  endloop
 endfacet
 facet normal 0.753472 0.604732 0.258031
  outer loop
   vertex 0.047620 0.038123 0.028637
   vertex 0.039509 0.040102 0.047681
   vertex 0.053390 0.027376 0.036973
  endloop
 endfacet
 facet normal 0.721320 -0.636904 0.272122
  outer loop
   vertex 0.054394 -0.061403 0.200880
   vertex 0.038971 -0.079262 0.199963
   vertex 0.048659 -0.071991 0.191300
  endloop
 endfacet
 facet normal -0.884626 0.327859 0.331579
  outer loop
   vertex -0.044226 -0.067383 0.121542
   vertex -0.041756 -0.059558 0.120393
   vertex -0.046030 -0.048611 0.098168
  endloop
 endfacet
 facet normal -0.711904 -0.674476 -0.195639
  outer loop
   vertex -0.043790 -0.073237 0.133106
   vertex -0.030485 -0.057857 0.031671
   vertex -0.038779 -0.081446 0.143176
  endloop
 endfacet
 facet normal -0.370651 -0.709954 0.598819
  outer loop
   vertex -0.029249 -0.077495 0.217352
   vertex -0.014157 -0.074187 0.230615
   vertex -0.036311 -0.067479 0.224855
  endloop
 endfacet
 facet normal -0.849553 0.527189 -0.018205
  outer loop
   vertex -0.040839 -0.061595 0.131124
   vertex -0.044226 -0.067383 0.121542
   vertex -0.044796 -0.067601 0.141868
  endloop
 endfacet
 facet normal -0.990877 -0.131561 -0.029217
  outer loop
   vertex -0.044226 -0.067383 0.121542
   vertex -0.043790 -0.073237 0.133106
   vertex -0.044796 -0.067601 0.141868
  endloop
 endfacet
 facet normal -0.282762 0.398686 0.872407
  outer loop
   vertex -0.037994 0.019062 0.071279
   vertex -0.033121 -0.029769 0.095174
   vertex -0.013616 0.030720 0.073852
  endloop
 endfacet
 facet normal -0.469680 -0.810458 0.350084
  outer loop
   vertex -0.039023 -0.079324 0.200006
   vertex -0.024615 -0.086625 0.202434
   vertex -0.029249 -0.077495 0.217352
  endloop
 endfacet
 facet normal -0.113463 -0.972625 0.202797
  outer loop
   vertex -0.022840 -0.090143 0.191128
   vertex 0.004456 -0.091359 0.200567
   vertex -0.004403 -0.088604 0.208823
  endloop
 endfacet
 facet normal 0.187054 0.972300 0.140159
  outer loop
   vertex -0.004687 0.061235 0.019522
   vertex 0.003982 0.055631 0.046828
   vertex 0.020780 0.052557 0.045735
  endloop
 endfacet
 facet normal -0.996624 -0.082002 -0.003914
  outer loop
   vertex -0.044715 -0.060101 0.093419
   vertex -0.043790 -0.073237 0.133106
   vertex -0.044226 -0.067383 0.121542
  endloop
 endfacet
 facet normal -0.486201 0.723941 0.489405
  outer loop
   vertex -0.041213 -0.050869 0.108080
   vertex -0.041756 -0.059558 0.120393
   vertex -0.038620 -0.055189 0.117046
  endloop
 endfacet
 facet normal -0.822419 -0.112886 -0.557569
  outer loop
   vertex -0.046076 -0.050772 0.149366
   vertex -0.044940 -0.058633 0.149282
   vertex -0.049372 -0.055254 0.155135
  endloop
 endfacet
 facet normal 0.866574 0.497336 0.041305
  outer loop
   vertex 0.048141 0.039652 -0.000709
   vertex 0.047620 0.038123 0.028637
   vertex 0.053390 0.027376 0.036973
  endloop
 endfacet
 facet normal -0.689906 0.045648 -0.722458
  outer loop
   vertex -0.046076 -0.050772 0.149366
   vertex -0.037415 -0.050772 0.141095
   vertex -0.041363 -0.058120 0.144401
  endloop
 endfacet
 facet normal -0.796321 -0.108713 -0.595025
  outer loop
   vertex -0.046076 -0.050772 0.149366
   vertex -0.041363 -0.058120 0.144401
   vertex -0.044940 -0.058633 0.149282
  endloop
 endfacet
 facet normal -0.973659 0.135824 -0.183139
  outer loop
   vertex -0.044940 -0.058633 0.149282
   vertex -0.044796 -0.067601 0.141868
   vertex -0.047098 -0.067672 0.154053
  endloop
 endfacet
 facet normal -0.820385 -0.101178 -0.562789
  outer loop
   vertex -0.044940 -0.058633 0.149282
   vertex -0.047098 -0.067672 0.154053
   vertex -0.049372 -0.055254 0.155135
  endloop
 endfacet
 facet normal -0.755682 0.410068 -0.510676
  outer loop
   vertex -0.044940 -0.058633 0.149282
   vertex -0.041363 -0.058120 0.144401
   vertex -0.044796 -0.067601 0.141868
  endloop
 endfacet
 facet normal -0.994758 -0.022669 -0.099709
  outer loop
   vertex -0.044796 -0.067601 0.141868
   vertex -0.043790 -0.073237 0.133106
   vertex -0.046777 -0.074634 0.163231
  endloop
 endfacet
 facet normal -0.942904 -0.280396 -0.179750
  outer loop
   vertex -0.044796 -0.067601 0.141868
   vertex -0.046777 -0.074634 0.163231
   vertex -0.047098 -0.067672 0.154053
  endloop
 endfacet
 facet normal -0.550199 -0.739433 0.387969
  outer loop
   vertex -0.039023 -0.079324 0.200006
   vertex -0.029249 -0.077495 0.217352
   vertex -0.042959 -0.067743 0.216496
  endloop
 endfacet
 facet normal 0.723636 0.437999 0.533393
  outer loop
   vertex 0.045979 0.028383 0.055074
   vertex 0.043957 0.013851 0.069751
   vertex 0.051856 0.019102 0.054722
  endloop
 endfacet
 facet normal -0.850896 -0.047657 -0.523168
  outer loop
   vertex -0.046076 -0.050772 0.149366
   vertex -0.049372 -0.055254 0.155135
   vertex -0.056295 -0.050772 0.165987
  endloop
 endfacet
 facet normal 0.093096 -0.986817 -0.132385
  outer loop
   vertex -0.004835 -0.092893 0.152780
   vertex 0.022315 -0.090356 0.152957
   vertex 0.004763 -0.094632 0.172492
  endloop
 endfacet
 facet normal -0.612508 0.000000 0.790465
  outer loop
   vertex -0.043153 -0.050772 0.233645
   vertex -0.030536 -0.044416 0.243422
   vertex -0.043153 -0.044416 0.233645
  endloop
 endfacet
 facet normal -0.980581 -0.171226 -0.095621
  outer loop
   vertex -0.049372 -0.055254 0.155135
   vertex -0.047098 -0.067672 0.154053
   vertex -0.046777 -0.074634 0.163231
  endloop
 endfacet
 facet normal -0.856368 -0.292432 -0.425578
  outer loop
   vertex -0.049372 -0.055254 0.155135
   vertex -0.046777 -0.074634 0.163231
   vertex -0.056295 -0.050772 0.165987
  endloop
 endfacet
 facet normal 0.925197 0.000000 0.379486
  outer loop
   vertex 0.052682 -0.050772 0.220900
   vertex 0.058769 -0.050772 0.206061
   vertex 0.058769 -0.044416 0.206061
  endloop
 endfacet
 facet normal -0.724096 0.663625 0.187846
  outer loop
   vertex -0.038620 -0.055189 0.117046
   vertex -0.041756 -0.059558 0.120393
   vertex -0.040839 -0.061595 0.131124
  endloop
 endfacet
 facet normal 0.971021 -0.238533 0.014825
  outer loop
   vertex 0.062543 -0.005902 -0.000560
   vertex 0.062241 -0.005871 0.019729
   vertex 0.056817 -0.025489 0.059319
  endloop
 endfacet
 facet normal 0.796292 0.604559 0.020665
  outer loop
   vertex 0.058649 0.021737 -0.000678
   vertex 0.053390 0.027376 0.036973
   vertex 0.058253 0.021576 0.019279
  endloop
 endfacet
 facet normal 0.556231 -0.827416 -0.077391
  outer loop
   vertex 0.034354 -0.087060 0.172297
   vertex 0.038610 -0.081474 0.143173
   vertex 0.040468 -0.082959 0.172398
  endloop
 endfacet
 facet normal 0.999889 -0.000308 0.014893
  outer loop
   vertex 0.062546 0.003943 -0.000566
   vertex 0.062241 -0.005871 0.019729
   vertex 0.062543 -0.005902 -0.000560
  endloop
 endfacet
 facet normal 0.743853 0.668030 0.020473
  outer loop
   vertex 0.039652 0.047894 -0.000714
   vertex 0.039398 0.047575 0.018941
   vertex 0.047620 0.038123 0.028637
  endloop
 endfacet
 facet normal -0.448154 0.893165 -0.037615
  outer loop
   vertex -0.039777 0.047897 -0.000714
   vertex -0.032822 0.052237 0.019480
   vertex -0.021573 0.057865 0.019100
  endloop
 endfacet
 facet normal 0.000000 1.000000 0.000000
  outer loop
   vertex 0.047900 -0.050772 0.227683
   vertex 0.054166 -0.050772 0.217791
   vertex 0.059683 -0.050772 0.201751
  endloop
 endfacet
 facet normal 0.775610 0.421210 0.470119
  outer loop
   vertex 0.041598 -0.039658 0.097149
   vertex 0.044964 -0.059317 0.109211
   vertex 0.045892 -0.048654 0.098126
  endloop
 endfacet
 facet normal 0.932551 0.125132 0.338660
  outer loop
   vertex 0.048241 -0.038043 0.087735
   vertex 0.045892 -0.048654 0.098126
   vertex 0.045944 -0.056103 0.100734
  endloop
 endfacet
 facet normal 0.695733 0.716580 0.049697
  outer loop
   vertex 0.039652 0.047894 -0.000714
   vertex 0.047620 0.038123 0.028637
   vertex 0.048141 0.039652 -0.000709
  endloop
 endfacet
 facet normal -0.460889 -0.590001 0.662933
  outer loop
   vertex -0.039408 -0.050772 0.236724
   vertex -0.020184 -0.059052 0.242720
   vertex -0.029532 -0.050772 0.243589
  endloop
 endfacet
 facet normal -0.331765 0.942973 -0.027093
  outer loop
   vertex 0.057701 -0.006348 0.058746
   vertex 0.061041 -0.005714 0.039890
   vertex 0.062241 -0.005871 0.019729
  endloop
 endfacet
 facet normal -0.058689 0.932814 0.355547
  outer loop
   vertex -0.004323 0.058285 0.038496
   vertex -0.012038 0.054751 0.046493
   vertex 0.003982 0.055631 0.046828
  endloop
 endfacet
 facet normal 0.993571 -0.071425 0.087832
  outer loop
   vertex 0.045944 -0.056103 0.100734
   vertex 0.044964 -0.059317 0.109211
   vertex 0.044331 -0.065176 0.111597
  endloop
 endfacet
 facet normal -0.779523 -0.624734 0.045293
  outer loop
   vertex -0.046777 -0.074634 0.163231
   vertex -0.040108 -0.083000 0.162610
   vertex -0.055185 -0.062734 0.182660
  endloop
 endfacet
 facet normal 0.105415 0.478350 0.871819
  outer loop
   vertex -0.004909 -0.019484 0.094110
   vertex -0.004978 -0.033074 0.101575
   vertex 0.032982 -0.029767 0.095170
  endloop
 endfacet
 facet normal 0.989362 0.054225 0.134987
  outer loop
   vertex 0.045892 -0.048654 0.098126
   vertex 0.044964 -0.059317 0.109211
   vertex 0.045944 -0.056103 0.100734
  endloop
 endfacet
 facet normal 0.095785 -0.908816 0.406054
  outer loop
   vertex -0.004403 -0.088604 0.208823
   vertex 0.004456 -0.091359 0.200567
   vertex 0.013554 -0.081904 0.219583
  endloop
 endfacet
 facet normal 0.000000 -1.000000 0.000000
  outer loop
   vertex 0.030384 -0.050772 0.136851
   vertex -0.000076 -0.050772 0.128607
   vertex 0.015692 -0.050772 0.130703
  endloop
 endfacet
 facet normal 0.000000 1.000000 0.000000
  outer loop
   vertex -0.060654 -0.050772 0.183056
   vertex -0.059835 -0.050772 0.201751
   vertex -0.056295 -0.050772 0.165987
  endloop
 endfacet
 facet normal 0.799766 -0.121918 -0.587801
  outer loop
   vertex 0.044815 -0.058670 0.149293
   vertex 0.050313 -0.050772 0.155135
   vertex 0.046948 -0.067601 0.154047
  endloop
 endfacet
 facet normal -0.795456 -0.605845 0.014218
  outer loop
   vertex -0.055185 -0.062734 0.182660
   vertex -0.040108 -0.083000 0.162610
   vertex -0.044124 -0.077025 0.192548
  endloop
 endfacet
 facet normal -0.812003 -0.579308 0.071084
  outer loop
   vertex -0.055185 -0.062734 0.182660
   vertex -0.044124 -0.077025 0.192548
   vertex -0.054546 -0.061399 0.200849
  endloop
 endfacet
 facet normal 0.021833 -0.864619 0.501953
  outer loop
   vertex -0.004403 -0.088604 0.208823
   vertex 0.013554 -0.081904 0.219583
   vertex 0.004686 -0.075314 0.231321
  endloop
 endfacet
 facet normal -0.342876 0.461776 0.818045
  outer loop
   vertex -0.041738 -0.018615 0.085266
   vertex -0.041770 -0.039652 0.097128
   vertex -0.033121 -0.029769 0.095174
  endloop
 endfacet
 facet normal 0.107349 -0.602603 0.790788
  outer loop
   vertex 0.004728 -0.050772 0.251068
   vertex -0.004813 -0.065617 0.241051
   vertex 0.020188 -0.059048 0.242663
  endloop
 endfacet
 facet normal 0.991618 0.000000 0.129207
  outer loop
   vertex 0.058769 -0.050772 0.206061
   vertex 0.060844 -0.044416 0.190136
   vertex 0.058769 -0.044416 0.206061
  endloop
 endfacet
 facet normal -0.021592 -0.856941 0.514961
  outer loop
   vertex -0.004403 -0.088604 0.208823
   vertex 0.004686 -0.075314 0.231321
   vertex -0.013721 -0.081904 0.219582
  endloop
 endfacet
 facet normal -0.005917 -0.993263 0.115729
  outer loop
   vertex -0.014358 -0.093403 0.182061
   vertex 0.004763 -0.094632 0.172492
   vertex 0.004456 -0.091359 0.200567
  endloop
 endfacet
 facet normal 0.591264 0.637799 0.493579
  outer loop
   vertex 0.039509 0.040102 0.047681
   vertex 0.037964 0.028985 0.063897
   vertex 0.045979 0.028383 0.055074
  endloop
 endfacet
 facet normal 0.411370 0.727060 0.549690
  outer loop
   vertex 0.032208 -0.042859 0.105398
   vertex 0.032539 -0.053092 0.118686
   vertex 0.038502 -0.055211 0.117025
  endloop
 endfacet
 facet normal -0.750298 -0.620936 0.226917
  outer loop
   vertex -0.054546 -0.061399 0.200849
   vertex -0.044124 -0.077025 0.192548
   vertex -0.049489 -0.063744 0.211152
  endloop
 endfacet
 facet normal 0.360941 0.775144 0.518530
  outer loop
   vertex 0.020780 0.052557 0.045735
   vertex 0.029572 0.036936 0.062967
   vertex 0.030453 0.047590 0.046426
  endloop
 endfacet
 facet normal 0.845671 -0.533602 -0.010464
  outer loop
   vertex 0.046624 -0.074666 0.163242
   vertex 0.048659 -0.071991 0.191300
   vertex 0.043416 -0.079746 0.162993
  endloop
 endfacet
 facet normal -0.663942 -0.685789 0.298118
  outer loop
   vertex -0.044124 -0.077025 0.192548
   vertex -0.042959 -0.067743 0.216496
   vertex -0.049489 -0.063744 0.211152
  endloop
 endfacet
 facet normal 0.893342 -0.447672 0.039120
  outer loop
   vertex 0.060502 -0.050772 0.183056
   vertex 0.059683 -0.050772 0.201751
   vertex 0.054394 -0.061403 0.200880
  endloop
 endfacet
 facet normal 0.123414 0.827435 0.547832
  outer loop
   vertex 0.003982 0.055631 0.046828
   vertex -0.004517 0.050191 0.056960
   vertex 0.020948 0.047592 0.055149
  endloop
 endfacet
 facet normal -0.709668 -0.511817 0.484165
  outer loop
   vertex -0.054319 -0.050772 0.217785
   vertex -0.049489 -0.063744 0.211152
   vertex -0.042959 -0.067743 0.216496
  endloop
 endfacet
 facet normal -0.300828 -0.787028 0.538600
  outer loop
   vertex -0.029249 -0.077495 0.217352
   vertex -0.013721 -0.081904 0.219582
   vertex -0.014157 -0.074187 0.230615
  endloop
 endfacet
 facet normal 0.039009 -0.997502 -0.058893
  outer loop
   vertex 0.004578 -0.063595 -0.000465
   vertex 0.004726 -0.065410 0.030368
   vertex -0.012243 -0.066795 0.042577
  endloop
 endfacet
 facet normal 0.131884 0.000000 0.991265
  outer loop
   vertex -0.000076 -0.050772 0.251667
   vertex 0.015692 -0.050772 0.249569
   vertex 0.015692 -0.044416 0.249569
  endloop
 endfacet
 facet normal 0.986578 -0.151913 0.059878
  outer loop
   vertex 0.062241 -0.005871 0.019729
   vertex 0.061041 -0.005714 0.039890
   vertex 0.056817 -0.025489 0.059319
  endloop
 endfacet
 facet normal -0.095555 0.358180 0.928750
  outer loop
   vertex -0.013616 0.030720 0.073852
   vertex -0.033121 -0.029769 0.095174
   vertex -0.004909 -0.019484 0.094110
  endloop
 endfacet
 facet normal 0.925206 0.000000 -0.379464
  outer loop
   vertex 0.058769 -0.050772 0.174211
   vertex 0.052682 -0.044416 0.159371
   vertex 0.058769 -0.044416 0.174211
  endloop
 endfacet
 facet normal -0.991618 0.000000 0.129207
  outer loop
   vertex -0.060996 -0.050772 0.190136
   vertex -0.058921 -0.044416 0.206061
   vertex -0.060996 -0.044416 0.190136
  endloop
 endfacet
 facet normal 0.994213 -0.107426 -0.000388
  outer loop
   vertex 0.044964 -0.059317 0.109211
   vertex 0.044072 -0.067645 0.131696
   vertex 0.044331 -0.065176 0.111597
  endloop
 endfacet
 facet normal 0.457586 0.563468 0.687836
  outer loop
   vertex 0.029572 0.036936 0.062967
   vertex 0.028873 0.027760 0.070949
   vertex 0.037964 0.028985 0.063897
  endloop
 endfacet
 facet normal 0.246841 -0.933713 0.259324
  outer loop
   vertex 0.004456 -0.091359 0.200567
   vertex 0.030461 -0.087203 0.190779
   vertex 0.023362 -0.083440 0.211086
  endloop
 endfacet
 facet normal 0.906827 -0.416905 0.062093
  outer loop
   vertex 0.060502 -0.050772 0.183056
   vertex 0.054394 -0.061403 0.200880
   vertex 0.055024 -0.062741 0.182687
  endloop
 endfacet
 facet normal -0.748548 -0.531215 0.396846
  outer loop
   vertex -0.054319 -0.050772 0.217785
   vertex -0.042959 -0.067743 0.216496
   vertex -0.045180 -0.058582 0.224568
  endloop
 endfacet
 facet normal 0.971120 0.208741 0.115551
  outer loop
   vertex 0.062546 0.003943 -0.000566
   vertex 0.057701 -0.006348 0.058746
   vertex 0.062241 -0.005871 0.019729
  endloop
 endfacet
 facet normal -0.733957 -0.356923 0.577852
  outer loop
   vertex -0.054319 -0.050772 0.217785
   vertex -0.045180 -0.058582 0.224568
   vertex -0.039408 -0.050772 0.236724
  endloop
 endfacet
 facet normal 0.757399 -0.647901 -0.081060
  outer loop
   vertex 0.044170 -0.074948 0.142957
   vertex 0.040468 -0.082959 0.172398
   vertex 0.038610 -0.081474 0.143173
  endloop
 endfacet
 facet normal -0.428971 -0.653529 0.623605
  outer loop
   vertex -0.042959 -0.067743 0.216496
   vertex -0.039408 -0.050772 0.236724
   vertex -0.045180 -0.058582 0.224568
  endloop
 endfacet
 facet normal -0.300332 -0.904393 0.303106
  outer loop
   vertex -0.029249 -0.077495 0.217352
   vertex -0.004403 -0.088604 0.208823
   vertex -0.013721 -0.081904 0.219582
  endloop
 endfacet
 facet normal 0.498888 0.715113 0.489616
  outer loop
   vertex 0.032208 -0.042859 0.105398
   vertex 0.038502 -0.055211 0.117025
   vertex 0.041082 -0.050878 0.108069
  endloop
 endfacet
 facet normal -0.513013 -0.839163 0.180619
  outer loop
   vertex -0.034509 -0.087063 0.172297
   vertex -0.022840 -0.090143 0.191128
   vertex -0.024615 -0.086625 0.202434
  endloop
 endfacet
 facet normal 0.842185 0.529420 0.102174
  outer loop
   vertex 0.039509 0.040102 0.047681
   vertex 0.045979 0.028383 0.055074
   vertex 0.051856 0.019102 0.054722
  endloop
 endfacet
 facet normal -0.662975 -0.748623 0.005223
  outer loop
   vertex -0.039792 -0.049839 -0.000449
   vertex -0.030485 -0.057857 0.031671
   vertex -0.048111 -0.042257 0.030351
  endloop
 endfacet
 facet normal -0.493816 -0.866479 -0.073211
  outer loop
   vertex -0.039792 -0.049839 -0.000449
   vertex -0.021631 -0.060193 -0.000404
   vertex -0.030485 -0.057857 0.031671
  endloop
 endfacet
 facet normal -0.498942 0.715486 0.489016
  outer loop
   vertex -0.041213 -0.050869 0.108080
   vertex -0.038620 -0.055189 0.117046
   vertex -0.032344 -0.042857 0.105407
  endloop
 endfacet
 facet normal 0.308640 -0.807759 0.502262
  outer loop
   vertex 0.013554 -0.081904 0.219583
   vertex 0.023362 -0.083440 0.211086
   vertex 0.022323 -0.072906 0.228666
  endloop
 endfacet
 facet normal 0.131756 -0.000000 -0.991282
  outer loop
   vertex 0.015692 -0.050772 0.130703
   vertex -0.000076 -0.050772 0.128607
   vertex -0.000076 -0.044416 0.128607
  endloop
 endfacet
 facet normal -0.240778 -0.956421 -0.165181
  outer loop
   vertex -0.021779 -0.060566 0.020415
   vertex 0.004578 -0.063595 -0.000465
   vertex -0.012243 -0.066795 0.042577
  endloop
 endfacet
 facet normal -0.373888 0.638380 0.672814
  outer loop
   vertex -0.041770 -0.039652 0.097128
   vertex -0.041213 -0.050869 0.108080
   vertex -0.032344 -0.042857 0.105407
  endloop
 endfacet
 facet normal 0.949492 -0.264088 -0.169479
  outer loop
   vertex 0.044911 -0.067914 0.143124
   vertex 0.046948 -0.067601 0.154047
   vertex 0.046624 -0.074666 0.163242
  endloop
 endfacet
 facet normal 0.192445 0.536388 0.821737
  outer loop
   vertex 0.004039 0.037526 0.070390
   vertex 0.028873 0.027760 0.070949
   vertex 0.013566 0.040878 0.065971
  endloop
 endfacet
 facet normal -0.610070 0.771110 0.182216
  outer loop
   vertex -0.032822 0.052237 0.019480
   vertex -0.046608 0.037004 0.037789
   vertex -0.030753 0.047513 0.046397
  endloop
 endfacet
 facet normal 0.861685 0.505477 0.044638
  outer loop
   vertex 0.048141 0.039652 -0.000709
   vertex 0.053390 0.027376 0.036973
   vertex 0.058649 0.021737 -0.000678
  endloop
 endfacet
 facet normal -0.131756 0.000000 -0.991282
  outer loop
   vertex -0.000076 -0.050772 0.128607
   vertex -0.015844 -0.050772 0.130703
   vertex -0.015844 -0.044416 0.130703
  endloop
 endfacet
 facet normal -0.237278 0.327831 0.914454
  outer loop
   vertex -0.013616 0.030720 0.073852
   vertex -0.004909 -0.019484 0.094110
   vertex -0.004941 0.023625 0.078647
  endloop
 endfacet
 facet normal 0.219903 -0.973774 -0.058364
  outer loop
   vertex 0.004578 -0.063595 -0.000465
   vertex 0.013617 -0.062797 0.020267
   vertex 0.004726 -0.065410 0.030368
  endloop
 endfacet
 facet normal 0.056118 -0.975102 -0.214540
  outer loop
   vertex 0.004726 -0.065410 0.030368
   vertex 0.022095 -0.087206 0.133975
   vertex -0.004835 -0.092893 0.152780
  endloop
 endfacet
 facet normal -0.196172 0.980357 0.020424
  outer loop
   vertex -0.021651 0.058262 -0.000675
   vertex -0.021573 0.057865 0.019100
   vertex -0.004687 0.061235 0.019522
  endloop
 endfacet
 facet normal 0.954296 -0.297272 0.030799
  outer loop
   vertex 0.056817 -0.025489 0.059319
   vertex 0.045944 -0.056103 0.100734
   vertex 0.057715 -0.024610 0.039997
  endloop
 endfacet
 facet normal -0.611239 0.769072 0.186856
  outer loop
   vertex -0.046608 0.037004 0.037789
   vertex -0.039655 0.040124 0.047691
   vertex -0.030753 0.047513 0.046397
  endloop
 endfacet
 facet normal -0.536349 -0.714604 0.449078
  outer loop
   vertex -0.042959 -0.067743 0.216496
   vertex -0.029249 -0.077495 0.217352
   vertex -0.036311 -0.067479 0.224855
  endloop
 endfacet
 facet normal 0.414404 -0.906548 0.080248
  outer loop
   vertex 0.023166 -0.091321 0.181935
   vertex 0.034354 -0.087060 0.172297
   vertex 0.030461 -0.087203 0.190779
  endloop
 endfacet
 facet normal -0.324709 -0.453787 0.829844
  outer loop
   vertex -0.029532 -0.050772 0.243589
   vertex -0.020184 -0.059052 0.242720
   vertex -0.014164 -0.050772 0.249603
  endloop
 endfacet
 facet normal 0.850277 -0.521943 0.067860
  outer loop
   vertex 0.055024 -0.062741 0.182687
   vertex 0.054394 -0.061403 0.200880
   vertex 0.048659 -0.071991 0.191300
  endloop
 endfacet
 facet normal 0.000000 1.000000 0.000000
  outer loop
   vertex -0.015844 -0.044416 0.130703
   vertex -0.030536 -0.044416 0.136851
   vertex -0.000076 -0.044416 0.128607
  endloop
 endfacet
 facet normal 0.829935 0.315578 -0.460020
  outer loop
   vertex 0.037271 -0.050772 0.141099
   vertex 0.044815 -0.058670 0.149293
   vertex 0.044911 -0.067914 0.143124
  endloop
 endfacet
 facet normal 0.028695 0.711986 0.701607
  outer loop
   vertex -0.004978 -0.033074 0.101575
   vertex -0.004846 -0.046201 0.114891
   vertex 0.014083 -0.046204 0.114120
  endloop
 endfacet
 facet normal -0.991618 0.000000 0.129207
  outer loop
   vertex -0.060996 -0.050772 0.190136
   vertex -0.058921 -0.050772 0.206061
   vertex -0.058921 -0.044416 0.206061
  endloop
 endfacet
 facet normal -0.516725 0.707042 0.482790
  outer loop
   vertex -0.039655 0.040124 0.047691
   vertex -0.029867 0.036859 0.062948
   vertex -0.030753 0.047513 0.046397
  endloop
 endfacet
 facet normal 0.796308 0.000000 0.604891
  outer loop
   vertex 0.043001 -0.050772 0.233645
   vertex 0.052682 -0.044416 0.220900
   vertex 0.043001 -0.044416 0.233645
  endloop
 endfacet
 facet normal 0.987819 -0.101316 -0.118108
  outer loop
   vertex 0.044911 -0.067914 0.143124
   vertex 0.046624 -0.074666 0.163242
   vertex 0.044170 -0.074948 0.142957
  endloop
 endfacet
 facet normal 0.591543 -0.794263 0.138645
  outer loop
   vertex 0.030461 -0.087203 0.190779
   vertex 0.040468 -0.082959 0.172398
   vertex 0.038971 -0.079262 0.199963
  endloop
 endfacet
 facet normal 0.339858 -0.917438 -0.206894
  outer loop
   vertex 0.044170 -0.074948 0.142957
   vertex 0.043416 -0.079746 0.162993
   vertex 0.040468 -0.082959 0.172398
  endloop
 endfacet
 facet normal 0.072998 0.341805 0.936931
  outer loop
   vertex -0.004941 0.023625 0.078647
   vertex 0.032982 -0.029767 0.095170
   vertex 0.021452 0.019150 0.078223
  endloop
 endfacet
 facet normal -0.457657 0.563651 0.687639
  outer loop
   vertex -0.038132 0.028985 0.063901
   vertex -0.029124 0.027731 0.070925
   vertex -0.029867 0.036859 0.062948
  endloop
 endfacet
 facet normal -0.565221 0.654166 0.502585
  outer loop
   vertex -0.039655 0.040124 0.047691
   vertex -0.038132 0.028985 0.063901
   vertex -0.029867 0.036859 0.062948
  endloop
 endfacet
 facet normal -0.143102 -0.989551 -0.017616
  outer loop
   vertex -0.022479 -0.090345 0.152957
   vertex -0.004835 -0.092893 0.152780
   vertex 0.004763 -0.094632 0.172492
  endloop
 endfacet
 facet normal 0.399658 -0.903539 -0.154566
  outer loop
   vertex 0.022095 -0.087206 0.133975
   vertex 0.038610 -0.081474 0.143173
   vertex 0.022315 -0.090356 0.152957
  endloop
 endfacet
 facet normal -0.479315 0.519333 0.707496
  outer loop
   vertex -0.038132 0.028985 0.063901
   vertex -0.037994 0.019062 0.071279
   vertex -0.029124 0.027731 0.070925
  endloop
 endfacet
 facet normal 0.919980 -0.345141 -0.185782
  outer loop
   vertex 0.056142 -0.050772 0.165985
   vertex 0.055024 -0.062741 0.182687
   vertex 0.046624 -0.074666 0.163242
  endloop
 endfacet
 facet normal 0.873330 -0.487053 0.008628
  outer loop
   vertex 0.058621 -0.023704 -0.000583
   vertex 0.057715 -0.024610 0.039997
   vertex 0.047954 -0.042282 0.030346
  endloop
 endfacet
 facet normal 0.734041 -0.644853 0.212952
  outer loop
   vertex 0.054394 -0.061403 0.200880
   vertex 0.049340 -0.063757 0.211170
   vertex 0.038971 -0.079262 0.199963
  endloop
 endfacet
 facet normal -0.036059 -0.998788 0.033507
  outer loop
   vertex 0.037271 -0.050772 0.141099
   vertex 0.023989 -0.051011 0.119682
   vertex 0.050313 -0.050772 0.155135
  endloop
 endfacet
 facet normal 0.796238 0.000000 -0.604984
  outer loop
   vertex 0.052682 -0.050772 0.159371
   vertex 0.043001 -0.050772 0.146629
   vertex 0.043001 -0.044416 0.146629
  endloop
 endfacet
 facet normal 0.289186 0.615623 0.733062
  outer loop
   vertex 0.013566 0.040878 0.065971
   vertex 0.028873 0.027760 0.070949
   vertex 0.029572 0.036936 0.062967
  endloop
 endfacet
 facet normal 0.991618 0.000000 0.129207
  outer loop
   vertex 0.058769 -0.050772 0.206061
   vertex 0.060844 -0.050772 0.190136
   vertex 0.060844 -0.044416 0.190136
  endloop
 endfacet
 facet normal 0.912881 0.091436 0.397853
  outer loop
   vertex 0.057701 -0.006348 0.058746
   vertex 0.052952 -0.006428 0.069659
   vertex 0.048241 -0.038043 0.087735
  endloop
 endfacet
 facet normal 0.666651 0.292614 0.685532
  outer loop
   vertex 0.043957 0.013851 0.069751
   vertex 0.048241 -0.038043 0.087735
   vertex 0.052952 -0.006428 0.069659
  endloop
 endfacet
 facet normal 0.796238 0.000000 -0.604984
  outer loop
   vertex 0.052682 -0.050772 0.159371
   vertex 0.043001 -0.044416 0.146629
   vertex 0.052682 -0.044416 0.159371
  endloop
 endfacet
 facet normal -0.743272 -0.640080 -0.194538
  outer loop
   vertex -0.044715 -0.060101 0.093419
   vertex -0.030485 -0.057857 0.031671
   vertex -0.043790 -0.073237 0.133106
  endloop
 endfacet
 facet normal -0.396159 -0.914106 -0.086425
  outer loop
   vertex -0.030485 -0.057857 0.031671
   vertex -0.021779 -0.060566 0.020415
   vertex -0.012243 -0.066795 0.042577
  endloop
 endfacet
 facet normal 0.840429 -0.443638 0.311229
  outer loop
   vertex 0.059683 -0.050772 0.201751
   vertex 0.049340 -0.063757 0.211170
   vertex 0.054394 -0.061403 0.200880
  endloop
 endfacet
 facet normal 0.141995 -0.981436 -0.128921
  outer loop
   vertex 0.004726 -0.065410 0.030368
   vertex 0.013617 -0.062797 0.020267
   vertex 0.020032 -0.064869 0.043107
  endloop
 endfacet
 facet normal 0.217904 0.965004 -0.145894
  outer loop
   vertex 0.023989 -0.051011 0.119682
   vertex 0.037271 -0.050772 0.141099
   vertex 0.032539 -0.053092 0.118686
  endloop
 endfacet
 facet normal -0.478544 0.346854 0.806652
  outer loop
   vertex -0.045328 0.009130 0.071206
   vertex -0.041738 -0.018615 0.085266
   vertex -0.033121 -0.029769 0.095174
  endloop
 endfacet
 facet normal -0.478094 0.347096 0.806815
  outer loop
   vertex -0.045328 0.009130 0.071206
   vertex -0.033121 -0.029769 0.095174
   vertex -0.037994 0.019062 0.071279
  endloop
 endfacet
 facet normal -0.612589 0.000000 -0.790402
  outer loop
   vertex -0.030536 -0.050772 0.136851
   vertex -0.043153 -0.050772 0.146629
   vertex -0.043153 -0.044416 0.146629
  endloop
 endfacet
 facet normal 0.571339 -0.796457 -0.198059
  outer loop
   vertex 0.041325 -0.064317 0.092000
   vertex 0.044170 -0.074948 0.142957
   vertex 0.029747 -0.060125 0.041746
  endloop
 endfacet
 facet normal 0.696495 -0.717452 -0.012495
  outer loop
   vertex 0.039612 -0.049844 -0.000451
   vertex 0.048253 -0.041454 -0.000519
   vertex 0.047954 -0.042282 0.030346
  endloop
 endfacet
endsolid
