solid stl file generated from AC3D
 facet normal 1.000000 0.000000 0.000000
  outer loop
   vertex 0.001196 0.000050 0.001196
   vertex 0.001196 0.012316 -0.001192
   vertex 0.001196 0.012316 0.001196
  endloop
 endfacet
 facet normal 1.000000 0.000000 0.000000
  outer loop
   vertex 0.001196 0.012316 -0.001192
   vertex 0.001196 0.000050 0.001196
   vertex 0.001196 0.000050 -0.001192
  endloop
 endfacet
 facet normal -1.000000 0.000000 0.000000
  outer loop
   vertex 0.000004 0.000050 -0.001192
   vertex 0.000004 0.012316 0.001196
   vertex 0.000004 0.012316 -0.001192
  endloop
 endfacet
 facet normal -1.000000 0.000000 0.000000
  outer loop
   vertex 0.000004 0.012316 0.001196
   vertex 0.000004 0.000050 -0.001192
   vertex 0.000004 0.000050 0.001196
  endloop
 endfacet
 facet normal 0.000000 0.000000 -1.000000
  outer loop
   vertex 0.000004 0.000050 -0.001192
   vertex 0.001196 0.012316 -0.001192
   vertex 0.001196 0.000050 -0.001192
  endloop
 endfacet
 facet normal 0.000000 0.000000 -1.000000
  outer loop
   vertex 0.001196 0.012316 -0.001192
   vertex 0.000004 0.000050 -0.001192
   vertex 0.000004 0.012316 -0.001192
  endloop
 endfacet
 facet normal 0.000000 0.000000 1.000000
  outer loop
   vertex 0.000004 0.012316 0.001196
   vertex 0.001196 0.000050 0.001196
   vertex 0.001196 0.012316 0.001196
  endloop
 endfacet
 facet normal 0.000000 0.000000 1.000000
  outer loop
   vertex 0.001196 0.000050 0.001196
   vertex 0.000004 0.012316 0.001196
   vertex 0.000004 0.000050 0.001196
  endloop
 endfacet
 facet normal 0.000000 1.000000 0.000000
  outer loop
   vertex 0.001196 0.012316 -0.001192
   vertex 0.000004 0.012316 0.001196
   vertex 0.001196 0.012316 0.001196
  endloop
 endfacet
 facet normal 0.000000 1.000000 0.000000
  outer loop
   vertex 0.000004 0.012316 0.001196
   vertex 0.001196 0.012316 -0.001192
   vertex 0.000004 0.012316 -0.001192
  endloop
 endfacet
 facet normal 0.000000 -1.000000 0.000000
  outer loop
   vertex 0.000004 0.000050 -0.001192
   vertex 0.001196 0.000050 0.001196
   vertex 0.000004 0.000050 0.001196
  endloop
 endfacet
 facet normal 0.000000 -1.000000 0.000000
  outer loop
   vertex 0.001196 0.000050 0.001196
   vertex 0.000004 0.000050 -0.001192
   vertex 0.001196 0.000050 -0.001192
  endloop
 endfacet
endsolid
