solid stl file generated from AC3D
 facet normal -0.184333 0.000000 0.982864
  outer loop
   vertex -0.002001 0.009862 0.007383
   vertex -0.001045 0.000063 0.007563
   vertex -0.001045 0.009862 0.007563
  endloop
 endfacet
 facet normal -0.184333 0.000000 0.982864
  outer loop
   vertex -0.001045 0.000063 0.007563
   vertex -0.002001 0.009862 0.007383
   vertex -0.002001 0.000063 0.007383
  endloop
 endfacet
 facet normal -0.304298 0.000000 0.952577
  outer loop
   vertex -0.002927 0.009862 0.007088
   vertex -0.002001 0.000063 0.007383
   vertex -0.002001 0.009862 0.007383
  endloop
 endfacet
 facet normal -0.304298 0.000000 0.952577
  outer loop
   vertex -0.002001 0.000063 0.007383
   vertex -0.002927 0.009862 0.007088
   vertex -0.002927 0.000063 0.007088
  endloop
 endfacet
 facet normal -0.419879 0.000000 0.907580
  outer loop
   vertex -0.003808 0.009862 0.006680
   vertex -0.002927 0.000063 0.007088
   vertex -0.002927 0.009862 0.007088
  endloop
 endfacet
 facet normal -0.419880 0.000000 0.907580
  outer loop
   vertex -0.002927 0.000063 0.007088
   vertex -0.003808 0.009862 0.006680
   vertex -0.003808 0.000063 0.006680
  endloop
 endfacet
 facet normal -0.529346 0.000000 0.848406
  outer loop
   vertex -0.004630 0.009862 0.006167
   vertex -0.003808 0.000063 0.006680
   vertex -0.003808 0.009862 0.006680
  endloop
 endfacet
 facet normal -0.529346 0.000000 0.848406
  outer loop
   vertex -0.003808 0.000063 0.006680
   vertex -0.004630 0.009862 0.006167
   vertex -0.004630 0.000063 0.006167
  endloop
 endfacet
 facet normal -0.630983 0.000000 0.775797
  outer loop
   vertex -0.005381 0.009862 0.005557
   vertex -0.004630 0.000063 0.006167
   vertex -0.004630 0.009862 0.006167
  endloop
 endfacet
 facet normal -0.630983 0.000000 0.775797
  outer loop
   vertex -0.004630 0.000063 0.006167
   vertex -0.005381 0.009862 0.005557
   vertex -0.005381 0.000063 0.005557
  endloop
 endfacet
 facet normal -0.723136 0.000000 0.690706
  outer loop
   vertex -0.006047 0.000063 0.004859
   vertex -0.005381 0.009862 0.005557
   vertex -0.006047 0.009862 0.004859
  endloop
 endfacet
 facet normal -0.723136 0.000000 0.690706
  outer loop
   vertex -0.005381 0.009862 0.005557
   vertex -0.006047 0.000063 0.004859
   vertex -0.005381 0.000063 0.005557
  endloop
 endfacet
 facet normal -0.804230 0.000000 0.594319
  outer loop
   vertex -0.006619 0.000063 0.004085
   vertex -0.006047 0.009862 0.004859
   vertex -0.006619 0.009862 0.004085
  endloop
 endfacet
 facet normal -0.804230 0.000000 0.594318
  outer loop
   vertex -0.006047 0.009862 0.004859
   vertex -0.006619 0.000063 0.004085
   vertex -0.006047 0.000063 0.004859
  endloop
 endfacet
 facet normal -0.872813 0.000000 0.488055
  outer loop
   vertex -0.007088 0.000063 0.003246
   vertex -0.006619 0.009862 0.004085
   vertex -0.007088 0.009862 0.003246
  endloop
 endfacet
 facet normal -0.872813 0.000000 0.488055
  outer loop
   vertex -0.006619 0.009862 0.004085
   vertex -0.007088 0.000063 0.003246
   vertex -0.006619 0.000063 0.004085
  endloop
 endfacet
 facet normal -0.927607 0.000000 0.373559
  outer loop
   vertex -0.007447 0.000063 0.002356
   vertex -0.007088 0.009862 0.003246
   vertex -0.007447 0.009862 0.002356
  endloop
 endfacet
 facet normal -0.927606 0.000000 0.373559
  outer loop
   vertex -0.007088 0.009862 0.003246
   vertex -0.007447 0.000063 0.002356
   vertex -0.007088 0.000063 0.003246
  endloop
 endfacet
 facet normal -0.967550 0.000000 0.252679
  outer loop
   vertex -0.007689 0.000063 0.001428
   vertex -0.007447 0.009862 0.002356
   vertex -0.007689 0.009862 0.001428
  endloop
 endfacet
 facet normal -0.967550 0.000000 0.252679
  outer loop
   vertex -0.007447 0.009862 0.002356
   vertex -0.007689 0.000063 0.001428
   vertex -0.007447 0.000063 0.002356
  endloop
 endfacet
 facet normal -0.991845 0.000000 0.127447
  outer loop
   vertex -0.007811 0.000063 0.000479
   vertex -0.007689 0.009862 0.001428
   vertex -0.007811 0.009862 0.000479
  endloop
 endfacet
 facet normal -0.991845 0.000000 0.127447
  outer loop
   vertex -0.007689 0.009862 0.001428
   vertex -0.007811 0.000063 0.000479
   vertex -0.007689 0.000063 0.001428
  endloop
 endfacet
 facet normal -1.000000 0.000000 0.000000
  outer loop
   vertex -0.007811 0.000063 -0.000479
   vertex -0.007811 0.009862 0.000479
   vertex -0.007811 0.009862 -0.000479
  endloop
 endfacet
 facet normal -1.000000 0.000000 0.000000
  outer loop
   vertex -0.007811 0.009862 0.000479
   vertex -0.007811 0.000063 -0.000479
   vertex -0.007811 0.000063 0.000479
  endloop
 endfacet
 facet normal -0.991845 -0.000000 -0.127447
  outer loop
   vertex -0.007689 0.000063 -0.001428
   vertex -0.007811 0.009862 -0.000479
   vertex -0.007689 0.009862 -0.001428
  endloop
 endfacet
 facet normal -0.991845 0.000000 -0.127447
  outer loop
   vertex -0.007811 0.009862 -0.000479
   vertex -0.007689 0.000063 -0.001428
   vertex -0.007811 0.000063 -0.000479
  endloop
 endfacet
 facet normal -0.967549 -0.000000 -0.252682
  outer loop
   vertex -0.007447 0.000063 -0.002356
   vertex -0.007689 0.009862 -0.001428
   vertex -0.007447 0.009862 -0.002356
  endloop
 endfacet
 facet normal -0.967549 -0.000000 -0.252682
  outer loop
   vertex -0.007689 0.009862 -0.001428
   vertex -0.007447 0.000063 -0.002356
   vertex -0.007689 0.000063 -0.001428
  endloop
 endfacet
 facet normal -0.927607 -0.000000 -0.373556
  outer loop
   vertex -0.007088 0.000063 -0.003246
   vertex -0.007447 0.009862 -0.002356
   vertex -0.007088 0.009862 -0.003246
  endloop
 endfacet
 facet normal -0.927607 -0.000000 -0.373556
  outer loop
   vertex -0.007447 0.009862 -0.002356
   vertex -0.007088 0.000063 -0.003246
   vertex -0.007447 0.000063 -0.002356
  endloop
 endfacet
 facet normal -0.872812 -0.000000 -0.488057
  outer loop
   vertex -0.006619 0.000063 -0.004085
   vertex -0.007088 0.009862 -0.003246
   vertex -0.006619 0.009862 -0.004085
  endloop
 endfacet
 facet normal -0.872812 -0.000000 -0.488057
  outer loop
   vertex -0.007088 0.009862 -0.003246
   vertex -0.006619 0.000063 -0.004085
   vertex -0.007088 0.000063 -0.003246
  endloop
 endfacet
 facet normal -0.804230 -0.000000 -0.594318
  outer loop
   vertex -0.006047 0.000063 -0.004859
   vertex -0.006619 0.009862 -0.004085
   vertex -0.006047 0.009862 -0.004859
  endloop
 endfacet
 facet normal -0.804230 -0.000000 -0.594318
  outer loop
   vertex -0.006619 0.009862 -0.004085
   vertex -0.006047 0.000063 -0.004859
   vertex -0.006619 0.000063 -0.004085
  endloop
 endfacet
 facet normal -0.723137 -0.000000 -0.690705
  outer loop
   vertex -0.005381 0.000063 -0.005557
   vertex -0.006047 0.009862 -0.004859
   vertex -0.005381 0.009862 -0.005557
  endloop
 endfacet
 facet normal -0.723137 -0.000000 -0.690705
  outer loop
   vertex -0.006047 0.009862 -0.004859
   vertex -0.005381 0.000063 -0.005557
   vertex -0.006047 0.000063 -0.004859
  endloop
 endfacet
 facet normal -0.630983 0.000000 -0.775797
  outer loop
   vertex -0.004630 0.000063 -0.006167
   vertex -0.005381 0.009862 -0.005557
   vertex -0.004630 0.009862 -0.006167
  endloop
 endfacet
 facet normal -0.630984 -0.000000 -0.775796
  outer loop
   vertex -0.005381 0.009862 -0.005557
   vertex -0.004630 0.000063 -0.006167
   vertex -0.005381 0.000063 -0.005557
  endloop
 endfacet
 facet normal -0.529345 0.000000 -0.848407
  outer loop
   vertex -0.003808 0.000063 -0.006680
   vertex -0.004630 0.009862 -0.006167
   vertex -0.003808 0.009862 -0.006680
  endloop
 endfacet
 facet normal -0.529345 0.000000 -0.848407
  outer loop
   vertex -0.004630 0.009862 -0.006167
   vertex -0.003808 0.000063 -0.006680
   vertex -0.004630 0.000063 -0.006167
  endloop
 endfacet
 facet normal -0.419880 0.000000 -0.907579
  outer loop
   vertex -0.002927 0.000063 -0.007088
   vertex -0.003808 0.009862 -0.006680
   vertex -0.002927 0.009862 -0.007088
  endloop
 endfacet
 facet normal -0.419880 0.000000 -0.907579
  outer loop
   vertex -0.003808 0.009862 -0.006680
   vertex -0.002927 0.000063 -0.007088
   vertex -0.003808 0.000063 -0.006680
  endloop
 endfacet
 facet normal -0.304296 0.000000 -0.952577
  outer loop
   vertex -0.002001 0.000063 -0.007383
   vertex -0.002927 0.009862 -0.007088
   vertex -0.002001 0.009862 -0.007383
  endloop
 endfacet
 facet normal -0.304296 0.000000 -0.952577
  outer loop
   vertex -0.002927 0.009862 -0.007088
   vertex -0.002001 0.000063 -0.007383
   vertex -0.002927 0.000063 -0.007088
  endloop
 endfacet
 facet normal -0.184332 0.000000 -0.982864
  outer loop
   vertex -0.001045 0.000063 -0.007563
   vertex -0.002001 0.009862 -0.007383
   vertex -0.001045 0.009862 -0.007563
  endloop
 endfacet
 facet normal -0.184332 0.000000 -0.982864
  outer loop
   vertex -0.002001 0.009862 -0.007383
   vertex -0.001045 0.000063 -0.007563
   vertex -0.002001 0.000063 -0.007383
  endloop
 endfacet
 facet normal -0.061736 0.000000 -0.998093
  outer loop
   vertex -0.000073 0.000063 -0.007623
   vertex -0.001045 0.009862 -0.007563
   vertex -0.000073 0.009862 -0.007623
  endloop
 endfacet
 facet normal -0.061736 0.000000 -0.998093
  outer loop
   vertex -0.001045 0.009862 -0.007563
   vertex -0.000073 0.000063 -0.007623
   vertex -0.001045 0.000063 -0.007563
  endloop
 endfacet
 facet normal 0.061738 -0.000000 -0.998092
  outer loop
   vertex -0.000073 0.000063 -0.007623
   vertex 0.000899 0.009862 -0.007563
   vertex 0.000899 0.000063 -0.007563
  endloop
 endfacet
 facet normal 0.061738 0.000000 -0.998092
  outer loop
   vertex 0.000899 0.009862 -0.007563
   vertex -0.000073 0.000063 -0.007623
   vertex -0.000073 0.009862 -0.007623
  endloop
 endfacet
 facet normal 0.184332 -0.000000 -0.982864
  outer loop
   vertex 0.001855 0.000063 -0.007383
   vertex 0.000899 0.009862 -0.007563
   vertex 0.001855 0.009862 -0.007383
  endloop
 endfacet
 facet normal 0.184332 -0.000000 -0.982864
  outer loop
   vertex 0.000899 0.009862 -0.007563
   vertex 0.001855 0.000063 -0.007383
   vertex 0.000899 0.000063 -0.007563
  endloop
 endfacet
 facet normal 0.304300 -0.000000 -0.952576
  outer loop
   vertex 0.002781 0.000063 -0.007088
   vertex 0.001855 0.009862 -0.007383
   vertex 0.002781 0.009862 -0.007088
  endloop
 endfacet
 facet normal 0.304299 -0.000000 -0.952576
  outer loop
   vertex 0.001855 0.009862 -0.007383
   vertex 0.002781 0.000063 -0.007088
   vertex 0.001855 0.000063 -0.007383
  endloop
 endfacet
 facet normal 0.419880 -0.000000 -0.907580
  outer loop
   vertex 0.003662 0.000063 -0.006680
   vertex 0.002781 0.009862 -0.007088
   vertex 0.003662 0.009862 -0.006680
  endloop
 endfacet
 facet normal 0.419880 -0.000000 -0.907580
  outer loop
   vertex 0.002781 0.009862 -0.007088
   vertex 0.003662 0.000063 -0.006680
   vertex 0.002781 0.000063 -0.007088
  endloop
 endfacet
 facet normal 0.529346 -0.000000 -0.848406
  outer loop
   vertex 0.004484 0.000063 -0.006167
   vertex 0.003662 0.009862 -0.006680
   vertex 0.004484 0.009862 -0.006167
  endloop
 endfacet
 facet normal 0.529346 -0.000000 -0.848406
  outer loop
   vertex 0.003662 0.009862 -0.006680
   vertex 0.004484 0.000063 -0.006167
   vertex 0.003662 0.000063 -0.006680
  endloop
 endfacet
 facet normal 0.630983 -0.000000 -0.775797
  outer loop
   vertex 0.005235 0.000063 -0.005557
   vertex 0.004484 0.009862 -0.006167
   vertex 0.005235 0.009862 -0.005557
  endloop
 endfacet
 facet normal 0.630984 -0.000000 -0.775796
  outer loop
   vertex 0.004484 0.009862 -0.006167
   vertex 0.005235 0.000063 -0.005557
   vertex 0.004484 0.000063 -0.006167
  endloop
 endfacet
 facet normal 0.723138 -0.000000 -0.690704
  outer loop
   vertex 0.005901 0.000063 -0.004859
   vertex 0.005235 0.009862 -0.005557
   vertex 0.005901 0.009862 -0.004859
  endloop
 endfacet
 facet normal 0.723137 -0.000000 -0.690704
  outer loop
   vertex 0.005235 0.009862 -0.005557
   vertex 0.005901 0.000063 -0.004859
   vertex 0.005235 0.000063 -0.005557
  endloop
 endfacet
 facet normal 0.804230 -0.000000 -0.594318
  outer loop
   vertex 0.006473 0.000063 -0.004085
   vertex 0.005901 0.009862 -0.004859
   vertex 0.006473 0.009862 -0.004085
  endloop
 endfacet
 facet normal 0.804230 -0.000000 -0.594319
  outer loop
   vertex 0.005901 0.009862 -0.004859
   vertex 0.006473 0.000063 -0.004085
   vertex 0.005901 0.000063 -0.004859
  endloop
 endfacet
 facet normal 0.872813 -0.000000 -0.488054
  outer loop
   vertex 0.006943 0.000063 -0.003246
   vertex 0.006473 0.009862 -0.004085
   vertex 0.006943 0.009862 -0.003246
  endloop
 endfacet
 facet normal 0.872813 -0.000000 -0.488054
  outer loop
   vertex 0.006473 0.009862 -0.004085
   vertex 0.006943 0.000063 -0.003246
   vertex 0.006473 0.000063 -0.004085
  endloop
 endfacet
 facet normal 0.927607 -0.000000 -0.373557
  outer loop
   vertex 0.007301 0.000063 -0.002356
   vertex 0.006943 0.009862 -0.003246
   vertex 0.007301 0.009862 -0.002356
  endloop
 endfacet
 facet normal 0.927607 -0.000000 -0.373557
  outer loop
   vertex 0.006943 0.009862 -0.003246
   vertex 0.007301 0.000063 -0.002356
   vertex 0.006943 0.000063 -0.003246
  endloop
 endfacet
 facet normal 0.967550 -0.000000 -0.252679
  outer loop
   vertex 0.007543 0.000063 -0.001428
   vertex 0.007301 0.009862 -0.002356
   vertex 0.007543 0.009862 -0.001428
  endloop
 endfacet
 facet normal 0.967550 -0.000000 -0.252680
  outer loop
   vertex 0.007301 0.009862 -0.002356
   vertex 0.007543 0.000063 -0.001428
   vertex 0.007301 0.000063 -0.002356
  endloop
 endfacet
 facet normal 0.991846 0.000000 -0.127443
  outer loop
   vertex 0.007665 0.000063 -0.000479
   vertex 0.007543 0.009862 -0.001428
   vertex 0.007665 0.009862 -0.000479
  endloop
 endfacet
 facet normal 0.991846 -0.000000 -0.127443
  outer loop
   vertex 0.007543 0.009862 -0.001428
   vertex 0.007665 0.000063 -0.000479
   vertex 0.007543 0.000063 -0.001428
  endloop
 endfacet
 facet normal 1.000000 0.000000 0.000000
  outer loop
   vertex 0.007665 0.000063 0.000479
   vertex 0.007665 0.009862 -0.000479
   vertex 0.007665 0.009862 0.000479
  endloop
 endfacet
 facet normal 1.000000 0.000000 0.000000
  outer loop
   vertex 0.007665 0.009862 -0.000479
   vertex 0.007665 0.000063 0.000479
   vertex 0.007665 0.000063 -0.000479
  endloop
 endfacet
 facet normal 0.991845 0.000000 0.127449
  outer loop
   vertex 0.007543 0.000063 0.001428
   vertex 0.007665 0.009862 0.000479
   vertex 0.007543 0.009862 0.001428
  endloop
 endfacet
 facet normal 0.991845 0.000000 0.127449
  outer loop
   vertex 0.007665 0.009862 0.000479
   vertex 0.007543 0.000063 0.001428
   vertex 0.007665 0.000063 0.000479
  endloop
 endfacet
 facet normal 0.967550 0.000000 0.252680
  outer loop
   vertex 0.007301 0.000063 0.002356
   vertex 0.007543 0.009862 0.001428
   vertex 0.007301 0.009862 0.002356
  endloop
 endfacet
 facet normal 0.967550 0.000000 0.252680
  outer loop
   vertex 0.007543 0.009862 0.001428
   vertex 0.007301 0.000063 0.002356
   vertex 0.007543 0.000063 0.001428
  endloop
 endfacet
 facet normal 0.927605 0.000000 0.373561
  outer loop
   vertex 0.006943 0.000063 0.003246
   vertex 0.007301 0.009862 0.002356
   vertex 0.006943 0.009862 0.003246
  endloop
 endfacet
 facet normal 0.927605 0.000000 0.373562
  outer loop
   vertex 0.007301 0.009862 0.002356
   vertex 0.006943 0.000063 0.003246
   vertex 0.007301 0.000063 0.002356
  endloop
 endfacet
 facet normal 0.872813 0.000000 0.488055
  outer loop
   vertex 0.006473 0.000063 0.004085
   vertex 0.006943 0.009862 0.003246
   vertex 0.006473 0.009862 0.004085
  endloop
 endfacet
 facet normal 0.872813 0.000000 0.488055
  outer loop
   vertex 0.006943 0.009862 0.003246
   vertex 0.006473 0.000063 0.004085
   vertex 0.006943 0.000063 0.003246
  endloop
 endfacet
 facet normal 0.804229 -0.000000 0.594319
  outer loop
   vertex 0.005901 0.000063 0.004859
   vertex 0.006473 0.009862 0.004085
   vertex 0.005901 0.009862 0.004859
  endloop
 endfacet
 facet normal 0.804228 0.000000 0.594320
  outer loop
   vertex 0.006473 0.009862 0.004085
   vertex 0.005901 0.000063 0.004859
   vertex 0.006473 0.000063 0.004085
  endloop
 endfacet
 facet normal 0.723135 -0.000000 0.690707
  outer loop
   vertex 0.005235 0.000063 0.005557
   vertex 0.005901 0.009862 0.004859
   vertex 0.005235 0.009862 0.005557
  endloop
 endfacet
 facet normal 0.723135 -0.000000 0.690707
  outer loop
   vertex 0.005901 0.009862 0.004859
   vertex 0.005235 0.000063 0.005557
   vertex 0.005901 0.000063 0.004859
  endloop
 endfacet
 facet normal 0.630983 -0.000000 0.775797
  outer loop
   vertex 0.004484 0.009862 0.006167
   vertex 0.005235 0.000063 0.005557
   vertex 0.005235 0.009862 0.005557
  endloop
 endfacet
 facet normal 0.630983 -0.000000 0.775797
  outer loop
   vertex 0.005235 0.000063 0.005557
   vertex 0.004484 0.009862 0.006167
   vertex 0.004484 0.000063 0.006167
  endloop
 endfacet
 facet normal 0.529344 -0.000000 0.848407
  outer loop
   vertex 0.003662 0.009862 0.006680
   vertex 0.004484 0.000063 0.006167
   vertex 0.004484 0.009862 0.006167
  endloop
 endfacet
 facet normal 0.529344 -0.000000 0.848407
  outer loop
   vertex 0.004484 0.000063 0.006167
   vertex 0.003662 0.009862 0.006680
   vertex 0.003662 0.000063 0.006680
  endloop
 endfacet
 facet normal 0.419878 -0.000000 0.907581
  outer loop
   vertex 0.002781 0.009862 0.007088
   vertex 0.003662 0.000063 0.006680
   vertex 0.003662 0.009862 0.006680
  endloop
 endfacet
 facet normal 0.419878 -0.000000 0.907581
  outer loop
   vertex 0.003662 0.000063 0.006680
   vertex 0.002781 0.009862 0.007088
   vertex 0.002781 0.000063 0.007088
  endloop
 endfacet
 facet normal 0.304296 -0.000000 0.952578
  outer loop
   vertex 0.001855 0.009862 0.007383
   vertex 0.002781 0.000063 0.007088
   vertex 0.002781 0.009862 0.007088
  endloop
 endfacet
 facet normal 0.304296 -0.000000 0.952578
  outer loop
   vertex 0.002781 0.000063 0.007088
   vertex 0.001855 0.009862 0.007383
   vertex 0.001855 0.000063 0.007383
  endloop
 endfacet
 facet normal 0.184330 -0.000000 0.982864
  outer loop
   vertex 0.000899 0.009862 0.007563
   vertex 0.001855 0.000063 0.007383
   vertex 0.001855 0.009862 0.007383
  endloop
 endfacet
 facet normal 0.184330 -0.000000 0.982864
  outer loop
   vertex 0.001855 0.000063 0.007383
   vertex 0.000899 0.009862 0.007563
   vertex 0.000899 0.000063 0.007563
  endloop
 endfacet
 facet normal 0.061736 -0.000000 0.998093
  outer loop
   vertex -0.000073 0.009862 0.007623
   vertex 0.000899 0.000063 0.007563
   vertex 0.000899 0.009862 0.007563
  endloop
 endfacet
 facet normal 0.061736 0.000000 0.998093
  outer loop
   vertex 0.000899 0.000063 0.007563
   vertex -0.000073 0.009862 0.007623
   vertex -0.000073 0.000063 0.007623
  endloop
 endfacet
 facet normal -0.061739 0.000000 0.998092
  outer loop
   vertex -0.001045 0.009862 0.007563
   vertex -0.000073 0.000063 0.007623
   vertex -0.000073 0.009862 0.007623
  endloop
 endfacet
 facet normal -0.061739 0.000000 0.998092
  outer loop
   vertex -0.000073 0.000063 0.007623
   vertex -0.001045 0.009862 0.007563
   vertex -0.001045 0.000063 0.007563
  endloop
 endfacet
 facet normal 0.000000 1.000000 0.000000
  outer loop
   vertex -0.000073 0.009862 0.000000
   vertex -0.002001 0.009862 0.007383
   vertex -0.001045 0.009862 0.007563
  endloop
 endfacet
 facet normal 0.000000 1.000000 0.000000
  outer loop
   vertex -0.000073 0.009862 0.000000
   vertex -0.002927 0.009862 0.007088
   vertex -0.002001 0.009862 0.007383
  endloop
 endfacet
 facet normal 0.000000 1.000000 0.000000
  outer loop
   vertex -0.000073 0.009862 0.000000
   vertex -0.003808 0.009862 0.006680
   vertex -0.002927 0.009862 0.007088
  endloop
 endfacet
 facet normal 0.000000 1.000000 0.000000
  outer loop
   vertex -0.000073 0.009862 0.000000
   vertex -0.004630 0.009862 0.006167
   vertex -0.003808 0.009862 0.006680
  endloop
 endfacet
 facet normal 0.000000 1.000000 0.000000
  outer loop
   vertex -0.000073 0.009862 0.000000
   vertex -0.005381 0.009862 0.005557
   vertex -0.004630 0.009862 0.006167
  endloop
 endfacet
 facet normal 0.000000 1.000000 0.000000
  outer loop
   vertex -0.000073 0.009862 0.000000
   vertex -0.006047 0.009862 0.004859
   vertex -0.005381 0.009862 0.005557
  endloop
 endfacet
 facet normal 0.000000 1.000000 0.000000
  outer loop
   vertex -0.000073 0.009862 0.000000
   vertex -0.006619 0.009862 0.004085
   vertex -0.006047 0.009862 0.004859
  endloop
 endfacet
 facet normal 0.000000 1.000000 0.000000
  outer loop
   vertex -0.000073 0.009862 0.000000
   vertex -0.007088 0.009862 0.003246
   vertex -0.006619 0.009862 0.004085
  endloop
 endfacet
 facet normal 0.000000 1.000000 0.000000
  outer loop
   vertex -0.000073 0.009862 0.000000
   vertex -0.007447 0.009862 0.002356
   vertex -0.007088 0.009862 0.003246
  endloop
 endfacet
 facet normal 0.000000 1.000000 0.000000
  outer loop
   vertex -0.000073 0.009862 0.000000
   vertex -0.007689 0.009862 0.001428
   vertex -0.007447 0.009862 0.002356
  endloop
 endfacet
 facet normal 0.000000 1.000000 0.000000
  outer loop
   vertex -0.000073 0.009862 0.000000
   vertex -0.007811 0.009862 0.000479
   vertex -0.007689 0.009862 0.001428
  endloop
 endfacet
 facet normal 0.000000 1.000000 0.000000
  outer loop
   vertex -0.000073 0.009862 0.000000
   vertex -0.007811 0.009862 -0.000479
   vertex -0.007811 0.009862 0.000479
  endloop
 endfacet
 facet normal 0.000000 1.000000 0.000000
  outer loop
   vertex -0.000073 0.009862 0.000000
   vertex -0.007689 0.009862 -0.001428
   vertex -0.007811 0.009862 -0.000479
  endloop
 endfacet
 facet normal 0.000000 1.000000 0.000000
  outer loop
   vertex -0.000073 0.009862 0.000000
   vertex -0.007447 0.009862 -0.002356
   vertex -0.007689 0.009862 -0.001428
  endloop
 endfacet
 facet normal 0.000000 1.000000 0.000000
  outer loop
   vertex -0.000073 0.009862 0.000000
   vertex -0.007088 0.009862 -0.003246
   vertex -0.007447 0.009862 -0.002356
  endloop
 endfacet
 facet normal 0.000000 1.000000 0.000000
  outer loop
   vertex -0.000073 0.009862 0.000000
   vertex -0.006619 0.009862 -0.004085
   vertex -0.007088 0.009862 -0.003246
  endloop
 endfacet
 facet normal 0.000000 1.000000 0.000000
  outer loop
   vertex -0.000073 0.009862 0.000000
   vertex -0.006047 0.009862 -0.004859
   vertex -0.006619 0.009862 -0.004085
  endloop
 endfacet
 facet normal 0.000000 1.000000 0.000000
  outer loop
   vertex -0.000073 0.009862 0.000000
   vertex -0.005381 0.009862 -0.005557
   vertex -0.006047 0.009862 -0.004859
  endloop
 endfacet
 facet normal 0.000000 1.000000 0.000000
  outer loop
   vertex -0.000073 0.009862 0.000000
   vertex -0.004630 0.009862 -0.006167
   vertex -0.005381 0.009862 -0.005557
  endloop
 endfacet
 facet normal 0.000000 1.000000 0.000000
  outer loop
   vertex -0.000073 0.009862 0.000000
   vertex -0.003808 0.009862 -0.006680
   vertex -0.004630 0.009862 -0.006167
  endloop
 endfacet
 facet normal 0.000000 1.000000 0.000000
  outer loop
   vertex -0.000073 0.009862 0.000000
   vertex -0.002927 0.009862 -0.007088
   vertex -0.003808 0.009862 -0.006680
  endloop
 endfacet
 facet normal 0.000000 1.000000 0.000000
  outer loop
   vertex -0.000073 0.009862 0.000000
   vertex -0.002001 0.009862 -0.007383
   vertex -0.002927 0.009862 -0.007088
  endloop
 endfacet
 facet normal 0.000000 1.000000 0.000000
  outer loop
   vertex -0.000073 0.009862 0.000000
   vertex -0.001045 0.009862 -0.007563
   vertex -0.002001 0.009862 -0.007383
  endloop
 endfacet
 facet normal 0.000000 1.000000 0.000000
  outer loop
   vertex -0.000073 0.009862 0.000000
   vertex -0.000073 0.009862 -0.007623
   vertex -0.001045 0.009862 -0.007563
  endloop
 endfacet
 facet normal 0.000000 1.000000 0.000000
  outer loop
   vertex -0.000073 0.009862 0.000000
   vertex 0.000899 0.009862 -0.007563
   vertex -0.000073 0.009862 -0.007623
  endloop
 endfacet
 facet normal 0.000000 1.000000 0.000000
  outer loop
   vertex -0.000073 0.009862 0.000000
   vertex 0.001855 0.009862 -0.007383
   vertex 0.000899 0.009862 -0.007563
  endloop
 endfacet
 facet normal 0.000000 1.000000 0.000000
  outer loop
   vertex -0.000073 0.009862 0.000000
   vertex 0.002781 0.009862 -0.007088
   vertex 0.001855 0.009862 -0.007383
  endloop
 endfacet
 facet normal 0.000000 1.000000 0.000000
  outer loop
   vertex -0.000073 0.009862 0.000000
   vertex 0.003662 0.009862 -0.006680
   vertex 0.002781 0.009862 -0.007088
  endloop
 endfacet
 facet normal 0.000000 1.000000 0.000000
  outer loop
   vertex -0.000073 0.009862 0.000000
   vertex 0.004484 0.009862 -0.006167
   vertex 0.003662 0.009862 -0.006680
  endloop
 endfacet
 facet normal 0.000000 1.000000 0.000000
  outer loop
   vertex -0.000073 0.009862 0.000000
   vertex 0.005235 0.009862 -0.005557
   vertex 0.004484 0.009862 -0.006167
  endloop
 endfacet
 facet normal 0.000000 1.000000 0.000000
  outer loop
   vertex -0.000073 0.009862 0.000000
   vertex 0.005901 0.009862 -0.004859
   vertex 0.005235 0.009862 -0.005557
  endloop
 endfacet
 facet normal 0.000000 1.000000 0.000000
  outer loop
   vertex -0.000073 0.009862 0.000000
   vertex 0.006473 0.009862 -0.004085
   vertex 0.005901 0.009862 -0.004859
  endloop
 endfacet
 facet normal 0.000000 1.000000 0.000000
  outer loop
   vertex -0.000073 0.009862 0.000000
   vertex 0.006943 0.009862 -0.003246
   vertex 0.006473 0.009862 -0.004085
  endloop
 endfacet
 facet normal 0.000000 1.000000 0.000000
  outer loop
   vertex -0.000073 0.009862 0.000000
   vertex 0.007301 0.009862 -0.002356
   vertex 0.006943 0.009862 -0.003246
  endloop
 endfacet
 facet normal 0.000000 1.000000 0.000000
  outer loop
   vertex -0.000073 0.009862 0.000000
   vertex 0.007543 0.009862 -0.001428
   vertex 0.007301 0.009862 -0.002356
  endloop
 endfacet
 facet normal 0.000000 1.000000 0.000000
  outer loop
   vertex -0.000073 0.009862 0.000000
   vertex 0.007665 0.009862 -0.000479
   vertex 0.007543 0.009862 -0.001428
  endloop
 endfacet
 facet normal 0.000000 1.000000 0.000000
  outer loop
   vertex -0.000073 0.009862 0.000000
   vertex 0.007665 0.009862 0.000479
   vertex 0.007665 0.009862 -0.000479
  endloop
 endfacet
 facet normal 0.000000 1.000000 0.000000
  outer loop
   vertex -0.000073 0.009862 0.000000
   vertex 0.007543 0.009862 0.001428
   vertex 0.007665 0.009862 0.000479
  endloop
 endfacet
 facet normal 0.000000 1.000000 0.000000
  outer loop
   vertex -0.000073 0.009862 0.000000
   vertex 0.007301 0.009862 0.002356
   vertex 0.007543 0.009862 0.001428
  endloop
 endfacet
 facet normal 0.000000 1.000000 0.000000
  outer loop
   vertex -0.000073 0.009862 0.000000
   vertex 0.006943 0.009862 0.003246
   vertex 0.007301 0.009862 0.002356
  endloop
 endfacet
 facet normal 0.000000 1.000000 0.000000
  outer loop
   vertex -0.000073 0.009862 0.000000
   vertex 0.006473 0.009862 0.004085
   vertex 0.006943 0.009862 0.003246
  endloop
 endfacet
 facet normal 0.000000 1.000000 0.000000
  outer loop
   vertex -0.000073 0.009862 0.000000
   vertex 0.005901 0.009862 0.004859
   vertex 0.006473 0.009862 0.004085
  endloop
 endfacet
 facet normal 0.000000 1.000000 0.000000
  outer loop
   vertex -0.000073 0.009862 0.000000
   vertex 0.005235 0.009862 0.005557
   vertex 0.005901 0.009862 0.004859
  endloop
 endfacet
 facet normal 0.000000 1.000000 0.000000
  outer loop
   vertex -0.000073 0.009862 0.000000
   vertex 0.004484 0.009862 0.006167
   vertex 0.005235 0.009862 0.005557
  endloop
 endfacet
 facet normal 0.000000 1.000000 0.000000
  outer loop
   vertex -0.000073 0.009862 0.000000
   vertex 0.003662 0.009862 0.006680
   vertex 0.004484 0.009862 0.006167
  endloop
 endfacet
 facet normal 0.000000 1.000000 0.000000
  outer loop
   vertex -0.000073 0.009862 0.000000
   vertex 0.002781 0.009862 0.007088
   vertex 0.003662 0.009862 0.006680
  endloop
 endfacet
 facet normal 0.000000 1.000000 0.000000
  outer loop
   vertex -0.000073 0.009862 0.000000
   vertex 0.001855 0.009862 0.007383
   vertex 0.002781 0.009862 0.007088
  endloop
 endfacet
 facet normal 0.000000 1.000000 0.000000
  outer loop
   vertex -0.000073 0.009862 0.000000
   vertex 0.000899 0.009862 0.007563
   vertex 0.001855 0.009862 0.007383
  endloop
 endfacet
 facet normal 0.000000 1.000000 0.000000
  outer loop
   vertex -0.000073 0.009862 0.000000
   vertex -0.000073 0.009862 0.007623
   vertex 0.000899 0.009862 0.007563
  endloop
 endfacet
 facet normal 0.000000 1.000000 0.000000
  outer loop
   vertex -0.000073 0.009862 0.000000
   vertex -0.001045 0.009862 0.007563
   vertex -0.000073 0.009862 0.007623
  endloop
 endfacet
 facet normal 0.000000 -1.000000 0.000000
  outer loop
   vertex -0.000073 0.000063 0.000000
   vertex -0.001045 0.000063 0.007563
   vertex -0.002001 0.000063 0.007383
  endloop
 endfacet
 facet normal 0.000000 -1.000000 0.000000
  outer loop
   vertex -0.000073 0.000063 0.000000
   vertex -0.002001 0.000063 0.007383
   vertex -0.002927 0.000063 0.007088
  endloop
 endfacet
 facet normal 0.000000 -1.000000 0.000000
  outer loop
   vertex -0.000073 0.000063 0.000000
   vertex -0.002927 0.000063 0.007088
   vertex -0.003808 0.000063 0.006680
  endloop
 endfacet
 facet normal 0.000000 -1.000000 0.000000
  outer loop
   vertex -0.000073 0.000063 0.000000
   vertex -0.003808 0.000063 0.006680
   vertex -0.004630 0.000063 0.006167
  endloop
 endfacet
 facet normal 0.000000 -1.000000 0.000000
  outer loop
   vertex -0.000073 0.000063 0.000000
   vertex -0.004630 0.000063 0.006167
   vertex -0.005381 0.000063 0.005557
  endloop
 endfacet
 facet normal 0.000000 -1.000000 0.000000
  outer loop
   vertex -0.000073 0.000063 0.000000
   vertex -0.005381 0.000063 0.005557
   vertex -0.006047 0.000063 0.004859
  endloop
 endfacet
 facet normal 0.000000 -1.000000 0.000000
  outer loop
   vertex -0.000073 0.000063 0.000000
   vertex -0.006047 0.000063 0.004859
   vertex -0.006619 0.000063 0.004085
  endloop
 endfacet
 facet normal 0.000000 -1.000000 0.000000
  outer loop
   vertex -0.000073 0.000063 0.000000
   vertex -0.006619 0.000063 0.004085
   vertex -0.007088 0.000063 0.003246
  endloop
 endfacet
 facet normal 0.000000 -1.000000 0.000000
  outer loop
   vertex -0.000073 0.000063 0.000000
   vertex -0.007088 0.000063 0.003246
   vertex -0.007447 0.000063 0.002356
  endloop
 endfacet
 facet normal 0.000000 -1.000000 0.000000
  outer loop
   vertex -0.000073 0.000063 0.000000
   vertex -0.007447 0.000063 0.002356
   vertex -0.007689 0.000063 0.001428
  endloop
 endfacet
 facet normal 0.000000 -1.000000 0.000000
  outer loop
   vertex -0.000073 0.000063 0.000000
   vertex -0.007689 0.000063 0.001428
   vertex -0.007811 0.000063 0.000479
  endloop
 endfacet
 facet normal 0.000000 -1.000000 0.000000
  outer loop
   vertex -0.000073 0.000063 0.000000
   vertex -0.007811 0.000063 0.000479
   vertex -0.007811 0.000063 -0.000479
  endloop
 endfacet
 facet normal 0.000000 -1.000000 0.000000
  outer loop
   vertex -0.000073 0.000063 0.000000
   vertex -0.007811 0.000063 -0.000479
   vertex -0.007689 0.000063 -0.001428
  endloop
 endfacet
 facet normal 0.000000 -1.000000 0.000000
  outer loop
   vertex -0.000073 0.000063 0.000000
   vertex -0.007689 0.000063 -0.001428
   vertex -0.007447 0.000063 -0.002356
  endloop
 endfacet
 facet normal 0.000000 -1.000000 0.000000
  outer loop
   vertex -0.000073 0.000063 0.000000
   vertex -0.007447 0.000063 -0.002356
   vertex -0.007088 0.000063 -0.003246
  endloop
 endfacet
 facet normal 0.000000 -1.000000 0.000000
  outer loop
   vertex -0.000073 0.000063 0.000000
   vertex -0.007088 0.000063 -0.003246
   vertex -0.006619 0.000063 -0.004085
  endloop
 endfacet
 facet normal 0.000000 -1.000000 0.000000
  outer loop
   vertex -0.000073 0.000063 0.000000
   vertex -0.006619 0.000063 -0.004085
   vertex -0.006047 0.000063 -0.004859
  endloop
 endfacet
 facet normal 0.000000 -1.000000 0.000000
  outer loop
   vertex -0.000073 0.000063 0.000000
   vertex -0.006047 0.000063 -0.004859
   vertex -0.005381 0.000063 -0.005557
  endloop
 endfacet
 facet normal 0.000000 -1.000000 0.000000
  outer loop
   vertex -0.000073 0.000063 0.000000
   vertex -0.005381 0.000063 -0.005557
   vertex -0.004630 0.000063 -0.006167
  endloop
 endfacet
 facet normal 0.000000 -1.000000 0.000000
  outer loop
   vertex -0.000073 0.000063 0.000000
   vertex -0.004630 0.000063 -0.006167
   vertex -0.003808 0.000063 -0.006680
  endloop
 endfacet
 facet normal 0.000000 -1.000000 0.000000
  outer loop
   vertex -0.000073 0.000063 0.000000
   vertex -0.003808 0.000063 -0.006680
   vertex -0.002927 0.000063 -0.007088
  endloop
 endfacet
 facet normal 0.000000 -1.000000 0.000000
  outer loop
   vertex -0.000073 0.000063 0.000000
   vertex -0.002927 0.000063 -0.007088
   vertex -0.002001 0.000063 -0.007383
  endloop
 endfacet
 facet normal 0.000000 -1.000000 0.000000
  outer loop
   vertex -0.000073 0.000063 0.000000
   vertex -0.002001 0.000063 -0.007383
   vertex -0.001045 0.000063 -0.007563
  endloop
 endfacet
 facet normal 0.000000 -1.000000 0.000000
  outer loop
   vertex -0.000073 0.000063 0.000000
   vertex -0.001045 0.000063 -0.007563
   vertex -0.000073 0.000063 -0.007623
  endloop
 endfacet
 facet normal 0.000000 -1.000000 0.000000
  outer loop
   vertex -0.000073 0.000063 0.000000
   vertex -0.000073 0.000063 -0.007623
   vertex 0.000899 0.000063 -0.007563
  endloop
 endfacet
 facet normal 0.000000 -1.000000 0.000000
  outer loop
   vertex -0.000073 0.000063 0.000000
   vertex 0.000899 0.000063 -0.007563
   vertex 0.001855 0.000063 -0.007383
  endloop
 endfacet
 facet normal 0.000000 -1.000000 0.000000
  outer loop
   vertex -0.000073 0.000063 0.000000
   vertex 0.001855 0.000063 -0.007383
   vertex 0.002781 0.000063 -0.007088
  endloop
 endfacet
 facet normal 0.000000 -1.000000 0.000000
  outer loop
   vertex -0.000073 0.000063 0.000000
   vertex 0.002781 0.000063 -0.007088
   vertex 0.003662 0.000063 -0.006680
  endloop
 endfacet
 facet normal 0.000000 -1.000000 0.000000
  outer loop
   vertex -0.000073 0.000063 0.000000
   vertex 0.003662 0.000063 -0.006680
   vertex 0.004484 0.000063 -0.006167
  endloop
 endfacet
 facet normal 0.000000 -1.000000 0.000000
  outer loop
   vertex -0.000073 0.000063 0.000000
   vertex 0.004484 0.000063 -0.006167
   vertex 0.005235 0.000063 -0.005557
  endloop
 endfacet
 facet normal 0.000000 -1.000000 0.000000
  outer loop
   vertex -0.000073 0.000063 0.000000
   vertex 0.005235 0.000063 -0.005557
   vertex 0.005901 0.000063 -0.004859
  endloop
 endfacet
 facet normal 0.000000 -1.000000 0.000000
  outer loop
   vertex -0.000073 0.000063 0.000000
   vertex 0.005901 0.000063 -0.004859
   vertex 0.006473 0.000063 -0.004085
  endloop
 endfacet
 facet normal 0.000000 -1.000000 0.000000
  outer loop
   vertex -0.000073 0.000063 0.000000
   vertex 0.006473 0.000063 -0.004085
   vertex 0.006943 0.000063 -0.003246
  endloop
 endfacet
 facet normal 0.000000 -1.000000 0.000000
  outer loop
   vertex -0.000073 0.000063 0.000000
   vertex 0.006943 0.000063 -0.003246
   vertex 0.007301 0.000063 -0.002356
  endloop
 endfacet
 facet normal 0.000000 -1.000000 0.000000
  outer loop
   vertex -0.000073 0.000063 0.000000
   vertex 0.007301 0.000063 -0.002356
   vertex 0.007543 0.000063 -0.001428
  endloop
 endfacet
 facet normal 0.000000 -1.000000 0.000000
  outer loop
   vertex -0.000073 0.000063 0.000000
   vertex 0.007543 0.000063 -0.001428
   vertex 0.007665 0.000063 -0.000479
  endloop
 endfacet
 facet normal 0.000000 -1.000000 0.000000
  outer loop
   vertex -0.000073 0.000063 0.000000
   vertex 0.007665 0.000063 -0.000479
   vertex 0.007665 0.000063 0.000479
  endloop
 endfacet
 facet normal 0.000000 -1.000000 0.000000
  outer loop
   vertex -0.000073 0.000063 0.000000
   vertex 0.007665 0.000063 0.000479
   vertex 0.007543 0.000063 0.001428
  endloop
 endfacet
 facet normal 0.000000 -1.000000 0.000000
  outer loop
   vertex -0.000073 0.000063 0.000000
   vertex 0.007543 0.000063 0.001428
   vertex 0.007301 0.000063 0.002356
  endloop
 endfacet
 facet normal 0.000000 -1.000000 0.000000
  outer loop
   vertex -0.000073 0.000063 0.000000
   vertex 0.007301 0.000063 0.002356
   vertex 0.006943 0.000063 0.003246
  endloop
 endfacet
 facet normal 0.000000 -1.000000 0.000000
  outer loop
   vertex -0.000073 0.000063 0.000000
   vertex 0.006943 0.000063 0.003246
   vertex 0.006473 0.000063 0.004085
  endloop
 endfacet
 facet normal 0.000000 -1.000000 0.000000
  outer loop
   vertex -0.000073 0.000063 0.000000
   vertex 0.006473 0.000063 0.004085
   vertex 0.005901 0.000063 0.004859
  endloop
 endfacet
 facet normal 0.000000 -1.000000 0.000000
  outer loop
   vertex -0.000073 0.000063 0.000000
   vertex 0.005901 0.000063 0.004859
   vertex 0.005235 0.000063 0.005557
  endloop
 endfacet
 facet normal 0.000000 -1.000000 0.000000
  outer loop
   vertex -0.000073 0.000063 0.000000
   vertex 0.005235 0.000063 0.005557
   vertex 0.004484 0.000063 0.006167
  endloop
 endfacet
 facet normal 0.000000 -1.000000 0.000000
  outer loop
   vertex -0.000073 0.000063 0.000000
   vertex 0.004484 0.000063 0.006167
   vertex 0.003662 0.000063 0.006680
  endloop
 endfacet
 facet normal 0.000000 -1.000000 0.000000
  outer loop
   vertex -0.000073 0.000063 0.000000
   vertex 0.003662 0.000063 0.006680
   vertex 0.002781 0.000063 0.007088
  endloop
 endfacet
 facet normal 0.000000 -1.000000 0.000000
  outer loop
   vertex -0.000073 0.000063 0.000000
   vertex 0.002781 0.000063 0.007088
   vertex 0.001855 0.000063 0.007383
  endloop
 endfacet
 facet normal 0.000000 -1.000000 0.000000
  outer loop
   vertex -0.000073 0.000063 0.000000
   vertex 0.001855 0.000063 0.007383
   vertex 0.000899 0.000063 0.007563
  endloop
 endfacet
 facet normal 0.000000 -1.000000 0.000000
  outer loop
   vertex -0.000073 0.000063 0.000000
   vertex 0.000899 0.000063 0.007563
   vertex -0.000073 0.000063 0.007623
  endloop
 endfacet
 facet normal 0.000000 -1.000000 0.000000
  outer loop
   vertex -0.000073 0.000063 0.000000
   vertex -0.000073 0.000063 0.007623
   vertex -0.001045 0.000063 0.007563
  endloop
 endfacet
endsolid
