solid OBJECT
  facet normal 0.000000e+000 0.000000e+000 1.000000e+000
    outer loop
      vertex 0.000000e+000 -7.500000e-001 -1.000000e-002
      vertex 0.000000e+000 -6.250000e-001 -1.000000e-002
      vertex -3.000000e-002 -6.666667e-001 -1.000000e-002
    endloop
  endfacet
  facet normal 0.000000e+000 0.000000e+000 1.000000e+000
    outer loop
      vertex 0.000000e+000 -6.250000e-001 -1.000000e-002
      vertex 0.000000e+000 -5.000000e-001 -1.000000e-002
      vertex -3.000000e-002 -5.833333e-001 -1.000000e-002
    endloop
  endfacet
  facet normal 0.000000e+000 0.000000e+000 1.000000e+000
    outer loop
      vertex 0.000000e+000 -5.000000e-001 -1.000000e-002
      vertex 0.000000e+000 -3.750000e-001 -1.000000e-002
      vertex -3.000000e-002 -4.166667e-001 -1.000000e-002
    endloop
  endfacet
  facet normal 0.000000e+000 0.000000e+000 1.000000e+000
    outer loop
      vertex 0.000000e+000 -3.750000e-001 -1.000000e-002
      vertex 0.000000e+000 -2.500000e-001 -1.000000e-002
      vertex -3.000000e-002 -3.333333e-001 -1.000000e-002
    endloop
  endfacet
  facet normal 0.000000e+000 0.000000e+000 1.000000e+000
    outer loop
      vertex 0.000000e+000 -2.500000e-001 -1.000000e-002
      vertex 0.000000e+000 -1.250000e-001 -1.000000e-002
      vertex -3.000000e-002 -1.666667e-001 -1.000000e-002
    endloop
  endfacet
  facet normal 0.000000e+000 0.000000e+000 1.000000e+000
    outer loop
      vertex 0.000000e+000 -1.250000e-001 -1.000000e-002
      vertex 0.000000e+000 0.000000e+000 -1.000000e-002
      vertex -3.000000e-002 -8.333334e-002 -1.000000e-002
    endloop
  endfacet
  facet normal 0.000000e+000 0.000000e+000 1.000000e+000
    outer loop
      vertex 0.000000e+000 0.000000e+000 -1.000000e-002
      vertex 0.000000e+000 1.250000e-001 -1.000000e-002
      vertex -3.000000e-002 8.333334e-002 -1.000000e-002
    endloop
  endfacet
  facet normal 0.000000e+000 0.000000e+000 1.000000e+000
    outer loop
      vertex 0.000000e+000 1.250000e-001 -1.000000e-002
      vertex 0.000000e+000 2.500000e-001 -1.000000e-002
      vertex -3.000000e-002 1.666667e-001 -1.000000e-002
    endloop
  endfacet
  facet normal 0.000000e+000 0.000000e+000 1.000000e+000
    outer loop
      vertex 0.000000e+000 2.500000e-001 -1.000000e-002
      vertex 0.000000e+000 3.750000e-001 -1.000000e-002
      vertex -3.000000e-002 3.333333e-001 -1.000000e-002
    endloop
  endfacet
  facet normal 0.000000e+000 0.000000e+000 1.000000e+000
    outer loop
      vertex 0.000000e+000 3.750000e-001 -1.000000e-002
      vertex 0.000000e+000 5.000000e-001 -1.000000e-002
      vertex -3.000000e-002 4.166667e-001 -1.000000e-002
    endloop
  endfacet
  facet normal 0.000000e+000 0.000000e+000 1.000000e+000
    outer loop
      vertex 0.000000e+000 5.000000e-001 -1.000000e-002
      vertex 0.000000e+000 6.250000e-001 -1.000000e-002
      vertex -3.000000e-002 5.833333e-001 -1.000000e-002
    endloop
  endfacet
  facet normal 0.000000e+000 0.000000e+000 1.000000e+000
    outer loop
      vertex 0.000000e+000 6.250000e-001 -1.000000e-002
      vertex 0.000000e+000 7.500000e-001 -1.000000e-002
      vertex -3.000000e-002 6.666667e-001 -1.000000e-002
    endloop
  endfacet
  facet normal 0.000000e+000 0.000000e+000 1.000000e+000
    outer loop
      vertex 0.000000e+000 7.500000e-001 -1.000000e-002
      vertex -3.000000e-002 7.500000e-001 -1.000000e-002
      vertex -3.000000e-002 6.666667e-001 -1.000000e-002
    endloop
  endfacet
  facet normal 0.000000e+000 0.000000e+000 1.000000e+000
    outer loop
      vertex -3.000000e-002 -7.500000e-001 -1.000000e-002
      vertex 0.000000e+000 -7.500000e-001 -1.000000e-002
      vertex -3.000000e-002 -6.666667e-001 -1.000000e-002
    endloop
  endfacet
  facet normal 0.000000e+000 0.000000e+000 1.000000e+000
    outer loop
      vertex -3.000000e-002 6.666667e-001 -1.000000e-002
      vertex -3.000000e-002 5.833333e-001 -1.000000e-002
      vertex 0.000000e+000 6.250000e-001 -1.000000e-002
    endloop
  endfacet
  facet normal 0.000000e+000 0.000000e+000 1.000000e+000
    outer loop
      vertex -3.000000e-002 5.833333e-001 -1.000000e-002
      vertex -3.000000e-002 5.000000e-001 -1.000000e-002
      vertex 0.000000e+000 5.000000e-001 -1.000000e-002
    endloop
  endfacet
  facet normal 0.000000e+000 0.000000e+000 1.000000e+000
    outer loop
      vertex -3.000000e-002 5.000000e-001 -1.000000e-002
      vertex -3.000000e-002 4.166667e-001 -1.000000e-002
      vertex 0.000000e+000 5.000000e-001 -1.000000e-002
    endloop
  endfacet
  facet normal 0.000000e+000 0.000000e+000 1.000000e+000
    outer loop
      vertex -3.000000e-002 4.166667e-001 -1.000000e-002
      vertex -3.000000e-002 3.333333e-001 -1.000000e-002
      vertex 0.000000e+000 3.750000e-001 -1.000000e-002
    endloop
  endfacet
  facet normal 0.000000e+000 0.000000e+000 1.000000e+000
    outer loop
      vertex -3.000000e-002 3.333333e-001 -1.000000e-002
      vertex -3.000000e-002 2.500000e-001 -1.000000e-002
      vertex 0.000000e+000 2.500000e-001 -1.000000e-002
    endloop
  endfacet
  facet normal 0.000000e+000 0.000000e+000 1.000000e+000
    outer loop
      vertex -3.000000e-002 2.500000e-001 -1.000000e-002
      vertex -3.000000e-002 1.666667e-001 -1.000000e-002
      vertex 0.000000e+000 2.500000e-001 -1.000000e-002
    endloop
  endfacet
  facet normal 0.000000e+000 0.000000e+000 1.000000e+000
    outer loop
      vertex -3.000000e-002 1.666667e-001 -1.000000e-002
      vertex -3.000000e-002 8.333334e-002 -1.000000e-002
      vertex 0.000000e+000 1.250000e-001 -1.000000e-002
    endloop
  endfacet
  facet normal 0.000000e+000 0.000000e+000 1.000000e+000
    outer loop
      vertex -3.000000e-002 8.333334e-002 -1.000000e-002
      vertex -3.000000e-002 0.000000e+000 -1.000000e-002
      vertex 0.000000e+000 0.000000e+000 -1.000000e-002
    endloop
  endfacet
  facet normal 0.000000e+000 0.000000e+000 1.000000e+000
    outer loop
      vertex -3.000000e-002 0.000000e+000 -1.000000e-002
      vertex -3.000000e-002 -8.333334e-002 -1.000000e-002
      vertex 0.000000e+000 0.000000e+000 -1.000000e-002
    endloop
  endfacet
  facet normal 0.000000e+000 0.000000e+000 1.000000e+000
    outer loop
      vertex -3.000000e-002 -8.333334e-002 -1.000000e-002
      vertex -3.000000e-002 -1.666667e-001 -1.000000e-002
      vertex 0.000000e+000 -1.250000e-001 -1.000000e-002
    endloop
  endfacet
  facet normal 0.000000e+000 0.000000e+000 1.000000e+000
    outer loop
      vertex -3.000000e-002 -1.666667e-001 -1.000000e-002
      vertex -3.000000e-002 -2.500000e-001 -1.000000e-002
      vertex 0.000000e+000 -2.500000e-001 -1.000000e-002
    endloop
  endfacet
  facet normal 0.000000e+000 0.000000e+000 1.000000e+000
    outer loop
      vertex -3.000000e-002 -2.500000e-001 -1.000000e-002
      vertex -3.000000e-002 -3.333333e-001 -1.000000e-002
      vertex 0.000000e+000 -2.500000e-001 -1.000000e-002
    endloop
  endfacet
  facet normal 0.000000e+000 0.000000e+000 1.000000e+000
    outer loop
      vertex -3.000000e-002 -3.333333e-001 -1.000000e-002
      vertex -3.000000e-002 -4.166667e-001 -1.000000e-002
      vertex 0.000000e+000 -3.750000e-001 -1.000000e-002
    endloop
  endfacet
  facet normal 0.000000e+000 0.000000e+000 1.000000e+000
    outer loop
      vertex -3.000000e-002 -4.166667e-001 -1.000000e-002
      vertex -3.000000e-002 -5.000000e-001 -1.000000e-002
      vertex 0.000000e+000 -5.000000e-001 -1.000000e-002
    endloop
  endfacet
  facet normal 0.000000e+000 0.000000e+000 1.000000e+000
    outer loop
      vertex -3.000000e-002 -5.000000e-001 -1.000000e-002
      vertex -3.000000e-002 -5.833333e-001 -1.000000e-002
      vertex 0.000000e+000 -5.000000e-001 -1.000000e-002
    endloop
  endfacet
  facet normal 0.000000e+000 0.000000e+000 1.000000e+000
    outer loop
      vertex -3.000000e-002 -5.833333e-001 -1.000000e-002
      vertex -3.000000e-002 -6.666667e-001 -1.000000e-002
      vertex 0.000000e+000 -6.250000e-001 -1.000000e-002
    endloop
  endfacet
  facet normal -1.000000e+000 0.000000e+000 0.000000e+000
    outer loop
      vertex -3.000000e-002 -7.500000e-001 -1.000000e-002
      vertex -3.000000e-002 -6.666667e-001 -1.000000e-002
      vertex -3.000000e-002 -6.666667e-001 -3.000000e-002
    endloop
  endfacet
  facet normal -1.000000e+000 0.000000e+000 0.000000e+000
    outer loop
      vertex -3.000000e-002 -6.666667e-001 -1.000000e-002
      vertex -3.000000e-002 -5.833333e-001 -1.000000e-002
      vertex -3.000000e-002 -5.833333e-001 -3.000000e-002
    endloop
  endfacet
  facet normal -1.000000e+000 0.000000e+000 0.000000e+000
    outer loop
      vertex -3.000000e-002 -5.833333e-001 -1.000000e-002
      vertex -3.000000e-002 -5.000000e-001 -1.000000e-002
      vertex -3.000000e-002 -5.000000e-001 -3.000000e-002
    endloop
  endfacet
  facet normal -1.000000e+000 0.000000e+000 0.000000e+000
    outer loop
      vertex -3.000000e-002 -5.000000e-001 -1.000000e-002
      vertex -3.000000e-002 -4.166667e-001 -1.000000e-002
      vertex -3.000000e-002 -4.166667e-001 -3.000000e-002
    endloop
  endfacet
  facet normal -1.000000e+000 0.000000e+000 0.000000e+000
    outer loop
      vertex -3.000000e-002 -4.166667e-001 -1.000000e-002
      vertex -3.000000e-002 -3.333333e-001 -1.000000e-002
      vertex -3.000000e-002 -3.333333e-001 -3.000000e-002
    endloop
  endfacet
  facet normal -1.000000e+000 0.000000e+000 0.000000e+000
    outer loop
      vertex -3.000000e-002 -3.333333e-001 -1.000000e-002
      vertex -3.000000e-002 -2.500000e-001 -1.000000e-002
      vertex -3.000000e-002 -2.500000e-001 -3.000000e-002
    endloop
  endfacet
  facet normal -1.000000e+000 0.000000e+000 0.000000e+000
    outer loop
      vertex -3.000000e-002 -2.500000e-001 -1.000000e-002
      vertex -3.000000e-002 -1.666667e-001 -1.000000e-002
      vertex -3.000000e-002 -1.666667e-001 -3.000000e-002
    endloop
  endfacet
  facet normal -1.000000e+000 0.000000e+000 0.000000e+000
    outer loop
      vertex -3.000000e-002 -1.666667e-001 -1.000000e-002
      vertex -3.000000e-002 -8.333334e-002 -1.000000e-002
      vertex -3.000000e-002 -8.333334e-002 -3.000000e-002
    endloop
  endfacet
  facet normal -1.000000e+000 0.000000e+000 0.000000e+000
    outer loop
      vertex -3.000000e-002 -8.333334e-002 -1.000000e-002
      vertex -3.000000e-002 0.000000e+000 -1.000000e-002
      vertex -3.000000e-002 0.000000e+000 -3.000000e-002
    endloop
  endfacet
  facet normal -1.000000e+000 0.000000e+000 0.000000e+000
    outer loop
      vertex -3.000000e-002 0.000000e+000 -1.000000e-002
      vertex -3.000000e-002 8.333334e-002 -1.000000e-002
      vertex -3.000000e-002 8.333334e-002 -3.000000e-002
    endloop
  endfacet
  facet normal -1.000000e+000 0.000000e+000 0.000000e+000
    outer loop
      vertex -3.000000e-002 8.333334e-002 -1.000000e-002
      vertex -3.000000e-002 1.666667e-001 -1.000000e-002
      vertex -3.000000e-002 1.666667e-001 -3.000000e-002
    endloop
  endfacet
  facet normal -1.000000e+000 0.000000e+000 0.000000e+000
    outer loop
      vertex -3.000000e-002 1.666667e-001 -1.000000e-002
      vertex -3.000000e-002 2.500000e-001 -1.000000e-002
      vertex -3.000000e-002 2.500000e-001 -3.000000e-002
    endloop
  endfacet
  facet normal -1.000000e+000 0.000000e+000 0.000000e+000
    outer loop
      vertex -3.000000e-002 2.500000e-001 -1.000000e-002
      vertex -3.000000e-002 3.333333e-001 -1.000000e-002
      vertex -3.000000e-002 3.333333e-001 -3.000000e-002
    endloop
  endfacet
  facet normal -1.000000e+000 0.000000e+000 0.000000e+000
    outer loop
      vertex -3.000000e-002 3.333333e-001 -1.000000e-002
      vertex -3.000000e-002 4.166667e-001 -1.000000e-002
      vertex -3.000000e-002 4.166667e-001 -3.000000e-002
    endloop
  endfacet
  facet normal -1.000000e+000 0.000000e+000 0.000000e+000
    outer loop
      vertex -3.000000e-002 4.166667e-001 -1.000000e-002
      vertex -3.000000e-002 5.000000e-001 -1.000000e-002
      vertex -3.000000e-002 5.000000e-001 -3.000000e-002
    endloop
  endfacet
  facet normal -1.000000e+000 0.000000e+000 0.000000e+000
    outer loop
      vertex -3.000000e-002 5.000000e-001 -1.000000e-002
      vertex -3.000000e-002 5.833333e-001 -1.000000e-002
      vertex -3.000000e-002 5.833333e-001 -3.000000e-002
    endloop
  endfacet
  facet normal -1.000000e+000 0.000000e+000 0.000000e+000
    outer loop
      vertex -3.000000e-002 5.833333e-001 -1.000000e-002
      vertex -3.000000e-002 6.666667e-001 -1.000000e-002
      vertex -3.000000e-002 6.666667e-001 -3.000000e-002
    endloop
  endfacet
  facet normal -1.000000e+000 0.000000e+000 0.000000e+000
    outer loop
      vertex -3.000000e-002 6.666667e-001 -1.000000e-002
      vertex -3.000000e-002 7.500000e-001 -1.000000e-002
      vertex -3.000000e-002 7.500000e-001 -3.000000e-002
    endloop
  endfacet
  facet normal -1.000000e+000 0.000000e+000 0.000000e+000
    outer loop
      vertex -3.000000e-002 -7.500000e-001 -3.000000e-002
      vertex -3.000000e-002 -7.500000e-001 -1.000000e-002
      vertex -3.000000e-002 -6.666667e-001 -3.000000e-002
    endloop
  endfacet
  facet normal -1.000000e+000 0.000000e+000 0.000000e+000
    outer loop
      vertex -3.000000e-002 7.500000e-001 -3.000000e-002
      vertex -3.000000e-002 6.666667e-001 -3.000000e-002
      vertex -3.000000e-002 6.666667e-001 -1.000000e-002
    endloop
  endfacet
  facet normal -1.000000e+000 0.000000e+000 0.000000e+000
    outer loop
      vertex -3.000000e-002 6.666667e-001 -3.000000e-002
      vertex -3.000000e-002 5.833333e-001 -3.000000e-002
      vertex -3.000000e-002 5.833333e-001 -1.000000e-002
    endloop
  endfacet
  facet normal -1.000000e+000 0.000000e+000 0.000000e+000
    outer loop
      vertex -3.000000e-002 5.833333e-001 -3.000000e-002
      vertex -3.000000e-002 5.000000e-001 -3.000000e-002
      vertex -3.000000e-002 5.000000e-001 -1.000000e-002
    endloop
  endfacet
  facet normal -1.000000e+000 0.000000e+000 0.000000e+000
    outer loop
      vertex -3.000000e-002 5.000000e-001 -3.000000e-002
      vertex -3.000000e-002 4.166667e-001 -3.000000e-002
      vertex -3.000000e-002 4.166667e-001 -1.000000e-002
    endloop
  endfacet
  facet normal -1.000000e+000 0.000000e+000 0.000000e+000
    outer loop
      vertex -3.000000e-002 4.166667e-001 -3.000000e-002
      vertex -3.000000e-002 3.333333e-001 -3.000000e-002
      vertex -3.000000e-002 3.333333e-001 -1.000000e-002
    endloop
  endfacet
  facet normal -1.000000e+000 0.000000e+000 0.000000e+000
    outer loop
      vertex -3.000000e-002 3.333333e-001 -3.000000e-002
      vertex -3.000000e-002 2.500000e-001 -3.000000e-002
      vertex -3.000000e-002 2.500000e-001 -1.000000e-002
    endloop
  endfacet
  facet normal -1.000000e+000 0.000000e+000 0.000000e+000
    outer loop
      vertex -3.000000e-002 2.500000e-001 -3.000000e-002
      vertex -3.000000e-002 1.666667e-001 -3.000000e-002
      vertex -3.000000e-002 1.666667e-001 -1.000000e-002
    endloop
  endfacet
  facet normal -1.000000e+000 0.000000e+000 0.000000e+000
    outer loop
      vertex -3.000000e-002 1.666667e-001 -3.000000e-002
      vertex -3.000000e-002 8.333334e-002 -3.000000e-002
      vertex -3.000000e-002 8.333334e-002 -1.000000e-002
    endloop
  endfacet
  facet normal -1.000000e+000 0.000000e+000 0.000000e+000
    outer loop
      vertex -3.000000e-002 8.333334e-002 -3.000000e-002
      vertex -3.000000e-002 0.000000e+000 -3.000000e-002
      vertex -3.000000e-002 0.000000e+000 -1.000000e-002
    endloop
  endfacet
  facet normal -1.000000e+000 0.000000e+000 0.000000e+000
    outer loop
      vertex -3.000000e-002 0.000000e+000 -3.000000e-002
      vertex -3.000000e-002 -8.333334e-002 -3.000000e-002
      vertex -3.000000e-002 -8.333334e-002 -1.000000e-002
    endloop
  endfacet
  facet normal -1.000000e+000 0.000000e+000 0.000000e+000
    outer loop
      vertex -3.000000e-002 -8.333334e-002 -3.000000e-002
      vertex -3.000000e-002 -1.666667e-001 -3.000000e-002
      vertex -3.000000e-002 -1.666667e-001 -1.000000e-002
    endloop
  endfacet
  facet normal -1.000000e+000 0.000000e+000 0.000000e+000
    outer loop
      vertex -3.000000e-002 -1.666667e-001 -3.000000e-002
      vertex -3.000000e-002 -2.500000e-001 -3.000000e-002
      vertex -3.000000e-002 -2.500000e-001 -1.000000e-002
    endloop
  endfacet
  facet normal -1.000000e+000 0.000000e+000 0.000000e+000
    outer loop
      vertex -3.000000e-002 -2.500000e-001 -3.000000e-002
      vertex -3.000000e-002 -3.333333e-001 -3.000000e-002
      vertex -3.000000e-002 -3.333333e-001 -1.000000e-002
    endloop
  endfacet
  facet normal -1.000000e+000 0.000000e+000 0.000000e+000
    outer loop
      vertex -3.000000e-002 -3.333333e-001 -3.000000e-002
      vertex -3.000000e-002 -4.166667e-001 -3.000000e-002
      vertex -3.000000e-002 -4.166667e-001 -1.000000e-002
    endloop
  endfacet
  facet normal -1.000000e+000 0.000000e+000 0.000000e+000
    outer loop
      vertex -3.000000e-002 -4.166667e-001 -3.000000e-002
      vertex -3.000000e-002 -5.000000e-001 -3.000000e-002
      vertex -3.000000e-002 -5.000000e-001 -1.000000e-002
    endloop
  endfacet
  facet normal -1.000000e+000 0.000000e+000 0.000000e+000
    outer loop
      vertex -3.000000e-002 -5.000000e-001 -3.000000e-002
      vertex -3.000000e-002 -5.833333e-001 -3.000000e-002
      vertex -3.000000e-002 -5.833333e-001 -1.000000e-002
    endloop
  endfacet
  facet normal -1.000000e+000 0.000000e+000 0.000000e+000
    outer loop
      vertex -3.000000e-002 -5.833333e-001 -3.000000e-002
      vertex -3.000000e-002 -6.666667e-001 -3.000000e-002
      vertex -3.000000e-002 -6.666667e-001 -1.000000e-002
    endloop
  endfacet
  facet normal -4.472136e-001 0.000000e+000 -8.944272e-001
    outer loop
      vertex -3.000000e-002 -7.500000e-001 -3.000000e-002
      vertex -3.000000e-002 -6.666667e-001 -3.000000e-002
      vertex -1.000000e-002 -7.500000e-001 -4.000000e-002
    endloop
  endfacet
  facet normal -4.472136e-001 0.000000e+000 -8.944272e-001
    outer loop
      vertex -3.000000e-002 -6.666667e-001 -3.000000e-002
      vertex -3.000000e-002 -5.833333e-001 -3.000000e-002
      vertex -1.000000e-002 -6.562500e-001 -4.000000e-002
    endloop
  endfacet
  facet normal -4.472136e-001 0.000000e+000 -8.944272e-001
    outer loop
      vertex -3.000000e-002 -5.833333e-001 -3.000000e-002
      vertex -3.000000e-002 -5.000000e-001 -3.000000e-002
      vertex -1.000000e-002 -5.625000e-001 -4.000000e-002
    endloop
  endfacet
  facet normal -4.472136e-001 0.000000e+000 -8.944272e-001
    outer loop
      vertex -3.000000e-002 -5.000000e-001 -3.000000e-002
      vertex -3.000000e-002 -4.166667e-001 -3.000000e-002
      vertex -1.000000e-002 -4.687500e-001 -4.000000e-002
    endloop
  endfacet
  facet normal -4.472136e-001 0.000000e+000 -8.944272e-001
    outer loop
      vertex -3.000000e-002 -4.166667e-001 -3.000000e-002
      vertex -3.000000e-002 -3.333333e-001 -3.000000e-002
      vertex -1.000000e-002 -3.750000e-001 -4.000000e-002
    endloop
  endfacet
  facet normal -4.472136e-001 0.000000e+000 -8.944272e-001
    outer loop
      vertex -3.000000e-002 -3.333333e-001 -3.000000e-002
      vertex -3.000000e-002 -2.500000e-001 -3.000000e-002
      vertex -1.000000e-002 -2.812500e-001 -4.000000e-002
    endloop
  endfacet
  facet normal -4.472136e-001 0.000000e+000 -8.944272e-001
    outer loop
      vertex -3.000000e-002 -2.500000e-001 -3.000000e-002
      vertex -3.000000e-002 -1.666667e-001 -3.000000e-002
      vertex -1.000000e-002 -1.875000e-001 -4.000000e-002
    endloop
  endfacet
  facet normal -4.472136e-001 0.000000e+000 -8.944272e-001
    outer loop
      vertex -3.000000e-002 -1.666667e-001 -3.000000e-002
      vertex -3.000000e-002 -8.333334e-002 -3.000000e-002
      vertex -1.000000e-002 -9.375000e-002 -4.000000e-002
    endloop
  endfacet
  facet normal -4.472136e-001 0.000000e+000 -8.944272e-001
    outer loop
      vertex -3.000000e-002 -8.333334e-002 -3.000000e-002
      vertex -3.000000e-002 0.000000e+000 -3.000000e-002
      vertex -1.000000e-002 0.000000e+000 -4.000000e-002
    endloop
  endfacet
  facet normal -4.472136e-001 0.000000e+000 -8.944272e-001
    outer loop
      vertex -3.000000e-002 0.000000e+000 -3.000000e-002
      vertex -3.000000e-002 8.333334e-002 -3.000000e-002
      vertex -1.000000e-002 0.000000e+000 -4.000000e-002
    endloop
  endfacet
  facet normal -4.472136e-001 0.000000e+000 -8.944272e-001
    outer loop
      vertex -3.000000e-002 8.333334e-002 -3.000000e-002
      vertex -3.000000e-002 1.666667e-001 -3.000000e-002
      vertex -1.000000e-002 9.375000e-002 -4.000000e-002
    endloop
  endfacet
  facet normal -4.472136e-001 0.000000e+000 -8.944272e-001
    outer loop
      vertex -3.000000e-002 1.666667e-001 -3.000000e-002
      vertex -3.000000e-002 2.500000e-001 -3.000000e-002
      vertex -1.000000e-002 1.875000e-001 -4.000000e-002
    endloop
  endfacet
  facet normal -4.472136e-001 0.000000e+000 -8.944272e-001
    outer loop
      vertex -3.000000e-002 2.500000e-001 -3.000000e-002
      vertex -3.000000e-002 3.333333e-001 -3.000000e-002
      vertex -1.000000e-002 2.812500e-001 -4.000000e-002
    endloop
  endfacet
  facet normal -4.472136e-001 0.000000e+000 -8.944272e-001
    outer loop
      vertex -3.000000e-002 3.333333e-001 -3.000000e-002
      vertex -3.000000e-002 4.166667e-001 -3.000000e-002
      vertex -1.000000e-002 3.750000e-001 -4.000000e-002
    endloop
  endfacet
  facet normal -4.472136e-001 0.000000e+000 -8.944272e-001
    outer loop
      vertex -3.000000e-002 4.166667e-001 -3.000000e-002
      vertex -3.000000e-002 5.000000e-001 -3.000000e-002
      vertex -1.000000e-002 4.687500e-001 -4.000000e-002
    endloop
  endfacet
  facet normal -4.472136e-001 0.000000e+000 -8.944272e-001
    outer loop
      vertex -3.000000e-002 5.000000e-001 -3.000000e-002
      vertex -3.000000e-002 5.833333e-001 -3.000000e-002
      vertex -1.000000e-002 5.625000e-001 -4.000000e-002
    endloop
  endfacet
  facet normal -4.472136e-001 0.000000e+000 -8.944272e-001
    outer loop
      vertex -3.000000e-002 5.833333e-001 -3.000000e-002
      vertex -3.000000e-002 6.666667e-001 -3.000000e-002
      vertex -1.000000e-002 6.562500e-001 -4.000000e-002
    endloop
  endfacet
  facet normal -4.472136e-001 0.000000e+000 -8.944272e-001
    outer loop
      vertex -3.000000e-002 6.666667e-001 -3.000000e-002
      vertex -3.000000e-002 7.500000e-001 -3.000000e-002
      vertex -1.000000e-002 7.500000e-001 -4.000000e-002
    endloop
  endfacet
  facet normal -4.472136e-001 0.000000e+000 -8.944272e-001
    outer loop
      vertex -1.000000e-002 7.500000e-001 -4.000000e-002
      vertex -1.000000e-002 6.562500e-001 -4.000000e-002
      vertex -3.000000e-002 6.666667e-001 -3.000000e-002
    endloop
  endfacet
  facet normal -4.472136e-001 0.000000e+000 -8.944272e-001
    outer loop
      vertex -1.000000e-002 6.562500e-001 -4.000000e-002
      vertex -1.000000e-002 5.625000e-001 -4.000000e-002
      vertex -3.000000e-002 5.833333e-001 -3.000000e-002
    endloop
  endfacet
  facet normal -4.472136e-001 0.000000e+000 -8.944272e-001
    outer loop
      vertex -1.000000e-002 5.625000e-001 -4.000000e-002
      vertex -1.000000e-002 4.687500e-001 -4.000000e-002
      vertex -3.000000e-002 5.000000e-001 -3.000000e-002
    endloop
  endfacet
  facet normal -4.472136e-001 0.000000e+000 -8.944272e-001
    outer loop
      vertex -1.000000e-002 4.687500e-001 -4.000000e-002
      vertex -1.000000e-002 3.750000e-001 -4.000000e-002
      vertex -3.000000e-002 4.166667e-001 -3.000000e-002
    endloop
  endfacet
  facet normal -4.472136e-001 0.000000e+000 -8.944272e-001
    outer loop
      vertex -1.000000e-002 3.750000e-001 -4.000000e-002
      vertex -1.000000e-002 2.812500e-001 -4.000000e-002
      vertex -3.000000e-002 3.333333e-001 -3.000000e-002
    endloop
  endfacet
  facet normal -4.472136e-001 0.000000e+000 -8.944272e-001
    outer loop
      vertex -1.000000e-002 2.812500e-001 -4.000000e-002
      vertex -1.000000e-002 1.875000e-001 -4.000000e-002
      vertex -3.000000e-002 2.500000e-001 -3.000000e-002
    endloop
  endfacet
  facet normal -4.472136e-001 0.000000e+000 -8.944272e-001
    outer loop
      vertex -1.000000e-002 1.875000e-001 -4.000000e-002
      vertex -1.000000e-002 9.375000e-002 -4.000000e-002
      vertex -3.000000e-002 1.666667e-001 -3.000000e-002
    endloop
  endfacet
  facet normal -4.472136e-001 0.000000e+000 -8.944272e-001
    outer loop
      vertex -1.000000e-002 9.375000e-002 -4.000000e-002
      vertex -1.000000e-002 0.000000e+000 -4.000000e-002
      vertex -3.000000e-002 8.333334e-002 -3.000000e-002
    endloop
  endfacet
  facet normal -4.472136e-001 0.000000e+000 -8.944272e-001
    outer loop
      vertex -1.000000e-002 0.000000e+000 -4.000000e-002
      vertex -1.000000e-002 -9.375000e-002 -4.000000e-002
      vertex -3.000000e-002 -8.333334e-002 -3.000000e-002
    endloop
  endfacet
  facet normal -4.472136e-001 0.000000e+000 -8.944272e-001
    outer loop
      vertex -1.000000e-002 -9.375000e-002 -4.000000e-002
      vertex -1.000000e-002 -1.875000e-001 -4.000000e-002
      vertex -3.000000e-002 -1.666667e-001 -3.000000e-002
    endloop
  endfacet
  facet normal -4.472136e-001 0.000000e+000 -8.944272e-001
    outer loop
      vertex -1.000000e-002 -1.875000e-001 -4.000000e-002
      vertex -1.000000e-002 -2.812500e-001 -4.000000e-002
      vertex -3.000000e-002 -2.500000e-001 -3.000000e-002
    endloop
  endfacet
  facet normal -4.472136e-001 0.000000e+000 -8.944272e-001
    outer loop
      vertex -1.000000e-002 -2.812500e-001 -4.000000e-002
      vertex -1.000000e-002 -3.750000e-001 -4.000000e-002
      vertex -3.000000e-002 -3.333333e-001 -3.000000e-002
    endloop
  endfacet
  facet normal -4.472136e-001 0.000000e+000 -8.944272e-001
    outer loop
      vertex -1.000000e-002 -3.750000e-001 -4.000000e-002
      vertex -1.000000e-002 -4.687500e-001 -4.000000e-002
      vertex -3.000000e-002 -4.166667e-001 -3.000000e-002
    endloop
  endfacet
  facet normal -4.472136e-001 0.000000e+000 -8.944272e-001
    outer loop
      vertex -1.000000e-002 -4.687500e-001 -4.000000e-002
      vertex -1.000000e-002 -5.625000e-001 -4.000000e-002
      vertex -3.000000e-002 -5.000000e-001 -3.000000e-002
    endloop
  endfacet
  facet normal -4.472136e-001 0.000000e+000 -8.944272e-001
    outer loop
      vertex -1.000000e-002 -5.625000e-001 -4.000000e-002
      vertex -1.000000e-002 -6.562500e-001 -4.000000e-002
      vertex -3.000000e-002 -5.833333e-001 -3.000000e-002
    endloop
  endfacet
  facet normal -4.472136e-001 0.000000e+000 -8.944272e-001
    outer loop
      vertex -1.000000e-002 -6.562500e-001 -4.000000e-002
      vertex -1.000000e-002 -7.500000e-001 -4.000000e-002
      vertex -3.000000e-002 -6.666667e-001 -3.000000e-002
    endloop
  endfacet
  facet normal -1.000000e+000 0.000000e+000 0.000000e+000
    outer loop
      vertex -1.000000e-002 -7.500000e-001 -4.000000e-002
      vertex -1.000000e-002 -6.562500e-001 -4.000000e-002
      vertex -1.000000e-002 -6.666667e-001 -8.000000e-002
    endloop
  endfacet
  facet normal -1.000000e+000 0.000000e+000 0.000000e+000
    outer loop
      vertex -1.000000e-002 -6.562500e-001 -4.000000e-002
      vertex -1.000000e-002 -5.625000e-001 -4.000000e-002
      vertex -1.000000e-002 -5.833333e-001 -8.000000e-002
    endloop
  endfacet
  facet normal -1.000000e+000 0.000000e+000 0.000000e+000
    outer loop
      vertex -1.000000e-002 -5.625000e-001 -4.000000e-002
      vertex -1.000000e-002 -4.687500e-001 -4.000000e-002
      vertex -1.000000e-002 -5.000000e-001 -8.000000e-002
    endloop
  endfacet
  facet normal -1.000000e+000 0.000000e+000 0.000000e+000
    outer loop
      vertex -1.000000e-002 -4.687500e-001 -4.000000e-002
      vertex -1.000000e-002 -3.750000e-001 -4.000000e-002
      vertex -1.000000e-002 -4.166667e-001 -8.000000e-002
    endloop
  endfacet
  facet normal -1.000000e+000 0.000000e+000 0.000000e+000
    outer loop
      vertex -1.000000e-002 -3.750000e-001 -4.000000e-002
      vertex -1.000000e-002 -2.812500e-001 -4.000000e-002
      vertex -1.000000e-002 -3.333333e-001 -8.000000e-002
    endloop
  endfacet
  facet normal -1.000000e+000 0.000000e+000 0.000000e+000
    outer loop
      vertex -1.000000e-002 -2.812500e-001 -4.000000e-002
      vertex -1.000000e-002 -1.875000e-001 -4.000000e-002
      vertex -1.000000e-002 -2.500000e-001 -8.000000e-002
    endloop
  endfacet
  facet normal -1.000000e+000 0.000000e+000 0.000000e+000
    outer loop
      vertex -1.000000e-002 -1.875000e-001 -4.000000e-002
      vertex -1.000000e-002 -9.375000e-002 -4.000000e-002
      vertex -1.000000e-002 -1.666667e-001 -8.000000e-002
    endloop
  endfacet
  facet normal -1.000000e+000 0.000000e+000 0.000000e+000
    outer loop
      vertex -1.000000e-002 -9.375000e-002 -4.000000e-002
      vertex -1.000000e-002 0.000000e+000 -4.000000e-002
      vertex -1.000000e-002 -8.333334e-002 -8.000000e-002
    endloop
  endfacet
  facet normal -1.000000e+000 0.000000e+000 0.000000e+000
    outer loop
      vertex -1.000000e-002 0.000000e+000 -4.000000e-002
      vertex -1.000000e-002 9.375000e-002 -4.000000e-002
      vertex -1.000000e-002 8.333334e-002 -8.000000e-002
    endloop
  endfacet
  facet normal -1.000000e+000 0.000000e+000 0.000000e+000
    outer loop
      vertex -1.000000e-002 9.375000e-002 -4.000000e-002
      vertex -1.000000e-002 1.875000e-001 -4.000000e-002
      vertex -1.000000e-002 1.666667e-001 -8.000000e-002
    endloop
  endfacet
  facet normal -1.000000e+000 0.000000e+000 0.000000e+000
    outer loop
      vertex -1.000000e-002 1.875000e-001 -4.000000e-002
      vertex -1.000000e-002 2.812500e-001 -4.000000e-002
      vertex -1.000000e-002 2.500000e-001 -8.000000e-002
    endloop
  endfacet
  facet normal -1.000000e+000 0.000000e+000 0.000000e+000
    outer loop
      vertex -1.000000e-002 2.812500e-001 -4.000000e-002
      vertex -1.000000e-002 3.750000e-001 -4.000000e-002
      vertex -1.000000e-002 3.333333e-001 -8.000000e-002
    endloop
  endfacet
  facet normal -1.000000e+000 0.000000e+000 0.000000e+000
    outer loop
      vertex -1.000000e-002 3.750000e-001 -4.000000e-002
      vertex -1.000000e-002 4.687500e-001 -4.000000e-002
      vertex -1.000000e-002 4.166667e-001 -8.000000e-002
    endloop
  endfacet
  facet normal -1.000000e+000 0.000000e+000 0.000000e+000
    outer loop
      vertex -1.000000e-002 4.687500e-001 -4.000000e-002
      vertex -1.000000e-002 5.625000e-001 -4.000000e-002
      vertex -1.000000e-002 5.000000e-001 -8.000000e-002
    endloop
  endfacet
  facet normal -1.000000e+000 0.000000e+000 0.000000e+000
    outer loop
      vertex -1.000000e-002 5.625000e-001 -4.000000e-002
      vertex -1.000000e-002 6.562500e-001 -4.000000e-002
      vertex -1.000000e-002 5.833333e-001 -8.000000e-002
    endloop
  endfacet
  facet normal -1.000000e+000 0.000000e+000 0.000000e+000
    outer loop
      vertex -1.000000e-002 6.562500e-001 -4.000000e-002
      vertex -1.000000e-002 7.500000e-001 -4.000000e-002
      vertex -1.000000e-002 6.666667e-001 -8.000000e-002
    endloop
  endfacet
  facet normal -1.000000e+000 0.000000e+000 0.000000e+000
    outer loop
      vertex -1.000000e-002 7.500000e-001 -4.000000e-002
      vertex -1.000000e-002 7.500000e-001 -8.000000e-002
      vertex -1.000000e-002 6.666667e-001 -8.000000e-002
    endloop
  endfacet
  facet normal -1.000000e+000 0.000000e+000 0.000000e+000
    outer loop
      vertex -1.000000e-002 -7.500000e-001 -8.000000e-002
      vertex -1.000000e-002 -7.500000e-001 -4.000000e-002
      vertex -1.000000e-002 -6.666667e-001 -8.000000e-002
    endloop
  endfacet
  facet normal -1.000000e+000 0.000000e+000 0.000000e+000
    outer loop
      vertex -1.000000e-002 6.666667e-001 -8.000000e-002
      vertex -1.000000e-002 5.833333e-001 -8.000000e-002
      vertex -1.000000e-002 6.562500e-001 -4.000000e-002
    endloop
  endfacet
  facet normal -1.000000e+000 0.000000e+000 0.000000e+000
    outer loop
      vertex -1.000000e-002 5.833333e-001 -8.000000e-002
      vertex -1.000000e-002 5.000000e-001 -8.000000e-002
      vertex -1.000000e-002 5.625000e-001 -4.000000e-002
    endloop
  endfacet
  facet normal -1.000000e+000 0.000000e+000 0.000000e+000
    outer loop
      vertex -1.000000e-002 5.000000e-001 -8.000000e-002
      vertex -1.000000e-002 4.166667e-001 -8.000000e-002
      vertex -1.000000e-002 4.687500e-001 -4.000000e-002
    endloop
  endfacet
  facet normal -1.000000e+000 0.000000e+000 0.000000e+000
    outer loop
      vertex -1.000000e-002 4.166667e-001 -8.000000e-002
      vertex -1.000000e-002 3.333333e-001 -8.000000e-002
      vertex -1.000000e-002 3.750000e-001 -4.000000e-002
    endloop
  endfacet
  facet normal -1.000000e+000 0.000000e+000 0.000000e+000
    outer loop
      vertex -1.000000e-002 3.333333e-001 -8.000000e-002
      vertex -1.000000e-002 2.500000e-001 -8.000000e-002
      vertex -1.000000e-002 2.812500e-001 -4.000000e-002
    endloop
  endfacet
  facet normal -1.000000e+000 0.000000e+000 0.000000e+000
    outer loop
      vertex -1.000000e-002 2.500000e-001 -8.000000e-002
      vertex -1.000000e-002 1.666667e-001 -8.000000e-002
      vertex -1.000000e-002 1.875000e-001 -4.000000e-002
    endloop
  endfacet
  facet normal -1.000000e+000 0.000000e+000 0.000000e+000
    outer loop
      vertex -1.000000e-002 1.666667e-001 -8.000000e-002
      vertex -1.000000e-002 8.333334e-002 -8.000000e-002
      vertex -1.000000e-002 9.375000e-002 -4.000000e-002
    endloop
  endfacet
  facet normal -1.000000e+000 0.000000e+000 0.000000e+000
    outer loop
      vertex -1.000000e-002 8.333334e-002 -8.000000e-002
      vertex -1.000000e-002 0.000000e+000 -8.000000e-002
      vertex -1.000000e-002 0.000000e+000 -4.000000e-002
    endloop
  endfacet
  facet normal -1.000000e+000 0.000000e+000 0.000000e+000
    outer loop
      vertex -1.000000e-002 0.000000e+000 -8.000000e-002
      vertex -1.000000e-002 -8.333334e-002 -8.000000e-002
      vertex -1.000000e-002 0.000000e+000 -4.000000e-002
    endloop
  endfacet
  facet normal -1.000000e+000 0.000000e+000 0.000000e+000
    outer loop
      vertex -1.000000e-002 -8.333334e-002 -8.000000e-002
      vertex -1.000000e-002 -1.666667e-001 -8.000000e-002
      vertex -1.000000e-002 -9.375000e-002 -4.000000e-002
    endloop
  endfacet
  facet normal -1.000000e+000 0.000000e+000 0.000000e+000
    outer loop
      vertex -1.000000e-002 -1.666667e-001 -8.000000e-002
      vertex -1.000000e-002 -2.500000e-001 -8.000000e-002
      vertex -1.000000e-002 -1.875000e-001 -4.000000e-002
    endloop
  endfacet
  facet normal -1.000000e+000 0.000000e+000 0.000000e+000
    outer loop
      vertex -1.000000e-002 -2.500000e-001 -8.000000e-002
      vertex -1.000000e-002 -3.333333e-001 -8.000000e-002
      vertex -1.000000e-002 -2.812500e-001 -4.000000e-002
    endloop
  endfacet
  facet normal -1.000000e+000 0.000000e+000 0.000000e+000
    outer loop
      vertex -1.000000e-002 -3.333333e-001 -8.000000e-002
      vertex -1.000000e-002 -4.166667e-001 -8.000000e-002
      vertex -1.000000e-002 -3.750000e-001 -4.000000e-002
    endloop
  endfacet
  facet normal -1.000000e+000 0.000000e+000 0.000000e+000
    outer loop
      vertex -1.000000e-002 -4.166667e-001 -8.000000e-002
      vertex -1.000000e-002 -5.000000e-001 -8.000000e-002
      vertex -1.000000e-002 -4.687500e-001 -4.000000e-002
    endloop
  endfacet
  facet normal -1.000000e+000 0.000000e+000 0.000000e+000
    outer loop
      vertex -1.000000e-002 -5.000000e-001 -8.000000e-002
      vertex -1.000000e-002 -5.833333e-001 -8.000000e-002
      vertex -1.000000e-002 -5.625000e-001 -4.000000e-002
    endloop
  endfacet
  facet normal -1.000000e+000 0.000000e+000 0.000000e+000
    outer loop
      vertex -1.000000e-002 -5.833333e-001 -8.000000e-002
      vertex -1.000000e-002 -6.666667e-001 -8.000000e-002
      vertex -1.000000e-002 -6.562500e-001 -4.000000e-002
    endloop
  endfacet
  facet normal 0.000000e+000 0.000000e+000 -1.000000e+000
    outer loop
      vertex -1.000000e-002 -7.500000e-001 -8.000000e-002
      vertex -1.000000e-002 -6.666667e-001 -8.000000e-002
      vertex 1.000000e-002 -6.666667e-001 -8.000000e-002
    endloop
  endfacet
  facet normal 0.000000e+000 0.000000e+000 -1.000000e+000
    outer loop
      vertex -1.000000e-002 -6.666667e-001 -8.000000e-002
      vertex -1.000000e-002 -5.833333e-001 -8.000000e-002
      vertex 1.000000e-002 -5.833333e-001 -8.000000e-002
    endloop
  endfacet
  facet normal 0.000000e+000 0.000000e+000 -1.000000e+000
    outer loop
      vertex -1.000000e-002 -5.833333e-001 -8.000000e-002
      vertex -1.000000e-002 -5.000000e-001 -8.000000e-002
      vertex 1.000000e-002 -5.000000e-001 -8.000000e-002
    endloop
  endfacet
  facet normal 0.000000e+000 0.000000e+000 -1.000000e+000
    outer loop
      vertex -1.000000e-002 -5.000000e-001 -8.000000e-002
      vertex -1.000000e-002 -4.166667e-001 -8.000000e-002
      vertex 1.000000e-002 -4.166667e-001 -8.000000e-002
    endloop
  endfacet
  facet normal 0.000000e+000 0.000000e+000 -1.000000e+000
    outer loop
      vertex -1.000000e-002 -4.166667e-001 -8.000000e-002
      vertex -1.000000e-002 -3.333333e-001 -8.000000e-002
      vertex 1.000000e-002 -3.333333e-001 -8.000000e-002
    endloop
  endfacet
  facet normal 0.000000e+000 0.000000e+000 -1.000000e+000
    outer loop
      vertex -1.000000e-002 -3.333333e-001 -8.000000e-002
      vertex -1.000000e-002 -2.500000e-001 -8.000000e-002
      vertex 1.000000e-002 -2.500000e-001 -8.000000e-002
    endloop
  endfacet
  facet normal 0.000000e+000 0.000000e+000 -1.000000e+000
    outer loop
      vertex -1.000000e-002 -2.500000e-001 -8.000000e-002
      vertex -1.000000e-002 -1.666667e-001 -8.000000e-002
      vertex 1.000000e-002 -1.666667e-001 -8.000000e-002
    endloop
  endfacet
  facet normal 0.000000e+000 0.000000e+000 -1.000000e+000
    outer loop
      vertex -1.000000e-002 -1.666667e-001 -8.000000e-002
      vertex -1.000000e-002 -8.333334e-002 -8.000000e-002
      vertex 1.000000e-002 -8.333334e-002 -8.000000e-002
    endloop
  endfacet
  facet normal 0.000000e+000 0.000000e+000 -1.000000e+000
    outer loop
      vertex -1.000000e-002 -8.333334e-002 -8.000000e-002
      vertex -1.000000e-002 0.000000e+000 -8.000000e-002
      vertex 1.000000e-002 0.000000e+000 -8.000000e-002
    endloop
  endfacet
  facet normal 0.000000e+000 0.000000e+000 -1.000000e+000
    outer loop
      vertex -1.000000e-002 0.000000e+000 -8.000000e-002
      vertex -1.000000e-002 8.333334e-002 -8.000000e-002
      vertex 1.000000e-002 8.333334e-002 -8.000000e-002
    endloop
  endfacet
  facet normal 0.000000e+000 0.000000e+000 -1.000000e+000
    outer loop
      vertex -1.000000e-002 8.333334e-002 -8.000000e-002
      vertex -1.000000e-002 1.666667e-001 -8.000000e-002
      vertex 1.000000e-002 1.666667e-001 -8.000000e-002
    endloop
  endfacet
  facet normal 0.000000e+000 0.000000e+000 -1.000000e+000
    outer loop
      vertex -1.000000e-002 1.666667e-001 -8.000000e-002
      vertex -1.000000e-002 2.500000e-001 -8.000000e-002
      vertex 1.000000e-002 2.500000e-001 -8.000000e-002
    endloop
  endfacet
  facet normal 0.000000e+000 0.000000e+000 -1.000000e+000
    outer loop
      vertex -1.000000e-002 2.500000e-001 -8.000000e-002
      vertex -1.000000e-002 3.333333e-001 -8.000000e-002
      vertex 1.000000e-002 3.333333e-001 -8.000000e-002
    endloop
  endfacet
  facet normal 0.000000e+000 0.000000e+000 -1.000000e+000
    outer loop
      vertex -1.000000e-002 3.333333e-001 -8.000000e-002
      vertex -1.000000e-002 4.166667e-001 -8.000000e-002
      vertex 1.000000e-002 4.166667e-001 -8.000000e-002
    endloop
  endfacet
  facet normal 0.000000e+000 0.000000e+000 -1.000000e+000
    outer loop
      vertex -1.000000e-002 4.166667e-001 -8.000000e-002
      vertex -1.000000e-002 5.000000e-001 -8.000000e-002
      vertex 1.000000e-002 5.000000e-001 -8.000000e-002
    endloop
  endfacet
  facet normal 0.000000e+000 0.000000e+000 -1.000000e+000
    outer loop
      vertex -1.000000e-002 5.000000e-001 -8.000000e-002
      vertex -1.000000e-002 5.833333e-001 -8.000000e-002
      vertex 1.000000e-002 5.833333e-001 -8.000000e-002
    endloop
  endfacet
  facet normal 0.000000e+000 0.000000e+000 -1.000000e+000
    outer loop
      vertex -1.000000e-002 5.833333e-001 -8.000000e-002
      vertex -1.000000e-002 6.666667e-001 -8.000000e-002
      vertex 1.000000e-002 6.666667e-001 -8.000000e-002
    endloop
  endfacet
  facet normal 0.000000e+000 0.000000e+000 -1.000000e+000
    outer loop
      vertex -1.000000e-002 6.666667e-001 -8.000000e-002
      vertex -1.000000e-002 7.500000e-001 -8.000000e-002
      vertex 1.000000e-002 7.500000e-001 -8.000000e-002
    endloop
  endfacet
  facet normal 0.000000e+000 0.000000e+000 -1.000000e+000
    outer loop
      vertex 1.000000e-002 -7.500000e-001 -8.000000e-002
      vertex -1.000000e-002 -7.500000e-001 -8.000000e-002
      vertex 1.000000e-002 -6.666667e-001 -8.000000e-002
    endloop
  endfacet
  facet normal 0.000000e+000 0.000000e+000 -1.000000e+000
    outer loop
      vertex 1.000000e-002 7.500000e-001 -8.000000e-002
      vertex 1.000000e-002 6.666667e-001 -8.000000e-002
      vertex -1.000000e-002 6.666667e-001 -8.000000e-002
    endloop
  endfacet
  facet normal 0.000000e+000 0.000000e+000 -1.000000e+000
    outer loop
      vertex 1.000000e-002 6.666667e-001 -8.000000e-002
      vertex 1.000000e-002 5.833333e-001 -8.000000e-002
      vertex -1.000000e-002 5.833333e-001 -8.000000e-002
    endloop
  endfacet
  facet normal 0.000000e+000 0.000000e+000 -1.000000e+000
    outer loop
      vertex 1.000000e-002 5.833333e-001 -8.000000e-002
      vertex 1.000000e-002 5.000000e-001 -8.000000e-002
      vertex -1.000000e-002 5.000000e-001 -8.000000e-002
    endloop
  endfacet
  facet normal 0.000000e+000 0.000000e+000 -1.000000e+000
    outer loop
      vertex 1.000000e-002 5.000000e-001 -8.000000e-002
      vertex 1.000000e-002 4.166667e-001 -8.000000e-002
      vertex -1.000000e-002 4.166667e-001 -8.000000e-002
    endloop
  endfacet
  facet normal 0.000000e+000 0.000000e+000 -1.000000e+000
    outer loop
      vertex 1.000000e-002 4.166667e-001 -8.000000e-002
      vertex 1.000000e-002 3.333333e-001 -8.000000e-002
      vertex -1.000000e-002 3.333333e-001 -8.000000e-002
    endloop
  endfacet
  facet normal 0.000000e+000 0.000000e+000 -1.000000e+000
    outer loop
      vertex 1.000000e-002 3.333333e-001 -8.000000e-002
      vertex 1.000000e-002 2.500000e-001 -8.000000e-002
      vertex -1.000000e-002 2.500000e-001 -8.000000e-002
    endloop
  endfacet
  facet normal 0.000000e+000 0.000000e+000 -1.000000e+000
    outer loop
      vertex 1.000000e-002 2.500000e-001 -8.000000e-002
      vertex 1.000000e-002 1.666667e-001 -8.000000e-002
      vertex -1.000000e-002 1.666667e-001 -8.000000e-002
    endloop
  endfacet
  facet normal 0.000000e+000 0.000000e+000 -1.000000e+000
    outer loop
      vertex 1.000000e-002 1.666667e-001 -8.000000e-002
      vertex 1.000000e-002 8.333334e-002 -8.000000e-002
      vertex -1.000000e-002 8.333334e-002 -8.000000e-002
    endloop
  endfacet
  facet normal 0.000000e+000 0.000000e+000 -1.000000e+000
    outer loop
      vertex 1.000000e-002 8.333334e-002 -8.000000e-002
      vertex 1.000000e-002 0.000000e+000 -8.000000e-002
      vertex -1.000000e-002 0.000000e+000 -8.000000e-002
    endloop
  endfacet
  facet normal 0.000000e+000 0.000000e+000 -1.000000e+000
    outer loop
      vertex 1.000000e-002 0.000000e+000 -8.000000e-002
      vertex 1.000000e-002 -8.333334e-002 -8.000000e-002
      vertex -1.000000e-002 -8.333334e-002 -8.000000e-002
    endloop
  endfacet
  facet normal 0.000000e+000 0.000000e+000 -1.000000e+000
    outer loop
      vertex 1.000000e-002 -8.333334e-002 -8.000000e-002
      vertex 1.000000e-002 -1.666667e-001 -8.000000e-002
      vertex -1.000000e-002 -1.666667e-001 -8.000000e-002
    endloop
  endfacet
  facet normal 0.000000e+000 0.000000e+000 -1.000000e+000
    outer loop
      vertex 1.000000e-002 -1.666667e-001 -8.000000e-002
      vertex 1.000000e-002 -2.500000e-001 -8.000000e-002
      vertex -1.000000e-002 -2.500000e-001 -8.000000e-002
    endloop
  endfacet
  facet normal 0.000000e+000 0.000000e+000 -1.000000e+000
    outer loop
      vertex 1.000000e-002 -2.500000e-001 -8.000000e-002
      vertex 1.000000e-002 -3.333333e-001 -8.000000e-002
      vertex -1.000000e-002 -3.333333e-001 -8.000000e-002
    endloop
  endfacet
  facet normal 0.000000e+000 0.000000e+000 -1.000000e+000
    outer loop
      vertex 1.000000e-002 -3.333333e-001 -8.000000e-002
      vertex 1.000000e-002 -4.166667e-001 -8.000000e-002
      vertex -1.000000e-002 -4.166667e-001 -8.000000e-002
    endloop
  endfacet
  facet normal 0.000000e+000 0.000000e+000 -1.000000e+000
    outer loop
      vertex 1.000000e-002 -4.166667e-001 -8.000000e-002
      vertex 1.000000e-002 -5.000000e-001 -8.000000e-002
      vertex -1.000000e-002 -5.000000e-001 -8.000000e-002
    endloop
  endfacet
  facet normal 0.000000e+000 0.000000e+000 -1.000000e+000
    outer loop
      vertex 1.000000e-002 -5.000000e-001 -8.000000e-002
      vertex 1.000000e-002 -5.833333e-001 -8.000000e-002
      vertex -1.000000e-002 -5.833333e-001 -8.000000e-002
    endloop
  endfacet
  facet normal 0.000000e+000 0.000000e+000 -1.000000e+000
    outer loop
      vertex 1.000000e-002 -5.833333e-001 -8.000000e-002
      vertex 1.000000e-002 -6.666667e-001 -8.000000e-002
      vertex -1.000000e-002 -6.666667e-001 -8.000000e-002
    endloop
  endfacet
  facet normal 1.000000e+000 0.000000e+000 0.000000e+000
    outer loop
      vertex 1.000000e-002 -7.500000e-001 -8.000000e-002
      vertex 1.000000e-002 -6.666667e-001 -8.000000e-002
      vertex 1.000000e-002 -7.500000e-001 -4.000000e-002
    endloop
  endfacet
  facet normal 1.000000e+000 0.000000e+000 0.000000e+000
    outer loop
      vertex 1.000000e-002 -6.666667e-001 -8.000000e-002
      vertex 1.000000e-002 -5.833333e-001 -8.000000e-002
      vertex 1.000000e-002 -6.562500e-001 -4.000000e-002
    endloop
  endfacet
  facet normal 1.000000e+000 0.000000e+000 0.000000e+000
    outer loop
      vertex 1.000000e-002 -5.833333e-001 -8.000000e-002
      vertex 1.000000e-002 -5.000000e-001 -8.000000e-002
      vertex 1.000000e-002 -5.625000e-001 -4.000000e-002
    endloop
  endfacet
  facet normal 1.000000e+000 0.000000e+000 0.000000e+000
    outer loop
      vertex 1.000000e-002 -5.000000e-001 -8.000000e-002
      vertex 1.000000e-002 -4.166667e-001 -8.000000e-002
      vertex 1.000000e-002 -4.687500e-001 -4.000000e-002
    endloop
  endfacet
  facet normal 1.000000e+000 0.000000e+000 0.000000e+000
    outer loop
      vertex 1.000000e-002 -4.166667e-001 -8.000000e-002
      vertex 1.000000e-002 -3.333333e-001 -8.000000e-002
      vertex 1.000000e-002 -3.750000e-001 -4.000000e-002
    endloop
  endfacet
  facet normal 1.000000e+000 0.000000e+000 0.000000e+000
    outer loop
      vertex 1.000000e-002 -3.333333e-001 -8.000000e-002
      vertex 1.000000e-002 -2.500000e-001 -8.000000e-002
      vertex 1.000000e-002 -2.812500e-001 -4.000000e-002
    endloop
  endfacet
  facet normal 1.000000e+000 0.000000e+000 0.000000e+000
    outer loop
      vertex 1.000000e-002 -2.500000e-001 -8.000000e-002
      vertex 1.000000e-002 -1.666667e-001 -8.000000e-002
      vertex 1.000000e-002 -1.875000e-001 -4.000000e-002
    endloop
  endfacet
  facet normal 1.000000e+000 0.000000e+000 0.000000e+000
    outer loop
      vertex 1.000000e-002 -1.666667e-001 -8.000000e-002
      vertex 1.000000e-002 -8.333334e-002 -8.000000e-002
      vertex 1.000000e-002 -9.375000e-002 -4.000000e-002
    endloop
  endfacet
  facet normal 1.000000e+000 0.000000e+000 0.000000e+000
    outer loop
      vertex 1.000000e-002 -8.333334e-002 -8.000000e-002
      vertex 1.000000e-002 0.000000e+000 -8.000000e-002
      vertex 1.000000e-002 0.000000e+000 -4.000000e-002
    endloop
  endfacet
  facet normal 1.000000e+000 0.000000e+000 0.000000e+000
    outer loop
      vertex 1.000000e-002 0.000000e+000 -8.000000e-002
      vertex 1.000000e-002 8.333334e-002 -8.000000e-002
      vertex 1.000000e-002 0.000000e+000 -4.000000e-002
    endloop
  endfacet
  facet normal 1.000000e+000 0.000000e+000 0.000000e+000
    outer loop
      vertex 1.000000e-002 8.333334e-002 -8.000000e-002
      vertex 1.000000e-002 1.666667e-001 -8.000000e-002
      vertex 1.000000e-002 9.375000e-002 -4.000000e-002
    endloop
  endfacet
  facet normal 1.000000e+000 0.000000e+000 0.000000e+000
    outer loop
      vertex 1.000000e-002 1.666667e-001 -8.000000e-002
      vertex 1.000000e-002 2.500000e-001 -8.000000e-002
      vertex 1.000000e-002 1.875000e-001 -4.000000e-002
    endloop
  endfacet
  facet normal 1.000000e+000 0.000000e+000 0.000000e+000
    outer loop
      vertex 1.000000e-002 2.500000e-001 -8.000000e-002
      vertex 1.000000e-002 3.333333e-001 -8.000000e-002
      vertex 1.000000e-002 2.812500e-001 -4.000000e-002
    endloop
  endfacet
  facet normal 1.000000e+000 0.000000e+000 0.000000e+000
    outer loop
      vertex 1.000000e-002 3.333333e-001 -8.000000e-002
      vertex 1.000000e-002 4.166667e-001 -8.000000e-002
      vertex 1.000000e-002 3.750000e-001 -4.000000e-002
    endloop
  endfacet
  facet normal 1.000000e+000 0.000000e+000 0.000000e+000
    outer loop
      vertex 1.000000e-002 4.166667e-001 -8.000000e-002
      vertex 1.000000e-002 5.000000e-001 -8.000000e-002
      vertex 1.000000e-002 4.687500e-001 -4.000000e-002
    endloop
  endfacet
  facet normal 1.000000e+000 0.000000e+000 0.000000e+000
    outer loop
      vertex 1.000000e-002 5.000000e-001 -8.000000e-002
      vertex 1.000000e-002 5.833333e-001 -8.000000e-002
      vertex 1.000000e-002 5.625000e-001 -4.000000e-002
    endloop
  endfacet
  facet normal 1.000000e+000 0.000000e+000 0.000000e+000
    outer loop
      vertex 1.000000e-002 5.833333e-001 -8.000000e-002
      vertex 1.000000e-002 6.666667e-001 -8.000000e-002
      vertex 1.000000e-002 6.562500e-001 -4.000000e-002
    endloop
  endfacet
  facet normal 1.000000e+000 0.000000e+000 0.000000e+000
    outer loop
      vertex 1.000000e-002 6.666667e-001 -8.000000e-002
      vertex 1.000000e-002 7.500000e-001 -8.000000e-002
      vertex 1.000000e-002 7.500000e-001 -4.000000e-002
    endloop
  endfacet
  facet normal 1.000000e+000 0.000000e+000 0.000000e+000
    outer loop
      vertex 1.000000e-002 7.500000e-001 -4.000000e-002
      vertex 1.000000e-002 6.562500e-001 -4.000000e-002
      vertex 1.000000e-002 6.666667e-001 -8.000000e-002
    endloop
  endfacet
  facet normal 1.000000e+000 0.000000e+000 0.000000e+000
    outer loop
      vertex 1.000000e-002 6.562500e-001 -4.000000e-002
      vertex 1.000000e-002 5.625000e-001 -4.000000e-002
      vertex 1.000000e-002 5.833333e-001 -8.000000e-002
    endloop
  endfacet
  facet normal 1.000000e+000 0.000000e+000 0.000000e+000
    outer loop
      vertex 1.000000e-002 5.625000e-001 -4.000000e-002
      vertex 1.000000e-002 4.687500e-001 -4.000000e-002
      vertex 1.000000e-002 5.000000e-001 -8.000000e-002
    endloop
  endfacet
  facet normal 1.000000e+000 0.000000e+000 0.000000e+000
    outer loop
      vertex 1.000000e-002 4.687500e-001 -4.000000e-002
      vertex 1.000000e-002 3.750000e-001 -4.000000e-002
      vertex 1.000000e-002 4.166667e-001 -8.000000e-002
    endloop
  endfacet
  facet normal 1.000000e+000 0.000000e+000 0.000000e+000
    outer loop
      vertex 1.000000e-002 3.750000e-001 -4.000000e-002
      vertex 1.000000e-002 2.812500e-001 -4.000000e-002
      vertex 1.000000e-002 3.333333e-001 -8.000000e-002
    endloop
  endfacet
  facet normal 1.000000e+000 0.000000e+000 0.000000e+000
    outer loop
      vertex 1.000000e-002 2.812500e-001 -4.000000e-002
      vertex 1.000000e-002 1.875000e-001 -4.000000e-002
      vertex 1.000000e-002 2.500000e-001 -8.000000e-002
    endloop
  endfacet
  facet normal 1.000000e+000 0.000000e+000 0.000000e+000
    outer loop
      vertex 1.000000e-002 1.875000e-001 -4.000000e-002
      vertex 1.000000e-002 9.375000e-002 -4.000000e-002
      vertex 1.000000e-002 1.666667e-001 -8.000000e-002
    endloop
  endfacet
  facet normal 1.000000e+000 0.000000e+000 0.000000e+000
    outer loop
      vertex 1.000000e-002 9.375000e-002 -4.000000e-002
      vertex 1.000000e-002 0.000000e+000 -4.000000e-002
      vertex 1.000000e-002 8.333334e-002 -8.000000e-002
    endloop
  endfacet
  facet normal 1.000000e+000 0.000000e+000 0.000000e+000
    outer loop
      vertex 1.000000e-002 0.000000e+000 -4.000000e-002
      vertex 1.000000e-002 -9.375000e-002 -4.000000e-002
      vertex 1.000000e-002 -8.333334e-002 -8.000000e-002
    endloop
  endfacet
  facet normal 1.000000e+000 0.000000e+000 0.000000e+000
    outer loop
      vertex 1.000000e-002 -9.375000e-002 -4.000000e-002
      vertex 1.000000e-002 -1.875000e-001 -4.000000e-002
      vertex 1.000000e-002 -1.666667e-001 -8.000000e-002
    endloop
  endfacet
  facet normal 1.000000e+000 0.000000e+000 0.000000e+000
    outer loop
      vertex 1.000000e-002 -1.875000e-001 -4.000000e-002
      vertex 1.000000e-002 -2.812500e-001 -4.000000e-002
      vertex 1.000000e-002 -2.500000e-001 -8.000000e-002
    endloop
  endfacet
  facet normal 1.000000e+000 0.000000e+000 0.000000e+000
    outer loop
      vertex 1.000000e-002 -2.812500e-001 -4.000000e-002
      vertex 1.000000e-002 -3.750000e-001 -4.000000e-002
      vertex 1.000000e-002 -3.333333e-001 -8.000000e-002
    endloop
  endfacet
  facet normal 1.000000e+000 0.000000e+000 0.000000e+000
    outer loop
      vertex 1.000000e-002 -3.750000e-001 -4.000000e-002
      vertex 1.000000e-002 -4.687500e-001 -4.000000e-002
      vertex 1.000000e-002 -4.166667e-001 -8.000000e-002
    endloop
  endfacet
  facet normal 1.000000e+000 0.000000e+000 0.000000e+000
    outer loop
      vertex 1.000000e-002 -4.687500e-001 -4.000000e-002
      vertex 1.000000e-002 -5.625000e-001 -4.000000e-002
      vertex 1.000000e-002 -5.000000e-001 -8.000000e-002
    endloop
  endfacet
  facet normal 1.000000e+000 0.000000e+000 0.000000e+000
    outer loop
      vertex 1.000000e-002 -5.625000e-001 -4.000000e-002
      vertex 1.000000e-002 -6.562500e-001 -4.000000e-002
      vertex 1.000000e-002 -5.833333e-001 -8.000000e-002
    endloop
  endfacet
  facet normal 1.000000e+000 0.000000e+000 0.000000e+000
    outer loop
      vertex 1.000000e-002 -6.562500e-001 -4.000000e-002
      vertex 1.000000e-002 -7.500000e-001 -4.000000e-002
      vertex 1.000000e-002 -6.666667e-001 -8.000000e-002
    endloop
  endfacet
  facet normal 4.472136e-001 0.000000e+000 -8.944272e-001
    outer loop
      vertex 1.000000e-002 -7.500000e-001 -4.000000e-002
      vertex 1.000000e-002 -6.562500e-001 -4.000000e-002
      vertex 3.000000e-002 -6.666667e-001 -3.000000e-002
    endloop
  endfacet
  facet normal 4.472136e-001 0.000000e+000 -8.944272e-001
    outer loop
      vertex 1.000000e-002 -6.562500e-001 -4.000000e-002
      vertex 1.000000e-002 -5.625000e-001 -4.000000e-002
      vertex 3.000000e-002 -5.833333e-001 -3.000000e-002
    endloop
  endfacet
  facet normal 4.472136e-001 0.000000e+000 -8.944272e-001
    outer loop
      vertex 1.000000e-002 -5.625000e-001 -4.000000e-002
      vertex 1.000000e-002 -4.687500e-001 -4.000000e-002
      vertex 3.000000e-002 -5.000000e-001 -3.000000e-002
    endloop
  endfacet
  facet normal 4.472136e-001 0.000000e+000 -8.944272e-001
    outer loop
      vertex 1.000000e-002 -4.687500e-001 -4.000000e-002
      vertex 1.000000e-002 -3.750000e-001 -4.000000e-002
      vertex 3.000000e-002 -4.166667e-001 -3.000000e-002
    endloop
  endfacet
  facet normal 4.472136e-001 0.000000e+000 -8.944272e-001
    outer loop
      vertex 1.000000e-002 -3.750000e-001 -4.000000e-002
      vertex 1.000000e-002 -2.812500e-001 -4.000000e-002
      vertex 3.000000e-002 -3.333333e-001 -3.000000e-002
    endloop
  endfacet
  facet normal 4.472136e-001 0.000000e+000 -8.944272e-001
    outer loop
      vertex 1.000000e-002 -2.812500e-001 -4.000000e-002
      vertex 1.000000e-002 -1.875000e-001 -4.000000e-002
      vertex 3.000000e-002 -2.500000e-001 -3.000000e-002
    endloop
  endfacet
  facet normal 4.472136e-001 0.000000e+000 -8.944272e-001
    outer loop
      vertex 1.000000e-002 -1.875000e-001 -4.000000e-002
      vertex 1.000000e-002 -9.375000e-002 -4.000000e-002
      vertex 3.000000e-002 -1.666667e-001 -3.000000e-002
    endloop
  endfacet
  facet normal 4.472136e-001 0.000000e+000 -8.944272e-001
    outer loop
      vertex 1.000000e-002 -9.375000e-002 -4.000000e-002
      vertex 1.000000e-002 0.000000e+000 -4.000000e-002
      vertex 3.000000e-002 -8.333334e-002 -3.000000e-002
    endloop
  endfacet
  facet normal 4.472136e-001 0.000000e+000 -8.944272e-001
    outer loop
      vertex 1.000000e-002 0.000000e+000 -4.000000e-002
      vertex 1.000000e-002 9.375000e-002 -4.000000e-002
      vertex 3.000000e-002 8.333334e-002 -3.000000e-002
    endloop
  endfacet
  facet normal 4.472136e-001 0.000000e+000 -8.944272e-001
    outer loop
      vertex 1.000000e-002 9.375000e-002 -4.000000e-002
      vertex 1.000000e-002 1.875000e-001 -4.000000e-002
      vertex 3.000000e-002 1.666667e-001 -3.000000e-002
    endloop
  endfacet
  facet normal 4.472136e-001 0.000000e+000 -8.944272e-001
    outer loop
      vertex 1.000000e-002 1.875000e-001 -4.000000e-002
      vertex 1.000000e-002 2.812500e-001 -4.000000e-002
      vertex 3.000000e-002 2.500000e-001 -3.000000e-002
    endloop
  endfacet
  facet normal 4.472136e-001 0.000000e+000 -8.944272e-001
    outer loop
      vertex 1.000000e-002 2.812500e-001 -4.000000e-002
      vertex 1.000000e-002 3.750000e-001 -4.000000e-002
      vertex 3.000000e-002 3.333333e-001 -3.000000e-002
    endloop
  endfacet
  facet normal 4.472136e-001 0.000000e+000 -8.944272e-001
    outer loop
      vertex 1.000000e-002 3.750000e-001 -4.000000e-002
      vertex 1.000000e-002 4.687500e-001 -4.000000e-002
      vertex 3.000000e-002 4.166667e-001 -3.000000e-002
    endloop
  endfacet
  facet normal 4.472136e-001 0.000000e+000 -8.944272e-001
    outer loop
      vertex 1.000000e-002 4.687500e-001 -4.000000e-002
      vertex 1.000000e-002 5.625000e-001 -4.000000e-002
      vertex 3.000000e-002 5.000000e-001 -3.000000e-002
    endloop
  endfacet
  facet normal 4.472136e-001 0.000000e+000 -8.944272e-001
    outer loop
      vertex 1.000000e-002 5.625000e-001 -4.000000e-002
      vertex 1.000000e-002 6.562500e-001 -4.000000e-002
      vertex 3.000000e-002 5.833333e-001 -3.000000e-002
    endloop
  endfacet
  facet normal 4.472136e-001 0.000000e+000 -8.944272e-001
    outer loop
      vertex 1.000000e-002 6.562500e-001 -4.000000e-002
      vertex 1.000000e-002 7.500000e-001 -4.000000e-002
      vertex 3.000000e-002 6.666667e-001 -3.000000e-002
    endloop
  endfacet
  facet normal 4.472136e-001 0.000000e+000 -8.944272e-001
    outer loop
      vertex 1.000000e-002 7.500000e-001 -4.000000e-002
      vertex 3.000000e-002 7.500000e-001 -3.000000e-002
      vertex 3.000000e-002 6.666667e-001 -3.000000e-002
    endloop
  endfacet
  facet normal 4.472136e-001 0.000000e+000 -8.944272e-001
    outer loop
      vertex 3.000000e-002 -7.500000e-001 -3.000000e-002
      vertex 1.000000e-002 -7.500000e-001 -4.000000e-002
      vertex 3.000000e-002 -6.666667e-001 -3.000000e-002
    endloop
  endfacet
  facet normal 4.472136e-001 0.000000e+000 -8.944272e-001
    outer loop
      vertex 3.000000e-002 6.666667e-001 -3.000000e-002
      vertex 3.000000e-002 5.833333e-001 -3.000000e-002
      vertex 1.000000e-002 6.562500e-001 -4.000000e-002
    endloop
  endfacet
  facet normal 4.472136e-001 0.000000e+000 -8.944272e-001
    outer loop
      vertex 3.000000e-002 5.833333e-001 -3.000000e-002
      vertex 3.000000e-002 5.000000e-001 -3.000000e-002
      vertex 1.000000e-002 5.625000e-001 -4.000000e-002
    endloop
  endfacet
  facet normal 4.472136e-001 0.000000e+000 -8.944272e-001
    outer loop
      vertex 3.000000e-002 5.000000e-001 -3.000000e-002
      vertex 3.000000e-002 4.166667e-001 -3.000000e-002
      vertex 1.000000e-002 4.687500e-001 -4.000000e-002
    endloop
  endfacet
  facet normal 4.472136e-001 0.000000e+000 -8.944272e-001
    outer loop
      vertex 3.000000e-002 4.166667e-001 -3.000000e-002
      vertex 3.000000e-002 3.333333e-001 -3.000000e-002
      vertex 1.000000e-002 3.750000e-001 -4.000000e-002
    endloop
  endfacet
  facet normal 4.472136e-001 0.000000e+000 -8.944272e-001
    outer loop
      vertex 3.000000e-002 3.333333e-001 -3.000000e-002
      vertex 3.000000e-002 2.500000e-001 -3.000000e-002
      vertex 1.000000e-002 2.812500e-001 -4.000000e-002
    endloop
  endfacet
  facet normal 4.472136e-001 0.000000e+000 -8.944272e-001
    outer loop
      vertex 3.000000e-002 2.500000e-001 -3.000000e-002
      vertex 3.000000e-002 1.666667e-001 -3.000000e-002
      vertex 1.000000e-002 1.875000e-001 -4.000000e-002
    endloop
  endfacet
  facet normal 4.472136e-001 0.000000e+000 -8.944272e-001
    outer loop
      vertex 3.000000e-002 1.666667e-001 -3.000000e-002
      vertex 3.000000e-002 8.333334e-002 -3.000000e-002
      vertex 1.000000e-002 9.375000e-002 -4.000000e-002
    endloop
  endfacet
  facet normal 4.472136e-001 0.000000e+000 -8.944272e-001
    outer loop
      vertex 3.000000e-002 8.333334e-002 -3.000000e-002
      vertex 3.000000e-002 0.000000e+000 -3.000000e-002
      vertex 1.000000e-002 0.000000e+000 -4.000000e-002
    endloop
  endfacet
  facet normal 4.472136e-001 0.000000e+000 -8.944272e-001
    outer loop
      vertex 3.000000e-002 0.000000e+000 -3.000000e-002
      vertex 3.000000e-002 -8.333334e-002 -3.000000e-002
      vertex 1.000000e-002 0.000000e+000 -4.000000e-002
    endloop
  endfacet
  facet normal 4.472136e-001 0.000000e+000 -8.944272e-001
    outer loop
      vertex 3.000000e-002 -8.333334e-002 -3.000000e-002
      vertex 3.000000e-002 -1.666667e-001 -3.000000e-002
      vertex 1.000000e-002 -9.375000e-002 -4.000000e-002
    endloop
  endfacet
  facet normal 4.472136e-001 0.000000e+000 -8.944272e-001
    outer loop
      vertex 3.000000e-002 -1.666667e-001 -3.000000e-002
      vertex 3.000000e-002 -2.500000e-001 -3.000000e-002
      vertex 1.000000e-002 -1.875000e-001 -4.000000e-002
    endloop
  endfacet
  facet normal 4.472136e-001 0.000000e+000 -8.944272e-001
    outer loop
      vertex 3.000000e-002 -2.500000e-001 -3.000000e-002
      vertex 3.000000e-002 -3.333333e-001 -3.000000e-002
      vertex 1.000000e-002 -2.812500e-001 -4.000000e-002
    endloop
  endfacet
  facet normal 4.472136e-001 0.000000e+000 -8.944272e-001
    outer loop
      vertex 3.000000e-002 -3.333333e-001 -3.000000e-002
      vertex 3.000000e-002 -4.166667e-001 -3.000000e-002
      vertex 1.000000e-002 -3.750000e-001 -4.000000e-002
    endloop
  endfacet
  facet normal 4.472136e-001 0.000000e+000 -8.944272e-001
    outer loop
      vertex 3.000000e-002 -4.166667e-001 -3.000000e-002
      vertex 3.000000e-002 -5.000000e-001 -3.000000e-002
      vertex 1.000000e-002 -4.687500e-001 -4.000000e-002
    endloop
  endfacet
  facet normal 4.472136e-001 0.000000e+000 -8.944272e-001
    outer loop
      vertex 3.000000e-002 -5.000000e-001 -3.000000e-002
      vertex 3.000000e-002 -5.833333e-001 -3.000000e-002
      vertex 1.000000e-002 -5.625000e-001 -4.000000e-002
    endloop
  endfacet
  facet normal 4.472136e-001 0.000000e+000 -8.944272e-001
    outer loop
      vertex 3.000000e-002 -5.833333e-001 -3.000000e-002
      vertex 3.000000e-002 -6.666667e-001 -3.000000e-002
      vertex 1.000000e-002 -6.562500e-001 -4.000000e-002
    endloop
  endfacet
  facet normal 1.000000e+000 0.000000e+000 0.000000e+000
    outer loop
      vertex 3.000000e-002 -7.500000e-001 -3.000000e-002
      vertex 3.000000e-002 -6.666667e-001 -3.000000e-002
      vertex 3.000000e-002 -6.666667e-001 -1.000000e-002
    endloop
  endfacet
  facet normal 1.000000e+000 0.000000e+000 0.000000e+000
    outer loop
      vertex 3.000000e-002 -6.666667e-001 -3.000000e-002
      vertex 3.000000e-002 -5.833333e-001 -3.000000e-002
      vertex 3.000000e-002 -5.833333e-001 -1.000000e-002
    endloop
  endfacet
  facet normal 1.000000e+000 0.000000e+000 0.000000e+000
    outer loop
      vertex 3.000000e-002 -5.833333e-001 -3.000000e-002
      vertex 3.000000e-002 -5.000000e-001 -3.000000e-002
      vertex 3.000000e-002 -5.000000e-001 -1.000000e-002
    endloop
  endfacet
  facet normal 1.000000e+000 0.000000e+000 0.000000e+000
    outer loop
      vertex 3.000000e-002 -5.000000e-001 -3.000000e-002
      vertex 3.000000e-002 -4.166667e-001 -3.000000e-002
      vertex 3.000000e-002 -4.166667e-001 -1.000000e-002
    endloop
  endfacet
  facet normal 1.000000e+000 0.000000e+000 0.000000e+000
    outer loop
      vertex 3.000000e-002 -4.166667e-001 -3.000000e-002
      vertex 3.000000e-002 -3.333333e-001 -3.000000e-002
      vertex 3.000000e-002 -3.333333e-001 -1.000000e-002
    endloop
  endfacet
  facet normal 1.000000e+000 0.000000e+000 0.000000e+000
    outer loop
      vertex 3.000000e-002 -3.333333e-001 -3.000000e-002
      vertex 3.000000e-002 -2.500000e-001 -3.000000e-002
      vertex 3.000000e-002 -2.500000e-001 -1.000000e-002
    endloop
  endfacet
  facet normal 1.000000e+000 0.000000e+000 0.000000e+000
    outer loop
      vertex 3.000000e-002 -2.500000e-001 -3.000000e-002
      vertex 3.000000e-002 -1.666667e-001 -3.000000e-002
      vertex 3.000000e-002 -1.666667e-001 -1.000000e-002
    endloop
  endfacet
  facet normal 1.000000e+000 0.000000e+000 0.000000e+000
    outer loop
      vertex 3.000000e-002 -1.666667e-001 -3.000000e-002
      vertex 3.000000e-002 -8.333334e-002 -3.000000e-002
      vertex 3.000000e-002 -8.333334e-002 -1.000000e-002
    endloop
  endfacet
  facet normal 1.000000e+000 0.000000e+000 0.000000e+000
    outer loop
      vertex 3.000000e-002 -8.333334e-002 -3.000000e-002
      vertex 3.000000e-002 0.000000e+000 -3.000000e-002
      vertex 3.000000e-002 0.000000e+000 -1.000000e-002
    endloop
  endfacet
  facet normal 1.000000e+000 0.000000e+000 0.000000e+000
    outer loop
      vertex 3.000000e-002 0.000000e+000 -3.000000e-002
      vertex 3.000000e-002 8.333334e-002 -3.000000e-002
      vertex 3.000000e-002 8.333334e-002 -1.000000e-002
    endloop
  endfacet
  facet normal 1.000000e+000 0.000000e+000 0.000000e+000
    outer loop
      vertex 3.000000e-002 8.333334e-002 -3.000000e-002
      vertex 3.000000e-002 1.666667e-001 -3.000000e-002
      vertex 3.000000e-002 1.666667e-001 -1.000000e-002
    endloop
  endfacet
  facet normal 1.000000e+000 0.000000e+000 0.000000e+000
    outer loop
      vertex 3.000000e-002 1.666667e-001 -3.000000e-002
      vertex 3.000000e-002 2.500000e-001 -3.000000e-002
      vertex 3.000000e-002 2.500000e-001 -1.000000e-002
    endloop
  endfacet
  facet normal 1.000000e+000 0.000000e+000 0.000000e+000
    outer loop
      vertex 3.000000e-002 2.500000e-001 -3.000000e-002
      vertex 3.000000e-002 3.333333e-001 -3.000000e-002
      vertex 3.000000e-002 3.333333e-001 -1.000000e-002
    endloop
  endfacet
  facet normal 1.000000e+000 0.000000e+000 0.000000e+000
    outer loop
      vertex 3.000000e-002 3.333333e-001 -3.000000e-002
      vertex 3.000000e-002 4.166667e-001 -3.000000e-002
      vertex 3.000000e-002 4.166667e-001 -1.000000e-002
    endloop
  endfacet
  facet normal 1.000000e+000 0.000000e+000 0.000000e+000
    outer loop
      vertex 3.000000e-002 4.166667e-001 -3.000000e-002
      vertex 3.000000e-002 5.000000e-001 -3.000000e-002
      vertex 3.000000e-002 5.000000e-001 -1.000000e-002
    endloop
  endfacet
  facet normal 1.000000e+000 0.000000e+000 0.000000e+000
    outer loop
      vertex 3.000000e-002 5.000000e-001 -3.000000e-002
      vertex 3.000000e-002 5.833333e-001 -3.000000e-002
      vertex 3.000000e-002 5.833333e-001 -1.000000e-002
    endloop
  endfacet
  facet normal 1.000000e+000 0.000000e+000 0.000000e+000
    outer loop
      vertex 3.000000e-002 5.833333e-001 -3.000000e-002
      vertex 3.000000e-002 6.666667e-001 -3.000000e-002
      vertex 3.000000e-002 6.666667e-001 -1.000000e-002
    endloop
  endfacet
  facet normal 1.000000e+000 0.000000e+000 0.000000e+000
    outer loop
      vertex 3.000000e-002 6.666667e-001 -3.000000e-002
      vertex 3.000000e-002 7.500000e-001 -3.000000e-002
      vertex 3.000000e-002 7.500000e-001 -1.000000e-002
    endloop
  endfacet
  facet normal 1.000000e+000 0.000000e+000 0.000000e+000
    outer loop
      vertex 3.000000e-002 -7.500000e-001 -1.000000e-002
      vertex 3.000000e-002 -7.500000e-001 -3.000000e-002
      vertex 3.000000e-002 -6.666667e-001 -1.000000e-002
    endloop
  endfacet
  facet normal 1.000000e+000 0.000000e+000 0.000000e+000
    outer loop
      vertex 3.000000e-002 7.500000e-001 -1.000000e-002
      vertex 3.000000e-002 6.666667e-001 -1.000000e-002
      vertex 3.000000e-002 6.666667e-001 -3.000000e-002
    endloop
  endfacet
  facet normal 1.000000e+000 0.000000e+000 0.000000e+000
    outer loop
      vertex 3.000000e-002 6.666667e-001 -1.000000e-002
      vertex 3.000000e-002 5.833333e-001 -1.000000e-002
      vertex 3.000000e-002 5.833333e-001 -3.000000e-002
    endloop
  endfacet
  facet normal 1.000000e+000 0.000000e+000 0.000000e+000
    outer loop
      vertex 3.000000e-002 5.833333e-001 -1.000000e-002
      vertex 3.000000e-002 5.000000e-001 -1.000000e-002
      vertex 3.000000e-002 5.000000e-001 -3.000000e-002
    endloop
  endfacet
  facet normal 1.000000e+000 0.000000e+000 0.000000e+000
    outer loop
      vertex 3.000000e-002 5.000000e-001 -1.000000e-002
      vertex 3.000000e-002 4.166667e-001 -1.000000e-002
      vertex 3.000000e-002 4.166667e-001 -3.000000e-002
    endloop
  endfacet
  facet normal 1.000000e+000 0.000000e+000 0.000000e+000
    outer loop
      vertex 3.000000e-002 4.166667e-001 -1.000000e-002
      vertex 3.000000e-002 3.333333e-001 -1.000000e-002
      vertex 3.000000e-002 3.333333e-001 -3.000000e-002
    endloop
  endfacet
  facet normal 1.000000e+000 0.000000e+000 0.000000e+000
    outer loop
      vertex 3.000000e-002 3.333333e-001 -1.000000e-002
      vertex 3.000000e-002 2.500000e-001 -1.000000e-002
      vertex 3.000000e-002 2.500000e-001 -3.000000e-002
    endloop
  endfacet
  facet normal 1.000000e+000 0.000000e+000 0.000000e+000
    outer loop
      vertex 3.000000e-002 2.500000e-001 -1.000000e-002
      vertex 3.000000e-002 1.666667e-001 -1.000000e-002
      vertex 3.000000e-002 1.666667e-001 -3.000000e-002
    endloop
  endfacet
  facet normal 1.000000e+000 0.000000e+000 0.000000e+000
    outer loop
      vertex 3.000000e-002 1.666667e-001 -1.000000e-002
      vertex 3.000000e-002 8.333334e-002 -1.000000e-002
      vertex 3.000000e-002 8.333334e-002 -3.000000e-002
    endloop
  endfacet
  facet normal 1.000000e+000 0.000000e+000 0.000000e+000
    outer loop
      vertex 3.000000e-002 8.333334e-002 -1.000000e-002
      vertex 3.000000e-002 0.000000e+000 -1.000000e-002
      vertex 3.000000e-002 0.000000e+000 -3.000000e-002
    endloop
  endfacet
  facet normal 1.000000e+000 0.000000e+000 0.000000e+000
    outer loop
      vertex 3.000000e-002 0.000000e+000 -1.000000e-002
      vertex 3.000000e-002 -8.333334e-002 -1.000000e-002
      vertex 3.000000e-002 -8.333334e-002 -3.000000e-002
    endloop
  endfacet
  facet normal 1.000000e+000 0.000000e+000 0.000000e+000
    outer loop
      vertex 3.000000e-002 -8.333334e-002 -1.000000e-002
      vertex 3.000000e-002 -1.666667e-001 -1.000000e-002
      vertex 3.000000e-002 -1.666667e-001 -3.000000e-002
    endloop
  endfacet
  facet normal 1.000000e+000 0.000000e+000 0.000000e+000
    outer loop
      vertex 3.000000e-002 -1.666667e-001 -1.000000e-002
      vertex 3.000000e-002 -2.500000e-001 -1.000000e-002
      vertex 3.000000e-002 -2.500000e-001 -3.000000e-002
    endloop
  endfacet
  facet normal 1.000000e+000 0.000000e+000 0.000000e+000
    outer loop
      vertex 3.000000e-002 -2.500000e-001 -1.000000e-002
      vertex 3.000000e-002 -3.333333e-001 -1.000000e-002
      vertex 3.000000e-002 -3.333333e-001 -3.000000e-002
    endloop
  endfacet
  facet normal 1.000000e+000 0.000000e+000 0.000000e+000
    outer loop
      vertex 3.000000e-002 -3.333333e-001 -1.000000e-002
      vertex 3.000000e-002 -4.166667e-001 -1.000000e-002
      vertex 3.000000e-002 -4.166667e-001 -3.000000e-002
    endloop
  endfacet
  facet normal 1.000000e+000 0.000000e+000 0.000000e+000
    outer loop
      vertex 3.000000e-002 -4.166667e-001 -1.000000e-002
      vertex 3.000000e-002 -5.000000e-001 -1.000000e-002
      vertex 3.000000e-002 -5.000000e-001 -3.000000e-002
    endloop
  endfacet
  facet normal 1.000000e+000 0.000000e+000 0.000000e+000
    outer loop
      vertex 3.000000e-002 -5.000000e-001 -1.000000e-002
      vertex 3.000000e-002 -5.833333e-001 -1.000000e-002
      vertex 3.000000e-002 -5.833333e-001 -3.000000e-002
    endloop
  endfacet
  facet normal 1.000000e+000 0.000000e+000 0.000000e+000
    outer loop
      vertex 3.000000e-002 -5.833333e-001 -1.000000e-002
      vertex 3.000000e-002 -6.666667e-001 -1.000000e-002
      vertex 3.000000e-002 -6.666667e-001 -3.000000e-002
    endloop
  endfacet
  facet normal 0.000000e+000 0.000000e+000 1.000000e+000
    outer loop
      vertex 0.000000e+000 7.500000e-001 -1.000000e-002
      vertex 0.000000e+000 6.250000e-001 -1.000000e-002
      vertex 3.000000e-002 6.666667e-001 -1.000000e-002
    endloop
  endfacet
  facet normal 0.000000e+000 0.000000e+000 1.000000e+000
    outer loop
      vertex 0.000000e+000 6.250000e-001 -1.000000e-002
      vertex 0.000000e+000 5.000000e-001 -1.000000e-002
      vertex 3.000000e-002 5.833333e-001 -1.000000e-002
    endloop
  endfacet
  facet normal 0.000000e+000 0.000000e+000 1.000000e+000
    outer loop
      vertex 0.000000e+000 5.000000e-001 -1.000000e-002
      vertex 0.000000e+000 3.750000e-001 -1.000000e-002
      vertex 3.000000e-002 4.166667e-001 -1.000000e-002
    endloop
  endfacet
  facet normal 0.000000e+000 0.000000e+000 1.000000e+000
    outer loop
      vertex 0.000000e+000 3.750000e-001 -1.000000e-002
      vertex 0.000000e+000 2.500000e-001 -1.000000e-002
      vertex 3.000000e-002 3.333333e-001 -1.000000e-002
    endloop
  endfacet
  facet normal 0.000000e+000 0.000000e+000 1.000000e+000
    outer loop
      vertex 0.000000e+000 2.500000e-001 -1.000000e-002
      vertex 0.000000e+000 1.250000e-001 -1.000000e-002
      vertex 3.000000e-002 1.666667e-001 -1.000000e-002
    endloop
  endfacet
  facet normal 0.000000e+000 0.000000e+000 1.000000e+000
    outer loop
      vertex 0.000000e+000 1.250000e-001 -1.000000e-002
      vertex 0.000000e+000 0.000000e+000 -1.000000e-002
      vertex 3.000000e-002 8.333334e-002 -1.000000e-002
    endloop
  endfacet
  facet normal 0.000000e+000 0.000000e+000 1.000000e+000
    outer loop
      vertex 0.000000e+000 0.000000e+000 -1.000000e-002
      vertex 0.000000e+000 -1.250000e-001 -1.000000e-002
      vertex 3.000000e-002 -8.333334e-002 -1.000000e-002
    endloop
  endfacet
  facet normal 0.000000e+000 0.000000e+000 1.000000e+000
    outer loop
      vertex 0.000000e+000 -1.250000e-001 -1.000000e-002
      vertex 0.000000e+000 -2.500000e-001 -1.000000e-002
      vertex 3.000000e-002 -1.666667e-001 -1.000000e-002
    endloop
  endfacet
  facet normal 0.000000e+000 0.000000e+000 1.000000e+000
    outer loop
      vertex 0.000000e+000 -2.500000e-001 -1.000000e-002
      vertex 0.000000e+000 -3.750000e-001 -1.000000e-002
      vertex 3.000000e-002 -3.333333e-001 -1.000000e-002
    endloop
  endfacet
  facet normal 0.000000e+000 0.000000e+000 1.000000e+000
    outer loop
      vertex 0.000000e+000 -3.750000e-001 -1.000000e-002
      vertex 0.000000e+000 -5.000000e-001 -1.000000e-002
      vertex 3.000000e-002 -4.166667e-001 -1.000000e-002
    endloop
  endfacet
  facet normal 0.000000e+000 0.000000e+000 1.000000e+000
    outer loop
      vertex 0.000000e+000 -5.000000e-001 -1.000000e-002
      vertex 0.000000e+000 -6.250000e-001 -1.000000e-002
      vertex 3.000000e-002 -5.833333e-001 -1.000000e-002
    endloop
  endfacet
  facet normal 0.000000e+000 0.000000e+000 1.000000e+000
    outer loop
      vertex 0.000000e+000 -6.250000e-001 -1.000000e-002
      vertex 0.000000e+000 -7.500000e-001 -1.000000e-002
      vertex 3.000000e-002 -6.666667e-001 -1.000000e-002
    endloop
  endfacet
  facet normal 0.000000e+000 0.000000e+000 1.000000e+000
    outer loop
      vertex 3.000000e-002 -7.500000e-001 -1.000000e-002
      vertex 3.000000e-002 -6.666667e-001 -1.000000e-002
      vertex 0.000000e+000 -7.500000e-001 -1.000000e-002
    endloop
  endfacet
  facet normal 0.000000e+000 0.000000e+000 1.000000e+000
    outer loop
      vertex 3.000000e-002 -6.666667e-001 -1.000000e-002
      vertex 3.000000e-002 -5.833333e-001 -1.000000e-002
      vertex 0.000000e+000 -6.250000e-001 -1.000000e-002
    endloop
  endfacet
  facet normal 0.000000e+000 0.000000e+000 1.000000e+000
    outer loop
      vertex 3.000000e-002 -5.833333e-001 -1.000000e-002
      vertex 3.000000e-002 -5.000000e-001 -1.000000e-002
      vertex 0.000000e+000 -5.000000e-001 -1.000000e-002
    endloop
  endfacet
  facet normal 0.000000e+000 0.000000e+000 1.000000e+000
    outer loop
      vertex 3.000000e-002 -5.000000e-001 -1.000000e-002
      vertex 3.000000e-002 -4.166667e-001 -1.000000e-002
      vertex 0.000000e+000 -5.000000e-001 -1.000000e-002
    endloop
  endfacet
  facet normal 0.000000e+000 0.000000e+000 1.000000e+000
    outer loop
      vertex 3.000000e-002 -4.166667e-001 -1.000000e-002
      vertex 3.000000e-002 -3.333333e-001 -1.000000e-002
      vertex 0.000000e+000 -3.750000e-001 -1.000000e-002
    endloop
  endfacet
  facet normal 0.000000e+000 0.000000e+000 1.000000e+000
    outer loop
      vertex 3.000000e-002 -3.333333e-001 -1.000000e-002
      vertex 3.000000e-002 -2.500000e-001 -1.000000e-002
      vertex 0.000000e+000 -2.500000e-001 -1.000000e-002
    endloop
  endfacet
  facet normal 0.000000e+000 0.000000e+000 1.000000e+000
    outer loop
      vertex 3.000000e-002 -2.500000e-001 -1.000000e-002
      vertex 3.000000e-002 -1.666667e-001 -1.000000e-002
      vertex 0.000000e+000 -2.500000e-001 -1.000000e-002
    endloop
  endfacet
  facet normal 0.000000e+000 0.000000e+000 1.000000e+000
    outer loop
      vertex 3.000000e-002 -1.666667e-001 -1.000000e-002
      vertex 3.000000e-002 -8.333334e-002 -1.000000e-002
      vertex 0.000000e+000 -1.250000e-001 -1.000000e-002
    endloop
  endfacet
  facet normal 0.000000e+000 0.000000e+000 1.000000e+000
    outer loop
      vertex 3.000000e-002 -8.333334e-002 -1.000000e-002
      vertex 3.000000e-002 0.000000e+000 -1.000000e-002
      vertex 0.000000e+000 0.000000e+000 -1.000000e-002
    endloop
  endfacet
  facet normal 0.000000e+000 0.000000e+000 1.000000e+000
    outer loop
      vertex 3.000000e-002 0.000000e+000 -1.000000e-002
      vertex 3.000000e-002 8.333334e-002 -1.000000e-002
      vertex 0.000000e+000 0.000000e+000 -1.000000e-002
    endloop
  endfacet
  facet normal 0.000000e+000 0.000000e+000 1.000000e+000
    outer loop
      vertex 3.000000e-002 8.333334e-002 -1.000000e-002
      vertex 3.000000e-002 1.666667e-001 -1.000000e-002
      vertex 0.000000e+000 1.250000e-001 -1.000000e-002
    endloop
  endfacet
  facet normal 0.000000e+000 0.000000e+000 1.000000e+000
    outer loop
      vertex 3.000000e-002 1.666667e-001 -1.000000e-002
      vertex 3.000000e-002 2.500000e-001 -1.000000e-002
      vertex 0.000000e+000 2.500000e-001 -1.000000e-002
    endloop
  endfacet
  facet normal 0.000000e+000 0.000000e+000 1.000000e+000
    outer loop
      vertex 3.000000e-002 2.500000e-001 -1.000000e-002
      vertex 3.000000e-002 3.333333e-001 -1.000000e-002
      vertex 0.000000e+000 2.500000e-001 -1.000000e-002
    endloop
  endfacet
  facet normal 0.000000e+000 0.000000e+000 1.000000e+000
    outer loop
      vertex 3.000000e-002 3.333333e-001 -1.000000e-002
      vertex 3.000000e-002 4.166667e-001 -1.000000e-002
      vertex 0.000000e+000 3.750000e-001 -1.000000e-002
    endloop
  endfacet
  facet normal 0.000000e+000 0.000000e+000 1.000000e+000
    outer loop
      vertex 3.000000e-002 4.166667e-001 -1.000000e-002
      vertex 3.000000e-002 5.000000e-001 -1.000000e-002
      vertex 0.000000e+000 5.000000e-001 -1.000000e-002
    endloop
  endfacet
  facet normal 0.000000e+000 0.000000e+000 1.000000e+000
    outer loop
      vertex 3.000000e-002 5.000000e-001 -1.000000e-002
      vertex 3.000000e-002 5.833333e-001 -1.000000e-002
      vertex 0.000000e+000 5.000000e-001 -1.000000e-002
    endloop
  endfacet
  facet normal 0.000000e+000 0.000000e+000 1.000000e+000
    outer loop
      vertex 3.000000e-002 5.833333e-001 -1.000000e-002
      vertex 3.000000e-002 6.666667e-001 -1.000000e-002
      vertex 0.000000e+000 6.250000e-001 -1.000000e-002
    endloop
  endfacet
  facet normal 0.000000e+000 0.000000e+000 1.000000e+000
    outer loop
      vertex 3.000000e-002 6.666667e-001 -1.000000e-002
      vertex 3.000000e-002 7.500000e-001 -1.000000e-002
      vertex 0.000000e+000 7.500000e-001 -1.000000e-002
    endloop
  endfacet
  facet normal 0.000000e+000 1.000000e+000 0.000000e+000
    outer loop
      vertex -3.000000e-002 7.500000e-001 -1.000000e-002
      vertex 0.000000e+000 7.500000e-001 -1.000000e-002
      vertex -3.000000e-002 7.500000e-001 -3.000000e-002
    endloop
  endfacet
  facet normal 0.000000e+000 1.000000e+000 0.000000e+000
    outer loop
      vertex -1.000000e-002 7.500000e-001 -4.000000e-002
      vertex -3.000000e-002 7.500000e-001 -3.000000e-002
      vertex 0.000000e+000 7.500000e-001 -1.000000e-002
    endloop
  endfacet
  facet normal 0.000000e+000 1.000000e+000 0.000000e+000
    outer loop
      vertex -1.000000e-002 7.500000e-001 -8.000000e-002
      vertex -1.000000e-002 7.500000e-001 -4.000000e-002
      vertex 1.000000e-002 7.500000e-001 -4.000000e-002
    endloop
  endfacet
  facet normal 0.000000e+000 1.000000e+000 0.000000e+000
    outer loop
      vertex 1.000000e-002 7.500000e-001 -8.000000e-002
      vertex -1.000000e-002 7.500000e-001 -8.000000e-002
      vertex 1.000000e-002 7.500000e-001 -4.000000e-002
    endloop
  endfacet
  facet normal 0.000000e+000 1.000000e+000 0.000000e+000
    outer loop
      vertex 3.000000e-002 7.500000e-001 -3.000000e-002
      vertex 1.000000e-002 7.500000e-001 -4.000000e-002
      vertex 0.000000e+000 7.500000e-001 -1.000000e-002
    endloop
  endfacet
  facet normal 0.000000e+000 1.000000e+000 0.000000e+000
    outer loop
      vertex 3.000000e-002 7.500000e-001 -1.000000e-002
      vertex 3.000000e-002 7.500000e-001 -3.000000e-002
      vertex 0.000000e+000 7.500000e-001 -1.000000e-002
    endloop
  endfacet
  facet normal 0.000000e+000 1.000000e+000 0.000000e+000
    outer loop
      vertex -1.000000e-002 7.500000e-001 -4.000000e-002
      vertex 0.000000e+000 7.500000e-001 -1.000000e-002
      vertex 1.000000e-002 7.500000e-001 -4.000000e-002
    endloop
  endfacet
  facet normal 0.000000e+000 -1.000000e+000 0.000000e+000
    outer loop
      vertex -3.000000e-002 -7.500000e-001 -1.000000e-002
      vertex -3.000000e-002 -7.500000e-001 -3.000000e-002
      vertex 0.000000e+000 -7.500000e-001 -1.000000e-002
    endloop
  endfacet
  facet normal 0.000000e+000 -1.000000e+000 0.000000e+000
    outer loop
      vertex -1.000000e-002 -7.500000e-001 -4.000000e-002
      vertex 0.000000e+000 -7.500000e-001 -1.000000e-002
      vertex -3.000000e-002 -7.500000e-001 -3.000000e-002
    endloop
  endfacet
  facet normal 0.000000e+000 -1.000000e+000 0.000000e+000
    outer loop
      vertex -1.000000e-002 -7.500000e-001 -8.000000e-002
      vertex 1.000000e-002 -7.500000e-001 -4.000000e-002
      vertex -1.000000e-002 -7.500000e-001 -4.000000e-002
    endloop
  endfacet
  facet normal 0.000000e+000 -1.000000e+000 0.000000e+000
    outer loop
      vertex 1.000000e-002 -7.500000e-001 -8.000000e-002
      vertex 1.000000e-002 -7.500000e-001 -4.000000e-002
      vertex -1.000000e-002 -7.500000e-001 -8.000000e-002
    endloop
  endfacet
  facet normal 0.000000e+000 -1.000000e+000 0.000000e+000
    outer loop
      vertex 3.000000e-002 -7.500000e-001 -3.000000e-002
      vertex 0.000000e+000 -7.500000e-001 -1.000000e-002
      vertex 1.000000e-002 -7.500000e-001 -4.000000e-002
    endloop
  endfacet
  facet normal 0.000000e+000 -1.000000e+000 0.000000e+000
    outer loop
      vertex 3.000000e-002 -7.500000e-001 -1.000000e-002
      vertex 0.000000e+000 -7.500000e-001 -1.000000e-002
      vertex 3.000000e-002 -7.500000e-001 -3.000000e-002
    endloop
  endfacet
  facet normal 0.000000e+000 -1.000000e+000 0.000000e+000
    outer loop
      vertex -1.000000e-002 -7.500000e-001 -4.000000e-002
      vertex 1.000000e-002 -7.500000e-001 -4.000000e-002
      vertex 0.000000e+000 -7.500000e-001 -1.000000e-002
    endloop
  endfacet
endsolid OBJECT
