600 0 1 0           
37 SolidWorks(2001239)-Sat-Convertor-2.0 13 ACIS 6.0.3 NT 24 Mon Oct 08 15:26:20 2001 
1000 9.9999999999999995e-007 1e-010 
-0 body $1 $2 $-1 $-1 #
-1 string_attrib-name_attrib-gen-attrib $-1 $3 $-1 $0 keep keep_kept ignore copy 17 SW_COMPONENT_NAME 8 Staubli1 #
-2 lump $-1 $-1 $4 $0 #
-3 rgb_color-st-attrib $-1 $-1 $1 $0 1 0.50196078431372548 0 #
-4 shell $-1 $-1 $-1 $5 $-1 $2 #
-5 face $-1 $6 $7 $4 $-1 $8 forward single #
-6 face $-1 $9 $10 $4 $-1 $11 forward single #
-7 loop $-1 $-1 $12 $5 #
-8 plane-surface $-1 0.10700000000000309 -0.050000000000000447 0.10899999999999654 3.7747582837255299e-015 9.5872792631596601e-030 1 1.0000000000000009 2.470246229790969e-015 -3.7747582837255322e-015 forward_v I I I I #
-9 face $-1 $13 $14 $4 $-1 $15 forward single #
-10 loop $-1 $-1 $16 $6 #
-11 plane-surface $-1 0.10700000000000036 0.015000000000000832 0.10899999999999999 -1.052617595559863e-016 0.3420201433256706 0.93969262078590776 -2.8016411071676454e-016 -0.9396926207859071 0.34202014332567038 forward_v I I I I #
-12 coedge $-1 $17 $18 $19 $20 forward $7 $-1 #
-13 face $-1 $21 $22 $4 $-1 $23 forward single #
-14 loop $-1 $-1 $24 $9 #
-15 plane-surface $-1 0.10699999999999997 0.049999999999999767 -0.12100000000000047 1 2.4702462297909666e-015 -1.6177811532840969e-032 3.9288970865499885e-032 -1.0554096095242052e-031 -1.0000000000000018 forward_v I I I I #
-16 coedge $-1 $25 $26 $27 $28 forward $10 $-1 #
-17 coedge $-1 $29 $12 $30 $31 forward $7 $-1 #
-18 coedge $-1 $12 $32 $24 $33 forward $7 $-1 #
-19 coedge $-1 $26 $25 $12 $20 reversed $10 $-1 #
-20 edge $-1 $34 0 $35 0.15786620979354637 $12 $36 forward 7 unknown #
-21 face $-1 $37 $38 $4 $-1 $39 forward single #
-22 loop $-1 $-1 $40 $13 #
-23 cone-surface $-1 -0.050866209793546356 -0.14349999999999952 0.059000000000000635 6.7022362064675808e-032 1 -3.3167912860676587e-015 -1.3877787807814473e-018 1.3877787807814475e-017 0.0500000000000001 1 I I 0 1 1 forward I I I I #
-24 coedge $-1 $41 $42 $18 $33 reversed $14 $-1 #
-25 coedge $-1 $19 $16 $43 $44 forward $10 $-1 #
-26 coedge $-1 $16 $19 $42 $45 forward $10 $-1 #
-27 coedge $-1 $46 $47 $16 $28 reversed $48 $-1 #
-28 edge $-1 $49 0 $50 0.19120709706320138 $16 $51 forward 7 unknown #
-29 coedge $-1 $32 $17 $52 $53 reversed $7 $-1 #
-30 coedge $-1 $43 $40 $17 $31 reversed $22 $-1 #
-31 edge $-1 $35 -0.1584999999999992 $54 -0.093499999999999694 $17 $55 forward 7 unknown #
-32 coedge $-1 $18 $29 $56 $57 forward $7 $-1 #
-33 edge $-1 $58 0.0065000000000008384 $34 0.065000000000001279 $18 $59 forward 7 unknown #
-34 vertex $-1 $33 $60 #
-35 vertex $-1 $31 $61 #
-36 straight-curve $-1 0.10700000000000036 0.015000000000000832 0.10899999999999999 -1 -2.4702462297909666e-015 3.7747582837255291e-015 I I #
-37 face $-1 $62 $63 $4 $-1 $64 forward single #
-38 loop $-1 $-1 $65 $21 #
-39 cone-surface $-1 0.0070000000000014061 -0.043499999999999962 -0.0635330204727029 1.1102230246251493e-016 1.6653345369377323e-016 1 -2.3418766925686806e-017 -0.099999999999999811 3.6082248300317558e-016 1 I I 0 1 1 forward I I I I #
-40 coedge $-1 $30 $66 $67 $68 reversed $22 $-1 #
-41 coedge $-1 $69 $24 $70 $71 forward $14 $-1 #
-42 coedge $-1 $24 $72 $26 $45 reversed $14 $-1 #
-43 coedge $-1 $73 $30 $25 $44 reversed $22 $-1 #
-44 edge $-1 $50 2.4116622856031555 $35 3.1415926535897367 $25 $74 forward 7 unknown #
-45 edge $-1 $34 0 $49 0.037246222036660871 $26 $75 forward 7 unknown #
-46 coedge $-1 $76 $27 $72 $77 forward $48 $-1 #
-47 coedge $-1 $27 $78 $73 $79 forward $48 $-1 #
-48 loop $-1 $-1 $78 $62 #
-49 vertex $-1 $77 $80 #
-50 vertex $-1 $28 $81 #
-51 straight-curve $-1 0.10700000000000207 0.050000000000001849 0.096261041800674157 -1 -2.4702462297909666e-015 3.7747582837255291e-015 I I #
-52 coedge $-1 $67 $82 $29 $53 forward $63 $-1 #
-53 edge $-1 $83 0.00021147360543194438 $54 0.15786620979354904 $52 $84 forward 7 unknown #
-54 vertex $-1 $53 $85 #
-55 straight-curve $-1 -0.050866209793544948 -0.14349999999999855 0.10899999999999868 -6.7022362064675808e-032 -1 3.3167912860676587e-015 I I #
-56 coedge $-1 $86 $70 $32 $57 reversed $38 $-1 #
-57 edge $-1 $83 -0.065045858074638169 $58 -2.7963742432746105e-014 $32 $87 forward 7 unknown #
-58 vertex $-1 $33 $88 #
-59 straight-curve $-1 0.10700000000000309 -0.050000000000000447 0.10899999999999654 6.7022362064675808e-032 1 -3.3167912860676587e-015 I I #
-60 point $-1 0.10700000000000036 0.015000000000000832 0.10899999999999999 #
-61 point $-1 -0.050866209793546023 0.015000000000000645 0.10900000000000024 #
-62 face $-1 $89 $48 $4 $-1 $90 forward single #
-63 loop $-1 $-1 $52 $37 #
-64 plane-surface $-1 0.10700000000000046 -0.14350000000000021 0.055017749830770457 -1.105956491842628e-016 -0.49999999999999739 0.86602540378444015 -3.3844927802454412e-016 -0.86602540378443782 -0.49999999999999606 forward_v I I I I #
-65 coedge $-1 $70 $91 $92 $93 reversed $38 $-1 #
-66 coedge $-1 $40 $73 $94 $95 reversed $22 $-1 #
-67 coedge $-1 $96 $52 $40 $68 forward $63 $-1 #
-68 edge $-1 $54 1.2212453270876477e-015 $97 1.3826215620278628 $67 $98 forward 7 unknown #
-69 coedge $-1 $72 $41 $99 $100 reversed $14 $-1 #
-70 coedge $-1 $56 $65 $41 $71 reversed $38 $-1 #
-71 edge $-1 $58 -0.2300000000000022 $101 0 $41 $102 forward 7 unknown #
-72 coedge $-1 $42 $69 $46 $77 reversed $14 $-1 #
-73 coedge $-1 $66 $43 $47 $79 reversed $22 $-1 #
-74 intcurve-curve $-1 forward { exactcur full nurbs 3 open 2 
	2.4116622856031555 3 3.1415926535897367 3 
	-0.084207097063199315 0.05000000000000162 0.096261041800680652 1 
	-0.074933855886126888 0.027202467342108062 0.10455866510286307 0.95609079209836723 
	-0.063309824798563979 0.015000000000002914 0.10899999999999482 0.95609079209836723 
	-0.050866209793546023 0.015000000000000645 0.10900000000000024 1 
	0 
	null_surface 
	null_surface 
	nullbs 
	nullbs 
	I I 
	0 
	0 
	0 
	F 1 F 0 } I I #
-75 straight-curve $-1 0.10700000000000036 0.015000000000000832 0.10899999999999999 3.2179747414020766e-016 0.93969262078590787 -0.34202014332567021 I I #
-76 coedge $-1 $103 $46 $104 $105 forward $48 $-1 #
-77 edge $-1 $49 0 $106 0.21726104180067463 $46 $107 forward 7 unknown #
-78 coedge $-1 $47 $108 $109 $110 reversed $48 $-1 #
-79 edge $-1 $111 -1.3826215620278601 $50 -0.72993036798662603 $47 $112 forward 7 unknown #
-80 point $-1 0.10700000000000207 0.050000000000001849 0.096261041800674157 #
-81 point $-1 -0.084207097063199315 0.05000000000000162 0.096261041800680652 #
-82 coedge $-1 $52 $113 $86 $114 forward $63 $-1 #
-83 vertex $-1 $53 $115 #
-84 straight-curve $-1 0.10700000000000309 -0.050000000000000447 0.10899999999999654 -1 -2.4702462297909666e-015 3.7747582837255291e-015 I I #
-85 point $-1 -0.050866209793545947 -0.049999999999998858 0.10900000000000032 #
-86 coedge $-1 $116 $56 $82 $114 reversed $38 $-1 #
-87 ellipse-curve $-1 0.0069999999999998883 -0.043499999999997062 0.10900000000000024 5.9318642287123799e-032 6.9333477997940491e-033 1 0.10000000000000009 2.4980018054065978e-016 -3.719247132494275e-016 1 I I #
-88 point $-1 0.10699999999999998 -0.043499999999999608 0.10900000000000007 #
-89 face $-1 $117 $118 $4 $-1 $119 forward single #
-90 plane-surface $-1 0.10700000000000207 0.050000000000001849 0.096261041800674157 1.2490009027033041e-016 1 1.6948183510607676e-032 -3.9288970865499885e-032 1.0554096095242052e-031 1.0000000000000018 forward_v I I I I #
-91 coedge $-1 $65 $116 $120 $121 reversed $38 $-1 #
-92 coedge $-1 $122 $99 $65 $93 forward $118 $-1 #
-93 edge $-1 $101 1.5707963267948863 $123 2.0101230328233637 $92 $124 forward 7 unknown #
-94 coedge $-1 $109 $125 $66 $95 forward $126 $-1 #
-95 edge $-1 $97 0.023097867124211455 $111 0.19350000000000023 $94 $127 forward 7 unknown #
-96 coedge $-1 $113 $67 $125 $128 reversed $63 $-1 #
-97 vertex $-1 $68 $129 #
-98 intcurve-curve $-1 forward { exactcur full nurbs 3 open 2 
	1.2212453270876477e-015 3 1.3826215620278628 3 
	-0.050866209793545947 -0.049999999999998858 0.10900000000000032 1 
	-0.075958387594113941 -0.049999999999999982 0.10899999999999865 0.84694066121736511 
	-0.095289677180525056 -0.077708408274473242 0.093002543023915557 0.84694066121736511 
	-0.099983575347043468 -0.12040213287578898 0.068353309632637471 1 
	0 
	null_surface 
	null_surface 
	nullbs 
	nullbs 
	I I 
	0 
	0 
	0 
	F 1 F 0 } I I #
-99 coedge $-1 $92 $104 $69 $100 forward $118 $-1 #
-100 edge $-1 $106 0 $101 0.093499999999998806 $99 $130 forward 7 unknown #
-101 vertex $-1 $100 $131 #
-102 straight-curve $-1 0.10699999999999964 -0.043499999999999039 -0.12100000000000212 -1.1102230246251493e-016 -1.6653345369377323e-016 -1 I I #
-103 coedge $-1 $132 $76 $133 $134 reversed $48 $-1 #
-104 coedge $-1 $99 $135 $76 $105 reversed $118 $-1 #
-105 edge $-1 $106 0 $136 0.036987996660168942 $76 $137 forward 7 unknown #
-106 vertex $-1 $100 $138 #
-107 straight-curve $-1 0.10700000000000207 0.050000000000001849 0.096261041800674157 -5.9318642287123799e-032 -6.9333477997940491e-033 -1 I I #
-108 coedge $-1 $78 $139 $140 $141 forward $48 $-1 #
-109 coedge $-1 $142 $94 $78 $110 forward $126 $-1 #
-110 edge $-1 $111 1.382621562027855 $143 1.8643227192818157 $109 $144 forward 7 unknown #
-111 vertex $-1 $79 $145 #
-112 ellipse-curve $-1 -0.050866209793544802 0.049999999999999829 0.058999999999998581 1.2490009027033048e-016 1 -3.3723024372989173e-015 -1.3877787807814309e-018 1.9048650856205005e-032 0.0500000000000001 1 I I #
-113 coedge $-1 $82 $96 $146 $147 reversed $63 $-1 #
-114 edge $-1 $148 3.1415926535898513 $83 4.6473431223100627 $82 $149 forward 7 unknown #
-115 point $-1 0.10678852639457115 -0.049999999999999559 0.1090000000000001 #
-116 coedge $-1 $91 $86 $150 $151 reversed $38 $-1 #
-117 face $-1 $152 $126 $4 $-1 $153 forward single #
-118 loop $-1 $-1 $99 $89 #
-119 plane-surface $-1 0.10699999999999997 0.049999999999999767 -0.12100000000000047 -4.3641572539814011e-031 -3.3584246494911029e-015 -1 1.3877787807814457e-016 0.99999999999999767 -3.358424649491095e-015 forward_v I I I I #
-120 coedge $-1 $154 $155 $91 $121 forward $156 $-1 #
-121 edge $-1 $123 5.1517156864131417 $157 6.2831853071795649 $120 $158 forward 7 unknown #
-122 coedge $-1 $159 $92 $155 $160 forward $118 $-1 #
-123 vertex $-1 $121 $161 #
-124 ellipse-curve $-1 0.0070000000000004312 -0.043500000000000046 -0.12100000000000019 -5.9318642287123799e-032 -6.9333477997940491e-033 -1 1.3877787807814452e-017 0.09999999999999977 -3.3653635433950023e-016 1 I I #
-125 coedge $-1 $94 $162 $96 $128 forward $126 $-1 #
-126 loop $-1 $-1 $125 $117 #
-127 straight-curve $-1 -0.099983575347044773 -0.14350000000000043 0.068353309632639303 6.7022362064675808e-032 1 -3.3167912860676587e-015 I I #
-128 edge $-1 $163 4.8665135774241595 $97 4.9005637451517163 $125 $164 forward 7 unknown #
-129 point $-1 -0.099983575347043468 -0.12040213287578898 0.068353309632637471 #
-130 straight-curve $-1 0.10699999999999997 0.049999999999999767 -0.12100000000000047 -1.3877787807814496e-016 -1 3.3584246494911029e-015 I I #
-131 point $-1 0.10699999999999964 -0.043499999999999039 -0.12100000000000212 #
-132 coedge $-1 $165 $103 $166 $167 reversed $48 $-1 #
-133 coedge $-1 $168 $169 $103 $134 forward $170 $-1 #
-134 edge $-1 $171 0.0017241531496701157 $136 0.059999999999999595 $133 $172 forward 7 unknown #
-135 coedge $-1 $104 $159 $168 $173 reversed $118 $-1 #
-136 vertex $-1 $134 $174 #
-137 straight-curve $-1 0.10699999999999997 0.049999999999999767 -0.12100000000000047 -1 -2.4702462297909666e-015 3.7747582837255291e-015 I I #
-138 point $-1 0.10699999999999997 0.049999999999999767 -0.12100000000000047 #
-139 coedge $-1 $108 $165 $175 $176 reversed $48 $-1 #
-140 coedge $-1 $177 $178 $108 $141 reversed $179 $-1 #
-141 edge $-1 $180 0.17701200333982881 $143 0.19699999999999962 $108 $181 forward 7 unknown #
-142 coedge $-1 $182 $109 $178 $183 reversed $126 $-1 #
-143 vertex $-1 $183 $184 #
-144 ellipse-curve $-1 0.29047058823529415 0.050000000000000142 -0.006000000000002309 -1.2490009027033048e-016 -1 3.3723024372989173e-015 -2.8459620281333112e-015 3.4286299289868727e-018 0.39747058823529535 1 I I #
-145 point $-1 -0.099983575347043233 0.049999999999999788 0.068353309632638137 #
-146 coedge $-1 $185 $150 $113 $147 forward $186 $-1 #
-147 edge $-1 $148 0.099999999999992983 $163 0.20928850168841695 $146 $187 forward 7 unknown #
-148 vertex $-1 $114 $188 #
-149 intcurve-curve $-1 forward { exactcur full nurbs 3 open 2 
	3.1415926535898513 3 4.6473431223100627 3 
	0.0070000000000074751 -0.14349999999999943 0.055017749830760854 1 
	0.06260098183838339 -0.14349999999999363 0.055017749830771623 0.81981731731089769 
	0.10317446257507723 -0.10548340043742696 0.076966643821893554 0.81981731731089769 
	0.10678852639457115 -0.049999999999999559 0.1090000000000001 1 
	0 
	null_surface 
	null_surface 
	nullbs 
	nullbs 
	I I 
	0 
	0 
	0 
	F 1 F 0 } I I #
-150 coedge $-1 $146 $189 $116 $151 forward $186 $-1 #
-151 edge $-1 $157 0 $148 0.1185507703034645 $150 $190 forward 7 unknown #
-152 face $-1 $191 $156 $4 $-1 $192 forward single #
-153 cone-surface $-1 0.29047058823529437 -0.14349999999999918 -0.006000000000000269 6.7022362064675808e-032 1 -3.3167912860676587e-015 -1.489331533916198e-017 -3.5102639749170162e-018 0.39747058823529535 1 I I 0 1 1 forward I I I I #
-154 coedge $-1 $193 $120 $189 $194 forward $156 $-1 #
-155 coedge $-1 $120 $195 $122 $160 reversed $156 $-1 #
-156 loop $-1 $-1 $193 $152 #
-157 vertex $-1 $121 $196 #
-158 intcurve-curve $-1 forward { exactcur full nurbs 3 open 2 
	5.1517156864131417 3 6.2831853071795649 3 
	0.097503824059923 -0.086033020472700519 -0.12100000000000205 1 
	0.080542562340154902 -0.12212401587955497 -0.084909004593144766 0.89612996222772212 
	0.046877867904193155 -0.14349999999999913 -0.063533020472700513 0.89612996222772212 
	0.0070000000000015241 -0.14349999999999694 -0.06353302047270365 1 
	0 
	null_surface 
	null_surface 
	nullbs 
	nullbs 
	I I 
	0 
	0 
	0 
	F 1 F 0 } I I #
-159 coedge $-1 $135 $122 $197 $198 reversed $118 $-1 #
-160 edge $-1 $123 0.0094961759400797874 $199 0.10700000000000287 $122 $200 forward 7 unknown #
-161 point $-1 0.097503824059923 -0.086033020472700519 -0.12100000000000205 #
-162 coedge $-1 $125 $182 $185 $201 reversed $126 $-1 #
-163 vertex $-1 $201 $202 #
-164 intcurve-curve $-1 forward { exactcur full nurbs 3 open 2 
	4.8665135774241595 3 4.9005637451517163 3 
	-0.10228850168841649 -0.14350000000000135 0.055017749830771678 1 
	-0.10159591335770829 -0.13577842570758844 0.059475802827060359 0.99990338450687233 
	-0.10082753033954713 -0.12807839272370092 0.063921418943076791 0.99990338450687233 
	-0.099983575347043468 -0.12040213287578898 0.068353309632637471 1 
	0 
	null_surface 
	null_surface 
	nullbs 
	nullbs 
	I I 
	0 
	0 
	0 
	F 1 F 0 } I I #
-165 coedge $-1 $139 $132 $203 $204 reversed $48 $-1 #
-166 coedge $-1 $205 $206 $132 $167 forward $207 $-1 #
-167 edge $-1 $208 5.6504110870492229e-014 $171 2.3013447760009895 $166 $209 forward 7 unknown #
-168 coedge $-1 $210 $133 $135 $173 forward $170 $-1 #
-169 coedge $-1 $133 $211 $205 $212 reversed $170 $-1 #
-170 loop $-1 $-1 $168 $213 #
-171 vertex $-1 $167 $214 #
-172 straight-curve $-1 0.070012003339828446 0.050000000000005138 -0.061000000000005258 -5.9318642287123799e-032 -6.9333477997940491e-033 -1 I I #
-173 edge $-1 $136 0.95062793525152056 $215 1.5707963267949037 $168 $216 forward 7 unknown #
-174 point $-1 0.070012003339831028 0.049999999999999725 -0.12100000000000485 #
-175 coedge $-1 $211 $217 $139 $176 forward $170 $-1 #
-176 edge $-1 $180 -0.060000000000002288 $218 -0.0017241531496852147 $175 $219 forward 7 unknown #
-177 coedge $-1 $220 $140 $217 $221 reversed $179 $-1 #
-178 coedge $-1 $140 $222 $142 $183 forward $179 $-1 #
-179 loop $-1 $-1 $178 $223 #
-180 vertex $-1 $221 $224 #
-181 straight-curve $-1 0.10699999999999997 0.049999999999999767 -0.12100000000000047 -1 -2.4702462297909666e-015 3.7747582837255291e-015 I I #
-182 coedge $-1 $162 $142 $193 $225 forward $126 $-1 #
-183 edge $-1 $226 0.057466979527300829 $143 0.19350000000000112 $178 $227 forward 7 unknown #
-184 point $-1 -0.08999999999999965 0.049999999999999538 -0.12100000000000195 #
-185 coedge $-1 $189 $146 $162 $201 forward $186 $-1 #
-186 loop $-1 $-1 $185 $191 #
-187 straight-curve $-1 0.10700000000000046 -0.14350000000000021 0.055017749830770457 -1 -2.4702462297909666e-015 3.7747582837255291e-015 I I #
-188 point $-1 0.0070000000000074751 -0.14349999999999943 0.055017749830760854 #
-189 coedge $-1 $150 $185 $154 $194 reversed $186 $-1 #
-190 straight-curve $-1 0.0070000000000015241 -0.14349999999999694 -0.06353302047270365 1.1102230246251493e-016 1.6653345369377323e-016 1 I I #
-191 face $-1 $228 $186 $4 $-1 $229 forward single #
-192 plane-surface $-1 0.10700000000000279 -0.086033020472697841 -0.12100000000000739 -2.8121194216705631e-016 -0.70710678118654891 -0.70710678118654635 4.3754432342552373e-016 0.70710678118654791 -0.70710678118655046 forward_v I I I I #
-193 coedge $-1 $195 $154 $182 $225 reversed $156 $-1 #
-194 edge $-1 $157 0.099999999999998757 $230 0.20981406703032723 $154 $231 forward 7 unknown #
-195 coedge $-1 $155 $193 $222 $232 reversed $156 $-1 #
-196 point $-1 0.0070000000000015241 -0.14349999999999694 -0.06353302047270365 #
-197 coedge $-1 $233 $234 $159 $198 forward $235 $-1 #
-198 edge $-1 $215 1.5707963267949037 $199 3.1415926535898073 $197 $236 forward 7 unknown #
-199 vertex $-1 $237 $238 #
-200 straight-curve $-1 0.10700000000000279 -0.086033020472697841 -0.12100000000000739 -1 -2.4702462297909666e-015 3.7747582837255291e-015 I I #
-201 edge $-1 $163 -1.7249209238343752 $230 -1.4255381740223498 $185 $239 forward 7 unknown #
-202 point $-1 -0.10228850168841649 -0.14350000000000135 0.055017749830771678 #
-203 coedge $-1 $240 $241 $165 $204 forward $242 $-1 #
-204 edge $-1 $218 -2.3013447760011236 $208 5.6504110870492229e-014 $203 $243 forward 7 unknown #
-205 coedge $-1 $244 $166 $169 $212 forward $207 $-1 #
-206 coedge $-1 $166 $245 $240 $246 forward $207 $-1 #
-207 loop $-1 $-1 $245 $247 #
-208 vertex $-1 $167 $248 #
-209 ellipse-curve $-1 -9.4715901788333727e-016 0.050000000000000697 1.3877787807814457e-016 1.2490009027033048e-016 1 -3.3723024372989173e-015 -5.8187158444799385e-032 -1.3877787807814746e-018 0.094000000000000139 1 I I #
-210 coedge $-1 $249 $168 $234 $250 forward $170 $-1 #
-211 coedge $-1 $169 $175 $241 $251 reversed $170 $-1 #
-212 edge $-1 $171 0.0031303866426337858 $252 0.091447981035301495 $205 $253 forward 7 unknown #
-213 face $-1 $223 $170 $4 $-1 $254 forward single #
-214 point $-1 0.070012003339828002 0.049999999999999808 -0.062724153149675374 #
-215 vertex $-1 $173 $255 #
-216 ellipse-curve $-1 1.1509126984776686e-015 -1.8266261485640598e-016 -0.12100000000000025 -5.9318642287123799e-032 -6.9333477997940491e-033 -1 1.1939480025855e-017 0.086033020472700228 -2.8939770090427614e-016 1 I I #
-217 coedge $-1 $175 $256 $177 $221 forward $170 $-1 #
-218 vertex $-1 $251 $257 #
-219 straight-curve $-1 -0.070012003339828308 0.049999999999999642 -0.060999999999999707 5.9318642287123799e-032 6.9333477997940491e-033 1 I I #
-220 coedge $-1 $222 $177 $233 $237 reversed $179 $-1 #
-221 edge $-1 $258 -1.570796326794909 $180 -0.95062793525150635 $217 $259 forward 7 unknown #
-222 coedge $-1 $178 $220 $195 $232 forward $179 $-1 #
-223 face $-1 $260 $179 $4 $-1 $261 forward single #
-224 point $-1 -0.070012003339828835 0.050000000000001335 -0.12100000000000199 #
-225 edge $-1 $226 1.277269934307971 $230 1.4255381740223523 $182 $262 forward 7 unknown #
-226 vertex $-1 $225 $263 #
-227 straight-curve $-1 -0.090000000000000316 -0.14350000000000157 -0.12100000000000169 6.7022362064675808e-032 1 -3.3167912860676587e-015 I I #
-228 face $-1 $247 $242 $4 $-1 $264 forward single #
-229 plane-surface $-1 0.10700000000000028 -0.14350000000000038 -0.063533020472702026 -2.3592239273284581e-016 -1 1.6653345369377323e-016 -1.1102230246251509e-016 -1.6653345369377341e-016 -1.0000000000000016 forward_v I I I I #
-230 vertex $-1 $225 $265 #
-231 straight-curve $-1 0.10700000000000028 -0.14350000000000038 -0.063533020472702026 -1 -2.4702462297909666e-015 3.7747582837255291e-015 I I #
-232 edge $-1 $199 0.10700000000000287 $226 0.19700000000000317 $222 $266 forward 7 unknown #
-233 coedge $-1 $267 $197 $220 $237 forward $235 $-1 #
-234 coedge $-1 $197 $268 $210 $250 reversed $235 $-1 #
-235 loop $-1 $-1 $234 $260 #
-236 ellipse-curve $-1 1.1509126984776686e-015 -1.8266261485640598e-016 -0.12100000000000025 -5.9318642287123799e-032 -6.9333477997940491e-033 -1 1.1939480025855e-017 0.086033020472700228 -2.8939770090427614e-016 1 I I #
-237 edge $-1 $199 -3.1415926535897789 $258 -1.570796326794909 $233 $269 forward 7 unknown #
-238 point $-1 -7.9869350852752227e-017 -0.08603302047270063 -0.12100000000000012 #
-239 ellipse-curve $-1 0.29047058823529437 -0.14349999999999918 -0.006000000000000269 -6.7022362064675808e-032 -1 3.3167912860676587e-015 1.4893315339162064e-017 3.5102639749170932e-018 -0.3974705882352953 1 I I #
-240 coedge $-1 $270 $203 $206 $246 reversed $242 $-1 #
-241 coedge $-1 $203 $271 $211 $251 forward $242 $-1 #
-242 loop $-1 $-1 $240 $228 #
-243 ellipse-curve $-1 -9.4715901788333727e-016 0.050000000000000697 1.3877787807814457e-016 1.2490009027033048e-016 1 -3.3723024372989173e-015 -5.8187158444799385e-032 -1.3877787807814746e-018 0.094000000000000139 1 I I #
-244 coedge $-1 $245 $205 $271 $272 reversed $207 $-1 #
-245 coedge $-1 $206 $244 $273 $274 forward $207 $-1 #
-246 edge $-1 $275 0.0020000000000012508 $208 0.047500000000001791 $206 $276 forward 7 unknown #
-247 face $-1 $213 $207 $4 $-1 $277 forward single #
-248 point $-1 4.3642274039429303e-015 0.050000000000001016 0.094000000000000111 #
-249 coedge $-1 $256 $210 $278 $279 forward $170 $-1 #
-250 edge $-1 $215 0.059999999999996625 $280 0.067999999999997521 $210 $281 forward 7 unknown #
-251 edge $-1 $252 0.091447981035301495 $218 0.17965318008177134 $241 $282 forward 7 unknown #
-252 vertex $-1 $251 $283 #
-253 intcurve-curve $-1 forward { exactcur full nubs 3 open 15 
	0.0031303866426337858 3 0.014170085941717186 2 0.025209785240800583 2 0.030729634890342278 2 0.033489559715113131 2 
	0.03624948453988399 2 0.047289183838967477 2 0.058328883138050965 2 0.061088807962821845 2 0.063848732787592719 2 
	0.069368582437134479 2 0.080408281736217987 2 0.083168206560988861 2 0.085928131385759735 2 0.091447981035301495 3 
	0.070012003339828002 0.049999999999999808 -0.062724153149675374 
	0.068202693898298167 0.052533467573264325 -0.064743684260147344 
	0.066261158543928445 0.054962837638031468 -0.066735140787474653 
	0.062097080019441461 0.059627236275608966 -0.070626289726749586 
	0.059874657527756149 0.061862139435564165 -0.072526270909317125 
	0.056307806854089093 0.065066627954946984 -0.075284058962060349 
	0.0550798716126666 0.066110031419699303 -0.076187961880060912 
	0.053175379088709201 0.067636688603963296 -0.077517601271255676 
	0.052530106409120356 0.068139158695623356 -0.077956442566826267 
	0.05121785341924967 0.069130951955148859 -0.078824808963629214 
	0.050549894906679688 0.069620964447837996 -0.07925494114997686 
	0.04716575499232168 0.072028545957410997 -0.081373169436786269 
	0.044330926367441986 0.073810198709429772 -0.082956193658403121 
	0.038384750472137866 0.077070016201586211 -0.085869505821785985 
	0.035273627417667104 0.078548370147305549 -0.087200062363148034 
	0.031188735234672395 0.080185522824503169 -0.088679297322831807 
	0.030361907502740919 0.08050235668176188 -0.088965903432605076 
	0.02868774343419974 0.081114044623456755 -0.089519778694085977 
	0.027839749637920408 0.081409046190499004 -0.089787182802796822 
	0.025285789823644197 0.082252810555153891 -0.090552682209036298 
	0.023563031082397237 0.082762987471209609 -0.091016458068114786 
	0.018333212771704046 0.08413421177082446 -0.092264519733663619 
	0.014764901371242551 0.084836747983440638 -0.092906167083601415 
	0.010194472248881276 0.085431862127376162 -0.09345009428959701 
	0.0092748616401370429 0.085536669575192528 -0.093545924007465697 
	0.0074242961270946191 0.085717120387216419 -0.093710953382576512 
	0.0064914323521329193 0.085792831894764415 -0.093780215407679515 
	0.0037021436509317119 0.085973525526423192 -0.093945538031122516 
	0.001848298712502697 0.086033020472699381 -0.094000000000005204 
	4.3258799316763294e-015 0.086033020472699437 -0.094000000000005218 
	0 
	null_surface 
	null_surface 
	nullbs 
	nullbs 
	I I 
	0 
	13 0.014170085941717186 0.025209785240800583 0.030729634890342278 0.033489559715113131 0.03624948453988399 0.047289183838967477 0.058328883138050965 0.061088807962821845 0.063848732787592719 0.069368582437134479 0.080408281736217987 0.083168206560988861 0.085928131385759735 
	0 
	F 1 F 0 } I I #
-254 cone-surface $-1 1.2408407634723025e-015 -9.8757430770964867e-016 -0.061000000000003302 -5.9318642287123799e-032 -6.9333477997940491e-033 -1 -0.086033020472700505 -2.1252274446021741e-016 3.2323541358863573e-016 1 I I 0 1 1 forward I I I I #
-255 point $-1 0.086033020472701574 -7.9967771026265403e-016 -0.12100000000000025 #
-256 coedge $-1 $217 $249 $267 $284 reversed $170 $-1 #
-257 point $-1 -0.070012003339821646 0.050000000000006747 -0.062724153149684922 #
-258 vertex $-1 $237 $285 #
-259 ellipse-curve $-1 1.1509126984776686e-015 -1.8266261485640598e-016 -0.12100000000000025 -5.9318642287123799e-032 -6.9333477997940491e-033 -1 1.1939480025855e-017 0.086033020472700228 -2.8939770090427614e-016 1 I I #
-260 face $-1 $286 $235 $4 $-1 $287 forward single #
-261 plane-surface $-1 0.10699999999999997 0.049999999999999767 -0.12100000000000047 -4.3641572539814011e-031 -3.3584246494911029e-015 -1 1.3877787807814457e-016 0.99999999999999767 -3.358424649491095e-015 forward_v I I I I #
-262 intcurve-curve $-1 forward { exactcur full nurbs 3 open 2 
	1.277269934307971 3 1.4255381740223523 3 
	-0.090000000000000385 -0.086033020472700741 -0.121 1 
	-0.095688828129463485 -0.10485416642736543 -0.10217885404533529 0.99816888295292405 
	-0.09996801950651743 -0.12404496687163905 -0.082988053601061595 0.99816888295292405 
	-0.10281406703032696 -0.14350000000000063 -0.063533020472701721 1 
	0 
	null_surface 
	null_surface 
	nullbs 
	nullbs 
	I I 
	0 
	0 
	0 
	F 1 F 0 } I I #
-263 point $-1 -0.090000000000000385 -0.086033020472700741 -0.121 #
-264 cone-surface $-1 4.3258799320433525e-015 0.097500000000002793 -5.2735593669694936e-015 -6.7022362064675808e-032 -1 3.3167912860676587e-015 -1.5164290899618996e-031 -5.551115123125773e-018 -0.094000000000000153 1 I I 0 1 1 forward I I I I #
-265 point $-1 -0.10281406703032696 -0.14350000000000063 -0.063533020472701721 #
-266 straight-curve $-1 0.10700000000000279 -0.086033020472697841 -0.12100000000000739 -1 -2.4702462297909666e-015 3.7747582837255291e-015 I I #
-267 coedge $-1 $268 $233 $256 $284 forward $235 $-1 #
-268 coedge $-1 $234 $267 $288 $289 forward $235 $-1 #
-269 ellipse-curve $-1 1.1509126984776686e-015 -1.8266261485640598e-016 -0.12100000000000025 -5.9318642287123799e-032 -6.9333477997940491e-033 -1 1.1939480025855e-017 0.086033020472700228 -2.8939770090427614e-016 1 I I #
-270 coedge $-1 $271 $240 $290 $291 forward $242 $-1 #
-271 coedge $-1 $241 $270 $244 $272 forward $242 $-1 #
-272 edge $-1 $292 0.0020000000000018614 $252 0.011466979527303356 $271 $293 forward 7 unknown #
-273 coedge $-1 $294 $295 $245 $274 reversed $296 $-1 #
-274 edge $-1 $292 -3.1415926535897558 $275 -3.76066976853815e-014 $245 $297 forward 7 unknown #
-275 vertex $-1 $246 $298 #
-276 straight-curve $-1 4.3373912317692831e-015 0.097500000000002807 0.093999999999994893 -6.7022362064675808e-032 -1 3.3167912860676587e-015 I I #
-277 cone-surface $-1 4.3258799320433525e-015 0.097500000000002793 -5.2735593669694936e-015 -6.7022362064675808e-032 -1 3.3167912860676587e-015 -1.5164290899618996e-031 -5.551115123125773e-018 -0.094000000000000153 1 I I 0 1 1 forward I I I I #
-278 coedge $-1 $299 $300 $249 $279 reversed $301 $-1 #
-279 edge $-1 $280 -1.9965778838505751e-014 $302 3.1415926535898131 $249 $303 forward 7 unknown #
-280 vertex $-1 $279 $304 #
-281 straight-curve $-1 0.086033020472701754 -7.6451590489849135e-016 -0.061000000000003621 -5.9318642287123799e-032 -6.9333477997940491e-033 -1 I I #
-282 intcurve-curve $-1 forward { exactcur full nubs 3 open 14 
	0.091447981035301495 3 0.10247363091611021 2 0.10523004338631238 2 0.10798645585651455 2 0.11349928079691889 2 
	0.12452493067772756 2 0.12728134314792974 2 0.13003775561813191 2 0.1355505805585363 2 0.14657623043934506 2 
	0.15760188032015385 2 0.16311470526055821 2 0.16862753020096261 2 0.17965318008177134 3 
	4.3258799316763294e-015 0.086033020472699437 -0.094000000000005218 
	-0.0036918930356779939 0.086033020472699548 -0.094000000000005204 
	-0.0073617191979034394 0.085796360583887288 -0.093783252291193123 
	-0.011921772397985897 0.085207966565661236 -0.093245453912685905 
	-0.012832416656261445 0.085075602355205449 -0.093124507591295452 
	-0.014650961659498096 0.084781356180429465 -0.092855770708195839 
	-0.015560975841179341 0.084619039144961952 -0.092707583246895195 
	-0.018267958797268224 0.084091276992320135 -0.092226034956610081 
	-0.020041890196069299 0.083685464657261011 -0.091856086291877165 
	-0.025276940360501376 0.082315076876450302 -0.090608763880640042 
	-0.028651668199417668 0.081198228454783167 -0.089594412475332008 
	-0.032737508400155692 0.079565762214990385 -0.088119296105270944 
	-0.033548019298228697 0.079227393802663457 -0.087813873336693674 
	-0.035155908467317018 0.078527139432391549 -0.087182613226863132 
	-0.035953953211495804 0.078164883494356713 -0.086856444866375393 
	-0.038311270582423569 0.077051591575229242 -0.085855469317912769 
	-0.039839588436812574 0.07627167008403693 -0.085156052765692658 
	-0.044304755339677031 0.073826070437312111 -0.082970315005318984 
	-0.047122353817576179 0.072055099357146032 -0.08139681944442298 
	-0.05247529515168347 0.068255380530920229 -0.078053198805176804 
	-0.055010440209138985 0.066226536557893276 -0.076282840201314345 
	-0.058616823610867244 0.062994873740873938 -0.073500837070527819 
	-0.059780231018602338 0.061891304174197657 -0.072556862922688037 
	-0.062026654304419122 0.059639782937403477 -0.070646079393121702 
	-0.063110957710600199 0.05849067661569738 -0.069678267164753671 
	-0.066253203871030855 0.054973448848523059 -0.066743753039148826 
	-0.068200888489516068 0.05253599557897367 -0.064745699437375279 
	-0.070012003339821646 0.050000000000006747 -0.062724153149684922 
	0 
	null_surface 
	null_surface 
	nullbs 
	nullbs 
	I I 
	0 
	12 0.10247363091611021 0.10523004338631238 0.10798645585651455 0.11349928079691889 0.12452493067772756 0.12728134314792974 0.13003775561813191 0.1355505805585363 0.14657623043934506 0.15760188032015385 0.16311470526055821 0.16862753020096261 
	0 
	F 1 F 0 } I I #
-283 point $-1 4.3258799316763294e-015 0.086033020472699437 -0.094000000000005218 #
-284 edge $-1 $258 0.059999999999997264 $302 0.067999999999998159 $267 $305 forward 7 unknown #
-285 point $-1 -0.08603302047269927 -1.2352588575340278e-015 -0.12100000000000025 #
-286 face $-1 $306 $307 $4 $-1 $308 forward single #
-287 cone-surface $-1 1.2408407634723025e-015 -9.8757430770964867e-016 -0.061000000000003302 -5.9318642287123799e-032 -6.9333477997940491e-033 -1 -0.086033020472700505 -2.1252274446021741e-016 3.2323541358863573e-016 1 I I 0 1 1 forward I I I I #
-288 coedge $-1 $309 $310 $268 $289 reversed $311 $-1 #
-289 edge $-1 $302 -3.1415926535897731 $280 -1.9965778838505751e-014 $268 $312 forward 7 unknown #
-290 coedge $-1 $313 $314 $270 $291 reversed $307 $-1 #
-291 edge $-1 $275 -3.76066976853815e-014 $292 3.1415926535898304 $270 $315 forward 7 unknown #
-292 vertex $-1 $272 $316 #
-293 straight-curve $-1 4.3258799320433525e-015 0.097500000000002793 -0.094000000000005426 -6.7022362064675808e-032 -1 3.3167912860676587e-015 I I #
-294 coedge $-1 $317 $273 $314 $318 reversed $296 $-1 #
-295 coedge $-1 $273 $317 $313 $319 forward $296 $-1 #
-296 loop $-1 $-1 $317 $306 #
-297 ellipse-curve $-1 7.7552547717018754e-016 0.095500000000001237 -1.7208456881689926e-015 -6.7022362064675808e-032 -1 3.3167912860676587e-015 -6.6372360708445137e-032 5.5511151231257537e-018 0.094000000000000139 1 I I #
-298 point $-1 4.3105550595960477e-015 0.095500000000001556 0.093999999999998252 #
-299 coedge $-1 $320 $278 $310 $321 reversed $301 $-1 #
-300 coedge $-1 $278 $320 $309 $322 forward $301 $-1 #
-301 loop $-1 $-1 $320 $323 #
-302 vertex $-1 $279 $324 #
-303 ellipse-curve $-1 -1.9334533973847324e-016 6.9441357459746491e-016 -0.12900000000000114 5.9318642287123799e-032 6.9333477997940491e-033 1 0.086033020472700505 2.1252274446021741e-016 -3.2497013706461254e-016 1 I I #
-304 point $-1 0.086033020472700228 -8.1077994050889195e-016 -0.12900000000000114 #
-305 straight-curve $-1 -0.086033020472699256 -1.2000970521698661e-015 -0.061000000000002982 -5.9318642287123799e-032 -6.9333477997940491e-033 -1 I I #
-306 face $-1 $323 $296 $4 $-1 $325 forward single #
-307 loop $-1 $-1 $313 $286 #
-308 cone-surface $-1 4.3258799320433525e-015 0.097500000000002793 -5.2735593669694936e-015 -6.7022362064675808e-032 -1 3.3167912860676587e-015 -2.2965510880602541e-031 -2.7755575615628453e-018 -0.092000000000000123 1 I I 0.7071067811865499 0.70710678118654513 1 forward I I I I #
-309 coedge $-1 $326 $288 $300 $322 reversed $311 $-1 #
-310 coedge $-1 $288 $326 $299 $321 forward $311 $-1 #
-311 loop $-1 $-1 $309 $327 #
-312 ellipse-curve $-1 -1.9334533973847324e-016 6.9441357459746491e-016 -0.12900000000000114 5.9318642287123799e-032 6.9333477997940491e-033 1 0.086033020472700505 2.1252274446021741e-016 -3.2497013706461254e-016 1 I I #
-313 coedge $-1 $328 $290 $295 $319 reversed $307 $-1 #
-314 coedge $-1 $290 $328 $294 $318 forward $307 $-1 #
-315 ellipse-curve $-1 7.7552547717018754e-016 0.095500000000001237 -1.7208456881689926e-015 -6.7022362064675808e-032 -1 3.3167912860676587e-015 -6.6372360708445137e-032 5.5511151231257537e-018 0.094000000000000139 1 I I #
-316 point $-1 4.299043759869923e-015 0.095500000000000931 -0.094000000000001693 #
-317 coedge $-1 $295 $294 $329 $330 reversed $296 $-1 #
-318 edge $-1 $331 1.0794385653450829e-016 $292 0.0028284271247448873 $314 $332 forward 7 unknown #
-319 edge $-1 $333 -3.1401849173675415e-016 $275 0.00282842712474948 $295 $334 forward 7 unknown #
-320 coedge $-1 $300 $299 $335 $336 reversed $301 $-1 #
-321 edge $-1 $337 -0.0028284271247498039 $280 1.7663540160192227e-016 $310 $338 forward 7 unknown #
-322 edge $-1 $339 -0.0028284271247513643 $302 -2.9439233600320596e-016 $300 $340 forward 7 unknown #
-323 face $-1 $327 $301 $4 $-1 $341 forward single #
-324 point $-1 -0.086033020472700616 -1.2463610877803089e-015 -0.12900000000000114 #
-325 cone-surface $-1 4.3258799320433525e-015 0.097500000000002793 -5.2735593669694936e-015 -6.7022362064675808e-032 -1 3.3167912860676587e-015 -2.2965510880602541e-031 -2.7755575615628453e-018 -0.092000000000000123 1 I I 0.7071067811865499 0.70710678118654513 1 forward I I I I #
-326 coedge $-1 $310 $309 $342 $343 reversed $311 $-1 #
-327 face $-1 $344 $311 $4 $-1 $345 forward single #
-328 coedge $-1 $314 $313 $346 $347 reversed $307 $-1 #
-329 coedge $-1 $346 $346 $317 $330 forward $348 $-1 #
-330 edge $-1 $333 9.4678543952564438e-017 $331 3.1415926535897931 $329 $349 forward 7 unknown #
-331 vertex $-1 $318 $350 #
-332 straight-curve $-1 4.3258799320433525e-015 0.097500000000002793 -0.092000000000005397 -8.060016817260582e-032 -0.7071067811865448 -0.70710678118655024 I I #
-333 vertex $-1 $330 $351 #
-334 straight-curve $-1 4.3371463104985188e-015 0.097500000000002793 0.091999999999994836 8.6592745707193801e-017 -0.70710678118654247 0.70710678118655257 I I #
-335 coedge $-1 $342 $342 $320 $336 forward $352 $-1 #
-336 edge $-1 $339 -3.1415926535898238 $337 8.8817841970013608e-016 $335 $353 forward 7 unknown #
-337 vertex $-1 $336 $354 #
-338 straight-curve $-1 0.086033020472700311 9.0693631905768235e-016 -0.12900000000000147 0.70710678118654613 1.7467278602856914e-015 0.70710678118654891 I I #
-339 vertex $-1 $336 $355 #
-340 straight-curve $-1 -0.0860330204727007 4.9242648848818736e-016 -0.12900000000000081 -0.70710678118654346 -1.660135114578492e-015 0.70710678118655168 I I #
-341 cone-surface $-1 -1.9334533973847324e-016 6.9441357459746491e-016 -0.12900000000000114 5.9318642287123799e-032 6.9333477997940491e-033 1 0.086033020472700505 2.1252274446021741e-016 -3.2497013706461254e-016 1 I I 0.70710678118654502 0.70710678118655002 1 forward I I I I #
-342 coedge $-1 $335 $335 $326 $343 forward $352 $-1 #
-343 edge $-1 $337 9.0942136763967526e-030 $339 3.1415926535897616 $342 $356 forward 7 unknown #
-344 face $-1 $357 $348 $4 $-1 $358 forward single #
-345 cone-surface $-1 -1.9334533973847324e-016 6.9441357459746491e-016 -0.12900000000000114 5.9318642287123799e-032 6.9333477997940491e-033 1 0.086033020472700505 2.1252274446021741e-016 -3.2497013706461254e-016 1 I I 0.70710678118654502 0.70710678118655002 1 forward I I I I #
-346 coedge $-1 $329 $329 $328 $347 forward $348 $-1 #
-347 edge $-1 $331 -3.1415926535897931 $333 9.4678543952564438e-017 $346 $359 forward 7 unknown #
-348 loop $-1 $-1 $346 $344 #
-349 ellipse-curve $-1 4.3258799320433525e-015 0.097500000000002793 -5.2735593669694936e-015 6.7022362064675808e-032 1 -3.3167912860676587e-015 2.5045515220540756e-031 2.7755575615628645e-018 0.092000000000000137 1 I I #
-350 point $-1 4.3261991211629334e-015 0.097500000000002487 -0.092000000000005244 #
-351 point $-1 4.3345903580869887e-015 0.097500000000003098 0.091999999999994697 #
-352 loop $-1 $-1 $342 $357 #
-353 ellipse-curve $-1 6.9183547779515196e-016 3.3561732761362706e-015 -0.13100000000000714 -5.9318642287123799e-032 -6.9333477997940491e-033 -1 0.084033020472700476 2.8221856732670727e-016 -3.1720434013580316e-016 1 I I #
-354 point $-1 0.08403302047270117 3.5637555281369056e-015 -0.13100000000000744 #
-355 point $-1 -0.084033020472699713 4.9456610726539334e-016 -0.13100000000000714 #
-356 ellipse-curve $-1 6.9183547779515196e-016 3.3561732761362706e-015 -0.13100000000000714 -5.9318642287123799e-032 -6.9333477997940491e-033 -1 0.084033020472700476 2.0758225200063574e-016 -3.1720434013580301e-016 1 I I #
-357 face $-1 $-1 $352 $4 $-1 $360 reversed single #
-358 plane-surface $-1 4.3258799320433525e-015 0.097500000000002793 -5.2735593669694936e-015 -8.9363149419567744e-032 1 6.9333477997940491e-033 -3.9288970865499885e-032 1.0554096095242052e-031 1.0000000000000018 forward_v I I I I #
-359 ellipse-curve $-1 4.3258799320433525e-015 0.097500000000002793 -5.2735593669694936e-015 6.7022362064675808e-032 1 -3.3167912860676587e-015 2.5045515220540756e-031 2.7755575615628645e-018 0.092000000000000137 1 I I #
-360 plane-surface $-1 6.9183547779515196e-016 3.3561732761362706e-015 -0.13100000000000714 3.7747582837255299e-015 9.5872792631596601e-030 1 1.0000000000000009 2.470246229790969e-015 -3.7747582837255322e-015 forward_v I I I I #
End-of-ACIS-data 